<?xml version="1.0" standalone="no"?>
<!DOCTYPE svg PUBLIC "-//W3C//DTD SVG 1.1//EN" "http://www.w3.org/Graphics/SVG/1.1/DTD/svg11.dtd" >
<svg xmlns="http://www.w3.org/2000/svg" xmlns:xlink="http://www.w3.org/1999/xlink" version="1.1">
<metadata>
Created by FontForge 20170731 at Fri May 22 20:16:11 2020
 By Aleksey,,,
Copyright (c) 2020 by Fontastica. All rights reserved.
</metadata>
<defs>
<font id="ClarityNuvo-LightItalic" horiz-adv-x="1340" >
  <font-face 
    font-family="Clarity Nuvo Light"
    font-weight="300"
    font-style="italic"
    font-stretch="normal"
    units-per-em="2048"
    panose-1="0 0 4 0 0 0 0 0 0 0"
    ascent="1638"
    descent="-410"
    x-height="1159"
    cap-height="1605"
    bbox="-385 -596 3874 2149"
    underline-thickness="50"
    underline-position="-200"
    slope="-9"
    unicode-range="U+000D-F8FF"
  />
<missing-glyph horiz-adv-x="1000" 
d="M88 2l229 1446h824l-229 -1446h-824zM626 810l400 568h-614zM860 192l169 1066l-372 -532zM201 196l368 530l-201 524zM206 74h614l-219 566z" />
    <glyph glyph-name="f_f.liga" unicode="ff" horiz-adv-x="1213" 
d="M1206 1164h-242l3 15q13 83 65 155.5t130 117.5q73 41 192 43h6l17 98h-6q-276 0 -418 -211q-35 -51 -53 -99.5t-34 -118.5h-333l3 15q13 82 65 155t130 118q75 41 192 43h6l17 98h-6q-275 0 -418 -211q-36 -52 -53.5 -100.5t-31.5 -117.5h-165l-15 -99h164l-170 -1065
h98l169 1065h332l-170 -1065h100l169 1065h242z" />
    <glyph glyph-name="f_f_t.liga" unicode="fft" horiz-adv-x="1572" 
d="M421 1065l-170 -1065h98l169 1065h332l-170 -1065h99l169 1065h348l-120 -747q-13 -66 -9 -124t23 -101t67.5 -68t124.5 -25h28q30 0 60 3l10 1l-27 99h-4q-39 -3 -40 -3q-51 0 -80 10t-45 43q-25 56 -8 165l117 745h259l16 99h-259l68 431h-98l-68 -429h-348l3 15
q13 83 65 155.5t130 117.5q63 37 162 42h6l15 98h-6q-251 -11 -386 -210q-35 -50 -52.5 -98t-33.5 -120h-333l3 15q13 82 65 155t130 118q60 34 159 42h6l15 98h-6q-248 -13 -383 -210q-36 -52 -53.5 -100.5t-31.5 -117.5h-165l-15 -99h164z" />
    <glyph glyph-name="f_t.liga" unicode="ft" horiz-adv-x="1142" 
d="M1222 1063l16 99h-259l68 431h-98l-68 -429h-348l3 15q13 82 65.5 155t129.5 118q64 36 162 42h6l15 98h-6q-251 -11 -386 -210q-35 -50 -52 -97.5t-33 -120.5h-165l-15 -99h164l-170 -1065h98l169 1065h348l-120 -747q-13 -66 -9 -124t23 -101t67.5 -68t124.5 -25h28
q30 0 60 3l10 1l-27 99h-4q-39 -3 -40 -3q-51 0 -80 10t-45 43q-25 58 -8 165l117 745h259z" />
    <glyph glyph-name="t_t.liga" unicode="tt" horiz-adv-x="1089" 
d="M1171 1073l15 98h-259l67 422h-98l-67 -422h-312l67 422h-97l-67 -422h-147l-15 -98h147l-123 -769q-13 -67 -9 -124.5t23 -100.5t67.5 -67.5t125.5 -24.5h28q31 0 59 3l10 1l-27 98h-4q-39 -3 -40 -3q-50 0 -81 10t-45 43q-25 58 -8 165l121 769h312l-123 -769
q-13 -67 -9 -124.5t23.5 -100.5t68 -67.5t125.5 -24.5h28q29 0 58 3l10 1l-27 98h-3q-39 -3 -40 -3q-50 0 -81 10t-45 43q-25 58 -8 165l121 769h259z" />
    <glyph glyph-name=".notdef" horiz-adv-x="1000" 
d="M88 2l229 1446h824l-229 -1446h-824zM626 810l400 568h-614zM860 192l169 1066l-372 -532zM201 196l368 530l-201 524zM206 74h614l-219 566z" />
    <glyph glyph-name=".null" horiz-adv-x="0" 
 />
    <glyph glyph-name="nonmarkingreturn" horiz-adv-x="682" 
 />
    <glyph glyph-name="CR" unicode="&#xd;" horiz-adv-x="0" 
 />
    <glyph glyph-name="space" unicode=" " horiz-adv-x="850" 
 />
    <glyph glyph-name="exclam" unicode="!" horiz-adv-x="338" 
d="M367 1546l-176 -1112h96l176 1112h-96zM111 143q-5 -33 15 -57t53 -24q35 0 62 23.5t32 57.5t-15 57.5t-54 23.5t-61 -23.5t-32 -57.5z" />
    <glyph glyph-name="quotedbl" unicode="&#x22;" horiz-adv-x="469" 
d="M352 1667l-64 -402h96l64 402h-96zM549 1667l-64 -402h96l64 402h-96z" />
    <glyph glyph-name="numbersign" unicode="#" horiz-adv-x="1412" 
d="M321 68h98l140 456h361l-140 -456h97l141 456h325l15 93h-311l124 401h314l15 92h-299l136 435h-98l-134 -435h-363l136 435h-96l-136 -435h-318l-15 -92h304l-125 -401h-306l-15 -93h291zM589 617l123 401h363l-123 -401h-363z" />
    <glyph glyph-name="dollar" unicode="$" horiz-adv-x="1243" 
d="M698 69q88 2 174 27t160.5 71t127.5 120.5t67 166.5q13 82 -6.5 145.5t-53 100t-100.5 65.5t-116 41.5t-132 28.5l98 619q298 -23 318 -322l1 -10l93 64l-1 4q-20 168 -119.5 254t-276.5 101l34 216h-91l-34 -215q-89 -3 -176.5 -30.5t-163.5 -76.5t-129.5 -125.5
t-68.5 -169.5q-37 -237 190 -327q72 -27 223 -59l-95 -598q-169 16 -263.5 107t-94.5 256v9l-99 -50l1 -4q10 -187 128 -289t314 -119l-34 -216h91zM826 1455l-94 -598q-130 31 -184 52q-175 65 -149 235q15 95 83.5 167t158 106.5t185.5 37.5zM987 686q172 -65 146 -232
q-22 -141 -144 -211q-113 -65 -277 -83l92 580q109 -26 183 -54z" />
    <glyph glyph-name="percent" unicode="%" horiz-adv-x="1695" 
d="M271 1154q-15 -75 -3.5 -144t41 -122.5t89 -85t141.5 -31.5q109 0 194 54.5t131.5 139t63.5 189.5q19 123 -6.5 213.5t-115.5 143.5q-59 35 -144 35q-82 0 -152 -33t-117.5 -88.5t-78.5 -124.5t-43 -146zM296 69h116l1238 1477h-115zM832 1154q-13 -80 -44.5 -143.5
t-92.5 -106.5t-142 -43q-79 0 -126 43.5t-60 107.5t0 142q25 162 130 251q28 23 40 29q43 22 111 22q66 0 102 -22q17 -11 33 -29q74 -84 49 -251zM1019 456q-16 -104 5 -189.5t89 -141.5t177 -56q166 0 272 121q91 104 117 266q8 61 6.5 117.5t-20.5 106t-50.5 85.5t-83 57
t-118.5 21q-83 0 -153 -31.5t-118 -86t-79 -123t-44 -146.5zM1495 251q-80 -93 -191 -93q-64 0 -104 24q-60 36 -80 112.5t-7 161.5t58 161.5t116 112.5q48 24 111 24q61 0 103.5 -25.5t61 -67t24.5 -95t-5 -110.5q-19 -128 -87 -205z" />
    <glyph glyph-name="ampersand" unicode="&#x26;" horiz-adv-x="1405" 
d="M151 399q-16 -104 9.5 -185.5t85 -132t142.5 -76.5t184 -26q248 0 487 202l131 -181h127l-182 255q166 192 209 459l1 6h-101l-1 -6q-34 -218 -165 -382l-392 542q24 17 79 55.5l85 59.5q241 173 266 333q22 139 -53 222t-216 83q-159 0 -269 -97.5t-135 -255.5
q-16 -104 13 -196t92 -193q-358 -241 -397 -486zM807 1068q-61 -46 -173 -123q-116 174 -92 331q18 113 96 182t193 69q95 0 146.5 -55.5t36.5 -149.5q-18 -120 -207 -254zM1005 255q-89 -83 -198.5 -130t-219.5 -47q-76 0 -142 20.5t-114.5 59t-70.5 101t-10 140.5
q19 116 133 234q47 49 109 99t106 81z" />
    <glyph glyph-name="quotesingle" unicode="'" horiz-adv-x="272" 
d="M352 1667l-64 -402h96l64 402h-96z" />
    <glyph glyph-name="parenleft" unicode="(" horiz-adv-x="648" 
d="M462 -212l12 -9l5 -3l56 63l-4 4q-98 89 -152.5 191.5t-82.5 241.5q-46 222 1 514q48 299 171 535q122 235 363 410l4 4l-35 64l-6 -4q-265 -195 -400 -447q-131 -247 -181 -562q-23 -146 -23.5 -281t24 -267.5t87.5 -249.5t161 -204z" />
    <glyph glyph-name="parenright" unicode=")" horiz-adv-x="649" 
d="M62 -162l40 -63l6 4q267 200 398 447q130 250 180 564q51 322 -4.5 569t-253.5 440l-4 4l-60 -63l4 -4q188 -178 236 -412q47 -228 -1 -534q-48 -303 -170 -537q-123 -237 -365 -411z" />
    <glyph glyph-name="asterisk" unicode="*" horiz-adv-x="1150" 
d="M363 749l66 -57l314 355l198 -355l85 57l-205 350l436 132l-14 90l-438 -138l73 435h-94l-65 -435l-394 138l-42 -90l396 -132z" />
    <glyph glyph-name="plus" unicode="+" horiz-adv-x="1235" 
d="M685 732l-78 -493h96l78 493h482l14 90h-482l76 479h-96l-76 -479h-481l-14 -90h481z" />
    <glyph glyph-name="comma" unicode="," horiz-adv-x="427" 
d="M340 7q9 53 -10 90.5t-71 37.5q-34 0 -61 -21.5t-32 -55.5q-5 -33 12.5 -56t50.5 -23q8 0 20 2q-16 -61 -79 -114q-30 -24 -98 -42l-12 -4l80 -66l5 2q80 38 131 103t64 147z" />
    <glyph glyph-name="hyphen" unicode="-" horiz-adv-x="841" 
d="M215 804l-15 -95h665l15 95h-665z" />
    <glyph glyph-name="period" unicode="." horiz-adv-x="338" 
d="M98 65q-5 -33 14.5 -57t53.5 -24t61.5 23.5t32.5 57.5q5 33 -14.5 57t-53.5 24t-61.5 -24t-32.5 -57z" />
    <glyph glyph-name="slash" unicode="/" horiz-adv-x="857" 
d="M925 1618l-862 -1778h100l862 1778h-100z" />
    <glyph glyph-name="zero" unicode="0" horiz-adv-x="1177" 
d="M333 69q97 -90 252 -90q159 0 285.5 92.5t211.5 248.5q81 152 115 364l38 235q67 431 -136 617q-99 90 -253 90q-161 0 -285 -91.5t-210 -249.5q-84 -153 -117 -365l-38 -235q-14 -87 -15 -169t11.5 -165t48 -156.5t92.5 -125.5zM829 154q-106 -76 -228 -76
q-75 0 -133 27t-93.5 74.5t-58.5 107t-30.5 129.5t-5.5 136.5t12 132.5l38 237q13 80 37.5 159.5t67 161.5t97 143.5t132 100.5t166.5 39q91 0 157 -38.5t100.5 -99.5t50.5 -143t14.5 -161.5t-14.5 -162.5l-38 -237q-16 -100 -45.5 -192t-88.5 -187.5t-137 -150.5z" />
    <glyph glyph-name="one" unicode="1" horiz-adv-x="618" 
d="M660 1469l-233 -1469h103l251 1605h-102l-387 -318l42 -80z" />
    <glyph glyph-name="two" unicode="2" horiz-adv-x="1192" 
d="M140 87l-14 -87h978l16 100h-836l504 494q78 76 127 126t112 126t105 143q62 103 77 197q33 213 -71.5 326.5t-319.5 113.5q-208 0 -362.5 -141.5t-187.5 -348.5l-1 -6h99l1 6q26 166 147 278t288 112q168 0 250.5 -87.5t56.5 -252.5q-10 -62 -46.5 -132t-94.5 -140
t-105.5 -120t-111.5 -112z" />
    <glyph glyph-name="three" unicode="3" horiz-adv-x="1171" 
d="M160 417q-32 -204 79.5 -321t318.5 -117q85 0 164.5 17t151 53.5t128 88.5t96 126.5t53.5 163.5q22 137 -42 240t-188 154q123 50 204.5 146t100.5 219q22 137 -26 237.5t-147 151t-235 50.5q-209 0 -359.5 -117.5t-182.5 -321.5q-5 -30 -5 -53l-1 -5h100l1 6q0 1 1 12.5
t2 17.5q10 68 27 115t54 93q63 77 154.5 115t192.5 38q154 0 251 -92.5t74 -241.5q-24 -150 -147.5 -236t-279.5 -86h-190l-7 -99h181q81 0 152 -23t123.5 -65.5t77.5 -110t12 -150.5q-17 -109 -89 -189t-169 -117.5t-206 -37.5q-106 0 -184.5 37t-118 114t-23.5 183
q1 9 6 28t6 29l1 6h-101l-1 -6q-5 -24 -10 -52z" />
    <glyph glyph-name="four" unicode="4" horiz-adv-x="1337" 
d="M944 0h101l64 410h205l15 98h-205l172 1097h-103l-1040 -1195h856zM360 508l813 937l-149 -937h-664z" />
    <glyph glyph-name="five" unicode="5" horiz-adv-x="1126" 
d="M163 466q-8 -134 33.5 -238t136.5 -166t233 -62q135 0 252.5 64t197.5 182q79 115 105 279q23 147 -11.5 264.5t-133 190t-249.5 72.5q-154 0 -297 -91l123 542h712l16 100h-804l-170 -754q-1 -6 -2 -12.5t-2 -15t-2 -12.5l-2 -16l21 20l31 -68l6 9q70 89 161 140.5
t192 51.5q103 0 181.5 -56t113.5 -149q37 -97 17 -219q-18 -110 -80.5 -209t-159.5 -151q-103 -54 -199 -54q-150 0 -236.5 104t-82.5 256v5h-101v-7z" />
    <glyph glyph-name="six" unicode="6" horiz-adv-x="1127" 
d="M1114 471q34 217 -75 349.5t-327 132.5q-243 0 -402 -170l22 139q15 93 45.5 179t80.5 164t114.5 135.5t152 91.5t187.5 34q151 0 262 -85l6 -4l56 89l-5 3q-127 97 -303 97q-175 0 -321.5 -89.5t-244.5 -250.5q-65 -105 -103 -247h-6l-89 -561q-34 -212 74 -343
t323 -131q163 0 297.5 80.5t205.5 231.5q38 77 50 155zM1014 480q-25 -161 -149.5 -266t-287.5 -105q-166 0 -253 102.5t-61 265.5q26 166 145.5 268t286.5 102q161 0 252.5 -104t66.5 -263z" />
    <glyph glyph-name="seven" unicode="7" horiz-adv-x="1178" 
d="M1165 1506l-928 -1506h111l996 1605h-1002l-15 -96z" />
    <glyph glyph-name="eight" unicode="8" horiz-adv-x="1216" 
d="M187 178q56 -104 167.5 -151.5t251.5 -47.5q145 0 267.5 47.5t210.5 151t112 250.5q22 136 -42.5 239.5t-187.5 154.5q122 50 204 146.5t101 218.5q22 137 -26 237.5t-147 151t-235 50.5q-210 0 -360.5 -117t-182.5 -322q-19 -122 31.5 -219t156.5 -147
q-139 -51 -234.5 -153.5t-117.5 -239.5q-24 -143 27 -241h-1zM1171 1192q-24 -150 -147.5 -236t-279.5 -86q-158 0 -252.5 85.5t-70.5 236.5q25 155 145 244.5t281 89.5q154 0 250.5 -92.5t73.5 -241.5zM1094 422q-18 -113 -91 -193t-171 -115.5t-211 -35.5q-84 0 -155 21
t-124.5 61.5t-77.5 108t-10 153.5q17 110 91 191.5t173.5 119.5t209.5 38q81 0 152 -23t124 -65.5t78 -110t12 -150.5z" />
    <glyph glyph-name="nine" unicode="9" horiz-adv-x="1127" 
d="M1131 578l87 554q35 217 -71 349t-324 132t-370 -133.5t-186 -348.5q-33 -209 80.5 -338t324.5 -129q242 0 401 169l-22 -138q-15 -93 -45.5 -179t-81 -164t-115 -135.5t-151.5 -91.5t-187 -34q-155 0 -262 85l-6 4l-56 -89l5 -3q130 -98 303 -98q126 0 238 47t195.5 129
t143.5 186.5t92 225.5h7zM1120 1139q-25 -164 -145 -266.5t-286 -102.5q-161 0 -253 104t-67 263t150.5 264t287.5 105q165 0 252 -102t61 -265z" />
    <glyph glyph-name="colon" unicode=":" horiz-adv-x="338" 
d="M254 1046q-5 -33 14.5 -57t53.5 -24t61.5 23.5t32.5 57.5q5 35 -14 58.5t-54 23.5q-34 0 -61.5 -24t-32.5 -58zM98 65q-5 -33 14.5 -57t53.5 -24t61.5 23.5t32.5 57.5q5 33 -14.5 57t-53.5 24t-61.5 -24t-32.5 -57z" />
    <glyph glyph-name="semicolon" unicode=";" horiz-adv-x="427" 
d="M322 1046q-5 -33 14.5 -57t53.5 -24t60.5 23t32.5 58q5 35 -14 58.5t-53 23.5t-61.5 -24t-32.5 -58zM340 7q9 53 -10 90.5t-71 37.5q-34 0 -61 -21.5t-32 -55.5q-5 -32 13 -55.5t50 -23.5q8 0 20 2q-16 -61 -79 -114q-30 -24 -98 -42l-12 -4l80 -66l5 2q80 38 131 103
t64 147z" />
    <glyph glyph-name="less" unicode="&#x3c;" horiz-adv-x="1187" 
d="M199 703l928 -529l17 107l-809 462l954 459l17 107l-1094 -528z" />
    <glyph glyph-name="equal" unicode="=" horiz-adv-x="1162" 
d="M252 1035l-14 -90h986l14 90h-986zM183 598l-15 -92h986l15 92h-986z" />
    <glyph glyph-name="greater" unicode="&#x3e;" horiz-adv-x="1187" 
d="M133 281l-17 -107l1094 529l13 78l-928 528l-17 -107l813 -459z" />
    <glyph glyph-name="question" unicode="?" horiz-adv-x="1103" 
d="M613 746l-56 -355h94l46 288q155 46 263 113.5t178 188.5q44 74 63 193q30 191 -76 292t-301 101q-442 0 -551 -408l-2 -5l80 -35l2 8q58 185 163.5 268t293.5 83q151 0 236 -79t62 -225q-33 -209 -204 -315q-42 -26 -95 -46q-97 -40 -192 -66zM483 143q-5 -33 15 -57
t53 -24q35 0 61.5 23.5t31.5 57.5t-14.5 57.5t-53.5 23.5t-61 -23.5t-32 -57.5z" />
    <glyph glyph-name="at" unicode="@" horiz-adv-x="1983" 
d="M2020 802l15 79q39 249 11 438q-3 32 -12 69q-20 63 -65 134q-176 287 -635 287q-188 0 -354.5 -57.5t-295 -158.5t-228.5 -239t-163 -298.5t-91 -337.5q-24 -134 -17.5 -256.5t34 -228t87.5 -192t143 -147.5t200.5 -94t259.5 -33q248 0 424 107l6 3l-33 83l-6 -3
q-174 -90 -371 -90q-124 0 -227 30.5t-176.5 86t-127.5 133.5t-79 172.5t-32 203t14 225.5q21 133 66 257.5t114.5 240t170.5 213.5t224 165q209 112 437 112q379 0 534 -203q47 -60 74 -132t34.5 -151.5t3.5 -155.5t-18 -166q-45 -283 -146 -454q-24 -43 -45 -69
q-82 -103 -189 -103q-56 0 -101 45q-29 32 -29 108q1 6 1 15v13q2 18 4 29l196 827l-89 6l-36 -152q-39 90 -117.5 138t-185.5 48q-99 0 -189.5 -54t-152.5 -144q-64 -91 -104 -245q-50 -209 -55 -245q-19 -120 7.5 -220t107 -164.5t204.5 -64.5q181 0 318 153
q9 -88 60.5 -142.5t142.5 -54.5q84 0 159 46t125.5 114t92 157.5t64.5 166.5t36 150zM1186 1243q100 0 164 -51t85 -131.5t6 -178.5l-10 -49q-16 -70 -41 -169q-16 -65 -46 -125t-73 -111.5t-102.5 -82t-127.5 -30.5q-138 0 -206.5 101.5t-46.5 242.5q2 10 4.5 21.5
t5.5 25.5t5 22l43 164q30 113 72 186t126 124q70 41 142 41z" />
    <glyph glyph-name="A" unicode="A" horiz-adv-x="1478" 
d="M88 0h109l318 597h639l129 -597h107l-346 1605h-102zM567 695l404 770l161 -770h-565z" />
    <glyph glyph-name="B" unicode="B" horiz-adv-x="1274" 
d="M1258 453q24 150 -28 257t-180 161q124 59 190 136t85 201q14 88 -5.5 157t-62.5 113.5t-108 73.5t-136 41t-152 12h-519l-254 -1605h6l565 3q113 1 211 27t179 78.5t135.5 140.5t73.5 204zM426 1508h420q290 0 359 -144q35 -74 21 -159q-12 -73 -53.5 -130.5t-101 -92
t-128 -52t-139.5 -17.5h-472zM675 102h-469l113 710h490q71 0 117 -8.5t98 -35.5q169 -95 133 -317q-14 -91 -58.5 -160t-111 -109.5t-144.5 -60t-168 -19.5z" />
    <glyph glyph-name="C" unicode="C" horiz-adv-x="1278" 
d="M196 685q-16 -87 -12 -173.5t20.5 -165t56 -145.5t93.5 -116.5t134.5 -77.5t177.5 -28q184 0 328.5 91t245.5 261l3 4l-74 54l-4 -7q-177 -304 -483 -304q-83 0 -150.5 24t-112.5 66.5t-77 100.5t-44.5 125.5t-15.5 141.5t11 149l38 237q15 93 45.5 179t80.5 164
t114.5 135.5t152 91.5t187.5 34q306 0 387 -304l1 -7l92 56l-1 4q-48 169 -164 260t-299 91q-175 0 -321.5 -89.5t-244.5 -250.5q-95 -156 -127 -366z" />
    <glyph glyph-name="D" unicode="D" horiz-adv-x="1281" 
d="M342 1605l-254 -1605h6q519 3 521 3q141 0 263 58t207 155.5t140.5 218t76.5 253.5l36 228q14 108 9.5 208.5t-40.5 188t-93 152.5t-149 102.5t-208 37.5h-515zM1203 688q-19 -119 -65 -222.5t-117.5 -187t-175.5 -131.5t-228 -48q-3 0 -411 3l220 1406h408q81 0 169 -31
q81 -31 136.5 -90.5t79.5 -133t31 -160.5t-10 -174z" />
    <glyph glyph-name="E" unicode="E" horiz-adv-x="1165" 
d="M342 1605l-254 -1605l989 3l16 99h-887l113 710h632l19 101h-638l94 595h890l15 97h-989z" />
    <glyph glyph-name="F" unicode="F" horiz-adv-x="1165" 
d="M342 1605l-254 -1605h102l129 812h632l19 101h-638l94 595h890l15 97h-989z" />
    <glyph glyph-name="G" unicode="G" horiz-adv-x="1278" 
d="M196 685q-16 -87 -12 -173.5t20.5 -165t56 -145.5t93.5 -116.5t134.5 -77.5t177.5 -28h1q300 0 502 248q22 29 32 42q3 4 9.5 13.5t9.5 13.5q5 6 6 10q2 2 2 4l2 4l91 577h-532l-15 -93h439l-72 -454q-1 -1 -1 -3l-7 -10q-13 -18 -19 -25q-6 -8 -13 -16.5t-12 -15
t-6 -7.5q-162 -189 -401 -189q-83 0 -150.5 24t-112.5 66.5t-77 100.5t-44.5 125.5t-15.5 141.5t11 149l38 237q15 93 45.5 179t80.5 164t114.5 135.5t152 91.5t187.5 34q306 0 387 -304l1 -7l92 56l-1 4q-48 169 -164 260t-299 91q-175 0 -321.5 -89.5t-244.5 -250.5
q-95 -156 -127 -366z" />
    <glyph glyph-name="H" unicode="H" horiz-adv-x="1167" 
d="M342 1605l-254 -1605h102l129 812h788l-129 -812h101l254 1605h-99l-109 -692h-793l109 692h-99z" />
    <glyph glyph-name="I" unicode="I" horiz-adv-x="278" 
d="M342 1605l-254 -1605h102l251 1605h-99z" />
    <glyph glyph-name="J" unicode="J" horiz-adv-x="1166" 
d="M173 535q-25 -155 11.5 -274.5t139 -190t260.5 -70.5q230 0 385 145.5t191 374.5l172 1085h-90l-169 -1077q-31 -192 -157.5 -312t-316.5 -120q-195 0 -280 120.5t-58 318.5l1 6h-88z" />
    <glyph glyph-name="K" unicode="K" horiz-adv-x="1262" 
d="M342 1605l-254 -1605h102l114 717l170 135l584 -852h116l-620 916l863 688h-134l-962 -760l120 761h-99z" />
    <glyph glyph-name="L" unicode="L" horiz-adv-x="1165" 
d="M342 1605l-254 -1605l989 3l16 99h-887l235 1503h-99z" />
    <glyph glyph-name="M" unicode="M" horiz-adv-x="1446" 
d="M342 1605l-254 -1605h102l201 1291l280 -1291h101l693 1298l-208 -1298h101l254 1605h-93l-775 -1466l-306 1444v1q0 3 1 6q0 2 1 6v3l1 6h-99z" />
    <glyph glyph-name="N" unicode="N" horiz-adv-x="1177" 
d="M348 1578l-250 -1578h102l217 1383l574 -1365l-3 -18h101l254 1605h-99l-220 -1379l-580 1379h-102l2 -8l2 -10q2 -5 1 -7l1 -1v-1z" />
    <glyph glyph-name="O" unicode="O" 
d="M196 685q-16 -87 -12 -173.5t20.5 -165t56 -145.5t93.5 -116.5t134.5 -77.5t177.5 -28q119 0 223 39t181.5 106t138 157.5t97.5 191.5t54 211l38 235q17 89 13 176t-19.5 165.5t-55 145.5t-93.5 116t-135.5 76.5t-180.5 27.5q-175 0 -321 -89.5t-245 -249.5
q-95 -158 -127 -367zM1262 684q-15 -94 -45 -180t-80 -164.5t-114 -136t-152 -91.5t-189 -34q-83 0 -150.5 24t-112.5 66.5t-77 100.5t-44.5 125.5t-15.5 141.5t11 149l38 237q15 93 45.5 179t80.5 164t114.5 135.5t152 91.5t187.5 34q150 0 248 -74.5t134 -212.5
q36 -137 7 -318z" />
    <glyph glyph-name="P" unicode="P" horiz-adv-x="1214" 
d="M88 0h102l128 812h411q81 0 155.5 12t148.5 40.5t130.5 72.5t98 113.5t55.5 157.5t-5.5 157t-62.5 113.5t-108 73.5t-135.5 41t-151.5 12h-512zM333 908l93 600h413q291 0 359 -144q33 -73 20 -156q-14 -86 -60.5 -147t-115.5 -93t-142 -46t-156 -14h-411z" />
    <glyph glyph-name="Q" unicode="Q" horiz-adv-x="1349" 
d="M196 685q-16 -87 -12 -173.5t20.5 -165t56 -145.5t93.5 -116.5t134.5 -77.5t177.5 -28q233 0 417 158l57 -137h121l-95 223q151 187 194 461l38 235q17 89 13 176t-20 165.5t-55 145.5t-93.5 116t-135.5 76.5t-180 27.5q-175 0 -321.5 -89.5t-244.5 -250.5
q-95 -156 -127 -366zM1046 226q-151 -148 -364 -148q-83 0 -150.5 24t-112.5 66.5t-77 100.5t-44.5 125.5t-15.5 141.5t11 149l38 237q15 93 45.5 179t80.5 164t114.5 135.5t152 91.5t187.5 34q150 0 248 -74.5t134 -212.5q37 -135 7 -318l-38 -237q-33 -215 -136 -364
l-63 149h-121z" />
    <glyph glyph-name="R" unicode="R" horiz-adv-x="1223" 
d="M884 823q84 14 155 43t130 75t97.5 114t52.5 153q14 88 -5.5 157t-62.5 113.5t-108 73.5t-135.5 41t-151.5 12h-514l-254 -1605h102l128 812h413q30 0 45 1l250 -813h109zM746 908h-413l93 600h415q289 0 358 -144q34 -73 21 -156q-14 -86 -60.5 -147t-115.5 -93
t-142 -46t-156 -14z" />
    <glyph glyph-name="S" unicode="S" horiz-adv-x="1224" 
d="M145 352q25 -183 148 -278t319 -95q98 0 189.5 24.5t170 73t132.5 129t70 182.5q14 79 -4 150q-28 122 -158 204q-53 33 -124 59q-14 6 -127 47q-67 24 -133 56.5t-131.5 86t-83.5 106.5q-21 57 -10 131q16 97 83 166.5t169 107.5q86 33 199 33q125 0 219.5 -48.5
t135.5 -148.5q14 -34 22 -76q2 -25 3 -29q0 -3 2 -9l3 -9l2 -7l94 48v4q-17 184 -144 280.5t-324 96.5q-100 0 -192 -26t-170 -76t-132 -132t-70 -185q-35 -218 160 -340q88 -56 254 -118q149 -55 228 -104q159 -96 131 -268q-12 -77 -56 -137.5t-107 -96.5t-135 -54.5
t-147 -18.5q-161 0 -270 78t-114 226v2l-14 17l-88 -47v-5z" />
    <glyph glyph-name="T" unicode="T" horiz-adv-x="1231" 
d="M805 1504l-238 -1504h97l238 1504l479 -1l16 102h-1055l-16 -102z" />
    <glyph glyph-name="U" unicode="U" 
d="M196 685q-16 -87 -12 -173.5t20.5 -165t56 -145.5t93.5 -116.5t134.5 -77.5t177.5 -28q119 0 223 39t181.5 106t138 157.5t97.5 191.5t54 211l146 921h-98l-146 -921q-15 -94 -45 -180t-80 -164.5t-114 -136t-152 -91.5t-189 -34q-83 0 -150.5 24t-112.5 66.5t-77 100.5
t-44.5 125.5t-15.5 141.5t11 149l146 920h-97z" />
    <glyph glyph-name="V" unicode="V" horiz-adv-x="1478" 
d="M342 1605l346 -1605h102l854 1605h-107l-776 -1466l-310 1466h-109z" />
    <glyph glyph-name="W" unicode="W" horiz-adv-x="1789" 
d="M342 1604l127 -1602h97l548 1378l110 -1378h94l637 1602h-99l-550 -1394l-109 1394h-99l-546 -1394l-109 1394h-101z" />
    <glyph glyph-name="X" unicode="X" horiz-adv-x="1299" 
d="M838 799l627 806h-122l-552 -706l-332 706h-117l372 -806l-623 -799h132l3 19l534 679l318 -680l-3 -18h132z" />
    <glyph glyph-name="Y" unicode="Y" horiz-adv-x="1301" 
d="M729 808l-128 -808h96l128 807l642 798h-123l-552 -706l-332 706h-118z" />
    <glyph glyph-name="Z" unicode="Z" horiz-adv-x="1196" 
d="M1179 1506l-1091 -1506l1005 3l16 99h-836l1089 1503h-1004l-15 -96z" />
    <glyph glyph-name="bracketleft" unicode="[" horiz-adv-x="626" 
d="M369 1774l-315 -1989h450l15 93h-358l286 1806h358l14 90h-450z" />
    <glyph glyph-name="backslash" unicode="\" horiz-adv-x="857" 
d="M344 1618l300 -1778h100l-300 1778h-100z" />
    <glyph glyph-name="bracketright" unicode="]" horiz-adv-x="626" 
d="M69 -122l-15 -93h450l315 1989h-450l-14 -90h358l-286 -1806h-358z" />
    <glyph glyph-name="asciicircum" unicode="^" horiz-adv-x="1274" 
d="M867 1696l-647 -865h115l552 739l316 -739h115l-373 865h-78z" />
    <glyph glyph-name="underscore" unicode="_" horiz-adv-x="1311" 
d="M88 -1l-14 -90h1135l14 90h-1135z" />
    <glyph glyph-name="grave" unicode="`" horiz-adv-x="514" 
d="M354 1654l167 -376h102l-156 376h-113z" />
    <glyph glyph-name="a" unicode="a" horiz-adv-x="1086" 
d="M1105 682h1l1 6q13 66 12 132t-22 126q-38 107 -128 161.5t-215 54.5q-201 0 -335.5 -126t-166.5 -326l-4 -29h98l1 6q26 164 127 267t263 103q122 0 199 -67.5t82 -185.5q3 -42 -8 -103l-3 -18h-257q-93 0 -178.5 -13.5t-179 -54.5t-155.5 -106q-81 -86 -100 -198
q-16 -103 24 -180t118.5 -115t181.5 -38q276 0 464 189l-26 -168h98zM992 585l-40 -251v-1l-1 -1q-1 -1 -5 -7q-1 -1 -14 -20q-17 -25 -23 -30q-81 -100 -193.5 -149.5t-239.5 -49.5q-109 0 -182.5 64t-57.5 167q12 77 66.5 134t132 86.5t154 43.5t149.5 14h254z" />
    <glyph glyph-name="b" unicode="b" horiz-adv-x="1035" 
d="M204 134q103 -151 312 -151q192 0 329.5 123.5t167.5 314.5l45 288q3 12 3 13q30 193 -67 317t-291 124q-213 0 -359 -149l91 579h-95l-252 -1593h95zM716 129q-80 -45 -184 -45q-126 0 -198.5 66.5t-82.5 188.5q-6 59 2 101l42 267q6 44 30 102q50 122 143.5 188
t218.5 66q121 0 198 -68.5t84 -185.5q2 -39 -7 -105l-42 -260q-17 -107 -64.5 -184.5t-139.5 -130.5z" />
    <glyph glyph-name="c" unicode="c" horiz-adv-x="981" 
d="M198 686l-39 -247q-24 -144 13 -242q80 -216 340 -216q124 0 231 57.5t179 166.5l4 5l-68 64l-4 -7q-126 -184 -327 -184q-120 0 -196.5 68.5t-84.5 183.5q-3 44 8 107l41 260q10 58 25 100.5t45 88.5q54 84 136.5 127t180.5 43q200 0 269 -185l2 -7l88 64l-2 5
q-39 110 -128 167t-215 57q-195 0 -329.5 -127t-165.5 -322l-4 -27h1z" />
    <glyph glyph-name="d" unicode="d" horiz-adv-x="1034" 
d="M156 427q-31 -193 66 -318.5t290 -125.5q211 0 360 150l-21 -133h95l252 1593h-95l-91 -579q-101 149 -313 149q-198 0 -332 -125t-166 -323zM894 346q-48 -124 -143.5 -193t-222.5 -69q-120 0 -197 69t-84 185q-2 39 7 106l42 260q25 159 127.5 259t259.5 100
q120 0 192.5 -61t87.5 -175q9 -64 0 -120l-42 -267q-6 -37 -27 -94z" />
    <glyph glyph-name="e" unicode="e" horiz-adv-x="1026" 
d="M173 202q80 -216 340 -216q125 0 231.5 57.5t178.5 166.5l4 5l-68 63l-4 -6q-127 -185 -327 -185q-120 0 -197 68.5t-84 183.5q-3 40 8 108l22 142h754l1 6q24 151 26 181q5 99 -20 175q-74 211 -338 211q-204 0 -335.5 -123.5t-163.5 -326.5l-42 -268q-22 -147 14 -242z
M952 687h-659q11 71 25 114.5t48 94.5q54 84 136.5 127t180.5 43q119 0 196 -69t84 -184q1 -49 -8 -106z" />
    <glyph glyph-name="f" unicode="f" horiz-adv-x="782" 
d="M421 1065l-170 -1065h98l169 1065h243l15 99h-243l3 15q13 82 65 155t130 118q75 41 192 43h6l17 98h-6q-275 0 -418 -211q-36 -52 -53.5 -100.5t-31.5 -117.5h-165l-15 -99h164z" />
    <glyph glyph-name="g" unicode="g" horiz-adv-x="1035" 
d="M91 -121q15 -152 109.5 -235t252.5 -83q126 0 236 58.5t178 168.5q63 103 86 250l177 1124h-98l-24 -143q-100 144 -309 144q-198 0 -332 -125t-166 -323l-45 -288q-31 -193 66 -318.5t290 -125.5q209 0 355 145q-3 -17 -8.5 -54.5t-8.5 -57.5q-13 -68 -32 -116
q-48 -122 -168 -193q-81 -46 -182 -46q-127 0 -198 67t-85 192l-1 7l-94 -44zM874 300q-54 -105 -143.5 -160.5t-202.5 -55.5q-121 0 -198 69t-83 185q-2 39 7 106l42 260q25 159 127.5 259t259.5 100q113 0 185 -55.5t92 -161.5q11 -62 8 -85l-60 -376q-2 -18 -34 -85z" />
    <glyph glyph-name="h" unicode="h" horiz-adv-x="1035" 
d="M340 1590l-252 -1590h95l1 6l111 701q5 34 28 98q49 123 143 190.5t221 67.5q122 0 198.5 -68.5t83.5 -185.5q2 -39 -7 -105l-112 -702l95 -3l1 6q19 119 57.5 358t57.5 359q30 193 -67 317t-291 124q-213 0 -359 -149l91 576h-95z" />
    <glyph glyph-name="i" unicode="i" horiz-adv-x="337" 
d="M327 1512q-5 -33 15.5 -56.5t53.5 -23.5q34 0 60.5 23.5t31.5 56.5q6 34 -13.5 57.5t-53.5 23.5t-61 -23.5t-33 -57.5zM303 1161l-184 -1161h99l184 1161h-99z" />
    <glyph glyph-name="j" unicode="j" horiz-adv-x="303" 
d="M293 1512q-5 -33 14.5 -56.5t53.5 -23.5t61 23.5t32 56.5q6 35 -13.5 58t-54.5 23q-34 0 -60.5 -23.5t-32.5 -57.5zM-297 -339l-43 -100h8q220 0 352.5 128t167.5 349l177 1124h-99l-179 -1124q-19 -118 -63 -195.5t-141 -135.5q-72 -43 -175 -46h-5z" />
    <glyph glyph-name="k" unicode="k" horiz-adv-x="996" 
d="M340 1593l-252 -1593h97l83 522l106 85l418 -607h116l-454 668l619 493h-134l-653 -514l150 946h-96z" />
    <glyph glyph-name="l" unicode="l" horiz-adv-x="341" 
d="M377 83h-23q-87 0 -110 54q-25 59 -7 164l202 1292h-98l-205 -1292q-13 -66 -9 -124t23 -100.5t67.5 -67.5t123.5 -25q59 0 90 3l8 1l-27 97h-4q-3 0 -9 0.5t-9 0.5q-5 0 -11 -2q-1 0 -1 -0.5t-1 -0.5z" />
    <glyph glyph-name="m" unicode="m" horiz-adv-x="1788" 
d="M851 2v-3h6q28 2 42 2t40 -2h6v3h1l113 711q34 211 201 304q83 46 184 46q121 0 197.5 -68.5t83.5 -185.5q3 -34 -7 -105l-112 -702l93 -3l1 6q19 118 56.5 352t55.5 352q32 200 -59.5 327t-291.5 127q-129 0 -236.5 -57t-176.5 -168q-77 225 -345 225q-213 0 -359 -149
l23 145h-95l-184 -1159h95l1 6l111 701q7 42 32 107q50 119 143 184t217 65q121 0 198 -68.5t84 -185.5q2 -39 -7 -105l-112 -702h1z" />
    <glyph glyph-name="n" unicode="n" horiz-adv-x="1035" 
d="M272 1159l-184 -1159h95l1 6l111 701q5 34 28 98q49 123 143 190.5t221 67.5q122 0 198.5 -68.5t83.5 -185.5q2 -39 -7 -105l-112 -702l95 -3l1 6q19 119 57.5 358t57.5 359q30 193 -67 317t-291 124q-213 0 -359 -149l23 145h-95z" />
    <glyph glyph-name="o" unicode="o" horiz-adv-x="1027" 
d="M198 688l-42 -261q-21 -128 17 -228q77 -211 340 -211q204 0 333 124t162 329l39 247h1l4 28q32 197 -61 320t-290 123q-201 0 -334.5 -122t-165.5 -322l-4 -27h1zM955 704l-42 -260q-25 -158 -127.5 -259t-258.5 -101q-121 0 -197 69t-83 185q-3 35 7 106l42 260
q25 159 127 259t259 100q121 0 197 -69t83 -185q2 -39 -7 -105z" />
    <glyph glyph-name="p" unicode="p" horiz-adv-x="1035" 
d="M18 -439h95l92 575q99 -148 312 -148q194 0 331 124t167 318q8 47 21.5 140.5t21.5 140.5l4 19q30 191 -68 314t-290 123q-213 0 -360 -148l23 143h-95zM717 133q-78 -45 -184 -45q-126 0 -198.5 66.5t-83.5 189.5q-4 62 2 101l43 267q6 44 30 102q49 121 143 187t219 66
q123 0 199 -67.5t83 -186.5q3 -42 -8 -104l-41 -261q-17 -106 -64.5 -183t-139.5 -132z" />
    <glyph glyph-name="q" unicode="q" horiz-adv-x="1034" 
d="M781 -439h95l254 1601h-95l-23 -143q-99 148 -312 148q-194 0 -330 -124.5t-167 -318.5l-46 -287q-31 -197 64 -323t292 -126q211 0 360 148zM891 342q-49 -121 -143 -187.5t-219 -66.5q-122 0 -198.5 68.5t-83.5 185.5q-1 51 8 106l41 261q18 109 70 187
q111 171 318 171q127 0 200 -66t82 -189q5 -53 -2 -100l-43 -267q-6 -43 -30 -103z" />
    <glyph glyph-name="r" unicode="r" horiz-adv-x="848" 
d="M272 1159l-184 -1159h95l1 6l111 701q8 50 37 117q50 115 142 177t213 62q99 0 184 -55l5 -4l58 93l-5 3q-99 63 -226 63q-213 0 -359 -149l23 145h-95z" />
    <glyph glyph-name="s" unicode="s" horiz-adv-x="1088" 
d="M196 108q114 -129 348 -129q232 0 381 123q83 67 101 180q22 146 -112 230q-45 29 -128 58q-23 8 -130 39q-92 25 -184 68q-1 1 -14.5 7.5t-14.5 7.5q-33 22 -62 48q-54 52 -42 122q9 61 62 107q17 15 48 32q107 61 268 61q129 0 224 -52q94 -53 108 -172l1 -7l88 41v4
q-3 73 -41 129.5t-98.5 88.5t-128.5 48t-140 16q-60 0 -119.5 -9t-122 -31.5t-111.5 -56t-85 -87t-47 -120.5q-12 -83 21 -141q8 -14 32 -38q36 -38 94.5 -69.5t105 -48t116.5 -36.5q50 -14 83.5 -25t86.5 -32.5t88.5 -47.5t49.5 -55q19 -40 11 -87q-9 -59 -63 -108
q-8 -7 -40 -27q-112 -64 -278 -64q-84 0 -153 20t-119.5 72t-54.5 131l-1 8l-94 -42v-5q6 -55 24 -92q12 -23 42 -59z" />
    <glyph glyph-name="t" unicode="t" horiz-adv-x="680" 
d="M258 1073h147l-123 -769q-13 -67 -9 -124.5t23 -100.5t67.5 -67.5t125.5 -24.5h28q31 0 59 3l10 1l-27 98h-4q-39 -3 -40 -3q-50 0 -81 10t-45 43q-25 58 -8 165l121 769h260l15 98h-260l67 422h-97l-67 -422h-147z" />
    <glyph glyph-name="u" unicode="u" horiz-adv-x="1034" 
d="M158 441q-32 -201 61.5 -328.5t293.5 -127.5q209 0 359 149l-21 -134h95l184 1162h-95l-114 -720q-25 -155 -132 -255.5t-260 -100.5q-121 0 -198.5 68.5t-83.5 184.5q-3 44 8 107l113 714l-95 3l-1 -6q-12 -76 -114 -716z" />
    <glyph glyph-name="v" unicode="v" horiz-adv-x="1134" 
d="M272 1162l246 -1162h99l613 1162h-105l-535 -1022l-211 1022h-107z" />
    <glyph glyph-name="w" unicode="w" horiz-adv-x="1722" 
d="M272 1162l184 -1162h91l472 991l157 -991h90l552 1162h-98l-472 -1003l-156 1003h-94l-472 -1003l-154 1003h-100z" />
    <glyph glyph-name="x" unicode="x" horiz-adv-x="1180" 
d="M740 577l536 585h-117l-465 -508l-308 508h-114l350 -585l-532 -577h118l461 500l295 -483l-3 -17h127z" />
    <glyph glyph-name="y" unicode="y" horiz-adv-x="1158" 
d="M21 -456q60 -10 91 -10q153 0 270 92.5t193 245.5q73 152 100 203l579 1087h-105l-530 -993l-216 993h-107l247 -1139l-60 -119q-58 -115 -120 -175t-172 -88q-32 -8 -60 -8q-1 0 -43 3q-6 2 -8 2q-3 1 -10 1h-20l-31 -72v-4q-1 -2 -1 -5q-1 -4 -1 -8l-1 -5z" />
    <glyph glyph-name="z" unicode="z" horiz-adv-x="1134" 
d="M103 40q-1 -1 -2 -1l-3 -2l-4 -2l2 -35l927 2l15 91h-767l959 1069l-958 -2l-15 -91h768z" />
    <glyph glyph-name="braceleft" unicode="{" horiz-adv-x="733" 
d="M589 -219h21l15 91h-6q-101 0 -149.5 42t-33.5 138l83 523q24 150 -83 217q128 65 151 214l83 519q28 181 239 181h6l14 90h-6q-306 0 -349 -271l-83 -519q-7 -46 -28 -77q-39 -56 -98.5 -75.5t-138.5 -19.5h-6l-14 -88h6q128 0 171 -39q7 -6 20.5 -24.5t17.5 -27.5
q11 -27 2 -80l-83 -523q-21 -134 45.5 -202.5t203.5 -68.5z" />
    <glyph glyph-name="bar" unicode="|" horiz-adv-x="268" 
d="M357 1696l-315 -1988h92l315 1988h-92z" />
    <glyph glyph-name="braceright" unicode="}" horiz-adv-x="733" 
d="M68 -128l-15 -91h6q307 0 350 271l83 523q6 42 30 78q64 93 235 93h6l14 88h-6q-50 0 -86 6t-70.5 28t-48.5 61q-12 38 -6 77l83 519q22 141 -49 206t-216 65h-6l-14 -90h6q102 0 149.5 -42t32.5 -139l-83 -519q-11 -68 11.5 -125t75.5 -89q-63 -35 -103.5 -92.5
t-51.5 -124.5l-83 -523q-15 -97 -75.5 -138.5t-162.5 -41.5h-6z" />
    <glyph glyph-name="asciitilde" unicode="~" horiz-adv-x="1093" 
d="M206 726l-7 -23h96l2 5q51 137 107 158q24 9 63 9q48 0 98 -25q27 -13 90 -55q42 -26 66 -39.5t68 -27t89 -13.5q208 0 280 256l2 7h-95l-2 -5q-32 -98 -66 -132q-34 -35 -104 -35q-43 0 -82 19l-22 9q-14 6 -20 10l-12 9q-4 2 -5 2l-1 1l-2 1q-3 2 -16 9q-5 4 -17 12
q-51 39 -102 64q-50 23 -133 23q-206 0 -275 -239z" />
    <glyph glyph-name="exclamdown" unicode="&#xa1;" horiz-adv-x="338" 
d="M267 1129q-5 -33 15 -57.5t53 -24.5q34 0 61.5 24t32.5 58q5 33 -15 56.5t-54 23.5t-61 -23.5t-32 -56.5zM255 837l-176 -1111h96l176 1111h-96z" />
    <glyph glyph-name="cent" unicode="&#xa2;" horiz-adv-x="1169" 
d="M1147 414l-88 32l-2 -7q-51 -177 -211 -252q-36 -17 -86 -30q-58 -17 -101 -19l158 996q284 -14 300 -285l1 -8l94 41l-1 5q-11 91 -40 153.5t-93 107.5q-98 71 -247 76l30 193h-89l-30 -194q-121 -12 -219 -63.5t-164.5 -132t-109 -179t-60.5 -213.5
q-12 -90 -10.5 -171.5t27.5 -153.5t69.5 -126.5t115.5 -90t165 -45.5l-31 -194h89l30 193q73 3 133 20q39 12 90 35q206 94 278 307zM727 1131l-157 -991q-260 31 -291 307q-12 93 4 188q31 200 141.5 333.5t302.5 162.5z" />
    <glyph glyph-name="sterling" unicode="&#xa3;" horiz-adv-x="1327" 
d="M1299 377h-93l-1 -6q-37 -234 -252 -234q-72 0 -121.5 24t-108.5 77q67 85 85 197q13 82 0 145t-51 138h402l14 92h-471q-43 80 -79 164q-32 79 -17 172q24 157 133.5 244.5t268.5 87.5q140 0 208 -80t56 -220l-2 -9l99 38v5q12 170 -81 262.5t-266 92.5
q-196 0 -339 -114t-173 -307q-24 -149 55 -298q7 -12 21 -38h-235l-14 -92h301q49 -79 67.5 -143t5.5 -146q-11 -69 -53 -131q-61 54 -117.5 77.5t-140.5 23.5q-49 0 -79 -6q-39 -7 -85 -30.5t-72 -51.5q-33 -39 -41 -91q-15 -90 65 -137q35 -21 65.5 -28.5t76.5 -7.5
q87 0 171.5 30t151.5 89q3 -3 49 -40q54 -42 108.5 -60.5t127.5 -18.5q145 0 239 77.5t117 221.5zM593 227q-108 -90 -248 -90q-53 0 -93 20t-33 63q5 33 39 55t73 27q36 4 56 4q65 0 111 -18.5t95 -60.5z" />
    <glyph glyph-name="currency" unicode="&#xa4;" horiz-adv-x="1294" 
d="M198 250l258 222q99 -85 251 -85q165 0 282 89l189 -226l78 67l-191 227q95 110 121 269q25 157 -33 262l259 223l-58 66l-253 -218q-95 92 -259 92q-167 0 -287 -92l-181 218l-81 -68l186 -219q-90 -104 -115 -264q-26 -158 35 -269l-260 -225zM1089 813
q-24 -150 -121 -243.5t-247 -93.5q-81 0 -144.5 32.5t-94.5 96.5q-12 24 -21 72q-13 73 -2 136q24 150 121.5 241t246.5 91q152 0 219 -90t43 -242z" />
    <glyph glyph-name="yen" unicode="&#xa5;" horiz-adv-x="1318" 
d="M669 354l-45 -285h94l45 285h447l15 92h-447l27 173h447l14 90h-409l618 837h-112l-586 -805l-329 805h-115l355 -837h-407l-14 -90h444l-27 -173h-444l-15 -92h444z" />
    <glyph glyph-name="brokenbar" unicode="&#xa6;" horiz-adv-x="270" 
d="M357 1696l-135 -847h94l135 847h-94zM176 555l-134 -847h94l134 847h-94z" />
    <glyph glyph-name="section" unicode="&#xa7;" horiz-adv-x="1213" 
d="M1049 438q160 86 182 233q11 72 -7.5 123.5t-70.5 93.5q-23 19 -43 30q-78 45 -274 70q-37 5 -101 19q-57 12 -98.5 26.5t-82 41t-58 68.5t-8.5 98q10 62 46 110t88 74.5t109.5 39.5t117.5 13q62 0 107.5 -7t89.5 -25.5t70 -56t32 -94.5l1 -8l94 57v4q-16 66 -52 111
t-89.5 67.5t-110 31.5t-128.5 9q-79 0 -154 -19t-142.5 -57t-114.5 -103t-60 -149q-24 -154 84 -236q-76 -27 -128.5 -61t-95.5 -94q-37 -51 -49 -119q-13 -84 20 -140.5t106 -99.5q60 -36 136 -51q112 -23 132 -26q129 -19 191 -39q109 -36 147 -104q24 -44 14 -110
q-10 -64 -46 -111.5t-88.5 -73.5t-109.5 -38.5t-119 -12.5t-107.5 7t-89 25t-70 56t-33.5 94l-1 8l-90 -57v-4q22 -124 133 -174q100 -45 244 -45q81 0 148 15q42 10 91 30q96 42 156 114t75 169q26 160 -83 238q6 2 31 10q16 7 59 29zM1086 809q65 -47 51 -138
q-7 -47 -36.5 -85.5t-73.5 -64t-88.5 -42t-93.5 -27.5l-6 3q-51 19 -118 34q-36 8 -121 23l-12 2q-63 12 -96 21q-11 3 -42 14q-54 16 -86 34q-31 20 -49 48q-25 39 -16 98q12 74 72.5 123.5t146.5 75.5q47 18 70 18q2 -1 3 -1t2.5 -1t3 -1.5t3.5 -0.5l16 -6q11 -3 33.5 -8
t33.5 -8q64 -16 124 -24q206 -32 279 -87z" />
    <glyph glyph-name="dieresis" unicode="&#xa8;" horiz-adv-x="752" 
d="M322 1402q-5 -34 13.5 -55.5t52.5 -21.5q77 0 90 77q5 35 -12.5 56.5t-53.5 21.5q-77 0 -90 -78zM718 1402q-5 -33 14.5 -55t52.5 -22q77 0 89 77q6 36 -12 57t-53 21t-60.5 -22t-30.5 -56z" />
    <glyph glyph-name="copyright" unicode="&#xa9;" horiz-adv-x="1709" 
d="M88 807q0 -168 55.5 -309.5t155 -240.5t242.5 -154.5t313 -55.5q346 0 556.5 208.5t210.5 551.5q0 346 -209 553t-558 207q-228 0 -402 -94t-269 -267t-95 -399zM1524 807q0 -195 -83.5 -347.5t-236 -237.5t-350.5 -85q-197 0 -350.5 85t-237.5 237.5t-84 347.5
q0 147 49 272t136 212.5t212.5 137t274.5 49.5q301 0 485.5 -186t184.5 -485zM553 743q0 -73 19.5 -139.5t56.5 -121t99 -87t140 -32.5q102 0 174.5 54t112.5 151l2 4l-76 50l-3 -6q-33 -81 -81 -122t-128 -41q-113 0 -170.5 85.5t-57.5 204.5v120q0 77 21.5 139.5t74.5 105
t131 42.5q81 0 129 -40t81 -121l3 -7l76 51l-2 4q-84 205 -287 205q-80 0 -142 -32t-99 -86.5t-55.5 -121t-18.5 -140.5v-119z" />
    <glyph glyph-name="ordfeminine" unicode="&#xaa;" horiz-adv-x="663" 
d="M807 1352q18 108 -36.5 177t-163.5 69q-111 0 -186 -70t-92 -180l-6 -34h81q-115 -53 -133 -167q-14 -88 39 -138t143 -50q122 0 211 65l-9 -55h90l1 6q11 68 31.5 194.5t29.5 182.5zM415 1319l4 26q12 71 58 115t115 44q68 0 100.5 -40.5t24.5 -108.5h-111
q-108 0 -191 -36zM703 1266l-17 -102q-3 -4 -8 -11t-8 -10l-16 -19q-73 -76 -187 -76q-47 0 -79.5 27t-26.5 70q5 33 30.5 58t62 38t72 19t68.5 6h109z" />
    <glyph glyph-name="guillemotleft" unicode="&#xab;" horiz-adv-x="884" 
d="M206 747l259 -452h123l-262 452l405 450h-123zM460 747l260 -452h123l-263 452l406 450h-123z" />
    <glyph glyph-name="logicalnot" unicode="&#xac;" horiz-adv-x="1205" 
d="M1137 732l-45 -284h96l59 374h-1029l-14 -90h933z" />
    <glyph glyph-name="uni00AD" unicode="&#xad;" horiz-adv-x="841" 
d="M215 804l-15 -95h665l15 95h-665z" />
    <glyph glyph-name="registered" unicode="&#xae;" horiz-adv-x="1709" 
d="M88 807q0 -168 55.5 -309.5t155 -240.5t242.5 -154.5t313 -55.5q346 0 556.5 208.5t210.5 551.5q0 346 -209 553t-558 207q-228 0 -402 -94t-269 -267t-95 -399zM1524 807q0 -195 -83.5 -347.5t-236 -237.5t-350.5 -85q-197 0 -350.5 85t-237.5 237.5t-84 347.5
q0 147 49 272t136 212.5t212.5 137t274.5 49.5q301 0 485.5 -186t184.5 -485zM610 359h93v429h179l201 -429h101l-203 439q87 20 138.5 75.5t51.5 142.5q0 62 -25.5 108t-69 72t-94 38t-108.5 12h-264v-887zM703 878l-1 277h172q205 0 205 -139q0 -138 -205 -138h-171z" />
    <glyph glyph-name="macron" unicode="&#xaf;" horiz-adv-x="882" 
d="M331 1457l-15 -91h682l15 91h-682z" />
    <glyph glyph-name="degree" unicode="&#xb0;" horiz-adv-x="757" 
d="M359 1711q-20 -130 47.5 -211t198.5 -81q129 0 222 82t113 210q20 130 -46 210.5t-197 80.5t-224.5 -80.5t-113.5 -210.5zM848 1711q-15 -95 -74.5 -149.5t-154.5 -54.5q-90 0 -135 57t-31 147t77 147t153 57q95 0 137.5 -54.5t27.5 -149.5z" />
    <glyph glyph-name="plusminus" unicode="&#xb1;" horiz-adv-x="1205" 
d="M691 841l-86 -544h91l86 544h468l15 91h-468l84 532h-91l-84 -532h-470l-15 -91h470zM113 158l-14 -89h1029l14 89h-1029z" />
    <glyph glyph-name="uni00B2" unicode="&#xb2;" horiz-adv-x="608" 
d="M267 1040l-11 -66h420l14 87h-287l149 145q36 35 53.5 54t47 54t45.5 67.5t21 65.5q15 90 -31.5 140t-138.5 50q-85 0 -152.5 -59.5t-81.5 -144.5l-5 -33h87l5 33q8 49 46 83t87 34q112 0 96 -103q-10 -65 -126 -174z" />
    <glyph glyph-name="uni00B3" unicode="&#xb3;" horiz-adv-x="581" 
d="M274 1159q-14 -88 34.5 -138.5t137.5 -50.5q96 0 165.5 50t83.5 143q15 98 -60 149q76 51 88 136q14 88 -35.5 138.5t-139.5 50.5q-88 0 -152.5 -51t-78.5 -138q-1 -7 -2 -21t-2 -21l-1 -6h87l1 6l3 30q17 114 131 114q48 0 79 -27.5t24 -72.5q-7 -46 -45.5 -71
t-87.5 -25h-98l-6 -87h91q54 0 89 -28t27 -78q-8 -49 -50 -76.5t-95 -27.5q-52 0 -81 25.5t-21 74.5q6 23 6 25l4 24h-87l-1 -6q-1 -7 -4 -20.5t-4 -20.5z" />
    <glyph glyph-name="acute" unicode="&#xb4;" horiz-adv-x="515" 
d="M577 1670l-279 -376h106l284 376h-111z" />
    <glyph glyph-name="uni00B5" unicode="&#xb5;" horiz-adv-x="1091" 
d="M277 1194l-249 -1573h96l89 562q45 -67 120.5 -101.5t166.5 -34.5q126 0 245.5 51t203.5 148l-28 -177h93l178 1125h-93l-106 -671q-26 -163 -166 -275t-306 -112q-148 0 -218 87.5t-46 234.5l116 736h-96z" />
    <glyph glyph-name="paragraph" unicode="&#xb6;" horiz-adv-x="1109" 
d="M568 -146h95l254 1602h240l-254 -1602h95l268 1692h-410q-146 0 -271 -52t-214 -159t-112 -254q-25 -158 48.5 -276.5t218.5 -164.5q68 -21 162 -26zM821 1455l-118 -749q-175 8 -275 106.5t-73 268.5q21 130 106.5 220.5t219.5 129.5q71 21 140 24z" />
    <glyph glyph-name="periodcentered" unicode="&#xb7;" horiz-adv-x="338" 
d="M214 798q-5 -33 15.5 -56.5t53.5 -23.5q34 0 61 23.5t32 56.5q6 34 -14 58t-54 24t-61 -24t-33 -58z" />
    <glyph glyph-name="cedilla" unicode="&#xb8;" horiz-adv-x="659" 
d="M54 -331q38 -65 87 -90.5t131 -25.5q100 0 169.5 55.5t84.5 153.5q15 90 -26 152.5t-122 108.5q-6 4 -30 16q-8 5 -17 9q-3 3 -7 3q0 1 -2 1l-3 1h-66l-21 -51l4 -3q13 -6 37 -20q0 -1 0.5 -1t0.5 -1h2h1q5 -3 13.5 -8.5t15.5 -10t13 -8.5q24 -16 35 -24q40 -33 63 -76.5
t16 -89.5q-9 -56 -49 -88t-98 -32q-106 0 -162 104l-3 8l-70 -79z" />
    <glyph glyph-name="uni00B9" unicode="&#xb9;" horiz-adv-x="391" 
d="M452 1483l-77 -488h86l97 621h-70l-165 -135l38 -70z" />
    <glyph glyph-name="ordmasculine" unicode="&#xba;" horiz-adv-x="587" 
d="M739 1345q17 107 -35 174t-159 67q-94 0 -164.5 -52.5t-98.5 -144.5l-2 4l-2 -16l-6 -32q-17 -117 -22 -145q-17 -106 36 -171.5t160 -65.5t180 65.5t90 171.5zM650 1339l-21 -130q-11 -69 -57 -114t-114 -45t-99 44.5t-20 114.5l21 130q11 70 55.5 114t113.5 44
t100.5 -43.5t20.5 -114.5z" />
    <glyph glyph-name="guillemotright" unicode="&#xbb;" horiz-adv-x="884" 
d="M540 747l-405 -452h123l402 452l-259 450h-123zM794 747l-407 -452h125l402 452l-259 450h-125z" />
    <glyph glyph-name="questiondown" unicode="&#xbf;" horiz-adv-x="1103" 
d="M660 1122q-6 -35 13.5 -58.5t54.5 -23.5q34 0 61 24t32 58t-14.5 57t-53.5 23q-35 0 -61.5 -23t-31.5 -57zM102 91q-15 -96 7 -171.5t74 -123.5t127 -73.5t169 -25.5q442 0 551 407l2 5l-79 37l-2 -8q-58 -185 -164.5 -268t-293.5 -83q-150 0 -234.5 79.5t-62.5 224.5
q35 209 203 316q35 22 93 44q102 42 195 66l3 1l56 356h-94l-45 -289q-77 -23 -133.5 -46t-115.5 -57.5t-107 -84t-86 -114.5q-44 -75 -63 -192z" />
    <glyph glyph-name="Agrave" unicode="&#xc0;" horiz-adv-x="1478" 
d="M1072 1711h103l-157 377h-113zM88 0h109l318 597h639l129 -597h107l-346 1605h-102zM567 695l404 770l161 -770h-565z" />
    <glyph glyph-name="Aacute" unicode="&#xc1;" horiz-adv-x="1478" 
d="M851 1728h106l283 377h-111zM88 0h109l318 597h639l129 -597h107l-346 1605h-102zM567 695l404 770l161 -770h-565z" />
    <glyph glyph-name="Acircumflex" unicode="&#xc2;" horiz-adv-x="1478" 
d="M670 1728h115l240 258l159 -258h112l-219 367h-70zM88 0h109l318 597h639l129 -597h107l-346 1605h-102zM567 695l404 770l161 -770h-565z" />
    <glyph glyph-name="Atilde" unicode="&#xc3;" horiz-adv-x="1478" 
d="M726 1796h95l2 5q4 10 11 30.5t11 31.5q12 31 31 59q17 23 52 23q22 0 33 -6q12 -7 34 -38q44 -62 72 -80q33 -23 81 -23q128 0 191 160q5 11 11.5 32t8.5 28q1 4 3.5 11.5t3.5 11.5l2 7h-94l-1 -5q-4 -10 -11 -30.5t-11 -31.5q-15 -36 -32 -59t-55 -23q-15 0 -33 11
t-28 24q-3 6 -4 7q0 2 -3 8l-3 5q0 1 -2 3q-2 1 -3 3t-2 3q-46 83 -139 83q-129 0 -191 -160q-4 -9 -20 -60q-1 -4 -3.5 -11.5t-3.5 -11.5zM88 0h109l318 597h639l129 -597h107l-346 1605h-102zM567 695l404 770l161 -770h-565z" />
    <glyph glyph-name="Adieresis" unicode="&#xc4;" horiz-adv-x="1478" 
d="M755 1836q-5 -33 13 -54.5t52 -21.5q76 0 89 76q5 36 -12 57t-53 21q-76 0 -89 -78zM1150 1836q-5 -33 14.5 -54.5t53.5 -21.5q75 0 88 76q5 36 -12 57t-52 21t-61 -21.5t-31 -56.5zM88 0h109l318 597h639l129 -597h107l-346 1605h-102zM567 695l404 770l161 -770h-565z
" />
    <glyph glyph-name="Aring" unicode="&#xc5;" horiz-adv-x="1478" 
d="M841 1947q-13 -87 37 -144.5t137 -57.5q94 0 160 55t80 147q15 92 -33.5 147t-142.5 55q-88 0 -156 -57.5t-82 -144.5zM1160 1947q-8 -50 -44.5 -81.5t-86.5 -31.5q-48 0 -74 32.5t-18 80.5t44 79t84 31q50 0 76.5 -30.5t18.5 -79.5zM88 0h109l318 597h639l129 -597h107
l-346 1605h-102zM567 695l404 770l161 -770h-565z" />
    <glyph glyph-name="AE" unicode="&#xc6;" horiz-adv-x="1768" 
d="M1913 1509l15 97h-990l-1 -6v-3v-1l-849 -1596h109l318 597h264l-95 -596l991 3l15 99h-887l113 710h632l19 101h-638l94 595h890zM794 695h-227l325 619z" />
    <glyph glyph-name="Ccedilla" unicode="&#xc7;" horiz-adv-x="1278" 
d="M1165 382q-177 -304 -483 -304q-83 0 -150.5 24t-112.5 66.5t-77 100.5t-44.5 125.5t-15.5 141.5t11 149l38 237q15 93 45.5 179t80.5 164t114.5 135.5t152 91.5t187.5 34q306 0 387 -304l1 -7l92 56l-1 4q-48 169 -164 260t-299 91q-175 0 -321.5 -89.5t-244.5 -250.5
q-95 -156 -127 -366l-38 -235q-17 -89 -12 -185t26 -180.5t73 -158.5t129 -118q52 -30 140 -53q42 -23 68.5 -41.5t59 -48t46 -65t7.5 -75.5q-9 -56 -49.5 -88t-98.5 -32q-105 0 -162 104l-3 8l-68 -79l2 -3q35 -66 84.5 -91.5t132.5 -25.5q100 0 169.5 55.5t84.5 153.5
q23 136 -90 220q317 32 505 349l3 4l-74 54z" />
    <glyph glyph-name="Egrave" unicode="&#xc8;" horiz-adv-x="1165" 
d="M748 2088l167 -377h102l-156 377h-113zM342 1605l-254 -1605l989 3l16 99h-887l113 710h632l19 101h-638l94 595h890l15 97h-989z" />
    <glyph glyph-name="Eacute" unicode="&#xc9;" horiz-adv-x="1165" 
d="M972 2105l-278 -377h106l283 377h-111zM342 1605l-254 -1605l989 3l16 99h-887l113 710h632l19 101h-638l94 595h890l15 97h-989z" />
    <glyph glyph-name="Ecircumflex" unicode="&#xca;" horiz-adv-x="1165" 
d="M850 2095l-336 -367h114l241 258l158 -258h113l-219 367h-71zM342 1605l-254 -1605l989 3l16 99h-887l113 710h632l19 101h-638l94 595h890l15 97h-989z" />
    <glyph glyph-name="Edieresis" unicode="&#xcb;" horiz-adv-x="1165" 
d="M597 1836q-5 -33 13.5 -54.5t52.5 -21.5q37 0 60.5 20t29.5 56q5 35 -12.5 56.5t-53.5 21.5q-77 0 -90 -78zM993 1836q-5 -33 14 -54.5t53 -21.5q78 0 90 76q5 35 -12.5 56.5t-53.5 21.5q-35 0 -60.5 -22t-30.5 -56zM342 1605l-254 -1605l989 3l16 99h-887l113 710h632
l19 101h-638l94 595h890l15 97h-989z" />
    <glyph glyph-name="Igrave" unicode="&#xcc;" horiz-adv-x="315" 
d="M293 2111l170 -381h106l-158 381h-118zM259 1606l-254 -1606h107l251 1606h-104z" />
    <glyph glyph-name="Iacute" unicode="&#xcd;" horiz-adv-x="307" 
d="M541 2105l-278 -377h106l283 377h-111zM354 1605l-254 -1605h101l251 1605h-98z" />
    <glyph glyph-name="Icircumflex" unicode="&#xce;" horiz-adv-x="310" 
d="M452 2095l-336 -367h115l240 258l159 -258h112l-219 367h-71zM387 1605l-254 -1605h102l251 1605h-99z" />
    <glyph glyph-name="Idieresis" unicode="&#xcf;" horiz-adv-x="268" 
d="M149 1836q-5 -34 13.5 -55t52.5 -21q76 0 89 76q5 36 -12 57t-53 21q-77 0 -90 -78zM544 1836q-5 -33 15 -54.5t53 -21.5q36 0 59.5 20t29.5 56q5 35 -12.5 56.5t-52.5 21.5t-61 -22t-31 -56zM337 1605l-254 -1605h102l251 1605h-99z" />
    <glyph glyph-name="Ntilde" unicode="&#xd1;" horiz-adv-x="1177" 
d="M579 1796h95l2 5q3 7 10 29t12 33q12 29 31 59q17 23 53 23q22 0 33 -6q13 -8 34 -38q48 -66 70 -80q33 -23 82 -23q129 0 192 160q5 11 11.5 32t8.5 28q1 4 3.5 11.5t3.5 11.5l2 7h-95l-1 -5q-4 -10 -11 -31t-11 -31q-22 -45 -32 -59q-17 -23 -55 -23q-15 0 -33 11
t-29 24q-1 4 -4 7q0 2 -1.5 4.5t-1.5 3.5q-5 7 -5 8q-1 1 -2 3.5t-2 3.5q-46 82 -139 82q-129 0 -191 -161q-5 -10 -20 -59q-1 -4 -3.5 -11.5t-3.5 -11.5zM348 1578l-250 -1578h102l217 1383l574 -1365l-3 -18h101l254 1605h-99l-220 -1379l-580 1379h-102l2 -8l2 -10
q2 -5 1 -7l1 -1v-1z" />
    <glyph glyph-name="Ograve" unicode="&#xd2;" 
d="M1001 1711h104l-157 377h-112zM196 685q-16 -87 -12 -173.5t20.5 -165t56 -145.5t93.5 -116.5t134.5 -77.5t177.5 -28q119 0 223 39t181.5 106t138 157.5t97.5 191.5t54 211l38 235q17 89 13 176t-19.5 165.5t-55 145.5t-93.5 116t-135.5 76.5t-180.5 27.5
q-175 0 -321 -89.5t-245 -249.5q-95 -158 -127 -367zM1262 684q-15 -94 -45 -180t-80 -164.5t-114 -136t-152 -91.5t-189 -34q-83 0 -150.5 24t-112.5 66.5t-77 100.5t-44.5 125.5t-15.5 141.5t11 149l38 237q15 93 45.5 179t80.5 164t114.5 135.5t152 91.5t187.5 34
q150 0 248 -74.5t134 -212.5q36 -137 7 -318z" />
    <glyph glyph-name="Oacute" unicode="&#xd3;" 
d="M782 1728h105l284 377h-112zM196 685q-16 -87 -12 -173.5t20.5 -165t56 -145.5t93.5 -116.5t134.5 -77.5t177.5 -28q119 0 223 39t181.5 106t138 157.5t97.5 191.5t54 211l38 235q17 89 13 176t-19.5 165.5t-55 145.5t-93.5 116t-135.5 76.5t-180.5 27.5
q-175 0 -321 -89.5t-245 -249.5q-95 -158 -127 -367zM1262 684q-15 -94 -45 -180t-80 -164.5t-114 -136t-152 -91.5t-189 -34q-83 0 -150.5 24t-112.5 66.5t-77 100.5t-44.5 125.5t-15.5 141.5t11 149l38 237q15 93 45.5 179t80.5 164t114.5 135.5t152 91.5t187.5 34
q150 0 248 -74.5t134 -212.5q36 -137 7 -318z" />
    <glyph glyph-name="Ocircumflex" unicode="&#xd4;" 
d="M600 1728h115l240 258l159 -258h112l-218 367h-70zM196 685q-16 -87 -12 -173.5t20.5 -165t56 -145.5t93.5 -116.5t134.5 -77.5t177.5 -28q119 0 223 39t181.5 106t138 157.5t97.5 191.5t54 211l38 235q17 89 13 176t-19.5 165.5t-55 145.5t-93.5 116t-135.5 76.5
t-180.5 27.5q-175 0 -321 -89.5t-245 -249.5q-95 -158 -127 -367zM1262 684q-15 -94 -45 -180t-80 -164.5t-114 -136t-152 -91.5t-189 -34q-83 0 -150.5 24t-112.5 66.5t-77 100.5t-44.5 125.5t-15.5 141.5t11 149l38 237q15 93 45.5 179t80.5 164t114.5 135.5t152 91.5
t187.5 34q150 0 248 -74.5t134 -212.5q36 -137 7 -318z" />
    <glyph glyph-name="Otilde" unicode="&#xd5;" 
d="M656 1796h96l2 5q4 10 11 30.5t11 31.5q10 30 30 59q17 23 53 23q23 0 33 -6q12 -7 18 -17l15 -21q44 -62 72 -80q33 -23 81 -23q130 0 191 160q5 11 11.5 32t8.5 28q1 4 3.5 11.5t3.5 11.5l2 7h-95v-5q-20 -76 -54 -121q-17 -23 -55 -23q-15 0 -32.5 11t-28.5 24
q-3 6 -4 7l-3 9q-2 2 -3 4q0 1 -2 3q-2 1 -3 3t-2 3q-46 83 -138 83q-130 0 -192 -160q-4 -9 -20 -60q-1 -4 -3.5 -11.5t-3.5 -11.5zM196 685q-16 -87 -12 -173.5t20.5 -165t56 -145.5t93.5 -116.5t134.5 -77.5t177.5 -28q119 0 223 39t181.5 106t138 157.5t97.5 191.5
t54 211l38 235q17 89 13 176t-19.5 165.5t-55 145.5t-93.5 116t-135.5 76.5t-180.5 27.5q-175 0 -321 -89.5t-245 -249.5q-95 -158 -127 -367zM1262 684q-15 -94 -45 -180t-80 -164.5t-114 -136t-152 -91.5t-189 -34q-83 0 -150.5 24t-112.5 66.5t-77 100.5t-44.5 125.5
t-15.5 141.5t11 149l38 237q15 93 45.5 179t80.5 164t114.5 135.5t152 91.5t187.5 34q150 0 248 -74.5t134 -212.5q36 -137 7 -318z" />
    <glyph glyph-name="Odieresis" unicode="&#xd6;" 
d="M685 1836q-5 -33 13 -54.5t52 -21.5q78 0 90 76q5 35 -12.5 56.5t-53.5 21.5q-76 0 -89 -78zM1080 1836q-5 -33 15 -54.5t53 -21.5q76 0 89 76q5 36 -12 57t-53 21q-35 0 -61 -22t-31 -56zM196 685q-16 -87 -12 -173.5t20.5 -165t56 -145.5t93.5 -116.5t134.5 -77.5
t177.5 -28q119 0 223 39t181.5 106t138 157.5t97.5 191.5t54 211l38 235q17 89 13 176t-19.5 165.5t-55 145.5t-93.5 116t-135.5 76.5t-180.5 27.5q-175 0 -321 -89.5t-245 -249.5q-95 -158 -127 -367zM1262 684q-15 -94 -45 -180t-80 -164.5t-114 -136t-152 -91.5t-189 -34
q-83 0 -150.5 24t-112.5 66.5t-77 100.5t-44.5 125.5t-15.5 141.5t11 149l38 237q15 93 45.5 179t80.5 164t114.5 135.5t152 91.5t187.5 34q150 0 248 -74.5t134 -212.5q36 -137 7 -318z" />
    <glyph glyph-name="multiply" unicode="&#xd7;" horiz-adv-x="1032" 
d="M154 415l62 -73l410 355l300 -355l83 73l-297 354l410 355l-61 71l-412 -354l-298 353l-85 -70l300 -355z" />
    <glyph glyph-name="Oslash" unicode="&#xd8;" 
d="M304 -160h100l82 167q84 -28 180 -28q119 0 223 39t181.5 106t138 157.5t97.5 191.5t54 211l38 235q29 187 -9.5 353t-162.5 261l40 85h-99l-19 -37q-90 45 -221 45q-175 0 -321.5 -89.5t-244.5 -250.5q-95 -156 -127 -366l-38 -235q-17 -88 -12 -183t26 -178t71 -157
t123 -120zM1101 1486l-650 -1343q-111 82 -147.5 229t-10.5 313l38 237q15 93 45.5 179t80.5 164t114.5 135.5t152 91.5t187.5 34q110 0 190 -40zM1262 684q-19 -119 -63 -224t-114 -192.5t-174 -138.5t-229 -51q-79 0 -150 25l647 1334q64 -57 97.5 -145.5t35 -180.5
t-11.5 -190z" />
    <glyph glyph-name="Ugrave" unicode="&#xd9;" 
d="M836 2088l165 -377h104l-157 377h-112zM196 685q-16 -87 -12 -173.5t20.5 -165t56 -145.5t93.5 -116.5t134.5 -77.5t177.5 -28q119 0 223 39t181.5 106t138 157.5t97.5 191.5t54 211l146 921h-98l-146 -921q-15 -94 -45 -180t-80 -164.5t-114 -136t-152 -91.5t-189 -34
q-83 0 -150.5 24t-112.5 66.5t-77 100.5t-44.5 125.5t-15.5 141.5t11 149l146 920h-97z" />
    <glyph glyph-name="Uacute" unicode="&#xda;" 
d="M1059 2105l-277 -377h105l284 377h-112zM196 685q-16 -87 -12 -173.5t20.5 -165t56 -145.5t93.5 -116.5t134.5 -77.5t177.5 -28q119 0 223 39t181.5 106t138 157.5t97.5 191.5t54 211l146 921h-98l-146 -921q-15 -94 -45 -180t-80 -164.5t-114 -136t-152 -91.5t-189 -34
q-83 0 -150.5 24t-112.5 66.5t-77 100.5t-44.5 125.5t-15.5 141.5t11 149l146 920h-97z" />
    <glyph glyph-name="Ucircumflex" unicode="&#xdb;" 
d="M938 2095l-338 -367h115l240 258l159 -258h112l-218 367h-70zM196 685q-16 -87 -12 -173.5t20.5 -165t56 -145.5t93.5 -116.5t134.5 -77.5t177.5 -28q119 0 223 39t181.5 106t138 157.5t97.5 191.5t54 211l146 921h-98l-146 -921q-15 -94 -45 -180t-80 -164.5t-114 -136
t-152 -91.5t-189 -34q-83 0 -150.5 24t-112.5 66.5t-77 100.5t-44.5 125.5t-15.5 141.5t11 149l146 920h-97z" />
    <glyph glyph-name="Udieresis" unicode="&#xdc;" 
d="M685 1836q-5 -33 13 -54.5t52 -21.5q78 0 90 76q5 35 -12.5 56.5t-53.5 21.5q-76 0 -89 -78zM1080 1836q-5 -33 15 -54.5t53 -21.5q76 0 89 76q5 36 -12 57t-53 21q-35 0 -61 -22t-31 -56zM196 685q-16 -87 -12 -173.5t20.5 -165t56 -145.5t93.5 -116.5t134.5 -77.5
t177.5 -28q119 0 223 39t181.5 106t138 157.5t97.5 191.5t54 211l146 921h-98l-146 -921q-15 -94 -45 -180t-80 -164.5t-114 -136t-152 -91.5t-189 -34q-83 0 -150.5 24t-112.5 66.5t-77 100.5t-44.5 125.5t-15.5 141.5t11 149l146 920h-97z" />
    <glyph glyph-name="Yacute" unicode="&#xdd;" horiz-adv-x="1301" 
d="M1040 2105l-278 -377h106l283 377h-111zM729 808l-128 -808h96l128 807l642 798h-123l-552 -706l-332 706h-118z" />
    <glyph glyph-name="germandbls" unicode="&#xdf;" horiz-adv-x="1149" 
d="M275 1178l-253 -1602h102l1 6q46 294 170 1084q16 98 43.5 277.5t36.5 239.5q25 154 144 243t278 89q99 0 177.5 -39.5t120 -117t25.5 -175.5q-15 -99 -80.5 -173t-155 -110t-188.5 -36h-59l-16 -98h59q80 0 150.5 -23t122.5 -65.5t76.5 -109.5t11.5 -149
q-17 -109 -87.5 -188t-166.5 -116t-205 -37q-20 0 -62 4l-7 1l-16 -102h5q19 -2 55 -2q106 0 202.5 28t176.5 81.5t135 140t72 196.5q22 137 -41.5 239.5t-186.5 151.5q121 50 202 145t101 217q32 204 -83 320.5t-322 116.5q-136 0 -249 -50.5t-190 -150.5t-99 -236z" />
    <glyph glyph-name="agrave" unicode="&#xe0;" horiz-adv-x="1086" 
d="M908 1268l-156 375h-113l167 -375h102zM1105 682h1l1 6q13 66 12 132t-22 126q-38 107 -128 161.5t-215 54.5q-201 0 -335.5 -126t-166.5 -326l-4 -29h98l1 6q26 164 127 267t263 103q122 0 199 -67.5t82 -185.5q3 -42 -8 -103l-3 -18h-257q-93 0 -178.5 -13.5
t-179 -54.5t-155.5 -106q-81 -86 -100 -198q-16 -103 24 -180t118.5 -115t181.5 -38q276 0 464 189l-26 -168h98zM992 585l-40 -251v-1l-1 -1q-1 -1 -5 -7q-1 -1 -14 -20q-17 -25 -23 -30q-81 -100 -193.5 -149.5t-239.5 -49.5q-109 0 -182.5 64t-57.5 167q12 77 66.5 134
t132 86.5t154 43.5t149.5 14h254z" />
    <glyph glyph-name="aacute" unicode="&#xe1;" horiz-adv-x="1086" 
d="M973 1658h-110l-277 -373h106zM1105 682h1l1 6q13 66 12 132t-22 126q-38 107 -128 161.5t-215 54.5q-201 0 -335.5 -126t-166.5 -326l-4 -29h98l1 6q26 164 127 267t263 103q122 0 199 -67.5t82 -185.5q3 -42 -8 -103l-3 -18h-257q-93 0 -178.5 -13.5t-179 -54.5
t-155.5 -106q-81 -86 -100 -198q-16 -103 24 -180t118.5 -115t181.5 -38q276 0 464 189l-26 -168h98zM992 585l-40 -251v-1l-1 -1q-1 -1 -5 -7q-1 -1 -14 -20q-17 -25 -23 -30q-81 -100 -193.5 -149.5t-239.5 -49.5q-109 0 -182.5 64t-57.5 167q12 77 66.5 134t132 86.5
t154 43.5t149.5 14h254z" />
    <glyph glyph-name="acircumflex" unicode="&#xe2;" horiz-adv-x="1086" 
d="M759 1540l158 -255h112l-218 365h-70l-334 -365h113zM1105 682h1l1 6q13 66 12 132t-22 126q-38 107 -128 161.5t-215 54.5q-201 0 -335.5 -126t-166.5 -326l-4 -29h98l1 6q26 164 127 267t263 103q122 0 199 -67.5t82 -185.5q3 -42 -8 -103l-3 -18h-257
q-93 0 -178.5 -13.5t-179 -54.5t-155.5 -106q-81 -86 -100 -198q-16 -103 24 -180t118.5 -115t181.5 -38q276 0 464 189l-26 -168h98zM992 585l-40 -251v-1l-1 -1q-1 -1 -5 -7q-1 -1 -14 -20q-17 -25 -23 -30q-81 -100 -193.5 -149.5t-239.5 -49.5q-109 0 -182.5 64
t-57.5 167q12 77 66.5 134t132 86.5t154 43.5t149.5 14h254z" />
    <glyph glyph-name="atilde" unicode="&#xe3;" horiz-adv-x="1086" 
d="M463 1348h94l1 5q3 8 10.5 30t11.5 33q10 28 31 59q16 21 51 21q23 0 35 -8.5t28 -29.5q4 -5 13.5 -18.5t15.5 -20.5q12 -16 33 -35q41 -34 93 -34q130 0 190 159q4 12 10.5 32.5t9.5 28.5q1 4 3.5 11.5t3.5 11.5l2 7h-94l-1 -5q-4 -11 -11 -32t-11 -31q-16 -37 -33 -58
q-17 -22 -53 -22q-16 0 -34.5 11.5t-27.5 25.5l-3 5q0 2 -1 2q0 1 -0.5 2.5t-0.5 2.5q-2 2 -3 4q0 1 -2 3q-3 2 -5 7q-47 83 -138 83q-129 0 -190 -159q-4 -10 -10 -30l-9 -30q-1 -4 -3.5 -12t-3.5 -12zM1105 682h1l1 6q13 66 12 132t-22 126q-38 107 -128 161.5t-215 54.5
q-201 0 -335.5 -126t-166.5 -326l-4 -29h98l1 6q26 164 127 267t263 103q122 0 199 -67.5t82 -185.5q3 -42 -8 -103l-3 -18h-257q-93 0 -178.5 -13.5t-179 -54.5t-155.5 -106q-81 -86 -100 -198q-16 -103 24 -180t118.5 -115t181.5 -38q276 0 464 189l-26 -168h98zM992 585
l-40 -251v-1l-1 -1q-1 -1 -5 -7q-1 -1 -14 -20q-17 -25 -23 -30q-81 -100 -193.5 -149.5t-239.5 -49.5q-109 0 -182.5 64t-57.5 167q12 77 66.5 134t132 86.5t154 43.5t149.5 14h254z" />
    <glyph glyph-name="adieresis" unicode="&#xe4;" horiz-adv-x="1086" 
d="M579 1469q-37 0 -60.5 -20.5t-29.5 -56.5q-5 -33 13.5 -55t51.5 -22q37 0 60.5 20.5t28.5 56.5q6 37 -10.5 57t-53.5 20zM974 1469q-35 0 -60.5 -21.5t-31.5 -55.5q-4 -33 15 -55t52 -22q37 0 60.5 20.5t28.5 56.5q6 35 -11 56t-53 21zM1105 682h1l1 6q13 66 12 132
t-22 126q-38 107 -128 161.5t-215 54.5q-201 0 -335.5 -126t-166.5 -326l-4 -29h98l1 6q26 164 127 267t263 103q122 0 199 -67.5t82 -185.5q3 -42 -8 -103l-3 -18h-257q-93 0 -178.5 -13.5t-179 -54.5t-155.5 -106q-81 -86 -100 -198q-16 -103 24 -180t118.5 -115
t181.5 -38q276 0 464 189l-26 -168h98zM992 585l-40 -251v-1l-1 -1q-1 -1 -5 -7q-1 -1 -14 -20q-17 -25 -23 -30q-81 -100 -193.5 -149.5t-239.5 -49.5q-109 0 -182.5 64t-57.5 167q12 77 66.5 134t132 86.5t154 43.5t149.5 14h254z" />
    <glyph glyph-name="aring" unicode="&#xe5;" horiz-adv-x="1086" 
d="M576 1501q-13 -86 37 -142.5t137 -56.5q92 0 157 54t80 145q14 92 -33.5 146.5t-139.5 54.5q-88 0 -156.5 -57t-81.5 -144zM672 1501q7 49 42.5 79.5t84.5 30.5t75 -30.5t19 -79.5q-8 -48 -44 -79.5t-85 -31.5q-47 0 -73.5 32t-18.5 79zM1105 682h1l1 6q13 66 12 132
t-22 126q-38 107 -128 161.5t-215 54.5q-201 0 -335.5 -126t-166.5 -326l-4 -29h98l1 6q26 164 127 267t263 103q122 0 199 -67.5t82 -185.5q3 -42 -8 -103l-3 -18h-257q-93 0 -178.5 -13.5t-179 -54.5t-155.5 -106q-81 -86 -100 -198q-16 -103 24 -180t118.5 -115
t181.5 -38q276 0 464 189l-26 -168h98zM992 585l-40 -251v-1l-1 -1q-1 -1 -5 -7q-1 -1 -14 -20q-17 -25 -23 -30q-81 -100 -193.5 -149.5t-239.5 -49.5q-109 0 -182.5 64t-57.5 167q12 77 66.5 134t132 86.5t154 43.5t149.5 14h254z" />
    <glyph glyph-name="ae" unicode="&#xe6;" horiz-adv-x="1839" 
d="M1090 589h754l1 6q24 147 26 181q7 97 -21 175q-37 106 -123.5 158.5t-209.5 52.5q-270 0 -416 -217l-3 -3l-1 -2q-5 9 -60 82q-58 76 -68 86q-1 1 -10 7q-2 1 -12 5q-84 42 -193 42q-201 0 -335.5 -126t-166.5 -326l-4 -29h98l1 6q26 164 127 267t263 103
q122 0 198.5 -67.5t82.5 -185.5q3 -42 -8 -103l-3 -18h-257q-93 0 -178.5 -14t-178.5 -54.5t-156 -105.5q-81 -86 -100 -198q-16 -103 24 -180t118.5 -115t181.5 -38q276 0 464 189l-26 -168h98l21 136q97 -149 308 -149q125 0 232 57.5t178 166.5l4 5l-67 63l-4 -6
q-127 -185 -328 -185q-120 0 -197.5 68.5t-83.5 183.5q-3 45 8 108zM1107 687v1q15 93 28 124q42 116 141.5 185t219.5 69t196.5 -69t83.5 -184q1 -49 -8 -106l-3 -20h-658zM992 585l-40 -251v-1l-1 -1q-1 -1 -5 -7q-1 -1 -14 -20q-17 -25 -23 -30q-81 -100 -193.5 -149.5
t-239.5 -49.5q-109 0 -182.5 64t-57.5 167q12 77 66.5 134t132 86.5t154 43.5t149.5 14h254z" />
    <glyph glyph-name="ccedilla" unicode="&#xe7;" horiz-adv-x="981" 
d="M198 686l-39 -247q-24 -144 13 -242q47 -129 164 -183q19 -9 48 -18q2 0 5 -1t4 -1q2 0 8 -2q2 0 5 -3q3 -1 9 -5q5 -3 10 -5q2 -2 3 -2l1 -1l20 -12q18 -10 22 -13q54 -35 87.5 -83.5t24.5 -105.5t-48.5 -88t-97.5 -31q-107 0 -161 103l-4 8l-66 -79l2 -4
q36 -64 85 -89.5t131 -25.5q99 0 168 55t84 153q21 132 -91 222q209 30 337 219l4 5l-68 64l-4 -7q-126 -184 -327 -184q-120 0 -197 68.5t-84 183.5q-3 44 8 107l41 260q10 58 25 100.5t45 88.5q54 84 136.5 127t180.5 43q200 0 269 -185l2 -7l88 64l-2 5q-39 110 -128 167
t-215 57q-195 0 -329.5 -127t-165.5 -322l-4 -27h1z" />
    <glyph glyph-name="egrave" unicode="&#xe8;" horiz-adv-x="1026" 
d="M776 1268h102l-157 375h-112zM173 202q80 -216 340 -216q125 0 231.5 57.5t178.5 166.5l4 5l-68 63l-4 -6q-127 -185 -327 -185q-120 0 -197 68.5t-84 183.5q-3 40 8 108l22 142h754l1 6q24 151 26 181q5 99 -20 175q-74 211 -338 211q-204 0 -335.5 -123.5
t-163.5 -326.5l-42 -268q-22 -147 14 -242zM952 687h-659q11 71 25 114.5t48 94.5q54 84 136.5 127t180.5 43q119 0 196 -69t84 -184q1 -49 -8 -106z" />
    <glyph glyph-name="eacute" unicode="&#xe9;" horiz-adv-x="1026" 
d="M556 1285h106l281 373h-110zM173 202q80 -216 340 -216q125 0 231.5 57.5t178.5 166.5l4 5l-68 63l-4 -6q-127 -185 -327 -185q-120 0 -197 68.5t-84 183.5q-3 40 8 108l22 142h754l1 6q24 151 26 181q5 99 -20 175q-74 211 -338 211q-204 0 -335.5 -123.5t-163.5 -326.5
l-42 -268q-22 -147 14 -242zM952 687h-659q11 71 25 114.5t48 94.5q54 84 136.5 127t180.5 43q119 0 196 -69t84 -184q1 -49 -8 -106z" />
    <glyph glyph-name="ecircumflex" unicode="&#xea;" horiz-adv-x="1026" 
d="M377 1285h113l239 255l157 -255h113l-218 365h-70zM173 202q80 -216 340 -216q125 0 231.5 57.5t178.5 166.5l4 5l-68 63l-4 -6q-127 -185 -327 -185q-120 0 -197 68.5t-84 183.5q-3 40 8 108l22 142h754l1 6q24 151 26 181q5 99 -20 175q-74 211 -338 211
q-204 0 -335.5 -123.5t-163.5 -326.5l-42 -268q-22 -147 14 -242zM952 687h-659q11 71 25 114.5t48 94.5q54 84 136.5 127t180.5 43q119 0 196 -69t84 -184q1 -49 -8 -106z" />
    <glyph glyph-name="edieresis" unicode="&#xeb;" horiz-adv-x="1026" 
d="M459 1392q-5 -33 13 -55t51 -22q37 0 60.5 20.5t28.5 56.5q6 36 -10.5 56.5t-53.5 20.5q-76 0 -89 -77zM851 1392q-5 -33 14.5 -55t52.5 -22q37 0 60.5 20.5t28.5 56.5q6 35 -11 56t-53 21q-35 0 -60.5 -21.5t-31.5 -55.5zM173 202q80 -216 340 -216q125 0 231.5 57.5
t178.5 166.5l4 5l-68 63l-4 -6q-127 -185 -327 -185q-120 0 -197 68.5t-84 183.5q-3 40 8 108l22 142h754l1 6q24 151 26 181q5 99 -20 175q-74 211 -338 211q-204 0 -335.5 -123.5t-163.5 -326.5l-42 -268q-22 -147 14 -242zM952 687h-659q11 71 25 114.5t48 94.5
q54 84 136.5 127t180.5 43q119 0 196 -69t84 -184q1 -49 -8 -106z" />
    <glyph glyph-name="igrave" unicode="&#xec;" horiz-adv-x="366" 
d="M279 1643l166 -375h103l-156 375h-113zM318 1161l-184 -1161h98l184 1161h-98z" />
    <glyph glyph-name="iacute" unicode="&#xed;" horiz-adv-x="366" 
d="M500 1658l-277 -373h106l281 373h-110zM315 1161l-184 -1161h98l184 1161h-98z" />
    <glyph glyph-name="icircumflex" unicode="&#xee;" horiz-adv-x="367" 
d="M410 1650l-334 -365h114l238 255l159 -255h111l-218 365h-70zM347 1161l-184 -1161h99l184 1161h-99z" />
    <glyph glyph-name="idieresis" unicode="&#xef;" horiz-adv-x="325" 
d="M108 1392q-5 -33 13.5 -55t51.5 -22q37 0 61 20t29 57q6 36 -11.5 56.5t-53.5 20.5q-37 0 -60.5 -20.5t-29.5 -56.5zM501 1392q-4 -33 15 -55t52 -22q36 0 59.5 20.5t28.5 56.5q6 35 -11 56t-52 21t-60.5 -21.5t-31.5 -55.5zM297 1161l-184 -1161h99l184 1161h-99z" />
    <glyph glyph-name="ntilde" unicode="&#xf1;" horiz-adv-x="1035" 
d="M654 1598q-40 0 -73.5 -16t-55 -38.5t-40 -59t-27.5 -63.5t-20 -66l-2 -7h93l1 5q4 11 11 32t11 31q17 40 31 59q16 21 52 21q23 0 35 -8.5t28 -29.5l29 -39q16 -21 33 -35q41 -34 93 -34q129 0 190 159q5 11 11 32.5t9 28.5q1 4 3.5 11.5t3.5 11.5l2 7h-94l-1 -5
q-12 -37 -23 -63q-15 -38 -32 -58q-17 -22 -53 -22q-16 0 -34.5 11.5t-27.5 25.5q-1 1 -3 5v1l-1 1l-1 4q0 1 -1 2.5t-2 2.5q0 1 -2 3q-3 2 -5 7q-47 83 -138 83zM272 1159l-184 -1159h95l1 6l111 701q5 34 28 98q49 123 143 190.5t221 67.5q122 0 198.5 -68.5t83.5 -185.5
q2 -39 -7 -105l-112 -702l95 -3l1 6q19 119 57.5 358t57.5 359q30 193 -67 317t-291 124q-213 0 -359 -149l23 145h-95z" />
    <glyph glyph-name="ograve" unicode="&#xf2;" horiz-adv-x="1027" 
d="M878 1268l-157 375h-112l167 -375h102zM198 688l-42 -261q-21 -128 17 -228q77 -211 340 -211q204 0 333 124t162 329l39 247h1l4 28q32 197 -61 320t-290 123q-201 0 -334.5 -122t-165.5 -322l-4 -27h1zM955 704l-42 -260q-25 -158 -127.5 -259t-258.5 -101
q-121 0 -197 69t-83 185q-3 35 7 106l42 260q25 159 127 259t259 100q121 0 197 -69t83 -185q2 -39 -7 -105z" />
    <glyph glyph-name="oacute" unicode="&#xf3;" horiz-adv-x="1027" 
d="M943 1658h-110l-277 -373h106zM198 688l-42 -261q-21 -128 17 -228q77 -211 340 -211q204 0 333 124t162 329l39 247h1l4 28q32 197 -61 320t-290 123q-201 0 -334.5 -122t-165.5 -322l-4 -27h1zM955 704l-42 -260q-25 -158 -127.5 -259t-258.5 -101q-121 0 -197 69
t-83 185q-3 35 7 106l42 260q25 159 127 259t259 100q121 0 197 -69t83 -185q2 -39 -7 -105z" />
    <glyph glyph-name="ocircumflex" unicode="&#xf4;" horiz-adv-x="1027" 
d="M729 1540l157 -255h113l-218 365h-70l-334 -365h113zM198 688l-42 -261q-21 -128 17 -228q77 -211 340 -211q204 0 333 124t162 329l39 247h1l4 28q32 197 -61 320t-290 123q-201 0 -334.5 -122t-165.5 -322l-4 -27h1zM955 704l-42 -260q-25 -158 -127.5 -259
t-258.5 -101q-121 0 -197 69t-83 185q-3 35 7 106l42 260q25 159 127 259t259 100q121 0 197 -69t83 -185q2 -39 -7 -105z" />
    <glyph glyph-name="otilde" unicode="&#xf5;" horiz-adv-x="1027" 
d="M432 1348h93l1 5q3 8 10.5 30t11.5 33q12 29 32 59q16 21 51 21q23 0 35 -8.5t28 -29.5q4 -5 13.5 -18.5t15.5 -20.5q12 -16 33 -35q41 -34 93 -34q129 0 190 159q5 11 11 32.5t9 28.5q1 4 3.5 11.5t3.5 11.5l2 7h-94l-1 -5q-4 -11 -11 -32t-11 -31q-16 -38 -33 -58
q-17 -22 -53 -22q-16 0 -34 11.5t-28 25.5l-3 5q0 2 -1 2q0 1 -0.5 2.5t-0.5 2.5q-2 2 -3 4q0 1 -2 3q-3 2 -5 7q-47 83 -138 83q-128 0 -189 -159q-5 -11 -11.5 -32t-8.5 -28q-1 -4 -3.5 -12t-3.5 -12zM198 688l-42 -261q-21 -128 17 -228q77 -211 340 -211q204 0 333 124
t162 329l39 247h1l4 28q32 197 -61 320t-290 123q-201 0 -334.5 -122t-165.5 -322l-4 -27h1zM955 704l-42 -260q-25 -158 -127.5 -259t-258.5 -101q-121 0 -197 69t-83 185q-3 35 7 106l42 260q25 159 127 259t259 100q121 0 197 -69t83 -185q2 -39 -7 -105z" />
    <glyph glyph-name="odieresis" unicode="&#xf6;" horiz-adv-x="1027" 
d="M549 1469q-76 0 -89 -77q-5 -33 13 -55t51 -22q37 0 60.5 20.5t28.5 56.5q6 36 -10.5 56.5t-53.5 20.5zM944 1469q-35 0 -60.5 -21.5t-31.5 -55.5q-5 -33 14.5 -55t52.5 -22q37 0 60.5 20.5t28.5 56.5q6 35 -11 56t-53 21zM198 688l-42 -261q-21 -128 17 -228
q77 -211 340 -211q204 0 333 124t162 329l39 247h1l4 28q32 197 -61 320t-290 123q-201 0 -334.5 -122t-165.5 -322l-4 -27h1zM955 704l-42 -260q-25 -158 -127.5 -259t-258.5 -101q-121 0 -197 69t-83 185q-3 35 7 106l42 260q25 159 127 259t259 100q121 0 197 -69
t83 -185q2 -39 -7 -105z" />
    <glyph glyph-name="divide" unicode="&#xf7;" horiz-adv-x="1205" 
d="M710 1176q-5 -34 13 -55.5t53 -21.5q77 0 89 77q7 40 -11 58q-13 19 -54 19q-78 0 -90 -77zM218 822l-14 -90h1029l14 90h-1029zM585 382q-6 -35 12 -56.5t53 -21.5q76 0 90 78q5 40 -11 58q-16 19 -54 19q-78 0 -90 -77z" />
    <glyph glyph-name="oslash" unicode="&#xf8;" horiz-adv-x="1027" 
d="M198 688l-42 -261q-19 -119 13.5 -221t118.5 -162l-156 -323h98l140 285q64 -18 143 -18q204 0 333 124t162 329l39 247h1l4 27q20 126 -15.5 231.5t-131.5 165.5l182 373h-100l-167 -340q-52 14 -119 14q-201 0 -334.5 -122t-165.5 -322l-4 -27h1zM775 1051l-438 -905
q-62 54 -80 127t-3 171l42 260q25 159 127 259t259 100q51 0 93 -12zM955 704l-42 -260q-25 -158 -127.5 -259t-258.5 -101q-59 0 -112 18l442 909q70 -54 92 -129t6 -178z" />
    <glyph glyph-name="ugrave" unicode="&#xf9;" horiz-adv-x="1034" 
d="M613 1643l167 -375h102l-157 375h-112zM158 441q-32 -201 61.5 -328.5t293.5 -127.5q209 0 359 149l-21 -134h95l184 1162h-95l-114 -720q-25 -155 -132 -255.5t-260 -100.5q-121 0 -198.5 68.5t-83.5 184.5q-3 44 8 107l113 714l-95 3l-1 -6q-12 -76 -114 -716z" />
    <glyph glyph-name="uacute" unicode="&#xfa;" horiz-adv-x="1034" 
d="M837 1658l-277 -373h105l282 373h-110zM158 441q-32 -201 61.5 -328.5t293.5 -127.5q209 0 359 149l-21 -134h95l184 1162h-95l-114 -720q-25 -155 -132 -255.5t-260 -100.5q-121 0 -198.5 68.5t-83.5 184.5q-3 44 8 107l113 714l-95 3l-1 -6q-12 -76 -114 -716z" />
    <glyph glyph-name="ucircumflex" unicode="&#xfb;" horiz-adv-x="1034" 
d="M714 1650l-333 -365h113l239 255l157 -255h113l-218 365h-71zM158 441q-32 -201 61.5 -328.5t293.5 -127.5q209 0 359 149l-21 -134h95l184 1162h-95l-114 -720q-25 -155 -132 -255.5t-260 -100.5q-121 0 -198.5 68.5t-83.5 184.5q-3 44 8 107l113 714l-95 3l-1 -6
q-12 -76 -114 -716z" />
    <glyph glyph-name="udieresis" unicode="&#xfc;" horiz-adv-x="1034" 
d="M463 1392q-5 -33 13 -55t51 -22q37 0 60.5 20.5t28.5 56.5q6 36 -10.5 56.5t-53.5 20.5q-76 0 -89 -77zM855 1392q-5 -33 14.5 -55t52.5 -22q37 0 60.5 20.5t28.5 56.5q6 35 -11 56t-53 21q-35 0 -60.5 -21.5t-31.5 -55.5zM158 441q-32 -201 61.5 -328.5t293.5 -127.5
q209 0 359 149l-21 -134h95l184 1162h-95l-114 -720q-25 -155 -132 -255.5t-260 -100.5q-121 0 -198.5 68.5t-83.5 184.5q-3 44 8 107l113 714l-95 3l-1 -6q-12 -76 -114 -716z" />
    <glyph glyph-name="yacute" unicode="&#xfd;" horiz-adv-x="1158" 
d="M894 1658l-277 -373h106l281 373h-110zM21 -456q60 -10 91 -10q153 0 270 92.5t193 245.5q73 152 100 203l579 1087h-105l-530 -993l-216 993h-107l247 -1139l-60 -119q-58 -115 -120 -175t-172 -88q-32 -8 -60 -8q-1 0 -43 3q-6 2 -8 2q-3 1 -10 1h-20l-31 -72v-4
q-1 -2 -1 -5q-1 -4 -1 -8l-1 -5z" />
    <glyph glyph-name="ydieresis" unicode="&#xff;" horiz-adv-x="1158" 
d="M520 1392q-5 -33 14 -55t52 -22q37 0 60.5 20.5t28.5 56.5q6 35 -11 56t-53 21q-37 0 -61 -20t-30 -57zM913 1392q-4 -33 15 -55t52 -22q37 0 60.5 20.5t28.5 56.5q6 36 -10.5 56.5t-53.5 20.5q-35 0 -60.5 -21.5t-31.5 -55.5zM21 -456q60 -10 91 -10q153 0 270 92.5
t193 245.5q73 152 100 203l579 1087h-105l-530 -993l-216 993h-107l247 -1139l-60 -119q-58 -115 -120 -175t-172 -88q-32 -8 -60 -8q-1 0 -43 3q-6 2 -8 2q-3 1 -10 1h-20l-31 -72v-4q-1 -2 -1 -5q-1 -4 -1 -8l-1 -5z" />
    <glyph glyph-name="Amacron" unicode="&#x100;" horiz-adv-x="1478" 
d="M684 1801h681l14 89h-681zM88 0h109l318 597h639l129 -597h107l-346 1605h-102zM567 695l404 770l161 -770h-565z" />
    <glyph glyph-name="amacron" unicode="&#x101;" horiz-adv-x="1086" 
d="M1111 1446h-676l-14 -90h676zM1105 682h1l1 6q13 66 12 132t-22 126q-38 107 -128 161.5t-215 54.5q-201 0 -335.5 -126t-166.5 -326l-4 -29h98l1 6q26 164 127 267t263 103q122 0 199 -67.5t82 -185.5q3 -42 -8 -103l-3 -18h-257q-93 0 -178.5 -13.5t-179 -54.5
t-155.5 -106q-81 -86 -100 -198q-16 -103 24 -180t118.5 -115t181.5 -38q276 0 464 189l-26 -168h98zM992 585l-40 -251v-1l-1 -1q-1 -1 -5 -7q-1 -1 -14 -20q-17 -25 -23 -30q-81 -100 -193.5 -149.5t-239.5 -49.5q-109 0 -182.5 64t-57.5 167q12 77 66.5 134t132 86.5
t154 43.5t149.5 14h254z" />
    <glyph glyph-name="Abreve" unicode="&#x102;" horiz-adv-x="1478" 
d="M812 1806q65 -78 201 -78q138 0 226.5 77t110.5 213l4 30h-90l-1 -6q-9 -59 -24.5 -96.5t-54.5 -71.5q-63 -53 -157 -53q-92 0 -137.5 53t-30.5 144q0 4 1.5 12t2.5 12l1 6h-91l-1 -6q-8 -51 -8.5 -86.5t10.5 -77t38 -72.5zM88 0h109l318 597h639l129 -597h107l-346 1605
h-102zM567 695l404 770l161 -770h-565z" />
    <glyph glyph-name="abreve" unicode="&#x103;" horiz-adv-x="1086" 
d="M504 1572q-21 -134 43.5 -210.5t200.5 -76.5q134 0 224 77t111 210l3 25l1 6h-91l-1 -6q-9 -57 -25.5 -96.5t-54.5 -71.5q-64 -53 -153 -53q-91 0 -136.5 53t-31.5 143q0 4 2 12.5t3 12.5l1 6h-90l-1 -6q-1 -4 -3 -12.5t-2 -12.5zM1105 682h1l1 6q13 66 12 132t-22 126
q-38 107 -128 161.5t-215 54.5q-201 0 -335.5 -126t-166.5 -326l-4 -29h98l1 6q26 164 127 267t263 103q122 0 199 -67.5t82 -185.5q3 -42 -8 -103l-3 -18h-257q-93 0 -178.5 -13.5t-179 -54.5t-155.5 -106q-81 -86 -100 -198q-16 -103 24 -180t118.5 -115t181.5 -38
q276 0 464 189l-26 -168h98zM992 585l-40 -251v-1l-1 -1q-1 -1 -5 -7q-1 -1 -14 -20q-17 -25 -23 -30q-81 -100 -193.5 -149.5t-239.5 -49.5q-109 0 -182.5 64t-57.5 167q12 77 66.5 134t132 86.5t154 43.5t149.5 14h254z" />
    <glyph glyph-name="Aogonek" unicode="&#x104;" horiz-adv-x="1475" 
d="M946 -254q-15 -97 38 -147.5t151 -50.5q68 0 103.5 11t107.5 49l5 3l-31 89l-6 -5q-72 -58 -164 -58q-57 0 -88 28t-22 81q11 69 82.5 125t161.5 93l14 7t18.5 8.5t16.5 7.5q27 13 49 19l6 2l-344 1597h-102l-854 -1605h109l318 597h639l119 -549q-298 -115 -327 -302z
M567 695l404 770l161 -770h-565z" />
    <glyph glyph-name="aogonek" unicode="&#x105;" horiz-adv-x="1092" 
d="M970 -386l-30 89l-7 -5q-73 -58 -163 -58q-56 0 -87 27.5t-22 80.5q11 68 82.5 124t159.5 92q5 2 39.5 17t52.5 23l3 2l107 676h1l1 6q13 66 12 132t-22 126q-38 107 -128 161.5t-215 54.5q-201 0 -335.5 -126t-166.5 -326l-4 -29h98l1 6q26 164 127 267t263 103
q123 0 199 -67.5t82 -185.5q3 -42 -8 -103l-3 -18h-257q-93 0 -178.5 -14t-178.5 -54.5t-156 -105.5q-81 -86 -100 -198q-16 -103 24 -180t118.5 -115t181.5 -38q276 0 464 189l-18 -114q-57 -20 -108.5 -46.5t-102.5 -64t-85.5 -87.5t-43.5 -107q-15 -96 38 -146.5
t151 -50.5q68 0 105.5 11.5t102.5 48.5zM909 275q-81 -100 -193.5 -149.5t-239.5 -49.5q-109 0 -182.5 64t-57.5 167q12 77 66.5 134t132 86.5t154 43.5t149.5 14h254l-40 -251v-1l-1 -1q-1 -1 -5 -7q-1 -1 -14 -20q-17 -25 -23 -30z" />
    <glyph glyph-name="Cacute" unicode="&#x106;" horiz-adv-x="1278" 
d="M1026 2105l-278 -377h106l283 377h-111zM196 685q-16 -87 -12 -173.5t20.5 -165t56 -145.5t93.5 -116.5t134.5 -77.5t177.5 -28q184 0 328.5 91t245.5 261l3 4l-74 54l-4 -7q-177 -304 -483 -304q-83 0 -150.5 24t-112.5 66.5t-77 100.5t-44.5 125.5t-15.5 141.5t11 149
l38 237q15 93 45.5 179t80.5 164t114.5 135.5t152 91.5t187.5 34q306 0 387 -304l1 -7l92 56l-1 4q-48 169 -164 260t-299 91q-175 0 -321.5 -89.5t-244.5 -250.5q-95 -156 -127 -366z" />
    <glyph glyph-name="cacute" unicode="&#x107;" horiz-adv-x="981" 
d="M808 1658l-277 -373h105l281 373h-109zM198 686l-39 -247q-24 -144 13 -242q80 -216 340 -216q124 0 231 57.5t179 166.5l4 5l-68 64l-4 -7q-126 -184 -327 -184q-120 0 -196.5 68.5t-84.5 183.5q-3 44 8 107l41 260q10 58 25 100.5t45 88.5q54 84 136.5 127t180.5 43
q200 0 269 -185l2 -7l88 64l-2 5q-39 110 -128 167t-215 57q-195 0 -329.5 -127t-165.5 -322l-4 -27h1z" />
    <glyph glyph-name="Ccircumflex" unicode="&#x108;" horiz-adv-x="1278" 
d="M904 2095l-337 -367h115l240 258l159 -258h113l-220 367h-70zM196 685q-16 -87 -12 -173.5t20.5 -165t56 -145.5t93.5 -116.5t134.5 -77.5t177.5 -28q184 0 328.5 91t245.5 261l3 4l-74 54l-4 -7q-177 -304 -483 -304q-83 0 -150.5 24t-112.5 66.5t-77 100.5t-44.5 125.5
t-15.5 141.5t11 149l38 237q15 93 45.5 179t80.5 164t114.5 135.5t152 91.5t187.5 34q306 0 387 -304l1 -7l92 56l-1 4q-48 169 -164 260t-299 91q-175 0 -321.5 -89.5t-244.5 -250.5q-95 -156 -127 -366z" />
    <glyph glyph-name="ccircumflex" unicode="&#x109;" horiz-adv-x="981" 
d="M685 1650l-334 -365h114l238 255l158 -255h112l-217 365h-71zM198 686l-39 -247q-24 -144 13 -242q80 -216 340 -216q124 0 231 57.5t179 166.5l4 5l-68 64l-4 -7q-126 -184 -327 -184q-120 0 -196.5 68.5t-84.5 183.5q-3 44 8 107l41 260q10 58 25 100.5t45 88.5
q54 84 136.5 127t180.5 43q200 0 269 -185l2 -7l88 64l-2 5q-39 110 -128 167t-215 57q-195 0 -329.5 -127t-165.5 -322l-4 -27h1z" />
    <glyph glyph-name="Cdotaccent" unicode="&#x10a;" horiz-adv-x="1278" 
d="M853 1856q-5 -33 13 -55t51 -22q37 0 60.5 20.5t29.5 56.5t-12 56.5t-54 20.5q-75 0 -88 -77zM196 685q-16 -87 -12 -173.5t20.5 -165t56 -145.5t93.5 -116.5t134.5 -77.5t177.5 -28q184 0 328.5 91t245.5 261l3 4l-74 54l-4 -7q-177 -304 -483 -304q-83 0 -150.5 24
t-112.5 66.5t-77 100.5t-44.5 125.5t-15.5 141.5t11 149l38 237q15 93 45.5 179t80.5 164t114.5 135.5t152 91.5t187.5 34q306 0 387 -304l1 -7l92 56l-1 4q-48 169 -164 260t-299 91q-175 0 -321.5 -89.5t-244.5 -250.5q-95 -156 -127 -366z" />
    <glyph glyph-name="cdotaccent" unicode="&#x10b;" horiz-adv-x="981" 
d="M634 1412q-5 -34 13 -55.5t52 -21.5q37 0 60.5 20.5t29.5 56.5q5 35 -12.5 55.5t-52.5 20.5q-37 0 -61 -20t-29 -56zM198 686l-39 -247q-24 -144 13 -242q80 -216 340 -216q124 0 231 57.5t179 166.5l4 5l-68 64l-4 -7q-126 -184 -327 -184q-120 0 -196.5 68.5
t-84.5 183.5q-3 44 8 107l41 260q10 58 25 100.5t45 88.5q54 84 136.5 127t180.5 43q200 0 269 -185l2 -7l88 64l-2 5q-39 110 -128 167t-215 57q-195 0 -329.5 -127t-165.5 -322l-4 -27h1z" />
    <glyph glyph-name="Ccaron" unicode="&#x10c;" horiz-adv-x="1278" 
d="M654 2095l222 -367h70l335 367h-113l-241 -258l-158 258h-115zM196 685q-16 -87 -12 -173.5t20.5 -165t56 -145.5t93.5 -116.5t134.5 -77.5t177.5 -28q184 0 328.5 91t245.5 261l3 4l-74 54l-4 -7q-177 -304 -483 -304q-83 0 -150.5 24t-112.5 66.5t-77 100.5
t-44.5 125.5t-15.5 141.5t11 149l38 237q15 93 45.5 179t80.5 164t114.5 135.5t152 91.5t187.5 34q306 0 387 -304l1 -7l92 56l-1 4q-48 169 -164 260t-299 91q-175 0 -321.5 -89.5t-244.5 -250.5q-95 -156 -127 -366z" />
    <glyph glyph-name="ccaron" unicode="&#x10d;" horiz-adv-x="981" 
d="M438 1650l219 -365h71l332 365h-113l-237 -256l-159 256h-113zM198 686l-39 -247q-24 -144 13 -242q80 -216 340 -216q124 0 231 57.5t179 166.5l4 5l-68 64l-4 -7q-126 -184 -327 -184q-120 0 -196.5 68.5t-84.5 183.5q-3 44 8 107l41 260q10 58 25 100.5t45 88.5
q54 84 136.5 127t180.5 43q200 0 269 -185l2 -7l88 64l-2 5q-39 110 -128 167t-215 57q-195 0 -329.5 -127t-165.5 -322l-4 -27h1z" />
    <glyph glyph-name="Dcaron" unicode="&#x10e;" horiz-adv-x="1281" 
d="M880 1728h71l334 367h-112l-241 -258l-158 258h-115zM342 1605l-254 -1605h6q519 3 521 3q141 0 263 58t207 155.5t140.5 218t76.5 253.5l36 228q14 108 9.5 208.5t-40.5 188t-93 152.5t-149 102.5t-208 37.5h-515zM617 99q-3 0 -411 3l220 1406h408q81 0 169 -31
q81 -31 136.5 -90.5t79.5 -133t31 -160.5t-10 -174l-37 -231q-19 -119 -65 -222.5t-117.5 -187t-175.5 -131.5t-228 -48z" />
    <glyph glyph-name="dcaron" unicode="&#x10f;" horiz-adv-x="1387" 
d="M1352 1297q78 38 128.5 102.5t63.5 145.5q20 127 -79 127q-35 0 -60.5 -20.5t-30.5 -55.5q-5 -31 13 -55t49 -24q11 0 18 2q-9 -30 -31.5 -62.5t-47.5 -51.5q-39 -28 -104 -34l-16 -2l94 -74zM1103 1593l-91 -579q-101 149 -313 149q-198 0 -332 -125t-166 -323l-45 -288
q-31 -193 66 -318.5t290 -125.5q211 0 360 150l-21 -133h95l252 1593h-95zM963 707l-42 -267q-6 -37 -27 -94q-48 -124 -143.5 -193t-222.5 -69q-120 0 -197 69t-84 185q-2 39 7 106l42 260q25 159 127.5 259t259.5 100q120 0 192.5 -61t87.5 -175q9 -64 0 -120z" />
    <glyph glyph-name="Emacron" unicode="&#x112;" horiz-adv-x="1165" 
d="M542 1890l-14 -89h681l14 89h-681zM342 1605l-254 -1605l989 3l16 99h-887l113 710h632l19 101h-638l94 595h890l15 97h-989z" />
    <glyph glyph-name="emacron" unicode="&#x113;" horiz-adv-x="1026" 
d="M390 1356h676l14 90h-676zM173 202q80 -216 340 -216q125 0 231.5 57.5t178.5 166.5l4 5l-68 63l-4 -6q-127 -185 -327 -185q-120 0 -197 68.5t-84 183.5q-3 40 8 108l22 142h754l1 6q24 151 26 181q5 99 -20 175q-74 211 -338 211q-204 0 -335.5 -123.5t-163.5 -326.5
l-42 -268q-22 -147 14 -242zM952 687h-659q11 71 25 114.5t48 94.5q54 84 136.5 127t180.5 43q119 0 196 -69t84 -184q1 -49 -8 -106z" />
    <glyph glyph-name="Ebreve" unicode="&#x114;" horiz-adv-x="1165" 
d="M655 1806q65 -78 202 -78t226 77t111 213l4 30h-92l-1 -6q-9 -59 -24.5 -96t-54.5 -72q-62 -53 -155 -53q-92 0 -138 53t-31 144q0 4 2 12t2 12l1 6h-91l-1 -6q-8 -51 -8.5 -86.5t10.5 -77t38 -72.5zM342 1605l-254 -1605l989 3l16 99h-887l113 710h632l19 101h-638
l94 595h890l15 97h-989z" />
    <glyph glyph-name="ebreve" unicode="&#x115;" horiz-adv-x="1026" 
d="M516 1361q64 -76 201 -76q135 0 224 76.5t110 210.5l3 25l1 6h-91l-1 -6q-10 -61 -25 -97.5t-54 -70.5q-61 -53 -153 -53t-137.5 53t-31.5 143q0 4 2 12.5t3 12.5l1 6h-90l-1 -6q-14 -63 -7.5 -126t46.5 -110zM173 202q80 -216 340 -216q125 0 231.5 57.5t178.5 166.5
l4 5l-68 63l-4 -6q-127 -185 -327 -185q-120 0 -197 68.5t-84 183.5q-3 40 8 108l22 142h754l1 6q24 151 26 181q5 99 -20 175q-74 211 -338 211q-204 0 -335.5 -123.5t-163.5 -326.5l-42 -268q-22 -147 14 -242zM952 687h-659q11 71 25 114.5t48 94.5q54 84 136.5 127
t180.5 43q119 0 196 -69t84 -184q1 -49 -8 -106z" />
    <glyph glyph-name="Edotaccent" unicode="&#x116;" horiz-adv-x="1165" 
d="M800 1856q-5 -33 13 -55t52 -22q36 0 59.5 20.5t29.5 56.5t-11.5 56.5t-53.5 20.5q-76 0 -89 -77zM342 1605l-254 -1605l989 3l16 99h-887l113 710h632l19 101h-638l94 595h890l15 97h-989z" />
    <glyph glyph-name="edotaccent" unicode="&#x117;" horiz-adv-x="1026" 
d="M660 1412q-5 -34 12.5 -55.5t51.5 -21.5q77 0 90 77q5 35 -12 55.5t-53 20.5q-78 0 -89 -76zM173 202q80 -216 340 -216q125 0 231.5 57.5t178.5 166.5l4 5l-68 63l-4 -6q-127 -185 -327 -185q-120 0 -197 68.5t-84 183.5q-3 40 8 108l22 142h754l1 6q24 151 26 181
q5 99 -20 175q-74 211 -338 211q-204 0 -335.5 -123.5t-163.5 -326.5l-42 -268q-22 -147 14 -242zM952 687h-659q11 71 25 114.5t48 94.5q54 84 136.5 127t180.5 43q119 0 196 -69t84 -184q1 -49 -8 -106z" />
    <glyph glyph-name="Eogonek" unicode="&#x118;" horiz-adv-x="1165" 
d="M426 1508h890l15 97h-989l-254 -1605l412 1q-17 -10 -61 -40q-28 -21 -34 -27q-92 -74 -107 -176q-16 -97 37.5 -147.5t151.5 -50.5q70 0 106 11t105 49l5 3l-30 89l-6 -5q-74 -58 -166 -58q-57 0 -87.5 28t-21.5 81q10 65 77 120t147 89q60 26 74 32l3 2q2 0 3 1l381 1
l16 99h-887l113 710h632l19 101h-638z" />
    <glyph glyph-name="eogonek" unicode="&#x119;" horiz-adv-x="1026" 
d="M239 -241q-15 -95 37.5 -145.5t150.5 -50.5q68 0 105 11t104 49l6 3l-30 88l-7 -5q-73 -57 -164 -57q-56 0 -86.5 27t-21.5 80q12 79 121 153q58 38 135 71q1 0 18 7l17 7q8 3 34.5 11t40.5 14q138 57 224 188l4 5l-68 63l-4 -6q-127 -185 -327 -185q-120 0 -197 68.5
t-84 183.5q-3 40 8 108l22 142h754l1 6q24 151 26 181q7 95 -20 175q-74 211 -338 211q-204 0 -335.5 -123.5t-163.5 -326.5l-42 -268q-23 -147 14 -242q33 -85 97 -139t155 -70q-164 -97 -186 -234zM952 687h-659q11 71 25 114.5t48 94.5q54 84 136.5 127t180.5 43
q119 0 196 -69t84 -184q1 -49 -8 -106z" />
    <glyph glyph-name="Ecaron" unicode="&#x11a;" horiz-adv-x="1165" 
d="M601 2095l222 -367h70l336 367h-114l-240 -258l-159 258h-115zM342 1605l-254 -1605l989 3l16 99h-887l113 710h632l19 101h-638l94 595h890l15 97h-989z" />
    <glyph glyph-name="ecaron" unicode="&#x11b;" horiz-adv-x="1026" 
d="M683 1285h70l332 365h-112l-238 -256l-159 256h-113zM173 202q80 -216 340 -216q125 0 231.5 57.5t178.5 166.5l4 5l-68 63l-4 -6q-127 -185 -327 -185q-120 0 -197 68.5t-84 183.5q-3 40 8 108l22 142h754l1 6q24 151 26 181q5 99 -20 175q-74 211 -338 211
q-204 0 -335.5 -123.5t-163.5 -326.5l-42 -268q-22 -147 14 -242zM952 687h-659q11 71 25 114.5t48 94.5q54 84 136.5 127t180.5 43q119 0 196 -69t84 -184q1 -49 -8 -106z" />
    <glyph glyph-name="Gcircumflex" unicode="&#x11c;" horiz-adv-x="1278" 
d="M904 2095l-337 -367h115l240 258l159 -258h113l-220 367h-70zM196 685q-16 -87 -12 -173.5t20.5 -165t56 -145.5t93.5 -116.5t134.5 -77.5t177.5 -28h1q300 0 502 248q22 29 32 42q3 4 9.5 13.5t9.5 13.5q5 6 6 10q2 2 2 4l2 4l91 577h-532l-15 -93h439l-72 -454
q-1 -1 -1 -3l-7 -10q-13 -18 -19 -25q-6 -8 -13 -16.5t-12 -15t-6 -7.5q-162 -189 -401 -189q-83 0 -150.5 24t-112.5 66.5t-77 100.5t-44.5 125.5t-15.5 141.5t11 149l38 237q15 93 45.5 179t80.5 164t114.5 135.5t152 91.5t187.5 34q306 0 387 -304l1 -7l92 56l-1 4
q-48 169 -164 260t-299 91q-175 0 -321.5 -89.5t-244.5 -250.5q-95 -156 -127 -366z" />
    <glyph glyph-name="gcircumflex" unicode="&#x11d;" horiz-adv-x="1035" 
d="M382 1285h113l239 255l157 -255h113l-218 365h-71zM91 -121q15 -152 109.5 -235t252.5 -83q126 0 236 58.5t178 168.5q63 103 86 250l177 1124h-98l-24 -143q-100 144 -309 144q-198 0 -332 -125t-166 -323l-45 -288q-31 -193 66 -318.5t290 -125.5q209 0 355 145
q-3 -17 -8.5 -54.5t-8.5 -57.5q-13 -68 -32 -116q-48 -122 -168 -193q-81 -46 -182 -46q-127 0 -198 67t-85 192l-1 7l-94 -44zM874 300q-54 -105 -143.5 -160.5t-202.5 -55.5q-121 0 -198 69t-83 185q-2 39 7 106l42 260q25 159 127.5 259t259.5 100q113 0 185 -55.5
t92 -161.5q11 -62 8 -85l-60 -376q-2 -18 -34 -85z" />
    <glyph glyph-name="Gbreve" unicode="&#x11e;" horiz-adv-x="1278" 
d="M708 1806q65 -78 201 -78q138 0 227 77t111 213l4 30h-92l-1 -6q-9 -59 -24.5 -96t-54.5 -72q-62 -53 -156 -53q-92 0 -137.5 53t-30.5 144q1 4 2 12t2 12l1 6h-91l-1 -6q-8 -51 -8.5 -86.5t10.5 -77t38 -72.5zM196 685q-16 -87 -12 -173.5t20.5 -165t56 -145.5
t93.5 -116.5t134.5 -77.5t177.5 -28h1q300 0 502 248q22 29 32 42q3 4 9.5 13.5t9.5 13.5q5 6 6 10q2 2 2 4l2 4l91 577h-532l-15 -93h439l-72 -454q-1 -1 -1 -3l-7 -10q-13 -18 -19 -25q-6 -8 -13 -16.5t-12 -15t-6 -7.5q-162 -189 -401 -189q-83 0 -150.5 24t-112.5 66.5
t-77 100.5t-44.5 125.5t-15.5 141.5t11 149l38 237q15 93 45.5 179t80.5 164t114.5 135.5t152 91.5t187.5 34q306 0 387 -304l1 -7l92 56l-1 4q-48 169 -164 260t-299 91q-175 0 -321.5 -89.5t-244.5 -250.5q-95 -156 -127 -366z" />
    <glyph glyph-name="gbreve" unicode="&#x11f;" horiz-adv-x="1035" 
d="M521 1361q64 -76 201 -76q136 0 224.5 76.5t109.5 210.5l3 25l1 6h-91l-1 -6q-10 -60 -25.5 -97.5t-53.5 -70.5q-61 -53 -153 -53t-137.5 53t-31.5 143q1 4 3 12.5t2 12.5l1 6h-90l-1 -6q-14 -63 -7.5 -126t46.5 -110zM91 -121q15 -152 109.5 -235t252.5 -83
q126 0 236 58.5t178 168.5q63 103 86 250l177 1124h-98l-24 -143q-100 144 -309 144q-198 0 -332 -125t-166 -323l-45 -288q-31 -193 66 -318.5t290 -125.5q209 0 355 145q-3 -17 -8.5 -54.5t-8.5 -57.5q-13 -68 -32 -116q-48 -122 -168 -193q-81 -46 -182 -46
q-127 0 -198 67t-85 192l-1 7l-94 -44zM874 300q-54 -105 -143.5 -160.5t-202.5 -55.5q-121 0 -198 69t-83 185q-2 39 7 106l42 260q25 159 127.5 259t259.5 100q113 0 185 -55.5t92 -161.5q11 -62 8 -85l-60 -376q-2 -18 -34 -85z" />
    <glyph glyph-name="Gdotaccent" unicode="&#x120;" horiz-adv-x="1278" 
d="M853 1856q-5 -33 13 -55t51 -22q37 0 60.5 20.5t29.5 56.5t-12 56.5t-54 20.5q-75 0 -88 -77zM196 685q-16 -87 -12 -173.5t20.5 -165t56 -145.5t93.5 -116.5t134.5 -77.5t177.5 -28h1q300 0 502 248q22 29 32 42q3 4 9.5 13.5t9.5 13.5q5 6 6 10q2 2 2 4l2 4l91 577
h-532l-15 -93h439l-72 -454q-1 -1 -1 -3l-7 -10q-13 -18 -19 -25q-6 -8 -13 -16.5t-12 -15t-6 -7.5q-162 -189 -401 -189q-83 0 -150.5 24t-112.5 66.5t-77 100.5t-44.5 125.5t-15.5 141.5t11 149l38 237q15 93 45.5 179t80.5 164t114.5 135.5t152 91.5t187.5 34
q306 0 387 -304l1 -7l92 56l-1 4q-48 169 -164 260t-299 91q-175 0 -321.5 -89.5t-244.5 -250.5q-95 -156 -127 -366z" />
    <glyph glyph-name="gdotaccent" unicode="&#x121;" horiz-adv-x="1035" 
d="M665 1412q-6 -34 11.5 -55.5t52.5 -21.5q77 0 90 77q5 35 -12.5 55.5t-52.5 20.5q-78 0 -89 -76zM91 -121q15 -152 109.5 -235t252.5 -83q126 0 236 58.5t178 168.5q63 103 86 250l177 1124h-98l-24 -143q-100 144 -309 144q-198 0 -332 -125t-166 -323l-45 -288
q-31 -193 66 -318.5t290 -125.5q209 0 355 145q-3 -17 -8.5 -54.5t-8.5 -57.5q-13 -68 -32 -116q-48 -122 -168 -193q-81 -46 -182 -46q-127 0 -198 67t-85 192l-1 7l-94 -44zM874 300q-54 -105 -143.5 -160.5t-202.5 -55.5q-121 0 -198 69t-83 185q-2 39 7 106l42 260
q25 159 127.5 259t259.5 100q113 0 185 -55.5t92 -161.5q11 -62 8 -85l-60 -376q-2 -18 -34 -85z" />
    <glyph glyph-name="Hcircumflex" unicode="&#x124;" horiz-adv-x="1167" 
d="M851 2095l-336 -367h114l241 258l158 -258h113l-219 367h-71zM342 1605l-254 -1605h102l129 812h788l-129 -812h101l254 1605h-99l-109 -692h-793l109 692h-99z" />
    <glyph glyph-name="hcircumflex" unicode="&#x125;" horiz-adv-x="1035" 
d="M714 1650l-326 -357l47 297h-95l-252 -1590h95l1 6l111 701q5 34 28 98q49 123 143 190.5t221 67.5q122 0 198.5 -68.5t83.5 -185.5q2 -39 -7 -105l-112 -702l95 -3l1 6q19 119 57.5 358t57.5 359q30 193 -67 317t-291 124q-213 0 -359 -149l43 271h107l239 255l157 -255
h113l-218 365h-71z" />
    <glyph glyph-name="Hbar" unicode="&#x126;" horiz-adv-x="1167" 
d="M543 1890l-14 -89h681l14 89h-681zM342 1605l-254 -1605h102l129 812h788l-129 -812h101l254 1605h-99l-109 -692h-793l109 692h-99z" />
    <glyph glyph-name="hbar" unicode="&#x127;" horiz-adv-x="1035" 
d="M340 1590l-252 -1590h95l1 6l111 701q5 34 28 98q49 123 143 190.5t221 67.5q122 0 198.5 -68.5t83.5 -185.5q2 -39 -7 -105l-112 -702l95 -3l1 6q19 119 57.5 358t57.5 359q30 193 -67 317t-291 124q-213 0 -359 -149l54 342h672l14 90h-672l23 144h-95z" />
    <glyph glyph-name="Itilde" unicode="&#x128;" horiz-adv-x="275" 
d="M130 1826q-1 -4 -3.5 -11.5t-3.5 -11.5l-3 -7h96l2 5q4 11 11 31t11 31q9 28 30 59q18 23 52 23q22 0 33 -6q17 -10 35 -38q3 -3 3 -5q1 -1 4 -7q40 -53 64 -68q33 -23 81 -23q128 0 191 160q5 11 11.5 32t8.5 28q1 4 3.5 11.5t3.5 11.5l2 7h-93l-1 -5q-3 -8 -11 -29.5
t-12 -32.5q-15 -36 -32 -59t-55 -23q-15 0 -32.5 11t-28.5 24q-3 6 -4 7l-3 9q-2 2 -3 4q0 1 -2 3q-2 1 -3 3t-2 3q-46 83 -139 83q-129 0 -191 -160q-4 -9 -20 -60zM338 1605l-254 -1605h102l251 1605h-99z" />
    <glyph glyph-name="itilde" unicode="&#x129;" horiz-adv-x="331" 
d="M89 1379l-9 -31h95l1 5q4 10 11 31t11 32q13 35 31 59q16 21 50 21q23 0 35 -8.5t28 -29.5q4 -5 13.5 -18.5t15.5 -20.5q12 -16 33 -35q41 -34 94 -34q129 0 189 159q4 12 10.5 32.5t9.5 28.5q1 4 3.5 11.5t3.5 11.5l2 7h-92l-1 -5q-32 -91 -56 -121q-17 -22 -53 -22
q-16 0 -34.5 11.5t-28.5 25.5l-3 5q0 2 -1 2q0 1 -0.5 2.5t-0.5 2.5q-2 2 -3 4q0 1 -2 3q-3 2 -5 7q-47 83 -138 83q-127 0 -189 -159q-5 -11 -11.5 -32t-8.5 -28zM297 1161l-184 -1161h99l184 1161h-99z" />
    <glyph glyph-name="Imacron" unicode="&#x12a;" horiz-adv-x="265" 
d="M91 1890l-14 -89h681l14 89h-681zM336 1605l-254 -1605h102l251 1605h-99z" />
    <glyph glyph-name="imacron" unicode="&#x12b;" horiz-adv-x="321" 
d="M51 1446l-14 -90h676l14 90h-676zM295 1161l-184 -1161h99l184 1161h-99z" />
    <glyph glyph-name="Iogonek" unicode="&#x12e;" horiz-adv-x="278" 
d="M-247 -252q-15 -98 37.5 -148t151.5 -50q68 0 106.5 11.5t104.5 48.5l6 3l-30 89l-7 -5q-72 -58 -166 -58q-56 0 -86.5 27.5t-21.5 81.5q13 84 134 162q38 25 107 56q32 15 97 42l7 3l-1 5l-1 2q-1 3 -1 5l-2 4l247 1578h-99l-246 -1552q-96 -34 -163 -80
q-5 -4 -16 -11.5t-16 -10.5q-5 -4 -17 -12q-9 -5 -16 -11q-92 -74 -109 -180z" />
    <glyph glyph-name="iogonek" unicode="&#x12f;" horiz-adv-x="332" 
d="M319 1512q-5 -33 15.5 -56.5t53.5 -23.5q34 0 60.5 23.5t31.5 56.5q6 34 -13.5 57.5t-53.5 23.5t-61 -23.5t-33 -57.5zM183 -384l-30 89l-7 -5q-74 -58 -165 -58q-55 0 -85 27.5t-22 80.5q13 80 120 152q38 24 111.5 60.5t98.5 37.5h6l184 1161h-99l-175 -1106
q-58 -21 -109 -47t-102 -63.5t-85.5 -87.5t-43.5 -107q-15 -97 37 -147t150 -50q68 0 106 11.5t105 48.5zM184 30h3l1 -6l-5 2q0 2 1 3v1z" />
    <glyph glyph-name="Idotaccent" unicode="&#x130;" horiz-adv-x="277" 
d="M355 1856q-5 -32 13.5 -54.5t52.5 -22.5q76 0 89 77q6 36 -11 56.5t-54 20.5q-77 0 -90 -77zM342 1605l-254 -1605h102l251 1605h-99z" />
    <glyph glyph-name="dotlessi" unicode="&#x131;" horiz-adv-x="339" 
d="M304 1161l-184 -1161h99l184 1161h-99z" />
    <glyph glyph-name="Nacute" unicode="&#x143;" horiz-adv-x="1177" 
d="M811 1728l283 377h-111l-278 -377h106zM348 1578l-250 -1578h102l217 1383l574 -1365l-3 -18h101l254 1605h-99l-220 -1379l-580 1379h-102l2 -8l2 -10q2 -5 1 -7l1 -1v-1z" />
    <glyph glyph-name="nacute" unicode="&#x144;" horiz-adv-x="1035" 
d="M837 1658l-277 -373h105l282 373h-110zM272 1159l-184 -1159h95l1 6l111 701q5 34 28 98q49 123 143 190.5t221 67.5q122 0 198.5 -68.5t83.5 -185.5q2 -39 -7 -105l-112 -702l95 -3l1 6q19 119 57.5 358t57.5 359q30 193 -67 317t-291 124q-213 0 -359 -149l23 145h-95z
" />
    <glyph glyph-name="Ncaron" unicode="&#x147;" horiz-adv-x="1177" 
d="M833 1728h70l335 367h-113l-240 -258l-159 258h-115zM348 1578l-250 -1578h102l217 1383l574 -1365l-3 -18h101l254 1605h-99l-220 -1379l-580 1379h-102l2 -8l2 -10q2 -5 1 -7l1 -1v-1z" />
    <glyph glyph-name="ncaron" unicode="&#x148;" horiz-adv-x="1035" 
d="M467 1650l220 -365h70l332 365h-113l-237 -256l-159 256h-113zM272 1159l-184 -1159h95l1 6l111 701q5 34 28 98q49 123 143 190.5t221 67.5q122 0 198.5 -68.5t83.5 -185.5q2 -39 -7 -105l-112 -702l95 -3l1 6q19 119 57.5 358t57.5 359q30 193 -67 317t-291 124
q-213 0 -359 -149l23 145h-95z" />
    <glyph glyph-name="napostrophe" unicode="&#x149;" horiz-adv-x="1035" 
d="M272 1159l-184 -1159h95l1 6l111 701q5 34 28 98q49 123 143 190.5t221 67.5q122 0 198.5 -68.5t83.5 -185.5q2 -39 -7 -105l-112 -702l95 -3l1 6q19 119 57.5 358t57.5 359q30 193 -67 317t-291 124q-213 0 -359 -149l23 145h-95z" />
    <glyph glyph-name="Omacron" unicode="&#x14c;" 
d="M614 1801h681l14 89h-681zM196 685q-16 -87 -12 -173.5t20.5 -165t56 -145.5t93.5 -116.5t134.5 -77.5t177.5 -28q119 0 223 39t181.5 106t138 157.5t97.5 191.5t54 211l38 235q17 89 13 176t-19.5 165.5t-55 145.5t-93.5 116t-135.5 76.5t-180.5 27.5q-175 0 -321 -89.5
t-245 -249.5q-95 -158 -127 -367zM1262 684q-15 -94 -45 -180t-80 -164.5t-114 -136t-152 -91.5t-189 -34q-83 0 -150.5 24t-112.5 66.5t-77 100.5t-44.5 125.5t-15.5 141.5t11 149l38 237q15 93 45.5 179t80.5 164t114.5 135.5t152 91.5t187.5 34q150 0 248 -74.5
t134 -212.5q36 -137 7 -318z" />
    <glyph glyph-name="omacron" unicode="&#x14d;" horiz-adv-x="1027" 
d="M1081 1446h-676l-14 -90h676zM198 688l-42 -261q-21 -128 17 -228q77 -211 340 -211q204 0 333 124t162 329l39 247h1l4 28q32 197 -61 320t-290 123q-201 0 -334.5 -122t-165.5 -322l-4 -27h1zM955 704l-42 -260q-25 -158 -127.5 -259t-258.5 -101q-121 0 -197 69
t-83 185q-3 35 7 106l42 260q25 159 127 259t259 100q121 0 197 -69t83 -185q2 -39 -7 -105z" />
    <glyph glyph-name="Obreve" unicode="&#x14e;" 
d="M743 1806q65 -78 201 -78q137 0 225.5 77t110.5 213l4 30h-90l-1 -6q-9 -59 -24.5 -96.5t-54.5 -71.5q-61 -53 -156 -53q-92 0 -137.5 53t-30.5 144q0 4 1.5 12t2.5 12l1 6h-92l-1 -6q-14 -62 -6 -126t47 -110zM196 685q-16 -87 -12 -173.5t20.5 -165t56 -145.5
t93.5 -116.5t134.5 -77.5t177.5 -28q119 0 223 39t181.5 106t138 157.5t97.5 191.5t54 211l38 235q17 89 13 176t-19.5 165.5t-55 145.5t-93.5 116t-135.5 76.5t-180.5 27.5q-175 0 -321 -89.5t-245 -249.5q-95 -158 -127 -367zM1262 684q-15 -94 -45 -180t-80 -164.5
t-114 -136t-152 -91.5t-189 -34q-83 0 -150.5 24t-112.5 66.5t-77 100.5t-44.5 125.5t-15.5 141.5t11 149l38 237q15 93 45.5 179t80.5 164t114.5 135.5t152 91.5t187.5 34q150 0 248 -74.5t134 -212.5q36 -137 7 -318z" />
    <glyph glyph-name="obreve" unicode="&#x14f;" horiz-adv-x="1027" 
d="M517 1361q64 -76 201 -76q136 0 224.5 76.5t109.5 210.5l3 25l1 6h-91l-1 -6q-10 -61 -25 -97.5t-54 -70.5q-61 -53 -153 -53t-137.5 53t-31.5 143q1 4 3 12.5t2 12.5l1 6h-90l-1 -6q-14 -63 -7.5 -126t46.5 -110zM198 688l-42 -261q-21 -128 17 -228q77 -211 340 -211
q204 0 333 124t162 329l39 247h1l4 28q32 197 -61 320t-290 123q-201 0 -334.5 -122t-165.5 -322l-4 -27h1zM955 704l-42 -260q-25 -158 -127.5 -259t-258.5 -101q-121 0 -197 69t-83 185q-3 35 7 106l42 260q25 159 127 259t259 100q121 0 197 -69t83 -185q2 -39 -7 -105z
" />
    <glyph glyph-name="Ohungarumlaut" unicode="&#x150;" 
d="M623 1745h106l284 377h-110zM904 1745h106l284 377h-110zM196 685q-16 -87 -12 -173.5t20.5 -165t56 -145.5t93.5 -116.5t134.5 -77.5t177.5 -28q119 0 223 39t181.5 106t138 157.5t97.5 191.5t54 211l38 235q17 89 13 176t-19.5 165.5t-55 145.5t-93.5 116t-135.5 76.5
t-180.5 27.5q-175 0 -321 -89.5t-245 -249.5q-95 -158 -127 -367zM1262 684q-15 -94 -45 -180t-80 -164.5t-114 -136t-152 -91.5t-189 -34q-83 0 -150.5 24t-112.5 66.5t-77 100.5t-44.5 125.5t-15.5 141.5t11 149l38 237q15 93 45.5 179t80.5 164t114.5 135.5t152 91.5
t187.5 34q150 0 248 -74.5t134 -212.5q36 -137 7 -318z" />
    <glyph glyph-name="ohungarumlaut" unicode="&#x151;" horiz-adv-x="1027" 
d="M786 1675h-110l-277 -373h105zM784 1302l282 373h-111l-276 -373h105zM198 688l-42 -261q-21 -128 17 -228q77 -211 340 -211q204 0 333 124t162 329l39 247h1l4 28q32 197 -61 320t-290 123q-201 0 -334.5 -122t-165.5 -322l-4 -27h1zM955 704l-42 -260
q-25 -158 -127.5 -259t-258.5 -101q-121 0 -197 69t-83 185q-3 35 7 106l42 260q25 159 127 259t259 100q121 0 197 -69t83 -185q2 -39 -7 -105z" />
    <glyph glyph-name="OE" unicode="&#x152;" horiz-adv-x="2215" 
d="M196 685q-16 -87 -12 -173.5t20.5 -165t56 -145.5t93.5 -116.5t134.5 -77.5t177.5 -28q157 0 291 70.5t232 203.5l-40 -253l990 3l16 99h-887l113 710h631l19 101h-634l1 6q2 11 4.5 38.5t5.5 43.5l80 507h890l15 97h-990l-40 -256q-57 135 -167.5 206t-268.5 71
q-175 0 -321.5 -89.5t-244.5 -250.5q-95 -156 -127 -366zM1195 451q-75 -174 -205.5 -273.5t-307.5 -99.5q-83 0 -150.5 24t-112.5 66.5t-77 100.5t-44.5 125.5t-15.5 141.5t11 149l38 237q15 93 45.5 179t80.5 164t114.5 135.5t152 91.5t187.5 34q150 0 248.5 -74.5
t133.5 -212.5q18 -66 18 -174q0 -5 0.5 -13t0.5 -12q0 -14 -2 -23l-68 -430q-6 -41 -47 -136z" />
    <glyph glyph-name="oe" unicode="&#x153;" horiz-adv-x="1747" 
d="M198 688l-42 -261q-21 -128 17 -228q77 -211 340 -211q269 0 411 221q37 -110 127 -167t217 -57q124 0 231 58t178 167l4 5l-67 62l-4 -5q-128 -185 -327 -185q-120 0 -199 69t-83 183q-2 40 9 108l22 142h753l1 6q24 147 26 181q5 101 -20 175q-38 105 -126 158t-211 53
q-276 0 -415 -220q-36 109 -124 163t-215 54q-201 0 -334.5 -122t-165.5 -322l-4 -27h1zM1707 687h-659q11 70 25 114t47 95q54 82 138 126t180 44q118 0 195.5 -69.5t84.5 -183.5q1 -49 -8 -106zM913 444q-25 -158 -127.5 -259t-258.5 -101q-121 0 -197 69t-83 185
q-3 35 7 106l42 260q25 159 127 259t259 100q121 0 197 -69t83 -185q2 -39 -7 -105z" />
    <glyph glyph-name="Rcaron" unicode="&#x158;" horiz-adv-x="1279" 
d="M879 1728h70l335 367h-113l-241 -258l-158 258h-115zM940 823q84 14 155 43t130 75t97.5 114t52.5 153q14 88 -5.5 157t-62.5 113.5t-108 73.5t-136 41t-152 12h-569l-254 -1605h102l128 812h468q31 0 46 1l250 -813h109zM801 908h-468l93 600h470q289 0 359 -144
q34 -73 21 -156q-14 -86 -60.5 -147t-115.5 -93t-142 -46t-157 -14z" />
    <glyph glyph-name="rcaron" unicode="&#x159;" horiz-adv-x="848" 
d="M370 1650l220 -365h71l331 365h-112l-238 -256l-157 256h-115zM272 1159l-184 -1159h95l1 6l111 701q8 50 37 117q50 115 142 177t213 62q99 0 184 -55l5 -4l58 93l-5 3q-99 63 -226 63q-213 0 -359 -149l23 145h-95z" />
    <glyph glyph-name="Sacute" unicode="&#x15a;" horiz-adv-x="1224" 
d="M1002 2105l-278 -377h106l283 377h-111zM145 352q25 -183 148 -278t319 -95q98 0 189.5 24.5t170 73t132.5 129t70 182.5q14 79 -4 150q-28 122 -158 204q-53 33 -124 59q-14 6 -127 47q-67 24 -133 56.5t-131.5 86t-83.5 106.5q-21 57 -10 131q16 97 83 166.5t169 107.5
q86 33 199 33q125 0 219.5 -48.5t135.5 -148.5q14 -34 22 -76q2 -25 3 -29q0 -3 2 -9l3 -9l2 -7l94 48v4q-17 184 -144 280.5t-324 96.5q-100 0 -192 -26t-170 -76t-132 -132t-70 -185q-35 -218 160 -340q88 -56 254 -118q149 -55 228 -104q159 -96 131 -268
q-12 -77 -56 -137.5t-107 -96.5t-135 -54.5t-147 -18.5q-161 0 -270 78t-114 226v2l-14 17l-88 -47v-5z" />
    <glyph glyph-name="sacute" unicode="&#x15b;" horiz-adv-x="1088" 
d="M866 1658l-278 -373h106l281 373h-109zM196 108q114 -129 348 -129q232 0 381 123q83 67 101 180q22 146 -112 230q-45 29 -128 58q-23 8 -130 39q-92 25 -184 68q-1 1 -14.5 7.5t-14.5 7.5q-33 22 -62 48q-54 52 -42 122q9 61 62 107q17 15 48 32q107 61 268 61
q129 0 224 -52q94 -53 108 -172l1 -7l88 41v4q-3 73 -41 129.5t-98.5 88.5t-128.5 48t-140 16q-60 0 -119.5 -9t-122 -31.5t-111.5 -56t-85 -87t-47 -120.5q-12 -83 21 -141q8 -14 32 -38q36 -38 94.5 -69.5t105 -48t116.5 -36.5q50 -14 83.5 -25t86.5 -32.5t88.5 -47.5
t49.5 -55q19 -40 11 -87q-9 -59 -63 -108q-8 -7 -40 -27q-112 -64 -278 -64q-84 0 -153 20t-119.5 72t-54.5 131l-1 8l-94 -42v-5q6 -55 24 -92q12 -23 42 -59z" />
    <glyph glyph-name="Scircumflex" unicode="&#x15c;" horiz-adv-x="1224" 
d="M880 2095l-338 -367h115l241 258l158 -258h114l-220 367h-70zM145 352q25 -183 148 -278t319 -95q98 0 189.5 24.5t170 73t132.5 129t70 182.5q14 79 -4 150q-28 122 -158 204q-53 33 -124 59q-14 6 -127 47q-67 24 -133 56.5t-131.5 86t-83.5 106.5q-21 57 -10 131
q16 97 83 166.5t169 107.5q86 33 199 33q125 0 219.5 -48.5t135.5 -148.5q14 -34 22 -76q2 -25 3 -29q0 -3 2 -9l3 -9l2 -7l94 48v4q-17 184 -144 280.5t-324 96.5q-100 0 -192 -26t-170 -76t-132 -132t-70 -185q-35 -218 160 -340q88 -56 254 -118q149 -55 228 -104
q159 -96 131 -268q-12 -77 -56 -137.5t-107 -96.5t-135 -54.5t-147 -18.5q-161 0 -270 78t-114 226v2l-14 17l-88 -47v-5z" />
    <glyph glyph-name="scircumflex" unicode="&#x15d;" horiz-adv-x="1088" 
d="M743 1650l-334 -365h113l239 255l158 -255h112l-218 365h-70zM196 108q114 -129 348 -129q232 0 381 123q83 67 101 180q22 146 -112 230q-45 29 -128 58q-23 8 -130 39q-92 25 -184 68q-1 1 -14.5 7.5t-14.5 7.5q-33 22 -62 48q-54 52 -42 122q9 61 62 107q17 15 48 32
q107 61 268 61q129 0 224 -52q94 -53 108 -172l1 -7l88 41v4q-3 73 -41 129.5t-98.5 88.5t-128.5 48t-140 16q-60 0 -119.5 -9t-122 -31.5t-111.5 -56t-85 -87t-47 -120.5q-12 -83 21 -141q8 -14 32 -38q36 -38 94.5 -69.5t105 -48t116.5 -36.5q50 -14 83.5 -25t86.5 -32.5
t88.5 -47.5t49.5 -55q19 -40 11 -87q-9 -59 -63 -108q-8 -7 -40 -27q-112 -64 -278 -64q-84 0 -153 20t-119.5 72t-54.5 131l-1 8l-94 -42v-5q6 -55 24 -92q12 -23 42 -59z" />
    <glyph glyph-name="Scedilla" unicode="&#x15e;" horiz-adv-x="1224" 
d="M330 -331q37 -65 86.5 -90.5t131.5 -25.5q99 0 169 56t85 153q22 133 -91 223q177 21 306.5 127t156.5 276q14 85 -6 154.5t-53 112.5t-101.5 83.5t-117 60t-135.5 49.5q-67 24 -133 56.5t-131.5 86t-83.5 106.5q-21 57 -10 131q16 97 83 167t169 107q86 33 199 33
q126 0 221 -49t135 -150q14 -37 22 -80l2 -23q0 -3 2 -9l3 -9l2 -7l94 48v4q-17 184 -144 280.5t-324 96.5q-100 0 -192 -26t-170 -76t-132 -132t-70 -185q-35 -218 160 -340q93 -58 254 -118q144 -53 228 -104q159 -96 131 -268q-12 -77 -56 -137.5t-107 -96.5t-135 -54.5
t-147 -18.5q-161 0 -270 78t-114 226v2l-14 17l-88 -47v-5q21 -164 124.5 -258.5t274.5 -111.5l6 -3l1 -1h2q0 -1 1 -1l42 -27q129 -85 113 -190q-9 -56 -49 -88t-98 -32q-107 0 -163 104l-3 8l-69 -79z" />
    <glyph glyph-name="scedilla" unicode="&#x15f;" horiz-adv-x="1088" 
d="M925 101q81 65 101 180q15 92 -26.5 151t-127.5 102q-40 20 -82 35q-26 9 -76 23t-58 16q-86 23 -176 65q-3 2 -17.5 8t-20.5 10q-39 28 -61 48q-54 49 -43 122q11 62 63 107q26 20 41 28q108 65 275 65q127 0 224 -52q92 -52 108 -172v-7l89 41v4q-3 73 -41 129.5
t-98.5 88.5t-128.5 48t-140 16q-60 0 -119.5 -9t-122 -31.5t-111.5 -56t-85 -87t-47 -120.5q-13 -81 21 -141q10 -16 26 -32q52 -57 132 -93t189 -67q51 -15 84 -25.5t87 -32t89 -47.5t49 -55q19 -41 11 -87q-9 -59 -63 -108q-18 -15 -44 -29q-112 -62 -274 -62
q-85 0 -153.5 20t-119 72t-54.5 131l-1 8l-94 -42v-5q7 -61 24 -92q8 -16 26 -38q73 -95 194 -129q20 -5 90 -17l4 -2q2 -1 3.5 -2.5t2.5 -1.5q1 -1 3.5 -2.5t3.5 -2.5q2 -2 6 -2l1 -1l4 -2q5 -5 13 -8l22 -14q4 -3 15.5 -10t17.5 -12q93 -79 79 -166q-9 -56 -48.5 -88
t-96.5 -32q-106 0 -161 104l-4 8l-69 -80l3 -4q37 -64 86.5 -89.5t131.5 -25.5q99 0 167 55t84 154q21 139 -98 226q169 18 291 117z" />
    <glyph glyph-name="Scaron" unicode="&#x160;" horiz-adv-x="1224" 
d="M631 2095l221 -367h70l336 367h-113l-241 -258l-158 258h-115zM145 352q25 -183 148 -278t319 -95q98 0 189.5 24.5t170 73t132.5 129t70 182.5q14 79 -4 150q-28 122 -158 204q-53 33 -124 59q-14 6 -127 47q-67 24 -133 56.5t-131.5 86t-83.5 106.5q-21 57 -10 131
q16 97 83 166.5t169 107.5q86 33 199 33q125 0 219.5 -48.5t135.5 -148.5q14 -34 22 -76q2 -25 3 -29q0 -3 2 -9l3 -9l2 -7l94 48v4q-17 184 -144 280.5t-324 96.5q-100 0 -192 -26t-170 -76t-132 -132t-70 -185q-35 -218 160 -340q88 -56 254 -118q149 -55 228 -104
q159 -96 131 -268q-12 -77 -56 -137.5t-107 -96.5t-135 -54.5t-147 -18.5q-161 0 -270 78t-114 226v2l-14 17l-88 -47v-5z" />
    <glyph glyph-name="scaron" unicode="&#x161;" horiz-adv-x="1088" 
d="M495 1650l220 -365h70l332 365h-112l-238 -256l-158 256h-114zM196 108q114 -129 348 -129q232 0 381 123q83 67 101 180q22 146 -112 230q-45 29 -128 58q-23 8 -130 39q-92 25 -184 68q-1 1 -14.5 7.5t-14.5 7.5q-33 22 -62 48q-54 52 -42 122q9 61 62 107q17 15 48 32
q107 61 268 61q129 0 224 -52q94 -53 108 -172l1 -7l88 41v4q-3 73 -41 129.5t-98.5 88.5t-128.5 48t-140 16q-60 0 -119.5 -9t-122 -31.5t-111.5 -56t-85 -87t-47 -120.5q-12 -83 21 -141q8 -14 32 -38q36 -38 94.5 -69.5t105 -48t116.5 -36.5q50 -14 83.5 -25t86.5 -32.5
t88.5 -47.5t49.5 -55q19 -40 11 -87q-9 -59 -63 -108q-8 -7 -40 -27q-112 -64 -278 -64q-84 0 -153 20t-119.5 72t-54.5 131l-1 8l-94 -42v-5q6 -55 24 -92q12 -23 42 -59z" />
    <glyph glyph-name="Tcaron" unicode="&#x164;" horiz-adv-x="1231" 
d="M633 2095l222 -367h70l336 367h-113l-241 -258l-158 258h-116zM805 1504l-238 -1504h97l238 1504l479 -1l16 102h-1055l-16 -102z" />
    <glyph glyph-name="tcaron" unicode="&#x165;" horiz-adv-x="1035" 
d="M999 1297q78 38 129 103t64 145q9 54 -9 90.5t-72 36.5q-35 0 -60.5 -20.5t-30.5 -55.5q-5 -31 13 -55t49 -24q11 0 18 2q-9 -30 -31.5 -62.5t-47.5 -51.5q-39 -28 -103 -34l-16 -2l94 -74zM517 1171l67 422h-97l-67 -422h-147l-15 -98h147l-123 -769q-13 -67 -9 -124.5
t23 -100.5t67.5 -67.5t125.5 -24.5h28q31 0 59 3l10 1l-27 98h-4q-39 -3 -40 -3q-50 0 -81 10t-45 43q-25 58 -8 165l121 769h260l15 98h-260z" />
    <glyph glyph-name="Utilde" unicode="&#x168;" 
d="M666 1826q-1 -4 -3.5 -11.5t-3.5 -11.5l-3 -7h96l2 5q4 10 11 30.5t11 31.5q10 30 30 59q17 23 53 23q23 0 33 -6q12 -7 18 -17l15 -21q44 -62 72 -80q33 -23 81 -23q130 0 191 160q5 11 11.5 32t8.5 28q1 4 3.5 11.5t3.5 11.5l2 7h-95v-5q-20 -76 -54 -121
q-17 -23 -55 -23q-15 0 -32.5 11t-28.5 24q-3 6 -4 7l-3 9q-2 2 -3 4q0 1 -2 3q-2 1 -3 3t-2 3q-46 83 -138 83q-130 0 -192 -160q-4 -9 -20 -60zM196 685q-16 -87 -12 -173.5t20.5 -165t56 -145.5t93.5 -116.5t134.5 -77.5t177.5 -28q119 0 223 39t181.5 106t138 157.5
t97.5 191.5t54 211l146 921h-98l-146 -921q-15 -94 -45 -180t-80 -164.5t-114 -136t-152 -91.5t-189 -34q-83 0 -150.5 24t-112.5 66.5t-77 100.5t-44.5 125.5t-15.5 141.5t11 149l146 920h-97z" />
    <glyph glyph-name="utilde" unicode="&#x169;" horiz-adv-x="1034" 
d="M654 1598q-40 0 -73.5 -16t-55 -38.5t-40 -59t-27.5 -63.5t-20 -66l-2 -7h93l1 5q4 11 11 32t11 31q17 40 31 59q16 21 52 21q23 0 35 -8.5t28 -29.5l29 -39q16 -21 33 -35q41 -34 93 -34q129 0 190 159q5 11 11 32.5t9 28.5q1 4 3.5 11.5t3.5 11.5l2 7h-94l-1 -5
q-12 -37 -23 -63q-15 -38 -32 -58q-17 -22 -53 -22q-16 0 -34.5 11.5t-27.5 25.5q-1 1 -3 5v1l-1 1l-1 4q0 1 -1 2.5t-2 2.5q0 1 -2 3q-3 2 -5 7q-47 83 -138 83zM158 441q-32 -201 61.5 -328.5t293.5 -127.5q209 0 359 149l-21 -134h95l184 1162h-95l-114 -720
q-25 -155 -132 -255.5t-260 -100.5q-121 0 -198.5 68.5t-83.5 184.5q-3 44 8 107l113 714l-95 3l-1 -6q-12 -76 -114 -716z" />
    <glyph glyph-name="Umacron" unicode="&#x16a;" 
d="M628 1890l-14 -89h681l14 89h-681zM196 685q-16 -87 -12 -173.5t20.5 -165t56 -145.5t93.5 -116.5t134.5 -77.5t177.5 -28q119 0 223 39t181.5 106t138 157.5t97.5 191.5t54 211l146 921h-98l-146 -921q-15 -94 -45 -180t-80 -164.5t-114 -136t-152 -91.5t-189 -34
q-83 0 -150.5 24t-112.5 66.5t-77 100.5t-44.5 125.5t-15.5 141.5t11 149l146 920h-97z" />
    <glyph glyph-name="umacron" unicode="&#x16b;" horiz-adv-x="1034" 
d="M408 1446l-14 -90h676l14 90h-676zM158 441q-32 -201 61.5 -328.5t293.5 -127.5q209 0 359 149l-21 -134h95l184 1162h-95l-114 -720q-25 -155 -132 -255.5t-260 -100.5q-121 0 -198.5 68.5t-83.5 184.5q-3 44 8 107l113 714l-95 3l-1 -6q-12 -76 -114 -716z" />
    <glyph glyph-name="Ubreve" unicode="&#x16c;" 
d="M743 1806q65 -78 201 -78q137 0 225.5 77t110.5 213l4 30h-90l-1 -6q-9 -59 -24.5 -96.5t-54.5 -71.5q-61 -53 -156 -53q-92 0 -137.5 53t-30.5 144q0 4 1.5 12t2.5 12l1 6h-92l-1 -6q-14 -62 -6 -126t47 -110zM196 685q-16 -87 -12 -173.5t20.5 -165t56 -145.5
t93.5 -116.5t134.5 -77.5t177.5 -28q119 0 223 39t181.5 106t138 157.5t97.5 191.5t54 211l146 921h-98l-146 -921q-15 -94 -45 -180t-80 -164.5t-114 -136t-152 -91.5t-189 -34q-83 0 -150.5 24t-112.5 66.5t-77 100.5t-44.5 125.5t-15.5 141.5t11 149l146 920h-97z" />
    <glyph glyph-name="ubreve" unicode="&#x16d;" horiz-adv-x="1034" 
d="M520 1361q64 -76 201 -76q136 0 224.5 76.5t109.5 210.5l3 25l1 6h-91l-1 -6q-9 -58 -25 -97t-54 -71q-63 -53 -153 -53q-91 0 -137 53t-32 143q0 4 2 12.5t3 12.5l1 6h-90l-1 -6q-14 -63 -7.5 -126t46.5 -110zM158 441q-32 -201 61.5 -328.5t293.5 -127.5q209 0 359 149
l-21 -134h95l184 1162h-95l-114 -720q-25 -155 -132 -255.5t-260 -100.5q-121 0 -198.5 68.5t-83.5 184.5q-3 44 8 107l113 714l-95 3l-1 -6q-12 -76 -114 -716z" />
    <glyph glyph-name="Uring" unicode="&#x16e;" 
d="M771 1947q-13 -87 37.5 -144.5t137.5 -57.5q93 0 159 55t80 147q15 92 -33.5 147t-141.5 55q-88 0 -156.5 -57.5t-82.5 -144.5zM1090 1947q-8 -50 -44.5 -81.5t-85.5 -31.5q-48 0 -74 32.5t-18 80.5t44 79t84 31q49 0 75.5 -31t18.5 -79zM196 685q-16 -87 -12 -173.5
t20.5 -165t56 -145.5t93.5 -116.5t134.5 -77.5t177.5 -28q119 0 223 39t181.5 106t138 157.5t97.5 191.5t54 211l146 921h-98l-146 -921q-15 -94 -45 -180t-80 -164.5t-114 -136t-152 -91.5t-189 -34q-83 0 -150.5 24t-112.5 66.5t-77 100.5t-44.5 125.5t-15.5 141.5t11 149
l146 920h-97z" />
    <glyph glyph-name="uring" unicode="&#x16f;" horiz-adv-x="1034" 
d="M549 1501q-13 -86 37 -142.5t137 -56.5q92 0 157 54t80 145q14 92 -33.5 146.5t-139.5 54.5q-88 0 -156.5 -57t-81.5 -144zM866 1501q-8 -48 -44 -79.5t-85 -31.5q-47 0 -73.5 32t-18.5 79q7 49 42.5 79.5t84.5 30.5t75.5 -30.5t18.5 -79.5zM158 441
q-32 -201 61.5 -328.5t293.5 -127.5q209 0 359 149l-21 -134h95l184 1162h-95l-114 -720q-25 -155 -132 -255.5t-260 -100.5q-121 0 -198.5 68.5t-83.5 184.5q-3 44 8 107l113 714l-95 3l-1 -6q-12 -76 -114 -716z" />
    <glyph glyph-name="Uhungarumlaut" unicode="&#x170;" 
d="M903 2122l-280 -377h106l284 377h-110zM1184 2122l-280 -377h106l284 377h-110zM196 685q-16 -87 -12 -173.5t20.5 -165t56 -145.5t93.5 -116.5t134.5 -77.5t177.5 -28q119 0 223 39t181.5 106t138 157.5t97.5 191.5t54 211l146 921h-98l-146 -921q-15 -94 -45 -180
t-80 -164.5t-114 -136t-152 -91.5t-189 -34q-83 0 -150.5 24t-112.5 66.5t-77 100.5t-44.5 125.5t-15.5 141.5t11 149l146 920h-97z" />
    <glyph glyph-name="uhungarumlaut" unicode="&#x171;" horiz-adv-x="1034" 
d="M679 1675l-276 -373h105l282 373h-111zM959 1675l-276 -373h105l281 373h-110zM158 441q-32 -201 61.5 -328.5t293.5 -127.5q209 0 359 149l-21 -134h95l184 1162h-95l-114 -720q-25 -155 -132 -255.5t-260 -100.5q-121 0 -198.5 68.5t-83.5 184.5q-3 44 8 107l113 714
l-95 3l-1 -6q-12 -76 -114 -716z" />
    <glyph glyph-name="Uogonek" unicode="&#x172;" 
d="M386 -259q-15 -97 38 -147.5t151 -50.5q69 0 106 11t105 49l6 3l-30 89l-7 -5q-71 -57 -166 -57q-56 0 -86.5 27t-21.5 81q20 129 296 242q15 6 18 7q5 2 33 8q68 19 120 46q90 45 163.5 117.5t122.5 159.5t80 177.5t46 185.5l146 921h-98l-146 -921q-19 -119 -63 -224
t-114 -192.5t-174 -138.5t-229 -51q-83 0 -150.5 24t-112.5 66.5t-77 100.5t-44.5 125.5t-15.5 141.5t11 149l146 920h-97l-146 -920q-15 -78 -12 -158t15.5 -154t45 -140t77.5 -117.5t113 -86t151 -45.5q-177 -103 -200 -243z" />
    <glyph glyph-name="uogonek" unicode="&#x173;" horiz-adv-x="1039" 
d="M918 -385l-29 89l-7 -5q-74 -58 -165 -58q-56 0 -86.5 27.5t-22.5 80.5q11 68 84 125t158 91q36 14 55 25q2 0 9 4q2 1 6 2l3 2q10 3 16 2l7 -1l184 1163h-95l-114 -720q-25 -155 -132 -255.5t-260 -100.5q-121 0 -198 68.5t-84 184.5q-3 44 8 107l113 714l-95 3l-1 -6
q-12 -76 -114 -716q-32 -201 61.5 -328.5t293.5 -127.5q209 0 359 149l-12 -80q-59 -21 -110.5 -46.5t-103.5 -62.5t-86.5 -87.5t-43.5 -108.5q-15 -96 37 -146.5t150 -50.5q68 0 103 11t107 49z" />
    <glyph glyph-name="Wcircumflex" unicode="&#x174;" horiz-adv-x="1789" 
d="M1163 2095l-337 -367h114l241 258l158 -258h113l-219 367h-70zM342 1604l127 -1602h97l548 1378l110 -1378h94l637 1602h-99l-550 -1394l-109 1394h-99l-546 -1394l-109 1394h-101z" />
    <glyph glyph-name="wcircumflex" unicode="&#x175;" horiz-adv-x="1722" 
d="M1058 1650l-333 -365h113l239 255l157 -255h113l-218 365h-71zM272 1162l184 -1162h91l472 991l157 -991h90l552 1162h-98l-472 -1003l-156 1003h-94l-472 -1003l-154 1003h-100z" />
    <glyph glyph-name="Ycircumflex" unicode="&#x176;" horiz-adv-x="1301" 
d="M918 2095l-337 -367h115l240 258l159 -258h113l-220 367h-70zM729 808l-128 -808h96l128 807l642 798h-123l-552 -706l-332 706h-118z" />
    <glyph glyph-name="ycircumflex" unicode="&#x177;" horiz-adv-x="1158" 
d="M772 1650l-334 -365h113l239 255l158 -255h112l-218 365h-70zM21 -456q60 -10 91 -10q153 0 270 92.5t193 245.5q73 152 100 203l579 1087h-105l-530 -993l-216 993h-107l247 -1139l-60 -119q-58 -115 -120 -175t-172 -88q-32 -8 -60 -8q-1 0 -43 3q-6 2 -8 2q-3 1 -10 1
h-20l-31 -72v-4q-1 -2 -1 -5q-1 -4 -1 -8l-1 -5z" />
    <glyph glyph-name="Ydieresis" unicode="&#x178;" horiz-adv-x="1301" 
d="M665 1836q-5 -33 13.5 -54.5t52.5 -21.5q37 0 60.5 20t29.5 56q5 35 -12.5 56.5t-53.5 21.5q-77 0 -90 -78zM1061 1836q-5 -33 14.5 -54.5t53.5 -21.5q76 0 89 76q5 36 -12 57t-53 21q-35 0 -61 -21.5t-31 -56.5zM729 808l-128 -808h96l128 807l642 798h-123l-552 -706
l-332 706h-118z" />
    <glyph glyph-name="Zacute" unicode="&#x179;" horiz-adv-x="1196" 
d="M988 2105l-278 -377h106l283 377h-111zM1179 1506l-1091 -1506l1005 3l16 99h-836l1089 1503h-1004l-15 -96z" />
    <glyph glyph-name="zacute" unicode="&#x17a;" horiz-adv-x="1134" 
d="M704 1285l282 373h-111l-276 -373h105zM103 40q-1 -1 -2 -1l-3 -2l-4 -2l2 -35l927 2l15 91h-767l959 1069l-958 -2l-15 -91h768z" />
    <glyph glyph-name="Zdotaccent" unicode="&#x17b;" horiz-adv-x="1196" 
d="M815 1856q-5 -33 13 -55t52 -22q36 0 59.5 20.5t29.5 56.5t-11.5 56.5t-53.5 20.5q-76 0 -89 -77zM1179 1506l-1091 -1506l1005 3l16 99h-836l1089 1503h-1004l-15 -96z" />
    <glyph glyph-name="zdotaccent" unicode="&#x17c;" horiz-adv-x="1134" 
d="M793 1488q-78 0 -89 -76q-6 -34 11.5 -55.5t52.5 -21.5q76 0 89 77q5 35 -12 55.5t-52 20.5zM103 40q-1 -1 -2 -1l-3 -2l-4 -2l2 -35l927 2l15 91h-767l959 1069l-958 -2l-15 -91h768z" />
    <glyph glyph-name="Zcaron" unicode="&#x17d;" horiz-adv-x="1196" 
d="M616 2095l222 -367h70l336 367h-114l-240 -258l-159 258h-115zM1179 1506l-1091 -1506l1005 3l16 99h-836l1089 1503h-1004l-15 -96z" />
    <glyph glyph-name="zcaron" unicode="&#x17e;" horiz-adv-x="1134" 
d="M727 1285h70l332 365h-113l-237 -256l-159 256h-113zM103 40q-1 -1 -2 -1l-3 -2l-4 -2l2 -35l927 2l15 91h-767l959 1069l-958 -2l-15 -91h768z" />
    <glyph glyph-name="florin" unicode="&#x192;" horiz-adv-x="1231" 
d="M1364 1677q-1 0 -2 1q-47 17 -114 17q-75 0 -135 -26t-102 -74t-70.5 -103t-50.5 -126l-121 -386h-347l-14 -88h334l-239 -760q-33 -105 -97.5 -175t-160.5 -70q-75 0 -120 41l-6 4l-55 -81l5 -3q45 -31 77 -42t85 -11q261 0 366 327q30 94 77 250l163 520h370l14 88
h-355l118 378q14 42 45 104q13 28 23 42q34 48 87 74t110 26q53 0 125 -39l7 -3l23 89l-1 2q-7 4 -19 12q-4 2 -18 11z" />
    <glyph glyph-name="circumflex" unicode="&#x2c6;" horiz-adv-x="620" 
d="M541 1661l-336 -367h115l240 257l159 -257h112l-219 367h-71z" />
    <glyph glyph-name="caron" unicode="&#x2c7;" horiz-adv-x="622" 
d="M259 1661l220 -367h71l335 367h-112l-241 -257l-158 257h-115z" />
    <glyph glyph-name="uni02C9" unicode="&#x2c9;" horiz-adv-x="711" 
d="M300 1771l-14 -91h681l14 91h-681z" />
    <glyph glyph-name="breve" unicode="&#x2d8;" horiz-adv-x="611" 
d="M313 1371q64 -77 200 -77q138 0 226.5 77t110.5 213l5 31h-90l-1 -6q-10 -60 -25.5 -97.5t-54.5 -71.5q-62 -54 -156 -54q-92 0 -137.5 53.5t-31.5 144.5q1 4 3 12.5t2 12.5l1 6h-91l-1 -6q-14 -63 -6.5 -127t46.5 -111z" />
    <glyph glyph-name="dotaccent" unicode="&#x2d9;" horiz-adv-x="189" 
d="M243 1422q-5 -34 13.5 -56t52.5 -22q76 0 89 78q6 35 -11.5 56t-53.5 21q-77 0 -90 -77z" />
    <glyph glyph-name="ring" unicode="&#x2da;" horiz-adv-x="471" 
d="M263 1512q-13 -86 37 -144t137 -58q93 0 159 55t80 147q15 93 -33 148t-141 55q-88 0 -156.5 -57.5t-82.5 -145.5zM582 1512q-7 -49 -43.5 -80t-86.5 -31q-47 0 -73.5 32t-19.5 79q8 49 43.5 80t84.5 31q50 0 76.5 -31t18.5 -80z" />
    <glyph glyph-name="ogonek" unicode="&#x2db;" horiz-adv-x="452" 
d="M-29 -259q-15 -97 38 -147.5t151 -50.5q69 0 105 11t106 49l6 3l-30 89l-7 -5q-71 -57 -166 -57q-56 0 -87 27t-22 81q13 80 122 153q63 41 122 65q58 28 59 28t7 3t10 4q2 1 6 2t7 2t5 2l5 2l-3 52h-73h-3q-2 -1 -4 -1l-7 -3q-3 -1 -11 -4t-13 -5q-35 -14 -37 -15
q-50 -21 -93.5 -47t-86 -61t-70.5 -80.5t-36 -96.5z" />
    <glyph glyph-name="tilde" unicode="&#x2dc;" horiz-adv-x="622" 
d="M241 1389l-10 -31h95l2 5q17 50 22 64q14 34 31 58q17 22 52 22q19 0 33 -6q10 -6 18 -17q6 -6 16 -20q40 -57 72 -80q32 -24 80 -24q129 0 192 160q3 7 19 61q6 16 8 24l2 7h-94l-1 -5q-3 -8 -10.5 -30t-12.5 -34q-13 -34 -31 -59q-18 -22 -55 -22q-15 0 -33 11t-28 23
q-1 1 -2 3.5t-2 3.5q0 4 -4 8q0 1 -2 5q-2 2 -2 3q-3 2 -5 6q-47 85 -139 85q-128 0 -191 -160q-6 -13 -20 -61z" />
    <glyph glyph-name="hungarumlaut" unicode="&#x2dd;" horiz-adv-x="645" 
d="M497 1687l-279 -377h107l283 377h-111zM780 1687l-280 -377h106l284 377h-110z" />
    <glyph glyph-name="uni0326" unicode="&#x326;" horiz-adv-x="0" 
d="M-193 42l-192 -407h91l205 407h-104z" />
    <glyph glyph-name="Wgrave" unicode="&#x1e80;" horiz-adv-x="1789" 
d="M1060 2088l167 -377h102l-156 377h-113zM342 1604l127 -1602h97l548 1378l110 -1378h94l637 1602h-99l-550 -1394l-109 1394h-99l-546 -1394l-109 1394h-101z" />
    <glyph glyph-name="wgrave" unicode="&#x1e81;" horiz-adv-x="1722" 
d="M957 1643l167 -375h102l-157 375h-112zM272 1162l184 -1162h91l472 991l157 -991h90l552 1162h-98l-472 -1003l-156 1003h-94l-472 -1003l-154 1003h-100z" />
    <glyph glyph-name="Wacute" unicode="&#x1e82;" horiz-adv-x="1789" 
d="M1285 2105l-279 -377h107l282 377h-110zM342 1604l127 -1602h97l548 1378l110 -1378h94l637 1602h-99l-550 -1394l-109 1394h-99l-546 -1394l-109 1394h-101z" />
    <glyph glyph-name="wacute" unicode="&#x1e83;" horiz-adv-x="1722" 
d="M1181 1658l-277 -373h105l282 373h-110zM272 1162l184 -1162h91l472 991l157 -991h90l552 1162h-98l-472 -1003l-156 1003h-94l-472 -1003l-154 1003h-100z" />
    <glyph glyph-name="Wdieresis" unicode="&#x1e84;" horiz-adv-x="1789" 
d="M910 1836q-5 -33 13 -54.5t52 -21.5q37 0 60.5 20t29.5 56q5 35 -12.5 56.5t-53.5 21.5q-76 0 -89 -78zM1305 1836q-5 -33 14.5 -54.5t53.5 -21.5q76 0 89 76q5 36 -12 57t-53 21q-35 0 -61 -21.5t-31 -56.5zM342 1604l127 -1602h97l548 1378l110 -1378h94l637 1602h-99
l-550 -1394l-109 1394h-99l-546 -1394l-109 1394h-101z" />
    <glyph glyph-name="wdieresis" unicode="&#x1e85;" horiz-adv-x="1722" 
d="M808 1392q-5 -33 13 -55t51 -22q37 0 60.5 20.5t28.5 56.5q6 36 -10.5 56.5t-53.5 20.5q-76 0 -89 -77zM1200 1392q-5 -33 14.5 -55t52.5 -22q37 0 60.5 20.5t28.5 56.5q6 35 -11 56t-53 21q-35 0 -60.5 -21.5t-31.5 -55.5zM272 1162l184 -1162h91l472 991l157 -991h90
l552 1162h-98l-472 -1003l-156 1003h-94l-472 -1003l-154 1003h-100z" />
    <glyph glyph-name="endash" unicode="&#x2013;" horiz-adv-x="1254" 
d="M215 804l-15 -95h1078l15 95h-1078z" />
    <glyph glyph-name="emdash" unicode="&#x2014;" horiz-adv-x="1965" 
d="M215 804l-15 -95h1789l15 95h-1789z" />
    <glyph glyph-name="quoteleft" unicode="&#x2018;" horiz-adv-x="436" 
d="M490 1393q5 34 -11 55.5t-51 21.5q-12 0 -18 -2q8 30 31.5 63t49.5 52q33 26 99 36l15 2l-90 73l-3 -2q-78 -38 -130.5 -104.5t-65.5 -145.5q-8 -52 11.5 -90.5t71.5 -38.5q34 0 60 23t31 57z" />
    <glyph glyph-name="quoteright" unicode="&#x2019;" horiz-adv-x="438" 
d="M403 1306q78 38 129.5 104t64.5 147q9 55 -9 91t-72 36q-35 0 -60.5 -21t-30.5 -55q-5 -30 13 -55t49 -25q11 0 16 1q-21 -71 -78 -115q-34 -27 -103 -33l-16 -2l93 -75z" />
    <glyph glyph-name="quotesinglbase" unicode="&#x201a;" horiz-adv-x="427" 
d="M340 7q9 53 -10 90.5t-71 37.5q-34 0 -61 -21.5t-32 -55.5q-5 -33 12.5 -56t50.5 -23q8 0 20 2q-16 -61 -79 -114q-30 -24 -98 -42l-12 -4l80 -66l5 2q80 38 131 103t64 147z" />
    <glyph glyph-name="quotedblleft" unicode="&#x201c;" horiz-adv-x="648" 
d="M490 1393q5 34 -11 55.5t-51 21.5q-12 0 -18 -2q8 30 31.5 63t49.5 52q33 26 99 36l15 2l-90 73l-3 -2q-78 -38 -130.5 -104.5t-65.5 -145.5q-8 -52 11.5 -90.5t71.5 -38.5q34 0 60 23t31 57zM702 1393q5 34 -11.5 55.5t-51.5 21.5q-12 0 -18 -2q8 29 31.5 62t49.5 53
q30 23 100 36l15 2l-91 73l-3 -2q-78 -38 -130.5 -104.5t-65.5 -145.5q-8 -52 11.5 -90.5t71.5 -38.5q34 0 60.5 23t31.5 57z" />
    <glyph glyph-name="quotedblright" unicode="&#x201d;" horiz-adv-x="649" 
d="M403 1306q78 38 129.5 104t64.5 147q9 55 -9 91t-72 36q-35 0 -60.5 -21t-30.5 -55q-5 -30 13 -55t49 -25q11 0 16 1q-21 -71 -78 -115q-34 -27 -103 -33l-16 -2l93 -75zM614 1306q79 38 130 103.5t64 147.5q20 127 -81 127q-35 0 -60.5 -21t-30.5 -55q-5 -30 13 -55
t49 -25q11 0 16 1q-21 -71 -78 -115q-34 -27 -103 -33l-16 -2l93 -75z" />
    <glyph glyph-name="quotedblbase" unicode="&#x201e;" horiz-adv-x="639" 
d="M365 163q9 53 -10 90.5t-71 37.5q-34 0 -61 -21.5t-32 -55.5q-5 -32 12 -55.5t50 -23.5q9 0 21 2q-18 -61 -79 -114q-30 -24 -98 -42l-13 -4l81 -66l4 2q80 38 131.5 102.5t64.5 147.5zM577 163q9 53 -10 90.5t-72 37.5q-34 0 -61 -21.5t-32 -55.5q-5 -32 12 -55.5
t50 -23.5q9 0 21 2q-18 -61 -79 -114q-30 -24 -98 -42l-13 -4l81 -66l4 2q81 38 132.5 102.5t64.5 147.5z" />
    <glyph glyph-name="dagger" unicode="&#x2020;" horiz-adv-x="1121" 
d="M674 1009l-183 -1155h94l183 1155h425l14 88h-425l71 449h-94l-71 -449h-426l-14 -88h426z" />
    <glyph glyph-name="daggerdbl" unicode="&#x2021;" horiz-adv-x="1121" 
d="M562 302l-71 -448h94l71 448h425l14 89h-425l98 618h425l14 88h-425l71 449h-94l-71 -449h-426l-14 -88h426l-98 -618h-426l-14 -89h426z" />
    <glyph glyph-name="bullet" unicode="&#x2022;" horiz-adv-x="495" 
d="M207 749q-11 -68 27 -113.5t107 -45.5q71 0 122.5 44t62.5 115t-26 115t-108 44q-72 0 -123 -44t-62 -115z" />
    <glyph glyph-name="ellipsis" unicode="&#x2026;" horiz-adv-x="1094" 
d="M472 58q-5 -34 15 -57.5t54 -23.5t61 23.5t32 57.5t-14 57.5t-53 23.5t-62 -23.5t-33 -57.5zM854 58q-5 -34 15 -57.5t54 -23.5t60.5 23.5t31.5 57.5t-13.5 57.5t-52.5 23.5t-62 -23.5t-33 -57.5zM97 57q-5 -34 14.5 -57.5t53.5 -23.5t61.5 23.5t32.5 57.5q5 35 -14 58
t-54 23q-34 0 -61.5 -23.5t-32.5 -57.5z" />
    <glyph glyph-name="perthousand" unicode="&#x2030;" horiz-adv-x="2455" 
d="M271 1154q-15 -75 -3.5 -144t41 -122.5t89 -85t141.5 -31.5q109 0 194 54.5t131.5 139t63.5 189.5q19 123 -6.5 213.5t-115.5 143.5q-59 35 -144 35q-82 0 -152 -33t-117.5 -88.5t-78.5 -124.5t-43 -146zM296 69h116l1238 1477h-115zM832 1154q-13 -80 -44.5 -143.5
t-92.5 -106.5t-142 -43q-79 0 -126 43.5t-60 107.5t0 142q25 162 130 251q28 23 40 29q43 22 111 22q66 0 102 -22q17 -11 33 -29q74 -84 49 -251zM1019 456q-16 -104 5 -189.5t89 -141.5t177 -56q166 0 272 121q91 104 117 266q8 61 6.5 117.5t-20.5 106t-50.5 85.5t-83 57
t-118.5 21q-83 0 -153 -31.5t-118 -86t-79 -123t-44 -146.5zM1780 456q-14 -75 -2.5 -145t41.5 -123.5t89.5 -86t141.5 -32.5q168 0 274 121q89 103 115 266q8 61 6.5 117.5t-20.5 106t-50 85.5t-83 57t-119 21q-83 0 -152.5 -31.5t-118 -86t-79.5 -123t-43 -146.5z
M1495 251q-80 -93 -191 -93q-64 0 -104 24q-60 36 -80 112.5t-7 161.5t58 161.5t116 112.5q48 24 111 24q61 0 103.5 -25.5t61 -67t24.5 -95t-5 -110.5q-19 -128 -87 -205zM2344 456q-9 -58 -30 -109.5t-54.5 -95t-84 -68.5t-111.5 -25t-101 24q-12 7 -33 28q-80 84 -54 246
q20 124 93 211t189 87q61 0 104 -25.5t62 -67t25 -95t-5 -110.5z" />
    <glyph glyph-name="guilsinglleft" unicode="&#x2039;" horiz-adv-x="629" 
d="M206 747l259 -452h123l-262 452l405 450h-123z" />
    <glyph glyph-name="guilsinglright" unicode="&#x203a;" horiz-adv-x="632" 
d="M542 747l-407 -452h123l404 452l-261 450h-123z" />
    <glyph glyph-name="fraction" unicode="&#x2044;" horiz-adv-x="1003" 
d="M116 174l74 -56l947 1286l-75 55z" />
    <glyph glyph-name="uni207B" unicode="&#x207b;" horiz-adv-x="774" 
d="M292 1289l-15 -93h598l15 93h-598z" />
    <glyph glyph-name="uni207C" unicode="&#x207c;" horiz-adv-x="806" 
d="M311 1406l-15 -91h630l15 91h-630zM273 1169l-14 -89h630l14 89h-630z" />
    <glyph glyph-name="uni208B" unicode="&#x208b;" horiz-adv-x="774" 
d="M115 168l-15 -91h598l15 91h-598z" />
    <glyph glyph-name="uni208C" unicode="&#x208c;" horiz-adv-x="806" 
d="M133 285l-14 -89h630l14 89h-630zM96 50l-14 -91h630l14 91h-630z" />
    <glyph glyph-name="Euro" unicode="&#x20ac;" horiz-adv-x="1451" 
d="M1439 479l-79 43l-3 -7q-39 -94 -82.5 -161t-109.5 -118q-125 -99 -279 -99q-153 0 -251 80t-132 224q-22 87 -23 161h503l79 91h-579q1 38 13 114q11 76 23 117h601l80 91h-654q45 134 117.5 235t184.5 164.5t248 63.5q303 0 357 -312l1 -9l86 65l-1 4q-31 175 -136 258
t-293 83q-124 0 -232.5 -42t-190.5 -118t-141.5 -174.5t-96.5 -217.5h-200l-15 -91h190q-18 -68 -25 -117q-4 -25 -11 -114h-190l-15 -91h200q-3 -168 62 -306.5t199 -203.5q96 -45 227 -45q193 0 341.5 118t224.5 310z" />
    <glyph glyph-name="trademark" unicode="&#x2122;" horiz-adv-x="1519" 
d="M1347 1558h-81l-248 -671l-245 671h-619v-89h233v-729h88v729h214v-729h91l-1 533l200 -533h76l202 535v-535h90v818z" />
    <glyph glyph-name="uni2126" unicode="&#x2126;" horiz-adv-x="1534" 
d="M113 158l-14 -89h561l13 80l-4 2q-217 85 -304 257t-48 420q22 136 78 253t141 206t205 140t261 51q114 0 204.5 -33t148.5 -91.5t93.5 -140t41 -179t-9.5 -206.5q-80 -507 -568 -677l-4 -2l-13 -80h562l14 89h-341q188 111 300 284.5t145 385.5q68 427 -185 626
q-45 35 -92 59q-111 54 -282 54q-163 0 -302 -57t-238.5 -157t-164.5 -234t-90 -291q-33 -208 25 -384t208 -286h-341z" />
    <glyph glyph-name="arrowleft" unicode="&#x2190;" horiz-adv-x="1677" 
d="M215 789q173 -136 340.5 -324.5t252.5 -361.5l3 -5l96 55l-3 6q-202 331 -409 528q-47 43 -90 77q82 -2 124 -2h1181l15 95h-1181q-40 0 -124 -2q311 201 690 604l5 5l-79 56l-4 -4q-341 -385 -811 -686l-2 -2l-6 -37z" />
    <glyph glyph-name="arrowup" unicode="&#x2191;" horiz-adv-x="1605" 
d="M953 1248l-187 -1179h94l187 1179l17 122q172 -301 514 -591l6 -4l69 84l-3 4q-356 290 -579 699l-1 3h-39l-3 -3q-349 -406 -799 -699l-5 -4l44 -84l5 4q449 306 701 592q-13 -68 -21 -123z" />
    <glyph glyph-name="arrowright" unicode="&#x2192;" horiz-adv-x="1677" 
d="M818 154l80 -56l3 4q359 406 811 687l2 2l6 37l-2 2q-371 303 -593 686l-2 4l-97 -56l3 -5q246 -394 497 -604q-80 2 -121 2h-1181l-15 -95h1181q39 0 119 2q-174 -113 -336 -260t-350 -345z" />
    <glyph glyph-name="arrowdown" unicode="&#x2193;" horiz-adv-x="1605" 
d="M667 246q111 -176 124 -195l2 -2h37l2 3q342 401 800 700l5 4l-43 85l-6 -4l-51 -34q-10 -7 -36.5 -26t-41.5 -29q-36 -26 -93 -70q-160 -124 -200 -158q-18 -14 -79 -71q-110 -102 -201 -203q19 110 21 122l187 1178h-94l-187 -1178q-12 -82 -17 -121
q-87 156 -211.5 292.5t-301.5 297.5l-5 4l-70 -86l3 -3q177 -138 326 -317q59 -74 130 -189z" />
    <glyph glyph-name="arrowboth" unicode="&#x2194;" horiz-adv-x="2166" 
d="M806 153l6 -12l3 -4l97 56l-3 6q-69 111 -169 248q-10 13 -28 38t-33 45t-29 37q-6 8 -34.5 38.5t-32.5 35.5q-92 95 -170 159h1595q-176 -114 -339.5 -261t-344.5 -339l-5 -5l74 -58l4 4q361 405 810 686l2 2l6 38l-1 2q-366 289 -593 687l-3 4l-92 -57l3 -5
q240 -393 494 -602h-1595q326 210 686 602l5 6l-79 56l-4 -4q-354 -403 -808 -687l-3 -2l-6 -38l2 -2q335 -261 516 -552q33 -56 69 -122z" />
    <glyph glyph-name="arrowupdn" unicode="&#x2195;" horiz-adv-x="1605" 
d="M489 189q72 -91 263 -372l2 -2h39l2 2q362 413 800 698l4 3l-42 88l-7 -4q-426 -284 -699 -592l252 1594q88 -155 209.5 -288.5t302.5 -300.5l4 -4l71 84l-3 4q-357 292 -578 699l-2 2h-39l-2 -3q-341 -398 -800 -698l-5 -4l44 -84l6 4q219 151 389 290.5t309 297.5
l-252 -1593q-95 160 -195 275q-6 8 -35 39.5t-33 36.5q-108 116 -249 241l-5 4l-70 -88l4 -3q150 -119 315 -326z" />
    <glyph glyph-name="partialdiff" unicode="&#x2202;" horiz-adv-x="1203" 
d="M1148 813q-57 106 -167 155t-251 49q-214 0 -369 -134.5t-188 -346.5q-34 -215 80.5 -352t331.5 -137q102 0 191 32t156.5 86.5t122.5 130.5t91.5 159.5t60.5 177.5q22 85 36 174q14 86 20 156t3 154.5t-21 150.5t-59.5 129t-104.5 105q-98 65 -276 65q-229 0 -396 -180
l-4 -5l62 -67l4 6q125 157 320 157q150 0 230 -56q84 -61 116.5 -150t31.5 -212q-2 -123 -21 -247zM1084 728q6 -13 17 -48t10 -43q-4 -23 -29 -94q-42 -119 -115 -217.5t-175 -147.5q-86 -41 -194 -41q-169 0 -262 117t-66 286q26 168 150.5 277.5t293.5 109.5
q85 0 155 -19t128 -65t87 -115z" />
    <glyph glyph-name="uni2206" unicode="&#x2206;" horiz-adv-x="1418" 
d="M99 69h1242l1 6q0 1 1 5.5t2 12t2 12.5l3 19q0 5 1 7v4l-350 1411h-90l-802 -1411v-4q-1 -2 -1 -7l-3 -19q-1 -5 -2 -12.5t-2 -12t-1 -5.5zM228 158l704 1251l309 -1251h-1013z" />
    <glyph glyph-name="product" unicode="&#x220f;" horiz-adv-x="1244" 
d="M333 1546l-278 -1753h94l264 1663h878l-264 -1663h96l278 1753h-1068z" />
    <glyph glyph-name="summation" unicode="&#x2211;" horiz-adv-x="1305" 
d="M67 -133l-12 -74h1129l15 93h-989l837 792l5 28l-586 750h982l14 90h-1129l-11 -71l612 -783z" />
    <glyph glyph-name="minus" unicode="&#x2212;" horiz-adv-x="1205" 
d="M218 822l-14 -90h1029l14 90h-1029z" />
    <glyph glyph-name="uni2215" unicode="&#x2215;" horiz-adv-x="1060" 
d="M1109 1608l-1024 -1630l114 13l1032 1645z" />
    <glyph glyph-name="uni2219" unicode="&#x2219;" horiz-adv-x="333" 
d="M223 850q-5 -33 13 -56t51 -23q79 0 93 79q5 35 -14 56.5t-54 21.5q-77 0 -89 -78z" />
    <glyph glyph-name="radical" unicode="&#x221a;" horiz-adv-x="1479" 
d="M682 225l-158 658h-296l-14 -90h231l173 -724h76l996 1816h-100z" />
    <glyph glyph-name="infinity" unicode="&#x221e;" horiz-adv-x="1843" 
d="M1185 945q-1 -3 -14 -23q-3 -5 -10 -16t-9 -15l-20 16l-5 -4q-27 -27 -40 -41q-24 -24 -34 -36q-86 128 -130 190q-10 15 -25 35q-58 86 -127 119q-51 23 -149 23q-88 0 -163 -40t-125 -106t-82.5 -142.5t-45.5 -157.5q-7 -62 -6.5 -124t20.5 -119.5t51.5 -102t86 -71
t123.5 -26.5q107 0 161 27q11 6 33 19.5t33 19.5l2 1q34 21 161 146q87 86 154 155q51 -78 97 -145q63 -88 79 -105q56 -69 106 -95q49 -23 152 -23q87 0 162 40t125 105.5t82 141.5t45 156q10 52 8.5 105.5t-9.5 103t-30 92.5t-53.5 75.5t-80 51t-108.5 18.5
q-100 0 -157.5 -26t-146.5 -102q-8 -6 -46 -42q-14 -14 -41.5 -39.5t-35.5 -33.5l9 -8zM842 944q81 -115 134 -197q-10 -9 -30 -29l-207 -205q-74 -74 -119 -97q-42 -21 -118 -21q-62 0 -105 32q-65 49 -87.5 135.5t-7.5 184.5q10 61 34.5 121t62.5 113.5t94 86.5t120 33
q76 0 111 -19q30 -19 58 -55q12 -15 32.5 -44t27.5 -39zM1754 986q21 -45 27 -115t-4 -124q-9 -61 -35 -125t-63 -112q-94 -115 -207 -115q-73 0 -110.5 21t-82.5 79q-57 75 -179 256q88 90 134 134l30 30t38 36q6 6 19 16t19 16t21.5 20.5t24.5 21.5q92 76 194 76
q64 0 108 -30q17 -12 36.5 -38t29.5 -47z" />
    <glyph glyph-name="integral" unicode="&#x222b;" horiz-adv-x="1047" 
d="M69 -144q72 -63 174 -63q151 0 238 80.5t111 230.5l213 1342q35 218 241 218q83 0 127 -47l5 -7l50 90l-2 3q-63 54 -166 54q-150 0 -238 -80.5t-112 -230.5l-213 -1342q-17 -112 -75.5 -165t-171.5 -53q-63 0 -128 46l-4 4l-52 -77z" />
    <glyph glyph-name="approxequal" unicode="&#x2248;" horiz-adv-x="1148" 
d="M719 925q43 -23 70.5 -35.5t70 -24.5t82.5 -12q129 0 270 119l2 1l22 136l-13 -12q-159 -154 -265 -154q-47 0 -108 25q-7 3 -18 9t-16 8q-60 25 -71 31q-94 45 -106 49q-58 21 -120 21q-77 0 -139 -30t-137 -91l-2 -1l-22 -138l13 13q51 51 84 79t84.5 52.5t104.5 24.5
q52 0 111 -22q35 -12 103 -48zM720 495q95 -42 159 -42q130 0 270 122l2 1l22 137l-13 -13q-159 -159 -265 -159q-42 0 -92 19q-32 11 -77 34q-2 1 -35 19q-26 10 -39 16q-13 5 -27 13q-5 4 -28 14q-4 2 -14 5.5t-15 5.5q-51 18 -113 18q-80 0 -142.5 -29.5t-133.5 -91.5
l-2 -2l-20 -128l11 11q100 86 161 122q47 29 112 29q58 0 149 -40q26 -12 63 -33q17 -9 33 -15q20 -7 34 -13z" />
    <glyph glyph-name="notequal" unicode="&#x2260;" horiz-adv-x="1162" 
d="M484 506l-178 -279h108l178 279h562l15 92h-519l221 347h353l14 90h-308l169 269h-105l-172 -269h-570l-14 -90h526l-220 -347h-361l-15 -92h316z" />
    <glyph glyph-name="lessequal" unicode="&#x2264;" horiz-adv-x="1197" 
d="M224 857l931 -569l17 111l-818 496l972 477l18 109l-1108 -545zM113 158l-14 -89h1021l14 89h-1021z" />
    <glyph glyph-name="greaterequal" unicode="&#x2265;" horiz-adv-x="1197" 
d="M151 399l-17 -111l1111 569l12 79l-934 545l-18 -109l820 -477zM113 158l-14 -89h1021l14 89h-1021z" />
    <glyph glyph-name="uniF8FF" unicode="&#xf8ff;" horiz-adv-x="2420" 
d="M88 -370v2408h2244v-2408h-2244zM426 202h254v442h886v236h-886v634h886v226h-1148v-1528q0 -2 2 -4q0 -6 6 -6zM852 202h1146v1538h-262v-430h-884v-244h884v-626h-884v-238zM1348 -96q20 0 38 6q8 4 15 6q6 1 11 12q0 2 1.5 6t2.5 7q2 10 2 15q0 7 -2 17q-1 3 -2 7
l-2 4q-5 8 -11 12q-9 5 -11 6l-12 3q-12 2 -18 5q-12 6 -18 6q-4 0 -9 6q-5 7 -5 10q0 12 16 12q9 0 14 -1q10 -2 14 -5q8 -5 15 -7q11 -3 13 -5l18 36q-12 8 -34 14q-24 6 -36 6q-13 0 -34 -8q-2 -1 -4.5 -2.5t-5.5 -2.5t-4 -2q-5 -2 -10 -11q-8 -11 -8 -30q0 -3 2 -13
q1 -6 6 -11q6 -7 8 -9l10 -7q5 -4 14 -4t18 -4l8 -3q4 -1 8 -5l10 -6q6 -6 6 -8q0 -10 -8 -13t-16 -3q-10 0 -31 8q-18 7 -29 18l-18 -34q18 -15 38 -20q5 -1 19 -5q11 -3 21 -3zM654 -98q40 0 66 24q27 25 28 66q2 26 -14 46q-12 15 -13 16q-14 14 -17 16q-17 10 -50 10
q-23 0 -46 -10q-21 -13 -34 -32q-12 -23 -12 -46q0 -26 12 -46q12 -23 33 -34q20 -10 47 -10zM1750 -98q19 0 38 10q20 11 32 24l-26 24q-7 -5 -22 -12q-8 -6 -22 -6q-9 0 -22 8l-10 7q-2 2 -8 11q-4 7 -4 26q0 17 4 26q1 4 18 16q10 6 22 6q14 0 22 -6q16 -6 22 -16l24 30
q-8 10 -13 14q-8 7 -15 8q-5 1 -20 5q-10 3 -20 3q-39 0 -65 -23q-25 -22 -25 -65q0 -29 10 -46q16 -24 34 -34q17 -10 46 -10zM426 -92h44v60h76v34h-76v40h82v34h-126v-168zM770 -92h42v100l78 -100h40v168h-42v-100l-78 100h-40v-168zM1000 -92h44v134h50v34h-148v-34h54
v-134zM1076 -92h46l12 28h74l12 -28h48l-72 168h-46zM1478 -92h44v134h52v34h-148v-34h52v-134zM1592 -92h44v168h-44v-168zM1818 -92h48l10 28h78l8 -28h48l-72 168h-46zM656 -60q-22 0 -35 16t-13 36q0 10 6 26q3 4 9 10l9 8q12 6 24 6t24 -6q10 -6 16 -18q0 -3 4 -13
q2 -6 2 -13q0 -10 -1 -13q-3 -10 -5 -13q-11 -14 -16 -18q-18 -8 -24 -8zM1148 -30l24 62l22 -62h-46zM1890 -30l24 62l22 -62h-46zM830 -596q-32 0 -42 28q-6 10 -6 26q0 17 4 28q4 10 12 16q6 5 18 10q6 2 18 2q36 0 46 -36q4 -20 0 -36q-4 -17 -18 -28q-13 -10 -32 -10z
M1340 -594q-17 0 -22 4q-12 4 -16 16l-4 8q0 1 -1 3t-1 3l9 2q10 2 11 2l2 -4q4 -16 22 -16q4 0 12 3t8 9q0 8 -5 11q-3 2 -21 7q-21 5 -26 10q-10 12 -6 28q4 15 24 20q0 2 16 2q17 -1 26 -10q10 -6 10 -20v-4h-22v4q-5 14 -16 14q-2 0 -3 -1t-3 -1q-14 -6 -12 -14
q0 -2 22 -8q21 -7 30 -16q7 -7 8 -18q0 -17 -10 -24q-8 -8 -15 -9q-5 -1 -17 -1zM1662 -594q-32 0 -48 34q-5 8 -3 19l3 19q6 26 32 34q3 0 6 1t8 1q20 0 32 -12q4 -4 7 -10t3 -8l-10 -4l-8 -2q-3 0 -4 4q-6 14 -20 14t-20 -10q-7 -12 -8 -20q0 -9 1 -15q2 -10 5 -13
q5 -14 20 -14q16 0 22 16l2 6l10 -2q10 -4 10 -5l-2 -9q-14 -24 -38 -24zM1996 -594q-12 0 -25 7t-17 17q-14 32 0 60q8 10 13 14q8 7 17 8q2 2 16 2q8 0 17 -3q8 -3 13 -11q2 -2 8 -10q4 -6 2 -6q-3 -3 -11 -4l-11 -2q-1 1 -2 4q-2 12 -18 12t-21 -11q-5 -12 -5 -25
q0 -12 5 -24q4 -10 21 -10q16 0 20 16q0 4 2 4v2l12 -4l6 -2v-4q0 -2 -2 -8q0 -2 -2 -4t-2 -4q-14 -14 -36 -14zM134 -594l-12 2l-24 102q0 2 10 2h12l14 -68l2 7q2 10 6 23q10 23 10 32l2 6h24l10 -34l8 -34q2 0 4 11q0 3 1.5 11t2.5 12t2.5 9t3 12t2.5 11q0 2 10 2
q12 0 12 -2q-2 -9 -10 -42q-1 -6 -3.5 -17t-4.5 -16l-6 -23v-6h-24v6q-2 2 -5 13q0 1 -2.5 10.5t-4.5 14.5l-8 32l-10 -30l-10 -46h-12zM292 -594q-2 2 -4 2l-4 16q-2 6 -4.5 19.5t-3.5 15.5t-3.5 15.5t-4.5 19.5l-4 16q0 2 10 2h11q1 0 1 -2q2 -6 2 -10q4 -11 4 -22l8 -34
l18 68h26q2 0 2 -2l10 -36l6 -34l16 70q0 2 10 2q12 0 12 -2q-2 -8 -2 -14q0 -1 -1.5 -7.5t-2.5 -10.5q-1 -9 -6 -20l-14 -52h-10l-12 2l-10 38q-1 3 -2.5 8t-1.5 7q-1 3 -2 7l-2 4q0 4 -2 12q-2 -8 -2 -12q-2 -6 -3 -11q-2 -10 -5 -15l-10 -40h-20zM466 -594q-11 0 -12 4
l-4 16q-2 6 -4.5 19.5t-3.5 15.5t-3.5 15.5t-4.5 19.5l-4 16h22l6 -34l10 -34l3 11l6 23l6 23l3 11h24l10 -34q6 -32 10 -36q0 2 2 10q-1 4 4 26l8 34h10q12 0 12 -2q-2 -8 -2 -14q0 -1 -1.5 -7.5t-2.5 -10.5q-1 -9 -6 -20l-14 -50l-10 -2h-12l-10 40l-7 27q-3 11 -3 9
l-20 -74zM668 -592v102q0 2 7 2h65v-18h-50v-24h42v-18h-42v-22l-2 -22h-20zM928 -594v106h20l42 -68v68h20v-104l-10 -2h-10l-42 68v-68h-20zM1084 -594v88h-30v18h84v-18h-32v-88h-22zM1162 -594q-2 2 -4 2q2 4 5 12l11 28q8 22 13 33q1 2 11 29q0 2 10 2h12l42 -104
q-2 0 -4 -2h-6l-14 2l-8 24h-40l-10 -24l-10 -2h-8zM1452 -594v88h-32v18h84v-18h-30v-88h-22zM1546 -594v106h20v-106h-20zM1742 -594l-2 2q1 4 4 12l10 28q8 22 13 33q1 2 11 29q0 2 12 2h12l40 -104q-2 0 -2 -2h-8l-12 2l-10 24h-40l-8 -24l-12 -2h-8zM2132 -594
q-24 0 -37 15q-13 14 -13 37q0 16 9 33t25 21q29 0 47 -7q19 -7 19 -45q0 -23 -11 -39q-11 -15 -39 -15zM2228 -594v106h32l8 -34l6 -24q1 -2 2.5 -5.5t1.5 -4.5l8 30q10 29 10 36v2h34v-106h-22v80l-8 -36l-7 -27q-3 -10 -3 -13v-4h-12l-10 2l-8 38l-12 38v-76l-10 -2h-10z
M832 -576q20 0 26 20q2 6 1 14q-1 7 -1 16q0 10 -12 18q-7 4 -12 4q-14 0 -24 -10q-3 -3 -5 -10q-1 -4 -1 -18q0 -15 8 -26q8 -8 20 -8zM2132 -576q10 0 14 4q14 6 14 30q0 26 -14 34q-3 1 -5 3q-1 1 -7 1q-18 0 -23 -11q-5 -12 -5 -27t4 -24q4 -10 22 -10zM1776 -550h28
q0 2 -6 18q-4 7 -4 10l-2 6q-1 1 -4 -4q-1 -1 -2 -4zM1196 -550h26q0 2 -6 18q-4 7 -4 10l-2 6l-6 -8zM598 -592v20h20v-20h-20zM1884 -592v20h20v-10l-2 -10h-18z" />
    <glyph glyph-name="R.001" horiz-adv-x="1165" 
d="M88 0h102l128 812h401l249 -812h109l-250 822q114 18 203.5 63t153.5 128t82 195q14 88 -5.5 157t-62.5 113.5t-108 73.5t-135.5 41t-151.5 12h-461zM333 908l93 600h362q291 0 360 -144q32 -74 19 -156q-14 -86 -60.5 -147t-115.5 -93t-142 -46t-156 -14h-360z" />
    <glyph glyph-name="space.tf" horiz-adv-x="840" 
 />
    <glyph glyph-name="NULL" horiz-adv-x="0" 
 />
    <glyph glyph-name="_FSHallmark" horiz-adv-x="1784" 
d="M92 1294v190h1604v-190h-1604zM1350 396q-92 0 -173 33q-83 33 -132 99q-51 65 -51 158l186 -4q0 -8 12 -32q3 -26 28 -48q18 -21 46 -32q32 -20 92 -20q28 0 53 5q20 4 51 17q34 22 34 52q0 58 -152 88q-67 20 -133 44q-54 18 -101 44q-44 20 -70 62q-26 38 -26 96
q0 86 55 137q56 52 149 87q5 0 13 1.5t23 4t26 4.5q39 4 70 4q85 0 160 -28t123 -87q47 -59 47 -143h-192q0 29 -14 46q-18 18 -36 32q-10 3 -20 10q-9 3 -11 4q-3 0 -8 2t-7 2l-24 6q-15 4 -22 4q-26 0 -55 -10q-30 -10 -51 -30q-22 -19 -22 -46t8 -48q6 -21 28 -30l15 -5
q7 -5 21 -9q30 -13 46 -14l130 -34l28 -6q15 -6 30 -6l24 -6q14 -4 20 -8l40 -18q36 -22 62 -52q18 -42 24 -88q1 -3 1 -13q0 -13 -5 -35q-3 -15 -16 -46q-45 -79 -131 -111q-87 -33 -193 -33zM92 396v798h674v-180h-464v-182h388v-178h-388v-258h-210zM844 400
q-16 0 -32 10q-22 12 -30 20q-14 12 -26 30q-8 11 -8 34q0 39 30 66q26 26 66 26q38 0 78 -28q32 -26 32 -64t-32 -70q-36 -24 -78 -24zM88 108v190h1606v-190h-1606z" />
    <glyph glyph-name="_Fontastica" horiz-adv-x="1394" 
d="M94 322q-2 0 -6 4v1182h884v-174h-682v-490h682v-182h-682v-340h-196zM422 322v184h682v482h-682v188h682v332h202v-1186h-884zM280 128q-29 0 -50 18q-22 16 -22 48q0 26 22 48q21 18 50 18q22 0 33 -7t25 -27q10 -16 10 -32q0 -29 -20 -46q-20 -20 -48 -20zM798 128
q-34 0 -60 20l14 26q8 -8 22 -14t24 -6q16 0 16 12q0 2 -2 4q-2 0 -2 4q0 2 -2 2l-4 2q-3 0 -14 4t-14 4q-1 -1 -3 -1q-4 0 -11 7q-9 7 -10 10q-6 6 -6 20q0 21 18 30q14 8 34 8q26 0 52 -14l-14 -28q-14 14 -42 14q-4 0 -6 2q-1 1 -2 1q-2 -2 -2 -3l-2 -8q0 -2 2 -2v-4
q0 -4 4 -4q0 -2 2 -2q20 0 40 -13q20 -14 20 -31q0 -20 -16 -30q-19 -10 -36 -10zM1096 128q-42 0 -58 34q-10 16 -10 32q0 15 11 35t23 23l16 6q8 2 18 2q15 0 30 -6q12 -6 22 -16l-20 -24q-1 4 -13 12q-11 6 -17 6q-5 0 -16 -4q-12 -8 -14 -14q-4 -7 -4 -20q0 -7 5 -19
t11 -13q3 -3 8 -4q6 -2 10 -2q6 0 16 6q8 4 14 10l20 -20q-9 -11 -23 -17q-13 -7 -29 -7zM106 130v128h96v-26h-62v-30h58v-26h-58v-46h-34zM364 130v128h30l58 -78v78h32v-128h-30l-58 76v-76h-32zM536 130v100h-38v28h108v-28h-36v-100h-34zM594 130l54 128h34l54 -128
h-36l-8 24h-56l-8 -24h-34zM894 130v100h-38v28h108v-28h-38v-100h-32zM978 130v128h34v-128h-34zM1148 130l56 128h34l54 -128h-36l-10 24h-54l-10 -24h-34zM280 154q17 0 26 12q8 11 8 28q0 15 -10 26q-10 12 -24 12q-16 0 -26 -10q-10 -13 -10 -28q0 -17 10 -28
q10 -12 26 -12zM646 178h36l-18 46zM1202 178h34l-18 46z" />
    <glyph glyph-name="_www.fontastica.com" horiz-adv-x="3962" 
d="M92 720q-2 0 -4 2v418h316v-62h-244v-174h244v-64h-244v-120h-68zM206 720v64h244v172h-244v66h244v118h72v-420h-316zM2528 754q-37 0 -86 17q-47 16 -76 39l36 72q22 -19 62 -36q38 -18 64 -18q21 0 32 8q14 8 14 22q0 7 -2 13q-4 6 -8 7q-3 1 -12 8q-2 1 -4.5 2.5
t-4 2t-3.5 1.5l-4 2q-3 0 -8 1.5t-7 2.5q-3 1 -8 2.5t-7 1.5q-7 1 -16 5q-12 4 -18 5q-8 2 -28 10q-13 5 -20 12q-34 18 -34 74q0 54 41 81t97 27q33 0 74 -10q36 -12 66 -30l-34 -72q-17 9 -56 26q-29 10 -58 10q-36 0 -36 -24q0 -7 11 -18t19 -14l20 -5q12 -3 30 -9
q27 -9 48 -18q7 -5 22 -12q20 -20 27 -35t7 -43q0 -34 -18 -58q-20 -29 -54 -38q-36 -12 -68 -12zM1114 752q-52 0 -95 24q-42 22 -68 65q-25 40 -25 93q0 54 25 94q25 42 67 64q43 22 96 22t96 -22q41 -21 68 -64q24 -40 24 -94q0 -53 -25 -93q-26 -43 -68 -65
q-43 -24 -95 -24zM3340 752q-50 0 -92 24t-66 66t-24 92q0 53 25 93q25 42 67 64q43 23 94 23q42 0 78 -14q32 -13 62 -46l-52 -64q-14 20 -38 34q-24 12 -48 12q-45 0 -70 -28q-26 -29 -26 -72q0 -42 27 -72t69 -30q27 0 48 12q17 7 38 28l54 -56q-30 -30 -66 -46
q-38 -20 -80 -20zM646 760v348h260v-72h-170v-78h156v-74h-156v-124h-90zM1348 760v348h80l160 -210l-2 210h86v-348h-80l-158 208v-208h-86zM1814 760v274h-104v74h300v-74h-106v-274h-90zM1972 760l150 348h94l146 -348h-96l-24 60h-152l-24 -60h-94zM2788 760v274h-104
v74h300v-74h-104v-274h-92zM3022 760v348h90v-348h-90zM3484 760l150 348h94l146 -348h-98l-22 60h-152l-24 -60h-94zM1116 830q41 0 68 32q26 32 26 72q0 41 -26 72q-26 30 -68 30t-70 -28q-26 -29 -26 -74q0 -43 27 -73q27 -31 69 -31zM2118 890h96l-46 126zM3630 890h96
l-48 126z" />
    </font>
</defs>
</svg>
