<?xml version="1.0" standalone="no"?>
<!DOCTYPE svg PUBLIC "-//W3C//DTD SVG 1.1//EN" "http://www.w3.org/Graphics/SVG/1.1/DTD/svg11.dtd" >
<svg xmlns="http://www.w3.org/2000/svg" xmlns:xlink="http://www.w3.org/1999/xlink" version="1.1">
<metadata>
Created by FontForge 20170731 at Fri May 22 20:17:35 2020
 By Aleksey,,,
Copyright (c) 2020 by Fontastica. All rights reserved.
</metadata>
<defs>
<font id="ClarityNuvo-Italic" horiz-adv-x="1358" >
  <font-face 
    font-family="Clarity Nuvo"
    font-weight="400"
    font-style="italic"
    font-stretch="normal"
    units-per-em="2048"
    panose-1="0 0 5 0 0 0 0 0 0 0"
    ascent="1638"
    descent="-410"
    x-height="1165"
    cap-height="1608"
    bbox="-448 -596 3874 2135"
    underline-thickness="50"
    underline-position="-200"
    slope="-9"
    unicode-range="U+000D-F8FF"
  />
<missing-glyph horiz-adv-x="1000" 
d="M88 2l229 1446h824l-229 -1446h-824zM626 810l400 568h-614zM860 192l169 1066l-372 -532zM201 196l368 530l-201 524zM206 74h614l-219 566z" />
    <glyph glyph-name="f_f.liga" unicode="ff" horiz-adv-x="1228" 
d="M1224 1170h-232q14 69 60 130.5t111 98.5q60 35 188 37h12l27 144h-13q-206 0 -345 -106t-185 -304h-270q13 66 60.5 129t111.5 100q56 35 187 37h12l27 144h-13q-300 0 -448 -216q-57 -83 -82 -194h-159l-23 -147h158l-163 -1023h146l162 1023h269l-163 -1023h147
l162 1023h233z" />
    <glyph glyph-name="f_f_t.liga" unicode="fft" horiz-adv-x="1579" 
d="M1140 331q-14 -73 -9 -134t27.5 -105t76 -68.5t137.5 -24.5q16 0 103 5l17 1l-38 146l-9 -1q-5 0 -23.5 -2t-28.5 -2q-82 0 -101 40q-10 22 -10.5 69.5t4.5 75.5l109 690h250l23 147h-250l65 412h-144l-65 -412l-282 2q13 66 61 129.5t110 99.5q40 24 123 33l11 1l23 145
l-13 -1q-183 -18 -300.5 -124.5t-159.5 -282.5h-270q13 66 61 129.5t111 99.5q41 25 125 34l11 1l23 144l-13 -1q-251 -23 -381 -213q-57 -83 -82 -194h-159l-23 -147h158l-163 -1023h146l162 1023h269l-163 -1023h147l162 1023l283 -2q-16 -95 -111 -690z" />
    <glyph glyph-name="f_t.liga" unicode="ft" horiz-adv-x="1166" 
d="M726 331q-14 -73 -9 -134t27.5 -105t76.5 -68.5t138 -24.5q18 0 103 5l17 1l-39 146l-9 -1q-5 0 -23.5 -2t-28.5 -2q-80 0 -99 41q-21 46 -7 144l109 690h250l23 147h-250l65 412h-145l-65 -410h-283q13 66 61 129.5t111 99.5q41 25 129 34l11 1l23 144l-13 -1
q-117 -11 -218 -64t-167 -149q-51 -74 -80 -194h-161l-23 -147h158l-163 -1023h146l162 1023h284z" />
    <glyph glyph-name="t_t.liga" unicode="tt" horiz-adv-x="1115" 
d="M278 317q-14 -72 -8.5 -133t28 -104.5t76.5 -68t137 -24.5q14 0 104 5l17 1l-40 145l-9 -1l-51 -3q-82 0 -100 39q-21 48 -7 144l112 713h251l-114 -713q-14 -72 -9 -132.5t27 -104.5t75.5 -68.5t136.5 -24.5q15 0 105 5l17 1l-39 145l-9 -1q-51 -3 -52 -3q-81 0 -100 39
q-19 44 -5 144l112 713h249l23 146h-249l64 404h-145l-64 -404h-251l64 404h-145l-64 -404h-141l-23 -146h141z" />
    <glyph glyph-name=".notdef" horiz-adv-x="1000" 
d="M88 2l229 1446h824l-229 -1446h-824zM626 810l400 568h-614zM860 192l169 1066l-372 -532zM201 196l368 530l-201 524zM206 74h614l-219 566z" />
    <glyph glyph-name=".null" horiz-adv-x="0" 
 />
    <glyph glyph-name="nonmarkingreturn" horiz-adv-x="682" 
 />
    <glyph glyph-name="CR" unicode="&#xd;" horiz-adv-x="0" 
 />
    <glyph glyph-name="space" unicode=" " horiz-adv-x="850" 
 />
    <glyph glyph-name="exclam" unicode="!" horiz-adv-x="384" 
d="M366 1550l-178 -1130h145l178 1130h-145zM114 164q-7 -42 19 -73t69 -31q46 0 79.5 30t40.5 74q7 45 -17.5 74.5t-70.5 29.5q-45 0 -79 -30t-41 -74z" />
    <glyph glyph-name="quotedbl" unicode="&#x22;" horiz-adv-x="513" 
d="M352 1669l-70 -443h144l70 443h-144zM544 1669l-70 -443h145l70 443h-145z" />
    <glyph glyph-name="numbersign" unicode="#" horiz-adv-x="1430" 
d="M309 66h148l137 442h298l-137 -442h148l136 442h319l23 141h-297l106 339h308l22 139h-286l131 422h-147l-132 -422h-300l134 422h-148l-132 -422h-312l-22 -139h291l-105 -339h-301l-23 -141h278zM639 649l103 339h299l-102 -339h-300z" />
    <glyph glyph-name="dollar" unicode="$" horiz-adv-x="1269" 
d="M1058 804v1q-8 2 -13 4q-45 21 -94 30q-42 10 -89 18l87 549q245 -34 263 -320l1 -18l144 98l-1 8q-42 333 -385 373l34 212h-141l-34 -210q-90 -7 -175.5 -37.5t-159 -81t-125 -127t-65.5 -167.5q-20 -122 33 -209t165 -132q64 -27 199 -55l-84 -529q-150 18 -225 109.5
t-74 245.5l-1 16l-150 -75l1 -8q10 -190 121.5 -298.5t305.5 -130.5l-33 -211h141l33 209q89 5 173.5 33t157 76.5t123 123.5t64.5 166q39 247 -197 337zM808 1409l-82 -520q-73 18 -97 25q-61 18 -100 43q-97 63 -79 179q12 80 68 141.5t131 93t159 38.5zM759 211l80 500
q74 -18 144 -44q153 -58 130 -200q-20 -125 -127 -185q-92 -51 -227 -71z" />
    <glyph glyph-name="percent" unicode="%" horiz-adv-x="1704" 
d="M269 1145q-8 -63 -6 -120.5t23 -108.5t54 -88.5t87.5 -59t123.5 -21.5q87 0 159.5 32.5t122.5 89t82 126.5t44 150q42 264 -129 368q-63 37 -152 37q-87 0 -160.5 -34t-123 -92t-81 -129t-44.5 -150zM268 67h175l1244 1483h-175zM815 1145q-18 -110 -78.5 -184
t-163.5 -74q-54 0 -86 19q-8 4 -28 24q-67 78 -46 215q23 142 118 223q27 23 33 25q35 19 93 19q55 0 87 -18q12 -10 26 -26q68 -77 45 -223zM997 469q-17 -107 5.5 -196t94 -147.5t185.5 -58.5q173 0 287 129q96 111 121 273q8 63 6.5 121t-22 109t-53 88.5t-87.5 59.5
t-125 22q-87 0 -160.5 -33t-124 -89.5t-82.5 -127t-45 -150.5zM1545 469q-17 -110 -78.5 -187t-163.5 -77q-53 0 -88 20q-10 5 -28 23q-35 40 -46.5 99t-1.5 122q23 142 119 219q18 18 34 24q40 19 95 19q53 0 89.5 -22.5t52.5 -59.5t21 -84t-5 -96z" />
    <glyph glyph-name="ampersand" unicode="&#x26;" horiz-adv-x="1456" 
d="M153 412q-17 -106 9 -189.5t86 -136t145.5 -79.5t189.5 -27q237 0 472 185l119 -165h194l-201 274q155 187 200 463l1 11h-149l-1 -11q-32 -206 -134 -345l-348 478q13 9 61.5 43t74.5 53q243 171 270 342q23 146 -55.5 233t-228.5 87q-167 0 -281.5 -102.5
t-139.5 -264.5q-17 -102 9 -189.5t84 -182.5q-3 -2 -10.5 -6.5t-10.5 -7.5q-21 -13 -41 -32q-14 -10 -42 -32q-241 -200 -273 -399zM803 1081q-26 -19 -75.5 -54t-69.5 -50q-94 154 -73 286q15 98 83 158.5t167 60.5q82 0 126 -47.5t31 -126.5q-9 -56 -65 -117.5
t-124 -109.5zM973 272q-80 -69 -175 -107.5t-192 -38.5q-146 0 -236.5 75.5t-69.5 210.5q9 52 38 104t78 100.5t90 83t100 79.5z" />
    <glyph glyph-name="quotesingle" unicode="'" horiz-adv-x="320" 
d="M352 1669l-70 -443h144l70 443h-144z" />
    <glyph glyph-name="parenleft" unicode="(" horiz-adv-x="696" 
d="M464 -201q4 -4 13 -10t13 -9l8 -7l90 101l-8 7q-98 89 -153.5 188.5t-81.5 232.5q-43 209 1 489q46 287 163 511q113 217 359 398l9 6l-58 105l-11 -9q-278 -202 -417 -455q-129 -244 -178 -556q-22 -142 -22.5 -275.5t24 -266.5t87.5 -250t162 -200z" />
    <glyph glyph-name="parenright" unicode=")" horiz-adv-x="696" 
d="M68 -127l65 -101l10 8q281 206 414 456q126 239 176 555q52 322 -7.5 568.5t-262.5 442.5l-7 8l-97 -102l8 -6q87 -83 150.5 -187t85.5 -214q46 -214 -1 -510q-47 -295 -162 -512q-113 -217 -362 -400z" />
    <glyph glyph-name="asterisk" unicode="*" horiz-adv-x="1186" 
d="M752 997l190 -337l127 86l-192 332l411 124l-19 137l-416 -129l68 409h-143l-60 -409l-376 129l-64 -137l376 -124l-300 -332l102 -85z" />
    <glyph glyph-name="plus" unicode="+" horiz-adv-x="1257" 
d="M668 710l-75 -478h145l75 478h468l22 138h-468l74 464h-145l-74 -464h-468l-22 -138h468z" />
    <glyph glyph-name="comma" unicode="," horiz-adv-x="503" 
d="M66 -138l128 -104l7 3q90 43 147.5 113t71.5 159q10 62 -13.5 105.5t-87.5 43.5q-44 0 -79 -29t-42 -71q-6 -40 13 -67t57 -34q-22 -39 -55 -65q-16 -13 -57 -27q-14 -5 -37.5 -11.5t-28.5 -8.5z" />
    <glyph glyph-name="hyphen" unicode="-" horiz-adv-x="874" 
d="M220 832l-23 -144h698l23 144h-698z" />
    <glyph glyph-name="period" unicode="." horiz-adv-x="384" 
d="M102 89q-7 -42 19 -73t69 -31q46 0 79.5 30t40.5 74t-17.5 74t-69.5 30q-44 0 -79 -31t-42 -73z" />
    <glyph glyph-name="slash" unicode="/" horiz-adv-x="911" 
d="M927 1619l-864 -1774h153l863 1774h-152z" />
    <glyph glyph-name="zero" unicode="0" horiz-adv-x="1200" 
d="M337 73q102 -93 259 -93q164 0 295.5 95t216.5 252q78 144 113 362l36 228q14 87 15.5 168.5t-10.5 165t-48 157.5t-94 126q-100 93 -263 93q-160 0 -290.5 -96.5t-215.5 -250.5q-82 -142 -118 -362l-36 -228q-14 -86 -15 -168t11.5 -165.5t49 -157t94.5 -126.5zM825 195
q-96 -69 -205 -69q-80 0 -139.5 37t-90.5 95t-46.5 134.5t-15 150.5t12.5 147l37 230q11 73 34 147t62 149.5t88.5 133.5t120.5 94.5t151 36.5q83 0 143 -36t91.5 -93t46 -133.5t13 -150t-13.5 -149.5l-37 -230q-19 -119 -68.5 -237.5t-125.5 -202.5q-31 -35 -58 -54z" />
    <glyph glyph-name="one" unicode="1" horiz-adv-x="666" 
d="M646 1391l-220 -1391h152l252 1608h-136l-404 -331l65 -119z" />
    <glyph glyph-name="two" unicode="2" horiz-adv-x="1215" 
d="M144 119l-19 -119h1002l23 147h-781l446 437q240 232 340 391q63 99 79 202q35 216 -73 333t-331 117q-110 0 -209 -42.5t-171.5 -114t-121 -165.5t-65.5 -198l-2 -12h147l2 12q25 156 134 265t263 109q153 0 226.5 -78.5t49.5 -225.5q-9 -57 -43 -121.5t-91 -132.5
t-99 -113t-104 -106z" />
    <glyph glyph-name="three" unicode="3" horiz-adv-x="1195" 
d="M162 429q-33 -207 81 -328t327 -121q110 0 210.5 29t183 85t139 145t74.5 201q20 125 -31.5 225t-156.5 160q107 56 174.5 148t85.5 205q33 208 -85.5 328.5t-333.5 120.5q-140 0 -257.5 -53t-196.5 -155.5t-101 -240.5q-4 -23 -8 -73l-1 -10h146l2 11q1 8 2 16.5t2 18.5
t2 16q19 119 74 186q53 65 140 101.5t173 36.5q140 0 227.5 -83.5t66.5 -215.5t-132.5 -209.5t-252.5 -77.5h-213l-10 -148h199q75 0 140 -20.5t113 -58.5t71 -99t11 -135q-15 -98 -80 -169.5t-154 -105t-189 -33.5q-147 0 -232 79.5t-63 218.5q2 13 7.5 38.5t7.5 37.5l2 12
h-150l-2 -12q-2 -14 -6.5 -40.5t-5.5 -30.5z" />
    <glyph glyph-name="four" unicode="4" horiz-adv-x="1381" 
d="M945 0h149l62 398h200l23 146h-200l167 1064h-139l-1056 -1210h857zM462 544l696 800l-127 -800h-569z" />
    <glyph glyph-name="five" unicode="5" horiz-adv-x="1154" 
d="M169 497q-6 -103 16 -191.5t71 -157.5t132.5 -108.5t193.5 -39.5q139 0 260 65.5t205 186.5q76 112 104 283q12 88 6.5 167.5t-36.5 147t-80 117t-124.5 77t-170.5 27.5q-137 0 -254 -64l102 451h694l23 148h-833l-203 -877l95 -30l13 17q69 90 156 145.5t182 55.5
q78 0 141.5 -38t104.5 -103q18 -28 23 -44q31 -86 13 -200q-15 -94 -75 -188.5t-143 -138.5q-91 -49 -178 -49q-138 0 -215 101t-74 243l1 10h-150v-13z" />
    <glyph glyph-name="six" unicode="6" horiz-adv-x="1151" 
d="M1139 483q35 219 -76 355.5t-336 136.5q-207 0 -358 -123l11 68q13 85 41.5 164.5t74.5 152t106 126.5t141 86t173 32q139 0 256 -94l10 -8l85 136l-7 6q-144 106 -321 106q-230 0 -412 -153t-271 -416l-91 -569q-34 -215 77 -350t331 -135q176 0 318.5 90.5t210.5 254.5
q27 67 37 134zM951 380q-53 -102 -148.5 -162.5t-205.5 -60.5q-149 0 -228.5 92.5t-56.5 238.5q23 148 131 241t260 93q111 0 188 -61t97 -164q11 -63 4 -106q-1 -2 -1 -5q-18 -67 -40 -106z" />
    <glyph glyph-name="seven" unicode="7" horiz-adv-x="1216" 
d="M1118 1461l-900 -1461h165l1000 1608h-1040l-23 -144z" />
    <glyph glyph-name="eight" unicode="8" horiz-adv-x="1239" 
d="M1221 440q20 125 -31.5 225.5t-157.5 159.5q108 56 176 148t86 205q33 208 -86 328.5t-334 120.5t-369 -120t-187 -329q-18 -115 20 -207t129 -147q-125 -60 -207 -159.5t-102 -224.5q-19 -115 13 -208h-7l10 -18q13 -25 44 -30l-21 -8q67 -97 176.5 -146.5t244.5 -49.5
q110 0 210 29t181.5 85t137.5 145t74 201zM760 895q-144 0 -229.5 76t-64.5 211q22 138 130.5 218.5t254.5 80.5q140 0 227.5 -83.5t66.5 -215.5t-132.5 -209.5t-252.5 -77.5zM1071 434q-16 -100 -82 -171.5t-155.5 -104t-192.5 -32.5q-77 0 -142.5 19t-114 55.5t-70.5 97
t-10 136.5q15 99 82 171.5t157.5 107t192.5 34.5q75 0 140 -20.5t113 -58.5t71 -99t11 -135z" />
    <glyph glyph-name="nine" unicode="9" horiz-adv-x="1151" 
d="M1152 560l89 563q35 221 -73 357t-333 136q-223 0 -379 -137.5t-190 -356.5q-34 -212 81.5 -344.5t332.5 -132.5q211 0 358 122l-10 -67q-17 -108 -58 -205t-105.5 -178.5t-160 -130t-209.5 -48.5q-139 0 -259 93l-11 8l-83 -135l8 -6q145 -108 321 -108q226 0 411 156
t270 414zM1095 1131q-23 -148 -131 -241t-260 -93q-110 0 -187 61.5t-97 164.5q-11 64 -4 105v4q16 60 40 107q54 101 149.5 161.5t204.5 60.5q150 0 229 -92t56 -238z" />
    <glyph glyph-name="colon" unicode=":" horiz-adv-x="384" 
d="M253 1040q-7 -42 18.5 -73t68.5 -31q46 0 80 30t41 74t-17.5 74.5t-70.5 30.5q-44 0 -78.5 -31t-41.5 -74zM102 89q-7 -42 19 -73t69 -31q46 0 79.5 30t40.5 74t-17.5 74t-69.5 30q-44 0 -79 -31t-42 -73z" />
    <glyph glyph-name="semicolon" unicode=";" horiz-adv-x="503" 
d="M350 1040q-7 -42 18 -73t69 -31q46 0 80 30t41 74t-17.5 74.5t-70.5 30.5q-45 0 -79 -31t-41 -74zM66 -138l128 -104l7 3q90 43 147.5 113t71.5 159q10 62 -13.5 105.5t-87.5 43.5q-44 0 -79 -29t-42 -71q-6 -40 13 -67t57 -34q-22 -39 -55 -65q-16 -13 -57 -27
q-14 -5 -37.5 -11.5t-28.5 -8.5z" />
    <glyph glyph-name="less" unicode="&#x3c;" horiz-adv-x="1210" 
d="M198 693l948 -541l26 161l-759 433l896 432l25 160l-1120 -541z" />
    <glyph glyph-name="equal" unicode="=" horiz-adv-x="1186" 
d="M255 1054l-22 -138h1010l22 138h-1010zM188 631l-22 -140h1010l22 140h-1010z" />
    <glyph glyph-name="greater" unicode="&#x3e;" horiz-adv-x="1210" 
d="M138 313l-26 -161l1120 541l16 104l-948 541l-25 -160l761 -432z" />
    <glyph glyph-name="question" unicode="?" horiz-adv-x="1131" 
d="M607 768l-62 -388h142l45 284q104 32 184.5 74t146 101.5t107 141t58.5 184.5q30 196 -79 300.5t-312 104.5q-455 0 -568 -433l-2 -9l122 -54l4 15q55 177 151 260.5t271 83.5q137 0 213 -69.5t56 -198.5q-33 -204 -203 -296q-8 -4 -67 -31q-112 -45 -198 -67zM477 164
q-7 -42 19 -73t69 -31q46 0 79.5 30t40.5 74t-18 74t-70 30t-79 -30t-41 -74z" />
    <glyph glyph-name="at" unicode="@" horiz-adv-x="1984" 
d="M203 723q-24 -132 -17.5 -253.5t33.5 -227t86.5 -191.5t142.5 -147.5t201 -95t262 -33.5q251 0 446 116l10 6l-48 127l-12 -7q-182 -95 -368 -95q-117 0 -214 29t-166 82t-119.5 126.5t-73.5 162.5t-29.5 190.5t13.5 210.5q26 169 91.5 320t182 286.5t270.5 219.5
q197 106 412 106q708 0 588 -759q-39 -252 -136 -424q-27 -48 -42 -69q-73 -89 -161 -89q-47 0 -82 40q-22 25 -22 90v26q2 14 3 22l195 826l-136 10l-25 -101q-92 133 -281 133q-105 0 -199 -56.5t-158 -149.5q-68 -99 -106 -249q-49 -198 -55 -238q-9 -72 -6 -139
t28.5 -126t65 -102.5t103 -68.5t143.5 -25q164 0 294 122q20 -76 74 -120.5t138 -44.5q88 0 166 46.5t130 115.5t94.5 159.5t65 168t36.5 151.5l15 77q38 249 12 431q-8 48 -13 68q-22 68 -67 141q-179 284 -635 284q-188 0 -355.5 -57.5t-295.5 -158.5t-227.5 -238
t-162 -295.5t-89.5 -332.5zM1357 672q-14 -56 -41 -110t-65.5 -101t-91 -75.5t-110.5 -28.5q-123 0 -184 91.5t-41 216.5q5 30 15 65l41 157q29 105 66 171t114 113q59 34 122 34q89 0 146 -46t75.5 -117.5t4.5 -159.5q-6 -32 -10 -48q-4 -17 -41 -162z" />
    <glyph glyph-name="A" unicode="A" horiz-adv-x="1517" 
d="M88 0h162l309 578h584l125 -578h161l-347 1608h-136zM636 726l339 644l137 -644h-476z" />
    <glyph glyph-name="B" unicode="B" horiz-adv-x="1296" 
d="M1282 466q22 138 -20.5 243t-152.5 164q105 57 162.5 134t75.5 190q14 90 -5.5 161.5t-63 117.5t-109.5 76.5t-139 43t-156 12.5h-531l-255 -1608h12l570 3q117 1 217 28t182.5 81.5t138 144.5t74.5 209zM467 1463h384q61 0 113 -7.5t101 -26.5t81.5 -48.5t47.5 -77.5
t5 -109q-20 -124 -131.5 -191t-249.5 -67h-435zM694 149h-432l101 639h452q67 0 108 -8t87 -34q153 -81 121 -282q-13 -82 -53 -144t-99.5 -98.5t-131 -54.5t-153.5 -18z" />
    <glyph glyph-name="C" unicode="C" horiz-adv-x="1306" 
d="M197 690q-12 -76 -12.5 -149.5t12 -144t37 -132.5t65 -114.5t94 -90t126 -58.5t158.5 -21q190 0 338.5 97.5t254.5 274.5l5 10l-113 79l-7 -13q-176 -302 -454 -302q-77 0 -139.5 22.5t-103.5 62.5t-71 94t-41.5 116.5t-14 131t10.5 137.5l37 230q13 85 41.5 164.5
t74.5 152t106 126.5t141 86t173 32q279 0 359 -303l3 -13l139 84l-3 9q-50 175 -168 272t-307 97q-180 0 -329.5 -90.5t-248.5 -253.5q-92 -150 -127 -365z" />
    <glyph glyph-name="D" unicode="D" horiz-adv-x="1303" 
d="M343 1608l-255 -1608h12q59 0 166 1t195 1.5t166 0.5q144 0 268.5 59t210.5 157.5t142 220t77 253.5l35 221q16 89 11 174.5t-23 162.5t-60 142.5t-98.5 113t-139 74.5t-181.5 27h-526zM1176 693q-14 -87 -43 -166t-76 -149t-107.5 -121t-141.5 -81t-173 -30q-4 0 -373 3
l205 1314h371q32 0 78.5 -11.5t78.5 -26.5q70 -31 120 -86t73.5 -121.5t30.5 -144.5t-8 -156z" />
    <glyph glyph-name="E" unicode="E" horiz-adv-x="1189" 
d="M343 1608l-255 -1608l1013 3l24 146h-863l101 639h616l27 148h-623l84 527h866l23 145h-1013z" />
    <glyph glyph-name="F" unicode="F" horiz-adv-x="1189" 
d="M343 1608l-255 -1608h150l125 788h616l27 148h-623l84 527h866l23 145h-1013z" />
    <glyph glyph-name="G" unicode="G" horiz-adv-x="1306" 
d="M1117 366l-1 -1v-1q-1 -1 -7 -9q-8 -13 -18 -25q-6 -8 -13 -16.5t-12 -14.5t-6 -7q-149 -166 -359 -166q-77 0 -139.5 22.5t-103.5 62.5t-71 94t-41.5 116.5t-14 131t10.5 137.5l37 230q13 85 41.5 164.5t74.5 152t106 126.5t141 86t173 32q279 0 359 -303l3 -13l139 84
l-3 9q-50 175 -168 272t-307 97q-180 0 -329.5 -90.5t-248.5 -253.5q-92 -150 -127 -365l-36 -228q-12 -76 -12.5 -149.5t12 -144t37.5 -132.5t65.5 -114.5t94 -90t126 -58.5t158.5 -21q152 0 284 66.5t232 192.5q1 1 5.5 7.5t11.5 16t13 17.5q5 5 12.5 15.5t7.5 11.5l6 9
q2 3 3 6l1 4l93 589h-569l-22 -141h426z" />
    <glyph glyph-name="H" unicode="H" horiz-adv-x="1191" 
d="M343 1608l-255 -1608h150l125 788h716l-125 -788h149l255 1608h-147l-107 -672h-721l107 672h-147z" />
    <glyph glyph-name="I" unicode="I" horiz-adv-x="326" 
d="M343 1608l-255 -1608h150l252 1608h-147z" />
    <glyph glyph-name="J" unicode="J" horiz-adv-x="1190" 
d="M177 565q-14 -77 -10 -149t20 -134.5t51.5 -114.5t84 -89t118 -57.5t154.5 -20.5q236 0 395 148.5t196 381.5l171 1078h-138l-169 -1070q-6 -39 -28 -99q-54 -137 -159.5 -216.5t-244.5 -79.5q-92 0 -159 33.5t-100 91t-46 134t1 163.5l2 11h-137z" />
    <glyph glyph-name="K" unicode="K" horiz-adv-x="1315" 
d="M343 1608l-255 -1608h150l113 711l133 105l561 -816h182l-620 913l874 694h-207l-896 -704l112 705h-147z" />
    <glyph glyph-name="L" unicode="L" horiz-adv-x="1189" 
d="M343 1608l-255 -1608l1013 3l24 146h-863l228 1459h-147z" />
    <glyph glyph-name="M" unicode="M" horiz-adv-x="1463" 
d="M343 1608l-255 -1608h150l176 1133l249 -1133h134l611 1140l-183 -1140h150l255 1608h-138l-725 -1373l-284 1332q1 2 1.5 5.5t0.5 5.5q0 3 1 7.5t2 7.5v3l2 12h-147z" />
    <glyph glyph-name="N" unicode="N" horiz-adv-x="1191" 
d="M343 1608l-255 -1608h150l199 1270l539 -1270h127l255 1608h-147l-203 -1267l-535 1267h-130z" />
    <glyph glyph-name="O" unicode="O" 
d="M197 690q-12 -76 -12.5 -149.5t12 -144t37 -132.5t65 -114.5t94 -90t126 -58.5t158.5 -21q122 0 228 39.5t184 107t138.5 159t97.5 192.5t54 211l36 228q17 88 13 175t-19.5 166t-55 146.5t-94.5 117t-137.5 77.5t-183.5 28q-181 0 -329.5 -90t-248.5 -254
q-91 -147 -127 -365zM1234 689q-14 -86 -41.5 -165.5t-73 -153t-104.5 -127t-140 -85.5t-174 -32q-77 0 -139.5 22.5t-103.5 62.5t-71 94t-41.5 116.5t-14 131t10.5 137.5l37 230q13 85 41.5 164.5t74.5 152t106 126.5t141 86t173 32q131 0 223.5 -72t125.5 -193
q33 -123 7 -297z" />
    <glyph glyph-name="P" unicode="P" horiz-adv-x="1237" 
d="M88 0h150l124 788h374q107 0 201.5 21t180.5 66t144.5 127.5t76.5 194.5q14 90 -5.5 161.5t-63 117.5t-109.5 76.5t-139 43t-156 12.5h-523zM384 931l83 532h376q76 0 139 -12.5t117 -41.5t79.5 -83t13.5 -129t-54.5 -129.5t-105.5 -83t-130 -41t-144 -12.5h-374z" />
    <glyph glyph-name="Q" unicode="Q" horiz-adv-x="1386" 
d="M197 690q-12 -76 -12.5 -149.5t12 -144t37 -132.5t65 -114.5t94 -90t126 -58.5t158.5 -21q217 0 395 138l50 -118h176l-101 242q141 185 182 447l36 228q17 88 13 175t-19.5 166t-55 146.5t-94.5 117t-137.5 77.5t-183.5 28q-181 0 -329.5 -90t-248.5 -254
q-92 -149 -127 -365zM1017 249q-137 -123 -316 -123q-77 0 -139.5 22.5t-103.5 62.5t-71 93.5t-41.5 116.5t-14 131.5t10.5 137.5l37 230q13 85 41.5 164.5t74.5 152t106 126.5t141 86t173 32q131 0 223.5 -72t125.5 -193q33 -124 7 -297l-37 -230q-28 -175 -101 -296
l-48 113h-178z" />
    <glyph glyph-name="R" unicode="R" horiz-adv-x="1261" 
d="M88 0h150l124 788h404l244 -788h163l-247 805q170 32 279.5 130.5t135.5 261.5q14 90 -5.5 161.5t-63 117.5t-109.5 76.5t-139 43t-156 12.5h-525zM384 931l83 532h378q268 0 330 -127q30 -69 19 -139q-12 -75 -54.5 -129.5t-105.5 -83t-130 -41t-144 -12.5h-376z" />
    <glyph glyph-name="S" unicode="S" horiz-adv-x="1257" 
d="M149 375q27 -191 151 -293t329 -102q94 0 188.5 28.5t176 80.5t138.5 133.5t73 179.5q11 78 -2 145q-29 131 -160 214q-56 36 -123 64q-71 27 -130 48q-101 37 -202 99.5t-125 126.5q-19 53 -8 117q11 68 51.5 122t98.5 86t124.5 48.5t134.5 16.5q115 0 201 -44.5
t124 -136.5q12 -30 19 -61q1 -5 1.5 -16.5t2.5 -18.5q3 -11 12 -37l3 -12l137 67l-1 9q-18 191 -146.5 295t-332.5 104q-100 0 -195.5 -28.5t-175.5 -81t-136 -136t-72 -186.5q-31 -197 114 -314q20 -16 54 -36q107 -67 248 -117q89 -33 170 -73q3 -2 13.5 -7t22.5 -11
l14 -7q140 -92 118 -239q-14 -89 -79 -153t-149 -92t-176 -28q-149 0 -248.5 73t-103.5 207l-1 4l-29 35l-124 -64v-9z" />
    <glyph glyph-name="T" unicode="T" horiz-adv-x="1253" 
d="M785 1459l-231 -1459h146l231 1459l465 -1l24 150h-1077l-24 -150z" />
    <glyph glyph-name="U" unicode="U" 
d="M197 690q-12 -76 -12.5 -149.5t12 -144t37 -132.5t65 -114.5t94 -90t126 -58.5t158.5 -21q122 0 228 39.5t184 107t138.5 159t97.5 192.5t54 211l146 919h-145l-146 -919q-14 -86 -41.5 -165.5t-73 -153t-104.5 -127t-140 -85.5t-174 -32q-77 0 -139.5 22.5t-103.5 62.5
t-71 94t-41.5 116.5t-14 131t10.5 137.5l146 918h-145z" />
    <glyph glyph-name="V" unicode="V" horiz-adv-x="1517" 
d="M343 1608l348 -1608h136l857 1608h-162l-727 -1373l-289 1373h-163z" />
    <glyph glyph-name="W" unicode="W" horiz-adv-x="1808" 
d="M343 1607l126 -1605h135l497 1250l102 -1250h134l638 1605h-149l-501 -1266l-99 1266h-137l-497 -1265l-99 1265h-150z" />
    <glyph glyph-name="X" unicode="X" horiz-adv-x="1359" 
d="M714 801l-624 -801h200l6 39l488 616l289 -617l-6 -38h200l-370 801l629 807h-180l-516 -662l-313 662h-174z" />
    <glyph glyph-name="Y" unicode="Y" horiz-adv-x="1363" 
d="M734 804l-127 -804h146l127 802l650 806h-182l-516 -662l-313 662h-176z" />
    <glyph glyph-name="Z" unicode="Z" horiz-adv-x="1258" 
d="M1146 1461l-1058 -1461l1047 3l24 146h-793l1059 1459h-1048l-23 -144z" />
    <glyph glyph-name="bracketleft" unicode="[" horiz-adv-x="665" 
d="M369 1772l-314 -1981h489l22 142h-348l270 1701h348l22 138h-489z" />
    <glyph glyph-name="backslash" unicode="\" horiz-adv-x="911" 
d="M344 1619l302 -1774h152l-301 1774h-153z" />
    <glyph glyph-name="bracketright" unicode="]" horiz-adv-x="665" 
d="M77 -67l-22 -142h489l314 1981h-489l-22 -138h348l-270 -1701h-348z" />
    <glyph glyph-name="asciicircum" unicode="^" horiz-adv-x="1333" 
d="M882 1696l-666 -889h171l518 690l296 -690h172l-385 889h-106z" />
    <glyph glyph-name="underscore" unicode="_" horiz-adv-x="1330" 
d="M96 50l-22 -138h1154l22 138h-1154z" />
    <glyph glyph-name="grave" unicode="`" horiz-adv-x="595" 
d="M354 1656l185 -417h159l-174 417h-170z" />
    <glyph glyph-name="a" unicode="a" horiz-adv-x="1104" 
d="M981 707h-222q-147 0 -285 -40.5t-231 -135.5q-85 -88 -104 -207q-25 -159 72 -252t262 -93q233 0 415 142l-19 -122h146l107 673q28 173 -8 272q-40 108 -133 166t-219 58q-206 0 -342.5 -129t-168.5 -331l-8 -53h145l1 11q16 97 57.5 173.5t117 126t174.5 49.5
q108 0 176.5 -60t73.5 -162q1 -38 -7 -86zM958 562l-34 -211l-3 -6q-4 -5 -14 -17q-5 -8 -13 -17t-8 -10q-74 -88 -175.5 -132.5t-214.5 -44.5q-95 0 -160 54.5t-51 141.5q10 66 59 116t119 76t139.5 38t136.5 12h219z" />
    <glyph glyph-name="b" unicode="b" horiz-adv-x="1054" 
d="M244 91q112 -107 282 -107q197 0 336.5 126.5t170.5 318.5q8 46 22.5 138t21.5 138q0 2 1.5 7.5t1.5 6.5q31 195 -68 322.5t-298 127.5q-175 0 -316 -107l82 518h-142l-250 -1580h142zM712 172q-70 -40 -162 -40q-110 0 -173 61t-75 168q-6 54 -1 87l41 257q5 36 29 89
q45 105 128 166t192 61q86 0 148.5 -44t88.5 -120q9 -30 12 -60q2 -35 -7 -95l-39 -250q-30 -192 -182 -280z" />
    <glyph glyph-name="c" unicode="c" horiz-adv-x="1008" 
d="M204 659l-9 11l-35 -223q-23 -147 14 -244q41 -109 131 -165t218 -56q131 0 241.5 63.5t187.5 179.5l5 8l-100 95l-9 -14q-126 -183 -302 -183q-107 0 -175.5 60.5t-74.5 160.5q-3 43 6 98l40 250q23 141 113 230t231 89q177 0 244 -185l5 -13l130 95l-3 7
q-40 117 -131 181t-223 64q-201 0 -338.5 -129.5t-168.5 -327.5q-7 -39 3 -52z" />
    <glyph glyph-name="d" unicode="d" horiz-adv-x="1053" 
d="M157 435q-31 -195 68 -323t298 -128q176 0 314 107l-14 -91h142l250 1580h-142l-82 -518q-104 107 -280 107q-205 0 -341.5 -127.5t-168.5 -328.5zM868 367q-44 -108 -127.5 -171.5t-193.5 -63.5q-108 0 -176.5 60.5t-74.5 162.5q-2 37 7 97l39 250q23 140 114.5 229.5
t231.5 89.5q104 0 166.5 -55.5t77.5 -155.5q9 -62 3 -105l-41 -257q-5 -31 -26 -81z" />
    <glyph glyph-name="e" unicode="e" horiz-adv-x="1046" 
d="M175 208q42 -109 131.5 -165t217.5 -56q131 0 241.5 63.5t186.5 179.5l6 8l-100 95l-9 -14q-127 -184 -303 -184q-102 0 -171.5 62t-77.5 160q-4 32 6 98l18 111h727l1 11q24 142 27 188q8 106 -20 184q-37 108 -127.5 163.5t-216.5 55.5q-210 0 -344.5 -125.5
t-167.5 -332.5l-39 -258q-24 -144 14 -244zM928 711h-584q26 140 114.5 226.5t228.5 86.5q103 0 171.5 -62t75.5 -161q3 -37 -6 -90z" />
    <glyph glyph-name="f" unicode="f" horiz-adv-x="813" 
d="M810 1170h-233q13 66 60.5 129t111.5 100q56 35 187 37h12l27 144h-13q-299 0 -448 -216q-57 -83 -82 -194h-159l-23 -147h158l-163 -1023h146l162 1023h234z" />
    <glyph glyph-name="g" unicode="g" horiz-adv-x="1054" 
d="M93 -82q15 -159 111 -249t261 -90q130 0 243 60.5t182 173.5q62 97 86 249l174 1106h-145l-17 -101q-103 102 -277 102q-205 0 -341.5 -127.5t-168.5 -328.5l-44 -278q-31 -195 68 -323t298 -128q173 0 309 101l-3 -23q-27 -173 -137 -264q-25 -21 -44 -32
q-67 -40 -160 -40q-116 0 -178.5 67t-75.5 184l-1 14l-141 -64zM850 324q-48 -90 -127 -141t-176 -51q-108 0 -176 60.5t-75 162.5q-2 37 7 97l39 250q23 140 114.5 229.5t231.5 89.5q98 0 160 -50.5t82 -142.5q12 -54 8 -74l-56 -357q-5 -25 -32 -73z" />
    <glyph glyph-name="h" unicode="h" horiz-adv-x="1054" 
d="M822 2l142 -4l2 12l114 709q31 195 -68 322.5t-298 127.5q-175 0 -316 -107l82 515h-142l-250 -1577h142l2 12q36 231 110 693q5 36 29 89q45 105 128 166t192 61q86 0 148.5 -44t88.5 -120q9 -30 12 -60q2 -35 -7 -95z" />
    <glyph glyph-name="i" unicode="i" horiz-adv-x="382" 
d="M322 1478q-7 -42 19 -72.5t68 -30.5q45 0 78.5 30t40.5 73t-17.5 72.5t-69.5 29.5q-44 0 -78 -29.5t-41 -72.5zM303 1167l-185 -1167h146l185 1167h-146z" />
    <glyph glyph-name="j" unicode="j" horiz-adv-x="344" 
d="M285 1478q-7 -43 17.5 -73t69.5 -30q44 0 77.5 30t40.5 73t-17.5 72.5t-68.5 29.5q-45 0 -78.5 -29.5t-40.5 -72.5zM-273 -274l-64 -147h16q233 0 376 128t179 355q67 422 172 1094l2 12h-146l-176 -1106q-16 -106 -55.5 -175.5t-126.5 -120.5q-65 -38 -167 -40h-10z" />
    <glyph glyph-name="k" unicode="k" horiz-adv-x="1047" 
d="M338 1580l-250 -1580h144l82 517l73 55l393 -572h179l-453 666l630 501h-205l-588 -462l138 875h-143z" />
    <glyph glyph-name="l" unicode="l" horiz-adv-x="392" 
d="M490 -10l-39 143h-8q-3 0 -9.5 0.5t-9.5 0.5h-12q-4 0 -7 -1q-3 0 -5 -1l-4 -1h-18q-69 0 -87 39q-21 46 -5 144l198 1266h-145l-201 -1266q-9 -57 -9.5 -103.5t11.5 -89.5t37 -72t71 -46.5t110 -17.5q37 0 115 4z" />
    <glyph glyph-name="m" unicode="m" horiz-adv-x="1780" 
d="M835 2l-10 12l-2 -17l13 1q57 3 58 3q8 0 17.5 -0.5t21.5 -1.5t18 -1l13 -1v5h1l2 12l111 697q5 34 23 80q42 106 125.5 168t192.5 62q84 0 145.5 -41t87.5 -113q15 -41 16 -70q2 -35 -7 -95l-111 -700l141 -4l2 12l111 697q21 132 -11 235t-122 165t-228 62
q-246 0 -394 -189q-91 189 -335 189q-175 0 -316 -107l17 103h-142l-185 -1165h142l2 12q72 462 110 693q6 38 35 102q47 100 128 157t186 57q84 0 145 -41t87 -113q16 -38 17 -70q2 -35 -7 -95l-78 -519q-24 -174 -20 -181z" />
    <glyph glyph-name="n" unicode="n" horiz-adv-x="1054" 
d="M822 2l142 -4l2 12l114 709q31 195 -68 322.5t-298 127.5q-175 0 -316 -107l17 103h-142l-185 -1165h142l2 12q36 231 110 693q5 36 29 89q45 105 128 166t192 61q86 0 148.5 -44t88.5 -120q9 -30 12 -60q2 -35 -7 -95z" />
    <glyph glyph-name="o" unicode="o" horiz-adv-x="1047" 
d="M205 661l-10 11q-6 -40 -19 -119t-19 -118q-31 -197 67 -321.5t300 -124.5q210 0 341 126.5t164 333.5l36 223l7 41q21 130 -12 231.5t-122.5 161t-225.5 59.5q-207 0 -343 -124.5t-168 -327.5q-6 -39 4 -52zM926 702l-39 -250q-23 -140 -113.5 -230t-227.5 -90
q-108 0 -176 60.5t-74 162.5q-2 37 7 97l39 250q23 141 114 230t231 89q101 0 169.5 -63t76.5 -161q2 -34 -7 -95z" />
    <glyph glyph-name="p" unicode="p" horiz-adv-x="1054" 
d="M21 -421h142l82 515q106 -105 282 -105q200 0 338.5 127t170.5 323q12 76 40 268l3 15q32 196 -66 323t-298 127q-178 0 -316 -105l16 101h-142zM894 455q-22 -140 -113.5 -230t-230.5 -90q-106 0 -168.5 58t-77.5 161q-8 62 -2 99l40 257q4 25 26 80q45 109 128.5 172
t194.5 63q84 0 145 -40.5t89 -113.5q15 -47 16 -70q2 -34 -7 -94z" />
    <glyph glyph-name="q" unicode="q" horiz-adv-x="1053" 
d="M756 -421h142l252 1589h-142l-16 -101q-102 105 -280 105q-206 0 -342.5 -129t-168.5 -331l-43 -267q-31 -199 66 -327.5t300 -128.5q175 0 314 105zM866 364q-46 -106 -128.5 -167.5t-190.5 -61.5q-109 0 -177 60.5t-73 163.5q-1 48 6 96l40 252q15 99 63 168
q49 72 123 111t159 39q110 0 173 -60.5t74 -167.5q6 -54 0 -87l-40 -257q-6 -33 -29 -89z" />
    <glyph glyph-name="r" unicode="r" horiz-adv-x="883" 
d="M273 1165l-185 -1165h142l2 12q36 231 110 693q4 29 27 85q46 107 129 169t193 62q88 0 180 -60l10 -7l87 136l-10 5q-115 74 -244 74q-175 0 -316 -107l17 103h-142z" />
    <glyph glyph-name="s" unicode="s" horiz-adv-x="1116" 
d="M164 171q107 -191 394 -191q61 0 122.5 10t124.5 34t113 59.5t86.5 91t47.5 123.5q15 97 -28.5 159.5t-133.5 106.5q-56 25 -78 32q-14 5 -131 40q-136 39 -199 77q-7 3 -15 11l-16 14q-39 29 -53 51.5t-8 64.5q8 47 52 83q14 13 44 29q96 54 239 54q120 0 204 -48
q78 -42 95 -170l2 -14l136 60v9q-3 77 -40.5 138t-97.5 96.5t-131 54t-148 18.5q-79 0 -156 -16.5t-150 -51.5t-124 -99.5t-65 -150.5q-14 -88 22 -150q13 -22 32 -39q53 -56 130.5 -90.5t183.5 -65.5q184 -50 259 -113q25 -25 27 -29q13 -32 8 -70q-7 -45 -44.5 -79
t-91 -52t-105 -26.5t-98.5 -8.5q-123 0 -205 55t-88 163v16l-146 -64l2 -9q10 -80 28 -113z" />
    <glyph glyph-name="t" unicode="t" horiz-adv-x="721" 
d="M278 317q-14 -72 -8.5 -133t28 -104.5t76.5 -68t137 -24.5q14 0 104 5l17 1l-40 145l-9 -1l-51 -3q-82 0 -100 39q-21 48 -7 144l112 713h251l23 146h-251l64 404h-145l-64 -404h-141l-23 -146h141z" />
    <glyph glyph-name="u" unicode="u" horiz-adv-x="1053" 
d="M159 449q-21 -132 12 -235.5t124 -165.5t229 -62q179 0 313 103l-14 -89h142l185 1168h-142l-114 -718q-22 -137 -116 -226.5t-231 -89.5q-105 0 -175 61.5t-76 160.5q-2 38 7 98l113 712l-142 4l-2 -12q-83 -518 -113 -709z" />
    <glyph glyph-name="v" unicode="v" horiz-adv-x="1173" 
d="M273 1168l248 -1168h135l614 1168h-158l-488 -932l-191 932h-160z" />
    <glyph glyph-name="w" unicode="w" horiz-adv-x="1737" 
d="M273 1168l188 -1168h124l427 891l142 -891h123l557 1168h-149l-425 -903l-143 903h-127l-425 -903l-141 903h-151z" />
    <glyph glyph-name="x" unicode="x" horiz-adv-x="1246" 
d="M626 579l-538 -579h181l428 465l264 -431l-5 -34h200l-353 579l540 589h-177l-433 -472l-285 472h-175z" />
    <glyph glyph-name="y" unicode="y" horiz-adv-x="1185" 
d="M29 -435q70 -12 107 -12q158 0 277 93.5t197 247.5q7 13 42.5 84.5t55.5 109.5l574 1080h-157l-485 -907l-197 907h-158l244 -1120l-55 -105q-52 -102 -107.5 -157t-151.5 -80q-25 -7 -53 -7q-10 0 -30 2.5t-26 2.5h-41l-3 -8q-2 -3 -18 -43q-6 -12 -12 -28q-1 -1 -2 -4
t-2 -5l-2 -5l-7 -44z" />
    <glyph glyph-name="z" unicode="z" horiz-adv-x="1181" 
d="M100 74l6 -74l939 2l22 138h-714l925 1028l-1000 -2l-22 -139h714l-846 -943z" />
    <glyph glyph-name="braceleft" unicode="{" horiz-adv-x="770" 
d="M338 76q-22 -142 48 -215.5t215 -73.5h47l22 140h-12q-93 0 -141 33.5t-35 115.5l80 506q22 137 -60 211q106 75 127 209l79 503q25 150 224 150h12l22 137h-12q-345 0 -390 -287l-79 -503q-6 -41 -24 -65q-3 -6 -19 -19q-66 -58 -206 -58h-12l-21 -137h12q134 0 171 -32
q4 -2 17 -19.5t14 -20.5q9 -24 1 -69z" />
    <glyph glyph-name="bar" unicode="|" horiz-adv-x="317" 
d="M357 1696l-314 -1979h141l314 1979h-141z" />
    <glyph glyph-name="braceright" unicode="}" horiz-adv-x="770" 
d="M76 -73l-22 -140h12q103 0 181 26.5t135 93t73 169.5l80 506q8 51 56 96l7 7q1 1 3 2.5t3 2.5q24 17 79.5 25t101.5 8h12l21 137h-12q-44 0 -80 6t-68.5 21t-47.5 44.5t-8 70.5l79 503q24 152 -57 219.5t-240 67.5h-12l-22 -137h12q93 0 140.5 -34t34.5 -116l-79 -503
q-10 -61 6.5 -116t56.5 -93q-53 -39 -86.5 -94.5t-43.5 -116.5l-80 -506q-23 -149 -223 -149h-12z" />
    <glyph glyph-name="asciitilde" unicode="~" horiz-adv-x="1128" 
d="M211 733l-15 -51h145l4 10q19 53 36 86q30 54 54 64q20 7 50 7q31 0 71 -16q4 -2 14.5 -6.5t16.5 -7.5q4 -2 6 -2l2 -1q88 -62 132 -83q78 -39 159 -39q226 0 308 294l5 13h-146l-4 -10q-13 -39 -26 -71q-21 -48 -34 -62q-27 -25 -81 -25q-24 0 -35 4q-2 0 -34 12
q-3 2 -9.5 4.5t-9.5 3.5q-12 5 -17 9q-1 1 -3 2.5t-4 2.5q-5 5 -8 6q-5 3 -7 3q0 1 -3 1q-12 4 -28 17q-59 50 -110.5 69.5t-132.5 19.5q-223 0 -296 -254z" />
    <glyph glyph-name="exclamdown" unicode="&#xa1;" horiz-adv-x="384" 
d="M265 1120q-6 -42 19.5 -73t68.5 -31q45 0 79 30t41 74q8 44 -16.5 73.5t-70.5 29.5q-45 0 -79 -29.5t-42 -73.5zM258 863l-179 -1129h145l179 1129h-145z" />
    <glyph glyph-name="cent" unicode="&#xa2;" horiz-adv-x="1197" 
d="M513 -141h139l29 188q55 3 109 18q45 15 85 33q221 99 301 335l3 10l-133 50l-4 -15q-50 -177 -199 -248q-15 -7 -38 -14q-7 -3 -20.5 -7t-19.5 -6q-41 -11 -61 -14l144 908q119 -11 178 -81.5t68 -195.5l1 -14l144 61l-1 10q-13 99 -43 167.5t-98 116.5q-94 66 -227 76
l30 188h-139l-31 -191q-118 -16 -214.5 -70.5t-161.5 -136t-106 -178t-58 -207.5q-12 -87 -11 -167t26 -152t66.5 -128t111 -94.5t160.5 -51.5zM708 1091l-143 -900q-173 34 -220 192q-10 32 -15 82q-11 91 3 177q27 172 119.5 293.5t255.5 155.5z" />
    <glyph glyph-name="sterling" unicode="&#xa3;" horiz-adv-x="1346" 
d="M1324 417h-141l-2 -12q-35 -221 -219 -221q-59 0 -101 19t-90 60q57 84 72 184q20 132 -31 250h367l23 140h-470q-44 82 -69 148q-29 69 -17 153q22 140 119.5 217.5t242.5 77.5q130 0 186.5 -80.5t43.5 -213.5l-1 -17l151 58v8q14 179 -80 280.5t-278 101.5
q-202 0 -349.5 -117.5t-178.5 -314.5q-23 -152 55 -301h-205l-23 -140h306q43 -73 59 -128t4 -128q-8 -44 -30 -86q-56 44 -110.5 63t-132.5 19q-49 0 -83 -5q-19 -3 -60 -18q-63 -24 -105 -69t-51 -106q-13 -87 44 -134q12 -10 15 -12l5 -3q5 -3 9 -6q67 -38 151 -38
q173 0 314 106l33 -24q19 -14 31 -24q22 -14 38 -21q78 -37 174 -37q155 0 253 82.5t122 233.5zM566 244q-91 -60 -194 -60q-41 0 -71 13q-35 15 -31 42q3 24 41 41q37 18 94 18q52 0 84.5 -12t76.5 -42z" />
    <glyph glyph-name="currency" unicode="&#xa4;" horiz-adv-x="1335" 
d="M229 232l255 217q97 -73 244 -73q157 0 269 76l186 -220l117 101l-186 225q83 105 107 257q24 148 -23 249l252 220l-85 99l-249 -210q-94 79 -250 79q-158 0 -276 -79l-179 211l-120 -102l184 -216q-81 -102 -104 -251q-24 -153 27 -257l-257 -223zM1076 815
q-21 -135 -107 -218.5t-220 -83.5q-73 0 -129.5 28.5t-83.5 85.5q-8 16 -18 64q-12 65 -3 124q21 133 108 214.5t221 81.5q136 0 195 -80t37 -216z" />
    <glyph glyph-name="yen" unicode="&#xa5;" horiz-adv-x="1375" 
d="M672 344l-43 -277h142l43 277h435l23 140h-435l18 116h435l22 139h-379l599 811h-168l-548 -753l-312 753h-171l346 -811h-377l-22 -139h433l-18 -116h-433l-23 -140h433z" />
    <glyph glyph-name="brokenbar" unicode="&#xa6;" horiz-adv-x="319" 
d="M357 1696l-138 -872h143l138 872h-143zM181 588l-138 -871h143l138 871h-143z" />
    <glyph glyph-name="section" unicode="&#xa7;" horiz-adv-x="1236" 
d="M1014 405q97 42 161.5 110t79.5 161q23 143 -82 232q-20 17 -45 32l-34 14q-87 34 -240 55q-16 2 -44 8t-38 8q-42 8 -74.5 16.5t-68.5 25t-58 37t-33.5 53t-5.5 72.5q11 71 63.5 119t118 66.5t140.5 18.5q123 0 190.5 -40t79.5 -145l2 -17l145 88l-3 9q-16 71 -51.5 120
t-89.5 75t-114 36.5t-137 10.5q-83 0 -161.5 -20.5t-147.5 -60.5t-117.5 -107.5t-62.5 -154.5q-21 -139 58 -222q-97 -41 -161.5 -110t-79.5 -163q-25 -161 132 -254q62 -36 165 -60q77 -16 104 -19q101 -10 192 -40.5t122 -87.5q17 -39 10 -91q-12 -72 -64.5 -120
t-118 -66.5t-141.5 -18.5q-121 0 -189.5 41t-82.5 145l-2 17l-139 -87l1 -9q26 -144 144 -198q103 -46 246 -46q83 0 151 15q38 9 94 31q102 45 165.5 121t79.5 177q22 143 -59 223zM860 491q-69 28 -236 57l-11 2q-46 7 -93 20q-6 2 -41 13q-12 3 -40 13q-16 5 -37 16
q-26 17 -40 42q-21 32 -14 78q18 113 190 168q12 5 32 9q9 3 19 5q1 0 3.5 1t3.5 1h2q1 0 2 -1q3 0 9 -2q2 -1 5 -2l6 -2t4 -1q9 -3 29.5 -8t30.5 -8q44 -12 126 -23q62 -10 145 -33.5t115 -46.5q54 -41 43 -113q-21 -129 -253 -185z" />
    <glyph glyph-name="dieresis" unicode="&#xa8;" horiz-adv-x="790" 
d="M319 1385q-7 -43 18 -71.5t69 -28.5q48 0 78.5 27t37.5 73q4 16 0.5 39t-14.5 35q-21 27 -71 27q-48 0 -79 -26.5t-39 -74.5zM705 1385q-6 -41 19 -70.5t67 -29.5q49 0 79.5 26.5t38.5 73.5q8 46 -15.5 73.5t-71.5 27.5q-45 0 -77 -28.5t-40 -72.5z" />
    <glyph glyph-name="copyright" unicode="&#xa9;" horiz-adv-x="1718" 
d="M88 809q0 -339 212 -551t559 -212q231 0 406.5 96t270 269t94.5 398q0 227 -93.5 399.5t-269 267t-408.5 94.5q-173 0 -317.5 -55.5t-244 -155t-154.5 -241t-55 -309.5zM1485 809q0 -181 -77 -323t-220 -222t-329 -80q-139 0 -256.5 46.5t-199 129t-127 198.5t-45.5 251
q0 182 77.5 324t220.5 221t330 79q282 0 454 -173.5t172 -450.5zM540 746q0 -74 20.5 -143t60 -126t105 -91t147.5 -34q111 0 188 62t120 167l4 8l-118 80l-5 -13q-32 -79 -75 -122.5t-113 -43.5q-50 0 -89 22t-61.5 59.5t-34 81.5t-11.5 93v117q0 50 11 93.5t33.5 80t61 58
t89.5 21.5q62 0 106 -30q43 -32 83 -133l5 -15l118 80l-4 9q-95 229 -308 229q-85 0 -150.5 -33.5t-104.5 -90t-58.5 -125t-19.5 -145.5v-116z" />
    <glyph glyph-name="ordfeminine" unicode="&#xaa;" horiz-adv-x="696" 
d="M836 1324q18 115 -40 188t-175 73q-120 0 -200 -73.5t-98 -190.5l-9 -58h26q-59 -55 -73 -136q-15 -95 42 -151t156 -56q95 0 174 41l-5 -30h138l2 12q42 254 62 381zM580 1351q-61 -3 -115 -21q12 52 46.5 83t87.5 31q45 0 70 -24.5t27 -66.5q-91 0 -116 -2zM654 1132
q-65 -74 -167 -74q-35 0 -60.5 19t-21.5 48q8 48 76 71q57 19 119 19h79l-11 -64l-5 -8q-2 -2 -4 -4.5t-3 -4.5z" />
    <glyph glyph-name="guillemotleft" unicode="&#xab;" horiz-adv-x="948" 
d="M207 749l264 -462h185l-269 462l416 462h-185zM455 749l266 -462h184l-271 462l418 462h-184z" />
    <glyph glyph-name="logicalnot" unicode="&#xac;" horiz-adv-x="1228" 
d="M1108 710l-43 -276h144l65 414h-1052l-22 -138h908z" />
    <glyph glyph-name="uni00AD" unicode="&#xad;" horiz-adv-x="874" 
d="M220 832l-23 -144h698l23 144h-698z" />
    <glyph glyph-name="registered" unicode="&#xae;" horiz-adv-x="1718" 
d="M88 809q0 -339 212 -551t559 -212q231 0 406.5 96t270 269t94.5 398q0 227 -93.5 399.5t-269 267t-408.5 94.5q-173 0 -317.5 -55.5t-244 -155t-154.5 -241t-55 -309.5zM1485 809q0 -181 -77 -323t-220 -222t-329 -80q-139 0 -256.5 46.5t-199 129t-127 198.5t-45.5 251
q0 182 77.5 324t220.5 221t330 79q282 0 454 -173.5t172 -450.5zM596 349h142v414h132l194 -414h157l-202 435q81 27 127.5 85t46.5 142q0 66 -26.5 116t-72 77.5t-99.5 41t-117 13.5h-282v-910zM738 902l-1 219h141q174 0 174 -110q0 -109 -174 -109h-140z" />
    <glyph glyph-name="macron" unicode="&#xaf;" horiz-adv-x="915" 
d="M332 1464l-22 -138h715l22 138h-715z" />
    <glyph glyph-name="degree" unicode="&#xb0;" horiz-adv-x="792" 
d="M355 1685q-22 -137 49.5 -223t211.5 -86q138 0 236 87t119 222q21 136 -48.5 222t-208.5 86q-141 0 -239 -85.5t-120 -222.5zM829 1685q-13 -81 -61.5 -126t-129.5 -45q-76 0 -114 47.5t-26 123.5q12 77 64.5 124.5t129.5 47.5q82 0 116 -45.5t21 -126.5z" />
    <glyph glyph-name="plusminus" unicode="&#xb1;" horiz-adv-x="1228" 
d="M674 816l-83 -527h141l83 527h454l22 138h-454l82 516h-141l-82 -516h-457l-22 -138h457zM120 205l-21 -138h1052l21 138h-1052z" />
    <glyph glyph-name="uni00B2" unicode="&#xb2;" horiz-adv-x="647" 
d="M266 1044l-15 -99h460l21 135h-248l102 100q35 34 55 55t48.5 55.5t45 69t21.5 69.5q16 98 -34.5 153.5t-151.5 55.5q-95 0 -169.5 -65.5t-88.5 -157.5l-9 -58h136l9 58q6 37 35 62.5t66 25.5q84 0 71 -74q-7 -50 -113 -153z" />
    <glyph glyph-name="uni00B3" unicode="&#xb3;" horiz-adv-x="620" 
d="M461 947q-96 0 -146 55t-36 146q1 4 2.5 11.5t1.5 9.5q2 8 4 20l3 18h111l-6 -36q0 -2 -3 -14q-2 -8 -2 -11q-7 -41 17.5 -64.5t74.5 -23.5q52 0 87.5 25.5t42.5 66.5t-23 67.5t-83 26.5h-102l9 111h111q47 0 79.5 23t38.5 61t-20 63t-72 25q-104 0 -117 -102l-3 -14
q1 -5 -1 -16l-3 -18h-111l3 18q2 14 2 20q0 1 1 9.5t2 12.5q14 90 81.5 145.5t162.5 55.5q98 0 149 -55.5t37 -145.5q-14 -83 -81 -135q68 -55 52 -150q-14 -94 -85.5 -149.5t-177.5 -55.5z" />
    <glyph glyph-name="acute" unicode="&#xb4;" horiz-adv-x="597" 
d="M602 1671l-310 -416h163l315 416h-168z" />
    <glyph glyph-name="uni00B5" unicode="&#xb5;" horiz-adv-x="1109" 
d="M278 1198l-248 -1562h143l80 503q96 -93 258 -93q107 0 211.5 36.5t186.5 107.5l-20 -124h142l180 1132h-142l-106 -670q-23 -145 -148.5 -245.5t-275.5 -100.5q-131 0 -193 77.5t-41 206.5l116 732h-143z" />
    <glyph glyph-name="paragraph" unicode="&#xb6;" horiz-adv-x="1136" 
d="M554 -141h145l246 1553h181l-246 -1553h146l267 1691h-425q-150 0 -278 -54t-218 -163.5t-114 -258.5q-16 -103 8 -190.5t80.5 -147.5t139.5 -96t184 -44zM799 1409l-106 -671q-151 12 -232.5 100.5t-58.5 235.5q23 143 134 232.5t263 102.5z" />
    <glyph glyph-name="periodcentered" unicode="&#xb7;" horiz-adv-x="384" 
d="M215 800q-7 -42 18.5 -72.5t68.5 -30.5q45 0 79.5 29.5t41.5 73.5q7 43 -18 73.5t-70 30.5q-44 0 -78.5 -30.5t-41.5 -73.5z" />
    <glyph glyph-name="cedilla" unicode="&#xb8;" horiz-adv-x="703" 
d="M366 101q-4 2 -8 2h-90l-36 -90l8 -4l25 -12q14 -8 20 -13q4 -4 10 -5h1q24 -16 37 -23q4 -3 14.5 -10t16.5 -12q82 -68 70 -141q-7 -43 -37 -67t-75 -24q-90 0 -151 113l-7 14l-107 -121l4 -7q43 -73 95.5 -103.5t143.5 -30.5q110 0 184.5 61t91.5 167q27 173 -154 275
l-31 18q-9 4 -17 10z" />
    <glyph glyph-name="uni00B9" unicode="&#xb9;" horiz-adv-x="445" 
d="M445 1405l-70 -439h135l102 652h-104l-188 -153l63 -110z" />
    <glyph glyph-name="ordmasculine" unicode="&#xba;" horiz-adv-x="619" 
d="M767 1318q18 113 -36.5 184.5t-170.5 71.5q-87 0 -156 -42t-107 -120l-11 16l-5 -33q-2 -13 -6.5 -38.5t-6.5 -38.5q-5 -28 -12.5 -80.5t-8.5 -58.5q-18 -114 37.5 -184.5t171.5 -70.5q115 0 193 70.5t96 184.5zM631 1312l-20 -125q-9 -56 -44.5 -91.5t-89.5 -35.5
q-55 0 -79 35.5t-15 91.5l20 125q9 56 44 91t90 35q54 0 78.5 -35t15.5 -91z" />
    <glyph glyph-name="guillemotright" unicode="&#xbb;" horiz-adv-x="947" 
d="M551 749l-418 -462h184l413 462l-266 462h-184zM799 749l-421 -462h186l414 462l-267 462h-186z" />
    <glyph glyph-name="questiondown" unicode="&#xbf;" horiz-adv-x="1131" 
d="M647 1113q-7 -43 18 -73.5t70 -30.5t79.5 30.5t41.5 73.5q8 45 -17 74t-71 29q-45 0 -79 -29.5t-42 -73.5zM106 113q-15 -97 7 -175t75 -128.5t130.5 -77t174.5 -26.5q456 0 571 433l2 8l-123 57l-4 -15q-54 -177 -151 -260.5t-273 -83.5q-135 0 -210.5 70.5t-55.5 197.5
q30 190 183 285q27 17 86 42q106 44 199 65l9 3l62 390h-143l-45 -286q-73 -22 -130 -46t-113.5 -59t-103 -84t-83.5 -112q-45 -75 -64 -198z" />
    <glyph glyph-name="Agrave" unicode="&#xc0;" horiz-adv-x="1517" 
d="M1066 1659h160l-174 417h-170zM88 0h162l309 578h584l125 -578h161l-347 1608h-136zM636 726l339 644l137 -644h-476z" />
    <glyph glyph-name="Aacute" unicode="&#xc1;" horiz-adv-x="1517" 
d="M821 1676h163l314 416h-168zM88 0h162l309 578h584l125 -578h161l-347 1608h-136zM636 726l339 644l137 -644h-476z" />
    <glyph glyph-name="Acircumflex" unicode="&#xc2;" horiz-adv-x="1517" 
d="M637 1676h177l219 233l143 -233h175l-243 406h-93zM88 0h162l309 578h584l125 -578h161l-347 1608h-136zM636 726l339 644l137 -644h-476z" />
    <glyph glyph-name="Atilde" unicode="&#xc3;" horiz-adv-x="1517" 
d="M972 1877h-9l27 -26q12 -13 32 -39q17 -21 33 -34q38 -35 100 -35q146 0 212 173l21 63q2 5 15 44l6 14h-146l-3 -10q-3 -8 -6.5 -18.5t-8 -25t-7.5 -22.5q-15 -40 -30 -59q-9 -10 -29 -10q-25 0 -46 38l-10 15q-6 10 -10 14q-28 40 -61 58t-84 18q-142 0 -212 -171
q-12 -30 -22 -64l-20 -59h146l3 10l10.5 31.5t12.5 34.5q13 36 31 61q7 8 26 8q10 0 19 -3l2 -1q2 -2 3 -2q3 -1 5 -3zM88 0h162l309 578h584l125 -578h161l-347 1608h-136zM636 726l339 644l137 -644h-476z" />
    <glyph glyph-name="Adieresis" unicode="&#xc4;" horiz-adv-x="1517" 
d="M752 1807q-7 -45 15.5 -73t68.5 -28q49 0 79.5 27t37.5 74q8 45 -15.5 72.5t-69.5 27.5q-48 0 -78 -26.5t-38 -73.5zM1136 1807q-7 -44 17.5 -72.5t69.5 -28.5q49 0 79 27t37 74q8 48 -13 72q-24 28 -71 28q-45 0 -78.5 -27.5t-40.5 -72.5zM88 0h162l309 578h584
l125 -578h161l-347 1608h-136zM636 726l339 644l137 -644h-476z" />
    <glyph glyph-name="Aring" unicode="&#xc5;" horiz-adv-x="1517" 
d="M835 1913q-15 -93 40 -157t151 -64q103 0 175 60.5t88 160.5q16 101 -37 161.5t-156 60.5q-97 0 -171.5 -63.5t-89.5 -158.5zM1146 1913q-6 -36 -33.5 -59.5t-64.5 -23.5q-34 0 -53 24.5t-14 58.5q6 36 31.5 59t61.5 23q38 0 58 -22.5t14 -59.5zM88 0h162l309 578h584
l125 -578h161l-347 1608h-136zM636 726l339 644l137 -644h-476z" />
    <glyph glyph-name="AE" unicode="&#xc6;" horiz-adv-x="1789" 
d="M88 0h162l309 578h213l-92 -577l1016 3l23 146h-864l101 639h614l28 148h-622l84 527h867l23 145h-1015l-2 -12l-2 -12q0 -1 -0.5 -3t-0.5 -3zM636 726l227 429l-68 -429h-159z" />
    <glyph glyph-name="Ccedilla" unicode="&#xc7;" horiz-adv-x="1306" 
d="M347 -299q40 -73 93 -103.5t144 -30.5q109 0 184.5 60.5t92.5 167.5q18 116 -54 197q282 56 463 360l5 10l-113 79l-7 -13q-175 -302 -454 -302q-77 0 -139.5 22.5t-103.5 62.5t-71 93.5t-41.5 116.5t-14 131.5t10.5 137.5l37 230q13 85 41.5 164.5t74.5 152t106 126.5
t141 86t173 32q279 0 359 -303l3 -13l139 84l-3 9q-50 175 -168 272t-307 97q-177 0 -328.5 -92t-249.5 -252q-93 -148 -127 -365l-36 -228q-17 -88 -11.5 -183t28 -179t74 -158t126.5 -121q33 -21 81 -40q28 -9 31 -10q8 -3 15 -4t15 -4q1 -1 25 -15t27 -15
q125 -82 111 -168q-7 -44 -37 -67.5t-76 -23.5q-92 0 -151 113l-8 14l-104 -121z" />
    <glyph glyph-name="Egrave" unicode="&#xc8;" horiz-adv-x="1189" 
d="M718 2076l184 -417h159l-174 417h-169zM343 1608l-255 -1608l1013 3l24 146h-863l101 639h616l27 148h-623l84 527h866l23 145h-1013z" />
    <glyph glyph-name="Eacute" unicode="&#xc9;" horiz-adv-x="1189" 
d="M966 2092l-309 -416h162l315 416h-168zM343 1608l-255 -1608l1013 3l24 146h-863l101 639h616l27 148h-623l84 527h866l23 145h-1013z" />
    <glyph glyph-name="Ecircumflex" unicode="&#xca;" horiz-adv-x="1189" 
d="M848 2082l-374 -406h176l219 233l143 -233h175l-243 406h-96zM343 1608l-255 -1608l1013 3l24 146h-863l101 639h616l27 148h-623l84 527h866l23 145h-1013z" />
    <glyph glyph-name="Edieresis" unicode="&#xcb;" horiz-adv-x="1189" 
d="M587 1807q-7 -45 16.5 -73t68.5 -28q49 0 79.5 27t37.5 74q8 47 -14 72q-24 28 -71 28q-48 0 -78.5 -26.5t-38.5 -73.5zM972 1807q-7 -43 16.5 -72t68.5 -29q49 0 79.5 26.5t38.5 74.5q7 46 -16 73t-70 27q-45 0 -77 -27.5t-40 -72.5zM343 1608l-255 -1608l1013 3l24 146
h-863l101 639h616l27 148h-623l84 527h866l23 145h-1013z" />
    <glyph glyph-name="Igrave" unicode="&#xcc;" horiz-adv-x="397" 
d="M291 2098l190 -420h162l-176 420h-176zM280 1609l-255 -1609h155l252 1609h-152z" />
    <glyph glyph-name="Iacute" unicode="&#xcd;" horiz-adv-x="389" 
d="M564 2092l-310 -416h162l316 416h-168zM371 1608l-255 -1608h150l252 1608h-147z" />
    <glyph glyph-name="Icircumflex" unicode="&#xce;" horiz-adv-x="397" 
d="M480 2082l-373 -406h176l218 233l145 -233h174l-242 406h-98zM406 1608l-255 -1608h150l252 1608h-147z" />
    <glyph glyph-name="Idieresis" unicode="&#xcf;" horiz-adv-x="304" 
d="M144 1807q-7 -43 16.5 -72t67.5 -29q49 0 79.5 27t38.5 74t-14 72q-24 28 -72 28t-78 -26.5t-38 -73.5zM528 1807q-7 -43 18 -72t69 -29q49 0 79 27t38 74q8 45 -15.5 72.5t-69.5 27.5q-45 0 -78.5 -27.5t-40.5 -72.5zM333 1608l-255 -1608h149l253 1608h-147z" />
    <glyph glyph-name="Ntilde" unicode="&#xd1;" horiz-adv-x="1191" 
d="M570 1800l-15 -45l-5 -14h145l3 10q3 7 7.5 20.5t8.5 24.5t8 21q15 39 31 61q7 8 25 8q16 0 22 -3q9 -5 16 -20l5 -8l3 -3q5 -6 17 -20.5t19 -22.5q20 -25 37 -39q33 -27 94 -27q142 0 212 173l21 63q2 5 15 44l6 14h-145l-4 -10q-2 -5 -9.5 -28t-13.5 -38
q-24 -54 -29 -59q-8 -10 -29 -10q-12 0 -26.5 12t-19.5 25q-1 2 -4 5l-2 4l-2 3v1q-1 2 -2.5 4.5t-2.5 5.5t-2 4q-3 7 -8 14q-44 65 -143 65q-141 0 -212 -172q-12 -31 -21 -63zM343 1608l-255 -1608h150l199 1270l539 -1270h127l255 1608h-147l-203 -1267l-535 1267h-130z
" />
    <glyph glyph-name="Ograve" unicode="&#xd2;" 
d="M986 1659h160l-174 417h-169zM197 690q-12 -76 -12.5 -149.5t12 -144t37 -132.5t65 -114.5t94 -90t126 -58.5t158.5 -21q122 0 228 39.5t184 107t138.5 159t97.5 192.5t54 211l36 228q17 88 13 175t-19.5 166t-55 146.5t-94.5 117t-137.5 77.5t-183.5 28
q-181 0 -329.5 -90t-248.5 -254q-91 -147 -127 -365zM1234 689q-14 -86 -41.5 -165.5t-73 -153t-104.5 -127t-140 -85.5t-174 -32q-77 0 -139.5 22.5t-103.5 62.5t-71 94t-41.5 116.5t-14 131t10.5 137.5l37 230q13 85 41.5 164.5t74.5 152t106 126.5t141 86t173 32
q131 0 223.5 -72t125.5 -193q33 -123 7 -297z" />
    <glyph glyph-name="Oacute" unicode="&#xd3;" 
d="M743 1676h162l314 416h-168zM197 690q-12 -76 -12.5 -149.5t12 -144t37 -132.5t65 -114.5t94 -90t126 -58.5t158.5 -21q122 0 228 39.5t184 107t138.5 159t97.5 192.5t54 211l36 228q17 88 13 175t-19.5 166t-55 146.5t-94.5 117t-137.5 77.5t-183.5 28
q-181 0 -329.5 -90t-248.5 -254q-91 -147 -127 -365zM1234 689q-14 -86 -41.5 -165.5t-73 -153t-104.5 -127t-140 -85.5t-174 -32q-77 0 -139.5 22.5t-103.5 62.5t-71 94t-41.5 116.5t-14 131t10.5 137.5l37 230q13 85 41.5 164.5t74.5 152t106 126.5t141 86t173 32
q131 0 223.5 -72t125.5 -193q33 -123 7 -297z" />
    <glyph glyph-name="Ocircumflex" unicode="&#xd4;" 
d="M557 1676h178l218 233l144 -233h175l-242 406h-96zM197 690q-12 -76 -12.5 -149.5t12 -144t37 -132.5t65 -114.5t94 -90t126 -58.5t158.5 -21q122 0 228 39.5t184 107t138.5 159t97.5 192.5t54 211l36 228q17 88 13 175t-19.5 166t-55 146.5t-94.5 117t-137.5 77.5
t-183.5 28q-181 0 -329.5 -90t-248.5 -254q-91 -147 -127 -365zM1234 689q-14 -86 -41.5 -165.5t-73 -153t-104.5 -127t-140 -85.5t-174 -32q-77 0 -139.5 22.5t-103.5 62.5t-71 94t-41.5 116.5t-14 131t10.5 137.5l37 230q13 85 41.5 164.5t74.5 152t106 126.5t141 86
t173 32q131 0 223.5 -72t125.5 -193q33 -123 7 -297z" />
    <glyph glyph-name="Otilde" unicode="&#xd5;" 
d="M1055 1922q2 2 0 2q0 1 -1.5 3.5t-1.5 3.5q-30 51 -67 77.5t-96 26.5q-142 0 -213 -172q-12 -28 -22 -63l-20 -59h147l3 10q23 65 23 66q14 37 31 61q7 8 25 8q16 0 19 -3q2 0 6 -4q5 -5 7 -8q10 -12 13 -19q36 -53 75 -82q37 -27 92 -27q145 0 213 173q3 7 22 63
q2 5 15 44l6 14h-146l-3 -10q-29 -96 -53 -125q-9 -10 -30 -10q-9 0 -22 9t-20 19q0 2 -2 2zM197 690q-12 -76 -12.5 -149.5t12 -144t37 -132.5t65 -114.5t94 -90t126 -58.5t158.5 -21q122 0 228 39.5t184 107t138.5 159t97.5 192.5t54 211l36 228q17 88 13 175t-19.5 166
t-55 146.5t-94.5 117t-137.5 77.5t-183.5 28q-181 0 -329.5 -90t-248.5 -254q-91 -147 -127 -365zM1234 689q-14 -86 -41.5 -165.5t-73 -153t-104.5 -127t-140 -85.5t-174 -32q-77 0 -139.5 22.5t-103.5 62.5t-71 94t-41.5 116.5t-14 131t10.5 137.5l37 230
q13 85 41.5 164.5t74.5 152t106 126.5t141 86t173 32q131 0 223.5 -72t125.5 -193q33 -123 7 -297z" />
    <glyph glyph-name="Odieresis" unicode="&#xd6;" 
d="M672 1807q-7 -45 15.5 -73t68.5 -28q49 0 79 26.5t38 74.5q8 46 -15.5 73t-69.5 27q-48 0 -78 -26.5t-38 -73.5zM1055 1807q-7 -43 19 -72t70 -29q48 0 78 27t37 74q9 47 -13 72q-25 28 -70 28t-79.5 -28t-41.5 -72zM197 690q-12 -76 -12.5 -149.5t12 -144t37 -132.5
t65 -114.5t94 -90t126 -58.5t158.5 -21q122 0 228 39.5t184 107t138.5 159t97.5 192.5t54 211l36 228q17 88 13 175t-19.5 166t-55 146.5t-94.5 117t-137.5 77.5t-183.5 28q-181 0 -329.5 -90t-248.5 -254q-91 -147 -127 -365zM1234 689q-14 -86 -41.5 -165.5t-73 -153
t-104.5 -127t-140 -85.5t-174 -32q-77 0 -139.5 22.5t-103.5 62.5t-71 94t-41.5 116.5t-14 131t10.5 137.5l37 230q13 85 41.5 164.5t74.5 152t106 126.5t141 86t173 32q131 0 223.5 -72t125.5 -193q33 -123 7 -297z" />
    <glyph glyph-name="multiply" unicode="&#xd7;" horiz-adv-x="1081" 
d="M156 427l91 -106l398 344l293 -344l121 106l-288 344l399 344l-90 105l-401 -342l-290 340l-124 -103l291 -344z" />
    <glyph glyph-name="Oslash" unicode="&#xd8;" 
d="M287 -155h153l77 156q75 -21 160 -21q122 0 228 39.5t184 107t138.5 159t97.5 192.5t54 211l36 228q14 86 13.5 168t-16 163t-55.5 152.5t-101 122.5l48 96h-155l-13 -25q-82 33 -198 33q-181 0 -330.5 -90.5t-247.5 -253.5q-92 -150 -127 -365l-36 -228
q-16 -86 -12 -178t24 -174t67 -155.5t117 -122.5zM1069 1452l-606 -1245q-89 77 -116 207.5t-5 275.5l37 230q13 85 41.5 164.5t74.5 152t106 126.5t141 86t173 32q84 0 154 -29zM1234 689q-14 -86 -41.5 -165.5t-73.5 -153t-104.5 -127t-139.5 -85.5t-174 -32
q-61 0 -118 15l599 1231q49 -52 74.5 -131t25.5 -158.5t-11 -163.5z" />
    <glyph glyph-name="Ugrave" unicode="&#xd9;" 
d="M803 2076l183 -417h160l-174 417h-169zM197 690q-12 -76 -12.5 -149.5t12 -144t37 -132.5t65 -114.5t94 -90t126 -58.5t158.5 -21q122 0 228 39.5t184 107t138.5 159t97.5 192.5t54 211l146 919h-145l-146 -919q-14 -86 -41.5 -165.5t-73 -153t-104.5 -127t-140 -85.5
t-174 -32q-77 0 -139.5 22.5t-103.5 62.5t-71 94t-41.5 116.5t-14 131t10.5 137.5l146 918h-145z" />
    <glyph glyph-name="Uacute" unicode="&#xda;" 
d="M1051 2092l-308 -416h162l314 416h-168zM197 690q-12 -76 -12.5 -149.5t12 -144t37 -132.5t65 -114.5t94 -90t126 -58.5t158.5 -21q122 0 228 39.5t184 107t138.5 159t97.5 192.5t54 211l146 919h-145l-146 -919q-14 -86 -41.5 -165.5t-73 -153t-104.5 -127t-140 -85.5
t-174 -32q-77 0 -139.5 22.5t-103.5 62.5t-71 94t-41.5 116.5t-14 131t10.5 137.5l146 918h-145z" />
    <glyph glyph-name="Ucircumflex" unicode="&#xdb;" 
d="M934 2082l-377 -406h178l218 233l144 -233h175l-242 406h-96zM197 690q-12 -76 -12.5 -149.5t12 -144t37 -132.5t65 -114.5t94 -90t126 -58.5t158.5 -21q122 0 228 39.5t184 107t138.5 159t97.5 192.5t54 211l146 919h-145l-146 -919q-14 -86 -41.5 -165.5t-73 -153
t-104.5 -127t-140 -85.5t-174 -32q-77 0 -139.5 22.5t-103.5 62.5t-71 94t-41.5 116.5t-14 131t10.5 137.5l146 918h-145z" />
    <glyph glyph-name="Udieresis" unicode="&#xdc;" 
d="M672 1807q-7 -45 15.5 -73t68.5 -28q49 0 79 26.5t38 74.5q8 46 -15.5 73t-69.5 27q-48 0 -78 -26.5t-38 -73.5zM1055 1807q-7 -43 19 -72t70 -29q48 0 78 27t37 74q9 47 -13 72q-25 28 -70 28t-79.5 -28t-41.5 -72zM197 690q-12 -76 -12.5 -149.5t12 -144t37 -132.5
t65 -114.5t94 -90t126 -58.5t158.5 -21q122 0 228 39.5t184 107t138.5 159t97.5 192.5t54 211l146 919h-145l-146 -919q-14 -86 -41.5 -165.5t-73 -153t-104.5 -127t-140 -85.5t-174 -32q-77 0 -139.5 22.5t-103.5 62.5t-71 94t-41.5 116.5t-14 131t10.5 137.5l146 918h-145
z" />
    <glyph glyph-name="Yacute" unicode="&#xdd;" horiz-adv-x="1363" 
d="M1053 2092l-310 -416h163l315 416h-168zM734 804l-127 -804h146l127 802l650 806h-182l-516 -662l-313 662h-176z" />
    <glyph glyph-name="germandbls" unicode="&#xdf;" horiz-adv-x="1164" 
d="M271 1157l-246 -1564h149l1 12l189 1200q10 61 28 180.5t27 176.5q22 136 127.5 214.5t248.5 78.5q138 0 224 -81.5t66 -211.5q-20 -129 -130.5 -205.5t-248.5 -76.5h-82l-22 -144h82q153 0 251 -83t76 -226q-23 -142 -142 -221.5t-272 -79.5q-33 0 -77 7l-14 2l-24 -151
l11 -1q36 -3 72 -3q226 0 393 118t202 335q19 124 -30.5 223t-153.5 156q106 55 171.5 143.5t83.5 201.5q33 206 -83 325.5t-329 119.5q-212 0 -363.5 -119.5t-184.5 -325.5z" />
    <glyph glyph-name="agrave" unicode="&#xe0;" horiz-adv-x="1104" 
d="M948 1217l-172 411h-168l181 -411h159zM981 707h-222q-147 0 -285 -40.5t-231 -135.5q-85 -88 -104 -207q-25 -159 72 -252t262 -93q233 0 415 142l-19 -122h146l107 673q28 173 -8 272q-40 108 -133 166t-219 58q-206 0 -342.5 -129t-168.5 -331l-8 -53h145l1 11
q16 97 57.5 173.5t117 126t174.5 49.5q108 0 176.5 -60t73.5 -162q1 -38 -7 -86zM958 562l-34 -211l-3 -6q-4 -5 -14 -17q-5 -8 -13 -17t-8 -10q-74 -88 -175.5 -132.5t-214.5 -44.5q-95 0 -160 54.5t-51 141.5q10 66 59 116t119 76t139.5 38t136.5 12h219z" />
    <glyph glyph-name="aacute" unicode="&#xe1;" horiz-adv-x="1104" 
d="M1018 1644h-166l-305 -410h162zM981 707h-222q-147 0 -285 -40.5t-231 -135.5q-85 -88 -104 -207q-25 -159 72 -252t262 -93q233 0 415 142l-19 -122h146l107 673q28 173 -8 272q-40 108 -133 166t-219 58q-206 0 -342.5 -129t-168.5 -331l-8 -53h145l1 11
q16 97 57.5 173.5t117 126t174.5 49.5q108 0 176.5 -60t73.5 -162q1 -38 -7 -86zM958 562l-34 -211l-3 -6q-4 -5 -14 -17q-5 -8 -13 -17t-8 -10q-74 -88 -175.5 -132.5t-214.5 -44.5q-95 0 -160 54.5t-51 141.5q10 66 59 116t119 76t139.5 38t136.5 12h219z" />
    <glyph glyph-name="acircumflex" unicode="&#xe2;" horiz-adv-x="1104" 
d="M758 1462l140 -228h173l-240 401h-94l-370 -401h175zM981 707h-222q-147 0 -285 -40.5t-231 -135.5q-85 -88 -104 -207q-25 -159 72 -252t262 -93q233 0 415 142l-19 -122h146l107 673q28 173 -8 272q-40 108 -133 166t-219 58q-206 0 -342.5 -129t-168.5 -331l-8 -53
h145l1 11q16 97 57.5 173.5t117 126t174.5 49.5q108 0 176.5 -60t73.5 -162q1 -38 -7 -86zM958 562l-34 -211l-3 -6q-4 -5 -14 -17q-5 -8 -13 -17t-8 -10q-74 -88 -175.5 -132.5t-214.5 -44.5q-95 0 -160 54.5t-51 141.5q10 66 59 116t119 76t139.5 38t136.5 12h219z" />
    <glyph glyph-name="atilde" unicode="&#xe3;" horiz-adv-x="1104" 
d="M442 1295h144l4 10q19 58 22 65q10 31 31 60q5 7 23 7q16 0 23.5 -5.5t19.5 -22.5l4 -4q9 -13 31 -37q15 -19 34 -34q44 -37 98 -37q142 0 210 170q4 9 7.5 19.5t7.5 23.5t6 20q3 7 15 43l5 14h-144l-3 -10q-2 -5 -10 -28t-13 -36q-16 -40 -29 -58q-7 -10 -28 -10
q-9 0 -21.5 8.5t-18.5 17.5l-3 3q0 4 -2 8l-3 5l-3 3l-3 3q0 1 -1 2q-27 46 -62 68t-91 22q-143 0 -209 -170q-5 -12 -12.5 -34.5t-8.5 -26.5q-2 -5 -4.5 -14t-5 -16.5t-5.5 -14.5zM981 707h-222q-147 0 -285 -40.5t-231 -135.5q-85 -88 -104 -207q-25 -159 72 -252t262 -93
q233 0 415 142l-19 -122h146l107 673q28 173 -8 272q-40 108 -133 166t-219 58q-206 0 -342.5 -129t-168.5 -331l-8 -53h145l1 11q16 97 57.5 173.5t117 126t174.5 49.5q108 0 176.5 -60t73.5 -162q1 -38 -7 -86zM958 562l-34 -211l-3 -6q-4 -5 -14 -17q-5 -8 -13 -17
t-8 -10q-74 -88 -175.5 -132.5t-214.5 -44.5q-95 0 -160 54.5t-51 141.5q10 66 59 116t119 76t139.5 38t136.5 12h219z" />
    <glyph glyph-name="adieresis" unicode="&#xe4;" horiz-adv-x="1104" 
d="M593 1461q-47 0 -76.5 -26t-37.5 -73q-7 -41 17 -69.5t66 -28.5q48 0 78 26t38 72q7 46 -15 72.5t-70 26.5zM857 1362q-7 -43 19 -72q22 -26 67 -26q47 0 77.5 26t38.5 72q7 45 -16 72t-69 27q-45 0 -77.5 -27t-39.5 -72zM981 707h-222q-147 0 -285 -40.5t-231 -135.5
q-85 -88 -104 -207q-25 -159 72 -252t262 -93q233 0 415 142l-19 -122h146l107 673q28 173 -8 272q-40 108 -133 166t-219 58q-206 0 -342.5 -129t-168.5 -331l-8 -53h145l1 11q16 97 57.5 173.5t117 126t174.5 49.5q108 0 176.5 -60t73.5 -162q1 -38 -7 -86zM958 562
l-34 -211l-3 -6q-4 -5 -14 -17q-5 -8 -13 -17t-8 -10q-74 -88 -175.5 -132.5t-214.5 -44.5q-95 0 -160 54.5t-51 141.5q10 66 59 116t119 76t139.5 38t136.5 12h219z" />
    <glyph glyph-name="aring" unicode="&#xe5;" horiz-adv-x="1104" 
d="M562 1467q-14 -93 39.5 -155t148.5 -62q101 0 171.5 59.5t85.5 157.5q16 100 -35 159.5t-153 59.5q-97 0 -169.5 -62t-87.5 -157zM705 1467q6 35 31.5 57t60.5 22q37 0 56 -21.5t13 -57.5q-5 -35 -31.5 -58t-62.5 -23q-33 0 -52.5 24t-14.5 57zM981 707h-222
q-147 0 -285 -40.5t-231 -135.5q-85 -88 -104 -207q-25 -159 72 -252t262 -93q233 0 415 142l-19 -122h146l107 673q28 173 -8 272q-40 108 -133 166t-219 58q-206 0 -342.5 -129t-168.5 -331l-8 -53h145l1 11q16 97 57.5 173.5t117 126t174.5 49.5q108 0 176.5 -60
t73.5 -162q1 -38 -7 -86zM958 562l-34 -211l-3 -6q-4 -5 -14 -17q-5 -8 -13 -17t-8 -10q-74 -88 -175.5 -132.5t-214.5 -44.5q-95 0 -160 54.5t-51 141.5q10 66 59 116t119 76t139.5 38t136.5 12h219z" />
    <glyph glyph-name="ae" unicode="&#xe6;" horiz-adv-x="1830" 
d="M981 707h-222q-147 0 -285 -40.5t-231 -135.5q-84 -86 -104 -207q-25 -159 72 -252t262 -93q233 0 415 142l-19 -122h146l14 91q97 -103 278 -103q131 0 241.5 63.5t187.5 179.5l6 8l-101 95l-9 -14q-126 -184 -303 -184q-102 0 -171.5 62.5t-76.5 159.5q-4 32 6 98
l18 111h726l1 11q26 155 28 188q7 107 -21 184q-38 109 -126 164t-215 55q-250 0 -407 -195q-10 14 -30.5 40.5t-30.5 39.5l-20 26q-8 10 -11 15l-14 14q-6 6 -12 9q-5 2 -10 5q-88 46 -201 46q-206 0 -342.5 -129t-168.5 -331l-8 -53h145l1 11q12 72 39 133.5t69 110.5
t104 77t137 28q105 0 175 -61.5t75 -160.5q1 -38 -7 -86zM1711 711h-582l4 27q6 35 27 79q43 94 126.5 150.5t183.5 56.5t170.5 -64t76.5 -159q2 -43 -6 -90zM958 562l-34 -211l-3 -6q-4 -5 -14 -17q-5 -8 -13 -17t-8 -10q-74 -88 -175.5 -132.5t-214.5 -44.5
q-95 0 -160 54.5t-51 141.5q10 66 59 116t119 76t139.5 38t136.5 12h219z" />
    <glyph glyph-name="ccedilla" unicode="&#xe7;" horiz-adv-x="1008" 
d="M204 659l-9 11l-35 -223q-23 -145 14 -243q44 -127 166 -186q16 -8 50 -20q3 -1 8.5 -2t8.5 -2q2 -1 5.5 -3.5t5.5 -3.5l6 -5q2 0 5 -2t4 -2v-1q153 -82 137 -180q-7 -43 -36.5 -66t-74.5 -23q-90 0 -149 112l-7 15l-103 -121l4 -7q41 -73 92.5 -103t141.5 -30
q108 0 181.5 60t89.5 165q19 120 -56 199q180 49 299 227l5 8l-100 95l-9 -14q-128 -183 -302 -183q-108 0 -175.5 60t-74.5 162q-3 40 6 97l40 250q23 141 113 230t231 89q177 0 244 -185l5 -13l130 95l-3 7q-40 117 -131 181t-223 64q-201 0 -338.5 -129.5t-168.5 -327.5
q-7 -39 3 -52z" />
    <glyph glyph-name="egrave" unicode="&#xe8;" horiz-adv-x="1046" 
d="M759 1217h160l-173 411h-168zM175 208q42 -109 131.5 -165t217.5 -56q131 0 241.5 63.5t186.5 179.5l6 8l-100 95l-9 -14q-127 -184 -303 -184q-102 0 -171.5 62t-77.5 160q-4 32 6 98l18 111h727l1 11q24 142 27 188q8 106 -20 184q-37 108 -127.5 163.5t-216.5 55.5
q-210 0 -344.5 -125.5t-167.5 -332.5l-39 -258q-24 -144 14 -244zM928 711h-584q26 140 114.5 226.5t228.5 86.5q103 0 171.5 -62t75.5 -161q3 -37 -6 -90z" />
    <glyph glyph-name="eacute" unicode="&#xe9;" horiz-adv-x="1046" 
d="M518 1234h162l309 410h-167zM175 208q42 -109 131.5 -165t217.5 -56q131 0 241.5 63.5t186.5 179.5l6 8l-100 95l-9 -14q-127 -184 -303 -184q-102 0 -171.5 62t-77.5 160q-4 32 6 98l18 111h727l1 11q24 142 27 188q8 106 -20 184q-37 108 -127.5 163.5t-216.5 55.5
q-210 0 -344.5 -125.5t-167.5 -332.5l-39 -258q-24 -144 14 -244zM928 711h-584q26 140 114.5 226.5t228.5 86.5q103 0 171.5 -62t75.5 -161q3 -37 -6 -90z" />
    <glyph glyph-name="ecircumflex" unicode="&#xea;" horiz-adv-x="1046" 
d="M339 1234h174l216 228l140 -228h173l-240 401h-94zM175 208q42 -109 131.5 -165t217.5 -56q131 0 241.5 63.5t186.5 179.5l6 8l-100 95l-9 -14q-127 -184 -303 -184q-102 0 -171.5 62t-77.5 160q-4 32 6 98l18 111h727l1 11q24 142 27 188q8 106 -20 184
q-37 108 -127.5 163.5t-216.5 55.5q-210 0 -344.5 -125.5t-167.5 -332.5l-39 -258q-24 -144 14 -244zM928 711h-584q26 140 114.5 226.5t228.5 86.5q103 0 171.5 -62t75.5 -161q3 -37 -6 -90z" />
    <glyph glyph-name="edieresis" unicode="&#xeb;" horiz-adv-x="1046" 
d="M449 1362q-7 -42 17 -70t67 -28q48 0 77.5 26t37.5 72q7 51 -14 74q-22 25 -70 25t-77.5 -26t-37.5 -73zM828 1362q-7 -42 17.5 -70t67.5 -28q47 0 77 26.5t38 71.5q7 46 -15 72.5t-69 26.5q-45 0 -77 -27t-39 -72zM175 208q42 -109 131.5 -165t217.5 -56
q131 0 241.5 63.5t186.5 179.5l6 8l-100 95l-9 -14q-127 -184 -303 -184q-102 0 -171.5 62t-77.5 160q-4 32 6 98l18 111h727l1 11q24 142 27 188q8 106 -20 184q-37 108 -127.5 163.5t-216.5 55.5q-210 0 -344.5 -125.5t-167.5 -332.5l-39 -258q-24 -144 14 -244zM928 711
h-584q26 140 114.5 226.5t228.5 86.5q103 0 171.5 -62t75.5 -161q3 -37 -6 -90z" />
    <glyph glyph-name="igrave" unicode="&#xec;" horiz-adv-x="445" 
d="M277 1628l182 -411h160l-173 411h-169zM334 1167l-185 -1167h146l185 1167h-146z" />
    <glyph glyph-name="iacute" unicode="&#xed;" horiz-adv-x="445" 
d="M520 1644l-306 -410h162l310 410h-166zM331 1167l-185 -1167h146l185 1167h-146z" />
    <glyph glyph-name="icircumflex" unicode="&#xee;" horiz-adv-x="448" 
d="M437 1635l-370 -401h175l215 228l141 -228h172l-239 401h-94zM364 1167l-185 -1167h146l185 1167h-146z" />
    <glyph glyph-name="idieresis" unicode="&#xef;" horiz-adv-x="357" 
d="M104 1362q-7 -41 16.5 -69.5t66.5 -28.5q49 0 79 25.5t38 72.5t-15 73t-71 26q-47 0 -76.5 -26t-37.5 -73zM483 1362q-7 -43 17 -70.5t68 -27.5q47 0 77.5 26t38.5 72q7 45 -16 72t-69 27q-45 0 -77 -27t-39 -72zM290 1167l-185 -1167h146l185 1167h-146z" />
    <glyph glyph-name="ntilde" unicode="&#xf1;" horiz-adv-x="1054" 
d="M495 1488q-38 -57 -73 -179l-4 -14h141l4 10l10.5 31.5t11.5 33.5q16 42 29 60q3 3 10 5q5 2 17 2q10 0 17.5 -3.5t11 -8t12.5 -16.5q21 -28 32.5 -41t33.5 -33.5t47 -29t56 -8.5q138 0 208 170q3 7 22 63q3 7 15 43l5 14h-144l-3 -10q-2 -7 -22 -64q-17 -43 -31 -58
q-9 -10 -26 -10q-9 0 -22 8t-20 18l-3 3q1 1 -2 8l-3 4l-2 4l-3 2v1q0 1 -1 2q-51 90 -152 90q-109 0 -172 -97zM822 2l142 -4l2 12l114 709q31 195 -68 322.5t-298 127.5q-175 0 -316 -107l17 103h-142l-185 -1165h142l2 12q36 231 110 693q5 36 29 89q45 105 128 166
t192 61q86 0 148.5 -44t88.5 -120q9 -30 12 -60q2 -35 -7 -95z" />
    <glyph glyph-name="ograve" unicode="&#xf2;" horiz-adv-x="1047" 
d="M919 1217l-173 411h-168l181 -411h160zM205 661l-10 11q-6 -40 -19 -119t-19 -118q-31 -197 67 -321.5t300 -124.5q210 0 341 126.5t164 333.5l36 223l7 41q21 130 -12 231.5t-122.5 161t-225.5 59.5q-207 0 -343 -124.5t-168 -327.5q-6 -39 4 -52zM926 702l-39 -250
q-23 -140 -113.5 -230t-227.5 -90q-108 0 -176 60.5t-74 162.5q-2 37 7 97l39 250q23 141 114 230t231 89q101 0 169.5 -63t76.5 -161q2 -34 -7 -95z" />
    <glyph glyph-name="oacute" unicode="&#xf3;" horiz-adv-x="1047" 
d="M989 1644h-167l-304 -410h162zM205 661l-10 11q-6 -40 -19 -119t-19 -118q-31 -197 67 -321.5t300 -124.5q210 0 341 126.5t164 333.5l36 223l7 41q21 130 -12 231.5t-122.5 161t-225.5 59.5q-207 0 -343 -124.5t-168 -327.5q-6 -39 4 -52zM926 702l-39 -250
q-23 -140 -113.5 -230t-227.5 -90q-108 0 -176 60.5t-74 162.5q-2 37 7 97l39 250q23 141 114 230t231 89q101 0 169.5 -63t76.5 -161q2 -34 -7 -95z" />
    <glyph glyph-name="ocircumflex" unicode="&#xf4;" horiz-adv-x="1047" 
d="M729 1462l140 -228h173l-240 401h-94l-369 -401h174zM205 661l-10 11q-6 -40 -19 -119t-19 -118q-31 -197 67 -321.5t300 -124.5q210 0 341 126.5t164 333.5l36 223l7 41q21 130 -12 231.5t-122.5 161t-225.5 59.5q-207 0 -343 -124.5t-168 -327.5q-6 -39 4 -52zM926 702
l-39 -250q-23 -140 -113.5 -230t-227.5 -90q-108 0 -176 60.5t-74 162.5q-2 37 7 97l39 250q23 141 114 230t231 89q101 0 169.5 -63t76.5 -161q2 -34 -7 -95z" />
    <glyph glyph-name="otilde" unicode="&#xf5;" horiz-adv-x="1047" 
d="M827 1473q0 1 1 2q0 1 -1.5 3t-2.5 4q-1 3 -4.5 7t-4.5 6q-27 45 -62 67.5t-90 22.5q-142 0 -210 -170q-5 -12 -12.5 -34.5t-8.5 -26.5q-2 -5 -4.5 -14t-5 -16.5t-5.5 -14.5l-5 -14h144l3 10q2 7 9.5 30t12.5 35q14 36 31 60q6 7 25 7q10 0 17.5 -3.5t11 -8t12.5 -16.5
q22 -29 32.5 -41.5t33 -33t47.5 -29t56 -8.5q138 0 208 170q3 7 22 63q3 7 15 43l5 14h-144l-2 -10q-17 -47 -24 -65q-17 -46 -29 -57q-9 -10 -27 -10q-22 0 -41 25zM205 661l-10 11q-6 -40 -19 -119t-19 -118q-31 -197 67 -321.5t300 -124.5q210 0 341 126.5t164 333.5
l36 223l7 41q21 130 -12 231.5t-122.5 161t-225.5 59.5q-207 0 -343 -124.5t-168 -327.5q-6 -39 4 -52zM926 702l-39 -250q-23 -140 -113.5 -230t-227.5 -90q-108 0 -176 60.5t-74 162.5q-2 37 7 97l39 250q23 141 114 230t231 89q101 0 169.5 -63t76.5 -161q2 -34 -7 -95z
" />
    <glyph glyph-name="odieresis" unicode="&#xf6;" horiz-adv-x="1047" 
d="M565 1461q-48 0 -77.5 -26t-37.5 -73q-7 -42 17 -70t67 -28q47 0 77 26t38 72q7 51 -14 74q-22 25 -70 25zM945 1461q-45 0 -77 -27t-39 -72q-7 -43 17 -70.5t68 -27.5q47 0 77 26.5t38 71.5q7 46 -15 72.5t-69 26.5zM205 661l-10 11q-6 -40 -19 -119t-19 -118
q-31 -197 67 -321.5t300 -124.5q210 0 341 126.5t164 333.5l36 223l7 41q21 130 -12 231.5t-122.5 161t-225.5 59.5q-207 0 -343 -124.5t-168 -327.5q-6 -39 4 -52zM926 702l-39 -250q-23 -140 -113.5 -230t-227.5 -90q-108 0 -176 60.5t-74 162.5q-2 37 7 97l39 250
q23 141 114 230t231 89q101 0 169.5 -63t76.5 -161q2 -34 -7 -95z" />
    <glyph glyph-name="divide" unicode="&#xf7;" horiz-adv-x="1228" 
d="M697 1167q-8 -44 15.5 -72.5t69.5 -28.5q101 0 117 101q3 15 -0.5 39.5t-11.5 34.5q-10 12 -33 18.5t-40 6.5q-49 0 -79 -25.5t-38 -73.5zM222 848l-22 -138h1052l22 138h-1052zM575 397q-7 -45 16.5 -73t68.5 -28q101 0 117 101q3 15 -0.5 39.5t-11.5 34.5
q-10 10 -33.5 17.5t-39.5 7.5q-102 0 -117 -99z" />
    <glyph glyph-name="oslash" unicode="&#xf8;" horiz-adv-x="1047" 
d="M205 661l-10 11q-6 -40 -19 -119t-19 -118q-18 -111 12.5 -212.5t109.5 -165.5l-158 -325h150l130 268q64 -11 123 -11q210 0 341 126.5t164 333.5l36 223l7 41q19 123 -12.5 225.5t-120.5 164.5l181 374h-152l-156 -321q-49 9 -100 9q-207 0 -343 -124.5t-168 -327.5
q-6 -39 4 -52zM743 1015l-391 -805q-74 81 -49 242l39 250q23 141 114 230t231 89q27 0 56 -6zM926 702l-39 -250q-23 -140 -113.5 -230t-227.5 -90q-40 0 -78 9l397 813q87 -91 61 -252z" />
    <glyph glyph-name="ugrave" unicode="&#xf9;" horiz-adv-x="1053" 
d="M582 1628l181 -411h160l-173 411h-168zM159 449q-21 -132 12 -235.5t124 -165.5t229 -62q179 0 313 103l-14 -89h142l185 1168h-142l-114 -718q-22 -137 -116 -226.5t-231 -89.5q-105 0 -175 61.5t-76 160.5q-2 38 7 98l113 712l-142 4l-2 -12q-83 -518 -113 -709z" />
    <glyph glyph-name="uacute" unicode="&#xfa;" horiz-adv-x="1053" 
d="M826 1644l-304 -410h161l310 410h-167zM159 449q-21 -132 12 -235.5t124 -165.5t229 -62q179 0 313 103l-14 -89h142l185 1168h-142l-114 -718q-22 -137 -116 -226.5t-231 -89.5q-105 0 -175 61.5t-76 160.5q-2 38 7 98l113 712l-142 4l-2 -12q-83 -518 -113 -709z" />
    <glyph glyph-name="ucircumflex" unicode="&#xfb;" horiz-adv-x="1053" 
d="M711 1635l-368 -401h173l216 228l140 -228h174l-241 401h-94zM159 449q-21 -132 12 -235.5t124 -165.5t229 -62q179 0 313 103l-14 -89h142l185 1168h-142l-114 -718q-22 -137 -116 -226.5t-231 -89.5q-105 0 -175 61.5t-76 160.5q-2 38 7 98l113 712l-142 4l-2 -12
q-83 -518 -113 -709z" />
    <glyph glyph-name="udieresis" unicode="&#xfc;" horiz-adv-x="1053" 
d="M453 1362q-7 -43 16.5 -70.5t67.5 -27.5q47 0 77 26t38 72q7 49 -14 74t-70 25q-48 0 -77.5 -26t-37.5 -73zM832 1362q-7 -42 17.5 -70t67.5 -28q47 0 77 26.5t38 71.5q7 46 -15 72.5t-69 26.5q-45 0 -77 -27t-39 -72zM159 449q-21 -132 12 -235.5t124 -165.5t229 -62
q179 0 313 103l-14 -89h142l185 1168h-142l-114 -718q-22 -137 -116 -226.5t-231 -89.5q-105 0 -175 61.5t-76 160.5q-2 38 7 98l113 712l-142 4l-2 -12q-83 -518 -113 -709z" />
    <glyph glyph-name="yacute" unicode="&#xfd;" horiz-adv-x="1185" 
d="M883 1644l-306 -410h161l309 410h-164zM29 -435q70 -12 107 -12q158 0 277 93.5t197 247.5q7 13 42.5 84.5t55.5 109.5l574 1080h-157l-485 -907l-197 907h-158l244 -1120l-55 -105q-52 -102 -107.5 -157t-151.5 -80q-25 -7 -53 -7q-10 0 -30 2.5t-26 2.5h-41l-3 -8
q-2 -3 -18 -43q-6 -12 -12 -28q-1 -1 -2 -4t-2 -5l-2 -5l-7 -44z" />
    <glyph glyph-name="ydieresis" unicode="&#xff;" horiz-adv-x="1185" 
d="M509 1362q-7 -42 17 -70t67 -28q47 0 77.5 26t38.5 72q7 50 -15 74q-21 25 -70 25q-47 0 -77.5 -26t-37.5 -73zM887 1362q-7 -42 17.5 -70t67.5 -28q49 0 79 25.5t38 72.5q7 50 -15 74q-22 25 -71 25q-45 0 -77 -27.5t-39 -71.5zM29 -435q70 -12 107 -12q158 0 277 93.5
t197 247.5q7 13 42.5 84.5t55.5 109.5l574 1080h-157l-485 -907l-197 907h-158l244 -1120l-55 -105q-52 -102 -107.5 -157t-151.5 -80q-25 -7 -53 -7q-10 0 -30 2.5t-26 2.5h-41l-3 -8q-2 -3 -18 -43q-6 -12 -12 -28q-1 -1 -2 -4t-2 -5l-2 -5l-7 -44z" />
    <glyph glyph-name="Amacron" unicode="&#x100;" horiz-adv-x="1517" 
d="M680 1746h713l21 137h-713zM88 0h162l309 578h584l125 -578h161l-347 1608h-136zM636 726l339 644l137 -644h-476z" />
    <glyph glyph-name="amacron" unicode="&#x101;" horiz-adv-x="1104" 
d="M1131 1440h-702l-22 -137h702zM981 707h-222q-147 0 -285 -40.5t-231 -135.5q-85 -88 -104 -207q-25 -159 72 -252t262 -93q233 0 415 142l-19 -122h146l107 673q28 173 -8 272q-40 108 -133 166t-219 58q-206 0 -342.5 -129t-168.5 -331l-8 -53h145l1 11
q16 97 57.5 173.5t117 126t174.5 49.5q108 0 176.5 -60t73.5 -162q1 -38 -7 -86zM958 562l-34 -211l-3 -6q-4 -5 -14 -17q-5 -8 -13 -17t-8 -10q-74 -88 -175.5 -132.5t-214.5 -44.5q-95 0 -160 54.5t-51 141.5q10 66 59 116t119 76t139.5 38t136.5 12h219z" />
    <glyph glyph-name="Abreve" unicode="&#x102;" horiz-adv-x="1517" 
d="M809 1758q69 -82 214 -82q147 0 241 82t117 225l9 54h-139l-2 -12q-6 -39 -11.5 -61.5t-21 -52t-38.5 -48.5q-53 -46 -132 -46q-74 0 -113.5 46.5t-28.5 119.5q1 7 4.5 21t4.5 20l3 13h-142l-2 -12q-9 -57 -11 -96t8.5 -87.5t39.5 -83.5zM88 0h162l309 578h584l125 -578
h161l-347 1608h-136zM636 726l339 644l137 -644h-476z" />
    <glyph glyph-name="abreve" unicode="&#x103;" horiz-adv-x="1104" 
d="M493 1538q-23 -140 43.5 -222t210.5 -82q143 0 237.5 81t116.5 220q6 41 6 43l2 12h-139l-2 -12q-19 -118 -69 -160q-53 -46 -130 -46q-71 0 -110.5 46.5t-28.5 116.5q1 7 4.5 21t4.5 21l3 13h-140l-2 -12zM981 707h-222q-147 0 -285 -40.5t-231 -135.5
q-85 -88 -104 -207q-25 -159 72 -252t262 -93q233 0 415 142l-19 -122h146l107 673q28 173 -8 272q-40 108 -133 166t-219 58q-206 0 -342.5 -129t-168.5 -331l-8 -53h145l1 11q16 97 57.5 173.5t117 126t174.5 49.5q108 0 176.5 -60t73.5 -162q1 -38 -7 -86zM958 562
l-34 -211l-3 -6q-4 -5 -14 -17q-5 -8 -13 -17t-8 -10q-74 -88 -175.5 -132.5t-214.5 -44.5q-95 0 -160 54.5t-51 141.5q10 66 59 116t119 76t139.5 38t136.5 12h219z" />
    <glyph glyph-name="Aogonek" unicode="&#x104;" horiz-adv-x="1510" 
d="M939 -220q-17 -105 40.5 -161.5t165.5 -56.5q71 0 121 17q17 5 53 22q25 12 61 32l11 5l-47 139l-14 -11q-86 -67 -164 -67q-44 0 -67.5 20.5t-17.5 60.5q5 29 33 64q29 34 72 63q60 41 138 71l4 2q3 1 9.5 4t11.5 5l18 7l4 2l2 1q6 3 6 4q1 0 2 1l45 15l-344 1589h-136
l-858 -1608h162l309 578h584l108 -492q-54 -22 -102 -50t-94 -65.5t-76.5 -86.5t-39.5 -104zM636 726l339 644l137 -644h-476z" />
    <glyph glyph-name="aogonek" unicode="&#x105;" horiz-adv-x="1117" 
d="M981 707h-222q-147 0 -285 -40.5t-231 -135.5q-84 -86 -104 -207q-25 -159 72 -252t262 -93q233 0 415 142l-4 -27q-57 -21 -107.5 -48.5t-99 -65.5t-81 -88.5t-41.5 -107.5q-17 -104 40 -159.5t163 -55.5q70 0 112.5 14t119.5 56l10 5l-45 139l-14 -11q-89 -67 -162 -67
q-43 0 -66 20t-17 59q9 55 73 104t139 79q11 4 59 26q24 12 42 18l8 2l103 643l2 11q8 56 11.5 96t-0.5 90.5t-19 90.5q-40 108 -133 166t-219 58q-206 0 -342.5 -129t-168.5 -331l-8 -53h145l1 11q12 72 39 133.5t69 110.5t104 77t137 28q106 0 175 -61t75 -161
q1 -38 -7 -86zM886 301q-74 -88 -175.5 -132.5t-214.5 -44.5q-95 0 -160 54.5t-51 141.5q10 66 59 116t119 76t139.5 38t136.5 12h219l-34 -211l-3 -6q-4 -5 -14 -17q-5 -8 -13 -17t-8 -10z" />
    <glyph glyph-name="Cacute" unicode="&#x106;" horiz-adv-x="1306" 
d="M1019 2092l-310 -416h162l316 416h-168zM197 690q-12 -76 -12.5 -149.5t12 -144t37 -132.5t65 -114.5t94 -90t126 -58.5t158.5 -21q190 0 338.5 97.5t254.5 274.5l5 10l-113 79l-7 -13q-176 -302 -454 -302q-77 0 -139.5 22.5t-103.5 62.5t-71 94t-41.5 116.5t-14 131
t10.5 137.5l37 230q13 85 41.5 164.5t74.5 152t106 126.5t141 86t173 32q279 0 359 -303l3 -13l139 84l-3 9q-50 175 -168 272t-307 97q-180 0 -329.5 -90.5t-248.5 -253.5q-92 -150 -127 -365z" />
    <glyph glyph-name="cacute" unicode="&#x107;" horiz-adv-x="1008" 
d="M798 1644l-304 -410h161l309 410h-166zM204 659l-9 11l-35 -223q-23 -147 14 -244q41 -109 131 -165t218 -56q131 0 241.5 63.5t187.5 179.5l5 8l-100 95l-9 -14q-126 -183 -302 -183q-107 0 -175.5 60.5t-74.5 160.5q-3 43 6 98l40 250q23 141 113 230t231 89
q177 0 244 -185l5 -13l130 95l-3 7q-40 117 -131 181t-223 64q-201 0 -338.5 -129.5t-168.5 -327.5q-7 -39 3 -52z" />
    <glyph glyph-name="Ccircumflex" unicode="&#x108;" horiz-adv-x="1306" 
d="M899 2082l-373 -406h176l219 233l144 -233h174l-242 406h-98zM197 690q-12 -76 -12.5 -149.5t12 -144t37 -132.5t65 -114.5t94 -90t126 -58.5t158.5 -21q190 0 338.5 97.5t254.5 274.5l5 10l-113 79l-7 -13q-176 -302 -454 -302q-77 0 -139.5 22.5t-103.5 62.5t-71 94
t-41.5 116.5t-14 131t10.5 137.5l37 230q13 85 41.5 164.5t74.5 152t106 126.5t141 86t173 32q279 0 359 -303l3 -13l139 84l-3 9q-50 175 -168 272t-307 97q-180 0 -329.5 -90.5t-248.5 -253.5q-92 -150 -127 -365z" />
    <glyph glyph-name="ccircumflex" unicode="&#x109;" horiz-adv-x="1008" 
d="M682 1635l-368 -401h175l214 228l141 -228h173l-238 401h-97zM204 659l-9 11l-35 -223q-23 -147 14 -244q41 -109 131 -165t218 -56q131 0 241.5 63.5t187.5 179.5l5 8l-100 95l-9 -14q-126 -183 -302 -183q-107 0 -175.5 60.5t-74.5 160.5q-3 43 6 98l40 250
q23 141 113 230t231 89q177 0 244 -185l5 -13l130 95l-3 7q-40 117 -131 181t-223 64q-201 0 -338.5 -129.5t-168.5 -327.5q-7 -39 3 -52z" />
    <glyph glyph-name="Cdotaccent" unicode="&#x10a;" horiz-adv-x="1306" 
d="M835 1826q-7 -45 15.5 -73t68.5 -28q48 0 78.5 27t38.5 74q8 46 -15 73t-70 27q-49 0 -78.5 -26.5t-37.5 -73.5zM197 690q-12 -76 -12.5 -149.5t12 -144t37 -132.5t65 -114.5t94 -90t126 -58.5t158.5 -21q190 0 338.5 97.5t254.5 274.5l5 10l-113 79l-7 -13
q-176 -302 -454 -302q-77 0 -139.5 22.5t-103.5 62.5t-71 94t-41.5 116.5t-14 131t10.5 137.5l37 230q13 85 41.5 164.5t74.5 152t106 126.5t141 86t173 32q279 0 359 -303l3 -13l139 84l-3 9q-50 175 -168 272t-307 97q-180 0 -329.5 -90.5t-248.5 -253.5
q-92 -150 -127 -365z" />
    <glyph glyph-name="cdotaccent" unicode="&#x10b;" horiz-adv-x="1008" 
d="M618 1381q-7 -44 16 -71t68 -27q47 0 77 26t38 72q7 45 -15.5 72t-68.5 27q-48 0 -77.5 -26t-37.5 -73zM204 659l-9 11l-35 -223q-23 -147 14 -244q41 -109 131 -165t218 -56q131 0 241.5 63.5t187.5 179.5l5 8l-100 95l-9 -14q-126 -183 -302 -183q-107 0 -175.5 60.5
t-74.5 160.5q-3 43 6 98l40 250q23 141 113 230t231 89q177 0 244 -185l5 -13l130 95l-3 7q-40 117 -131 181t-223 64q-201 0 -338.5 -129.5t-168.5 -327.5q-7 -39 3 -52z" />
    <glyph glyph-name="Ccaron" unicode="&#x10c;" horiz-adv-x="1306" 
d="M618 2082l247 -406h96l372 406h-174l-219 -233l-144 233h-178zM197 690q-12 -76 -12.5 -149.5t12 -144t37 -132.5t65 -114.5t94 -90t126 -58.5t158.5 -21q190 0 338.5 97.5t254.5 274.5l5 10l-113 79l-7 -13q-176 -302 -454 -302q-77 0 -139.5 22.5t-103.5 62.5t-71 94
t-41.5 116.5t-14 131t10.5 137.5l37 230q13 85 41.5 164.5t74.5 152t106 126.5t141 86t173 32q279 0 359 -303l3 -13l139 84l-3 9q-50 175 -168 272t-307 97q-180 0 -329.5 -90.5t-248.5 -253.5q-92 -150 -127 -365z" />
    <glyph glyph-name="ccaron" unicode="&#x10d;" horiz-adv-x="1008" 
d="M407 1635l240 -401h94l369 401h-174l-213 -229l-143 229h-173zM204 659l-9 11l-35 -223q-23 -147 14 -244q41 -109 131 -165t218 -56q131 0 241.5 63.5t187.5 179.5l5 8l-100 95l-9 -14q-126 -183 -302 -183q-107 0 -175.5 60.5t-74.5 160.5q-3 43 6 98l40 250
q23 141 113 230t231 89q177 0 244 -185l5 -13l130 95l-3 7q-40 117 -131 181t-223 64q-201 0 -338.5 -129.5t-168.5 -327.5q-7 -39 3 -52z" />
    <glyph glyph-name="Dcaron" unicode="&#x10e;" horiz-adv-x="1303" 
d="M870 1676h96l372 406h-175l-218 -233l-144 233h-178zM343 1608l-255 -1608h12q59 0 166 1t195 1.5t166 0.5q144 0 268.5 59t210.5 157.5t142 220t77 253.5l35 221q16 89 11 174.5t-23 162.5t-60 142.5t-98.5 113t-139 74.5t-181.5 27h-526zM635 146q-4 0 -373 3l205 1314
h371q32 0 78.5 -11.5t78.5 -26.5q70 -31 120 -86t73.5 -121.5t30.5 -144.5t-8 -156l-35 -224q-14 -87 -43 -166t-76 -149t-107.5 -121t-141.5 -81t-173 -30z" />
    <glyph glyph-name="dcaron" unicode="&#x10f;" horiz-adv-x="1394" 
d="M1073 1580l-82 -518q-104 107 -280 107q-205 0 -341.5 -127.5t-168.5 -328.5l-44 -278q-31 -195 68 -323t298 -128q176 0 314 107l-14 -91h142l214 1354l145 -115l8 3q85 41 142 111t71 157q10 62 -12 104.5t-86 42.5q-46 0 -78 -27t-39 -72q-6 -36 12.5 -65t53.5 -35
q-24 -43 -54 -64q-33 -23 -136 -32l-26 -2l35 220h-142zM935 705l-41 -257q-5 -31 -26 -81q-44 -108 -127.5 -171.5t-193.5 -63.5q-108 0 -176.5 60.5t-74.5 162.5q-2 37 7 97l39 250q23 140 114.5 229.5t231.5 89.5q104 0 166.5 -55.5t77.5 -155.5q9 -62 3 -105z" />
    <glyph glyph-name="Emacron" unicode="&#x112;" horiz-adv-x="1189" 
d="M537 1883l-21 -137h713l21 137h-713zM343 1608l-255 -1608l1013 3l24 146h-863l101 639h616l27 148h-623l84 527h866l23 145h-1013z" />
    <glyph glyph-name="emacron" unicode="&#x113;" horiz-adv-x="1046" 
d="M379 1303h702l22 137h-702zM175 208q42 -109 131.5 -165t217.5 -56q131 0 241.5 63.5t186.5 179.5l6 8l-100 95l-9 -14q-127 -184 -303 -184q-102 0 -171.5 62t-77.5 160q-4 32 6 98l18 111h727l1 11q24 142 27 188q8 106 -20 184q-37 108 -127.5 163.5t-216.5 55.5
q-210 0 -344.5 -125.5t-167.5 -332.5l-39 -258q-24 -144 14 -244zM928 711h-584q26 140 114.5 226.5t228.5 86.5q103 0 171.5 -62t75.5 -161q3 -37 -6 -90z" />
    <glyph glyph-name="Ebreve" unicode="&#x114;" horiz-adv-x="1189" 
d="M645 1758q70 -82 214 -82q147 0 241 82t117 225l9 54h-140l-2 -12q-6 -39 -11.5 -61.5t-21 -52t-38.5 -48.5q-52 -46 -131 -46q-74 0 -113.5 46.5t-28.5 119.5q1 7 4 21t4 21l3 12h-141l-2 -12q-9 -57 -11 -96t8.5 -87.5t39.5 -83.5zM343 1608l-255 -1608l1013 3l24 146
h-863l101 639h616l27 148h-623l84 527h866l23 145h-1013z" />
    <glyph glyph-name="ebreve" unicode="&#x115;" horiz-adv-x="1046" 
d="M507 1314q66 -80 212 -80q142 0 235.5 81.5t115.5 219.5q6 41 6 43l2 12h-138l-2 -12q-7 -41 -11.5 -62t-19.5 -50t-39 -48q-55 -46 -127 -46q-73 0 -113 46.5t-29 116.5q1 7 4.5 21t4.5 21l3 13h-140l-2 -12q-9 -55 -10.5 -94.5t9 -88t39.5 -81.5zM175 208
q42 -109 131.5 -165t217.5 -56q131 0 241.5 63.5t186.5 179.5l6 8l-100 95l-9 -14q-127 -184 -303 -184q-102 0 -171.5 62t-77.5 160q-4 32 6 98l18 111h727l1 11q24 142 27 188q8 106 -20 184q-37 108 -127.5 163.5t-216.5 55.5q-210 0 -344.5 -125.5t-167.5 -332.5
l-39 -258q-24 -144 14 -244zM928 711h-584q26 140 114.5 226.5t228.5 86.5q103 0 171.5 -62t75.5 -161q3 -37 -6 -90z" />
    <glyph glyph-name="Edotaccent" unicode="&#x116;" horiz-adv-x="1189" 
d="M784 1826q-7 -44 15.5 -72.5t67.5 -28.5q49 0 80 27t39 74q7 46 -16.5 73t-70.5 27q-48 0 -77.5 -26.5t-37.5 -73.5zM343 1608l-255 -1608l1013 3l24 146h-863l101 639h616l27 148h-623l84 527h866l23 145h-1013z" />
    <glyph glyph-name="edotaccent" unicode="&#x117;" horiz-adv-x="1046" 
d="M642 1381q-7 -44 16.5 -71t68.5 -27q47 0 77 26t38 72q6 47 -15 73q-23 26 -69 26q-48 0 -78 -26t-38 -73zM175 208q42 -109 131.5 -165t217.5 -56q131 0 241.5 63.5t186.5 179.5l6 8l-100 95l-9 -14q-127 -184 -303 -184q-102 0 -171.5 62t-77.5 160q-4 32 6 98l18 111
h727l1 11q24 142 27 188q8 106 -20 184q-37 108 -127.5 163.5t-216.5 55.5q-210 0 -344.5 -125.5t-167.5 -332.5l-39 -258q-24 -144 14 -244zM928 711h-584q26 140 114.5 226.5t228.5 86.5q103 0 171.5 -62t75.5 -161q3 -37 -6 -90z" />
    <glyph glyph-name="Eogonek" unicode="&#x118;" horiz-adv-x="1189" 
d="M457 16q-141 -101 -160 -226q-17 -105 40.5 -160.5t165.5 -55.5q75 0 115.5 13t120.5 57l10 5l-47 139l-13 -10q-86 -67 -165 -67q-43 0 -67 20.5t-18 58.5q5 30 33 65q57 68 166 115l72 32l391 1l24 146h-863l101 639h616l27 148h-623l84 527h866l23 145h-1013
l-255 -1608q318 1 369 16z" />
    <glyph glyph-name="eogonek" unicode="&#x119;" horiz-adv-x="1046" 
d="M381 6q-124 -90 -143 -212q-16 -103 40.5 -158t162.5 -55q73 0 115 13.5t119 56.5l10 6l-47 134l-14 -9q-86 -65 -162 -65q-43 0 -66 19.5t-17 57.5q10 66 103 127q73 49 158 77q53 17 65 22q151 62 247 210l6 8l-100 95l-9 -14q-127 -184 -303 -184q-102 0 -171.5 62
t-77.5 160q-4 32 6 98l18 111h727l1 11q24 142 27 188q8 106 -20 184q-37 108 -127.5 163.5t-216.5 55.5q-210 0 -344.5 -125.5t-167.5 -332.5l-39 -258q-24 -146 14 -244q58 -151 206 -202zM928 711h-584q26 140 114.5 226.5t228.5 86.5q103 0 171.5 -62t75.5 -161
q3 -37 -6 -90z" />
    <glyph glyph-name="Ecaron" unicode="&#x11a;" horiz-adv-x="1189" 
d="M566 2082l248 -406h95l373 406h-175l-219 -233l-143 233h-179zM343 1608l-255 -1608l1013 3l24 146h-863l101 639h616l27 148h-623l84 527h866l23 145h-1013z" />
    <glyph glyph-name="ecaron" unicode="&#x11b;" horiz-adv-x="1046" 
d="M672 1234h94l368 401h-173l-213 -229l-143 229h-175zM175 208q42 -109 131.5 -165t217.5 -56q131 0 241.5 63.5t186.5 179.5l6 8l-100 95l-9 -14q-127 -184 -303 -184q-102 0 -171.5 62t-77.5 160q-4 32 6 98l18 111h727l1 11q24 142 27 188q8 106 -20 184
q-37 108 -127.5 163.5t-216.5 55.5q-210 0 -344.5 -125.5t-167.5 -332.5l-39 -258q-24 -144 14 -244zM928 711h-584q26 140 114.5 226.5t228.5 86.5q103 0 171.5 -62t75.5 -161q3 -37 -6 -90z" />
    <glyph glyph-name="Gcircumflex" unicode="&#x11c;" horiz-adv-x="1306" 
d="M899 2082l-373 -406h176l219 233l144 -233h174l-242 406h-98zM1117 366l-1 -1v-1q-1 -1 -7 -9q-8 -13 -18 -25q-6 -8 -13 -16.5t-12 -14.5t-6 -7q-149 -166 -359 -166q-77 0 -139.5 22.5t-103.5 62.5t-71 94t-41.5 116.5t-14 131t10.5 137.5l37 230q13 85 41.5 164.5
t74.5 152t106 126.5t141 86t173 32q279 0 359 -303l3 -13l139 84l-3 9q-50 175 -168 272t-307 97q-180 0 -329.5 -90.5t-248.5 -253.5q-92 -150 -127 -365l-36 -228q-12 -76 -12.5 -149.5t12 -144t37.5 -132.5t65.5 -114.5t94 -90t126 -58.5t158.5 -21q152 0 284 66.5
t232 192.5q1 1 5.5 7.5t11.5 16t13 17.5q5 5 12.5 15.5t7.5 11.5l6 9q2 3 3 6l1 4l93 589h-569l-22 -141h426z" />
    <glyph glyph-name="gcircumflex" unicode="&#x11d;" horiz-adv-x="1054" 
d="M344 1234h173l216 228l140 -228h174l-241 401h-95zM93 -82q15 -159 111 -249t261 -90q130 0 243 60.5t182 173.5q62 97 86 249l174 1106h-145l-17 -101q-103 102 -277 102q-205 0 -341.5 -127.5t-168.5 -328.5l-44 -278q-31 -195 68 -323t298 -128q173 0 309 101l-3 -23
q-27 -173 -137 -264q-25 -21 -44 -32q-67 -40 -160 -40q-116 0 -178.5 67t-75.5 184l-1 14l-141 -64zM850 324q-48 -90 -127 -141t-176 -51q-108 0 -176 60.5t-75 162.5q-2 37 7 97l39 250q23 140 114.5 229.5t231.5 89.5q98 0 160 -50.5t82 -142.5q12 -54 8 -74l-56 -357
q-5 -25 -32 -73z" />
    <glyph glyph-name="Gbreve" unicode="&#x11e;" horiz-adv-x="1306" 
d="M696 1758q69 -82 215 -82q147 0 241 82t117 225l9 54h-140l-2 -12q-6 -39 -12 -62t-21 -51.5t-39 -48.5q-53 -46 -130 -46q-74 0 -114 46.5t-29 119.5q1 7 4.5 21t4.5 20l3 13h-141l-2 -12q-9 -56 -11 -95.5t8.5 -88t38.5 -83.5zM1117 366l-1 -1v-1q-1 -1 -7 -9
q-8 -13 -18 -25q-6 -8 -13 -16.5t-12 -14.5t-6 -7q-149 -166 -359 -166q-77 0 -139.5 22.5t-103.5 62.5t-71 94t-41.5 116.5t-14 131t10.5 137.5l37 230q13 85 41.5 164.5t74.5 152t106 126.5t141 86t173 32q279 0 359 -303l3 -13l139 84l-3 9q-50 175 -168 272t-307 97
q-180 0 -329.5 -90.5t-248.5 -253.5q-92 -150 -127 -365l-36 -228q-12 -76 -12.5 -149.5t12 -144t37.5 -132.5t65.5 -114.5t94 -90t126 -58.5t158.5 -21q152 0 284 66.5t232 192.5q1 1 5.5 7.5t11.5 16t13 17.5q5 5 12.5 15.5t7.5 11.5l6 9q2 3 3 6l1 4l93 589h-569
l-22 -141h426z" />
    <glyph glyph-name="gbreve" unicode="&#x11f;" horiz-adv-x="1054" 
d="M511 1314q66 -80 212 -80q144 0 237 81t115 220q6 41 6 43l2 12h-138l-2 -12q-18 -117 -71 -161q-51 -45 -127 -45q-72 0 -112 46.5t-29 116.5q1 7 4.5 21t4.5 21l3 13h-141l-2 -12q-9 -56 -11 -95t9 -86.5t40 -82.5zM93 -82q15 -159 111 -249t261 -90q130 0 243 60.5
t182 173.5q62 97 86 249l174 1106h-145l-17 -101q-103 102 -277 102q-205 0 -341.5 -127.5t-168.5 -328.5l-44 -278q-31 -195 68 -323t298 -128q173 0 309 101l-3 -23q-27 -173 -137 -264q-25 -21 -44 -32q-67 -40 -160 -40q-116 0 -178.5 67t-75.5 184l-1 14l-141 -64z
M850 324q-48 -90 -127 -141t-176 -51q-108 0 -176 60.5t-75 162.5q-2 37 7 97l39 250q23 140 114.5 229.5t231.5 89.5q98 0 160 -50.5t82 -142.5q12 -54 8 -74l-56 -357q-5 -25 -32 -73z" />
    <glyph glyph-name="Gdotaccent" unicode="&#x120;" horiz-adv-x="1306" 
d="M835 1826q-7 -45 15.5 -73t68.5 -28q48 0 78.5 27t38.5 74q8 46 -15 73t-70 27q-49 0 -78.5 -26.5t-37.5 -73.5zM1117 366l-1 -1v-1q-1 -1 -7 -9q-8 -13 -18 -25q-6 -8 -13 -16.5t-12 -14.5t-6 -7q-149 -166 -359 -166q-77 0 -139.5 22.5t-103.5 62.5t-71 94t-41.5 116.5
t-14 131t10.5 137.5l37 230q13 85 41.5 164.5t74.5 152t106 126.5t141 86t173 32q279 0 359 -303l3 -13l139 84l-3 9q-50 175 -168 272t-307 97q-180 0 -329.5 -90.5t-248.5 -253.5q-92 -150 -127 -365l-36 -228q-12 -76 -12.5 -149.5t12 -144t37.5 -132.5t65.5 -114.5
t94 -90t126 -58.5t158.5 -21q152 0 284 66.5t232 192.5q1 1 5.5 7.5t11.5 16t13 17.5q5 5 12.5 15.5t7.5 11.5l6 9q2 3 3 6l1 4l93 589h-569l-22 -141h426z" />
    <glyph glyph-name="gdotaccent" unicode="&#x121;" horiz-adv-x="1054" 
d="M647 1381q-7 -44 16.5 -71t67.5 -27q48 0 77.5 26t37.5 72q7 45 -15.5 72t-68.5 27q-48 0 -77.5 -26t-37.5 -73zM93 -82q15 -159 111 -249t261 -90q130 0 243 60.5t182 173.5q62 97 86 249l174 1106h-145l-17 -101q-103 102 -277 102q-205 0 -341.5 -127.5t-168.5 -328.5
l-44 -278q-31 -195 68 -323t298 -128q173 0 309 101l-3 -23q-27 -173 -137 -264q-25 -21 -44 -32q-67 -40 -160 -40q-116 0 -178.5 67t-75.5 184l-1 14l-141 -64zM850 324q-48 -90 -127 -141t-176 -51q-108 0 -176 60.5t-75 162.5q-2 37 7 97l39 250q23 140 114.5 229.5
t231.5 89.5q98 0 160 -50.5t82 -142.5q12 -54 8 -74l-56 -357q-5 -25 -32 -73z" />
    <glyph glyph-name="Hcircumflex" unicode="&#x124;" horiz-adv-x="1191" 
d="M849 2082l-374 -406h176l219 233l143 -233h174l-242 406h-96zM343 1608l-255 -1608h150l125 788h716l-125 -788h149l255 1608h-147l-107 -672h-721l107 672h-147z" />
    <glyph glyph-name="hcircumflex" unicode="&#x125;" horiz-adv-x="1054" 
d="M1080 719q31 195 -68 322.5t-298 127.5q-175 0 -316 -107l27 172h91l216 228l140 -228h174l-241 401h-94l-268 -291l37 233h-142l-250 -1577h142l2 12q36 231 110 693q5 36 29 89q45 105 128 166t192 61q86 0 148.5 -44t88.5 -120q9 -30 12 -60q2 -35 -7 -95l-111 -700
l142 -4l2 12z" />
    <glyph glyph-name="Hbar" unicode="&#x126;" horiz-adv-x="1191" 
d="M538 1883l-21 -137h713l21 137h-713zM343 1608l-255 -1608h150l125 788h716l-125 -788h149l255 1608h-147l-107 -672h-721l107 672h-147z" />
    <glyph glyph-name="hbar" unicode="&#x127;" horiz-adv-x="1054" 
d="M1080 719q31 195 -68 322.5t-298 127.5q-175 0 -316 -107l38 241h648l22 137h-648l22 137h-142l-250 -1577h142l2 12q36 231 110 693q5 36 29 89q45 105 128 166t192 61q86 0 148.5 -44t88.5 -120q9 -30 12 -60q2 -35 -7 -95l-111 -700l142 -4l2 12z" />
    <glyph glyph-name="Itilde" unicode="&#x128;" horiz-adv-x="322" 
d="M132 1800l-20 -59h146l3 10q14 42 24 66q15 41 29 61q8 8 27 8t24.5 -3t14.5 -19q11 -20 37 -50.5t44 -43.5q39 -27 91 -27q146 0 214 173l21 63q2 5 15 44l6 14h-144l-4 -10q-11 -35 -24 -65q-15 -36 -33 -61q-6 -9 -27 -9q-8 0 -20.5 9t-18.5 19l-2 5l-1 1v2q-1 2 -2 3
q-1 3 -4 4q0 2 -2 4t-2 3l-2 2q-56 91 -155 91q-143 0 -213 -171q-12 -30 -22 -64zM340 1608l-255 -1608h149l253 1608h-147z" />
    <glyph glyph-name="itilde" unicode="&#x129;" horiz-adv-x="372" 
d="M91 1354q-2 -5 -4.5 -14t-5 -16.5t-5.5 -14.5l-5 -14h144l4 10q4 10 11.5 33.5t10.5 32.5q16 43 29 58q8 8 26 8q10 0 17.5 -3.5t11 -8t12.5 -16.5q20 -27 32 -41t33.5 -33.5t47 -28.5t56.5 -9q141 0 208 170q4 9 7.5 19.5t7.5 23.5t6 20q3 7 15 43l5 14h-142l-3 -10
q-3 -7 -11 -29.5t-13 -34.5q-17 -43 -30 -58q-9 -10 -26 -10q-10 0 -22.5 8t-18.5 18l-3 3v2q0 1 -1 3t-1 3l-3 5l-3 3l-3 3q0 1 -1 2q-52 90 -152 90q-141 0 -210 -170q-5 -12 -12.5 -34.5t-8.5 -26.5zM295 1167l-185 -1167h146l185 1167h-146z" />
    <glyph glyph-name="Imacron" unicode="&#x12a;" horiz-adv-x="298" 
d="M90 1883l-21 -137h714l21 137h-714zM330 1608l-255 -1608h150l253 1608h-148z" />
    <glyph glyph-name="imacron" unicode="&#x12b;" horiz-adv-x="347" 
d="M50 1440l-22 -137h702l22 137h-702zM284 1167l-185 -1167h147l185 1167h-147z" />
    <glyph glyph-name="Iogonek" unicode="&#x12e;" horiz-adv-x="326" 
d="M-242 -219q-17 -107 40.5 -162t166.5 -55q72 0 114.5 14t120.5 56l11 5l-45 140l-14 -11q-85 -67 -165 -67q-44 0 -67.5 20.5t-17.5 59.5q5 33 28 62.5t60 54t67.5 41t71.5 34.5q11 5 32 14.5t38 17t32 13.5l10 5l-2 10l-1 3q0 2 -0.5 5.5t-0.5 6.5l-3 8l244 1552h-148
l-240 -1514q-93 -34 -180 -96l-22 -15q-8 -6 -22 -18q-91 -80 -108 -184z" />
    <glyph glyph-name="iogonek" unicode="&#x12f;" horiz-adv-x="375" 
d="M304 1478q-7 -42 19 -72.5t69 -30.5q45 0 78 29.5t40 73.5q7 43 -17.5 72.5t-68.5 29.5q-45 0 -79 -29t-41 -73zM231 -354l-45 137l-14 -10q-89 -66 -162 -66q-43 0 -66 20t-17 59q10 66 103 125q35 23 106.5 55.5t97.5 33.5h12l185 1167h-147l-170 -1071
q-78 -29 -142.5 -67t-119 -102.5t-66.5 -140.5q-17 -105 38.5 -160t163.5 -55q72 0 113.5 14t118.5 56zM204 46l1 4l4 -2zM204 44q0 -2 -1 -4z" />
    <glyph glyph-name="Idotaccent" unicode="&#x130;" horiz-adv-x="324" 
d="M350 1826q-7 -44 16.5 -72.5t68.5 -28.5q49 0 79.5 27t37.5 74q8 45 -15 72.5t-70 27.5q-48 0 -78.5 -26.5t-38.5 -73.5zM342 1608l-255 -1608h150l252 1608h-147z" />
    <glyph glyph-name="dotlessi" unicode="&#x131;" horiz-adv-x="386" 
d="M305 1167l-185 -1167h146l185 1167h-146z" />
    <glyph glyph-name="Nacute" unicode="&#x143;" horiz-adv-x="1191" 
d="M967 2092l-311 -416h164l315 416h-168zM343 1608l-255 -1608h150l199 1270l539 -1270h127l255 1608h-147l-203 -1267l-535 1267h-130z" />
    <glyph glyph-name="nacute" unicode="&#x144;" horiz-adv-x="1054" 
d="M826 1644l-304 -410h161l310 410h-167zM822 2l142 -4l2 12l114 709q31 195 -68 322.5t-298 127.5q-175 0 -316 -107l17 103h-142l-185 -1165h142l2 12q36 231 110 693q5 36 29 89q45 105 128 166t192 61q86 0 148.5 -44t88.5 -120q9 -30 12 -60q2 -35 -7 -95z" />
    <glyph glyph-name="Ncaron" unicode="&#x147;" horiz-adv-x="1191" 
d="M566 2082l248 -406h95l372 406h-175l-218 -233l-144 233h-178zM343 1608l-255 -1608h150l199 1270l539 -1270h127l255 1608h-147l-203 -1267l-535 1267h-130z" />
    <glyph glyph-name="ncaron" unicode="&#x148;" horiz-adv-x="1054" 
d="M434 1635l242 -401h94l367 401h-173l-213 -229l-142 229h-175zM822 2l142 -4l2 12l114 709q31 195 -68 322.5t-298 127.5q-175 0 -316 -107l17 103h-142l-185 -1165h142l2 12q36 231 110 693q5 36 29 89q45 105 128 166t192 61q86 0 148.5 -44t88.5 -120q9 -30 12 -60
q2 -35 -7 -95z" />
    <glyph glyph-name="napostrophe" unicode="&#x149;" horiz-adv-x="1054" 
d="M822 2l142 -4l2 12l114 709q31 195 -68 322.5t-298 127.5q-175 0 -316 -107l17 103h-142l-185 -1165h142l2 12q36 231 110 693q5 36 29 89q45 105 128 166t192 61q86 0 148.5 -44t88.5 -120q9 -30 12 -60q2 -35 -7 -95z" />
    <glyph glyph-name="Omacron" unicode="&#x14c;" 
d="M600 1746h714l21 137h-714zM197 690q-12 -76 -12.5 -149.5t12 -144t37 -132.5t65 -114.5t94 -90t126 -58.5t158.5 -21q122 0 228 39.5t184 107t138.5 159t97.5 192.5t54 211l36 228q17 88 13 175t-19.5 166t-55 146.5t-94.5 117t-137.5 77.5t-183.5 28q-181 0 -329.5 -90
t-248.5 -254q-91 -147 -127 -365zM1234 689q-14 -86 -41.5 -165.5t-73 -153t-104.5 -127t-140 -85.5t-174 -32q-77 0 -139.5 22.5t-103.5 62.5t-71 94t-41.5 116.5t-14 131t10.5 137.5l37 230q13 85 41.5 164.5t74.5 152t106 126.5t141 86t173 32q131 0 223.5 -72
t125.5 -193q33 -123 7 -297z" />
    <glyph glyph-name="omacron" unicode="&#x14d;" horiz-adv-x="1047" 
d="M1104 1440h-702l-22 -137h702zM205 661l-10 11q-6 -40 -19 -119t-19 -118q-31 -197 67 -321.5t300 -124.5q210 0 341 126.5t164 333.5l36 223l7 41q21 130 -12 231.5t-122.5 161t-225.5 59.5q-207 0 -343 -124.5t-168 -327.5q-6 -39 4 -52zM926 702l-39 -250
q-23 -140 -113.5 -230t-227.5 -90q-108 0 -176 60.5t-74 162.5q-2 37 7 97l39 250q23 141 114 230t231 89q101 0 169.5 -63t76.5 -161q2 -34 -7 -95z" />
    <glyph glyph-name="Obreve" unicode="&#x14e;" 
d="M731 1758q70 -82 215 -82q146 0 239.5 82.5t116.5 224.5l9 54h-139l-2 -12q-6 -39 -11.5 -62t-21 -51.5t-39.5 -48.5q-53 -46 -129 -46q-75 0 -115 46.5t-29 119.5q1 7 4.5 21t4.5 20l3 13h-143l-2 -12q-30 -184 39 -267zM197 690q-12 -76 -12.5 -149.5t12 -144
t37 -132.5t65 -114.5t94 -90t126 -58.5t158.5 -21q122 0 228 39.5t184 107t138.5 159t97.5 192.5t54 211l36 228q17 88 13 175t-19.5 166t-55 146.5t-94.5 117t-137.5 77.5t-183.5 28q-181 0 -329.5 -90t-248.5 -254q-91 -147 -127 -365zM1234 689q-14 -86 -41.5 -165.5
t-73 -153t-104.5 -127t-140 -85.5t-174 -32q-77 0 -139.5 22.5t-103.5 62.5t-71 94t-41.5 116.5t-14 131t10.5 137.5l37 230q13 85 41.5 164.5t74.5 152t106 126.5t141 86t173 32q131 0 223.5 -72t125.5 -193q33 -123 7 -297z" />
    <glyph glyph-name="obreve" unicode="&#x14f;" horiz-adv-x="1047" 
d="M508 1314q66 -80 212 -80q143 0 236 81t115 220q6 41 6 43l2 12h-138l-2 -12q-7 -41 -11.5 -62t-19.5 -50t-39 -48q-55 -46 -127 -46q-73 0 -113 46.5t-29 116.5q1 7 4.5 21t4.5 21l3 13h-140l-2 -12q-9 -55 -10.5 -94.5t9 -88t39.5 -81.5zM205 661l-10 11
q-6 -40 -19 -119t-19 -118q-31 -197 67 -321.5t300 -124.5q210 0 341 126.5t164 333.5l36 223l7 41q21 130 -12 231.5t-122.5 161t-225.5 59.5q-207 0 -343 -124.5t-168 -327.5q-6 -39 4 -52zM926 702l-39 -250q-23 -140 -113.5 -230t-227.5 -90q-108 0 -176 60.5t-74 162.5
q-2 37 7 97l39 250q23 141 114 230t231 89q101 0 169.5 -63t76.5 -161q2 -34 -7 -95z" />
    <glyph glyph-name="Ohungarumlaut" unicode="&#x150;" 
d="M589 1692h163l314 417h-167zM862 1692h162l316 417h-168zM197 690q-12 -76 -12.5 -149.5t12 -144t37 -132.5t65 -114.5t94 -90t126 -58.5t158.5 -21q122 0 228 39.5t184 107t138.5 159t97.5 192.5t54 211l36 228q17 88 13 175t-19.5 166t-55 146.5t-94.5 117t-137.5 77.5
t-183.5 28q-181 0 -329.5 -90t-248.5 -254q-91 -147 -127 -365zM1234 689q-14 -86 -41.5 -165.5t-73 -153t-104.5 -127t-140 -85.5t-174 -32q-77 0 -139.5 22.5t-103.5 62.5t-71 94t-41.5 116.5t-14 131t10.5 137.5l37 230q13 85 41.5 164.5t74.5 152t106 126.5t141 86
t173 32q131 0 223.5 -72t125.5 -193q33 -123 7 -297z" />
    <glyph glyph-name="ohungarumlaut" unicode="&#x151;" horiz-adv-x="1047" 
d="M838 1660h-165l-305 -410h161zM798 1250l311 410h-167l-305 -410h161zM205 661l-10 11q-6 -40 -19 -119t-19 -118q-31 -197 67 -321.5t300 -124.5q210 0 341 126.5t164 333.5l36 223l7 41q21 130 -12 231.5t-122.5 161t-225.5 59.5q-207 0 -343 -124.5t-168 -327.5
q-6 -39 4 -52zM926 702l-39 -250q-23 -140 -113.5 -230t-227.5 -90q-108 0 -176 60.5t-74 162.5q-2 37 7 97l39 250q23 141 114 230t231 89q101 0 169.5 -63t76.5 -161q2 -34 -7 -95z" />
    <glyph glyph-name="OE" unicode="&#x152;" horiz-adv-x="2210" 
d="M197 690q-12 -76 -12.5 -149.5t12 -144t37 -132.5t65 -114.5t94 -90t126 -58.5t158.5 -21q278 0 472 206l-29 -186l1014 3l24 146h-864l101 639h615l28 148h-620l81 527h867l23 145h-1014l-30 -188q-127 207 -407 207q-181 0 -330 -90t-248 -254q-92 -149 -127 -365z
M1169 474q-71 -158 -190.5 -253t-277.5 -95q-77 0 -139.5 22.5t-103.5 62.5t-71 93.5t-41.5 116.5t-14 131.5t10.5 137.5l37 230q13 85 41.5 164.5t74.5 152t106 126.5t141 86t173 32q131 0 224 -72t125 -193q14 -53 16 -162v-12.5t1 -10.5q0 -12 -1 -20l-66 -416
q-5 -33 -45 -121z" />
    <glyph glyph-name="oe" unicode="&#x153;" horiz-adv-x="1740" 
d="M205 661l-10 11q-6 -40 -19 -119t-19 -118q-31 -197 67 -321.5t300 -124.5q245 0 389 183q47 -92 134 -139t202 -47q132 0 243 64t187 180l6 8l-100 95l-9 -13q-130 -185 -305 -185q-82 0 -144 41t-88 112q-14 34 -17 68q-1 33 9 99l18 111h725l1 11q26 151 28 188
q8 107 -21 184q-38 109 -128 164t-217 55q-248 0 -395 -184q-85 181 -330 181q-207 0 -343 -124.5t-168 -327.5q-6 -39 4 -52zM1656 711h-584q16 94 63 164q48 71 121.5 110t155.5 39q104 0 173.5 -62t75.5 -161q1 -40 -5 -90zM887 452q-23 -140 -113.5 -230t-227.5 -90
q-108 0 -176 60.5t-74 162.5q-2 37 7 97l39 250q23 141 114 230t231 89q101 0 169.5 -63t76.5 -161q2 -34 -7 -95z" />
    <glyph glyph-name="Rcaron" unicode="&#x158;" horiz-adv-x="1314" 
d="M868 1676h96l372 406h-175l-218 -233l-144 233h-178zM88 0h150l124 788h459l242 -788h163l-245 805q169 32 279 130.5t136 261.5q14 90 -5.5 161.5t-63.5 117t-109.5 76.5t-138.5 43.5t-156 12.5h-580zM384 931l83 532h433q269 0 330 -127q28 -64 17 -139
q-12 -75 -54 -129.5t-105 -83t-129.5 -41t-143.5 -12.5h-431z" />
    <glyph glyph-name="rcaron" unicode="&#x159;" horiz-adv-x="889" 
d="M347 1635l241 -401h96l366 401h-172l-215 -229l-141 229h-175zM279 1165l-185 -1165h142l2 12q36 231 110 693q4 29 27 85q46 107 129 169t193 62q88 0 180 -60l10 -7l87 136l-10 5q-115 74 -244 74q-175 0 -316 -107l17 103h-142z" />
    <glyph glyph-name="Sacute" unicode="&#x15a;" horiz-adv-x="1257" 
d="M1001 2092l-311 -416h163l315 416h-167zM149 375q27 -191 151 -293t329 -102q94 0 188.5 28.5t176 80.5t138.5 133.5t73 179.5q11 78 -2 145q-29 131 -160 214q-56 36 -123 64q-71 27 -130 48q-101 37 -202 99.5t-125 126.5q-19 53 -8 117q11 68 51.5 122t98.5 86
t124.5 48.5t134.5 16.5q115 0 201 -44.5t124 -136.5q12 -30 19 -61q1 -5 1.5 -16.5t2.5 -18.5q3 -11 12 -37l3 -12l137 67l-1 9q-18 191 -146.5 295t-332.5 104q-100 0 -195.5 -28.5t-175.5 -81t-136 -136t-72 -186.5q-31 -197 114 -314q20 -16 54 -36q107 -67 248 -117
q89 -33 170 -73q3 -2 13.5 -7t22.5 -11l14 -7q140 -92 118 -239q-14 -89 -79 -153t-149 -92t-176 -28q-149 0 -248.5 73t-103.5 207l-1 4l-29 35l-124 -64v-9z" />
    <glyph glyph-name="sacute" unicode="&#x15b;" horiz-adv-x="1116" 
d="M861 1644l-306 -410h162l309 410h-165zM164 171q107 -191 394 -191q61 0 122.5 10t124.5 34t113 59.5t86.5 91t47.5 123.5q15 97 -28.5 159.5t-133.5 106.5q-56 25 -78 32q-14 5 -131 40q-136 39 -199 77q-7 3 -15 11l-16 14q-39 29 -53 51.5t-8 64.5q8 47 52 83
q14 13 44 29q96 54 239 54q120 0 204 -48q78 -42 95 -170l2 -14l136 60v9q-3 77 -40.5 138t-97.5 96.5t-131 54t-148 18.5q-79 0 -156 -16.5t-150 -51.5t-124 -99.5t-65 -150.5q-14 -88 22 -150q13 -22 32 -39q53 -56 130.5 -90.5t183.5 -65.5q184 -50 259 -113
q25 -25 27 -29q13 -32 8 -70q-7 -45 -44.5 -79t-91 -52t-105 -26.5t-98.5 -8.5q-123 0 -205 55t-88 163v16l-146 -64l2 -9q10 -80 28 -113z" />
    <glyph glyph-name="Scircumflex" unicode="&#x15c;" horiz-adv-x="1257" 
d="M883 2082l-378 -406h179l217 233l145 -233h175l-243 406h-95zM149 375q27 -191 151 -293t329 -102q94 0 188.5 28.5t176 80.5t138.5 133.5t73 179.5q11 78 -2 145q-29 131 -160 214q-56 36 -123 64q-71 27 -130 48q-101 37 -202 99.5t-125 126.5q-19 53 -8 117
q11 68 51.5 122t98.5 86t124.5 48.5t134.5 16.5q115 0 201 -44.5t124 -136.5q12 -30 19 -61q1 -5 1.5 -16.5t2.5 -18.5q3 -11 12 -37l3 -12l137 67l-1 9q-18 191 -146.5 295t-332.5 104q-100 0 -195.5 -28.5t-175.5 -81t-136 -136t-72 -186.5q-31 -197 114 -314
q20 -16 54 -36q107 -67 248 -117q89 -33 170 -73q3 -2 13.5 -7t22.5 -11l14 -7q140 -92 118 -239q-14 -89 -79 -153t-149 -92t-176 -28q-149 0 -248.5 73t-103.5 207l-1 4l-29 35l-124 -64v-9z" />
    <glyph glyph-name="scircumflex" unicode="&#x15d;" horiz-adv-x="1116" 
d="M745 1635l-371 -401h175l216 228l141 -228h172l-239 401h-94zM164 171q107 -191 394 -191q61 0 122.5 10t124.5 34t113 59.5t86.5 91t47.5 123.5q15 97 -28.5 159.5t-133.5 106.5q-56 25 -78 32q-14 5 -131 40q-136 39 -199 77q-7 3 -15 11l-16 14q-39 29 -53 51.5
t-8 64.5q8 47 52 83q14 13 44 29q96 54 239 54q120 0 204 -48q78 -42 95 -170l2 -14l136 60v9q-3 77 -40.5 138t-97.5 96.5t-131 54t-148 18.5q-79 0 -156 -16.5t-150 -51.5t-124 -99.5t-65 -150.5q-14 -88 22 -150q13 -22 32 -39q53 -56 130.5 -90.5t183.5 -65.5
q184 -50 259 -113q25 -25 27 -29q13 -32 8 -70q-7 -45 -44.5 -79t-91 -52t-105 -26.5t-98.5 -8.5q-123 0 -205 55t-88 163v16l-146 -64l2 -9q10 -80 28 -113z" />
    <glyph glyph-name="Scedilla" unicode="&#x15e;" horiz-adv-x="1257" 
d="M786 -4q159 34 277 144.5t142 261.5q10 66 -1 133q-9 49 -30.5 90.5t-56.5 74t-68.5 57t-84.5 47.5t-85.5 36.5t-88.5 32.5q-62 22 -124.5 53t-124.5 79.5t-78 93.5q-19 57 -8 117q11 68 51.5 122t98.5 86t124.5 48.5t134.5 16.5q116 0 202.5 -45.5t123.5 -138.5
q14 -37 19 -67q1 -12 4 -26q2 -12 11 -37l3 -12l137 67l-1 9q-18 191 -146.5 295t-332.5 104q-100 0 -195.5 -28.5t-175.5 -81t-136 -136t-72 -186.5q-36 -226 168 -350q109 -68 248 -117q141 -52 220 -98q65 -42 97.5 -103t20.5 -136q-14 -89 -79 -153t-149 -92t-176 -28
q-149 0 -248.5 73t-103.5 207l-1 4l-29 35l-124 -64v-9q22 -170 125.5 -271t277.5 -120q4 -2 5 -2l5 -3q7 -3 18.5 -11.5t18.5 -11.5q15 -10 20 -13q1 -1 3.5 -3t6 -4.5t7.5 -5.5q76 -65 64 -137q-2 -16 -12.5 -36.5t-21.5 -29.5q-30 -25 -77 -25q-93 0 -152 113l-8 14
l-105 -121l4 -7q42 -73 95 -103.5t144 -30.5q109 0 184.5 61t92.5 167q18 120 -58 201z" />
    <glyph glyph-name="scedilla" unicode="&#x15f;" horiz-adv-x="1115" 
d="M1051 297q9 55 -2 100t-39.5 77.5t-62 54.5t-79.5 43h35l-90 24q-162 44 -245 76l-45 18q-26 12 -42 22q-8 5 -55 43q-25 22 -33.5 44t-3.5 54q8 47 52 83q18 15 37 25q99 58 245 58q121 0 205 -48q78 -42 95 -170l2 -14l136 60v9q-3 77 -40.5 138t-97.5 96.5t-131 54
t-148 18.5q-79 0 -156 -16.5t-150 -51.5t-124 -99.5t-65 -150.5q-14 -88 22 -150q13 -21 35 -43q54 -54 129.5 -87.5t181.5 -64.5q194 -52 265 -118q4 -6 11 -13q3 -3 6 -6.5t4 -4.5q13 -31 8 -70q-7 -45 -45 -79t-91 -52t-104.5 -26.5t-98.5 -8.5q-123 0 -205 55t-88 163
l-1 16l-144 -63l1 -10q10 -79 28 -113q70 -126 225 -170q19 -5 86 -17q2 0 5 -3q1 -1 2 -2.5t2 -2.5q4 -4 7 -4h3q7 -3 17 -9q5 -2 16 -11q3 -2 16 -10t19 -13q78 -66 68 -137q-7 -43 -36.5 -66.5t-74.5 -23.5q-89 0 -147 113l-8 14l-105 -121l3 -7q42 -72 94 -102.5
t141 -30.5q108 0 182 60t90 165q19 121 -59 202q135 29 232 109q90 72 110 194z" />
    <glyph glyph-name="Scaron" unicode="&#x160;" horiz-adv-x="1257" 
d="M602 2082l243 -406h98l372 406h-174l-218 -233l-145 233h-176zM149 375q27 -191 151 -293t329 -102q94 0 188.5 28.5t176 80.5t138.5 133.5t73 179.5q11 78 -2 145q-29 131 -160 214q-56 36 -123 64q-71 27 -130 48q-101 37 -202 99.5t-125 126.5q-19 53 -8 117
q11 68 51.5 122t98.5 86t124.5 48.5t134.5 16.5q115 0 201 -44.5t124 -136.5q12 -30 19 -61q1 -5 1.5 -16.5t2.5 -18.5q3 -11 12 -37l3 -12l137 67l-1 9q-18 191 -146.5 295t-332.5 104q-100 0 -195.5 -28.5t-175.5 -81t-136 -136t-72 -186.5q-31 -197 114 -314
q20 -16 54 -36q107 -67 248 -117q89 -33 170 -73q3 -2 13.5 -7t22.5 -11l14 -7q140 -92 118 -239q-14 -89 -79 -153t-149 -92t-176 -28q-149 0 -248.5 73t-103.5 207l-1 4l-29 35l-124 -64v-9z" />
    <glyph glyph-name="scaron" unicode="&#x161;" horiz-adv-x="1116" 
d="M467 1635l242 -401h94l366 401h-171l-215 -229l-141 229h-175zM164 171q107 -191 394 -191q61 0 122.5 10t124.5 34t113 59.5t86.5 91t47.5 123.5q15 97 -28.5 159.5t-133.5 106.5q-56 25 -78 32q-14 5 -131 40q-136 39 -199 77q-7 3 -15 11l-16 14q-39 29 -53 51.5
t-8 64.5q8 47 52 83q14 13 44 29q96 54 239 54q120 0 204 -48q78 -42 95 -170l2 -14l136 60v9q-3 77 -40.5 138t-97.5 96.5t-131 54t-148 18.5q-79 0 -156 -16.5t-150 -51.5t-124 -99.5t-65 -150.5q-14 -88 22 -150q13 -22 32 -39q53 -56 130.5 -90.5t183.5 -65.5
q184 -50 259 -113q25 -25 27 -29q13 -32 8 -70q-7 -45 -44.5 -79t-91 -52t-105 -26.5t-98.5 -8.5q-123 0 -205 55t-88 163v16l-146 -64l2 -9q10 -80 28 -113z" />
    <glyph glyph-name="Tcaron" unicode="&#x164;" horiz-adv-x="1253" 
d="M599 2082l245 -406h97l372 406h-174l-218 -233l-145 233h-177zM785 1459l-231 -1459h146l231 1459l465 -1l24 150h-1077l-24 -150z" />
    <glyph glyph-name="tcaron" unicode="&#x165;" horiz-adv-x="1054" 
d="M993 1242q85 42 142 112t70 156q10 62 -12.5 104.5t-86.5 42.5q-45 0 -77.5 -27.5t-39.5 -71.5q-6 -35 12.5 -64t53.5 -36q-24 -42 -53 -64q-16 -12 -66 -22q-11 -2 -70 -10l-33 -3l152 -120zM583 137l-51 -3q-82 0 -100 39q-21 48 -7 144l112 713h251l23 146h-251
l64 404h-145l-64 -404h-141l-23 -146h141l-114 -713q-14 -72 -8.5 -133t28 -104.5t76.5 -68t137 -24.5q14 0 104 5l17 1l-40 145z" />
    <glyph glyph-name="Utilde" unicode="&#x168;" 
d="M1055 1922q2 2 0 2q0 1 -1.5 3.5t-1.5 3.5q-30 51 -67 77.5t-96 26.5q-142 0 -213 -172q-12 -28 -22 -63l-20 -59h147l3 10q23 65 23 66q14 37 31 61q7 8 25 8q16 0 19 -3q2 0 6 -4q5 -5 7 -8q10 -12 13 -19q36 -53 75 -82q37 -27 92 -27q145 0 213 173q3 7 22 63
q2 5 15 44l6 14h-146l-3 -10q-29 -96 -53 -125q-9 -10 -30 -10q-9 0 -22 9t-20 19q0 2 -2 2zM197 690q-12 -76 -12.5 -149.5t12 -144t37 -132.5t65 -114.5t94 -90t126 -58.5t158.5 -21q122 0 228 39.5t184 107t138.5 159t97.5 192.5t54 211l146 919h-145l-146 -919
q-14 -86 -41.5 -165.5t-73 -153t-104.5 -127t-140 -85.5t-174 -32q-77 0 -139.5 22.5t-103.5 62.5t-71 94t-41.5 116.5t-14 131t10.5 137.5l146 918h-145z" />
    <glyph glyph-name="utilde" unicode="&#x169;" horiz-adv-x="1053" 
d="M495 1488q-38 -57 -73 -179l-4 -14h141l4 10l10.5 31.5t11.5 33.5q16 42 29 60q3 3 10 5q5 2 17 2q10 0 17.5 -3.5t11 -8t12.5 -16.5q21 -28 32.5 -41t33.5 -33.5t47 -29t56 -8.5q138 0 208 170q3 7 22 63q3 7 15 43l5 14h-144l-3 -10q-2 -7 -22 -64q-17 -43 -31 -58
q-9 -10 -26 -10q-9 0 -22 8t-20 18l-3 3q1 1 -2 8l-3 4l-2 4l-3 2v1q0 1 -1 2q-51 90 -152 90q-109 0 -172 -97zM159 449q-21 -132 12 -235.5t124 -165.5t229 -62q179 0 313 103l-14 -89h142l185 1168h-142l-114 -718q-22 -137 -116 -226.5t-231 -89.5q-105 0 -175 61.5
t-76 160.5q-2 38 7 98l113 712l-142 4l-2 -12q-83 -518 -113 -709z" />
    <glyph glyph-name="Umacron" unicode="&#x16a;" 
d="M621 1883l-21 -137h714l21 137h-714zM197 690q-12 -76 -12.5 -149.5t12 -144t37 -132.5t65 -114.5t94 -90t126 -58.5t158.5 -21q122 0 228 39.5t184 107t138.5 159t97.5 192.5t54 211l146 919h-145l-146 -919q-14 -86 -41.5 -165.5t-73 -153t-104.5 -127t-140 -85.5
t-174 -32q-77 0 -139.5 22.5t-103.5 62.5t-71 94t-41.5 116.5t-14 131t10.5 137.5l146 918h-145z" />
    <glyph glyph-name="umacron" unicode="&#x16b;" horiz-adv-x="1053" 
d="M404 1440l-22 -137h702l22 137h-702zM159 449q-21 -132 12 -235.5t124 -165.5t229 -62q179 0 313 103l-14 -89h142l185 1168h-142l-114 -718q-22 -137 -116 -226.5t-231 -89.5q-105 0 -175 61.5t-76 160.5q-2 38 7 98l113 712l-142 4l-2 -12q-83 -518 -113 -709z" />
    <glyph glyph-name="Ubreve" unicode="&#x16c;" 
d="M731 1758q70 -82 215 -82q146 0 239.5 82.5t116.5 224.5l9 54h-139l-2 -12q-6 -39 -11.5 -62t-21 -51.5t-39.5 -48.5q-53 -46 -129 -46q-75 0 -115 46.5t-29 119.5q1 7 4.5 21t4.5 20l3 13h-143l-2 -12q-30 -184 39 -267zM197 690q-12 -76 -12.5 -149.5t12 -144
t37 -132.5t65 -114.5t94 -90t126 -58.5t158.5 -21q122 0 228 39.5t184 107t138.5 159t97.5 192.5t54 211l146 919h-145l-146 -919q-14 -86 -41.5 -165.5t-73 -153t-104.5 -127t-140 -85.5t-174 -32q-77 0 -139.5 22.5t-103.5 62.5t-71 94t-41.5 116.5t-14 131t10.5 137.5
l146 918h-145z" />
    <glyph glyph-name="ubreve" unicode="&#x16d;" horiz-adv-x="1053" 
d="M510 1314q66 -80 212 -80q144 0 237 81t115 220q6 41 6 43l2 12h-138l-2 -12q-19 -117 -71 -161q-51 -45 -127 -45q-58 0 -95 29t-45 83q-4 31 -1 51q1 7 4.5 21t4.5 21l3 13h-141l-2 -12q-9 -56 -11 -95t9 -86.5t40 -82.5zM159 449q-21 -132 12 -235.5t124 -165.5
t229 -62q179 0 313 103l-14 -89h142l185 1168h-142l-114 -718q-22 -137 -116 -226.5t-231 -89.5q-105 0 -175 61.5t-76 160.5q-2 38 7 98l113 712l-142 4l-2 -12q-83 -518 -113 -709z" />
    <glyph glyph-name="Uring" unicode="&#x16e;" 
d="M756 1913q-15 -94 40.5 -157.5t152.5 -63.5q101 0 172 61t87 160q16 100 -35.5 161t-153.5 61q-98 0 -173 -63t-90 -159zM1066 1913q-5 -35 -32 -59t-63 -24t-56 24t-15 59q6 37 33 59.5t64 22.5q36 0 55.5 -23t13.5 -59zM197 690q-12 -76 -12.5 -149.5t12 -144
t37 -132.5t65 -114.5t94 -90t126 -58.5t158.5 -21q122 0 228 39.5t184 107t138.5 159t97.5 192.5t54 211l146 919h-145l-146 -919q-14 -86 -41.5 -165.5t-73 -153t-104.5 -127t-140 -85.5t-174 -32q-77 0 -139.5 22.5t-103.5 62.5t-71 94t-41.5 116.5t-14 131t10.5 137.5
l146 918h-145z" />
    <glyph glyph-name="uring" unicode="&#x16f;" horiz-adv-x="1053" 
d="M535 1467q-14 -93 40.5 -155t149.5 -62q100 0 171 59.5t86 157.5q16 99 -35 159t-153 60q-96 0 -170 -62.5t-89 -156.5zM841 1467q-5 -35 -31.5 -58t-62.5 -23q-34 0 -54 23.5t-15 57.5q6 36 32 57.5t62 21.5t55.5 -22t13.5 -57zM159 449q-21 -132 12 -235.5t124 -165.5
t229 -62q179 0 313 103l-14 -89h142l185 1168h-142l-114 -718q-22 -137 -116 -226.5t-231 -89.5q-105 0 -175 61.5t-76 160.5q-2 38 7 98l113 712l-142 4l-2 -12q-83 -518 -113 -709z" />
    <glyph glyph-name="Uhungarumlaut" unicode="&#x170;" 
d="M899 2109l-310 -417h163l314 417h-167zM1172 2109l-310 -417h162l316 417h-168zM197 690q-12 -76 -12.5 -149.5t12 -144t37 -132.5t65 -114.5t94 -90t126 -58.5t158.5 -21q122 0 228 39.5t184 107t138.5 159t97.5 192.5t54 211l146 919h-145l-146 -919
q-14 -86 -41.5 -165.5t-73 -153t-104.5 -127t-140 -85.5t-174 -32q-77 0 -139.5 22.5t-103.5 62.5t-71 94t-41.5 116.5t-14 131t10.5 137.5l146 918h-145z" />
    <glyph glyph-name="uhungarumlaut" unicode="&#x171;" horiz-adv-x="1053" 
d="M676 1660l-305 -410h162l309 410h-166zM946 1660l-305 -410h161l310 410h-166zM159 449q-21 -132 12 -235.5t124 -165.5t229 -62q179 0 313 103l-14 -89h142l185 1168h-142l-114 -718q-22 -137 -116 -226.5t-231 -89.5q-105 0 -175 61.5t-76 160.5q-2 38 7 98l113 712
l-142 4l-2 -12q-83 -518 -113 -709z" />
    <glyph glyph-name="Uogonek" unicode="&#x172;" 
d="M538 -3q-6 -4 -7 -5q-128 -86 -150 -217q-17 -105 41 -161.5t166 -56.5q74 0 116.5 14t120.5 57l10 6l-46 139l-14 -11q-82 -66 -165 -66q-44 0 -67.5 19.5t-17.5 59.5q12 68 104 127q80 51 166 84q2 1 4 1.5t5.5 1.5t5.5 2q86 25 149 58q89 48 163 121t125 158.5
t84 176.5t48 184l146 919h-145l-146 -919q-14 -86 -41.5 -165.5t-73.5 -153t-104.5 -127t-139.5 -85.5t-174 -32q-77 0 -139.5 22.5t-103.5 62.5t-71 93.5t-41.5 116.5t-14 131.5t10.5 137.5l146 918h-145l-146 -918q-11 -88 -10.5 -174.5t25 -170.5t64.5 -152.5
t107.5 -120.5t154.5 -75z" />
    <glyph glyph-name="uogonek" unicode="&#x173;" horiz-adv-x="1066" 
d="M653 0q-130 -93 -149 -215q-17 -103 39.5 -159t162.5 -56q70 0 104 9q29 10 66 29q41 19 63 32l11 5l-46 137l-13 -10q-91 -66 -164 -66q-43 0 -65.5 20t-16.5 59q10 62 105 125q30 22 52 35q26 14 56 22q1 1 2 1t1.5 0.5t1.5 0.5l14 7l22 11q14 7 21 10l7 3h38l185 1168
h-142l-114 -718q-22 -137 -116 -226.5t-231 -89.5q-106 0 -175 61.5t-75 161.5q-3 35 6 97l113 712l-142 4l-2 -12q-83 -518 -113 -709q-21 -132 12 -235.5t124 -165.5t229 -62q70 0 129 14z" />
    <glyph glyph-name="Wcircumflex" unicode="&#x174;" horiz-adv-x="1808" 
d="M1160 2082l-377 -406h178l218 233l142 -233h176l-244 406h-93zM343 1607l126 -1605h135l497 1250l102 -1250h134l638 1605h-149l-501 -1266l-99 1266h-137l-497 -1265l-99 1265h-150z" />
    <glyph glyph-name="wcircumflex" unicode="&#x175;" horiz-adv-x="1737" 
d="M1053 1635l-368 -401h174l216 228l140 -228h173l-240 401h-95zM273 1168l188 -1168h124l427 891l142 -891h123l557 1168h-149l-425 -903l-143 903h-127l-425 -903l-141 903h-151z" />
    <glyph glyph-name="Ycircumflex" unicode="&#x176;" horiz-adv-x="1363" 
d="M934 2082l-373 -406h176l219 233l144 -233h174l-242 406h-98zM734 804l-127 -804h146l127 802l650 806h-182l-516 -662l-313 662h-176z" />
    <glyph glyph-name="ycircumflex" unicode="&#x177;" horiz-adv-x="1185" 
d="M767 1635l-370 -401h174l215 228l142 -228h171l-238 401h-94zM29 -435q70 -12 107 -12q158 0 277 93.5t197 247.5q7 13 42.5 84.5t55.5 109.5l574 1080h-157l-485 -907l-197 907h-158l244 -1120l-55 -105q-52 -102 -107.5 -157t-151.5 -80q-25 -7 -53 -7q-10 0 -30 2.5
t-26 2.5h-41l-3 -8q-2 -3 -18 -43q-6 -12 -12 -28q-1 -1 -2 -4t-2 -5l-2 -5l-7 -44z" />
    <glyph glyph-name="Ydieresis" unicode="&#x178;" horiz-adv-x="1363" 
d="M673 1807q-7 -44 17 -72.5t69 -28.5q48 0 78.5 27t38.5 74t-14 72q-24 28 -71 28q-49 0 -79.5 -26.5t-38.5 -73.5zM1058 1807q-7 -44 18 -72.5t70 -28.5q48 0 78.5 27.5t37.5 73.5q8 47 -14 72q-24 28 -70 28q-45 0 -79 -27.5t-41 -72.5zM734 804l-127 -804h146l127 802
l650 806h-182l-516 -662l-313 662h-176z" />
    <glyph glyph-name="Zacute" unicode="&#x179;" horiz-adv-x="1258" 
d="M1001 2092l-311 -416h164l315 416h-168zM1146 1461l-1058 -1461l1047 3l24 146h-793l1059 1459h-1048l-23 -144z" />
    <glyph glyph-name="zacute" unicode="&#x17a;" horiz-adv-x="1181" 
d="M869 1644l-305 -410h161l311 410h-167zM100 74l6 -74l939 2l22 138h-714l925 1028l-1000 -2l-22 -139h714l-846 -943z" />
    <glyph glyph-name="Zdotaccent" unicode="&#x17b;" horiz-adv-x="1258" 
d="M817 1826q-7 -44 15.5 -72.5t68.5 -28.5q49 0 79 27t38 74q8 45 -15 72.5t-70 27.5q-48 0 -78 -26.5t-38 -73.5zM1146 1461l-1058 -1461l1047 3l24 146h-793l1059 1459h-1048l-23 -144z" />
    <glyph glyph-name="zdotaccent" unicode="&#x17c;" horiz-adv-x="1181" 
d="M804 1480q-48 0 -77 -26t-37 -73q-7 -44 16 -71t67 -27q48 0 77.5 26t37.5 72q7 46 -15 72.5t-69 26.5zM353 140l925 1028l-1000 -2l-22 -139h714l-846 -943l-24 -10l6 -74l939 2l22 138h-714z" />
    <glyph glyph-name="Zcaron" unicode="&#x17d;" horiz-adv-x="1258" 
d="M600 2082l247 -406h96l373 406h-176l-218 -233l-144 233h-178zM1146 1461l-1058 -1461l1047 3l24 146h-793l1059 1459h-1048l-23 -144z" />
    <glyph glyph-name="zcaron" unicode="&#x17e;" horiz-adv-x="1181" 
d="M477 1635l243 -401h94l366 401h-172l-214 -229l-142 229h-175zM100 74l6 -74l939 2l22 138h-714l925 1028l-1000 -2l-22 -139h714l-846 -943z" />
    <glyph glyph-name="florin" unicode="&#x192;" horiz-adv-x="1254" 
d="M1247 993h-337l104 333q12 37 42 96q58 118 184 118q47 0 134 -46l15 -7l33 132l-3 4q-1 2 -16 15l-10 9q-1 1 -3.5 2t-3.5 1h-3q-12 10 -33 -1l18 11q-52 19 -119 19q-79 0 -142 -26.5t-106.5 -76t-73 -106t-52.5 -128.5l-111 -349h-337l-21 -137h316l-220 -698
q-27 -87 -85 -151t-134 -64q-66 0 -117 48l-11 10l-87 -129l9 -5q25 -17 44 -28q9 -5 38 -20q42 -15 102 -15q272 0 381 335q26 81 89 286q26 84 75 238.5t61 192.5h359z" />
    <glyph glyph-name="circumflex" unicode="&#x2c6;" horiz-adv-x="707" 
d="M571 1663l-372 -408h176l218 233l145 -233h174l-243 408h-98z" />
    <glyph glyph-name="caron" unicode="&#x2c7;" horiz-adv-x="709" 
d="M259 1663l244 -408h98l371 408h-174l-219 -234l-144 234h-176z" />
    <glyph glyph-name="uni02C9" unicode="&#x2c9;" horiz-adv-x="744" 
d="M300 1769l-22 -139h714l22 139h-714z" />
    <glyph glyph-name="breve" unicode="&#x2d8;" horiz-adv-x="646" 
d="M311 1337q65 -82 213 -82q147 0 240.5 81.5t116.5 224.5l9 57h-139l-2 -12q-8 -56 -23 -96.5t-48 -68.5q-53 -46 -132 -46q-73 0 -113.5 47t-29.5 119q1 3 4.5 19.5t4.5 24.5l3 13h-141l-2 -12q-9 -57 -11 -97t9.5 -88.5t40.5 -83.5z" />
    <glyph glyph-name="dotaccent" unicode="&#x2d9;" horiz-adv-x="236" 
d="M240 1404q-6 -43 17.5 -71.5t67.5 -28.5q48 0 79 26.5t38 73.5q8 49 -14 74q-24 28 -71 28q-48 0 -78.5 -27.5t-38.5 -74.5z" />
    <glyph glyph-name="ring" unicode="&#x2da;" horiz-adv-x="510" 
d="M260 1493q-15 -95 39.5 -158.5t152.5 -63.5q103 0 173.5 60.5t86.5 161.5q16 99 -36 160t-154 61q-98 0 -172 -63t-90 -158zM570 1493q-5 -37 -32 -60t-64 -23q-36 0 -55.5 24t-14.5 59q6 35 32.5 58t63.5 23q36 0 56 -23t14 -58z" />
    <glyph glyph-name="ogonek" unicode="&#x2db;" horiz-adv-x="500" 
d="M-24 -225q-17 -106 40.5 -162t166.5 -56q72 0 122 17q21 7 52 22q25 13 61 32l11 5l-46 140l-15 -11q-79 -66 -163 -66q-45 0 -69 19.5t-18 59.5q10 60 85 113q34 24 70 44q30 16 69 33q1 1 11 5t16 7q18 8 19 8q1 1 4 3l2 1l4 2q2 0 6 2l15 6l25 10l10 4l-6 91h-96
q-4 0 -8 -2q-4 0 -8 -3q-10 -3 -24 -9q-7 -3 -15.5 -6.5t-14 -6t-7.5 -2.5q-53 -22 -99 -49.5t-89.5 -64.5t-72.5 -85t-38 -101z" />
    <glyph glyph-name="tilde" unicode="&#x2dc;" horiz-adv-x="668" 
d="M647 1498v2q0 1 -1.5 3.5t-1.5 3.5q-2 3 -5.5 8t-5.5 8q-1 1 -11 14q-55 76 -143 76q-143 0 -212 -173q-6 -15 -22 -64l-15 -44l-5 -14h145l3 10q18 51 24 66q17 44 29 60q7 8 27 8q15 0 21 -4t15 -17q4 -4 4 -5l4 -6q1 0 2 -2q4 -2 5 -6q3 -6 4 -7q44 -55 66 -69
q38 -26 91 -26q145 0 213 171q12 31 21 63q3 8 8 23.5t8 23.5l5 14h-146l-3 -10q-12 -40 -23 -68q-15 -43 -29 -59q-9 -10 -30 -10q-9 0 -21 9t-19 19z" />
    <glyph glyph-name="hungarumlaut" unicode="&#x2dd;" horiz-adv-x="719" 
d="M523 1687l-311 -416h164l315 416h-168zM797 1687l-311 -416h164l314 416h-167z" />
    <glyph glyph-name="uni0326" unicode="&#x326;" horiz-adv-x="0" 
d="M-236 92l-212 -446h144l223 446h-155z" />
    <glyph glyph-name="Wgrave" unicode="&#x1e80;" horiz-adv-x="1808" 
d="M1028 2076l183 -417h159l-173 417h-169zM343 1607l126 -1605h135l497 1250l102 -1250h134l638 1605h-149l-501 -1266l-99 1266h-137l-497 -1265l-99 1265h-150z" />
    <glyph glyph-name="wgrave" unicode="&#x1e81;" horiz-adv-x="1737" 
d="M924 1628l181 -411h160l-173 411h-168zM273 1168l188 -1168h124l427 891l142 -891h123l557 1168h-149l-425 -903l-143 903h-127l-425 -903l-141 903h-151z" />
    <glyph glyph-name="Wacute" unicode="&#x1e82;" horiz-adv-x="1808" 
d="M1275 2092l-308 -416h163l313 416h-168zM343 1607l126 -1605h135l497 1250l102 -1250h134l638 1605h-149l-501 -1266l-99 1266h-137l-497 -1265l-99 1265h-150z" />
    <glyph glyph-name="wacute" unicode="&#x1e83;" horiz-adv-x="1737" 
d="M1168 1644l-304 -410h161l310 410h-167zM273 1168l188 -1168h124l427 891l142 -891h123l557 1168h-149l-425 -903l-143 903h-127l-425 -903l-141 903h-151z" />
    <glyph glyph-name="Wdieresis" unicode="&#x1e84;" horiz-adv-x="1808" 
d="M897 1807q-7 -44 15.5 -72.5t68.5 -28.5q49 0 79.5 27t37.5 74q8 45 -15.5 72.5t-69.5 27.5q-48 0 -78 -26.5t-38 -73.5zM1281 1807q-7 -43 18 -72t69 -29q49 0 79 27t38 74t-14 72q-24 28 -71 28q-45 0 -78.5 -27.5t-40.5 -72.5zM343 1607l126 -1605h135l497 1250
l102 -1250h134l638 1605h-149l-501 -1266l-99 1266h-137l-497 -1265l-99 1265h-150z" />
    <glyph glyph-name="wdieresis" unicode="&#x1e85;" horiz-adv-x="1737" 
d="M796 1362q-7 -42 16.5 -70t67.5 -28q47 0 77 26t38 72q7 51 -14 74q-22 25 -70 25t-77.5 -26t-37.5 -73zM1175 1362q-7 -42 17.5 -70t67.5 -28q47 0 77 26.5t38 71.5q7 46 -15 72.5t-69 26.5q-45 0 -77 -27t-39 -72zM273 1168l188 -1168h124l427 891l142 -891h123
l557 1168h-149l-425 -903l-143 903h-127l-425 -903l-141 903h-151z" />
    <glyph glyph-name="endash" unicode="&#x2013;" horiz-adv-x="1276" 
d="M220 832l-23 -144h1100l23 144h-1100z" />
    <glyph glyph-name="emdash" unicode="&#x2014;" horiz-adv-x="1967" 
d="M220 832l-23 -144h1791l23 144h-1791z" />
    <glyph glyph-name="quoteleft" unicode="&#x2018;" horiz-adv-x="521" 
d="M467 1475q22 40 55 65q17 13 63 24q13 4 69 14l30 5l-146 116l-7 -3q-85 -43 -144.5 -115.5t-72.5 -156.5q-10 -61 14.5 -105.5t87.5 -44.5q45 0 78 29.5t40 72.5q7 42 -11 67.5t-56 31.5z" />
    <glyph glyph-name="quoteright" unicode="&#x2019;" horiz-adv-x="527" 
d="M307 1382l151 -122l7 3q87 44 145 114.5t72 157.5q10 65 -12.5 107t-88.5 42q-45 0 -78.5 -27.5t-40.5 -71.5q-6 -36 13 -65t53 -36q-20 -44 -53 -69q-13 -10 -64 -20q-48 -8 -72 -10z" />
    <glyph glyph-name="quotesinglbase" unicode="&#x201a;" horiz-adv-x="503" 
d="M66 -138l128 -104l7 3q90 43 147.5 113t71.5 159q10 62 -13.5 105.5t-87.5 43.5q-44 0 -79 -29t-42 -71q-6 -40 13 -67t57 -34q-22 -39 -55 -65q-16 -13 -57 -27q-14 -5 -37.5 -11.5t-28.5 -8.5z" />
    <glyph glyph-name="quotedblleft" unicode="&#x201c;" horiz-adv-x="726" 
d="M672 1475q22 40 56 65q14 11 61 24q20 5 70 14l30 5l-145 116l-7 -3q-57 -28 -106 -73l-93 76l-7 -3q-85 -43 -144.5 -115.5t-72.5 -156.5q-10 -61 14.5 -105.5t87.5 -44.5q35 0 64 19t44 50q21 -69 97 -69q45 0 78.5 29.5t40.5 72.5q13 86 -68 99zM523 1443
q-18 26 -56 32q23 43 55 65q14 10 55 22q-41 -59 -54 -119z" />
    <glyph glyph-name="quotedblright" unicode="&#x201d;" horiz-adv-x="731" 
d="M670 1263q87 44 144.5 114t71.5 158q10 65 -11.5 107t-87.5 42q-76 0 -108 -64q-20 64 -98 64q-45 0 -78.5 -27.5t-40.5 -71.5q-6 -36 13 -65t53 -36q-20 -44 -53 -69q-12 -10 -64 -20q-48 -8 -72 -10l-32 -3l151 -122l7 3q58 27 104 72l94 -75zM680 1522q19 -30 54 -38
q-20 -44 -54 -69q-11 -8 -38 -14q-4 -2 -18 -4q43 60 56 125z" />
    <glyph glyph-name="quotedblbase" unicode="&#x201e;" horiz-adv-x="708" 
d="M649 184q10 62 -13 105.5t-87 43.5q-35 0 -64 -17.5t-45 -47.5q-22 65 -97 65q-44 0 -79 -28.5t-42 -71.5q-6 -40 13 -67t57 -33q-24 -49 -63 -70.5t-114 -41.5l-25 -7l128 -105l7 3q60 30 107 71l91 -74l7 3q89 44 147 113.5t72 158.5zM441 165q18 -27 57 -32
q-34 -66 -116 -94q44 59 59 126z" />
    <glyph glyph-name="dagger" unicode="&#x2020;" horiz-adv-x="1147" 
d="M658 979l-177 -1120h143l177 1120h413l21 135h-413l69 436h-143l-69 -436h-415l-21 -135h415z" />
    <glyph glyph-name="daggerdbl" unicode="&#x2021;" horiz-adv-x="1147" 
d="M550 294l-69 -435h143l69 435h413l21 136h-413l87 549h413l21 135h-413l69 436h-143l-69 -436h-415l-21 -135h415l-87 -549h-415l-21 -136h415z" />
    <glyph glyph-name="bullet" unicode="&#x2022;" horiz-adv-x="537" 
d="M207 751q-12 -76 30.5 -128t120.5 -52q83 0 143 51q54 47 67 129q13 84 -28 133q-39 47 -125 47q-81 0 -138 -50t-70 -130z" />
    <glyph glyph-name="ellipsis" unicode="&#x2026;" horiz-adv-x="1121" 
d="M466 82q-7 -43 19 -73.5t70 -30.5q45 0 79 30t41 74q7 43 -18.5 73.5t-69.5 30.5q-43 0 -78.5 -31t-42.5 -73zM837 82q-7 -43 19 -73.5t70 -30.5q46 0 79.5 30t40.5 74q7 43 -18 73.5t-70 30.5q-43 0 -78.5 -31t-42.5 -73zM101 81q-7 -43 18 -73.5t69 -30.5q46 0 80 30
t41 74t-17.5 74t-70.5 30q-44 0 -78.5 -30.5t-41.5 -73.5z" />
    <glyph glyph-name="perthousand" unicode="&#x2030;" horiz-adv-x="2443" 
d="M269 1145q-8 -63 -6 -120.5t23 -108.5t54 -88.5t87.5 -59t123.5 -21.5q87 0 159.5 32.5t122.5 89t82 126.5t44 150q42 264 -129 368q-63 37 -152 37q-87 0 -160.5 -34t-123 -92t-81 -129t-44.5 -150zM268 67h175l1244 1483h-175zM815 1145q-18 -110 -78.5 -184
t-163.5 -74q-54 0 -86 19q-8 4 -28 24q-67 78 -46 215q23 142 118 223q27 23 33 25q35 19 93 19q55 0 87 -18q12 -10 26 -26q68 -77 45 -223zM997 469q-17 -107 5.5 -196t94 -147.5t185.5 -58.5q173 0 287 129q96 111 121 273q8 63 6.5 121t-22 109t-53 88.5t-87.5 59.5
t-125 22q-87 0 -160.5 -33t-124 -89.5t-82.5 -127t-45 -150.5zM1738 469q-8 -62 -6 -120.5t23 -109.5t54.5 -89.5t88 -60.5t124.5 -22q175 0 289 129q92 105 118 273q8 63 6.5 121t-21.5 109t-52.5 88.5t-87 59.5t-125.5 22q-88 0 -161.5 -33t-123 -89.5t-81.5 -127
t-45 -150.5zM1545 469q-17 -110 -78.5 -187t-163.5 -77q-53 0 -88 20q-10 5 -28 23q-35 40 -46.5 99t-1.5 122q23 142 119 219q18 18 34 24q40 19 95 19q53 0 89.5 -22.5t52.5 -59.5t21 -84t-5 -96zM2286 469q-17 -110 -79 -187t-164 -77q-51 0 -86 20q-5 2 -31 28
q-65 81 -44 216q9 60 38 117.5t74 96.5q23 20 40 28q38 20 93 20q53 0 90 -22.5t52.5 -59.5t21 -84t-4.5 -96z" />
    <glyph glyph-name="guilsinglleft" unicode="&#x2039;" horiz-adv-x="699" 
d="M207 749l264 -462h185l-269 462l416 462h-185z" />
    <glyph glyph-name="guilsinglright" unicode="&#x203a;" horiz-adv-x="701" 
d="M552 749l-419 -462h184l415 462l-268 462h-184z" />
    <glyph glyph-name="fraction" unicode="&#x2044;" horiz-adv-x="1049" 
d="M117 186l111 -82l954 1292l-111 80z" />
    <glyph glyph-name="uni207B" unicode="&#x207b;" horiz-adv-x="809" 
d="M294 1301l-22 -140h633l22 140h-633z" />
    <glyph glyph-name="uni207C" unicode="&#x207c;" horiz-adv-x="839" 
d="M312 1414l-22 -138h663l22 138h-663zM276 1185l-22 -138h663l22 138h-663z" />
    <glyph glyph-name="uni208B" unicode="&#x208b;" horiz-adv-x="809" 
d="M122 215l-22 -140h633l22 140h-633z" />
    <glyph glyph-name="uni208C" unicode="&#x208c;" horiz-adv-x="839" 
d="M140 328l-22 -137h663l22 137h-663zM104 100l-22 -139h663l22 139h-663z" />
    <glyph glyph-name="Euro" unicode="&#x20ac;" horiz-adv-x="1472" 
d="M1464 505l-122 64l-6 -14q-85 -204 -185 -282q-53 -42 -121 -65.5t-132 -23.5q-91 0 -161 30.5t-113.5 86t-67 126t-30.5 156.5h470l123 141h-589q0 24 2 36q6 30 8 49q14 76 17 87h576l118 140h-653q67 179 193 288t303 109q276 0 329 -312l3 -17l133 97l-1 8
q-35 182 -142 271.5t-300 89.5q-124 0 -232 -40.5t-190.5 -114t-143 -169t-99.5 -210.5h-199l-22 -140h182q-9 -39 -18 -87q-8 -59 -10 -85h-181l-23 -141h198q2 -133 46 -247t134 -189q44 -36 86 -56q94 -45 232 -45q201 0 353.5 125.5t230.5 323.5z" />
    <glyph glyph-name="trademark" unicode="&#x2122;" horiz-adv-x="1538" 
d="M382 1425v-708h136v708h157v-708h139l-1 399l150 -399h112l152 402v-402h139v845h-125l-221 -600l-219 600h-647v-137h228z" />
    <glyph glyph-name="uni2126" unicode="&#x2126;" horiz-adv-x="1548" 
d="M120 205l-21 -138h598l19 122l-8 3q-417 162 -343 638q20 125 72 233.5t131 191.5t191 130.5t243 47.5q107 0 191 -30.5t137.5 -85.5t87 -131t38 -165.5t-9.5 -190.5q-75 -476 -545 -638l-8 -3l-19 -122h597l21 138h-276q158 113 250.5 274t122.5 351q63 398 -154 599
q-63 57 -129 88q-110 53 -282 53q-165 0 -306 -57.5t-241 -158.5t-165.5 -234.5t-90.5 -289.5q-30 -186 14 -349t165 -276h-280z" />
    <glyph glyph-name="arrowleft" unicode="&#x2190;" horiz-adv-x="1686" 
d="M216 774q174 -134 334.5 -317t252.5 -363l4 -10l143 84l-7 10q-220 365 -441 562q13 -1 39 -1h1174l23 144h-1174h-39q278 191 618 559l10 9l-115 84l-8 -9q-351 -391 -803 -680l-6 -4l-10 -64z" />
    <glyph glyph-name="arrowup" unicode="&#x2191;" horiz-adv-x="1638" 
d="M943 1236l-185 -1169h143l185 1169l6 40q172 -268 482 -529l9 -6l104 125l-9 7q-352 283 -573 690l-4 5h-66l-4 -5q-350 -404 -795 -690l-11 -7l65 -126l11 8q413 282 648 529z" />
    <glyph glyph-name="arrowright" unicode="&#x2192;" horiz-adv-x="1686" 
d="M789 168l116 -83l9 9q357 402 802 680l5 4l10 64l-4 4q-367 303 -586 680l-6 8l-143 -83l6 -9q224 -360 446 -559h-43h-1173l-23 -144h1173q26 0 39 1q-157 -111 -305 -248.5t-314 -313.5z" />
    <glyph glyph-name="arrowdown" unicode="&#x2193;" horiz-adv-x="1638" 
d="M786 64q6 -8 9 -13l3 -3h64l3 4q342 401 793 693l11 6l-64 127l-79 -52q-8 -5 -21.5 -15.5t-18.5 -14.5l-36 -26q-73 -52 -80 -57q-3 -3 -7 -5q-1 -2 -6 -5q-56 -40 -132 -102q-46 -35 -65 -52l-70 -65q-100 -94 -146 -142q4 25 7 41l184 1167h-143l-184 -1167l-7 -40
q-87 138 -204.5 262.5t-275.5 264.5l-9 9l-105 -128l9 -6q169 -131 326 -317q99 -119 179 -264q23 -44 65 -100z" />
    <glyph glyph-name="arrowboth" unicode="&#x2194;" horiz-adv-x="2163" 
d="M792 158q5 -9 15 -25l5 -10l142 85l-6 10q-73 117 -183 269q-57 79 -80 106q-79 95 -178 183h1396q-156 -110 -305 -247t-313 -310l-10 -10l112 -86l9 10q361 405 803 680l5 4l11 64l-5 4q-356 276 -587 679l-6 10l-139 -83l7 -10q211 -351 442 -561h-1397
q290 202 618 561l9 10l-115 82l-8 -9q-361 -406 -801 -679l-5 -4l-11 -64l5 -4q284 -221 454 -462q35 -49 116 -193z" />
    <glyph glyph-name="arrowupdn" unicode="&#x2195;" horiz-adv-x="1638" 
d="M631 -2q80 -113 127 -173l4 -4h63l4 5q354 403 793 689l10 7l-63 127l-11 -7q-378 -249 -650 -529l220 1390q88 -136 201.5 -255.5t278.5 -269.5l9 -9l106 125l-9 6q-354 291 -573 692l-4 4h-66l-4 -4q-339 -395 -795 -692l-11 -6l65 -125l12 8q420 287 647 525
l-220 -1390q-77 122 -153 209q-32 38 -84 90q-135 139 -244 231l-8 8l-105 -128l9 -7q64 -52 124.5 -112.5t120.5 -134t101 -128t105 -142.5z" />
    <glyph glyph-name="partialdiff" unicode="&#x2202;" horiz-adv-x="1226" 
d="M1231 639q20 74 35 170q13 84 19 154t2.5 154.5t-22 151.5t-60 130.5t-105.5 105.5q-99 65 -281 65q-240 0 -423 -200l-6 -9l95 -100l9 12q128 160 303 160q140 0 209 -51q170 -122 127 -495q-127 151 -389 151q-220 0 -377.5 -138t-192.5 -354q-34 -219 82.5 -359.5
t339.5 -140.5q105 0 197 32.5t160 88t124 132.5t92.5 161t61.5 179zM803 225l-1 1q-92 -42 -186 -42q-153 0 -237 107t-60 259q24 149 136.5 249t264.5 100q118 0 208.5 -44.5t131.5 -135.5q7 -14 15 -41q8 -23 8 -25q1 -1 1 -4t1 -5l1 -1v-2q-2 -14 -12 -43
q-10 -30 -15 -43q-86 -238 -256 -330z" />
    <glyph glyph-name="uni2206" unicode="&#x2206;" horiz-adv-x="1436" 
d="M99 67h1260l14 94l-348 1389h-120l-790 -1387q-2 -2 -2 -7q0 -1 -0.5 -2.5l-1 -3t-0.5 -3.5q-3 -21 -4 -26q-6 -38 -6 -42zM296 205l631 1117l278 -1117h-909z" />
    <glyph glyph-name="product" unicode="&#x220f;" horiz-adv-x="1266" 
d="M333 1550l-277 -1751h143l256 1613h803l-256 -1613h144l277 1751h-1090z" />
    <glyph glyph-name="summation" unicode="&#x2211;" horiz-adv-x="1324" 
d="M73 -92l-17 -109h1148l23 142h-930l776 731l8 50l-541 690h920l21 138h-1148l-16 -106l587 -747z" />
    <glyph glyph-name="minus" unicode="&#x2212;" horiz-adv-x="1228" 
d="M222 848l-22 -138h1052l22 138h-1052z" />
    <glyph glyph-name="uni2215" unicode="&#x2215;" horiz-adv-x="1126" 
d="M1111 1607l-1027 -1635l171 21l1044 1655z" />
    <glyph glyph-name="uni2219" unicode="&#x2219;" horiz-adv-x="379" 
d="M223 850q-7 -42 16.5 -72.5t66.5 -30.5q103 0 120 103q7 45 -17.5 72.5t-70.5 27.5q-100 0 -115 -100z" />
    <glyph glyph-name="radical" unicode="&#x221a;" horiz-adv-x="1506" 
d="M1716 1879h-152l-857 -1564l-144 592h-331l-22 -139h234l169 -701h107z" />
    <glyph glyph-name="infinity" unicode="&#x221e;" horiz-adv-x="1848" 
d="M1134 940v1l-73 -73q-2 4 -5 8.5t-7 10t-6 8.5q-70 107 -91 133l-24 33q-64 92 -132 123q-52 24 -156 24q-75 0 -141 -28t-114 -73.5t-85.5 -106t-60 -123.5t-32.5 -128q-10 -51 -7.5 -104.5t11.5 -104t33.5 -95t57.5 -77.5t83 -52.5t111 -19.5q38 0 85 5q60 6 120 44
q1 1 31 17q12 7 23 16q3 2 8.5 7.5l9.5 9.5q11 9 33 29q12 10 24.5 22t27 26.5l22.5 22.5l142 143q26 -41 136 -196q24 -35 60.5 -70t70.5 -53q46 -23 159 -23q92 0 170 41t130 108t85 144.5t46 159.5q8 65 8 129.5t-19.5 124t-52 105t-90.5 73t-133 27.5q-106 0 -166 -26.5
t-151 -104.5q-10 -8 -16 -14q-8 -10 -13 -14q-26 -26 -53 -50q-37 -35 -54 -54zM912 808q24 -38 35 -57l-12 -12v-2l-216 -212q-57 -54 -95 -75q-31 -16 -100 -16q-52 0 -87 27q-28 24 -35 32q-39 46 -51.5 118.5t0.5 137.5q8 54 30 108.5t55 102.5t82.5 78t105.5 30
q64 0 96 -18q5 -2 8 -6q4 -2 9 -7q40 -36 73 -86l18 -28q38 -52 40 -55q30 -38 44 -60zM1723 937q27 -93 12 -188q-9 -54 -33.5 -114t-56.5 -101q-36 -43 -84 -71.5t-93 -28.5q-63 0 -97.5 19.5t-72.5 69.5q-62 81 -163 230q83 88 112 115q59 54 72 65q4 3 15.5 12.5
t17.5 15.5q5 4 19 18t22 21q83 68 172 68q54 0 90 -26q13 -9 32 -33.5t26 -39.5l6 -15q1 -3 2.5 -9t1.5 -8z" />
    <glyph glyph-name="integral" unicode="&#x222b;" horiz-adv-x="1088" 
d="M76 -123q85 -78 195 -78q160 0 251.5 85.5t116.5 242.5l206 1301q31 187 205 187q71 0 124 -61l12 -12l81 141l-7 6q-82 66 -188 66q-159 0 -252 -85.5t-118 -241.5l-206 -1301q-16 -100 -66 -146q-47 -40 -144 -40q-57 0 -127 52l-11 8l-79 -118z" />
    <glyph glyph-name="approxequal" unicode="&#x2248;" horiz-adv-x="1172" 
d="M821 1011l-9 4l-15 7.5t-18 8.5q-97 45 -111 50q-60 22 -127 22q-82 0 -148.5 -32t-147.5 -96l-3 -4l-34 -214l25 25q1 1 25.5 25t38.5 36q31 31 69 61q86 62 153 62q49 0 101 -22q26 -11 92 -45q140 -71 232 -71q135 0 288 128l4 4l34 212l-25 -25q-185 -182 -277 -182
q-45 0 -103 28q-17 10 -24 12l-6 2l-4.5 1.5t-2.5 0.5q-6 2 -7 2zM180 580l-32 -200l25 22q6 5 39 35.5t52 46.5q60 49 99 71q41 22 94 22q56 0 135 -35q20 -9 35 -18l11 -8q4 -4 12 -8q3 -2 13 -4l9 -3q14 -4 40 -16q101 -45 171 -45q138 0 288 131l4 2l34 214l-25 -25
q-186 -186 -278 -186q-59 0 -151 48l-37 19q-8 4 -30 13t-33 15q-82 45 -176 45q-85 0 -152.5 -33t-143.5 -100z" />
    <glyph glyph-name="notequal" unicode="&#x2260;" horiz-adv-x="1186" 
d="M459 491l-174 -270h163l172 270h556l22 140h-491l183 285h353l22 138h-285l163 261h-159l-165 -261h-564l-22 -138h497l-182 -285h-360l-22 -140h293z" />
    <glyph glyph-name="lessequal" unicode="&#x2264;" horiz-adv-x="1220" 
d="M221 842l952 -582l27 167l-771 466l916 449l25 163l-1132 -558zM120 205l-21 -138h1044l21 138h-1044z" />
    <glyph glyph-name="greaterequal" unicode="&#x2265;" horiz-adv-x="1220" 
d="M156 427l-27 -167l1136 582l17 105l-956 558l-25 -163l770 -449zM120 205l-21 -138h1044l21 138h-1044z" />
    <glyph glyph-name="uniF8FF" unicode="&#xf8ff;" horiz-adv-x="2420" 
d="M88 -370v2408h2244v-2408h-2244zM426 202h254v442h886v236h-886v634h886v226h-1148v-1528q0 -2 2 -4q0 -6 6 -6zM852 202h1146v1538h-262v-430h-884v-244h884v-626h-884v-238zM1348 -96q20 0 38 6q8 4 15 6q6 1 11 12q0 2 1.5 6t2.5 7q2 10 2 15q0 7 -2 17q-1 3 -2 7
l-2 4q-5 8 -11 12q-9 5 -11 6l-12 3q-12 2 -18 5q-12 6 -18 6q-4 0 -9 6q-5 7 -5 10q0 12 16 12q9 0 14 -1q10 -2 14 -5q8 -5 15 -7q11 -3 13 -5l18 36q-12 8 -34 14q-24 6 -36 6q-13 0 -34 -8q-2 -1 -4.5 -2.5t-5.5 -2.5t-4 -2q-5 -2 -10 -11q-8 -11 -8 -30q0 -3 2 -13
q1 -6 6 -11q6 -7 8 -9l10 -7q5 -4 14 -4t18 -4l8 -3q4 -1 8 -5l10 -6q6 -6 6 -8q0 -10 -8 -13t-16 -3q-10 0 -31 8q-18 7 -29 18l-18 -34q18 -15 38 -20q5 -1 19 -5q11 -3 21 -3zM654 -98q40 0 66 24q27 25 28 66q2 26 -14 46q-12 15 -13 16q-14 14 -17 16q-17 10 -50 10
q-23 0 -46 -10q-21 -13 -34 -32q-12 -23 -12 -46q0 -26 12 -46q12 -23 33 -34q20 -10 47 -10zM1750 -98q19 0 38 10q20 11 32 24l-26 24q-7 -5 -22 -12q-8 -6 -22 -6q-9 0 -22 8l-10 7q-2 2 -8 11q-4 7 -4 26q0 17 4 26q1 4 18 16q10 6 22 6q14 0 22 -6q16 -6 22 -16l24 30
q-8 10 -13 14q-8 7 -15 8q-5 1 -20 5q-10 3 -20 3q-39 0 -65 -23q-25 -22 -25 -65q0 -29 10 -46q16 -24 34 -34q17 -10 46 -10zM426 -92h44v60h76v34h-76v40h82v34h-126v-168zM770 -92h42v100l78 -100h40v168h-42v-100l-78 100h-40v-168zM1000 -92h44v134h50v34h-148v-34h54
v-134zM1076 -92h46l12 28h74l12 -28h48l-72 168h-46zM1478 -92h44v134h52v34h-148v-34h52v-134zM1592 -92h44v168h-44v-168zM1818 -92h48l10 28h78l8 -28h48l-72 168h-46zM656 -60q-22 0 -35 16t-13 36q0 10 6 26q3 4 9 10l9 8q12 6 24 6t24 -6q10 -6 16 -18q0 -3 4 -13
q2 -6 2 -13q0 -10 -1 -13q-3 -10 -5 -13q-11 -14 -16 -18q-18 -8 -24 -8zM1148 -30l24 62l22 -62h-46zM1890 -30l24 62l22 -62h-46zM830 -596q-32 0 -42 28q-6 10 -6 26q0 17 4 28q4 10 12 16q6 5 18 10q6 2 18 2q36 0 46 -36q4 -20 0 -36q-4 -17 -18 -28q-13 -10 -32 -10z
M1340 -594q-17 0 -22 4q-12 4 -16 16l-4 8q0 1 -1 3t-1 3l9 2q10 2 11 2l2 -4q4 -16 22 -16q4 0 12 3t8 9q0 8 -5 11q-3 2 -21 7q-21 5 -26 10q-10 12 -6 28q4 15 24 20q0 2 16 2q17 -1 26 -10q10 -6 10 -20v-4h-22v4q-5 14 -16 14q-2 0 -3 -1t-3 -1q-14 -6 -12 -14
q0 -2 22 -8q21 -7 30 -16q7 -7 8 -18q0 -17 -10 -24q-8 -8 -15 -9q-5 -1 -17 -1zM1662 -594q-32 0 -48 34q-5 8 -3 19l3 19q6 26 32 34q3 0 6 1t8 1q20 0 32 -12q4 -4 7 -10t3 -8l-10 -4l-8 -2q-3 0 -4 4q-6 14 -20 14t-20 -10q-7 -12 -8 -20q0 -9 1 -15q2 -10 5 -13
q5 -14 20 -14q16 0 22 16l2 6l10 -2q10 -4 10 -5l-2 -9q-14 -24 -38 -24zM1996 -594q-12 0 -25 7t-17 17q-14 32 0 60q8 10 13 14q8 7 17 8q2 2 16 2q8 0 17 -3q8 -3 13 -11q2 -2 8 -10q4 -6 2 -6q-3 -3 -11 -4l-11 -2q-1 1 -2 4q-2 12 -18 12t-21 -11q-5 -12 -5 -25
q0 -12 5 -24q4 -10 21 -10q16 0 20 16q0 4 2 4v2l12 -4l6 -2v-4q0 -2 -2 -8q0 -2 -2 -4t-2 -4q-14 -14 -36 -14zM134 -594l-12 2l-24 102q0 2 10 2h12l14 -68l2 7q2 10 6 23q10 23 10 32l2 6h24l10 -34l8 -34q2 0 4 11q0 3 1.5 11t2.5 12t2.5 9t3 12t2.5 11q0 2 10 2
q12 0 12 -2q-2 -9 -10 -42q-1 -6 -3.5 -17t-4.5 -16l-6 -23v-6h-24v6q-2 2 -5 13q0 1 -2.5 10.5t-4.5 14.5l-8 32l-10 -30l-10 -46h-12zM292 -594q-2 2 -4 2l-4 16q-2 6 -4.5 19.5t-3.5 15.5t-3.5 15.5t-4.5 19.5l-4 16q0 2 10 2h11q1 0 1 -2q2 -6 2 -10q4 -11 4 -22l8 -34
l18 68h26q2 0 2 -2l10 -36l6 -34l16 70q0 2 10 2q12 0 12 -2q-2 -8 -2 -14q0 -1 -1.5 -7.5t-2.5 -10.5q-1 -9 -6 -20l-14 -52h-10l-12 2l-10 38q-1 3 -2.5 8t-1.5 7q-1 3 -2 7l-2 4q0 4 -2 12q-2 -8 -2 -12q-2 -6 -3 -11q-2 -10 -5 -15l-10 -40h-20zM466 -594q-11 0 -12 4
l-4 16q-2 6 -4.5 19.5t-3.5 15.5t-3.5 15.5t-4.5 19.5l-4 16h22l6 -34l10 -34l3 11l12 46l3 11h24l10 -34q6 -32 10 -36q0 2 2 10q-1 4 4 26l8 34h10q12 0 12 -2q-2 -8 -2 -14q0 -1 -1.5 -7.5t-2.5 -10.5q-1 -9 -6 -20l-14 -50l-10 -2h-12l-10 40l-7 27q-3 11 -3 9l-20 -74z
M668 -592v102q0 2 7 2h65v-18h-50v-24h42v-18h-42v-22l-2 -22h-20zM928 -594v106h20l42 -68v68h20v-104l-10 -2h-10l-42 68v-68h-20zM1084 -594v88h-30v18h84v-18h-32v-88h-22zM1162 -594q-2 2 -4 2q2 4 5 12l11 28q8 22 13 33q1 2 11 29q0 2 10 2h12l42 -104q-2 0 -4 -2h-6
l-14 2l-8 24h-40l-10 -24l-10 -2h-8zM1452 -594v88h-32v18h84v-18h-30v-88h-22zM1546 -594v106h20v-106h-20zM1742 -594l-2 2q1 4 4 12l10 28q8 22 13 33q1 2 11 29q0 2 12 2h12l40 -104q-2 0 -2 -2h-8l-12 2l-10 24h-40l-8 -24l-12 -2h-8zM2132 -594q-24 0 -37 15
q-13 14 -13 37q0 16 9 33t25 21q29 0 47 -7q19 -7 19 -45q0 -23 -11 -39q-11 -15 -39 -15zM2228 -594v106h32l8 -34l6 -24q1 -2 2.5 -5.5t1.5 -4.5l8 30q10 29 10 36v2h34v-106h-22v80l-8 -36l-7 -27q-3 -10 -3 -13v-4h-12l-10 2l-8 38l-12 38v-76l-10 -2h-10zM832 -576
q20 0 26 20q2 6 1 14q-1 7 -1 16q0 10 -12 18q-7 4 -12 4q-14 0 -24 -10q-3 -3 -5 -10q-1 -4 -1 -18q0 -15 8 -26q8 -8 20 -8zM2132 -576q10 0 14 4q14 6 14 30q0 26 -14 34q-3 1 -5 3q-1 1 -7 1q-18 0 -23 -11q-5 -12 -5 -27t4 -24q4 -10 22 -10zM1776 -550h28q0 2 -6 18
q-4 7 -4 10l-2 6q-1 1 -4 -4q-1 -1 -2 -4zM1196 -550h26q0 2 -6 18q-4 7 -4 10l-2 6l-6 -8zM598 -592v20h20v-20h-20zM1884 -592v20h20v-10l-2 -10h-18z" />
    <glyph glyph-name="space.tf" horiz-adv-x="840" 
 />
    <glyph glyph-name="NULL" horiz-adv-x="0" 
 />
    <glyph glyph-name="_FSHallmark" horiz-adv-x="1784" 
d="M92 1294v190h1604v-190h-1604zM1350 396q-92 0 -173 33q-83 33 -132 99q-51 65 -51 158l186 -4q0 -8 12 -32q3 -26 28 -48q18 -21 46 -32q32 -20 92 -20q28 0 53 5q20 4 51 17q34 22 34 52q0 58 -152 88q-67 20 -133 44q-54 18 -101 44q-44 20 -70 62q-26 38 -26 96
q0 86 55 137q56 52 149 87q5 0 13 1.5t23 4t26 4.5q39 4 70 4q85 0 160 -28t123 -87q47 -59 47 -143h-192q0 29 -14 46q-18 18 -36 32q-10 3 -20 10q-9 3 -11 4q-3 0 -8 2t-7 2l-24 6q-15 4 -22 4q-26 0 -55 -10q-30 -10 -51 -30q-22 -19 -22 -46t8 -48q6 -21 28 -30l15 -5
q7 -5 21 -9q30 -13 46 -14l130 -34l28 -6q15 -6 30 -6l24 -6q14 -4 20 -8l40 -18q36 -22 62 -52q18 -42 24 -88q1 -3 1 -13q0 -13 -5 -35q-3 -15 -16 -46q-45 -79 -131 -111q-87 -33 -193 -33zM92 396v798h674v-180h-464v-182h388v-178h-388v-258h-210zM844 400
q-16 0 -32 10q-22 12 -30 20q-14 12 -26 30q-8 11 -8 34q0 39 30 66q26 26 66 26q38 0 78 -28q32 -26 32 -64t-32 -70q-36 -24 -78 -24zM88 108v190h1606v-190h-1606z" />
    <glyph glyph-name="_Fontastica" horiz-adv-x="1394" 
d="M94 322q-2 0 -6 4v1182h884v-174h-682v-490h682v-182h-682v-340h-196zM422 322v184h682v482h-682v188h682v332h202v-1186h-884zM280 128q-29 0 -50 18q-22 16 -22 48q0 26 22 48q21 18 50 18q22 0 33 -7t25 -27q10 -16 10 -32q0 -29 -20 -46q-20 -20 -48 -20zM798 128
q-34 0 -60 20l14 26q8 -8 22 -14t24 -6q16 0 16 12q0 2 -2 4q-2 0 -2 4q0 2 -2 2l-4 2q-3 0 -14 4t-14 4q-1 -1 -3 -1q-4 0 -11 7q-9 7 -10 10q-6 6 -6 20q0 21 18 30q14 8 34 8q26 0 52 -14l-14 -28q-14 14 -42 14q-4 0 -6 2q-1 1 -2 1q-2 -2 -2 -3l-2 -8q0 -2 2 -2v-4
q0 -4 4 -4q0 -2 2 -2q20 0 40 -13q20 -14 20 -31q0 -20 -16 -30q-19 -10 -36 -10zM1096 128q-42 0 -58 34q-10 16 -10 32q0 15 11 35t23 23l16 6q8 2 18 2q15 0 30 -6q12 -6 22 -16l-20 -24q-1 4 -13 12q-11 6 -17 6q-5 0 -16 -4q-12 -8 -14 -14q-4 -7 -4 -20q0 -7 5 -19
t11 -13q3 -3 8 -4q6 -2 10 -2q6 0 16 6q8 4 14 10l20 -20q-9 -11 -23 -17q-13 -7 -29 -7zM106 130v128h96v-26h-62v-30h58v-26h-58v-46h-34zM364 130v128h30l58 -78v78h32v-128h-30l-58 76v-76h-32zM536 130v100h-38v28h108v-28h-36v-100h-34zM594 130l54 128h34l54 -128
h-36l-8 24h-56l-8 -24h-34zM894 130v100h-38v28h108v-28h-38v-100h-32zM978 130v128h34v-128h-34zM1148 130l56 128h34l54 -128h-36l-10 24h-54l-10 -24h-34zM280 154q17 0 26 12q8 11 8 28q0 15 -10 26q-10 12 -24 12q-16 0 -26 -10q-10 -13 -10 -28q0 -17 10 -28
q10 -12 26 -12zM646 178h36l-18 46zM1202 178h34l-18 46z" />
    <glyph glyph-name="_www.fontastica.com" horiz-adv-x="3962" 
d="M92 720q-2 0 -4 2v418h316v-62h-244v-174h244v-64h-244v-120h-68zM206 720v64h244v172h-244v66h244v118h72v-420h-316zM2528 754q-37 0 -86 17q-47 16 -76 39l36 72q22 -19 62 -36q38 -18 64 -18q21 0 32 8q14 8 14 22q0 7 -2 13q-4 6 -8 7q-3 1 -12 8q-2 1 -4.5 2.5
t-4 2t-3.5 1.5l-4 2q-3 0 -8 1.5t-7 2.5q-3 1 -8 2.5t-7 1.5q-7 1 -16 5q-12 4 -18 5q-8 2 -28 10q-13 5 -20 12q-34 18 -34 74q0 54 41 81t97 27q33 0 74 -10q36 -12 66 -30l-34 -72q-17 9 -56 26q-29 10 -58 10q-36 0 -36 -24q0 -7 11 -18t19 -14l20 -5q12 -3 30 -9
q27 -9 48 -18q7 -5 22 -12q20 -20 27 -35t7 -43q0 -34 -18 -58q-20 -29 -54 -38q-36 -12 -68 -12zM1114 752q-52 0 -95 24q-42 22 -68 65q-25 40 -25 93q0 54 25 94q25 42 67 64q43 22 96 22t96 -22q41 -21 68 -64q24 -40 24 -94q0 -53 -25 -93q-26 -43 -68 -65
q-43 -24 -95 -24zM3340 752q-50 0 -92 24t-66 66t-24 92q0 53 25 93q25 42 67 64q43 23 94 23q42 0 78 -14q32 -13 62 -46l-52 -64q-14 20 -38 34q-24 12 -48 12q-45 0 -70 -28q-26 -29 -26 -72q0 -42 27 -72t69 -30q27 0 48 12q17 7 38 28l54 -56q-30 -30 -66 -46
q-38 -20 -80 -20zM646 760v348h260v-72h-170v-78h156v-74h-156v-124h-90zM1348 760v348h80l160 -210l-2 210h86v-348h-80l-158 208v-208h-86zM1814 760v274h-104v74h300v-74h-106v-274h-90zM1972 760l150 348h94l146 -348h-96l-24 60h-152l-24 -60h-94zM2788 760v274h-104
v74h300v-74h-104v-274h-92zM3022 760v348h90v-348h-90zM3484 760l150 348h94l146 -348h-98l-22 60h-152l-24 -60h-94zM1116 830q41 0 68 32q26 32 26 72q0 41 -26 72q-26 30 -68 30t-70 -28q-26 -29 -26 -74q0 -43 27 -73q27 -31 69 -31zM2118 890h96l-46 126zM3630 890h96
l-48 126z" />
    </font>
</defs>
</svg>
