<?xml version="1.0" standalone="no"?>
<!DOCTYPE svg PUBLIC "-//W3C//DTD SVG 1.1//EN" "http://www.w3.org/Graphics/SVG/1.1/DTD/svg11.dtd" >
<svg xmlns="http://www.w3.org/2000/svg" xmlns:xlink="http://www.w3.org/1999/xlink" version="1.1">
<metadata>
Created by FontForge 20170731 at Wed May 20 18:04:14 2020
 By Aleksey,,,
Copyright (c) 2020 by Fontastica. All rights reserved.
</metadata>
<defs>
<font id="ClarityNuvo-Thin" horiz-adv-x="1016" >
  <font-face 
    font-family="Clarity Nuvo Thin"
    font-weight="100"
    font-stretch="normal"
    units-per-em="2048"
    panose-1="0 0 2 0 0 0 0 0 0 0"
    ascent="1638"
    descent="-410"
    x-height="1154"
    cap-height="1602"
    bbox="-274 -596 3874 2160"
    underline-thickness="50"
    underline-position="-200"
    unicode-range="U+000D-F8FF"
  />
<missing-glyph horiz-adv-x="1000" 
d="M88 2v1446h824v-1446h-824zM498 810l310 568h-614zM830 192v1066l-288 -532zM170 196l284 530l-284 524v-1054zM194 74h614l-308 566z" />
    <glyph glyph-name="f_f.liga" unicode="ff" horiz-adv-x="1200" 
d="M802 1366q-44 -79 -44 -170v-37h249v-60h-249v-1099h-60l1 1099h-384v-1099h-60l1 1099h-168v60h169q3 88 13 135q11 52 38 101q54 105 147 156q92 51 214 51l-1 -58q-112 -1 -187 -49q-78 -50 -122 -129t-44 -170v-37h385q3 83 14 135q11 51 37 101q54 105 147 156
q92 51 214 51l-1 -58q-112 -1 -187 -49q-78 -50 -122 -129z" />
    <glyph glyph-name="f_f_t.liga" unicode="fft" horiz-adv-x="1571" 
d="M1483 1157v-60h-267l1 -790q0 -113 38 -181q37 -67 141 -67q2 0 26 2l20 1l25 -60q-50 -2 -67 -2q-92 0 -147 38q-54 38 -75 104q-21 68 -21 165l1 790l-400 2v-1099h-60l1 1099h-384v-1099h-60l1 1099h-168v60h169q3 88 13 135q11 52 38 101q54 105 147 156
q92 51 214 51l-1 -58q-112 -1 -187 -49q-78 -50 -122 -129t-44 -170v-37h385q3 83 14 135q11 51 37 101q54 105 147 156q92 51 214 51l-1 -58q-112 -1 -187 -49q-78 -50 -122 -129t-44 -170v-37l400 -2v445h58v-445h267z" />
    <glyph glyph-name="f_t.liga" unicode="ft" horiz-adv-x="1128" 
d="M1040 1157v-60h-267l1 -790q0 -113 38 -181q37 -67 141 -67q2 0 26 2l20 1l25 -60q-50 -2 -67 -2q-92 0 -147 38q-54 38 -75 104q-21 68 -21 165l1 790v2h-400v-1099h-60l1 1099h-168v60h169q3 83 14 135q11 51 37 101q54 105 147 156q92 51 214 51l-1 -58
q-112 -1 -187 -49q-78 -50 -122 -129t-44 -170v-37h400v443h58v-445h267z" />
    <glyph glyph-name="t_t.liga" unicode="tt" horiz-adv-x="1074" 
d="M986 1167v-60h-267l1 -814q0 -113 38 -181q37 -67 141 -67q2 0 26 2l20 1l25 -60q-50 -2 -67 -2q-92 0 -147 38q-54 38 -75 104q-21 68 -21 165l1 814h-364l1 -814q0 -113 38 -181q37 -67 141 -67q2 0 26 2l20 1l25 -60q-50 -2 -67 -2q-96 0 -147 38q-54 38 -75 104
q-21 68 -21 165l1 814h-151v60h151v435h58v-435h364v435h58v-435h267z" />
    <glyph glyph-name=".notdef" horiz-adv-x="1000" 
d="M88 2v1446h824v-1446h-824zM498 810l310 568h-614zM830 192v1066l-288 -532zM170 196l284 530l-284 524v-1054zM194 74h614l-308 566z" />
    <glyph glyph-name=".null" horiz-adv-x="0" 
 />
    <glyph glyph-name="nonmarkingreturn" horiz-adv-x="682" 
 />
    <glyph glyph-name="CR" unicode="&#xd;" horiz-adv-x="0" 
 />
    <glyph glyph-name="space" unicode=" " horiz-adv-x="850" 
 />
    <glyph glyph-name="exclam" unicode="!" horiz-adv-x="299" 
d="M150 63q-25 0 -43 19q-19 18 -19 43q0 26 19 44q18 18 43 18t43 -18t18 -44t-18 -44t-43 -18zM123 444v1098h56v-1098h-56z" />
    <glyph glyph-name="quotedbl" unicode="&#x22;" horiz-adv-x="434" 
d="M88 1296v370h56v-370h-56zM290 1296v370h56v-370h-56z" />
    <glyph glyph-name="numbersign" unicode="#" horiz-adv-x="1398" 
d="M320 69l70 468h-302v52h310l70 454h-314v52h322l68 446h56l-70 -446h414l68 446h56l-68 -446h310v-52h-318l-70 -454h322v-52h-330l-70 -468h-56l70 468h-412l-70 -468h-56zM454 589h414l68 454h-414z" />
    <glyph glyph-name="dollar" unicode="$" horiz-adv-x="1222" 
d="M604 -150v220q-201 14 -322 100q-71 45 -123 125q-51 77 -71 167l52 28q20 -125 104 -217q85 -92 208 -125q74 -24 152 -28v652q-175 36 -250 64q-111 39 -173 120q-61 79 -61 196q0 121 71 210q70 88 182 134q110 46 231 46v220h52v-220q185 -10 301 -95
q114 -86 159 -245l-46 -36q-69 305 -414 326v-674q146 -30 232 -57l14 -5q114 -43 174 -118q58 -74 58 -194q0 -121 -69 -205q-70 -85 -179 -127q-110 -42 -230 -42v-220h-52zM656 120q175 13 301 89q123 75 123 235q0 100 -51 161q-54 63 -151 97q-119 39 -222 62v-644z
M604 830v662q-105 0 -204 -38q-98 -39 -161 -116q-63 -76 -63 -186q0 -99 54 -165q52 -65 150 -97q67 -24 224 -60z" />
    <glyph glyph-name="percent" unicode="%" horiz-adv-x="1686" 
d="M404 790q-82 0 -140 32q-92 42 -134 135q-42 91 -42 205q0 104 34 188q35 87 106 139q71 53 176 53q83 0 142 -32q94 -52 133 -139q39 -88 39 -209q0 -150 -74 -260q-42 -55 -98 -81q-55 -31 -142 -31zM404 840q87 0 146 44q58 43 85 116q27 74 27 162q0 97 -32 179
q-33 80 -108 125q-50 26 -118 26q-65 0 -120 -26q-49 -31 -80 -76q-29 -43 -44 -105q-16 -63 -16 -123q0 -97 34 -174q32 -78 108 -122q55 -26 118 -26zM1284 70q-83 0 -142 32q-94 50 -134 139q-42 88 -42 205q0 101 35 188q34 85 106 137q71 51 177 51q83 0 142 -32
q172 -90 172 -344q0 -79 -16 -139q-16 -61 -56 -121q-89 -116 -242 -116zM1284 120q130 0 198 102q33 42 46 101q14 62 14 123q0 86 -26 161q-26 72 -84 119q-58 46 -148 46q-65 0 -120 -26q-74 -43 -109 -124t-35 -176t35 -176t109 -124q55 -26 120 -26zM310 70l996 1472
h66l-996 -1472h-66z" />
    <glyph glyph-name="ampersand" unicode="&#x26;" horiz-adv-x="1365" 
d="M565 -22q-132 0 -240 45q-106 43 -172 136q-65 92 -65 228q0 120 70 226q70 107 211 225l56 45q-95 119 -138 211t-43 190t41 177q41 78 117 121q74 43 177 43q86 0 156 -35q68 -34 109 -101q39 -66 39 -155q0 -153 -211 -324l-166 -133l521 -593q60 83 94 190
q32 105 32 221h61q0 -263 -146 -457l209 -238h-74l-172 195q-211 -217 -466 -217zM565 37q118 0 232 53q112 52 195 149l-532 603l-57 -47q-141 -122 -199 -219q-57 -98 -57 -189q0 -93 47 -173q48 -82 144 -129q94 -48 227 -48zM469 917l175 139q177 142 177 278
q0 70 -31 122q-32 53 -86 81q-55 28 -125 28q-83 0 -144 -34t-96 -98t-35 -147q0 -172 165 -369z" />
    <glyph glyph-name="quotesingle" unicode="'" horiz-adv-x="232" 
d="M88 1296v370h56v-370h-56z" />
    <glyph glyph-name="parenleft" unicode="(" horiz-adv-x="608" 
d="M498 -221q-220 184 -315 437t-95 572q0 320 93 570q92 248 317 437l22 -30q-212 -177 -300 -421q-88 -243 -88 -556q0 -152 19 -282q18 -134 63 -252q51 -142 122 -246q72 -108 184 -199z" />
    <glyph glyph-name="parenright" unicode=")" horiz-adv-x="608" 
d="M112 -221l-24 30q213 176 302 421q88 243 88 558q0 310 -87 555q-86 243 -303 422l24 30q222 -186 315 -435q93 -250 93 -572q0 -319 -92 -571q-91 -249 -316 -438z" />
    <glyph glyph-name="asterisk" unicode="*" horiz-adv-x="1118" 
d="M294 718l-44 32l272 366l-434 138l16 52l432 -144l-4 454h54l-4 -454l432 144l16 -52l-432 -138l270 -366l-44 -32l-264 370z" />
    <glyph glyph-name="plus" unicode="+" horiz-adv-x="1216" 
d="M580 244v506h-492v50h492v490h56v-490h492v-50h-492v-506h-56z" />
    <glyph glyph-name="comma" unicode="," horiz-adv-x="363" 
d="M135 -248l-47 35q37 10 71 40q31 28 51 68q19 39 19 79q0 9 -4 21q-14 -17 -38 -17q-28 0 -40 20q-16 16 -16 40t20 44q17 14 42 14q42 0 62 -32q20 -34 20 -78q0 -75 -37 -137q-37 -61 -103 -97z" />
    <glyph glyph-name="hyphen" unicode="-" horiz-adv-x="814" 
d="M88 726v56h638v-56h-638z" />
    <glyph glyph-name="period" unicode="." horiz-adv-x="299" 
d="M150 -17q-25 0 -43 19q-19 18 -19 43q0 26 19 44q18 18 43 18t43 -18t18 -44t-18 -44t-43 -18z" />
    <glyph glyph-name="slash" unicode="/" horiz-adv-x="814" 
d="M88 -164l580 1780h58l-580 -1780h-58z" />
    <glyph glyph-name="zero" unicode="0" horiz-adv-x="1157" 
d="M578 -22q-148 0 -257 88q-122 97 -178 264q-55 165 -55 351v240q0 213 59 367t168 245t263 91q150 0 260 -88q124 -98 178 -263q53 -167 53 -353v-240q0 -207 -58 -366q-58 -152 -168 -244t-264 -92h-1zM579 37q131 0 235 82q107 88 154 240q45 151 45 321v242
q0 98 -13 182q-14 90 -37 152q-53 144 -147 226t-238 82q-153 0 -251 -98t-140 -244q-43 -144 -43 -299v-242q0 -153 43 -298q42 -147 140 -247q97 -99 252 -99z" />
    <glyph glyph-name="one" unicode="1" horiz-adv-x="578" 
d="M428 0v1533l-308 -285l-32 46l325 308h74l3 -1602h-62z" />
    <glyph glyph-name="two" unicode="2" horiz-adv-x="1173" 
d="M127 0v59l525 605q152 176 219 300q68 125 68 230q0 116 -45 198q-45 83 -132 128q-90 44 -213 44q-113 0 -205 -53q-92 -54 -144 -147q-53 -94 -53 -207h-59q0 129 61 235q61 108 166 170q106 62 234 62q136 0 238 -48q102 -49 157 -144q56 -98 56 -238q0 -96 -46 -191
q-45 -95 -106 -179q-63 -89 -178 -223l-465 -542h880v-59h-958z" />
    <glyph glyph-name="three" unicode="3" horiz-adv-x="1151" 
d="M557 -22q-134 -1 -240 50q-106 52 -164 148q-59 98 -59 230q0 5 2 39h60q-2 -40 -2 -44q0 -117 55 -199q56 -83 148 -123q93 -42 206 -42q118 0 217 43q100 42 161 127q61 83 61 204q0 119 -63 204q-64 87 -166 131q-105 44 -222 44h-164l-5 59h169q107 0 201 41
q92 41 149 120q56 80 56 190q0 108 -56 191t-149 128q-94 45 -203 45q-111 0 -202 -42q-94 -45 -145 -125q-54 -83 -54 -197q0 -4 2 -44h-60q-2 34 -2 39q0 132 59 230q58 96 164 148q104 51 238 51q130 0 238 -50q107 -50 168 -147q62 -98 62 -232q0 -89 -37 -163
q-38 -77 -104 -130t-156 -82q94 -25 175 -82q78 -56 123 -138t45 -183q0 -143 -67 -240q-67 -99 -182 -148q-112 -49 -257 -51z" />
    <glyph glyph-name="four" unicode="4" horiz-adv-x="1299" 
d="M941 0v420h-853l838 1182h74l2 -1124h209v-58h-209l1 -420h-62zM201 478h740v1049z" />
    <glyph glyph-name="five" unicode="5" horiz-adv-x="1102" 
d="M552 0q-128 0 -229 56q-100 55 -161 157t-74 230h61q13 -101 69 -187q57 -88 143 -136q87 -51 191 -51q106 0 206 58q94 55 146 161q51 105 51 226q0 131 -55 234q-56 103 -149 162q-95 59 -205 59q-98 0 -190 -51t-144 -135l-39 63l-1 -1v3l50 752h781v-59h-727
l-42 -626q66 59 147 91q79 30 165 30q131 0 238 -61q111 -62 169 -180q60 -121 61 -278q-1 -163 -60 -277q-59 -116 -164 -178q-104 -62 -238 -62z" />
    <glyph glyph-name="six" unicode="6" horiz-adv-x="1106" 
d="M549 4q-143 0 -246 60q-104 59 -160 167t-55 245v561l1 -550v434q0 209 70 367q72 160 202 248q128 88 301 88t304 -88l-24 -53q-118 81 -280 81q-172 0 -288 -89q-117 -90 -172 -234q-56 -147 -56 -318v-213q65 114 165 169q98 55 239 55q139 0 245 -58
q107 -58 165 -165q58 -106 58 -249q-3 -138 -63 -242q-61 -105 -165 -160q-106 -56 -241 -56zM549 70q115 0 208 51q92 51 146 141q52 90 54 203q2 114 -51 206q-53 93 -146 145q-94 52 -210 52t-207 -49t-144 -141q-52 -91 -52 -210q0 -110 51 -205q50 -95 145 -145
q91 -48 206 -48z" />
    <glyph glyph-name="seven" unicode="7" horiz-adv-x="1145" 
d="M253 0l704 1544l-869 3v55h969l-738 -1602h-66z" />
    <glyph glyph-name="eight" unicode="8" horiz-adv-x="1197" 
d="M600 -22q-142 0 -257 48q-116 48 -185 147q-70 97 -70 244q0 99 44 182q43 81 121 137q76 55 175 84q-89 26 -155 81q-67 54 -103 130q-37 74 -37 164q0 132 59 230q58 96 164 148q104 51 239 51q130 0 238 -50q107 -50 168 -147q62 -98 62 -232q0 -89 -37 -163
q-38 -77 -104 -130t-156 -82q94 -25 175 -82q78 -56 123 -138t45 -183q0 -143 -67 -241t-183 -148q-113 -50 -259 -50zM600 37q118 0 221 41q102 40 165 126q62 85 62 207q0 119 -63 204q-64 87 -166 131q-105 44 -222 44q-118 0 -220 -43t-166 -130q-64 -85 -64 -206
q0 -122 62 -207t165 -125q104 -42 226 -42zM597 849q107 0 201 41q92 41 149 120q56 80 56 190q0 108 -56 191t-149 128q-94 45 -203 45q-111 0 -202 -42q-93 -44 -146 -125q-54 -83 -54 -197q0 -111 55 -190q54 -79 146 -120q93 -41 203 -41z" />
    <glyph glyph-name="nine" unicode="9" horiz-adv-x="1106" 
d="M444 -10q-173 0 -304 88l24 53q118 -81 280 -81q172 0 288 89t172 235q56 147 56 317v213q-64 -112 -164 -168q-101 -56 -240 -56q-131 0 -238 55q-106 54 -168 159q-62 104 -62 243q0 141 59 250q58 106 166 165q106 58 244 58q143 0 247 -59q103 -60 159 -167
q55 -106 55 -246v-561l-1 550v-434q0 -212 -70 -367q-72 -161 -201 -248q-128 -88 -302 -88zM556 746q116 0 208 50q91 49 143 140t52 210q0 109 -50 206q-51 94 -146 144q-91 48 -206 48t-206 -51q-93 -51 -147 -141q-54 -91 -55 -203q-1 -113 52 -206q53 -92 146 -144
q94 -53 209 -53z" />
    <glyph glyph-name="colon" unicode=":" horiz-adv-x="299" 
d="M150 989q-25 0 -43 19q-19 18 -19 43q0 26 19 44q18 18 43 18t43 -18t18 -44t-18 -44t-43 -18zM150 -17q-25 0 -43 19q-19 18 -19 43q0 26 19 44q18 18 43 18t43 -18t18 -44t-18 -44t-43 -18z" />
    <glyph glyph-name="semicolon" unicode=";" horiz-adv-x="363" 
d="M135 -248l-47 35q37 10 71 40q31 28 51 68q19 39 19 79q0 9 -4 21q-14 -17 -38 -17q-19 0 -39 18q-17 19 -17 42q0 24 20 44q17 14 42 14q42 0 62 -32q20 -34 20 -78q0 -75 -37 -137q-37 -61 -103 -97zM192 989q-25 0 -43 19q-19 18 -19 43q0 26 19 44q18 18 43 18
t43 -18t18 -44t-18 -44t-43 -18z" />
    <glyph glyph-name="less" unicode="&#x3c;" horiz-adv-x="1168" 
d="M1080 192l-992 520v54l992 520v-62l-928 -484l928 -486v-62z" />
    <glyph glyph-name="equal" unicode="=" horiz-adv-x="1142" 
d="M88 968v50h966v-50h-966zM88 518v52h966v-52h-966z" />
    <glyph glyph-name="greater" unicode="&#x3e;" horiz-adv-x="1168" 
d="M88 192v62l930 486l-930 484v62l992 -520v-54z" />
    <glyph glyph-name="question" unicode="?" horiz-adv-x="1080" 
d="M502 400v326q91 26 178 66q127 49 193 150q65 101 65 240q0 105 -48 180q-50 76 -134 114q-87 38 -192 38q-192 0 -296 -85q-105 -85 -132 -273l-48 20q22 200 147 294q124 94 329 94q120 0 218 -42q97 -43 154 -129q56 -86 56 -211q0 -112 -32 -190q-37 -85 -96 -142
q-58 -57 -132 -93q-70 -34 -176 -67v-290h-54zM528 63q-25 0 -43 19q-19 18 -19 43q0 26 19 44q18 18 43 18t43 -18t18 -44t-18 -44t-43 -18z" />
    <glyph glyph-name="at" unicode="@" horiz-adv-x="1981" 
d="M944 -239q-278 0 -469 121q-192 121 -290 336q-97 213 -97 496q0 358 138 614q124 237 338 360q213 123 484 123q266 0 457 -98q191 -97 306 -321q82 -216 82 -510l-2 -81q-5 -135 -39 -277q-34 -143 -115 -248q-81 -104 -210 -104q-99 0 -154 64q-58 64 -74 165l-9 -5
q-56 -89 -129 -134t-173 -45q-126 0 -217 68q-89 67 -133 189q-29 78 -29 182q0 36 3 74l15 175q12 141 65 244q45 87 124 139q77 52 174 52q124 0 216 -65q90 -63 140 -182l16 211l49 -4l-65 -827q3 -139 58 -185q58 -52 125 -52q126 0 195 116q69 118 91 263t22 284
q0 213 -48 370q-48 156 -152 265q-193 214 -593 214q-244 0 -440 -118q-156 -93 -258 -237t-150 -317q-49 -172 -49 -362q0 -248 92 -452q93 -205 272 -322q181 -119 437 -119q90 0 191 23q97 22 172 65l26 -50q-71 -48 -181 -73t-212 -25zM991 281q97 0 166 54t107 140
q38 87 47 182l16 174q2 22 2 52q0 89 -27 164q-41 111 -119 168q-80 59 -194 59q-83 0 -151 -45q-69 -48 -109 -123q-23 -44 -34 -88t-18 -123l-17 -167q-4 -33 -4 -74q0 -40 6 -73q5 -30 20 -71q38 -108 117 -168q79 -61 192 -61z" />
    <glyph glyph-name="A" unicode="A" horiz-adv-x="1445" 
d="M88 0l598 1602h73l598 -1602h-64l-228 611h-684l-228 -611h-65zM403 670h640l-320 872z" />
    <glyph glyph-name="B" unicode="B" horiz-adv-x="1256" 
d="M88 0v1602h510q138 0 253 -37q117 -38 190 -123q74 -86 74 -225q0 -119 -59 -205q-57 -84 -173 -131q-5 -1 -15 -6t-18 -6q154 -45 237 -153q81 -110 81 -273q0 -149 -66 -247q-67 -98 -183 -145q-117 -47 -268 -48zM150 61h501q156 0 258 50q100 49 150 134
q49 82 49 196q0 243 -199 343q-60 30 -110 39q-49 9 -126 9h-523v-771zM147 893h504q102 0 196 35q93 35 151 108q58 71 58 178q0 97 -49 174q-56 90 -167 124q-109 34 -242 34h-451v-653z" />
    <glyph glyph-name="C" unicode="C" horiz-adv-x="1254" 
d="M661 -22q-185 0 -315 98q-128 96 -194 259q-64 159 -64 346v240q0 209 70 367q72 160 202 248q128 88 301 88q174 0 304 -88q131 -89 201 -248l-47 -32q-64 150 -180 229q-118 79 -278 79q-172 0 -288 -89q-117 -90 -172 -234q-56 -147 -56 -318v-242q0 -167 56 -314
q55 -147 172 -238q116 -92 289 -92q158 0 277 80q117 79 180 228l47 -31q-70 -160 -200 -248t-304 -88h-1z" />
    <glyph glyph-name="D" unicode="D" horiz-adv-x="1263" 
d="M88 0v1602h505q188 -2 318 -94q130 -93 198 -248q66 -156 66 -343v-233q0 -201 -73 -357q-70 -153 -199 -238q-131 -86 -297 -86zM591 58q162 0 281 80q129 84 187 229q58 144 58 317v236q0 174 -58 312q-59 140 -177 225q-121 85 -297 89h-438l3 -1485z" />
    <glyph glyph-name="E" unicode="E" horiz-adv-x="1145" 
d="M88 0v1602h969v-56h-910v-653h651l-2 -61h-646v-771h907v-58z" />
    <glyph glyph-name="F" unicode="F" horiz-adv-x="1145" 
d="M88 0v1602h969v-56h-910v-653h651l-2 -61h-646v-832h-62z" />
    <glyph glyph-name="G" unicode="G" horiz-adv-x="1254" 
d="M661 -22q-185 0 -315 98q-128 96 -194 259q-64 159 -64 346v240q0 209 70 367q72 160 202 248q128 88 301 88q174 0 304 -88q131 -89 201 -248l-47 -32q-64 150 -180 229q-118 79 -278 79q-172 0 -288 -89q-117 -90 -172 -234q-56 -147 -56 -318v-242q0 -167 56 -314
q55 -147 172 -238q116 -92 289 -92q156 0 268 75q113 74 179 216v490h-448v53h501v-567q-73 -155 -201 -241q-128 -85 -299 -85h-1z" />
    <glyph glyph-name="H" unicode="H" horiz-adv-x="1147" 
d="M88 0v1602h59v-709h853v709h59v-1602h-61v832h-848v-832h-62z" />
    <glyph glyph-name="I" unicode="I" horiz-adv-x="238" 
d="M88 0v1602h59l3 -1602h-62z" />
    <glyph glyph-name="J" unicode="J" horiz-adv-x="1146" 
d="M574 0q-148 0 -258 65t-169 181t-59 266h48q3 -133 55 -236q51 -103 149 -162t234 -59q134 0 234 59q98 59 150 164q52 104 52 242l-1 1082h49v-1090q0 -148 -57 -263q-58 -117 -166 -182q-109 -67 -261 -67z" />
    <glyph glyph-name="K" unicode="K" horiz-adv-x="1219" 
d="M88 0v1602h59v-806l890 805h74l-745 -682l765 -919h-62l-743 883l-176 -160v-723h-62z" />
    <glyph glyph-name="L" unicode="L" horiz-adv-x="1145" 
d="M88 0v1602h59l3 -1541h907v-58z" />
    <glyph glyph-name="M" unicode="M" horiz-adv-x="1432" 
d="M88 0v1602h59v-6l568 -1537l570 1543h59v-1602h-61l2 1428l-534 -1428h-72l-532 1421l3 -1421h-62z" />
    <glyph glyph-name="N" unicode="N" horiz-adv-x="1148" 
d="M89 0v1599l-1 3h61l850 -1472l2 1472h59v-1602h-61v4l-850 1473l2 -1477h-62z" />
    <glyph glyph-name="O" unicode="O" horiz-adv-x="1323" 
d="M661 -22q-185 0 -315 98q-128 96 -194 259q-64 159 -64 346v240q0 209 70 367q72 160 202 248q128 88 301 88q189 0 319 -97q129 -97 192 -258t63 -349v-240q0 -204 -69 -366q-70 -160 -200 -248t-304 -88h-1zM662 37q174 0 290 89q116 88 171 234q55 144 55 320v242
q0 90 -15 177q-18 92 -44 157q-64 150 -180 229q-118 79 -278 79q-172 0 -288 -89q-117 -90 -172 -234q-56 -147 -56 -318v-242q0 -167 56 -314q55 -147 172 -238q116 -92 289 -92z" />
    <glyph glyph-name="P" unicode="P" horiz-adv-x="1195" 
d="M88 0v1602h502q138 0 253 -37q117 -38 190 -123q74 -86 74 -225t-72 -224q-73 -85 -189 -123q-119 -38 -256 -38h-441l1 -832h-62zM149 888h441q159 0 258 40q95 39 148 113q52 73 52 176q0 95 -49 171q-56 90 -167 124q-109 34 -242 34h-443z" />
    <glyph glyph-name="Q" unicode="Q" horiz-adv-x="1323" 
d="M661 -22q-185 0 -315 98q-128 96 -194 259q-64 159 -64 346v240q0 209 70 367q72 160 202 248q128 88 301 88q189 0 319 -97q129 -97 192 -258t63 -349v-240q0 -132 -30 -253q-32 -124 -97 -219l120 -208h-73l-89 154q-161 -176 -404 -176h-1zM662 37q114 0 209 43
q95 42 165 127l-134 231h73l101 -175q54 86 78 194t24 223v242q0 90 -15 177q-18 92 -44 157q-64 150 -180 229q-118 79 -278 79q-172 0 -288 -89q-117 -90 -172 -234q-56 -147 -56 -318v-242q0 -167 56 -314q55 -147 172 -238q116 -92 289 -92z" />
    <glyph glyph-name="R" unicode="R" horiz-adv-x="1197" 
d="M848 870q-63 -21 -131 -30l386 -840h-63l-387 834q-40 -2 -61 -2h-443l1 -832h-62v1602h504q138 0 253 -37q117 -38 190 -123q74 -86 74 -225t-72 -224q-73 -85 -189 -123zM592 888q159 0 258 40q95 39 148 113q52 73 52 176q0 95 -49 171q-56 90 -167 124
q-109 34 -242 34h-445l2 -658h443z" />
    <glyph glyph-name="S" unicode="S" horiz-adv-x="1197" 
d="M602 -22q-125 0 -227 40q-104 39 -178 119q-74 79 -109 197l54 31l1 -1q16 -83 64 -146q48 -65 122 -110q60 -37 129 -52q65 -16 147 -16q107 0 204 36q99 36 161 112q62 77 62 188q0 80 -33 143q-43 89 -156 150q-116 63 -253 109q-150 49 -275 119q-105 58 -159 146
q-55 87 -48 214q6 125 76 210q69 85 178 127q111 41 233 41t227 -40t182 -120q76 -81 105 -198l-53 -30l-1 2q-25 106 -92 180q-68 73 -161 108q-94 36 -204 36q-118 0 -207 -34q-103 -41 -164 -118q-62 -79 -62 -184q0 -79 33 -144q42 -82 164 -153q125 -73 245 -113
q97 -31 162 -57t114 -54q101 -57 158 -146q53 -81 48 -215q-4 -123 -74 -209q-71 -86 -179 -126q-110 -42 -234 -42z" />
    <glyph glyph-name="T" unicode="T" horiz-adv-x="1212" 
d="M578 0v1542l-490 -1v61h1036v-61l-489 1v-1542h-57z" />
    <glyph glyph-name="U" unicode="U" horiz-adv-x="1323" 
d="M661 -22q-185 0 -315 98q-128 96 -194 259q-64 159 -64 346v921h57v-921q0 -167 56 -314q55 -147 172 -238q116 -92 289 -92q174 0 290 89q116 88 171 234q55 144 55 320v922h57v-922q0 -204 -69 -366q-70 -160 -200 -248t-304 -88h-1z" />
    <glyph glyph-name="V" unicode="V" horiz-adv-x="1445" 
d="M686 0l-598 1602h65l570 -1543l570 1543h64l-598 -1602h-73z" />
    <glyph glyph-name="W" unicode="W" horiz-adv-x="1771" 
d="M468 2l-380 1599h59l354 -1502l350 1502h66l355 -1502l353 1502h58l-381 -1599h-63l-353 1484l-354 -1484h-64z" />
    <glyph glyph-name="X" unicode="X" horiz-adv-x="1247" 
d="M91 0l494 798l-497 804h70l466 -743l461 743h74l-497 -804l493 -798h-75v4l-456 731l-458 -731v-4h-75z" />
    <glyph glyph-name="Y" unicode="Y" horiz-adv-x="1247" 
d="M594 0v813l-506 789h70l466 -743l461 743h74l-509 -790v-812h-56z" />
    <glyph glyph-name="Z" unicode="Z" horiz-adv-x="1146" 
d="M88 0l870 1544l-869 3v55h969l-870 -1541h870v-58z" />
    <glyph glyph-name="bracketleft" unicode="[" horiz-adv-x="594" 
d="M88 -220v1996h418v-50h-366v-1894h366v-52h-418z" />
    <glyph glyph-name="backslash" unicode="\" horiz-adv-x="814" 
d="M668 -164l-580 1780h58l580 -1780h-58z" />
    <glyph glyph-name="bracketright" unicode="]" horiz-adv-x="594" 
d="M88 -220v52h366v1894h-366v50h418v-1996h-418z" />
    <glyph glyph-name="asciicircum" unicode="^" horiz-adv-x="1222" 
d="M88 852l496 844h54l496 -844h-66l-456 778l-458 -778h-66z" />
    <glyph glyph-name="underscore" unicode="_" horiz-adv-x="1294" 
d="M88 -94v50h1118v-50h-1118z" />
    <glyph glyph-name="grave" unicode="`" horiz-adv-x="446" 
d="M298 1309l-206 344h64l197 -344h-55z" />
    <glyph glyph-name="a" unicode="a" horiz-adv-x="1071" 
d="M454 -23q-102 0 -182 38q-86 38 -134 110q-50 74 -50 175q0 108 66 190q76 92 207 133q129 40 277 40h285v39q0 68 -9 111q-9 44 -33 92q-45 92 -128 139q-85 47 -190 47q-112 0 -194 -49q-81 -49 -125 -138q-44 -90 -44 -201h-59q-2 132 47 233q50 104 145 162
q97 59 230 59q121 0 219 -53q96 -54 150 -159t51 -241h-1v-705h-59v218q-64 -105 -184 -173q-118 -67 -285 -67zM454 35q160 0 282 72q123 71 187 213v283h-282q-147 0 -261 -39q-103 -35 -167 -102q-66 -68 -66 -166q0 -66 40 -131q37 -63 113 -96q74 -34 154 -34z" />
    <glyph glyph-name="b" unicode="b" 
d="M510 -18q-240 0 -367 201v-183h-55v1602h55v-644q125 200 367 200q122 0 217 -53q94 -52 150 -158q54 -105 51 -237l-1 -277q4 -135 -50 -239q-55 -106 -150 -159t-217 -53zM510 44q114 0 194 50q92 59 130 142q38 84 38 200v269q0 68 -9 113q-9 42 -32 92
q-48 92 -131 140q-85 47 -190 47q-112 0 -194 -49q-82 -50 -126 -138q-44 -90 -47 -202v-276q3 -112 46 -199q44 -89 125 -138q81 -51 196 -51z" />
    <glyph glyph-name="c" unicode="c" horiz-adv-x="956" 
d="M506 -20q-250 0 -366 212q-27 49 -39 109q-12 59 -12 130v277h-1q-2 126 48 228t144 162q95 59 223 59q119 0 216 -54q96 -53 149 -156l-46 -37q-50 92 -131 138q-83 47 -186 47q-104 0 -189 -47q-84 -47 -130 -140q-24 -48 -33 -92q-9 -45 -9 -113v-269q0 -70 9 -114
q9 -45 33 -91q49 -93 131 -139q83 -48 188 -48q103 0 186 47q81 46 131 138l46 -38q-52 -102 -148 -155q-96 -54 -214 -54z" />
    <glyph glyph-name="d" unicode="d" 
d="M506 -18q-122 0 -216 54q-96 52 -150 158q-54 101 -51 239l-1 277q-2 128 48 230t144 160t226 58q242 0 367 -200v644h55v-1602h-55v183q-126 -201 -367 -201zM506 44q111 0 194 50t126 137q44 88 47 201v276q-3 111 -45 200q-43 88 -124 139q-83 50 -198 50
q-106 0 -189 -47q-83 -48 -131 -140q-24 -48 -33 -92q-9 -45 -9 -113v-269q0 -70 9 -113q9 -44 33 -92q49 -93 131 -139q83 -48 189 -48z" />
    <glyph glyph-name="e" unicode="e" horiz-adv-x="1008" 
d="M506 -15q-250 0 -366 212q-27 49 -39 109q-12 59 -12 130l-1 277q0 131 48 231q47 99 143 157q95 56 228 56q254 0 362 -207q30 -59 41 -118q10 -54 10 -167v-58h-776v-168q0 -71 9 -114q9 -45 33 -91q49 -93 131 -139q83 -48 188 -48q103 0 186 47q81 46 131 138l46 -38
q-52 -102 -148 -155q-96 -54 -214 -54zM144 667h721v41q0 70 -9 114q-9 45 -33 91q-46 90 -130 139q-84 48 -188 48t-189 -47q-84 -47 -130 -140q-24 -48 -33 -92q-9 -45 -9 -113v-41z" />
    <glyph glyph-name="f" unicode="f" horiz-adv-x="757" 
d="M255 0l1 1099h-168v60h169q3 88 13 135q11 52 38 101q54 105 147 156q92 51 214 51l-1 -58q-112 -1 -187 -49q-78 -50 -122 -129t-44 -170v-37h249v-60h-249v-1099h-60z" />
    <glyph glyph-name="g" unicode="g" horiz-adv-x="1018" 
d="M514 -454q-95 0 -179 35q-83 35 -140 102q-57 66 -82 163l51 25q33 -123 126 -194q92 -70 223 -70q114 0 191 50q64 43 102 96q37 53 50 116q13 62 13 148v159q-125 -194 -363 -194q-122 0 -216 54q-96 52 -150 158q-54 101 -51 239l-1 277q-2 128 48 230t144 160t226 58
q239 0 363 -193l1 192h58l2 -1140q0 -143 -47 -248q-49 -106 -148 -166q-99 -57 -221 -57zM506 44q152 0 247 89t116 242v390q-21 153 -114 243q-95 89 -249 89q-106 0 -189 -47q-83 -48 -131 -140q-24 -48 -33 -92q-9 -45 -9 -113v-269q0 -70 9 -113q9 -44 33 -92
q49 -93 131 -139q83 -48 189 -48z" />
    <glyph glyph-name="h" unicode="h" 
d="M88 0v1599h55v-641q125 200 367 200q122 0 217 -53q94 -52 150 -158q54 -105 51 -237l-1 -710l-55 2v703q0 68 -9 113q-9 42 -32 92q-48 92 -131 140q-85 47 -190 47q-112 0 -194 -49q-82 -50 -126 -138q-44 -90 -47 -202v-708h-55z" />
    <glyph glyph-name="i" unicode="i" horiz-adv-x="299" 
d="M150 1478q-25 0 -43 19q-19 18 -19 43q0 26 19 44q18 18 43 18t43 -18t18 -44t-18 -44t-43 -18zM120 0v1156h59v-1156h-59z" />
    <glyph glyph-name="j" unicode="j" horiz-adv-x="268" 
d="M-270 -454l17 61q102 3 173 50q96 64 130 148q35 87 35 212l1 1140h59l1 -1140q0 -149 -46 -248q-50 -108 -149 -166q-97 -57 -221 -57zM118 1478q-25 0 -43 18t-18 44t18 44t43 18q26 0 44 -18t18 -44q0 -25 -18 -43q-18 -19 -44 -19z" />
    <glyph glyph-name="k" unicode="k" horiz-adv-x="952" 
d="M88 0v1602h56v-1005l618 559h73l-530 -486l559 -670h-62l-537 636l-120 -109v-527h-57z" />
    <glyph glyph-name="l" unicode="l" horiz-adv-x="298" 
d="M331 -17q-137 0 -189 79q-54 80 -54 228l1 1312h58l2 -1312q0 -116 37 -181q37 -67 142 -67l25 1q16 2 20 2l25 -60q-48 -2 -67 -2z" />
    <glyph glyph-name="m" unicode="m" horiz-adv-x="1794" 
d="M88 0v1154h55v-196q125 200 367 200q129 0 220 -55q65 -36 102 -85q38 -50 69 -126q48 131 148 198q100 68 239 68h2q128 0 223 -57q94 -57 144 -158q49 -101 49 -233l-1 -710l-55 2v703q0 68 -9 113q-9 44 -33 92q-47 93 -130 140q-85 47 -189 47q-113 0 -192 -50
q-91 -57 -128 -138q-40 -82 -41 -194v-713h-1v-2l-26 1l-28 -1v2h-1v703q0 68 -9 113q-9 42 -32 92q-48 92 -131 140q-85 47 -190 47q-112 0 -194 -49q-82 -50 -126 -138q-44 -90 -47 -202v-708h-55z" />
    <glyph glyph-name="n" unicode="n" 
d="M88 0v1154h55v-196q125 200 367 200q122 0 217 -53q94 -52 150 -158q54 -105 51 -237l-1 -710l-55 2v703q0 68 -9 113q-9 42 -32 92q-48 92 -131 140q-85 47 -190 47q-112 0 -194 -49q-82 -50 -126 -138q-44 -90 -47 -202v-708h-55z" />
    <glyph glyph-name="o" unicode="o" horiz-adv-x="1009" 
d="M506 -13q-261 0 -366 207q-54 101 -51 239v277h-1q-1 132 52 237q105 207 368 207q130 0 225 -57q92 -58 142 -159q48 -99 46 -228h-1v-277q3 -136 -51 -239q-103 -207 -363 -207zM505 44q104 0 188 48q84 49 130 139q24 48 33 92q9 43 9 113v269q0 68 -9 113
q-9 44 -33 92q-46 90 -130 139q-84 48 -188 48q-105 0 -188 -47q-83 -48 -131 -140q-24 -48 -33 -92q-9 -45 -9 -113v-269q0 -70 9 -113q9 -44 33 -92q49 -93 131 -139q83 -48 188 -48z" />
    <glyph glyph-name="p" unicode="p" 
d="M88 -454v1611h55v-194q125 200 367 200q122 0 217 -53q94 -52 150 -158q54 -107 50 -240l1 -276q3 -133 -51 -238q-56 -106 -150 -158q-95 -53 -217 -53q-242 0 -367 200v-641h-55zM510 48q115 0 194 50q90 58 130 143q38 84 38 199v270q0 68 -9 112q-9 42 -32 92
q-50 95 -131 141q-82 46 -190 46q-114 0 -194 -49q-83 -50 -126 -137q-44 -90 -47 -202v-276q3 -113 46 -200q44 -89 125 -138q81 -51 196 -51z" />
    <glyph glyph-name="q" unicode="q" 
d="M873 -454v641q-125 -200 -367 -200q-131 0 -226 59t-144 160q-50 102 -48 230l1 276q-3 138 51 240q54 104 150 158q95 53 216 53q242 0 367 -200v194h55v-1611h-55zM506 48q112 0 195 50q82 50 125 137q44 90 47 202v276q-3 113 -45 201q-44 88 -124 137q-83 50 -198 50
q-109 0 -189 -46q-81 -46 -131 -141q-24 -48 -33 -92t-9 -112v-270q0 -68 9 -112q9 -45 33 -93q48 -93 131 -140t189 -47z" />
    <glyph glyph-name="r" unicode="r" horiz-adv-x="818" 
d="M88 0v1154h55v-196q125 200 367 200q129 0 220 -55l-26 -56q-80 50 -194 50q-112 0 -194 -49q-82 -50 -126 -138q-44 -90 -47 -202v-708h-55z" />
    <glyph glyph-name="s" unicode="s" horiz-adv-x="1066" 
d="M535 -22q-135 0 -236 43q-104 44 -177 142q-22 32 -34 76l50 24q16 -78 79 -130q61 -52 145 -75q83 -24 166 -24q218 0 328 101q53 58 53 126q0 54 -29 101q-40 60 -139 103q-97 41 -216 73q-147 42 -239 85q-83 39 -139 105q-41 61 -41 132q0 108 69 172
q115 121 360 121q143 0 260 -56q66 -31 118 -85q52 -56 65 -121l-47 -23q-34 117 -145 173q-110 55 -249 55q-103 0 -181 -22q-83 -23 -144 -80q-27 -30 -41 -61q-13 -29 -13 -64q0 -53 29 -100q11 -19 43 -44q23 -18 75 -50q107 -53 237 -89q77 -21 144 -41q48 -16 96 -38
q82 -37 138 -104q41 -53 41 -133q0 -53 -17 -98q-17 -44 -51 -74q-120 -120 -358 -120z" />
    <glyph glyph-name="t" unicode="t" horiz-adv-x="652" 
d="M481 -14q-96 0 -147 38q-54 38 -75 104q-21 68 -21 165l1 814h-151v60h151v435h58v-435h267v-60h-267l1 -814q0 -113 38 -181q37 -67 141 -67q2 0 26 2l20 1l25 -60q-50 -2 -67 -2z" />
    <glyph glyph-name="u" unicode="u" 
d="M506 -16q-128 0 -223 57q-96 58 -145 159q-50 103 -50 233l1 724l55 -2v-717q0 -70 9 -114q9 -45 33 -91q48 -93 131 -140t189 -47q109 0 194 50q83 50 128 138q45 89 45 200v723h55v-1157h-55v185q-62 -101 -154 -151q-94 -50 -213 -50z" />
    <glyph glyph-name="v" unicode="v" horiz-adv-x="1100" 
d="M514 0l-426 1157h63l399 -1097l399 1097h63l-426 -1157h-72z" />
    <glyph glyph-name="w" unicode="w" horiz-adv-x="1709" 
d="M453 0l-365 1157h57l339 -1088l338 1088h64l341 -1088l338 1088h56l-366 -1157h-60l-340 1074l-340 -1074h-62z" />
    <glyph glyph-name="x" unicode="x" horiz-adv-x="1124" 
d="M91 0l437 574l-440 583h63l411 -538l408 538h66l-440 -583l436 -574h-66v3l-404 527l-405 -530h-66z" />
    <glyph glyph-name="y" unicode="y" horiz-adv-x="1135" 
d="M167 -482q-33 0 -79 8v1l15 58h2q35 -7 65 -7q34 0 67 9q112 30 173 97q60 67 100 188l44 130l-431 1155h63l399 -1067l400 1067h62l-409 -1095l-71 -209q-52 -153 -151 -244q-98 -91 -249 -91z" />
    <glyph glyph-name="z" unicode="z" horiz-adv-x="1099" 
d="M88 0l2 1l811 1102h-812v52l922 2l-813 -1104h812v-51z" />
    <glyph glyph-name="braceleft" unicode="{" horiz-adv-x="704" 
d="M616 -224q-130 0 -204 63q-74 65 -74 193v536q0 56 -18 92q-18 31 -52 60q-36 24 -76 34q-49 10 -104 10v48q80 0 138 24q60 23 94 84q18 38 18 90v532q0 128 74 193q74 63 204 63v-50q-104 0 -163 -51t-59 -155v-532q0 -77 -38 -135q-39 -56 -111 -85q75 -29 112 -85
t37 -137v-536q0 -104 59 -155t163 -51v-50z" />
    <glyph glyph-name="bar" unicode="|" horiz-adv-x="228" 
d="M88 -300v1996h52v-1996h-52z" />
    <glyph glyph-name="braceright" unicode="}" horiz-adv-x="704" 
d="M88 -224v50q106 0 164 51t58 155v536q0 76 40 135q41 59 110 87q-72 29 -110 86q-40 56 -40 134v532q0 104 -58 155q-59 51 -164 51v50q130 0 204 -63q74 -65 74 -193v-532q0 -47 20 -90q23 -38 52 -60q33 -27 79 -37q50 -11 99 -11v-48q-113 0 -178 -46q-34 -29 -52 -60
q-20 -43 -20 -90v-536q0 -128 -74 -193q-74 -63 -204 -63z" />
    <glyph glyph-name="asciitilde" unicode="~" horiz-adv-x="1066" 
d="M88 720q13 112 69 169q55 57 153 57q77 0 130 -22q47 -23 112 -64q19 -12 41 -23l7 -3l13 -8q8 -5 47 -22q38 -20 96 -20q82 0 118 44q36 50 48 132h56q-30 -228 -222 -228q-65 0 -128 26q-33 14 -113 60l-60 36q-14 9 -41 19l-8 3q-38 20 -96 20q-43 0 -69 -10
q-27 -10 -45 -34q-35 -46 -52 -132h-56z" />
    <glyph glyph-name="exclamdown" unicode="&#xa1;" horiz-adv-x="299" 
d="M150 1073q-25 0 -43 19q-19 18 -19 43q0 26 19 44q18 18 43 18t43 -18t18 -44t-18 -44t-43 -18zM123 -282v1098h56v-1098h-56z" />
    <glyph glyph-name="cent" unicode="&#xa2;" horiz-adv-x="1146" 
d="M558 -150v198q-122 9 -206 56q-137 66 -200 211q-64 143 -64 315q0 155 50 284q50 127 154 206q106 80 266 92v198h50v-198h-4q78 0 146 -17q66 -17 132 -57q69 -47 106 -104t60 -140l-48 -22q-35 146 -136 217q-103 72 -256 73v-1064q71 1 127 20q110 29 182 104
q74 77 89 184l52 -18q-21 -120 -100 -199t-204 -121q-80 -20 -146 -20v-198h-50zM558 98v1063q-139 -13 -234 -85q-94 -73 -137 -186q-45 -116 -45 -260q0 -105 26 -200q38 -149 136 -234q98 -84 254 -98z" />
    <glyph glyph-name="sterling" unicode="&#xa3;" horiz-adv-x="1310" 
d="M308 48q-38 0 -72 6q-39 9 -70 28q-39 17 -58 49q-20 32 -20 73q0 44 24 80q22 28 60 48q25 16 74 28q39 6 76 6q86 0 149 -26q64 -28 137 -88q48 75 48 166q0 98 -36 172q-44 80 -96 146h-298v52h260l2 -2l-4 5q-34 47 -48 69q-67 91 -88 186q-14 50 -14 108
q0 123 56 217t154 143q98 50 224 50q103 0 190 -38q86 -39 138 -114q53 -76 62 -182l-52 -22q-8 93 -51 162t-118 107q-73 37 -169 37q-109 0 -196 -41q-86 -42 -134 -123t-48 -196q0 -107 48 -188q48 -88 105 -166l11 -12h470v-52h-430q61 -86 90 -155q28 -68 28 -157
q0 -117 -62 -206q48 -40 90 -67q39 -26 85 -39q48 -14 103 -14q117 0 180 64q62 65 62 182h52q3 -150 -78 -224q-78 -72 -216 -72q-103 0 -168 35q-42 19 -72 43q-27 16 -70 52q-59 -65 -139 -97q-79 -33 -171 -33zM308 98q83 0 152 32q66 27 118 82q-63 52 -120 78
q-58 24 -134 24q-21 0 -60 -4q-28 -4 -58 -18q-31 -18 -46 -37q-16 -19 -16 -51q0 -56 51 -81q50 -25 113 -25z" />
    <glyph glyph-name="currency" unicode="&#xa4;" horiz-adv-x="1256" 
d="M128 266l-40 40l228 228q-88 112 -88 278t82 272l-222 222l40 40l220 -222q108 102 280 102q170 0 278 -102l224 222l38 -38l-224 -226q82 -106 82 -270q0 -165 -86 -278l228 -230l-38 -38l-228 230q-106 -100 -274 -100q-158 0 -272 96zM628 446q108 0 184 46
q78 46 118 128q40 81 40 192q0 105 -38 189q-38 80 -116 127q-76 46 -188 46q-106 0 -183 -44q-79 -46 -119 -127q-42 -83 -42 -191q0 -80 24 -146q32 -107 118 -163q86 -57 202 -57z" />
    <glyph glyph-name="yen" unicode="&#xa5;" horiz-adv-x="1268" 
d="M608 70v292h-454v52h454v220h-454v50h432l-498 858h66l481 -847l481 847h64l-496 -858h434v-50h-456v-220h456v-52h-456v-292h-54z" />
    <glyph glyph-name="brokenbar" unicode="&#xa6;" horiz-adv-x="230" 
d="M88 870v826h54v-826h-54zM88 -300v826h54v-826h-54z" />
    <glyph glyph-name="section" unicode="&#xa7;" horiz-adv-x="1194" 
d="M588 -172q-137 0 -248 45q-110 45 -148 155l46 32q26 -92 113 -137q85 -45 237 -45q63 0 130 14q72 17 113 44q43 28 81 84q30 46 30 122q0 74 -36 125q-36 50 -106 87q-58 27 -123 42q-71 15 -153 26q-31 5 -108 20l-30 6q-83 17 -142 50q-75 38 -116 94q-40 55 -40 134
q0 66 28 112q31 63 94 101t144 62q-78 41 -117 100q-39 60 -39 147q0 104 59 177q59 71 151 105t198 34q58 0 116 -6q70 -11 114 -28q62 -28 104 -67q42 -41 64 -99l-48 -32q-24 92 -111 137t-239 45q-89 0 -170 -26q-80 -27 -131 -86q-51 -60 -51 -152q0 -73 37 -125
q35 -51 105 -83q56 -30 136 -46l30 -6q76 -16 108 -20q88 -12 155 -27q70 -17 129 -43q77 -44 114 -97q38 -56 38 -137q0 -163 -192 -248q-57 -21 -77 -26q83 -38 121 -97t38 -151q0 -114 -71 -193q-69 -75 -191 -107q-80 -16 -146 -16zM765 420q54 10 99 30q80 27 134 83
q54 55 54 133q0 106 -84 160q-94 59 -308 92q-75 9 -130 24q-48 9 -104 28q-115 -23 -198 -82q-84 -62 -84 -162q0 -74 36 -114q20 -27 66 -54q54 -28 96 -38q74 -26 150 -36l11 -2q84 -14 133 -25q68 -16 117 -32l6 -3z" />
    <glyph glyph-name="dieresis" unicode="&#xa8;" horiz-adv-x="722" 
d="M564 1358q-26 0 -43 17q-17 14 -17 41q0 26 17 43q18 15 43 15t43 -15q15 -18 15 -43q0 -28 -15 -43t-43 -15zM158 1358q-27 0 -41 17q-17 14 -17 41q0 28 15 43t43 15q25 0 43 -15q15 -18 15 -43q0 -28 -15 -43t-43 -15z" />
    <glyph glyph-name="copyright" unicode="&#xa9;" horiz-adv-x="1700" 
d="M850 48q-222 0 -395 93t-270 265t-97 400q0 225 94 397q93 171 266 266t402 95q225 0 398 -92t269 -263q95 -173 95 -403q0 -224 -93 -396q-95 -173 -266 -267q-173 -95 -403 -95zM864 372q-98 0 -165 52q-67 51 -102 135q-34 83 -34 181v122q0 113 36 191q37 84 106 131
q67 46 159 46q93 0 164 -48q70 -50 105 -137l-41 -27q-30 78 -87 120q-59 41 -141 41q-86 0 -141 -43q-57 -43 -84 -116q-27 -72 -27 -157v-123q0 -83 27 -155q27 -73 84 -118t142 -45q82 0 139 42q56 41 88 120l41 -27q-36 -86 -105 -136q-70 -49 -163 -49h-1zM850 98
q205 0 366 89q160 88 250 249t90 370q0 206 -87 367q-89 162 -248 251q-161 90 -371 90q-207 0 -368 -89t-250 -250q-90 -161 -90 -369q0 -205 89 -366t249 -251q160 -91 370 -91z" />
    <glyph glyph-name="ordfeminine" unicode="&#xaa;" horiz-adv-x="635" 
d="M286 989q-52 0 -98 20q-45 19 -72 60q-27 39 -27 94q0 71 45 114q42 42 110 62q66 18 135 18h135v10q0 83 -45 135q-45 51 -128 51q-81 0 -127 -51q-47 -53 -47 -135v-10h-51v14q0 68 27 122q27 53 78 84q51 30 120 30q68 0 119 -30t78 -82q27 -53 27 -120l-1 -374h-50
v88q-41 -50 -100 -75t-128 -25zM286 1039q76 0 135 33q58 33 91 99l2 4v131h-133q-53 0 -111 -14q-52 -13 -92 -46q-38 -33 -38 -85q0 -37 21 -64q19 -28 54 -43q33 -15 71 -15z" />
    <glyph glyph-name="guillemotleft" unicode="&#xab;" horiz-adv-x="830" 
d="M410 302l-322 442l322 440h72l-326 -440l326 -442h-72zM670 302l-322 442l322 440h72l-326 -440l326 -442h-72z" />
    <glyph glyph-name="logicalnot" unicode="&#xac;" horiz-adv-x="1186" 
d="M1042 458v292h-954v50h1010v-342h-56z" />
    <glyph glyph-name="uni00AD" unicode="&#xad;" horiz-adv-x="814" 
d="M88 726v56h638v-56h-638z" />
    <glyph glyph-name="registered" unicode="&#xae;" horiz-adv-x="1700" 
d="M850 48q-222 0 -395 93t-270 265t-97 400q0 225 94 397q93 171 266 266t402 95q225 0 398 -92t269 -263q95 -173 95 -403q0 -224 -93 -396q-95 -173 -266 -267q-173 -95 -403 -95zM850 98q205 0 366 89q160 88 250 249t90 370q0 206 -87 367q-89 162 -248 251
q-161 90 -371 90q-207 0 -368 -89t-250 -250q-90 -161 -90 -369q0 -205 89 -366t249 -251q160 -91 370 -91zM622 368v866h248q117 0 200 -51q83 -53 83 -163q0 -88 -56 -141q-57 -53 -148 -66l204 -445h-55l-205 439h-218v-439h-53zM675 857h195q97 0 164 37q67 36 67 126
q0 89 -65 127q-65 37 -166 37h-196z" />
    <glyph glyph-name="macron" unicode="&#xaf;" horiz-adv-x="854" 
d="M100 1400v50h654v-50h-654z" />
    <glyph glyph-name="degree" unicode="&#xb0;" horiz-adv-x="728" 
d="M366 1454q-82 0 -146 35q-63 34 -97 97q-35 64 -35 146t35 146t97 98t146 34q81 0 145 -35q61 -34 96 -98q33 -63 33 -145t-34 -144q-34 -63 -97 -98q-61 -36 -143 -36zM366 1502q105 0 164 62q58 61 58 168q0 108 -58 169t-164 61q-68 0 -118 -29q-51 -29 -78 -81
q-28 -52 -28 -120t28 -120q27 -52 78 -81q50 -29 118 -29z" />
    <glyph glyph-name="plusminus" unicode="&#xb1;" horiz-adv-x="1186" 
d="M568 304v558h-480v50h480v546h52v-546h478v-50h-478v-558h-52zM88 70v50h1010v-50h-1010z" />
    <glyph glyph-name="uni00B2" unicode="&#xb2;" horiz-adv-x="575" 
d="M103 998v39l201 232q46 52 75 100q30 48 30 92q0 63 -35 95q-37 32 -100 32q-60 0 -99 -40q-40 -40 -40 -101v-12h-47v12q0 52 25 95q23 42 67 68q41 25 94 25q84 0 134 -45q49 -46 49 -129q0 -54 -35 -110q-32 -52 -93 -122l-158 -184h318v-47h-386z" />
    <glyph glyph-name="uni00B3" unicode="&#xb3;" horiz-adv-x="548" 
d="M276 994q-82 0 -134 46t-52 127q0 1 2 25v2h47v-3q-2 -24 -2 -26q0 -61 40 -92q41 -32 102 -32q65 0 108 34q44 33 44 94q0 42 -22 70q-23 29 -59 44t-76 15h-73l-4 47h77q58 0 99 32t41 87t-41 90q-41 34 -100 34q-61 0 -99 -33q-39 -35 -39 -94q0 -1 2 -23v-3h-47v2
q-2 24 -2 25q0 81 52 127t133 46q83 0 135 -46q53 -47 53 -127q0 -46 -24 -82t-65 -57q50 -23 78 -61q28 -40 28 -91q0 -85 -57 -131q-58 -46 -145 -46z" />
    <glyph glyph-name="acute" unicode="&#xb4;" horiz-adv-x="446" 
d="M93 1326l199 344h62l-204 -344h-57z" />
    <glyph glyph-name="uni00B5" unicode="&#xb5;" horiz-adv-x="1076" 
d="M88 -392v1582h56v-738q0 -107 41 -187q40 -79 119 -123t186 -44q116 0 219 55q103 56 164 151t61 214v672h54v-1120h-54v245q-21 -48 -50 -83q-67 -91 -173 -137q-108 -47 -227 -47q-111 0 -200 49q-91 50 -140 142v-631h-56z" />
    <glyph glyph-name="paragraph" unicode="&#xb6;" horiz-adv-x="1088" 
d="M602 -150v778q-94 3 -184 28q-99 29 -172 90q-76 62 -116 150q-42 88 -42 190q0 142 68 246q67 102 185 157q118 53 261 53h398v-1692h-56v1642h-286v-1642h-56zM602 680v812q-86 0 -167 -26q-87 -25 -149 -74q-63 -51 -104 -128q-38 -82 -38 -178q0 -101 36 -176
q61 -115 172 -171q110 -58 250 -59z" />
    <glyph glyph-name="periodcentered" unicode="&#xb7;" horiz-adv-x="299" 
d="M150 735q-25 0 -43 19q-19 18 -19 43q0 26 19 44q18 18 43 18t43 -18t18 -44t-18 -44t-43 -18z" />
    <glyph glyph-name="cedilla" unicode="&#xb8;" horiz-adv-x="620" 
d="M321 -459q-76 0 -126 22q-51 23 -92 80l30 43q67 -97 188 -97q66 0 110 38q42 39 42 106q0 64 -46 120q-47 57 -111 93q-12 8 -44 25l-10 5q-6 4 -9 5l-21 11l5 19h48q112 -50 176 -114q64 -63 64 -162q0 -90 -56 -143q-55 -51 -148 -51z" />
    <glyph glyph-name="uni00B9" unicode="&#xb9;" horiz-adv-x="347" 
d="M213 1020v528l-99 -91l-26 36l127 120h43l1 -593h-46z" />
    <glyph glyph-name="ordmasculine" unicode="&#xba;" horiz-adv-x="558" 
d="M279 993q-101 0 -159 61q-60 62 -60 164v145l6 -6q-7 7 -7 10q0 67 27 119q25 51 76 80q50 29 118 29q66 0 116 -29q50 -30 75 -81q26 -54 26 -118v-149q0 -67 -27 -118t-76 -79t-115 -28zM278 1041q49 0 90 23q39 23 61 65q11 21 16 45q4 19 4 53v134q0 33 -4 53
q-5 23 -16 44q-23 44 -61 66q-40 22 -90 22q-51 0 -89 -22t-61 -66q-11 -21 -16 -44q-4 -20 -4 -53v-134q0 -34 4 -53q5 -24 16 -45q22 -42 61 -65q40 -23 89 -23z" />
    <glyph glyph-name="guillemotright" unicode="&#xbb;" horiz-adv-x="830" 
d="M88 302l326 442l-326 440h72l322 -440l-322 -442h-72zM346 302l328 442l-328 440h74l322 -440l-322 -442h-74z" />
    <glyph glyph-name="questiondown" unicode="&#xbf;" horiz-adv-x="1080" 
d="M516 -311q-124 0 -219 43q-97 44 -153 129q-56 86 -56 210q0 112 32 190q38 86 96 143t132 93q73 34 176 66v290h54v-326q-91 -26 -178 -66q-128 -50 -192 -149q-66 -100 -66 -241q0 -106 49 -180q48 -75 133 -114q87 -38 192 -38q192 0 296 85q105 86 132 273l48 -20
q-22 -199 -147 -294q-124 -94 -329 -94zM552 1066q-25 0 -43 18t-18 44t18 44t43 18q26 0 44 -18t18 -44q0 -25 -18 -43q-18 -19 -44 -19z" />
    <glyph glyph-name="Agrave" unicode="&#xc0;" horiz-adv-x="1445" 
d="M798 1754l-206 344h64l197 -344h-55zM88 0l598 1602h73l598 -1602h-64l-228 611h-684l-228 -611h-65zM403 670h640l-320 872z" />
    <glyph glyph-name="Aacute" unicode="&#xc1;" horiz-adv-x="1445" 
d="M595 1771l199 344h62l-204 -344h-57zM88 0l598 1602h73l598 -1602h-64l-228 611h-684l-228 -611h-65zM403 670h640l-320 872z" />
    <glyph glyph-name="Acircumflex" unicode="&#xc2;" horiz-adv-x="1445" 
d="M415 1771l253 334h50l251 -334h-61l-215 278l-215 -278h-63zM88 0l598 1602h73l598 -1602h-64l-228 611h-684l-228 -611h-65zM403 670h640l-320 872z" />
    <glyph glyph-name="Atilde" unicode="&#xc3;" horiz-adv-x="1445" 
d="M444 1840l1 7q11 92 47 151q34 57 112 57q47 0 78 -20q27 -18 60 -58q2 -2 5.5 -6.5t5.5 -6.5q3 -5 12 -14q21 -24 39 -34q20 -12 45 -12q53 0 71 34q23 42 35 114l1 5h53l-1 -7q-11 -95 -47 -151q-33 -57 -112 -57q-45 0 -75 21q-29 18 -68 63q-9 9 -12 14
q-2 2 -5.5 6.5t-5.5 6.5q-18 21 -37 31q-16 9 -45 9q-53 0 -69 -34q-22 -41 -33 -114l-1 -5h-54zM88 0l598 1602h73l598 -1602h-64l-228 611h-684l-228 -611h-65zM403 670h640l-320 872z" />
    <glyph glyph-name="Adieresis" unicode="&#xc4;" horiz-adv-x="1445" 
d="M520 1803q-27 0 -41 17q-17 14 -17 41q0 28 15 43t43 15q25 0 43 -15q15 -18 15 -43q0 -28 -15 -43t-43 -15zM926 1803q-26 0 -43 17q-17 14 -17 41q0 26 17 43q18 15 43 15t43 -15q15 -18 15 -43q0 -28 -15 -43t-43 -15zM88 0l598 1602h73l598 -1602h-64l-228 611h-684
l-228 -611h-65zM403 670h640l-320 872z" />
    <glyph glyph-name="Aring" unicode="&#xc5;" horiz-adv-x="1445" 
d="M723 1788q-53 0 -96 24q-44 24 -69 67q-25 41 -25 95q0 53 25 96q26 42 69 66t96 24q85 0 138 -51q52 -51 52 -135t-52 -135q-53 -51 -138 -51zM723 1838q60 0 98 38t38 98q0 59 -38 97q-38 37 -98 37q-59 0 -96 -37q-38 -38 -38 -97q0 -57 38 -97q37 -39 96 -39zM88 0
l598 1602h73l598 -1602h-64l-228 611h-684l-228 -611h-65zM403 670h640l-320 872z" />
    <glyph glyph-name="AE" unicode="&#xc6;" horiz-adv-x="1751" 
d="M88 0l598 1602h2v1h969v-56h-910v-653h651l-2 -61h-646v-771h907v-58l-969 -3v610h-307l-228 -611h-65zM403 670h285v777z" />
    <glyph glyph-name="Ccedilla" unicode="&#xc7;" horiz-adv-x="1254" 
d="M634 -459q-76 0 -126 22q-51 23 -92 80l30 43q67 -97 188 -97q66 0 110 38q42 39 42 106q0 83 -66 144q-69 63 -167 111l-8 4l8 -4q-155 28 -261 133q-104 103 -154 251t-50 309v240q0 209 70 367q72 160 202 248q128 88 301 88q174 0 304 -88q131 -89 201 -248l-47 -32
q-64 150 -180 229q-118 79 -278 79q-172 0 -288 -89q-117 -90 -172 -234q-56 -147 -56 -318v-242q0 -167 56 -314q55 -147 172 -238q116 -92 289 -92q158 0 277 80q117 79 180 228l47 -31q-70 -160 -200 -248t-304 -88l25 -14q69 -37 110 -97q41 -59 41 -132q0 -90 -56 -143
q-56 -51 -148 -51z" />
    <glyph glyph-name="Egrave" unicode="&#xc8;" horiz-adv-x="1145" 
d="M648 1754l-206 344h64l197 -344h-55zM88 0v1602h969v-56h-910v-653h651l-2 -61h-646v-771h907v-58z" />
    <glyph glyph-name="Eacute" unicode="&#xc9;" horiz-adv-x="1145" 
d="M445 1771l199 344h62l-204 -344h-57zM88 0v1602h969v-56h-910v-653h651l-2 -61h-646v-771h907v-58z" />
    <glyph glyph-name="Ecircumflex" unicode="&#xca;" horiz-adv-x="1145" 
d="M265 1771l253 334h50l251 -334h-61l-215 278l-215 -278h-63zM88 0v1602h969v-56h-910v-653h651l-2 -61h-646v-771h907v-58z" />
    <glyph glyph-name="Edieresis" unicode="&#xcb;" horiz-adv-x="1145" 
d="M370 1803q-27 0 -41 17q-17 14 -17 41q0 28 15 43t43 15q25 0 43 -15q15 -18 15 -43q0 -28 -15 -43t-43 -15zM776 1803q-26 0 -43 17q-17 14 -17 41q0 26 17 43q18 15 43 15t43 -15q15 -18 15 -43q0 -28 -15 -43t-43 -15zM88 0v1602h969v-56h-910v-653h651l-2 -61h-646
v-771h907v-58z" />
    <glyph glyph-name="Igrave" unicode="&#xcc;" horiz-adv-x="247" 
d="M168 1773l-209 348h69l199 -348h-59zM-12 0v1603h64l3 -1603h-67z" />
    <glyph glyph-name="Iacute" unicode="&#xcd;" horiz-adv-x="238" 
d="M-11 1771l199 344h62l-204 -344h-57zM85 0v1602h59l3 -1602h-62z" />
    <glyph glyph-name="Icircumflex" unicode="&#xce;" horiz-adv-x="238" 
d="M-158 1771l253 334h50l251 -334h-61l-215 278l-215 -278h-63zM118 0v1602h59l3 -1602h-62z" />
    <glyph glyph-name="Idieresis" unicode="&#xcf;" horiz-adv-x="238" 
d="M-84 1803q-27 0 -41 17q-17 14 -17 41q0 28 15 43t43 15q25 0 43 -15q15 -18 15 -43q0 -28 -15 -43t-43 -15zM322 1803q-26 0 -43 17q-17 14 -17 41q0 26 17 43q18 15 43 15t43 -15q15 -18 15 -43q0 -28 -15 -43t-43 -15zM88 0v1602h59l3 -1602h-62z" />
    <glyph glyph-name="Ntilde" unicode="&#xd1;" horiz-adv-x="1148" 
d="M295 1840l1 7q11 92 47 151q35 57 112 57q47 0 78 -20q27 -18 60 -58q2 -2 5.5 -6.5t5.5 -6.5q3 -5 12 -14q21 -24 39 -34q19 -12 45 -12q53 0 71 34q23 42 35 114l1 5h53l-1 -7q-11 -95 -47 -151q-33 -57 -112 -57q-45 0 -75 21q-29 18 -68 63q-9 9 -12 14
q-2 2 -5.5 6.5t-5.5 6.5q-18 21 -37 31q-17 9 -45 9q-53 0 -69 -34q-23 -41 -33 -114l-1 -5h-54zM89 0v1599l-1 3h61l850 -1472l2 1472h59v-1602h-61v4l-850 1473l2 -1477h-62z" />
    <glyph glyph-name="Ograve" unicode="&#xd2;" horiz-adv-x="1323" 
d="M661 -22q-185 0 -315 98q-128 96 -194 259q-64 159 -64 346v240q0 209 70 367q72 160 202 248q128 88 301 88q189 0 319 -97q129 -97 192 -258t63 -349v-240q0 -204 -69 -366q-70 -160 -200 -248t-304 -88h-1zM662 37q174 0 290 89q116 88 171 234q55 144 55 320v242
q0 90 -15 177q-18 92 -44 157q-64 150 -180 229q-118 79 -278 79q-172 0 -288 -89q-117 -90 -172 -234q-56 -147 -56 -318v-242q0 -167 56 -314q55 -147 172 -238q116 -92 289 -92zM737 1754l-206 344h64l197 -344h-55z" />
    <glyph glyph-name="Oacute" unicode="&#xd3;" horiz-adv-x="1323" 
d="M661 -22q-185 0 -315 98q-128 96 -194 259q-64 159 -64 346v240q0 209 70 367q72 160 202 248q128 88 301 88q189 0 319 -97q129 -97 192 -258t63 -349v-240q0 -204 -69 -366q-70 -160 -200 -248t-304 -88h-1zM662 37q174 0 290 89q116 88 171 234q55 144 55 320v242
q0 90 -15 177q-18 92 -44 157q-64 150 -180 229q-118 79 -278 79q-172 0 -288 -89q-117 -90 -172 -234q-56 -147 -56 -318v-242q0 -167 56 -314q55 -147 172 -238q116 -92 289 -92zM534 1771l199 344h62l-204 -344h-57z" />
    <glyph glyph-name="Ocircumflex" unicode="&#xd4;" horiz-adv-x="1323" 
d="M661 -22q-185 0 -315 98q-128 96 -194 259q-64 159 -64 346v240q0 209 70 367q72 160 202 248q128 88 301 88q189 0 319 -97q129 -97 192 -258t63 -349v-240q0 -204 -69 -366q-70 -160 -200 -248t-304 -88h-1zM662 37q174 0 290 89q116 88 171 234q55 144 55 320v242
q0 90 -15 177q-18 92 -44 157q-64 150 -180 229q-118 79 -278 79q-172 0 -288 -89q-117 -90 -172 -234q-56 -147 -56 -318v-242q0 -167 56 -314q55 -147 172 -238q116 -92 289 -92zM354 1771l253 334h50l251 -334h-61l-215 278l-215 -278h-63z" />
    <glyph glyph-name="Otilde" unicode="&#xd5;" horiz-adv-x="1323" 
d="M661 -22q-185 0 -315 98q-128 96 -194 259q-64 159 -64 346v240q0 209 70 367q72 160 202 248q128 88 301 88q189 0 319 -97q129 -97 192 -258t63 -349v-240q0 -204 -69 -366q-70 -160 -200 -248t-304 -88h-1zM662 37q174 0 290 89q116 88 171 234q55 144 55 320v242
q0 90 -15 177q-18 92 -44 157q-64 150 -180 229q-118 79 -278 79q-172 0 -288 -89q-117 -90 -172 -234q-56 -147 -56 -318v-242q0 -167 56 -314q55 -147 172 -238q116 -92 289 -92zM383 1840l1 7q11 92 47 151q34 57 112 57q47 0 78 -20q27 -18 60 -58q2 -2 5.5 -6.5
t5.5 -6.5q3 -5 12 -14q21 -24 39 -34q19 -12 45 -12q53 0 71 34q23 42 35 114l1 5h53l-1 -7q-11 -95 -47 -151q-33 -57 -112 -57q-45 0 -75 21q-29 18 -68 63q-9 9 -12 14q-2 2 -5.5 6.5t-5.5 6.5q-18 21 -37 31q-17 9 -45 9q-53 0 -69 -34q-23 -41 -33 -114l-1 -5h-54z" />
    <glyph glyph-name="Odieresis" unicode="&#xd6;" horiz-adv-x="1323" 
d="M661 -22q-185 0 -315 98q-128 96 -194 259q-64 159 -64 346v240q0 209 70 367q72 160 202 248q128 88 301 88q189 0 319 -97q129 -97 192 -258t63 -349v-240q0 -204 -69 -366q-70 -160 -200 -248t-304 -88h-1zM662 37q174 0 290 89q116 88 171 234q55 144 55 320v242
q0 90 -15 177q-18 92 -44 157q-64 150 -180 229q-118 79 -278 79q-172 0 -288 -89q-117 -90 -172 -234q-56 -147 -56 -318v-242q0 -167 56 -314q55 -147 172 -238q116 -92 289 -92zM459 1803q-27 0 -41 17q-17 14 -17 41q0 28 15 43t43 15q25 0 43 -15q15 -18 15 -43
q0 -28 -15 -43t-43 -15zM865 1803q-26 0 -43 17q-17 14 -17 41q0 26 17 43q18 15 43 15t43 -15q15 -18 15 -43q0 -28 -15 -43t-43 -15z" />
    <glyph glyph-name="multiply" unicode="&#xd7;" horiz-adv-x="988" 
d="M132 360l-44 44l364 362l-364 364l44 42l362 -362l364 362l42 -42l-362 -364l362 -362l-42 -44l-364 364z" />
    <glyph glyph-name="Oslash" unicode="&#xd8;" horiz-adv-x="1323" 
d="M343 -164l65 201q-106 56 -177 155q-73 100 -107 225q-36 126 -36 264v240q0 209 70 367q72 160 202 248q128 88 301 88q136 0 247 -54l15 46h58l-24 -74q138 -89 208 -255q70 -165 70 -367v-240q0 -204 -69 -366q-70 -160 -200 -248t-304 -88h-1q-107 0 -202 36
l-58 -178h-58zM427 93l462 1420q-99 51 -228 51q-172 0 -288 -89q-117 -90 -172 -234q-56 -147 -56 -318v-242q0 -126 31 -238q30 -114 93 -206q63 -91 158 -144zM662 37q174 0 290 89q116 88 171 234q55 144 55 320v242q0 90 -15 177q-18 92 -44 157q-64 150 -181 229
l-461 -1415q85 -33 185 -33z" />
    <glyph glyph-name="Ugrave" unicode="&#xd9;" horiz-adv-x="1323" 
d="M661 -22q-185 0 -315 98q-128 96 -194 259q-64 159 -64 346v921h57v-921q0 -167 56 -314q55 -147 172 -238q116 -92 289 -92q174 0 290 89q116 88 171 234q55 144 55 320v922h57v-922q0 -204 -69 -366q-70 -160 -200 -248t-304 -88h-1zM737 1754l-206 344h64l197 -344
h-55z" />
    <glyph glyph-name="Uacute" unicode="&#xda;" horiz-adv-x="1323" 
d="M661 -22q-185 0 -315 98q-128 96 -194 259q-64 159 -64 346v921h57v-921q0 -167 56 -314q55 -147 172 -238q116 -92 289 -92q174 0 290 89q116 88 171 234q55 144 55 320v922h57v-922q0 -204 -69 -366q-70 -160 -200 -248t-304 -88h-1zM534 1771l199 344h62l-204 -344
h-57z" />
    <glyph glyph-name="Ucircumflex" unicode="&#xdb;" horiz-adv-x="1323" 
d="M661 -22q-185 0 -315 98q-128 96 -194 259q-64 159 -64 346v921h57v-921q0 -167 56 -314q55 -147 172 -238q116 -92 289 -92q174 0 290 89q116 88 171 234q55 144 55 320v922h57v-922q0 -204 -69 -366q-70 -160 -200 -248t-304 -88h-1zM354 1771l253 334h50l251 -334h-61
l-215 278l-215 -278h-63z" />
    <glyph glyph-name="Udieresis" unicode="&#xdc;" horiz-adv-x="1323" 
d="M661 -22q-185 0 -315 98q-128 96 -194 259q-64 159 -64 346v921h57v-921q0 -167 56 -314q55 -147 172 -238q116 -92 289 -92q174 0 290 89q116 88 171 234q55 144 55 320v922h57v-922q0 -204 -69 -366q-70 -160 -200 -248t-304 -88h-1zM459 1803q-27 0 -41 17
q-17 14 -17 41q0 28 15 43t43 15q25 0 43 -15q15 -18 15 -43q0 -28 -15 -43t-43 -15zM865 1803q-26 0 -43 17q-17 14 -17 41q0 26 17 43q18 15 43 15t43 -15q15 -18 15 -43q0 -28 -15 -43t-43 -15z" />
    <glyph glyph-name="Yacute" unicode="&#xdd;" horiz-adv-x="1247" 
d="M496 1771l199 344h62l-204 -344h-57zM594 0v813l-506 789h70l466 -743l461 743h74l-509 -790v-812h-56z" />
    <glyph glyph-name="germandbls" unicode="&#xdf;" horiz-adv-x="1136" 
d="M89 -439l-1 1634q0 132 59 230q58 96 164 148q104 51 238 51q130 0 238 -50q107 -50 168 -147q62 -98 62 -232q0 -89 -37 -163q-38 -77 -104 -130t-156 -82q94 -25 175 -82q78 -56 123 -138t45 -183q0 -141 -68 -241q-67 -98 -183 -148q-113 -50 -260 -50q-31 0 -40 1v60
q22 -2 51 -2q118 0 217 43q100 42 161 127q61 83 61 204q0 119 -63 204q-64 87 -166 131q-105 44 -222 44h-39v59h39q107 0 201 41q92 41 149 120q56 80 56 190q0 108 -56 191t-149 128q-94 45 -203 45q-111 0 -202 -42q-94 -45 -145 -125q-54 -83 -54 -197q0 -83 2 -819
l1 -820h-62z" />
    <glyph glyph-name="agrave" unicode="&#xe0;" horiz-adv-x="1071" 
d="M454 -23q-102 0 -182 38q-86 38 -134 110q-50 74 -50 175q0 108 66 190q76 92 207 133q129 40 277 40h285v39q0 68 -9 111q-9 44 -33 92q-45 92 -128 139q-85 47 -190 47q-112 0 -194 -49q-81 -49 -125 -138q-44 -90 -44 -201h-59q-2 132 47 233q50 104 145 162
q97 59 230 59q121 0 219 -53q96 -54 150 -159t51 -241h-1v-705h-59v218q-64 -105 -184 -173q-118 -67 -285 -67zM454 35q160 0 282 72q123 71 187 213v283h-282q-147 0 -261 -39q-103 -35 -167 -102q-66 -68 -66 -166q0 -66 40 -131q37 -63 113 -96q74 -34 154 -34z
M611 1309l-206 344h64l197 -344h-55z" />
    <glyph glyph-name="aacute" unicode="&#xe1;" horiz-adv-x="1071" 
d="M454 -23q-102 0 -182 38q-86 38 -134 110q-50 74 -50 175q0 108 66 190q76 92 207 133q129 40 277 40h285v39q0 68 -9 111q-9 44 -33 92q-45 92 -128 139q-85 47 -190 47q-112 0 -194 -49q-81 -49 -125 -138q-44 -90 -44 -201h-59q-2 132 47 233q50 104 145 162
q97 59 230 59q121 0 219 -53q96 -54 150 -159t51 -241h-1v-705h-59v218q-64 -105 -184 -173q-118 -67 -285 -67zM454 35q160 0 282 72q123 71 187 213v283h-282q-147 0 -261 -39q-103 -35 -167 -102q-66 -68 -66 -166q0 -66 40 -131q37 -63 113 -96q74 -34 154 -34z
M408 1326l199 344h62l-204 -344h-57z" />
    <glyph glyph-name="acircumflex" unicode="&#xe2;" horiz-adv-x="1071" 
d="M454 -23q-102 0 -182 38q-86 38 -134 110q-50 74 -50 175q0 108 66 190q76 92 207 133q129 40 277 40h285v39q0 68 -9 111q-9 44 -33 92q-45 92 -128 139q-85 47 -190 47q-112 0 -194 -49q-81 -49 -125 -138q-44 -90 -44 -201h-59q-2 132 47 233q50 104 145 162
q97 59 230 59q121 0 219 -53q96 -54 150 -159t51 -241h-1v-705h-59v218q-64 -105 -184 -173q-118 -67 -285 -67zM454 35q160 0 282 72q123 71 187 213v283h-282q-147 0 -261 -39q-103 -35 -167 -102q-66 -68 -66 -166q0 -66 40 -131q37 -63 113 -96q74 -34 154 -34z
M228 1326l253 334h50l251 -334h-61l-215 278l-215 -278h-63z" />
    <glyph glyph-name="atilde" unicode="&#xe3;" horiz-adv-x="1071" 
d="M454 -23q-102 0 -182 38q-86 38 -134 110q-50 74 -50 175q0 108 66 190q76 92 207 133q129 40 277 40h285v39q0 68 -9 111q-9 44 -33 92q-45 92 -128 139q-85 47 -190 47q-112 0 -194 -49q-81 -49 -125 -138q-44 -90 -44 -201h-59q-2 132 47 233q50 104 145 162
q97 59 230 59q121 0 219 -53q96 -54 150 -159t51 -241h-1v-705h-59v218q-64 -105 -184 -173q-118 -67 -285 -67zM454 35q160 0 282 72q123 71 187 213v283h-282q-147 0 -261 -39q-103 -35 -167 -102q-66 -68 -66 -166q0 -66 40 -131q37 -63 113 -96q74 -34 154 -34z
M257 1392l1 7q11 92 47 151q35 57 112 57q47 0 78 -20q27 -18 60 -58q2 -2 5.5 -6.5t5.5 -6.5q3 -5 12 -14q21 -24 39 -34q19 -12 45 -12q53 0 71 34q23 42 35 114l1 5h53l-1 -7q-11 -95 -47 -151q-33 -57 -112 -57q-45 0 -75 21q-29 18 -68 63q-9 9 -12 14q-2 2 -5.5 6.5
t-5.5 6.5q-18 21 -37 31q-17 9 -45 9q-53 0 -69 -34q-23 -41 -33 -114l-1 -5h-54z" />
    <glyph glyph-name="adieresis" unicode="&#xe4;" horiz-adv-x="1071" 
d="M454 -23q-102 0 -182 38q-86 38 -134 110q-50 74 -50 175q0 108 66 190q76 92 207 133q129 40 277 40h285v39q0 68 -9 111q-9 44 -33 92q-45 92 -128 139q-85 47 -190 47q-112 0 -194 -49q-81 -49 -125 -138q-44 -90 -44 -201h-59q-2 132 47 233q50 104 145 162
q97 59 230 59q121 0 219 -53q96 -54 150 -159t51 -241h-1v-705h-59v218q-64 -105 -184 -173q-118 -67 -285 -67zM454 35q160 0 282 72q123 71 187 213v283h-282q-147 0 -261 -39q-103 -35 -167 -102q-66 -68 -66 -166q0 -66 40 -131q37 -63 113 -96q74 -34 154 -34z
M333 1358q-27 0 -41 17q-17 14 -17 41q0 28 15 43t43 15q25 0 43 -15q15 -18 15 -43q0 -28 -15 -43t-43 -15zM739 1358q-26 0 -43 17q-17 14 -17 41q0 26 17 43q18 15 43 15t43 -15q15 -18 15 -43q0 -28 -15 -43t-43 -15z" />
    <glyph glyph-name="aring" unicode="&#xe5;" horiz-adv-x="1071" 
d="M454 -23q-102 0 -182 38q-86 38 -134 110q-50 74 -50 175q0 108 66 190q76 92 207 133q129 40 277 40h285v39q0 68 -9 111q-9 44 -33 92q-45 92 -128 139q-85 47 -190 47q-112 0 -194 -49q-81 -49 -125 -138q-44 -90 -44 -201h-59q-2 132 47 233q50 104 145 162
q97 59 230 59q121 0 219 -53q96 -54 150 -159t51 -241h-1v-705h-59v218q-64 -105 -184 -173q-118 -67 -285 -67zM454 35q160 0 282 72q123 71 187 213v283h-282q-147 0 -261 -39q-103 -35 -167 -102q-66 -68 -66 -166q0 -66 40 -131q37 -63 113 -96q74 -34 154 -34z
M536 1343q-52 0 -96 24t-69 67q-25 41 -25 95q0 53 25 96q25 42 69 66t96 24q86 0 138 -51t52 -135t-52 -135t-138 -51zM536 1393q60 0 98 38t38 98q0 59 -38 97q-38 37 -98 37q-59 0 -96 -37q-38 -38 -38 -97q0 -57 38 -97q38 -39 96 -39z" />
    <glyph glyph-name="ae" unicode="&#xe6;" horiz-adv-x="1846" 
d="M1758 607h-776v-168q0 -71 9 -114q9 -45 33 -91q47 -92 130 -139q82 -48 189 -48q103 0 186 47q81 46 131 138l46 -38q-52 -102 -148 -155q-96 -54 -214 -54q-247 0 -362 205v-191h-59v218q-64 -105 -184 -173q-118 -67 -285 -67q-102 0 -182 38q-86 38 -134 110
q-50 74 -50 175q0 108 66 190q76 92 207 133q129 40 277 40h285v39q0 68 -9 111q-9 44 -33 92q-45 92 -128 139q-85 47 -190 47q-112 0 -194 -49q-81 -49 -125 -138q-44 -90 -44 -201h-59q-2 132 47 233q50 104 145 162q97 59 230 59q121 0 219 -53q96 -54 150 -159
q15 -30 22 -50q11 31 20 49q48 100 143 156t228 57q256 1 362 -207q30 -59 41 -118q10 -54 10 -167v-58zM991 821q-7 -36 -8 -78v-39h-1v-37h721v41q0 70 -9 114q-9 45 -33 91q-46 90 -130 139q-84 48 -188 48t-189 -47q-83 -47 -130 -140q-24 -48 -33 -92zM923 320v283
h-282q-147 0 -261 -39q-103 -35 -167 -102q-66 -68 -66 -166q0 -66 40 -131q37 -63 113 -96q74 -34 154 -34q160 0 282 72q123 71 187 213z" />
    <glyph glyph-name="ccedilla" unicode="&#xe7;" horiz-adv-x="956" 
d="M485 -459q-76 0 -126 22q-51 23 -92 80l30 43q67 -97 188 -97q66 0 110 38q42 39 42 106q0 64 -46 120q-47 57 -111 93q-12 8 -44 25l-10 5q-6 4 -9 5l-20 10q-169 38 -257 201q-27 49 -39 109q-12 59 -12 130v277h-1q-2 126 48 228t144 162q95 59 223 59q119 0 216 -54
q96 -53 149 -156l-46 -37q-50 92 -131 138q-83 47 -186 47q-104 0 -189 -47q-84 -47 -130 -140q-24 -48 -33 -92q-9 -45 -9 -113v-269q0 -70 9 -114q9 -45 33 -91q49 -93 131 -139q83 -48 188 -48q103 0 186 47q81 46 131 138l46 -38q-54 -103 -146 -154q-96 -54 -210 -55
q80 -42 130 -103q47 -59 47 -142q0 -90 -56 -143q-55 -51 -148 -51z" />
    <glyph glyph-name="egrave" unicode="&#xe8;" horiz-adv-x="1008" 
d="M506 -15q-250 0 -366 212q-27 49 -39 109q-12 59 -12 130l-1 277q0 131 48 231q47 99 143 157q95 56 228 56q254 0 362 -207q30 -59 41 -118q10 -54 10 -167v-58h-776v-168q0 -71 9 -114q9 -45 33 -91q49 -93 131 -139q83 -48 188 -48q103 0 186 47q81 46 131 138l46 -38
q-52 -102 -148 -155q-96 -54 -214 -54zM144 667h721v41q0 70 -9 114q-9 45 -33 91q-46 90 -130 139q-84 48 -188 48t-189 -47q-84 -47 -130 -140q-24 -48 -33 -92q-9 -45 -9 -113v-41zM580 1309l-206 344h64l197 -344h-55z" />
    <glyph glyph-name="eacute" unicode="&#xe9;" horiz-adv-x="1008" 
d="M506 -15q-250 0 -366 212q-27 49 -39 109q-12 59 -12 130l-1 277q0 131 48 231q47 99 143 157q95 56 228 56q254 0 362 -207q30 -59 41 -118q10 -54 10 -167v-58h-776v-168q0 -71 9 -114q9 -45 33 -91q49 -93 131 -139q83 -48 188 -48q103 0 186 47q81 46 131 138l46 -38
q-52 -102 -148 -155q-96 -54 -214 -54zM144 667h721v41q0 70 -9 114q-9 45 -33 91q-46 90 -130 139q-84 48 -188 48t-189 -47q-84 -47 -130 -140q-24 -48 -33 -92q-9 -45 -9 -113v-41zM377 1326l199 344h62l-204 -344h-57z" />
    <glyph glyph-name="ecircumflex" unicode="&#xea;" horiz-adv-x="1008" 
d="M506 -15q-250 0 -366 212q-27 49 -39 109q-12 59 -12 130l-1 277q0 131 48 231q47 99 143 157q95 56 228 56q254 0 362 -207q30 -59 41 -118q10 -54 10 -167v-58h-776v-168q0 -71 9 -114q9 -45 33 -91q49 -93 131 -139q83 -48 188 -48q103 0 186 47q81 46 131 138l46 -38
q-52 -102 -148 -155q-96 -54 -214 -54zM144 667h721v41q0 70 -9 114q-9 45 -33 91q-46 90 -130 139q-84 48 -188 48t-189 -47q-84 -47 -130 -140q-24 -48 -33 -92q-9 -45 -9 -113v-41zM197 1326l253 334h50l251 -334h-61l-215 278l-215 -278h-63z" />
    <glyph glyph-name="edieresis" unicode="&#xeb;" horiz-adv-x="1008" 
d="M506 -15q-250 0 -366 212q-27 49 -39 109q-12 59 -12 130l-1 277q0 131 48 231q47 99 143 157q95 56 228 56q254 0 362 -207q30 -59 41 -118q10 -54 10 -167v-58h-776v-168q0 -71 9 -114q9 -45 33 -91q49 -93 131 -139q83 -48 188 -48q103 0 186 47q81 46 131 138l46 -38
q-52 -102 -148 -155q-96 -54 -214 -54zM144 667h721v41q0 70 -9 114q-9 45 -33 91q-46 90 -130 139q-84 48 -188 48t-189 -47q-84 -47 -130 -140q-24 -48 -33 -92q-9 -45 -9 -113v-41zM301 1358q-27 0 -41 17q-17 14 -17 41q0 28 15 43t43 15q25 0 43 -15q15 -18 15 -43
q0 -28 -15 -43t-43 -15zM707 1358q-26 0 -43 17q-17 14 -17 41q0 26 17 43q18 15 43 15t43 -15q15 -18 15 -43q0 -28 -15 -43t-43 -15z" />
    <glyph glyph-name="igrave" unicode="&#xec;" horiz-adv-x="299" 
d="M225 1309l-206 344h64l197 -344h-55zM120 0v1156h59v-1156h-59z" />
    <glyph glyph-name="iacute" unicode="&#xed;" horiz-adv-x="299" 
d="M19 1326l199 344h62l-204 -344h-57zM117 0v1156h59v-1156h-59z" />
    <glyph glyph-name="icircumflex" unicode="&#xee;" horiz-adv-x="299" 
d="M-128 1326l253 334h50l251 -334h-61l-215 278l-215 -278h-63zM150 0v1156h59v-1156h-59z" />
    <glyph glyph-name="idieresis" unicode="&#xef;" horiz-adv-x="299" 
d="M-54 1358q-27 0 -41 17q-17 14 -17 41q0 28 15 43t43 15q25 0 43 -15q15 -18 15 -43q0 -28 -15 -43t-43 -15zM352 1358q-26 0 -43 17q-17 14 -17 41q0 26 17 43q18 15 43 15t43 -15q15 -18 15 -43q0 -28 -15 -43t-43 -15zM120 0v1156h59v-1156h-59z" />
    <glyph glyph-name="ntilde" unicode="&#xf1;" 
d="M88 0v1154h55v-196q125 200 367 200q122 0 217 -53q94 -52 150 -158q54 -105 51 -237l-1 -710l-55 2v703q0 68 -9 113q-9 42 -32 92q-48 92 -131 140q-85 47 -190 47q-112 0 -194 -49q-82 -50 -126 -138q-44 -90 -47 -202v-708h-55zM229 1392l1 7q11 92 47 151
q35 57 112 57q47 0 78 -20q27 -18 60 -58q2 -2 5.5 -6.5t5.5 -6.5q3 -5 12 -14q21 -24 39 -34q19 -12 45 -12q53 0 71 34q23 42 35 114l1 5h53l-1 -7q-11 -95 -47 -151q-33 -57 -112 -57q-45 0 -75 21q-29 18 -68 63q-9 9 -12 14q-2 2 -5.5 6.5t-5.5 6.5q-18 21 -37 31
q-17 9 -45 9q-53 0 -69 -34q-23 -41 -33 -114l-1 -5h-54z" />
    <glyph glyph-name="ograve" unicode="&#xf2;" horiz-adv-x="1009" 
d="M506 -13q-261 0 -366 207q-54 101 -51 239v277h-1q-1 132 52 237q105 207 368 207q130 0 225 -57q92 -58 142 -159q48 -99 46 -228h-1v-277q3 -136 -51 -239q-103 -207 -363 -207zM505 44q104 0 188 48q84 49 130 139q24 48 33 92q9 43 9 113v269q0 68 -9 113
q-9 44 -33 92q-46 90 -130 139q-84 48 -188 48q-105 0 -188 -47q-83 -48 -131 -140q-24 -48 -33 -92q-9 -45 -9 -113v-269q0 -70 9 -113q9 -44 33 -92q49 -93 131 -139q83 -48 188 -48zM580 1309l-206 344h64l197 -344h-55z" />
    <glyph glyph-name="oacute" unicode="&#xf3;" horiz-adv-x="1009" 
d="M506 -13q-261 0 -366 207q-54 101 -51 239v277h-1q-1 132 52 237q105 207 368 207q130 0 225 -57q92 -58 142 -159q48 -99 46 -228h-1v-277q3 -136 -51 -239q-103 -207 -363 -207zM505 44q104 0 188 48q84 49 130 139q24 48 33 92q9 43 9 113v269q0 68 -9 113
q-9 44 -33 92q-46 90 -130 139q-84 48 -188 48q-105 0 -188 -47q-83 -48 -131 -140q-24 -48 -33 -92q-9 -45 -9 -113v-269q0 -70 9 -113q9 -44 33 -92q49 -93 131 -139q83 -48 188 -48zM377 1326l199 344h62l-204 -344h-57z" />
    <glyph glyph-name="ocircumflex" unicode="&#xf4;" horiz-adv-x="1009" 
d="M506 -13q-261 0 -366 207q-54 101 -51 239v277h-1q-1 132 52 237q105 207 368 207q130 0 225 -57q92 -58 142 -159q48 -99 46 -228h-1v-277q3 -136 -51 -239q-103 -207 -363 -207zM505 44q104 0 188 48q84 49 130 139q24 48 33 92q9 43 9 113v269q0 68 -9 113
q-9 44 -33 92q-46 90 -130 139q-84 48 -188 48q-105 0 -188 -47q-83 -48 -131 -140q-24 -48 -33 -92q-9 -45 -9 -113v-269q0 -70 9 -113q9 -44 33 -92q49 -93 131 -139q83 -48 188 -48zM197 1326l253 334h50l251 -334h-61l-215 278l-215 -278h-63z" />
    <glyph glyph-name="otilde" unicode="&#xf5;" horiz-adv-x="1009" 
d="M506 -13q-261 0 -366 207q-54 101 -51 239v277h-1q-1 132 52 237q105 207 368 207q130 0 225 -57q92 -58 142 -159q48 -99 46 -228h-1v-277q3 -136 -51 -239q-103 -207 -363 -207zM505 44q104 0 188 48q84 49 130 139q24 48 33 92q9 43 9 113v269q0 68 -9 113
q-9 44 -33 92q-46 90 -130 139q-84 48 -188 48q-105 0 -188 -47q-83 -48 -131 -140q-24 -48 -33 -92q-9 -45 -9 -113v-269q0 -70 9 -113q9 -44 33 -92q49 -93 131 -139q83 -48 188 -48zM225 1392l1 7q11 92 47 151q34 57 112 57q47 0 78 -20q27 -18 60 -58q2 -2 5.5 -6.5
t5.5 -6.5q3 -5 12 -14q21 -24 39 -34q19 -12 45 -12q53 0 71 34q23 42 35 114l1 5h53l-1 -7q-11 -95 -47 -151q-33 -57 -112 -57q-45 0 -75 21q-29 18 -68 63q-9 9 -12 14q-2 2 -5.5 6.5t-5.5 6.5q-18 21 -37 31q-17 9 -45 9q-53 0 -69 -34q-23 -41 -33 -114l-1 -5h-54z" />
    <glyph glyph-name="odieresis" unicode="&#xf6;" horiz-adv-x="1009" 
d="M506 -13q-261 0 -366 207q-54 101 -51 239v277h-1q-1 132 52 237q105 207 368 207q130 0 225 -57q92 -58 142 -159q48 -99 46 -228h-1v-277q3 -136 -51 -239q-103 -207 -363 -207zM505 44q104 0 188 48q84 49 130 139q24 48 33 92q9 43 9 113v269q0 68 -9 113
q-9 44 -33 92q-46 90 -130 139q-84 48 -188 48q-105 0 -188 -47q-83 -48 -131 -140q-24 -48 -33 -92q-9 -45 -9 -113v-269q0 -70 9 -113q9 -44 33 -92q49 -93 131 -139q83 -48 188 -48zM302 1358q-27 0 -41 17q-17 14 -17 41q0 28 15 43t43 15q25 0 43 -15q15 -18 15 -43
q0 -28 -15 -43t-43 -15zM708 1358q-26 0 -43 17q-17 14 -17 41q0 26 17 43q18 15 43 15t43 -15q15 -18 15 -43q0 -28 -15 -43t-43 -15z" />
    <glyph glyph-name="divide" unicode="&#xf7;" horiz-adv-x="1186" 
d="M592 312q-26 0 -42 16t-16 42q0 58 58 58q24 0 44 -14q14 -20 14 -44q0 -58 -58 -58zM592 1126q-26 0 -42 16t-16 42q0 58 58 58q24 0 44 -14q14 -20 14 -44q0 -58 -58 -58zM88 750v50h1010v-50h-1010z" />
    <glyph glyph-name="oslash" unicode="&#xf8;" horiz-adv-x="1009" 
d="M186 -289l105 323q-99 56 -151 160q-54 101 -51 239v277h-1q-1 132 52 237q105 207 368 207q78 0 141 -19l117 356h58l-123 -376q111 -54 168 -168q53 -105 52 -237h-1v-277q3 -136 -51 -239q-103 -207 -363 -207q-95 0 -164 25l-98 -301h-58zM311 95l320 983
q-54 19 -126 19q-105 0 -188 -47q-83 -48 -131 -140q-24 -48 -33 -92q-9 -45 -9 -113v-269q0 -70 9 -113q9 -44 33 -92q43 -83 125 -136zM505 44q104 0 188 48q84 49 130 139q24 48 33 92q9 43 9 113v269q0 68 -9 113q-9 44 -33 92q-23 46 -60 83t-81 63l-322 -986
q67 -26 145 -26z" />
    <glyph glyph-name="ugrave" unicode="&#xf9;" 
d="M506 -16q-128 0 -223 57q-96 58 -145 159q-50 103 -50 233l1 724l55 -2v-717q0 -70 9 -114q9 -45 33 -91q48 -93 131 -140t189 -47q109 0 194 50q83 50 128 138q45 89 45 200v723h55v-1157h-55v185q-62 -101 -154 -151q-94 -50 -213 -50zM584 1309l-206 344h64l197 -344
h-55z" />
    <glyph glyph-name="uacute" unicode="&#xfa;" 
d="M506 -16q-128 0 -223 57q-96 58 -145 159q-50 103 -50 233l1 724l55 -2v-717q0 -70 9 -114q9 -45 33 -91q48 -93 131 -140t189 -47q109 0 194 50q83 50 128 138q45 89 45 200v723h55v-1157h-55v185q-62 -101 -154 -151q-94 -50 -213 -50zM381 1326l199 344h62l-204 -344
h-57z" />
    <glyph glyph-name="ucircumflex" unicode="&#xfb;" 
d="M506 -16q-128 0 -223 57q-96 58 -145 159q-50 103 -50 233l1 724l55 -2v-717q0 -70 9 -114q9 -45 33 -91q48 -93 131 -140t189 -47q109 0 194 50q83 50 128 138q45 89 45 200v723h55v-1157h-55v185q-62 -101 -154 -151q-94 -50 -213 -50zM201 1326l253 334h50l251 -334
h-61l-215 278l-215 -278h-63z" />
    <glyph glyph-name="udieresis" unicode="&#xfc;" 
d="M506 -16q-128 0 -223 57q-96 58 -145 159q-50 103 -50 233l1 724l55 -2v-717q0 -70 9 -114q9 -45 33 -91q48 -93 131 -140t189 -47q109 0 194 50q83 50 128 138q45 89 45 200v723h55v-1157h-55v185q-62 -101 -154 -151q-94 -50 -213 -50zM305 1358q-27 0 -41 17
q-17 14 -17 41q0 28 15 43t43 15q25 0 43 -15q15 -18 15 -43q0 -28 -15 -43t-43 -15zM711 1358q-26 0 -43 17q-17 14 -17 41q0 26 17 43q18 15 43 15t43 -15q15 -18 15 -43q0 -28 -15 -43t-43 -15z" />
    <glyph glyph-name="yacute" unicode="&#xfd;" horiz-adv-x="1135" 
d="M167 -482q-33 0 -79 8v1l15 58h2q35 -7 65 -7q34 0 67 9q112 30 173 97q60 67 100 188l44 130l-431 1155h63l399 -1067l400 1067h62l-409 -1095l-71 -209q-52 -153 -151 -244q-98 -91 -249 -91zM440 1326l199 344h62l-204 -344h-57z" />
    <glyph glyph-name="ydieresis" unicode="&#xff;" horiz-adv-x="1135" 
d="M167 -482q-33 0 -79 8v1l15 58h2q35 -7 65 -7q34 0 67 9q112 30 173 97q60 67 100 188l44 130l-431 1155h63l399 -1067l400 1067h62l-409 -1095l-71 -209q-52 -153 -151 -244q-98 -91 -249 -91zM365 1358q-27 0 -41 17q-17 14 -17 41q0 28 15 43t43 15q25 0 43 -15
q15 -18 15 -43q0 -28 -15 -43t-43 -15zM771 1358q-26 0 -43 17q-17 14 -17 41q0 26 17 43q18 15 43 15t43 -15q15 -18 15 -43q0 -28 -15 -43t-43 -15z" />
    <glyph glyph-name="Amacron" unicode="&#x100;" horiz-adv-x="1445" 
d="M396 1845v50h654v-50h-654zM88 0l598 1602h73l598 -1602h-64l-228 611h-684l-228 -611h-65zM403 670h640l-320 872z" />
    <glyph glyph-name="amacron" unicode="&#x101;" horiz-adv-x="1071" 
d="M454 -23q-102 0 -182 38q-86 38 -134 110q-50 74 -50 175q0 108 66 190q76 92 207 133q129 40 277 40h285v39q0 68 -9 111q-9 44 -33 92q-45 92 -128 139q-85 47 -190 47q-112 0 -194 -49q-81 -49 -125 -138q-44 -90 -44 -201h-59q-2 132 47 233q50 104 145 162
q97 59 230 59q121 0 219 -53q96 -54 150 -159t51 -241h-1v-705h-59v218q-64 -105 -184 -173q-118 -67 -285 -67zM454 35q160 0 282 72q123 71 187 213v283h-282q-147 0 -261 -39q-103 -35 -167 -102q-66 -68 -66 -166q0 -66 40 -131q37 -63 113 -96q74 -34 154 -34z
M209 1400v50h654v-50h-654z" />
    <glyph glyph-name="Abreve" unicode="&#x102;" horiz-adv-x="1445" 
d="M723 1771q-130 0 -203 73q-76 76 -73 213h50q-3 -109 61 -173q61 -61 165 -61t165 61q64 64 61 173h50q3 -137 -73 -213q-73 -73 -203 -73zM88 0l598 1602h73l598 -1602h-64l-228 611h-684l-228 -611h-65zM403 670h640l-320 872z" />
    <glyph glyph-name="abreve" unicode="&#x103;" horiz-adv-x="1071" 
d="M454 -23q-102 0 -182 38q-86 38 -134 110q-50 74 -50 175q0 108 66 190q76 92 207 133q129 40 277 40h285v39q0 68 -9 111q-9 44 -33 92q-45 92 -128 139q-85 47 -190 47q-112 0 -194 -49q-81 -49 -125 -138q-44 -90 -44 -201h-59q-2 132 47 233q50 104 145 162
q97 59 230 59q121 0 219 -53q96 -54 150 -159t51 -241h-1v-705h-59v218q-64 -105 -184 -173q-118 -67 -285 -67zM454 35q160 0 282 72q123 71 187 213v283h-282q-147 0 -261 -39q-103 -35 -167 -102q-66 -68 -66 -166q0 -66 40 -131q37 -63 113 -96q74 -34 154 -34z
M536 1326q-130 0 -203 73q-76 76 -73 213h50q-3 -109 61 -173q61 -61 165 -61t165 61q64 64 61 173h50q3 -137 -73 -213q-73 -73 -203 -73z" />
    <glyph glyph-name="Aogonek" unicode="&#x104;" horiz-adv-x="1445" 
d="M1200 -464q-92 0 -147 46q-57 46 -57 136q0 57 28 106q29 51 76 86q32 29 85 58q50 27 103 47l-223 596h-684l-228 -611h-65l598 1602h73l598 -1602l-3 -1q-6 -3 -27 -13t-44 -20.5t-27 -12.5q-62 -32 -98 -61q-47 -32 -77 -77q-31 -44 -31 -97q0 -64 42 -99
q42 -33 108 -33q103 0 159 50l24 -48q-56 -34 -88 -43q-31 -9 -95 -9zM403 670h640l-320 872z" />
    <glyph glyph-name="aogonek" unicode="&#x105;" horiz-adv-x="1071" 
d="M827 -464q-92 0 -147 46q-57 46 -57 136q0 57 28 106q29 51 76 86q35 31 89 60t107 48v199q-64 -105 -184 -173q-118 -67 -285 -67q-102 0 -182 38q-86 38 -134 110q-50 74 -50 175q0 108 66 190q76 92 207 133q129 40 277 40h285v39q0 68 -9 111q-9 44 -33 92
q-45 92 -128 139q-85 47 -190 47q-112 0 -194 -49q-81 -49 -125 -138q-44 -90 -44 -201h-59q-2 132 47 233q50 104 145 162q97 59 230 59q121 0 219 -53q96 -54 150 -159t51 -241h-1v-705q-5 -2 -10.5 -4.5t-8.5 -4t-5.5 -2.5t-3.5 -2q-21 -10 -44 -20.5t-27 -12.5
q-62 -32 -98 -61q-47 -32 -77 -77q-31 -44 -31 -97q0 -64 42 -99q42 -33 108 -33q103 0 159 50l24 -48q-56 -34 -88 -43t-95 -9zM454 35q160 0 282 72q123 71 187 213v283h-282q-147 0 -261 -39q-103 -35 -167 -102q-66 -68 -66 -166q0 -66 40 -131q37 -63 113 -96
q74 -34 154 -34z" />
    <glyph glyph-name="Cacute" unicode="&#x106;" horiz-adv-x="1254" 
d="M661 -22q-185 0 -315 98q-128 96 -194 259q-64 159 -64 346v240q0 209 70 367q72 160 202 248q128 88 301 88q174 0 304 -88q131 -89 201 -248l-47 -32q-64 150 -180 229q-118 79 -278 79q-172 0 -288 -89q-117 -90 -172 -234q-56 -147 -56 -318v-242q0 -167 56 -314
q55 -147 172 -238q116 -92 289 -92q158 0 277 80q117 79 180 228l47 -31q-70 -160 -200 -248t-304 -88h-1zM500 1771l199 344h62l-204 -344h-57z" />
    <glyph glyph-name="cacute" unicode="&#x107;" horiz-adv-x="956" 
d="M506 -20q-250 0 -366 212q-27 49 -39 109q-12 59 -12 130v277h-1q-2 126 48 228t144 162q95 59 223 59q119 0 216 -54q96 -53 149 -156l-46 -37q-50 92 -131 138q-83 47 -186 47q-104 0 -189 -47q-84 -47 -130 -140q-24 -48 -33 -92q-9 -45 -9 -113v-269q0 -70 9 -114
q9 -45 33 -91q49 -93 131 -139q83 -48 188 -48q103 0 186 47q81 46 131 138l46 -38q-52 -102 -148 -155q-96 -54 -214 -54zM351 1326l199 344h62l-204 -344h-57z" />
    <glyph glyph-name="Ccircumflex" unicode="&#x108;" horiz-adv-x="1254" 
d="M661 -22q-185 0 -315 98q-128 96 -194 259q-64 159 -64 346v240q0 209 70 367q72 160 202 248q128 88 301 88q174 0 304 -88q131 -89 201 -248l-47 -32q-64 150 -180 229q-118 79 -278 79q-172 0 -288 -89q-117 -90 -172 -234q-56 -147 -56 -318v-242q0 -167 56 -314
q55 -147 172 -238q116 -92 289 -92q158 0 277 80q117 79 180 228l47 -31q-70 -160 -200 -248t-304 -88h-1zM320 1771l253 334h50l251 -334h-61l-215 278l-215 -278h-63z" />
    <glyph glyph-name="ccircumflex" unicode="&#x109;" horiz-adv-x="956" 
d="M506 -20q-250 0 -366 212q-27 49 -39 109q-12 59 -12 130v277h-1q-2 126 48 228t144 162q95 59 223 59q119 0 216 -54q96 -53 149 -156l-46 -37q-50 92 -131 138q-83 47 -186 47q-104 0 -189 -47q-84 -47 -130 -140q-24 -48 -33 -92q-9 -45 -9 -113v-269q0 -70 9 -114
q9 -45 33 -91q49 -93 131 -139q83 -48 188 -48q103 0 186 47q81 46 131 138l46 -38q-52 -102 -148 -155q-96 -54 -214 -54zM171 1326l253 334h50l251 -334h-61l-215 278l-215 -278h-63z" />
    <glyph glyph-name="Cdotaccent" unicode="&#x10a;" horiz-adv-x="1254" 
d="M661 -22q-185 0 -315 98q-128 96 -194 259q-64 159 -64 346v240q0 209 70 367q72 160 202 248q128 88 301 88q174 0 304 -88q131 -89 201 -248l-47 -32q-64 150 -180 229q-118 79 -278 79q-172 0 -288 -89q-117 -90 -172 -234q-56 -147 -56 -318v-242q0 -167 56 -314
q55 -147 172 -238q116 -92 289 -92q158 0 277 80q117 79 180 228l47 -31q-70 -160 -200 -248t-304 -88h-1zM627 1823q-27 0 -41 17q-17 14 -17 41q0 28 15 43t43 15q25 0 43 -15q15 -18 15 -43q0 -28 -15 -43t-43 -15z" />
    <glyph glyph-name="cdotaccent" unicode="&#x10b;" horiz-adv-x="956" 
d="M506 -20q-250 0 -366 212q-27 49 -39 109q-12 59 -12 130v277h-1q-2 126 48 228t144 162q95 59 223 59q119 0 216 -54q96 -53 149 -156l-46 -37q-50 92 -131 138q-83 47 -186 47q-104 0 -189 -47q-84 -47 -130 -140q-24 -48 -33 -92q-9 -45 -9 -113v-269q0 -70 9 -114
q9 -45 33 -91q49 -93 131 -139q83 -48 188 -48q103 0 186 47q81 46 131 138l46 -38q-52 -102 -148 -155q-96 -54 -214 -54zM478 1378q-27 0 -41 17q-17 14 -17 41q0 28 15 43t43 15q25 0 43 -15q15 -18 15 -43q0 -28 -15 -43t-43 -15z" />
    <glyph glyph-name="Ccaron" unicode="&#x10c;" horiz-adv-x="1254" 
d="M661 -22q-185 0 -315 98q-128 96 -194 259q-64 159 -64 346v240q0 209 70 367q72 160 202 248q128 88 301 88q174 0 304 -88q131 -89 201 -248l-47 -32q-64 150 -180 229q-118 79 -278 79q-172 0 -288 -89q-117 -90 -172 -234q-56 -147 -56 -318v-242q0 -167 56 -314
q55 -147 172 -238q116 -92 289 -92q158 0 277 80q117 79 180 228l47 -31q-70 -160 -200 -248t-304 -88h-1zM603 1771l-253 334h63l215 -278l215 278h61l-251 -334h-50z" />
    <glyph glyph-name="ccaron" unicode="&#x10d;" horiz-adv-x="956" 
d="M506 -20q-250 0 -366 212q-27 49 -39 109q-12 59 -12 130v277h-1q-2 126 48 228t144 162q95 59 223 59q119 0 216 -54q96 -53 149 -156l-46 -37q-50 92 -131 138q-83 47 -186 47q-104 0 -189 -47q-84 -47 -130 -140q-24 -48 -33 -92q-9 -45 -9 -113v-269q0 -70 9 -114
q9 -45 33 -91q49 -93 131 -139q83 -48 188 -48q103 0 186 47q81 46 131 138l46 -38q-52 -102 -148 -155q-96 -54 -214 -54zM454 1326l-253 334h63l215 -278l215 278h61l-251 -334h-50z" />
    <glyph glyph-name="Dcaron" unicode="&#x10e;" horiz-adv-x="1263" 
d="M88 0v1602h505q188 -2 318 -94q130 -93 198 -248q66 -156 66 -343v-233q0 -201 -73 -357q-70 -153 -199 -238q-131 -86 -297 -86zM591 58q162 0 281 80q129 84 187 229q58 144 58 317v236q0 174 -58 312q-59 140 -177 225q-121 85 -297 89h-438l3 -1485zM608 1771
l-253 334h63l215 -278l215 278h61l-251 -334h-50z" />
    <glyph glyph-name="dcaron" unicode="&#x10f;" horiz-adv-x="1381" 
d="M506 -18q-122 0 -216 54q-96 52 -150 158q-54 101 -51 239l-1 277q-2 128 48 230t144 160t226 58q242 0 367 -200v644h55v-1602h-55v183q-126 -201 -367 -201zM506 44q111 0 194 50t126 137q44 88 47 201v276q-3 111 -45 200q-43 88 -124 139q-83 50 -198 50
q-106 0 -189 -47q-83 -48 -131 -140q-24 -48 -33 -92q-9 -45 -9 -113v-269q0 -70 9 -113q9 -44 33 -92q49 -93 131 -139q83 -48 189 -48zM1155 1340l-51 37q38 4 72 35q32 27 52 71q19 39 19 79q0 3 -2 21q-15 -17 -38 -17t-40 20q-16 16 -16 40q0 26 18 44q17 14 42 14
q50 0 68 -38q14 -36 14 -72q0 -72 -37 -136q-36 -63 -101 -98z" />
    <glyph glyph-name="Emacron" unicode="&#x112;" horiz-adv-x="1145" 
d="M246 1845v50h654v-50h-654zM88 0v1602h969v-56h-910v-653h651l-2 -61h-646v-771h907v-58z" />
    <glyph glyph-name="emacron" unicode="&#x113;" horiz-adv-x="1008" 
d="M506 -15q-250 0 -366 212q-27 49 -39 109q-12 59 -12 130l-1 277q0 131 48 231q47 99 143 157q95 56 228 56q254 0 362 -207q30 -59 41 -118q10 -54 10 -167v-58h-776v-168q0 -71 9 -114q9 -45 33 -91q49 -93 131 -139q83 -48 188 -48q103 0 186 47q81 46 131 138l46 -38
q-52 -102 -148 -155q-96 -54 -214 -54zM144 667h721v41q0 70 -9 114q-9 45 -33 91q-46 90 -130 139q-84 48 -188 48t-189 -47q-84 -47 -130 -140q-24 -48 -33 -92q-9 -45 -9 -113v-41zM177 1400v50h654v-50h-654z" />
    <glyph glyph-name="Ebreve" unicode="&#x114;" horiz-adv-x="1145" 
d="M573 1771q-130 0 -203 73q-76 76 -73 213h50q-3 -109 61 -173q61 -61 165 -61t165 61q64 64 61 173h50q3 -137 -73 -213q-73 -73 -203 -73zM88 0v1602h969v-56h-910v-653h651l-2 -61h-646v-771h907v-58z" />
    <glyph glyph-name="ebreve" unicode="&#x115;" horiz-adv-x="1008" 
d="M506 -15q-250 0 -366 212q-27 49 -39 109q-12 59 -12 130l-1 277q0 131 48 231q47 99 143 157q95 56 228 56q254 0 362 -207q30 -59 41 -118q10 -54 10 -167v-58h-776v-168q0 -71 9 -114q9 -45 33 -91q49 -93 131 -139q83 -48 188 -48q103 0 186 47q81 46 131 138l46 -38
q-52 -102 -148 -155q-96 -54 -214 -54zM144 667h721v41q0 70 -9 114q-9 45 -33 91q-46 90 -130 139q-84 48 -188 48t-189 -47q-84 -47 -130 -140q-24 -48 -33 -92q-9 -45 -9 -113v-41zM504 1326q-130 0 -203 73q-76 76 -73 213h50q-3 -109 61 -173q61 -61 165 -61t165 61
q64 64 61 173h50q3 -137 -73 -213q-73 -73 -203 -73z" />
    <glyph glyph-name="Edotaccent" unicode="&#x116;" horiz-adv-x="1145" 
d="M573 1823q-27 0 -41 17q-17 14 -17 41q0 28 15 43t43 15q25 0 43 -15q15 -18 15 -43q0 -28 -15 -43t-43 -15zM88 0v1602h969v-56h-910v-653h651l-2 -61h-646v-771h907v-58z" />
    <glyph glyph-name="edotaccent" unicode="&#x117;" horiz-adv-x="1008" 
d="M506 -15q-250 0 -366 212q-27 49 -39 109q-12 59 -12 130l-1 277q0 131 48 231q47 99 143 157q95 56 228 56q254 0 362 -207q30 -59 41 -118q10 -54 10 -167v-58h-776v-168q0 -71 9 -114q9 -45 33 -91q49 -93 131 -139q83 -48 188 -48q103 0 186 47q81 46 131 138l46 -38
q-52 -102 -148 -155q-96 -54 -214 -54zM144 667h721v41q0 70 -9 114q-9 45 -33 91q-46 90 -130 139q-84 48 -188 48t-189 -47q-84 -47 -130 -140q-24 -48 -33 -92q-9 -45 -9 -113v-41zM504 1378q-27 0 -41 17q-17 14 -17 41q0 28 15 43t43 15q25 0 43 -15q15 -18 15 -43
q0 -28 -15 -43t-43 -15z" />
    <glyph glyph-name="Eogonek" unicode="&#x118;" horiz-adv-x="1145" 
d="M546 -452q-92 0 -147 46q-57 46 -57 136q0 57 28 106q29 51 76 86q40 37 127 80l-485 -2v1602h969v-56h-910v-653h651l-2 -61h-646v-771h907v-58l-377 -1l-2 -2q-1 -1 -2 -1t-1.5 -0.5t-1.5 -0.5l-71 -33q-62 -32 -98 -61q-47 -32 -77 -77q-31 -44 -31 -97q0 -64 42 -99
q42 -33 108 -33q103 0 159 50l24 -48q-54 -34 -87 -43q-32 -9 -96 -9z" />
    <glyph glyph-name="eogonek" unicode="&#x119;" horiz-adv-x="1008" 
d="M487 -452q-92 0 -147 46q-57 46 -57 136q0 57 28 106q29 51 76 86q34 31 95 63q-232 10 -342 212q-27 49 -39 109q-12 59 -12 130l-1 277q0 131 48 231q47 99 143 157q95 56 228 56q254 0 362 -207q30 -59 41 -118q10 -54 10 -167v-58h-776v-168q0 -71 9 -114
q9 -45 33 -91q49 -93 131 -139q83 -48 188 -48q103 0 186 47q81 46 131 138l46 -38q-40 -77 -105 -127q-68 -51 -151 -70q-16 -7 -32.5 -15t-25 -12t-11.5 -5q-62 -32 -98 -61q-47 -32 -77 -77q-31 -44 -31 -97q0 -64 42 -99q42 -33 108 -33q103 0 159 50l24 -48
q-56 -34 -88 -43t-95 -9zM144 667h721v41q0 70 -9 114q-9 45 -33 91q-46 90 -130 139q-84 48 -188 48t-189 -47q-84 -47 -130 -140q-24 -48 -33 -92q-9 -45 -9 -113v-41z" />
    <glyph glyph-name="Ecaron" unicode="&#x11a;" horiz-adv-x="1145" 
d="M549 1771l-253 334h63l215 -278l215 278h61l-251 -334h-50zM88 0v1602h969v-56h-910v-653h651l-2 -61h-646v-771h907v-58z" />
    <glyph glyph-name="ecaron" unicode="&#x11b;" horiz-adv-x="1008" 
d="M506 -15q-250 0 -366 212q-27 49 -39 109q-12 59 -12 130l-1 277q0 131 48 231q47 99 143 157q95 56 228 56q254 0 362 -207q30 -59 41 -118q10 -54 10 -167v-58h-776v-168q0 -71 9 -114q9 -45 33 -91q49 -93 131 -139q83 -48 188 -48q103 0 186 47q81 46 131 138l46 -38
q-52 -102 -148 -155q-96 -54 -214 -54zM144 667h721v41q0 70 -9 114q-9 45 -33 91q-46 90 -130 139q-84 48 -188 48t-189 -47q-84 -47 -130 -140q-24 -48 -33 -92q-9 -45 -9 -113v-41zM480 1326l-253 334h63l215 -278l215 278h61l-251 -334h-50z" />
    <glyph glyph-name="Gcircumflex" unicode="&#x11c;" horiz-adv-x="1254" 
d="M661 -22q-185 0 -315 98q-128 96 -194 259q-64 159 -64 346v240q0 209 70 367q72 160 202 248q128 88 301 88q174 0 304 -88q131 -89 201 -248l-47 -32q-64 150 -180 229q-118 79 -278 79q-172 0 -288 -89q-117 -90 -172 -234q-56 -147 -56 -318v-242q0 -167 56 -314
q55 -147 172 -238q116 -92 289 -92q156 0 268 75q113 74 179 216v490h-448v53h501v-567q-73 -155 -201 -241q-128 -85 -299 -85h-1zM320 1771l253 334h50l251 -334h-61l-215 278l-215 -278h-63z" />
    <glyph glyph-name="gcircumflex" unicode="&#x11d;" horiz-adv-x="1018" 
d="M514 -454q-95 0 -179 35q-83 35 -140 102q-57 66 -82 163l51 25q33 -123 126 -194q92 -70 223 -70q114 0 191 50q64 43 102 96q37 53 50 116q13 62 13 148v159q-125 -194 -363 -194q-122 0 -216 54q-96 52 -150 158q-54 101 -51 239l-1 277q-2 128 48 230t144 160t226 58
q239 0 363 -193l1 192h58l2 -1140q0 -143 -47 -248q-49 -106 -148 -166q-99 -57 -221 -57zM506 44q152 0 247 89t116 242v390q-21 153 -114 243q-95 89 -249 89q-106 0 -189 -47q-83 -48 -131 -140q-24 -48 -33 -92q-9 -45 -9 -113v-269q0 -70 9 -113q9 -44 33 -92
q49 -93 131 -139q83 -48 189 -48zM202 1326l253 334h50l251 -334h-61l-215 278l-215 -278h-63z" />
    <glyph glyph-name="Gbreve" unicode="&#x11e;" horiz-adv-x="1254" 
d="M661 -22q-185 0 -315 98q-128 96 -194 259q-64 159 -64 346v240q0 209 70 367q72 160 202 248q128 88 301 88q174 0 304 -88q131 -89 201 -248l-47 -32q-64 150 -180 229q-118 79 -278 79q-172 0 -288 -89q-117 -90 -172 -234q-56 -147 -56 -318v-242q0 -167 56 -314
q55 -147 172 -238q116 -92 289 -92q156 0 268 75q113 74 179 216v490h-448v53h501v-567q-73 -155 -201 -241q-128 -85 -299 -85h-1zM627 1771q-130 0 -203 73q-76 76 -73 213h50q-3 -109 61 -173q61 -61 165 -61t165 61q64 64 61 173h50q3 -137 -73 -213q-73 -73 -203 -73z
" />
    <glyph glyph-name="gbreve" unicode="&#x11f;" horiz-adv-x="1018" 
d="M514 -454q-95 0 -179 35q-83 35 -140 102q-57 66 -82 163l51 25q33 -123 126 -194q92 -70 223 -70q114 0 191 50q64 43 102 96q37 53 50 116q13 62 13 148v159q-125 -194 -363 -194q-122 0 -216 54q-96 52 -150 158q-54 101 -51 239l-1 277q-2 128 48 230t144 160t226 58
q239 0 363 -193l1 192h58l2 -1140q0 -143 -47 -248q-49 -106 -148 -166q-99 -57 -221 -57zM506 44q152 0 247 89t116 242v390q-21 153 -114 243q-95 89 -249 89q-106 0 -189 -47q-83 -48 -131 -140q-24 -48 -33 -92q-9 -45 -9 -113v-269q0 -70 9 -113q9 -44 33 -92
q49 -93 131 -139q83 -48 189 -48zM509 1326q-130 0 -203 73q-76 76 -73 213h50q-3 -109 61 -173q61 -61 165 -61t165 61q64 64 61 173h50q3 -137 -73 -213q-73 -73 -203 -73z" />
    <glyph glyph-name="Gdotaccent" unicode="&#x120;" horiz-adv-x="1254" 
d="M661 -22q-185 0 -315 98q-128 96 -194 259q-64 159 -64 346v240q0 209 70 367q72 160 202 248q128 88 301 88q174 0 304 -88q131 -89 201 -248l-47 -32q-64 150 -180 229q-118 79 -278 79q-172 0 -288 -89q-117 -90 -172 -234q-56 -147 -56 -318v-242q0 -167 56 -314
q55 -147 172 -238q116 -92 289 -92q156 0 268 75q113 74 179 216v490h-448v53h501v-567q-73 -155 -201 -241q-128 -85 -299 -85h-1zM627 1823q-27 0 -41 17q-17 14 -17 41q0 28 15 43t43 15q25 0 43 -15q15 -18 15 -43q0 -28 -15 -43t-43 -15z" />
    <glyph glyph-name="gdotaccent" unicode="&#x121;" horiz-adv-x="1018" 
d="M514 -454q-95 0 -179 35q-83 35 -140 102q-57 66 -82 163l51 25q33 -123 126 -194q92 -70 223 -70q114 0 191 50q64 43 102 96q37 53 50 116q13 62 13 148v159q-125 -194 -363 -194q-122 0 -216 54q-96 52 -150 158q-54 101 -51 239l-1 277q-2 128 48 230t144 160t226 58
q239 0 363 -193l1 192h58l2 -1140q0 -143 -47 -248q-49 -106 -148 -166q-99 -57 -221 -57zM506 44q152 0 247 89t116 242v390q-21 153 -114 243q-95 89 -249 89q-106 0 -189 -47q-83 -48 -131 -140q-24 -48 -33 -92q-9 -45 -9 -113v-269q0 -70 9 -113q9 -44 33 -92
q49 -93 131 -139q83 -48 189 -48zM509 1378q-27 0 -41 17q-17 14 -17 41q0 28 15 43t43 15q25 0 43 -15q15 -18 15 -43q0 -28 -15 -43t-43 -15z" />
    <glyph glyph-name="Hcircumflex" unicode="&#x124;" horiz-adv-x="1147" 
d="M266 1771l253 334h50l251 -334h-61l-215 278l-215 -278h-63zM88 0v1602h59v-709h853v709h59v-1602h-61v832h-848v-832h-62z" />
    <glyph glyph-name="hcircumflex" unicode="&#x125;" 
d="M88 0v1599h55v-641q125 200 367 200q122 0 217 -53q94 -52 150 -158q54 -105 51 -237l-1 -710l-55 2v703q0 68 -9 113q-9 42 -32 92q-48 92 -131 140q-85 47 -190 47q-112 0 -194 -49q-82 -50 -126 -138q-44 -90 -47 -202v-708h-55zM201 1326l253 334h50l251 -334h-61
l-215 278l-215 -278h-63z" />
    <glyph glyph-name="Hbar" unicode="&#x126;" horiz-adv-x="1147" 
d="M247 1845v50h654v-50h-654zM88 0v1602h59v-709h853v709h59v-1602h-61v832h-848v-832h-62z" />
    <glyph glyph-name="hbar" unicode="&#x127;" 
d="M88 0v1599h55v-641q125 200 367 200q122 0 217 -53q94 -52 150 -158q54 -105 51 -237l-1 -710l-55 2v703q0 68 -9 113q-9 42 -32 92q-48 92 -131 140q-85 47 -190 47q-112 0 -194 -49q-82 -50 -126 -138q-44 -90 -47 -202v-708h-55zM181 1400v50h654v-50h-654z" />
    <glyph glyph-name="Itilde" unicode="&#x128;" horiz-adv-x="238" 
d="M-164 1840l1 7q11 92 47 151q34 57 112 57q47 0 78 -20q27 -18 60 -58q2 -2 5.5 -6.5t5.5 -6.5q3 -5 12 -14q21 -24 39 -34q20 -12 45 -12q53 0 71 34q23 42 35 114l1 5h53l-1 -7q-11 -95 -47 -151q-33 -57 -112 -57q-45 0 -75 21q-29 18 -68 63q-9 9 -12 14
q-2 2 -5.5 6.5t-5.5 6.5q-18 21 -37 31q-16 9 -45 9q-53 0 -69 -34q-22 -41 -33 -114l-1 -5h-54zM85 0v1602h59l3 -1602h-62z" />
    <glyph glyph-name="itilde" unicode="&#x129;" horiz-adv-x="299" 
d="M-134 1392l1 7q11 92 47 151q35 57 112 57q47 0 78 -20q27 -18 60 -58q2 -2 5.5 -6.5t5.5 -6.5q3 -5 12 -14q21 -24 39 -34q20 -12 45 -12q53 0 71 34q23 42 35 114l1 5h53l-1 -7q-11 -95 -47 -151q-33 -57 -112 -57q-45 0 -75 21q-29 18 -68 63q-9 9 -12 14
q-2 2 -5.5 6.5t-5.5 6.5q-18 21 -37 31q-16 9 -45 9q-53 0 -69 -34q-22 -41 -33 -114l-1 -5h-54zM117 0v1156h59v-1156h-59z" />
    <glyph glyph-name="Imacron" unicode="&#x12a;" horiz-adv-x="238" 
d="M-208 1845v50h654v-50h-654zM88 0v1602h59l3 -1602h-62z" />
    <glyph glyph-name="imacron" unicode="&#x12b;" horiz-adv-x="299" 
d="M-178 1400v50h654v-50h-654zM120 0v1156h59v-1156h-59z" />
    <glyph glyph-name="Iogonek" unicode="&#x12e;" horiz-adv-x="238" 
d="M-3 -462q-92 0 -148 46q-56 47 -56 136q0 58 27 107q30 52 77 85q34 29 86 58q51 28 105 48v1584h59l3 -1598l1 -3q-77 -35 -98 -46q-57 -28 -98 -61q-48 -33 -78 -78t-30 -96q0 -64 42 -99q42 -33 108 -33q103 0 159 50l24 -48q-53 -33 -88 -43q-32 -9 -95 -9z" />
    <glyph glyph-name="iogonek" unicode="&#x12f;" horiz-adv-x="299" 
d="M24 -462q-92 0 -148 46q-56 47 -56 136q0 57 28 106q29 51 76 86q38 33 89 60q54 29 107 48v1136h59v-1156q-5 0 -42 -18q-39 -18 -57 -27q-62 -32 -98 -61q-48 -33 -78 -78t-30 -96q0 -64 42 -99q42 -33 108 -33q103 0 159 50l24 -48q-56 -34 -88 -43q-31 -9 -95 -9z
M176 0q1 0 1 1zM150 1478q-25 0 -43 19q-19 18 -19 43q0 26 19 44q18 18 43 18t43 -18t18 -44t-18 -44t-43 -18z" />
    <glyph glyph-name="Idotaccent" unicode="&#x130;" horiz-adv-x="238" 
d="M119 1823q-27 0 -41 17q-17 14 -17 41q0 28 15 43t43 15q25 0 43 -15q15 -18 15 -43q0 -28 -15 -43t-43 -15zM88 0v1602h59l3 -1602h-62z" />
    <glyph glyph-name="dotlessi" unicode="&#x131;" horiz-adv-x="299" 
d="M120 0v1156h59v-1156h-59z" />
    <glyph glyph-name="Nacute" unicode="&#x143;" horiz-adv-x="1148" 
d="M447 1771l199 344h62l-204 -344h-57zM89 0v1599l-1 3h61l850 -1472l2 1472h59v-1602h-61v4l-850 1473l2 -1477h-62z" />
    <glyph glyph-name="nacute" unicode="&#x144;" 
d="M88 0v1154h55v-196q125 200 367 200q122 0 217 -53q94 -52 150 -158q54 -105 51 -237l-1 -710l-55 2v703q0 68 -9 113q-9 42 -32 92q-48 92 -131 140q-85 47 -190 47q-112 0 -194 -49q-82 -50 -126 -138q-44 -90 -47 -202v-708h-55zM381 1326l199 344h62l-204 -344h-57z
" />
    <glyph glyph-name="Ncaron" unicode="&#x147;" horiz-adv-x="1148" 
d="M550 1771l-253 334h63l215 -278l215 278h61l-251 -334h-50zM89 0v1599l-1 3h61l850 -1472l2 1472h59v-1602h-61v4l-850 1473l2 -1477h-62z" />
    <glyph glyph-name="ncaron" unicode="&#x148;" 
d="M88 0v1154h55v-196q125 200 367 200q122 0 217 -53q94 -52 150 -158q54 -105 51 -237l-1 -710l-55 2v703q0 68 -9 113q-9 42 -32 92q-48 92 -131 140q-85 47 -190 47q-112 0 -194 -49q-82 -50 -126 -138q-44 -90 -47 -202v-708h-55zM484 1326l-253 334h63l215 -278
l215 278h61l-251 -334h-50z" />
    <glyph glyph-name="napostrophe" unicode="&#x149;" 
d="M88 0v1154h55v-196q125 200 367 200q122 0 217 -53q94 -52 150 -158q54 -105 51 -237l-1 -710l-55 2v703q0 68 -9 113q-9 42 -32 92q-48 92 -131 140q-85 47 -190 47q-112 0 -194 -49q-82 -50 -126 -138q-44 -90 -47 -202v-708h-55z" />
    <glyph glyph-name="Omacron" unicode="&#x14c;" horiz-adv-x="1323" 
d="M661 -22q-185 0 -315 98q-128 96 -194 259q-64 159 -64 346v240q0 209 70 367q72 160 202 248q128 88 301 88q189 0 319 -97q129 -97 192 -258t63 -349v-240q0 -204 -69 -366q-70 -160 -200 -248t-304 -88h-1zM662 37q174 0 290 89q116 88 171 234q55 144 55 320v242
q0 90 -15 177q-18 92 -44 157q-64 150 -180 229q-118 79 -278 79q-172 0 -288 -89q-117 -90 -172 -234q-56 -147 -56 -318v-242q0 -167 56 -314q55 -147 172 -238q116 -92 289 -92zM335 1845v50h654v-50h-654z" />
    <glyph glyph-name="omacron" unicode="&#x14d;" horiz-adv-x="1009" 
d="M506 -13q-261 0 -366 207q-54 101 -51 239v277h-1q-1 132 52 237q105 207 368 207q130 0 225 -57q92 -58 142 -159q48 -99 46 -228h-1v-277q3 -136 -51 -239q-103 -207 -363 -207zM505 44q104 0 188 48q84 49 130 139q24 48 33 92q9 43 9 113v269q0 68 -9 113
q-9 44 -33 92q-46 90 -130 139q-84 48 -188 48q-105 0 -188 -47q-83 -48 -131 -140q-24 -48 -33 -92q-9 -45 -9 -113v-269q0 -70 9 -113q9 -44 33 -92q49 -93 131 -139q83 -48 188 -48zM178 1400v50h654v-50h-654z" />
    <glyph glyph-name="Obreve" unicode="&#x14e;" horiz-adv-x="1323" 
d="M661 -22q-185 0 -315 98q-128 96 -194 259q-64 159 -64 346v240q0 209 70 367q72 160 202 248q128 88 301 88q189 0 319 -97q129 -97 192 -258t63 -349v-240q0 -204 -69 -366q-70 -160 -200 -248t-304 -88h-1zM662 37q174 0 290 89q116 88 171 234q55 144 55 320v242
q0 90 -15 177q-18 92 -44 157q-64 150 -180 229q-118 79 -278 79q-172 0 -288 -89q-117 -90 -172 -234q-56 -147 -56 -318v-242q0 -167 56 -314q55 -147 172 -238q116 -92 289 -92zM662 1771q-130 0 -203 73q-76 76 -73 213h50q-3 -109 61 -173q61 -61 165 -61t165 61
q64 64 61 173h50q3 -137 -73 -213q-73 -73 -203 -73z" />
    <glyph glyph-name="obreve" unicode="&#x14f;" horiz-adv-x="1009" 
d="M506 -13q-261 0 -366 207q-54 101 -51 239v277h-1q-1 132 52 237q105 207 368 207q130 0 225 -57q92 -58 142 -159q48 -99 46 -228h-1v-277q3 -136 -51 -239q-103 -207 -363 -207zM505 44q104 0 188 48q84 49 130 139q24 48 33 92q9 43 9 113v269q0 68 -9 113
q-9 44 -33 92q-46 90 -130 139q-84 48 -188 48q-105 0 -188 -47q-83 -48 -131 -140q-24 -48 -33 -92q-9 -45 -9 -113v-269q0 -70 9 -113q9 -44 33 -92q49 -93 131 -139q83 -48 188 -48zM505 1326q-130 0 -203 73q-76 76 -73 213h50q-3 -109 61 -173q61 -61 165 -61t165 61
q64 64 61 173h50q3 -137 -73 -213q-73 -73 -203 -73z" />
    <glyph glyph-name="Ohungarumlaut" unicode="&#x150;" horiz-adv-x="1323" 
d="M661 -22q-185 0 -315 98q-128 96 -194 259q-64 159 -64 346v240q0 209 70 367q72 160 202 248q128 88 301 88q189 0 319 -97q129 -97 192 -258t63 -349v-240q0 -204 -69 -366q-70 -160 -200 -248t-304 -88h-1zM662 37q174 0 290 89q116 88 171 234q55 144 55 320v242
q0 90 -15 177q-18 92 -44 157q-64 150 -180 229q-118 79 -278 79q-172 0 -288 -89q-117 -90 -172 -234q-56 -147 -56 -318v-242q0 -167 56 -314q55 -147 172 -238q116 -92 289 -92zM370 1788l199 344h62l-204 -344h-57zM658 1788l199 344h62l-204 -344h-57z" />
    <glyph glyph-name="ohungarumlaut" unicode="&#x151;" horiz-adv-x="1009" 
d="M506 -13q-261 0 -366 207q-54 101 -51 239v277h-1q-1 132 52 237q105 207 368 207q130 0 225 -57q92 -58 142 -159q48 -99 46 -228h-1v-277q3 -136 -51 -239q-103 -207 -363 -207zM505 44q104 0 188 48q84 49 130 139q24 48 33 92q9 43 9 113v269q0 68 -9 113
q-9 44 -33 92q-46 90 -130 139q-84 48 -188 48q-105 0 -188 -47q-83 -48 -131 -140q-24 -48 -33 -92q-9 -45 -9 -113v-269q0 -70 9 -113q9 -44 33 -92q49 -93 131 -139q83 -48 188 -48zM213 1343l199 344h62l-204 -344h-57zM501 1343l199 344h62l-204 -344h-57z" />
    <glyph glyph-name="OE" unicode="&#x152;" horiz-adv-x="2218" 
d="M661 -22q-185 0 -315 98q-128 96 -194 259q-64 159 -64 346v240q0 209 70 367q72 160 202 248q128 88 301 88q181 0 312 -93q129 -92 200 -263v334h969v-56h-910v-542q3 -40 3 -84v-27h648l-2 -61h-646v-771h907v-58l-969 -3v331q-68 -167 -200 -260q-133 -93 -311 -93
h-1zM662 37q160 0 279 82q200 137 232 460v443q-13 130 -54 234q-64 150 -180 229q-118 79 -278 79q-172 0 -288 -89q-117 -90 -172 -234q-56 -147 -56 -318v-242q0 -167 56 -314q55 -147 172 -238q116 -92 289 -92z" />
    <glyph glyph-name="oe" unicode="&#x153;" horiz-adv-x="1752" 
d="M1283 -16q-137 0 -241 69t-149 197q-47 -132 -145 -197q-100 -66 -242 -66q-261 0 -366 207q-54 101 -51 239v277h-1q-1 132 52 237q105 207 368 207q139 0 239 -65q100 -67 146 -196q47 132 147 198t244 66q124 0 215 -51t147 -156q30 -59 41 -118q10 -54 10 -167v-58
h-776v-168q0 -71 9 -114q9 -45 33 -91q48 -93 131 -140t188 -47q103 0 186 47q81 46 131 138l46 -38q-52 -103 -148 -156q-96 -54 -214 -54zM505 44q104 0 188 48q84 49 130 139q24 48 33 92q9 43 9 113v269q0 68 -9 113q-9 44 -33 92q-46 90 -130 139q-84 48 -188 48
q-105 0 -188 -47q-83 -48 -131 -140q-24 -48 -33 -92q-9 -45 -9 -113v-269q0 -70 9 -113q9 -44 33 -92q49 -93 131 -139q83 -48 188 -48zM921 667h721v41q0 70 -9 114q-9 45 -33 91q-46 90 -130 139q-84 48 -188 48q-105 0 -189 -48t-130 -139q-24 -48 -33 -92
q-9 -45 -9 -113v-41z" />
    <glyph glyph-name="Rcaron" unicode="&#x158;" horiz-adv-x="1254" 
d="M606 1771l-253 334h63l215 -278l215 278h61l-251 -334h-50zM905 870q-63 -21 -131 -30l386 -840h-63l-387 834q-40 -2 -61 -2h-500l1 -832h-62v1602h561q138 0 253 -37q117 -38 190 -123q74 -86 74 -225t-72 -224q-74 -85 -189 -123zM649 888q159 0 258 40q95 39 148 113
q52 73 52 176q0 95 -49 171q-56 90 -167 124q-109 34 -242 34h-502l2 -658h500z" />
    <glyph glyph-name="rcaron" unicode="&#x159;" horiz-adv-x="818" 
d="M88 0v1154h55v-196q125 200 367 200q129 0 220 -55l-26 -56q-80 50 -194 50q-112 0 -194 -49q-82 -50 -126 -138q-44 -90 -47 -202v-708h-55zM385 1326l-253 334h63l215 -278l215 278h61l-251 -334h-50z" />
    <glyph glyph-name="Sacute" unicode="&#x15a;" horiz-adv-x="1197" 
d="M602 -22q-125 0 -227 40q-104 39 -178 119q-74 79 -109 197l54 31l1 -1q16 -83 64 -146q48 -65 122 -110q60 -37 129 -52q65 -16 147 -16q107 0 204 36q99 36 161 112q62 77 62 188q0 80 -33 143q-43 89 -156 150q-116 63 -253 109q-150 49 -275 119q-105 58 -159 146
q-55 87 -48 214q6 125 76 210q69 85 178 127q111 41 233 41t227 -40t182 -120q76 -81 105 -198l-53 -30l-1 2q-25 106 -92 180q-68 73 -161 108q-94 36 -204 36q-118 0 -207 -34q-103 -41 -164 -118q-62 -79 -62 -184q0 -79 33 -144q42 -82 164 -153q125 -73 245 -113
q97 -31 162 -57t114 -54q101 -57 158 -146q53 -81 48 -215q-4 -123 -74 -209q-71 -86 -179 -126q-110 -42 -234 -42zM471 1771l199 344h62l-204 -344h-57z" />
    <glyph glyph-name="sacute" unicode="&#x15b;" horiz-adv-x="1066" 
d="M535 -22q-135 0 -236 43q-104 44 -177 142q-22 32 -34 76l50 24q16 -78 79 -130q61 -52 145 -75q83 -24 166 -24q218 0 328 101q53 58 53 126q0 54 -29 101q-40 60 -139 103q-97 41 -216 73q-147 42 -239 85q-83 39 -139 105q-41 61 -41 132q0 108 69 172
q115 121 360 121q143 0 260 -56q66 -31 118 -85q52 -56 65 -121l-47 -23q-34 117 -145 173q-110 55 -249 55q-103 0 -181 -22q-83 -23 -144 -80q-27 -30 -41 -61q-13 -29 -13 -64q0 -53 29 -100q11 -19 43 -44q23 -18 75 -50q107 -53 237 -89q77 -21 144 -41q48 -16 96 -38
q82 -37 138 -104q41 -53 41 -133q0 -53 -17 -98q-17 -44 -51 -74q-120 -120 -358 -120zM406 1326l199 344h62l-204 -344h-57z" />
    <glyph glyph-name="Scircumflex" unicode="&#x15c;" horiz-adv-x="1197" 
d="M602 -22q-125 0 -227 40q-104 39 -178 119q-74 79 -109 197l54 31l1 -1q16 -83 64 -146q48 -65 122 -110q60 -37 129 -52q65 -16 147 -16q107 0 204 36q99 36 161 112q62 77 62 188q0 80 -33 143q-43 89 -156 150q-116 63 -253 109q-150 49 -275 119q-105 58 -159 146
q-55 87 -48 214q6 125 76 210q69 85 178 127q111 41 233 41t227 -40t182 -120q76 -81 105 -198l-53 -30l-1 2q-25 106 -92 180q-68 73 -161 108q-94 36 -204 36q-118 0 -207 -34q-103 -41 -164 -118q-62 -79 -62 -184q0 -79 33 -144q42 -82 164 -153q125 -73 245 -113
q97 -31 162 -57t114 -54q101 -57 158 -146q53 -81 48 -215q-4 -123 -74 -209q-71 -86 -179 -126q-110 -42 -234 -42zM291 1771l253 334h50l251 -334h-61l-215 278l-215 -278h-63z" />
    <glyph glyph-name="scircumflex" unicode="&#x15d;" horiz-adv-x="1066" 
d="M535 -22q-135 0 -236 43q-104 44 -177 142q-22 32 -34 76l50 24q16 -78 79 -130q61 -52 145 -75q83 -24 166 -24q218 0 328 101q53 58 53 126q0 54 -29 101q-40 60 -139 103q-97 41 -216 73q-147 42 -239 85q-83 39 -139 105q-41 61 -41 132q0 108 69 172
q115 121 360 121q143 0 260 -56q66 -31 118 -85q52 -56 65 -121l-47 -23q-34 117 -145 173q-110 55 -249 55q-103 0 -181 -22q-83 -23 -144 -80q-27 -30 -41 -61q-13 -29 -13 -64q0 -53 29 -100q11 -19 43 -44q23 -18 75 -50q107 -53 237 -89q77 -21 144 -41q48 -16 96 -38
q82 -37 138 -104q41 -53 41 -133q0 -53 -17 -98q-17 -44 -51 -74q-120 -120 -358 -120zM226 1326l253 334h50l251 -334h-61l-215 278l-215 -278h-63z" />
    <glyph glyph-name="Scedilla" unicode="&#x15e;" horiz-adv-x="1197" 
d="M606 -459q-76 0 -126 22q-51 23 -92 80l30 43q67 -97 188 -97q66 0 110 38q42 39 42 106q0 65 -46 120q-46 57 -111 93q-12 8 -44 25l-10 5q-6 4 -9 5q-168 15 -286 106q-119 92 -164 247l54 31l1 -1q16 -83 64 -146q48 -65 122 -110q60 -37 129 -52q65 -16 147 -16
q107 0 204 36q99 36 161 112q62 77 62 188q0 80 -33 143q-43 89 -156 150q-116 63 -253 109q-150 49 -275 119q-105 58 -159 146q-55 87 -48 214q6 125 76 210q69 85 178 127q111 41 233 41t227 -40t182 -120q76 -81 105 -198l-53 -30l-1 2q-25 106 -92 180q-68 73 -161 108
q-94 36 -204 36q-118 0 -207 -34q-103 -41 -164 -118q-62 -79 -62 -184q0 -79 33 -144q42 -82 164 -153q125 -73 245 -113q97 -31 162 -57t114 -54q101 -57 158 -146q53 -81 48 -215q-5 -121 -68 -202q-64 -82 -167 -126q-102 -44 -221 -49q177 -88 177 -243q0 -90 -56 -143
q-55 -51 -148 -51z" />
    <glyph glyph-name="scedilla" unicode="&#x15f;" horiz-adv-x="1066" 
d="M540 -466q-76 0 -126 22q-51 23 -92 80l30 43q67 -97 188 -97q66 0 110 38q42 39 42 106q0 65 -46 120q-46 57 -111 93q-12 8 -44 25l-10 5q-6 4 -9 5l-2 1l-5 2.5t-6 3.5q-111 12 -192 55q-82 42 -145 126q-22 32 -34 76l50 24q16 -78 79 -130q61 -52 145 -75
q83 -24 166 -24q218 0 328 101q53 58 53 126q0 54 -29 101q-40 60 -139 103q-97 41 -216 73q-147 42 -239 85q-83 39 -139 105q-41 61 -41 132q0 107 69 172q115 121 360 121q143 0 260 -56q66 -31 118 -85q52 -56 65 -121l-47 -23q-34 117 -145 173q-110 55 -249 55
q-103 0 -181 -22q-83 -23 -144 -80q-27 -30 -41 -61q-13 -29 -13 -64q0 -53 29 -100q11 -19 43 -44q23 -18 75 -50q107 -53 237 -89q77 -21 144 -41q48 -16 96 -38q82 -37 138 -104q41 -53 41 -133q0 -53 -17 -98q-17 -44 -51 -74q-114 -114 -337 -119l37 -21
q69 -37 110 -97q41 -59 41 -132q0 -90 -56 -143q-56 -51 -148 -51z" />
    <glyph glyph-name="Scaron" unicode="&#x160;" horiz-adv-x="1197" 
d="M602 -22q-125 0 -227 40q-104 39 -178 119q-74 79 -109 197l54 31l1 -1q16 -83 64 -146q48 -65 122 -110q60 -37 129 -52q65 -16 147 -16q107 0 204 36q99 36 161 112q62 77 62 188q0 80 -33 143q-43 89 -156 150q-116 63 -253 109q-150 49 -275 119q-105 58 -159 146
q-55 87 -48 214q6 125 76 210q69 85 178 127q111 41 233 41t227 -40t182 -120q76 -81 105 -198l-53 -30l-1 2q-25 106 -92 180q-68 73 -161 108q-94 36 -204 36q-118 0 -207 -34q-103 -41 -164 -118q-62 -79 -62 -184q0 -79 33 -144q42 -82 164 -153q125 -73 245 -113
q97 -31 162 -57t114 -54q101 -57 158 -146q53 -81 48 -215q-4 -123 -74 -209q-71 -86 -179 -126q-110 -42 -234 -42zM575 1771l-253 334h63l215 -278l215 278h61l-251 -334h-50z" />
    <glyph glyph-name="scaron" unicode="&#x161;" horiz-adv-x="1066" 
d="M535 -22q-135 0 -236 43q-104 44 -177 142q-22 32 -34 76l50 24q16 -78 79 -130q61 -52 145 -75q83 -24 166 -24q218 0 328 101q53 58 53 126q0 54 -29 101q-40 60 -139 103q-97 41 -216 73q-147 42 -239 85q-83 39 -139 105q-41 61 -41 132q0 108 69 172
q115 121 360 121q143 0 260 -56q66 -31 118 -85q52 -56 65 -121l-47 -23q-34 117 -145 173q-110 55 -249 55q-103 0 -181 -22q-83 -23 -144 -80q-27 -30 -41 -61q-13 -29 -13 -64q0 -53 29 -100q11 -19 43 -44q23 -18 75 -50q107 -53 237 -89q77 -21 144 -41q48 -16 96 -38
q82 -37 138 -104q41 -53 41 -133q0 -53 -17 -98q-17 -44 -51 -74q-120 -120 -358 -120zM509 1326l-253 334h63l215 -278l215 278h61l-251 -334h-50z" />
    <glyph glyph-name="Tcaron" unicode="&#x164;" horiz-adv-x="1212" 
d="M582 1771l-253 334h63l215 -278l215 278h61l-251 -334h-50zM578 0v1542l-490 -1v61h1036v-61l-489 1v-1542h-57z" />
    <glyph glyph-name="tcaron" unicode="&#x165;" horiz-adv-x="1017" 
d="M481 -14q-96 0 -147 38q-54 38 -75 104q-21 68 -21 165l1 814h-151v60h151v435h58v-435h267v-60h-267l1 -814q0 -113 38 -181q37 -67 141 -67q2 0 26 2l20 1l25 -60q-50 -2 -67 -2zM791 1340l-51 37q38 4 72 35q32 27 52 71q19 39 19 79q0 3 -2 21q-15 -17 -38 -17
t-40 20q-16 16 -16 40q0 26 18 44q17 14 42 14q50 0 68 -38q14 -36 14 -72q0 -72 -37 -136q-36 -63 -101 -98z" />
    <glyph glyph-name="Utilde" unicode="&#x168;" horiz-adv-x="1323" 
d="M661 -22q-185 0 -315 98q-128 96 -194 259q-64 159 -64 346v921h57v-921q0 -167 56 -314q55 -147 172 -238q116 -92 289 -92q174 0 290 89q116 88 171 234q55 144 55 320v922h57v-922q0 -204 -69 -366q-70 -160 -200 -248t-304 -88h-1zM383 1840l1 7q11 92 47 151
q34 57 112 57q47 0 78 -20q27 -18 60 -58q2 -2 5.5 -6.5t5.5 -6.5q3 -5 12 -14q21 -24 39 -34q19 -12 45 -12q53 0 71 34q23 42 35 114l1 5h53l-1 -7q-11 -95 -47 -151q-33 -57 -112 -57q-45 0 -75 21q-29 18 -68 63q-9 9 -12 14q-2 2 -5.5 6.5t-5.5 6.5q-18 21 -37 31
q-17 9 -45 9q-53 0 -69 -34q-23 -41 -33 -114l-1 -5h-54z" />
    <glyph glyph-name="utilde" unicode="&#x169;" 
d="M506 -16q-128 0 -223 57q-96 58 -145 159q-50 103 -50 233l1 724l55 -2v-717q0 -70 9 -114q9 -45 33 -91q48 -93 131 -140t189 -47q109 0 194 50q83 50 128 138q45 89 45 200v723h55v-1157h-55v185q-62 -101 -154 -151q-94 -50 -213 -50zM229 1392l1 7q11 92 47 151
q35 57 112 57q47 0 78 -20q27 -18 60 -58q2 -2 5.5 -6.5t5.5 -6.5q3 -5 12 -14q21 -24 39 -34q19 -12 45 -12q53 0 71 34q23 42 35 114l1 5h53l-1 -7q-11 -95 -47 -151q-33 -57 -112 -57q-45 0 -75 21q-29 18 -68 63q-9 9 -12 14q-2 2 -5.5 6.5t-5.5 6.5q-18 21 -37 31
q-17 9 -45 9q-53 0 -69 -34q-23 -41 -33 -114l-1 -5h-54z" />
    <glyph glyph-name="Umacron" unicode="&#x16a;" horiz-adv-x="1323" 
d="M661 -22q-185 0 -315 98q-128 96 -194 259q-64 159 -64 346v921h57v-921q0 -167 56 -314q55 -147 172 -238q116 -92 289 -92q174 0 290 89q116 88 171 234q55 144 55 320v922h57v-922q0 -204 -69 -366q-70 -160 -200 -248t-304 -88h-1zM335 1845v50h654v-50h-654z" />
    <glyph glyph-name="umacron" unicode="&#x16b;" 
d="M506 -16q-128 0 -223 57q-96 58 -145 159q-50 103 -50 233l1 724l55 -2v-717q0 -70 9 -114q9 -45 33 -91q48 -93 131 -140t189 -47q109 0 194 50q83 50 128 138q45 89 45 200v723h55v-1157h-55v185q-62 -101 -154 -151q-94 -50 -213 -50zM181 1400v50h654v-50h-654z" />
    <glyph glyph-name="Ubreve" unicode="&#x16c;" horiz-adv-x="1323" 
d="M661 -22q-185 0 -315 98q-128 96 -194 259q-64 159 -64 346v921h57v-921q0 -167 56 -314q55 -147 172 -238q116 -92 289 -92q174 0 290 89q116 88 171 234q55 144 55 320v922h57v-922q0 -204 -69 -366q-70 -160 -200 -248t-304 -88h-1zM662 1771q-130 0 -203 73
q-76 76 -73 213h50q-3 -109 61 -173q61 -61 165 -61t165 61q64 64 61 173h50q3 -137 -73 -213q-73 -73 -203 -73z" />
    <glyph glyph-name="ubreve" unicode="&#x16d;" 
d="M506 -16q-128 0 -223 57q-96 58 -145 159q-50 103 -50 233l1 724l55 -2v-717q0 -70 9 -114q9 -45 33 -91q48 -93 131 -140t189 -47q109 0 194 50q83 50 128 138q45 89 45 200v723h55v-1157h-55v185q-62 -101 -154 -151q-94 -50 -213 -50zM508 1326q-130 0 -203 73
q-76 76 -73 213h50q-3 -109 61 -173q61 -61 165 -61t165 61q64 64 61 173h50q3 -137 -73 -213q-73 -73 -203 -73z" />
    <glyph glyph-name="Uring" unicode="&#x16e;" horiz-adv-x="1323" 
d="M661 -22q-185 0 -315 98q-128 96 -194 259q-64 159 -64 346v921h57v-921q0 -167 56 -314q55 -147 172 -238q116 -92 289 -92q174 0 290 89q116 88 171 234q55 144 55 320v922h57v-922q0 -204 -69 -366q-70 -160 -200 -248t-304 -88h-1zM662 1788q-52 0 -96 24t-69 67
q-25 41 -25 95q0 53 25 96q25 42 69 66t96 24q86 0 138 -51t52 -135t-52 -135t-138 -51zM662 1838q60 0 98 38t38 98q0 59 -38 97q-38 37 -98 37q-59 0 -96 -37q-38 -38 -38 -97q0 -57 38 -97q38 -39 96 -39z" />
    <glyph glyph-name="uring" unicode="&#x16f;" 
d="M506 -16q-128 0 -223 57q-96 58 -145 159q-50 103 -50 233l1 724l55 -2v-717q0 -70 9 -114q9 -45 33 -91q48 -93 131 -140t189 -47q109 0 194 50q83 50 128 138q45 89 45 200v723h55v-1157h-55v185q-62 -101 -154 -151q-94 -50 -213 -50zM508 1343q-52 0 -96 24t-69 67
q-25 41 -25 95q0 53 25 96q25 42 69 66t96 24q86 0 138 -51t52 -135t-52 -135t-138 -51zM508 1393q60 0 98 38t38 98q0 59 -38 97q-38 37 -98 37q-59 0 -96 -37q-38 -38 -38 -97q0 -57 38 -97q38 -39 96 -39z" />
    <glyph glyph-name="Uhungarumlaut" unicode="&#x170;" horiz-adv-x="1323" 
d="M661 -22q-185 0 -315 98q-128 96 -194 259q-64 159 -64 346v921h57v-921q0 -167 56 -314q55 -147 172 -238q116 -92 289 -92q174 0 290 89q116 88 171 234q55 144 55 320v922h57v-922q0 -204 -69 -366q-70 -160 -200 -248t-304 -88h-1zM370 1788l199 344h62l-204 -344
h-57zM658 1788l199 344h62l-204 -344h-57z" />
    <glyph glyph-name="uhungarumlaut" unicode="&#x171;" 
d="M506 -16q-128 0 -223 57q-96 58 -145 159q-50 103 -50 233l1 724l55 -2v-717q0 -70 9 -114q9 -45 33 -91q48 -93 131 -140t189 -47q109 0 194 50q83 50 128 138q45 89 45 200v723h55v-1157h-55v185q-62 -101 -154 -151q-94 -50 -213 -50zM217 1343l199 344h62l-204 -344
h-57zM505 1343l199 344h62l-204 -344h-57z" />
    <glyph glyph-name="Uogonek" unicode="&#x172;" horiz-adv-x="1323" 
d="M639 -469q-92 0 -147 46q-57 47 -57 136q0 57 28 106q29 51 76 86q44 40 115 73q-184 1 -312 101q-129 100 -191 259q-63 159 -63 343v921h57v-921q0 -167 56 -314q55 -147 172 -238q116 -92 289 -92q174 0 290 89q116 88 171 234q55 144 55 320v922h57v-922
q0 -162 -46 -304q-46 -144 -148 -249q-101 -104 -256 -137l-19 -9q-21 -10 -44 -20.5t-27 -12.5q-62 -32 -98 -61q-47 -32 -77 -77q-31 -44 -31 -97q0 -65 42 -99q42 -33 108 -33q103 0 159 50l24 -48q-54 -34 -87 -43q-31 -9 -96 -9z" />
    <glyph glyph-name="uogonek" unicode="&#x173;" 
d="M773 -463q-92 0 -147 46q-57 47 -57 136q0 58 28 107q30 52 76 85q72 63 200 108v166q-62 -101 -154 -151q-94 -50 -213 -50q-128 0 -223 57q-96 58 -145 159q-50 103 -50 233l1 724l55 -2v-717q0 -70 9 -114q9 -45 33 -91q48 -93 131 -140t189 -47q109 0 194 50
q83 50 128 138q45 89 45 200v723h55v-1157h-1q-6 -3 -27 -13t-44 -20.5t-27 -12.5q-57 -28 -98 -61q-47 -32 -77 -77q-31 -44 -31 -97q0 -65 42 -99q42 -33 108 -33q103 0 159 50l24 -48q-52 -31 -88 -43q-32 -9 -95 -9z" />
    <glyph glyph-name="Wcircumflex" unicode="&#x174;" horiz-adv-x="1771" 
d="M578 1771l253 334h50l251 -334h-61l-215 278l-215 -278h-63zM468 2l-380 1599h59l354 -1502l350 1502h66l355 -1502l353 1502h58l-381 -1599h-63l-353 1484l-354 -1484h-64z" />
    <glyph glyph-name="wcircumflex" unicode="&#x175;" horiz-adv-x="1709" 
d="M547 1326l253 334h50l251 -334h-61l-215 278l-215 -278h-63zM453 0l-365 1157h57l339 -1088l338 1088h64l341 -1088l338 1088h56l-366 -1157h-60l-340 1074l-340 -1074h-62z" />
    <glyph glyph-name="Ycircumflex" unicode="&#x176;" horiz-adv-x="1247" 
d="M316 1771l253 334h50l251 -334h-61l-215 278l-215 -278h-63zM594 0v813l-506 789h70l466 -743l461 743h74l-509 -790v-812h-56z" />
    <glyph glyph-name="ycircumflex" unicode="&#x177;" horiz-adv-x="1135" 
d="M167 -482q-33 0 -79 8v1l15 58h2q35 -7 65 -7q34 0 67 9q112 30 173 97q60 67 100 188l44 130l-431 1155h63l399 -1067l400 1067h62l-409 -1095l-71 -209q-52 -153 -151 -244q-98 -91 -249 -91zM260 1326l253 334h50l251 -334h-61l-215 278l-215 -278h-63z" />
    <glyph glyph-name="Ydieresis" unicode="&#x178;" horiz-adv-x="1247" 
d="M421 1803q-27 0 -41 17q-17 14 -17 41q0 28 15 43t43 15q25 0 43 -15q15 -18 15 -43q0 -28 -15 -43t-43 -15zM827 1803q-26 0 -43 17q-17 14 -17 41q0 26 17 43q18 15 43 15t43 -15q15 -18 15 -43q0 -28 -15 -43t-43 -15zM594 0v813l-506 789h70l466 -743l461 743h74
l-509 -790v-812h-56z" />
    <glyph glyph-name="Zacute" unicode="&#x179;" horiz-adv-x="1146" 
d="M446 1771l199 344h62l-204 -344h-57zM88 0l870 1544l-869 3v55h969l-870 -1541h870v-58z" />
    <glyph glyph-name="zacute" unicode="&#x17a;" horiz-adv-x="1099" 
d="M422 1326l199 344h62l-204 -344h-57zM88 0l2 1l811 1102h-812v52l922 2l-813 -1104h812v-51z" />
    <glyph glyph-name="Zdotaccent" unicode="&#x17b;" horiz-adv-x="1146" 
d="M573 1823q-27 0 -41 17q-17 14 -17 41q0 28 15 43t43 15q25 0 43 -15q15 -18 15 -43q0 -28 -15 -43t-43 -15zM88 0l870 1544l-869 3v55h969l-870 -1541h870v-58z" />
    <glyph glyph-name="zdotaccent" unicode="&#x17c;" horiz-adv-x="1099" 
d="M550 1378q-27 0 -41 17q-17 14 -17 41q0 28 15 43t43 15q25 0 43 -15q15 -18 15 -43q0 -28 -15 -43t-43 -15zM88 0l2 1l811 1102h-812v52l922 2l-813 -1104h812v-51z" />
    <glyph glyph-name="Zcaron" unicode="&#x17d;" horiz-adv-x="1146" 
d="M549 1771l-253 334h63l215 -278l215 278h61l-251 -334h-50zM88 0l870 1544l-869 3v55h969l-870 -1541h870v-58z" />
    <glyph glyph-name="zcaron" unicode="&#x17e;" horiz-adv-x="1099" 
d="M526 1326l-253 334h63l215 -278l215 278h61l-251 -334h-50zM88 0l2 1l811 1102h-812v52l922 2l-813 -1104h812v-51z" />
    <glyph glyph-name="florin" unicode="&#x192;" horiz-adv-x="1212" 
d="M240 -212q-46 0 -76 8q-31 10 -76 36l22 43q47 -35 130 -35q201 0 246 272l126 808h-346v50h354l64 416q22 146 90 235q68 87 204 87q66 0 108 -16q2 -2 7 -3l8 -4q15 -5 23 -12l-6 -49q-69 32 -124 32q-80 0 -142 -42q-63 -44 -84 -120q-21 -63 -28 -110l-64 -414h370
v-50h-378l-126 -812q-54 -320 -302 -320z" />
    <glyph glyph-name="circumflex" unicode="&#x2c6;" horiz-adv-x="548" 
d="M0 1326l253 334h50l251 -334h-61l-215 278l-215 -278h-63z" />
    <glyph glyph-name="caron" unicode="&#x2c7;" horiz-adv-x="550" 
d="M249 1326l-253 334h63l215 -278l215 278h61l-251 -334h-50z" />
    <glyph glyph-name="uni02C9" unicode="&#x2c9;" horiz-adv-x="684" 
d="M20 1722v50h654v-50h-654z" />
    <glyph glyph-name="breve" unicode="&#x2d8;" horiz-adv-x="582" 
d="M294 1326q-130 0 -203 73q-76 76 -73 213h50q-3 -109 61 -173q61 -61 165 -61t165 61q64 64 61 173h50q3 -137 -73 -213q-73 -73 -203 -73z" />
    <glyph glyph-name="dotaccent" unicode="&#x2d9;" horiz-adv-x="150" 
d="M76 1378q-27 0 -41 17q-17 14 -17 41q0 28 15 43t43 15q25 0 43 -15q15 -18 15 -43q0 -28 -15 -43t-43 -15z" />
    <glyph glyph-name="ring" unicode="&#x2da;" horiz-adv-x="438" 
d="M214 1343q-52 0 -96 24t-69 67q-25 41 -25 95q0 53 25 96q25 42 69 66t96 24q86 0 138 -51t52 -135t-52 -135t-138 -51zM214 1393q60 0 98 38t38 98q0 59 -38 97q-38 37 -98 37q-59 0 -96 -37q-38 -38 -38 -97q0 -57 38 -97q38 -39 96 -39z" />
    <glyph glyph-name="ogonek" unicode="&#x2db;" horiz-adv-x="412" 
d="M216 -469q-92 0 -147 46q-57 47 -57 136q0 57 28 106q29 51 76 86q35 31 89 60t107 48h54l4 -19q-6 -2 -27 -13q-21 -10 -44 -20.5t-27 -12.5q-57 -28 -98 -61q-47 -32 -77 -77q-31 -44 -31 -97q0 -65 42 -99q42 -33 108 -33q103 0 159 50l24 -48q-56 -34 -88 -43
q-31 -9 -95 -9z" />
    <glyph glyph-name="tilde" unicode="&#x2dc;" horiz-adv-x="585" 
d="M16 1392l1 7q11 92 47 151q34 57 112 57q47 0 78 -20q27 -18 60 -58q2 -2 5.5 -6.5t5.5 -6.5q3 -5 12 -14q21 -24 39 -34q20 -12 45 -12q53 0 71 34q23 42 35 114l1 5h53l-1 -7q-11 -95 -47 -151q-33 -57 -112 -57q-45 0 -75 21q-29 18 -68 63q-9 9 -12 14q-2 2 -5.5 6.5
t-5.5 6.5q-18 21 -37 31q-16 9 -45 9q-53 0 -69 -34q-22 -41 -33 -114l-1 -5h-54z" />
    <glyph glyph-name="hungarumlaut" unicode="&#x2dd;" horiz-adv-x="582" 
d="M11 1343l199 344h62l-204 -344h-57zM299 1343l199 344h62l-204 -344h-57z" />
    <glyph glyph-name="uni0326" unicode="&#x326;" horiz-adv-x="0" 
d="M-274 -374l117 374h61l-129 -374h-49z" />
    <glyph glyph-name="Wgrave" unicode="&#x1e80;" horiz-adv-x="1771" 
d="M961 1754l-206 344h64l197 -344h-55zM468 2l-380 1599h59l354 -1502l350 1502h66l355 -1502l353 1502h58l-381 -1599h-63l-353 1484l-354 -1484h-64z" />
    <glyph glyph-name="wgrave" unicode="&#x1e81;" horiz-adv-x="1709" 
d="M930 1309l-206 344h64l197 -344h-55zM453 0l-365 1157h57l339 -1088l338 1088h64l341 -1088l338 1088h56l-366 -1157h-60l-340 1074l-340 -1074h-62z" />
    <glyph glyph-name="Wacute" unicode="&#x1e82;" horiz-adv-x="1771" 
d="M758 1771l199 344h62l-204 -344h-57zM468 2l-380 1599h59l354 -1502l350 1502h66l355 -1502l353 1502h58l-381 -1599h-63l-353 1484l-354 -1484h-64z" />
    <glyph glyph-name="wacute" unicode="&#x1e83;" horiz-adv-x="1709" 
d="M727 1326l199 344h62l-204 -344h-57zM453 0l-365 1157h57l339 -1088l338 1088h64l341 -1088l338 1088h56l-366 -1157h-60l-340 1074l-340 -1074h-62z" />
    <glyph glyph-name="Wdieresis" unicode="&#x1e84;" horiz-adv-x="1771" 
d="M683 1803q-27 0 -41 17q-17 14 -17 41q0 28 15 43t43 15q25 0 43 -15q15 -18 15 -43q0 -28 -15 -43t-43 -15zM1089 1803q-26 0 -43 17q-17 14 -17 41q0 26 17 43q18 15 43 15t43 -15q15 -18 15 -43q0 -28 -15 -43t-43 -15zM468 2l-380 1599h59l354 -1502l350 1502h66
l355 -1502l353 1502h58l-381 -1599h-63l-353 1484l-354 -1484h-64z" />
    <glyph glyph-name="wdieresis" unicode="&#x1e85;" horiz-adv-x="1709" 
d="M652 1358q-27 0 -41 17q-17 14 -17 41q0 28 15 43t43 15q25 0 43 -15q15 -18 15 -43q0 -28 -15 -43t-43 -15zM1058 1358q-26 0 -43 17q-17 14 -17 41q0 26 17 43q18 15 43 15t43 -15q15 -18 15 -43q0 -28 -15 -43t-43 -15zM453 0l-365 1157h57l339 -1088l338 1088h64
l341 -1088l338 1088h56l-366 -1157h-60l-340 1074l-340 -1074h-62z" />
    <glyph glyph-name="endash" unicode="&#x2013;" horiz-adv-x="1236" 
d="M88 726v56h1060v-56h-1060z" />
    <glyph glyph-name="emdash" unicode="&#x2014;" horiz-adv-x="1962" 
d="M88 726v56h1786v-56h-1786z" />
    <glyph glyph-name="quoteleft" unicode="&#x2018;" horiz-adv-x="367" 
d="M172 1346q-41 0 -62 32q-22 28 -22 78q0 72 39 136q38 63 101 98l51 -37q-37 -6 -71 -35q-31 -27 -52 -70q-20 -42 -20 -78q0 -12 3 -22q13 16 37 16q25 0 41 -16q15 -16 15 -42q0 -25 -16 -41q-19 -19 -44 -19z" />
    <glyph glyph-name="quoteright" unicode="&#x2019;" horiz-adv-x="365" 
d="M139 1340l-51 37q38 4 72 35q32 27 52 71q19 39 19 79q0 3 -2 21q-15 -17 -38 -17t-40 20q-16 16 -16 40q0 26 18 44q17 14 42 14q50 0 68 -38q14 -36 14 -72q0 -72 -37 -136q-36 -63 -101 -98z" />
    <glyph glyph-name="quotesinglbase" unicode="&#x201a;" horiz-adv-x="363" 
d="M135 -248l-47 35q37 10 71 40q31 28 51 68q19 39 19 79q0 9 -4 21q-14 -17 -38 -17q-28 0 -40 20q-16 16 -16 40t20 44q17 14 42 14q42 0 62 -32q20 -34 20 -78q0 -75 -37 -137q-37 -61 -103 -97z" />
    <glyph glyph-name="quotedblleft" unicode="&#x201c;" horiz-adv-x="583" 
d="M388 1346q-41 0 -62 32q-22 28 -22 78q0 72 39 136q38 63 101 98l51 -37q-37 -6 -71 -35q-31 -27 -52 -70q-20 -42 -20 -78q0 -12 3 -22q13 16 37 16q25 0 41 -16q15 -16 15 -42q0 -25 -16 -41q-19 -19 -44 -19zM172 1346q-41 0 -62 32q-22 28 -22 78q0 72 39 136
q38 63 101 98l51 -37q-37 -6 -71 -35q-31 -27 -52 -70q-20 -42 -20 -78q0 -12 3 -22q13 16 37 16q25 0 41 -16q15 -16 15 -42q0 -25 -16 -41q-19 -19 -44 -19z" />
    <glyph glyph-name="quotedblright" unicode="&#x201d;" horiz-adv-x="581" 
d="M355 1340l-51 37q38 4 72 35q32 27 52 71q19 39 19 79q0 3 -2 21q-15 -17 -38 -17t-40 20q-16 16 -16 40q0 26 18 44q17 14 42 14q50 0 68 -38q14 -36 14 -72q0 -72 -37 -136q-36 -63 -101 -98zM139 1340l-51 37q38 4 72 35q32 27 52 71q19 39 19 79q0 3 -2 21
q-15 -17 -38 -17t-40 20q-16 16 -16 40q0 26 18 44q17 14 42 14q50 0 68 -38q14 -36 14 -72q0 -72 -37 -136q-36 -63 -101 -98z" />
    <glyph glyph-name="quotedblbase" unicode="&#x201e;" horiz-adv-x="579" 
d="M351 -88l-47 35q37 10 71 40q31 29 51 69q19 38 19 78q0 9 -4 21q-14 -17 -38 -17q-28 0 -40 20q-16 16 -16 40t20 44q17 14 42 14q42 0 62 -32q20 -34 20 -78q0 -75 -37 -137q-37 -61 -103 -97zM135 -88l-47 35q37 10 71 40q31 29 51 69q19 38 19 78q0 9 -4 21
q-14 -17 -38 -17q-28 0 -40 20q-16 16 -16 40t20 44q17 14 42 14q42 0 62 -32q20 -34 20 -78q0 -75 -37 -137q-37 -61 -103 -97z" />
    <glyph glyph-name="dagger" unicode="&#x2020;" horiz-adv-x="1100" 
d="M524 -150v1184h-436v48h436v460h54v-460h434v-48h-434v-1184h-54z" />
    <glyph glyph-name="daggerdbl" unicode="&#x2021;" horiz-adv-x="1100" 
d="M524 -150v460h-436v48h436v676h-436v48h436v460h54v-460h434v-48h-434v-676h434v-48h-434v-460h-54z" />
    <glyph glyph-name="bullet" unicode="&#x2022;" horiz-adv-x="460" 
d="M230 604q-63 0 -102 42q-40 37 -40 100t40 103q39 39 102 39q61 0 102 -38q40 -43 40 -104t-38 -102q-43 -40 -104 -40z" />
    <glyph glyph-name="ellipsis" unicode="&#x2026;" horiz-adv-x="1073" 
d="M924 -24q-25 0 -43 18q-19 19 -19 44q0 26 19 44q18 18 43 18t43 -18t18 -44t-18 -44t-43 -18zM150 -25q-25 0 -43 18q-19 19 -19 44q0 26 19 44q18 18 43 18t43 -18t18 -44t-18 -44t-43 -18zM534 -24q-25 0 -43 18q-19 19 -19 44q0 26 19 44q18 18 43 18t43 -18t18 -44
t-18 -44t-43 -18z" />
    <glyph glyph-name="perthousand" unicode="&#x2030;" horiz-adv-x="2464" 
d="M404 790q-82 0 -140 32q-92 42 -134 135q-42 91 -42 205q0 104 34 188q35 87 106 139q71 53 176 53q83 0 142 -32q94 -52 133 -139q39 -88 39 -209q0 -150 -74 -260q-42 -55 -98 -81q-55 -31 -142 -31zM404 840q87 0 146 44q58 43 85 116q27 74 27 162q0 97 -32 179
q-33 80 -108 125q-50 26 -118 26q-65 0 -120 -26q-49 -31 -80 -76q-29 -43 -44 -105q-16 -63 -16 -123q0 -97 34 -174q32 -78 108 -122q55 -26 118 -26zM1284 70q-83 0 -142 32q-94 50 -134 139q-42 88 -42 205q0 101 35 188q34 85 106 137q71 51 177 51q83 0 142 -32
q172 -90 172 -344q0 -79 -16 -139q-16 -61 -56 -121q-89 -116 -242 -116zM1284 120q130 0 198 102q33 42 46 101q14 62 14 123q0 86 -26 161q-26 72 -84 119q-58 46 -148 46q-65 0 -120 -26q-74 -43 -109 -124t-35 -176t35 -176t109 -124q55 -26 120 -26zM2062 70
q-83 0 -142 32q-94 50 -134 139q-42 88 -42 205q0 101 35 188q34 85 106 137q71 51 177 51q83 0 142 -32q172 -90 172 -344q0 -79 -16 -139q-16 -61 -56 -121q-89 -116 -242 -116zM2062 120q130 0 198 102q33 42 46 101q14 62 14 123q0 86 -26 161q-26 72 -84 119
q-58 46 -148 46q-63 0 -118 -26q-74 -43 -109 -123q-35 -82 -35 -177q0 -94 35 -175q34 -81 109 -125q55 -26 118 -26zM310 70l996 1472h66l-996 -1472h-66z" />
    <glyph glyph-name="guilsinglleft" unicode="&#x2039;" horiz-adv-x="570" 
d="M410 302l-322 442l322 440h72l-326 -440l326 -442h-72z" />
    <glyph glyph-name="guilsinglright" unicode="&#x203a;" horiz-adv-x="572" 
d="M88 302l328 442l-328 440h72l324 -440l-324 -442h-72z" />
    <glyph glyph-name="fraction" unicode="&#x2044;" horiz-adv-x="964" 
d="M138 131l-50 33l738 1278l50 -32z" />
    <glyph glyph-name="uni207B" unicode="&#x207b;" horiz-adv-x="746" 
d="M88 1226v52h570v-52h-570z" />
    <glyph glyph-name="uni207C" unicode="&#x207c;" horiz-adv-x="778" 
d="M88 1348v50h602v-50h-602zM88 1106v50h602v-50h-602z" />
    <glyph glyph-name="uni208B" unicode="&#x208b;" horiz-adv-x="746" 
d="M88 78v52h570v-52h-570z" />
    <glyph glyph-name="uni208C" unicode="&#x208c;" horiz-adv-x="778" 
d="M88 200v50h602v-50h-602zM88 -42v50h602v-50h-602z" />
    <glyph glyph-name="Euro" unicode="&#x20ac;" horiz-adv-x="1434" 
d="M860 48q-125 0 -230 44q-149 71 -232 209q-86 138 -108 315h-202v52h197q-4 52 -5 58q-4 43 -4 80q0 35 4 82q1 6 5 58h-197v52h202q21 164 91 290q69 127 190 202q122 74 287 74q179 0 297 -79q118 -80 173 -247l-42 -36q-102 312 -428 312q-148 0 -255 -67
q-108 -67 -171 -183q-63 -114 -86 -266h652l-36 -52h-622l-6 -58q-2 -34 -2 -82t2 -80l6 -58h570l-36 -52h-528q14 -95 54 -194q58 -153 178 -238q121 -86 282 -86q81 0 153 26q69 25 131 80q62 57 96 123q32 61 56 155l50 -24q-27 -119 -94 -211q-67 -93 -169 -146
q-101 -53 -223 -53z" />
    <glyph glyph-name="trademark" unicode="&#x2122;" horiz-adv-x="1502" 
d="M392 758v747h-238v49h522v-49h-236v-747h-48zM701 758v796h49l265 -729l269 729h46v-796h-49v647l-242 -647h-49l-240 645l1 -645h-50z" />
    <glyph glyph-name="uni2126" unicode="&#x2126;" horiz-adv-x="1522" 
d="M88 70v50h407q-201 104 -302 289q-103 185 -103 419q0 148 41 283q41 133 129 237q91 111 220 164q126 52 282 52q162 0 288 -54q196 -94 289 -271t93 -411q0 -238 -101 -420q-100 -183 -305 -288h408v-50h-532v46q240 89 358 271q118 181 118 441q0 194 -69 349
t-208 246t-339 91q-193 0 -333 -89q-138 -88 -211 -244q-72 -156 -72 -353q0 -257 119 -441q118 -183 355 -271v-46h-532z" />
    <glyph glyph-name="arrowleft" unicode="&#x2190;" horiz-adv-x="1668" 
d="M796 108q-82 111 -162 206q-258 286 -546 486v16q214 154 387 321q174 169 321 371l52 -34q-334 -432 -648 -641l194 3h1186v-56h-1186l-195 5q87 -62 159 -119q130 -109 251 -239q123 -134 239 -285z" />
    <glyph glyph-name="arrowup" unicode="&#x2191;" horiz-adv-x="1578" 
d="M762 70v1188l3 194q-47 -70 -117 -154q-106 -130 -237 -252q-119 -111 -289 -242l-34 50q198 143 376 326q171 174 316 382h18q146 -209 317 -383q174 -178 375 -325l-34 -50q-85 63 -184 150q-284 238 -459 498l3 -194v-1188h-54z" />
    <glyph glyph-name="arrowright" unicode="&#x2192;" horiz-adv-x="1668" 
d="M872 108l-52 34q170 212 321 369q150 155 327 274l-194 -5h-1186v56h1186l195 -3q-171 116 -332 280q-158 159 -317 361l52 34q282 -380 708 -692v-16q-412 -287 -708 -692z" />
    <glyph glyph-name="arrowdown" unicode="&#x2193;" horiz-adv-x="1578" 
d="M782 50q-149 214 -320 389q-181 184 -374 319l34 52q218 -174 372 -324q159 -156 271 -326l-3 196v1186h54v-1186l-3 -196q102 154 279 336q100 94 178 162q28 24 84 70q61 49 70 57l32 25l34 -52q-411 -302 -692 -708h-16z" />
    <glyph glyph-name="arrowboth" unicode="&#x2194;" horiz-adv-x="2168" 
d="M794 148q-289 402 -706 692v16q209 146 383 317q175 171 323 375l52 -34q-146 -193 -310 -359q-167 -169 -335 -279h1767q-317 212 -644 638l50 34q289 -399 706 -692v-16q-411 -287 -706 -692l-50 34q160 203 319 367q155 158 325 271h-1767q89 -59 163 -121
q79 -67 170 -155q149 -161 162 -176q62 -70 150 -186z" />
    <glyph glyph-name="arrowupdn" unicode="&#x2195;" horiz-adv-x="1578" 
d="M780 -190q-290 417 -692 706l34 52q116 -88 186 -150q88 -80 174 -162q170 -174 280 -335v1769q-116 -174 -275 -329q-164 -160 -365 -315l-34 50q200 146 375 324q173 176 317 382h18q147 -208 319 -383q178 -182 373 -323l-34 -50q-153 123 -251 210q-103 90 -204 200
q-102 111 -185 235v-1770q122 179 285 340q171 169 355 307l34 -52q-207 -152 -371 -320q-166 -173 -321 -386h-18z" />
    <glyph glyph-name="partialdiff" unicode="&#x2202;" horiz-adv-x="1184" 
d="M568 48q-138 0 -248 60q-108 59 -170 169t-62 251q0 137 59 244q59 106 165 168q106 60 246 60q161 0 288 -64q128 -65 192 -199l2 19v50q0 136 -18 262q-19 130 -69 226q-52 97 -151 160q-93 60 -256 60q-211 0 -308 -154l-42 38q127 166 350 166q176 0 282 -64
q111 -68 170 -179q60 -114 79 -237q19 -124 19 -278q0 -91 -8 -176q-16 -160 -75 -291t-170 -211q-112 -80 -275 -80zM566 98q111 0 202 44q123 68 186 199q63 130 78 293q-51 159 -176 238q-124 78 -300 78q-128 0 -232 -65q-105 -67 -148 -185q-32 -75 -32 -168t32 -168
q29 -80 87 -140q59 -62 138 -93q79 -33 165 -33z" />
    <glyph glyph-name="uni2206" unicode="&#x2206;" horiz-adv-x="1404" 
d="M88 70v42l584 1430h64l580 -1430v-42h-1228zM152 120h1100l-550 1360z" />
    <glyph glyph-name="product" unicode="&#x220f;" horiz-adv-x="1226" 
d="M88 -212v1754h1050v-1754h-56v1704h-940v-1704h-54z" />
    <glyph glyph-name="summation" unicode="&#x2211;" horiz-adv-x="1288" 
d="M88 -212v46l760 854l-760 810v44h1112v-50h-1032l748 -798v-12l-754 -842h1038v-52h-1112z" />
    <glyph glyph-name="minus" unicode="&#x2212;" horiz-adv-x="1186" 
d="M88 750v50h1010v-50h-1010z" />
    <glyph glyph-name="uni2215" unicode="&#x2215;" horiz-adv-x="1006" 
d="M88 -18l762 1626l68 16l-766 -1634z" />
    <glyph glyph-name="uni2219" unicode="&#x2219;" horiz-adv-x="294" 
d="M146 790q-27 0 -42 18q-16 16 -16 42q0 58 58 58q25 0 42 -14q18 -18 18 -44q0 -60 -60 -60z" />
    <glyph glyph-name="radical" unicode="&#x221a;" horiz-adv-x="1456" 
d="M612 70l-294 742h-230v50h268l264 -664l16 -54l674 1746h58l-706 -1820h-50z" />
    <glyph glyph-name="infinity" unicode="&#x221e;" horiz-adv-x="1838" 
d="M420 312q-108 0 -183 63t-112 163q-37 98 -37 206t36 208q34 98 110 164q74 64 186 64q43 0 82 -4q30 -4 66 -18q31 -16 60 -38q30 -25 60 -55q7 -9 17 -20t15 -17t8 -9l12 -13q70 -80 178 -215q18 21 22 27l58 69l31 37l23 28l27 31l15 17l12 13q11 12 38 43
q50 51 83 74q39 27 82 38q45 12 111 12q112 0 185 -63q74 -64 110 -163q35 -102 35 -210q0 -106 -35 -206q-36 -98 -110 -162t-185 -64q-48 0 -84 6q-36 3 -66 16q-29 15 -59 39q-33 26 -60 53q-26 26 -94 107q-71 83 -141 169q-142 -176 -228 -270l-17 -18l-9 -9
q-9 -9 -17.5 -16.5t-12.5 -10.5l-4 -4q-23 -20 -58 -37q-27 -16 -68 -19q-33 -6 -82 -6zM426 362q80 0 128 24q40 28 84 72l14 16q8 8 15 16l77 90l35 42l20 24l19 23l25 29q23 28 39 46q-62 76 -138 168l-42 48q-52 60 -76 86q-36 36 -74 60q-51 22 -126 22q-93 0 -157 -58
t-94 -146q-31 -87 -31 -180q0 -105 40 -200q40 -97 118 -146q50 -36 124 -36zM1418 362q127 0 210 128q34 58 50 122q16 63 16 132q0 137 -66 257q-38 58 -88 93q-55 34 -126 34q-73 0 -132 -32q-55 -30 -110 -94q-29 -26 -94 -102q-33 -37 -126 -152q188 -224 236 -276
q39 -43 69 -65q32 -24 68 -34q39 -11 93 -11zM915 779h1l-1 2v-2z" />
    <glyph glyph-name="integral" unicode="&#x222b;" horiz-adv-x="1014" 
d="M254 -212q-99 0 -166 52l22 42q63 -42 136 -42q124 0 181 60q57 62 57 186v1374q0 145 71 222q70 76 215 76q97 0 156 -44l-20 -48q-43 40 -136 40q-117 0 -174 -64q-58 -64 -58 -182v-1374q0 -147 -71 -223q-72 -75 -213 -75z" />
    <glyph glyph-name="approxequal" unicode="&#x2248;" horiz-adv-x="1128" 
d="M802 874q-55 0 -106 18t-126 54q-54 27 -118 52q-56 22 -120 22q-76 0 -122 -30q-63 -38 -122 -106v72q61 56 117 86q53 28 127 28q44 0 83 -10t85 -30l65 -30l11 -4q25 -13 68 -28q30 -14 58 -24q48 -20 102 -20q119 0 236 134v-72q-116 -112 -238 -112zM802 464
q-39 0 -78 11q-32 9 -82 31q-56 21 -72 28q-43 24 -72 34q-91 42 -166 42t-122 -32q-61 -38 -122 -102v70q61 61 112 85q53 29 132 29q54 0 110 -18q44 -16 60 -24q18 -10 32 -14l42 -18q72 -35 124 -54q55 -20 104 -20q119 0 236 138v-72q-114 -114 -238 -114z" />
    <glyph glyph-name="notequal" unicode="&#x2260;" horiz-adv-x="1142" 
d="M288 232l136 286h-336v52h362l190 398h-552v50h576l132 276h58l-128 -276h328v-50h-354l-190 -398h544v-52h-568l-136 -286h-62z" />
    <glyph glyph-name="lessequal" unicode="&#x2264;" horiz-adv-x="1178" 
d="M1090 310l-1002 560v54l1002 536v-62l-942 -502l942 -522v-64zM88 70v50h1002v-50h-1002z" />
    <glyph glyph-name="greaterequal" unicode="&#x2265;" horiz-adv-x="1178" 
d="M88 310v64l940 522l-940 502v62l1002 -536v-54zM88 70v50h1002v-50h-1002z" />
    <glyph glyph-name="uniF8FF" unicode="&#xf8ff;" horiz-adv-x="2420" 
d="M134 -594l-12 2l-24 102q0 2 10 2h12l14 -68l2 7q2 10 6 23q10 23 10 32l2 6h24l10 -34l8 -34q2 0 4 11q0 3 1.5 11t2.5 12t2.5 9t3 12t2.5 11q0 2 10 2q12 0 12 -2q-2 -9 -10 -42q-1 -6 -3.5 -17t-4.5 -16q-3 -11 -6 -23v-6h-24v6q-2 2 -5 13q0 1 -2.5 10.5t-4.5 14.5
l-8 32l-10 -30l-10 -46h-12zM292 -594q-2 2 -4 2q-1 5 -4 16q-2 6 -4.5 19.5t-3.5 15.5t-3.5 15.5t-4.5 19.5l-4 16q0 2 10 2h11q1 0 1 -2q2 -6 2 -10q4 -11 4 -22l8 -34l18 68h14h12q2 0 2 -2l10 -36l6 -34l16 70q0 2 10 2q12 0 12 -2q-2 -8 -2 -14q0 -1 -1.5 -7.5
t-2.5 -10.5q-1 -9 -6 -20l-14 -52h-10l-12 2l-10 38q-1 3 -2.5 8t-1.5 7q-1 3 -2 7l-2 4q0 4 -2 12q-2 -8 -2 -12q-2 -6 -3 -11q-2 -10 -5 -15l-10 -40h-20zM466 -594q-11 0 -12 4q-1 5 -4 16q-2 6 -4.5 19.5t-3.5 15.5t-3.5 15.5t-4.5 19.5l-4 16h22l6 -34l10 -34q1 4 3 11
t6 23t6 23l3 11h24l10 -34q6 -32 10 -36q0 2 2 10q-1 4 4 26l8 34h10q12 0 12 -2q-2 -8 -2 -14q0 -1 -1.5 -7.5t-2.5 -10.5q-1 -9 -6 -20l-14 -50l-10 -2h-12l-10 40q-1 5 -3.5 14.5t-3.5 12.5q-3 11 -3 9l-20 -74zM668 -592v102q0 2 7 2h29h36v-18h-50v-24h42v-18h-42v-22
l-2 -22h-20zM830 -596q-32 0 -42 28q-6 10 -6 26q0 17 4 28q4 10 12 16q6 5 18 10q6 2 18 2q36 0 46 -36q4 -20 0 -36q-4 -17 -18 -28q-13 -10 -32 -10zM832 -576q20 0 26 20q2 6 1 14q-1 7 -1 16q0 10 -12 18q-7 4 -12 4q-14 0 -24 -10q-3 -3 -5 -10q-1 -4 -1 -18
q0 -15 8 -26q8 -8 20 -8zM654 -98q40 0 66 24q27 25 28 66q2 26 -14 46q-12 15 -13 16q-14 14 -17 16q-17 10 -50 10q-23 0 -46 -10q-21 -13 -34 -32q-12 -23 -12 -46q0 -26 12 -46q12 -23 33 -34q20 -10 47 -10zM656 -60q-22 0 -35 16t-13 36q0 10 6 26q3 4 9 10q1 2 4 4
t5 4q12 6 24 6t24 -6q10 -6 16 -18q0 -3 4 -13q2 -6 2 -13q0 -10 -1 -13q-3 -10 -5 -13q-11 -14 -16 -18q-18 -8 -24 -8zM1162 -594q-2 2 -4 2q2 4 5 12q1 3 5 12.5t6 15.5q8 22 13 33q1 2 11 29q0 2 10 2h12l42 -104q-2 0 -4 -2h-6l-14 2l-8 24h-40l-10 -24l-10 -2h-8z
M1196 -550h26q0 2 -6 18q-4 7 -4 10l-2 6q-2 -3 -6 -8zM1340 -594q-17 0 -22 4q-12 4 -16 16l-4 8q0 1 -1 3t-1 3h2q1 1 3 1.5t4 0.5q10 2 11 2l2 -4q4 -16 22 -16q4 0 12 3t8 9q0 8 -5 11q-3 2 -21 7q-21 5 -26 10q-10 12 -6 28q4 15 24 20q0 2 16 2q17 -1 26 -10
q10 -6 10 -20v-4h-22v4q-5 14 -16 14q-2 0 -3 -1t-3 -1q-14 -6 -12 -14q0 -2 22 -8q21 -7 30 -16q7 -7 8 -18q0 -17 -10 -24q-8 -8 -15 -9q-5 -1 -17 -1zM1662 -594q-32 0 -48 34q-5 8 -3 19q2 14 3 19q6 26 32 34q3 0 6 1t8 1q20 0 32 -12q4 -4 7 -10t3 -8q-3 -1 -10 -4
l-8 -2q-3 0 -4 4q-6 14 -20 14t-20 -10q-7 -12 -8 -20q0 -9 1 -15q2 -10 5 -13q5 -14 20 -14q16 0 22 16l2 6l10 -2q10 -4 10 -5v-1q-1 -2 -1.5 -4t-0.5 -4q-14 -24 -38 -24zM1742 -594l-2 2q1 4 4 12q2 4 5 13.5t5 14.5q8 22 13 33q1 2 11 29q0 2 12 2h12l40 -104
q-2 0 -2 -2h-8l-12 2l-10 24h-40l-8 -24l-12 -2h-8zM1776 -550h28q0 2 -6 18q-4 7 -4 10l-2 6q-1 1 -4 -4q-1 -1 -2 -4zM1348 -96q20 0 38 6q8 4 15 6q6 1 11 12q0 2 1.5 6t2.5 7q2 10 2 15q0 7 -2 17q-1 3 -2 7l-2 4q-5 8 -11 12q-9 5 -11 6q-4 2 -12 3q-12 2 -18 5
q-12 6 -18 6q-4 0 -9 6q-5 7 -5 10q0 12 16 12q9 0 14 -1q10 -2 14 -5q8 -5 15 -7q11 -3 13 -5l18 36q-12 8 -34 14q-24 6 -36 6q-13 0 -34 -8q-2 -1 -4.5 -2.5t-5.5 -2.5t-4 -2q-5 -2 -10 -11q-8 -11 -8 -30q0 -3 2 -13q1 -6 6 -11q6 -7 8 -9q6 -4 10 -7q5 -4 14 -4t18 -4
q2 0 4 -1l4 -2q4 -1 8 -5l10 -6q6 -6 6 -8q0 -10 -8 -13t-16 -3q-10 0 -31 8q-18 7 -29 18l-18 -34q18 -15 38 -20q5 -1 19 -5q11 -3 21 -3zM1996 -594q-12 0 -25 7t-17 17q-14 32 0 60q8 10 13 14q8 7 17 8q2 2 16 2q8 0 17 -3q8 -3 13 -11q2 -2 8 -10q4 -6 2 -6
q-3 -3 -11 -4q-3 0 -7 -1q-3 -1 -4 -1q-1 1 -2 4q-2 12 -18 12t-21 -11q-5 -12 -5 -25q0 -12 5 -24q4 -10 21 -10q16 0 20 16q0 4 2 4v2l12 -4l6 -2v-4q0 -2 -2 -8q0 -2 -2 -4t-2 -4q-14 -14 -36 -14zM2132 -594q-24 0 -37 15q-13 14 -13 37q0 16 9 33t25 21q29 0 47 -7
q19 -7 19 -45q0 -23 -11 -39q-11 -15 -39 -15zM2132 -576q10 0 14 4q14 6 14 30q0 26 -14 34q-3 1 -5 3q-1 1 -7 1q-18 0 -23 -11q-5 -12 -5 -27t4 -24q4 -10 22 -10zM1750 -98q19 0 38 10q20 11 32 24l-26 24q-7 -5 -22 -12q-8 -6 -22 -6q-9 0 -22 8q-4 3 -10 7q-2 2 -8 11
q-4 7 -4 26q0 17 4 26q1 4 18 16q10 6 22 6q14 0 22 -6q16 -6 22 -16l24 30q-8 10 -13 14q-8 7 -15 8q-5 1 -20 5q-10 3 -20 3q-39 0 -65 -23q-25 -22 -25 -65q0 -29 10 -46q16 -24 34 -34q17 -10 46 -10zM2228 -594v106h32l8 -34l6 -24q1 -2 2.5 -5.5t1.5 -4.5l8 30
q10 29 10 36v2h34v-106h-22v80l-8 -36q-1 -6 -3.5 -14.5t-3.5 -12.5q-3 -10 -3 -13v-4h-12l-10 2l-8 38l-12 38v-76l-10 -2h-10zM426 202h254v442h886v236h-886v634h886v226h-1148v-1528q0 -2 2 -4q0 -6 6 -6zM88 -370v2408h2244v-2408h-2244zM852 202h1146v1538h-262v-430
h-884v-244h884v-626h-884v-238zM426 -92h44v60h76v34h-76v40h82v34h-126v-168zM770 -92h42v100l78 -100h40v168h-42v-100l-78 100h-40v-168zM1000 -92h44v134h50v34h-148v-34h54v-134zM1076 -92h46l12 28h74l12 -28h48l-72 168h-46zM1478 -92h44v134h52v34h-148v-34h52v-134
zM1592 -92h44v168h-44v-168zM1818 -92h48l10 28h78l8 -28h48l-72 168h-46zM1148 -30l24 62l22 -62h-46zM1890 -30l24 62l22 -62h-46zM928 -594v106h20l42 -68v68h20v-104l-10 -2h-10l-42 68v-68h-20zM1084 -594v88h-30v18h84v-18h-32v-88h-22zM1452 -594v88h-32v18h84v-18
h-30v-88h-22zM1546 -594v106h20v-106h-20zM598 -592v20h20v-20h-20zM1884 -592v20h20v-10l-2 -10h-18z" />
    <glyph glyph-name="R.001" horiz-adv-x="1143" 
d="M88 0v1602h450q138 0 253 -37q117 -38 190 -123q74 -86 74 -225q0 -169 -108 -262q-109 -95 -288 -117l385 -838h-63l-387 833q-13 -1 -56 -1h-389l1 -832h-62zM149 888h389q159 0 258 40q95 39 148 113q52 73 52 176q0 95 -49 171q-56 90 -167 124q-109 34 -242 34h-391
z" />
    <glyph glyph-name="space.tf" horiz-adv-x="840" 
 />
    <glyph glyph-name="NULL" horiz-adv-x="0" 
 />
    <glyph glyph-name="_FSHallmark" horiz-adv-x="1784" 
d="M1350 396q-92 0 -173 33q-83 33 -132 99q-51 65 -51 158l186 -4q0 -8 12 -32q3 -26 28 -48q18 -21 46 -32q32 -20 92 -20q28 0 53 5q20 4 51 17q34 22 34 52q0 58 -152 88q-67 20 -133 44q-54 18 -101 44q-44 20 -70 62q-26 38 -26 96q0 86 55 137q56 52 149 87
q5 0 13 1.5t23 4t26 4.5q39 4 70 4q85 0 160 -28t123 -87q47 -59 47 -143h-192q0 29 -14 46q-18 18 -36 32q-10 3 -20 10q-9 3 -11 4q-3 0 -8 2t-7 2l-24 6q-15 4 -22 4q-26 0 -55 -10q-30 -10 -51 -30q-22 -19 -22 -46t8 -48q6 -21 28 -30l15 -5q7 -5 21 -9q30 -13 46 -14
l130 -34l28 -6q15 -6 30 -6l24 -6q14 -4 20 -8l40 -18q36 -22 62 -52q18 -42 24 -88q1 -3 1 -13q0 -13 -5 -35q-3 -15 -16 -46q-45 -79 -131 -111q-87 -33 -193 -33zM844 400q-16 0 -32 10q-22 12 -30 20q-14 12 -26 30q-8 11 -8 34q0 39 30 66q26 26 66 26q38 0 78 -28
q32 -26 32 -64t-32 -70q-36 -24 -78 -24zM92 1294v190h1604v-190h-1604zM92 396v798h674v-180h-464v-182h388v-178h-388v-258h-210zM88 108v190h1606v-190h-1606z" />
    <glyph glyph-name="_Fontastica" horiz-adv-x="1394" 
d="M280 128q-29 0 -50 18q-22 16 -22 48q0 26 22 48q21 18 50 18q22 0 33 -7t25 -27q10 -16 10 -32q0 -29 -20 -46q-20 -20 -48 -20zM280 154q17 0 26 12q8 11 8 28q0 15 -10 26q-10 12 -24 12q-16 0 -26 -10q-10 -13 -10 -28q0 -17 10 -28q10 -12 26 -12zM798 128
q-34 0 -60 20l14 26q8 -8 22 -14t24 -6q16 0 16 12q0 2 -2 4q-2 0 -2 4q0 2 -2 2l-4 2q-3 0 -14 4t-14 4q-1 -1 -3 -1q-4 0 -11 7q-9 7 -10 10q-6 6 -6 20q0 21 18 30q14 8 34 8q26 0 52 -14l-14 -28q-14 14 -42 14q-4 0 -6 2q-1 1 -2 1q-2 -2 -2 -3l-2 -8q0 -2 2 -2v-4
q0 -4 4 -4q0 -2 2 -2q20 0 40 -13q20 -14 20 -31q0 -20 -16 -30q-19 -10 -36 -10zM1096 128q-42 0 -58 34q-10 16 -10 32q0 15 11 35t23 23l16 6q8 2 18 2q15 0 30 -6q12 -6 22 -16l-20 -24q-1 4 -13 12q-11 6 -17 6q-5 0 -16 -4q-12 -8 -14 -14q-4 -7 -4 -20q0 -7 5 -19
t11 -13q3 -3 8 -4q6 -2 10 -2q6 0 16 6q8 4 14 10l20 -20q-9 -11 -23 -17q-13 -7 -29 -7zM94 322q-2 0 -6 4v1182h884v-174h-682v-490h682v-182h-682v-340h-196zM422 322v184h682v482h-682v188h682v332h202v-1186h-884zM106 130v128h96v-26h-62v-30h58v-26h-58v-46h-34z
M364 130v128h30l58 -78v78h32v-128h-30l-58 76v-76h-32zM536 130v100h-38v28h108v-28h-36v-100h-34zM594 130l54 128h34l54 -128h-36l-8 24h-56l-8 -24h-34zM894 130v100h-38v28h108v-28h-38v-100h-32zM978 130v128h34v-128h-34zM1148 130l56 128h34l54 -128h-36l-10 24h-54
l-10 -24h-34zM646 178h36l-18 46zM1202 178h34l-18 46z" />
    <glyph glyph-name="_www.fontastica.com" horiz-adv-x="3962" 
d="M1114 752q-52 0 -95 24q-42 22 -68 65q-25 40 -25 93q0 54 25 94q25 42 67 64q43 22 96 22t96 -22q41 -21 68 -64q24 -40 24 -94q0 -53 -25 -93q-26 -43 -68 -65q-43 -24 -95 -24zM92 720q-2 0 -4 2v418h316v-62h-244v-174h244v-64h-244v-120h-68zM1116 830q41 0 68 32
q26 32 26 72q0 41 -26 72q-26 30 -68 30t-70 -28q-26 -29 -26 -74q0 -43 27 -73q27 -31 69 -31zM2528 754q-37 0 -86 17q-47 16 -76 39l36 72q22 -19 62 -36q38 -18 64 -18q21 0 32 8q14 8 14 22q0 7 -2 13q-4 6 -8 7q-3 1 -12 8q-2 1 -4.5 2.5t-4 2t-3.5 1.5l-4 2
q-3 0 -8 1.5t-7 2.5q-3 1 -8 2.5t-7 1.5q-7 1 -16 5q-12 4 -18 5q-8 2 -28 10q-13 5 -20 12q-34 18 -34 74q0 54 41 81t97 27q33 0 74 -10q36 -12 66 -30l-34 -72q-17 9 -56 26q-29 10 -58 10q-36 0 -36 -24q0 -7 11 -18t19 -14l20 -5q12 -3 30 -9q27 -9 48 -18q7 -5 22 -12
q20 -20 27 -35t7 -43q0 -34 -18 -58q-20 -29 -54 -38q-36 -12 -68 -12zM3340 752q-50 0 -92 24t-66 66t-24 92q0 53 25 93q25 42 67 64q43 23 94 23q42 0 78 -14q32 -13 62 -46l-52 -64q-14 20 -38 34q-24 12 -48 12q-45 0 -70 -28q-26 -29 -26 -72q0 -42 27 -72t69 -30
q27 0 48 12q17 7 38 28l54 -56q-30 -30 -66 -46q-38 -20 -80 -20zM206 720v64h244v172h-244v66h244v118h72v-420h-316zM646 760v348h260v-72h-170v-78h156v-74h-156v-124h-90zM1348 760v348h80l160 -210l-2 210h86v-348h-80l-158 208v-208h-86zM1814 760v274h-104v74h300
v-74h-106v-274h-90zM1972 760l150 348h94l146 -348h-96l-24 60h-152l-24 -60h-94zM2788 760v274h-104v74h300v-74h-104v-274h-92zM3022 760v348h90v-348h-90zM3484 760l150 348h94l146 -348h-98l-22 60h-152l-24 -60h-94zM2118 890h96l-46 126zM3630 890h96l-48 126z" />
    </font>
</defs>
</svg>
