<?xml version="1.0" standalone="no"?>
<!DOCTYPE svg PUBLIC "-//W3C//DTD SVG 1.1//EN" "http://www.w3.org/Graphics/SVG/1.1/DTD/svg11.dtd" >
<svg xmlns="http://www.w3.org/2000/svg" xmlns:xlink="http://www.w3.org/1999/xlink" version="1.1">
<metadata>
Created by FontForge 20170731 at Fri May 22 20:18:20 2020
 By Aleksey,,,
Copyright (c) 2020 by Fontastica. All rights reserved.
</metadata>
<defs>
<font id="ClarityNuvo-Regular" horiz-adv-x="1358" >
  <font-face 
    font-family="Clarity Nuvo"
    font-weight="400"
    font-stretch="normal"
    units-per-em="2048"
    panose-1="0 0 5 0 0 0 0 0 0 0"
    ascent="1638"
    descent="-410"
    x-height="1165"
    cap-height="1608"
    bbox="-392 -596 3874 2135"
    underline-thickness="50"
    underline-position="-200"
    unicode-range="U+000D-F8FF"
  />
<missing-glyph horiz-adv-x="1000" 
d="M88 2v1446h824v-1446h-824zM498 810l310 568h-614zM830 192v1066l-288 -532zM170 196l284 530l-284 524v-1054zM194 74h614l-308 566z" />
    <glyph glyph-name="f_f.liga" unicode="ff" horiz-adv-x="1228" 
d="M1039 1170h-232q3 69 39 130.5t95 98.5q55 35 183 37h12l4 144h-13q-206 0 -328 -106t-137 -304h-270q3 66 40.5 129t94.5 100q51 35 182 37h12l4 144h-13q-300 0 -414 -216q-43 -81 -51 -194h-159v-147h158l-1 -1023h146v1023h269l-1 -1023h147v1023h233v147z" />
    <glyph glyph-name="f_f_t.liga" unicode="fft" horiz-adv-x="1579" 
d="M1088 331q0 -78 12.5 -134.5t43 -103.5t87.5 -70.5t141 -23.5q17 0 102 5l17 1l-61 146l-9 -1q-6 0 -23.5 -2t-27.5 -2q-82 0 -107 40q-14 22 -21.5 66t-7.5 79l-1 690h250v147h-250v412h-144v-412l-282 2q3 66 40.5 129.5t93.5 99.5q36 24 118 33l11 1v145l-13 -1
q-180 -18 -280.5 -124.5t-114.5 -282.5h-270q3 66 40.5 129.5t94.5 99.5q37 25 120 34l11 1v144l-13 -1q-246 -23 -347 -213q-43 -81 -51 -194h-159v-147h158l-1 -1023h146v1023h269l-1 -1023h147v1023l283 -2q-1 -230 -1 -690z" />
    <glyph glyph-name="f_t.liga" unicode="ft" horiz-adv-x="1166" 
d="M674 331q0 -78 12.5 -135t43 -103.5t88 -70t141.5 -23.5q20 0 102 5l17 1l-62 146l-9 -1q-6 0 -23.5 -2t-27.5 -2q-79 0 -106 41q-29 47 -29 144l-1 690h250v147h-250v412h-145v-410h-283q3 67 40.5 130t94.5 99q37 25 124 34l11 1v144l-13 -1q-116 -11 -208 -64
t-143 -149q-40 -75 -49 -194h-161v-147h158l-1 -1023h146v1023h284q-1 -230 -1 -692z" />
    <glyph glyph-name="t_t.liga" unicode="tt" horiz-adv-x="1115" 
d="M228 317q0 -77 12.5 -133.5t43.5 -103t88.5 -70t140.5 -23.5q15 0 103 5l17 1l-63 145l-9 -1q-6 0 -16 -1t-18.5 -1.5t-15.5 -0.5q-82 0 -106 39q-30 49 -30 144l-1 713h251q-1 -237 -1 -713q0 -77 12.5 -133.5t42.5 -103t87 -70t140 -23.5q16 0 104 5l17 1l-62 145
l-9 -1l-51 -3q-81 0 -106 39q-28 45 -28 144l-1 713h249v146h-249v404h-145v-404h-251v404h-145v-404h-141v-146h141q-1 -237 -1 -713z" />
    <glyph glyph-name=".notdef" horiz-adv-x="1000" 
d="M88 2v1446h824v-1446h-824zM498 810l310 568h-614zM830 192v1066l-288 -532zM170 196l284 530l-284 524v-1054zM194 74h614l-308 566z" />
    <glyph glyph-name=".null" horiz-adv-x="0" 
 />
    <glyph glyph-name="nonmarkingreturn" horiz-adv-x="682" 
 />
    <glyph glyph-name="CR" unicode="&#xd;" horiz-adv-x="0" 
 />
    <glyph glyph-name="space" unicode=" " horiz-adv-x="850" 
 />
    <glyph glyph-name="exclam" unicode="!" horiz-adv-x="384" 
d="M121 1550v-1130h145v1130h-145zM88 164q0 -42 30.5 -73t73.5 -31q46 0 75 30t29 74q0 45 -29 74.5t-75 29.5q-45 0 -74.5 -30t-29.5 -74z" />
    <glyph glyph-name="quotedbl" unicode="&#x22;" horiz-adv-x="513" 
d="M88 1669v-443h144v443h-144zM280 1669v-443h145v443h-145z" />
    <glyph glyph-name="numbersign" unicode="#" horiz-adv-x="1430" 
d="M299 66h148l67 442h298l-67 -442h148l66 442h319v141h-297l53 339h308v139h-286l64 422h-147l-65 -422h-300l67 422h-148l-65 -422h-312v-139h291l-52 -339h-301v-141h278zM536 649l50 339h299l-49 -339h-300z" />
    <glyph glyph-name="dollar" unicode="$" horiz-adv-x="1269" 
d="M931 804v1q-8 2 -14 4q-48 21 -99 30q-44 10 -92 18v549q250 -34 314 -320l4 -18l128 98l-2 8q-94 333 -444 373v212h-141v-210q-88 -7 -169.5 -37.5t-147 -81t-104.5 -127t-39 -167.5q0 -122 66.5 -209t185.5 -132q67 -26 208 -55v-529q-153 18 -242.5 109t-113.5 246
l-3 16l-138 -75l2 -8q41 -190 169 -298.5t326 -130.5v-211h141v209q88 5 168 33t145 76.5t103.5 123.5t38.5 166q0 247 -250 337zM585 1409v-520q-78 19 -101 25q-63 18 -107 43q-107 64 -107 179q0 118 92.5 190t222.5 83zM726 211v500q80 -19 151 -44q76 -27 119 -77
t43 -123q0 -126 -98 -185q-83 -51 -215 -71z" />
    <glyph glyph-name="percent" unicode="%" horiz-adv-x="1704" 
d="M88 1145q0 -107 35.5 -195t115.5 -145.5t194 -57.5q87 0 154.5 32.5t108 89t61.5 126.5t21 150q0 264 -188 368q-69 37 -157 37q-87 0 -155 -34t-108.5 -92t-61 -129t-20.5 -150zM257 67h175l1010 1483h-175zM634 1145q0 -70 -18.5 -126t-65.5 -94t-117 -38q-56 0 -89 19
q-9 4 -32 24q-80 79 -80 215q0 141 82 223q22 22 29 25q32 19 90 19q55 0 90 -18q14 -10 30 -26q81 -77 81 -223zM923 469q0 -79 21.5 -150t63 -128t109.5 -90.5t154 -33.5q173 0 267 129q78 109 78 273q0 80 -20.5 150t-61 127t-108.5 90t-155 33t-155.5 -33t-109.5 -89.5
t-62 -127t-21 -150.5zM1471 469q0 -52 -11 -97t-33.5 -83.5t-62.5 -61t-93 -22.5q-54 0 -92 20q-11 6 -31 23q-83 80 -83 221t84 219q15 18 30 24q36 19 92 19q102 0 151 -76t49 -186z" />
    <glyph glyph-name="ampersand" unicode="&#x26;" horiz-adv-x="1456" 
d="M88 412q0 -106 39 -189.5t107.5 -136t158 -79.5t193.5 -27q236 0 443 185l145 -165h194l-244 274q126 188 126 463v11h-149v-11q0 -206 -79 -345l-424 478q12 10 55 43.5t66 52.5q216 171 216 342q0 146 -92.5 233t-242.5 87q-167 0 -265 -102t-98 -265q0 -102 39.5 -189
t112.5 -183q-3 -2 -9.5 -7t-9.5 -7q-16 -12 -36 -32q-12 -10 -36 -32q-210 -199 -210 -399zM632 1081l-129 -104q-118 155 -118 286q0 98 58 158.5t157 60.5q82 0 133.5 -47.5t51.5 -126.5q0 -56 -46 -117t-107 -110zM930 272q-69 -69 -158 -107.5t-186 -38.5q-94 0 -172 31
t-128.5 97.5t-50.5 157.5q0 42 16 86t38 78.5t58.5 74.5t65.5 66.5t70 61.5z" />
    <glyph glyph-name="quotesingle" unicode="'" horiz-adv-x="320" 
d="M88 1669v-443h144v443h-144z" />
    <glyph glyph-name="parenleft" unicode="(" horiz-adv-x="696" 
d="M496 -201q5 -4 15 -10t14 -9l9 -7l74 101l-9 7q-112 89 -183.5 188.5t-118.5 232.5q-76 209 -76 489q0 289 82 511q78 216 296 398l8 6l-75 105l-9 -9q-248 -202 -345 -455q-90 -241 -90 -556q0 -142 21 -275.5t66 -266.5t127 -250t194 -200z" />
    <glyph glyph-name="parenright" unicode=")" horiz-adv-x="696" 
d="M88 -127l81 -101l9 8q247 205 342 456q88 239 88 555q0 322 -98 568.5t-332 442.5l-9 8l-81 -102l9 -6q101 -83 181 -187t119 -214q80 -213 80 -510q0 -292 -81 -512q-78 -216 -299 -400z" />
    <glyph glyph-name="asterisk" unicode="*" horiz-adv-x="1186" 
d="M594 997l243 -337l114 86l-245 332l392 124l-41 137l-396 -129l4 409h-143l4 -409l-396 129l-42 -137l395 -124l-247 -332l115 -85z" />
    <glyph glyph-name="plus" unicode="+" horiz-adv-x="1257" 
d="M556 710v-478h145v478h468v138h-468v464h-145v-464h-468v-138h468z" />
    <glyph glyph-name="comma" unicode="," horiz-adv-x="503" 
d="M88 -138l144 -104l7 3q83 43 129.5 113t46.5 159q0 62 -30.5 105.5t-94.5 43.5q-44 0 -74.5 -29t-30.5 -71q0 -39 23.5 -66.5t62.5 -34.5q-15 -38 -45 -65q-12 -12 -52 -27q-14 -5 -36 -11.5t-27 -8.5z" />
    <glyph glyph-name="hyphen" unicode="-" horiz-adv-x="874" 
d="M88 832v-144h698v144h-698z" />
    <glyph glyph-name="period" unicode="." horiz-adv-x="384" 
d="M88 89q0 -42 30.5 -73t73.5 -31q46 0 75 30t29 74q0 43 -29.5 73.5t-74.5 30.5q-44 0 -74 -30.5t-30 -73.5z" />
    <glyph glyph-name="slash" unicode="/" horiz-adv-x="911" 
d="M671 1619l-583 -1774h153l582 1774h-152z" />
    <glyph glyph-name="zero" unicode="0" horiz-adv-x="1200" 
d="M325 73q117 -93 274 -93q164 0 280.5 95t176.5 252q56 147 56 362v228q0 87 -11 168.5t-36.5 165t-73 157.5t-114.5 126q-115 93 -278 93q-160 0 -275 -96.5t-176 -250.5q-60 -145 -60 -362v-228q0 -185 55 -350.5t182 -266.5zM794 195q-85 -69 -194 -69q-80 0 -145 37
t-105.5 95t-68 134.5t-38.5 150.5t-11 147v230q0 73 11 147t38 149.5t67.5 133.5t105.5 94.5t145 36.5q83 0 149 -36t106 -93t67 -133.5t37 -150t10 -149.5v-230q0 -119 -31 -237.5t-93 -202.5q-28 -36 -50 -54z" />
    <glyph glyph-name="one" unicode="1" horiz-adv-x="666" 
d="M426 1391v-1391h152l-3 1608h-136l-351 -331l84 -119z" />
    <glyph glyph-name="two" unicode="2" horiz-adv-x="1215" 
d="M125 119v-119h1002v147h-781l377 437q204 235 278 391q47 99 47 202q0 216 -127 333t-349 117q-110 0 -202 -42.5t-153 -114t-95 -165.5t-34 -198v-12h147v12q0 100 39 184.5t117 137t181 52.5q153 0 239 -78.5t86 -225.5q0 -57 -24 -121.5t-70 -132.5t-81.5 -113.5
t-87.5 -105.5z" />
    <glyph glyph-name="three" unicode="3" horiz-adv-x="1195" 
d="M94 429q0 -207 133 -328t346 -121q110 0 206 29t169.5 85t116 145t42.5 201q0 125 -67 225.5t-182 159.5q98 56 151 148t53 205q0 208 -137.5 328.5t-352.5 120.5q-214 0 -349 -120.5t-135 -328.5q0 -25 4 -73l1 -10h146v11q0 8 -1 25t-1 26q0 119 44 186q43 66 124 102
t167 36q140 0 241 -83.5t101 -215.5t-99.5 -209.5t-240.5 -77.5h-213l14 -148h199q101 0 186.5 -34.5t141.5 -107.5t56 -171t-53.5 -169.5t-137 -105t-183.5 -33.5q-148 0 -245 79.5t-97 218.5q0 12 1.5 38t1.5 38v12h-150v-12q0 -11 -0.5 -35t-0.5 -36z" />
    <glyph glyph-name="four" unicode="4" horiz-adv-x="1381" 
d="M945 0h149l-1 398h200v146h-200l-2 1064h-139l-864 -1210h857v-398zM376 544l569 800v-800h-569z" />
    <glyph glyph-name="five" unicode="5" horiz-adv-x="1154" 
d="M90 497q10 -103 46.5 -191.5t96.5 -157.5t149.5 -108.5t199.5 -39.5q139 0 249.5 65.5t175.5 186.5q59 113 59 283q0 111 -31.5 207.5t-91.5 170t-154.5 116t-212.5 42.5q-138 0 -243 -64l30 451h694v148h-833l-64 -877l99 -30l11 17q55 90 133 145.5t173 55.5
q78 0 147.5 -38t120.5 -103q21 -25 30 -44q45 -85 45 -200q0 -94 -45 -188t-121 -139q-84 -49 -171 -49q-138 0 -231 101t-112 243l-1 10h-150z" />
    <glyph glyph-name="six" unicode="6" horiz-adv-x="1151" 
d="M1063 483q0 220 -132.5 356t-357.5 136q-208 0 -339 -123v68q0 85 15.5 164.5t50.5 152t86 126.5t127 86t168 32q139 0 271 -94l12 -8l63 136l-8 6q-161 106 -338 106q-230 0 -387.5 -152.5t-205.5 -416.5v-569q0 -215 132 -350t352 -135q176 0 304 90.5t171 254.5
q16 69 16 134zM891 380q-37 -102 -123 -162.5t-196 -60.5q-150 0 -243.5 92.5t-93.5 238.5q0 148 93 241t245 93q111 0 197.5 -61t122.5 -164q21 -61 21 -106v-5q-7 -64 -23 -106z" />
    <glyph glyph-name="seven" unicode="7" horiz-adv-x="1216" 
d="M887 1461l-669 -1461h165l745 1608h-1040v-144z" />
    <glyph glyph-name="eight" unicode="8" horiz-adv-x="1239" 
d="M1151 440q0 125 -67 225.5t-183 159.5q99 56 152.5 148t53.5 205q0 208 -138 328.5t-353 120.5t-350 -120t-135 -329q0 -115 52.5 -207t152.5 -147q-116 -60 -182 -159.5t-66 -224.5q0 -116 46 -208h-7l13 -18q17 -25 49 -30l-20 -8q83 -97 200 -146.5t252 -49.5
q110 0 205.5 29t168 85t114.5 145t42 201zM618 895q-144 0 -241.5 76t-97.5 211q0 138 95.5 218.5t241.5 80.5q140 0 241 -83.5t101 -215.5t-99.5 -209.5t-240.5 -77.5zM1002 434q0 -100 -54.5 -171.5t-139 -104t-187.5 -32.5q-104 0 -189.5 32t-141 103.5t-55.5 172.5
q0 99 55 171.5t140.5 107t187.5 34.5q101 0 186.5 -34.5t141.5 -107.5t56 -171z" />
    <glyph glyph-name="nine" unicode="9" horiz-adv-x="1151" 
d="M1063 560v563q0 221 -129.5 357t-354.5 136q-223 0 -357 -137.5t-134 -356.5q0 -212 136.5 -344.5t353.5 -132.5q212 0 339 122v-67q0 -85 -15.5 -164.5t-50 -152.5t-85 -127t-126 -86t-167.5 -32q-139 0 -274 93l-12 8l-61 -135l8 -6q163 -108 339 -108q226 0 385.5 156
t204.5 414zM916 1131q0 -148 -93 -241t-245 -93q-110 0 -196.5 61.5t-123.5 164.5q-21 63 -21 105v4q7 63 23 107q38 101 124 161.5t195 60.5q150 0 243.5 -92t93.5 -238z" />
    <glyph glyph-name="colon" unicode=":" horiz-adv-x="384" 
d="M88 1040q0 -42 30.5 -73t73.5 -31q46 0 75 30t29 74t-29 74.5t-75 30.5q-44 0 -74 -31t-30 -74zM88 89q0 -42 30.5 -73t73.5 -31q46 0 75 30t29 74q0 43 -29.5 73.5t-74.5 30.5q-44 0 -74 -30.5t-30 -73.5z" />
    <glyph glyph-name="semicolon" unicode=";" horiz-adv-x="503" 
d="M185 1040q0 -42 30 -73t74 -31q46 0 75 30t29 74t-29 74.5t-75 30.5q-45 0 -74.5 -31t-29.5 -74zM88 -138l144 -104l7 3q83 43 129.5 113t46.5 159q0 62 -30.5 105.5t-94.5 43.5q-44 0 -74.5 -29t-30.5 -71q0 -40 23.5 -67t62.5 -34q-15 -38 -45 -65q-12 -12 -52 -27
q-14 -5 -36 -11.5t-27 -8.5z" />
    <glyph glyph-name="less" unicode="&#x3c;" horiz-adv-x="1210" 
d="M88 693l1034 -541v161l-827 433l827 432v160l-1034 -541v-104z" />
    <glyph glyph-name="equal" unicode="=" horiz-adv-x="1186" 
d="M88 1054v-138h1010v138h-1010zM88 631v-140h1010v140h-1010z" />
    <glyph glyph-name="greater" unicode="&#x3e;" horiz-adv-x="1210" 
d="M88 313v-161l1034 541v104l-1034 541v-160l830 -432z" />
    <glyph glyph-name="question" unicode="?" horiz-adv-x="1131" 
d="M485 768v-388h142v284q99 32 172.5 74t130 101.5t85 141t28.5 184.5q0 196 -126 300.5t-329 104.5q-224 0 -350.5 -108t-148.5 -325l-1 -9l131 -54l2 15q13 88 38 149.5t67.5 106.5t107 66.5t154.5 21.5q137 0 224 -69.5t87 -198.5q0 -204 -156 -296q-9 -5 -62 -31
q-102 -44 -187 -67zM451 164q0 -42 30.5 -73t73.5 -31q46 0 75 30t29 74t-29.5 74t-74.5 30t-74.5 -30t-29.5 -74z" />
    <glyph glyph-name="at" unicode="@" horiz-adv-x="1984" 
d="M88 723q0 -160 32.5 -301.5t101.5 -260.5t169 -204.5t242 -133.5t314 -48q250 0 427 116l9 6l-68 127l-11 -7q-166 -95 -353 -95q-140 0 -257.5 41.5t-201 115t-142 174.5t-87 219.5t-28.5 250.5q0 260 102.5 480.5t311.5 345.5q179 106 395 106q708 0 708 -759
q0 -255 -69 -424q-16 -43 -31 -69q-59 -89 -147 -89q-46 0 -88 40q-27 26 -36 90q-2 10 -4 26q-1 7 -1 22l64 826l-137 10l-9 -101q-113 133 -302 133q-105 0 -190.5 -56.5t-134.5 -149.5q-52 -100 -66 -249q-18 -198 -18 -238q0 -91 26 -172.5t75 -146.5t128 -103.5
t178 -38.5q165 0 275 122q32 -76 93 -120.5t145 -44.5q74 0 135.5 31.5t102.5 86.5t71 120t47 140t25 138.5t10 124.5q2 52 2 77q0 246 -56 431q-17 52 -24 68q-31 67 -89 141q-224 284 -680 284q-188 0 -346.5 -57.5t-270.5 -158.5t-190 -238t-115 -295.5t-37 -332.5z
M1251 672q-5 -56 -24 -110t-50 -101t-79 -75.5t-106 -28.5q-123 0 -198 91.5t-75 216.5q0 21 4 65l17 157q12 106 38.5 171.5t96.5 112.5q53 34 116 34q133 0 205 -93.5t72 -229.5q0 -16 -2 -48z" />
    <glyph glyph-name="A" unicode="A" horiz-adv-x="1517" 
d="M88 0h162l217 578h584l217 -578h161l-602 1608h-136zM521 726l237 644l239 -644h-476z" />
    <glyph glyph-name="B" unicode="B" horiz-adv-x="1296" 
d="M1208 466q0 138 -58.5 243t-178.5 164q96 57 141 134t45 190q0 90 -30.5 161.5t-81.5 117.5t-122 76.5t-146 43t-158 12.5h-531v-1608h12l570 3q92 1 172 17.5t148 53t116 89.5t75 130.5t27 172.5zM235 1463h384q77 0 142 -13t123.5 -41.5t92 -83.5t33.5 -131
q0 -84 -51 -144.5t-126 -87t-163 -26.5h-435v527zM670 149h-432v639h452q67 0 109.5 -8t92.5 -34q166 -81 166 -282q0 -82 -30.5 -144t-84.5 -98.5t-122.5 -54.5t-150.5 -18z" />
    <glyph glyph-name="C" unicode="C" horiz-adv-x="1306" 
d="M88 690q0 -107 21.5 -208t69 -192.5t115.5 -160t167.5 -109t218.5 -40.5q190 0 323.5 97.5t210.5 274.5l4 10l-126 79l-5 -13q-128 -302 -406 -302q-114 0 -202.5 49t-140.5 130.5t-78.5 179.5t-26.5 205v230q0 85 15.5 164.5t50.5 152t86 126.5t127 86t168 32
q280 0 407 -303l5 -13l126 84l-4 9q-78 175 -211.5 272t-322.5 97q-180 0 -315 -90.5t-208 -253.5q-69 -151 -69 -365v-228z" />
    <glyph glyph-name="D" unicode="D" horiz-adv-x="1303" 
d="M88 1608v-1608h12q59 0 166 1t195 1.5t166 0.5q116 0 214 39t166 105t115.5 154.5t70 187.5t22.5 204v221q0 108 -23 208t-72 189t-118.5 155t-169 104t-218.5 38h-526zM1066 693q0 -87 -16.5 -166t-52.5 -149t-88 -121t-128.5 -81t-168.5 -30q-2 0 -374 3l-3 1314h371
q72 0 163 -38q100 -41 168.5 -123t98.5 -179t30 -206v-224z" />
    <glyph glyph-name="E" unicode="E" horiz-adv-x="1189" 
d="M88 1608v-1608l1013 3v146h-863v639h616l4 148h-623v527h866v145h-1013z" />
    <glyph glyph-name="F" unicode="F" horiz-adv-x="1189" 
d="M88 1608v-1608h150v788h616l4 148h-623v527h866v145h-1013z" />
    <glyph glyph-name="G" unicode="G" horiz-adv-x="1306" 
d="M1059 366l-1 -1v-1l-5 -9q-5 -11 -14 -25q-5 -8 -11 -16.5t-9.5 -14t-4.5 -7.5q-123 -166 -333 -166q-114 0 -202.5 49t-140.5 130.5t-78.5 179.5t-26.5 205v230q0 85 15.5 164.5t50.5 152t86 126.5t127 86t168 32q280 0 407 -303l5 -13l126 84l-4 9q-78 175 -211.5 272
t-322.5 97q-180 0 -315 -90.5t-208 -253.5q-69 -151 -69 -365v-228q0 -107 22 -208t69.5 -192.5t115.5 -160t167.5 -109t218.5 -40.5q152 0 273.5 66.5t201.5 192.5q12 17 24 41q6 9 15 27l5 9q2 5 2 10v589h-569v-141h426v-408z" />
    <glyph glyph-name="H" unicode="H" horiz-adv-x="1191" 
d="M88 1608v-1608h150v788h716v-788h149v1608h-147v-672h-721v672h-147z" />
    <glyph glyph-name="I" unicode="I" horiz-adv-x="326" 
d="M88 1608v-1608h150l-3 1608h-147z" />
    <glyph glyph-name="J" unicode="J" horiz-adv-x="1190" 
d="M88 565q0 -94 19 -177.5t60 -154.5t100 -123t143 -81t185 -29q236 0 371.5 149t135.5 381v1078h-138l1 -1070q0 -40 -13 -99q-31 -137 -124 -216.5t-233 -79.5q-92 0 -163.5 33t-115.5 91.5t-66.5 133.5t-24.5 164v11h-137v-11z" />
    <glyph glyph-name="K" unicode="K" horiz-adv-x="1315" 
d="M88 1608v-1608h150v711l117 105l690 -816h182l-765 913l764 694h-207l-784 -704v705h-147z" />
    <glyph glyph-name="L" unicode="L" horiz-adv-x="1189" 
d="M88 1608v-1608l1013 3v146h-863l-3 1459h-147z" />
    <glyph glyph-name="M" unicode="M" horiz-adv-x="1463" 
d="M88 1608v-1608h150l-3 1133l428 -1133h134l430 1140l-2 -1140h150v1608h-138l-507 -1373l-495 1332v11v18v12h-147z" />
    <glyph glyph-name="N" unicode="N" horiz-adv-x="1191" 
d="M88 1608v-1608h150l-2 1270l740 -1270h127v1608h-147l-2 -1267l-736 1267h-130z" />
    <glyph glyph-name="O" unicode="O" 
d="M88 690q0 -107 21.5 -208t69 -192.5t115.5 -160t167.5 -109t218.5 -40.5q122 0 221.5 39.5t167 107t113.5 159t67 192.5t21 211v228q0 109 -21 209.5t-67.5 192.5t-114 160t-167 108t-220.5 40q-181 0 -315 -90t-208 -254q-69 -150 -69 -365v-228zM1125 689
q0 -86 -15 -165.5t-49 -153t-84.5 -127t-126.5 -85.5t-169 -32q-114 0 -202.5 49t-140.5 130.5t-78.5 179.5t-26.5 205v230q0 85 15.5 164.5t50.5 152t86 126.5t127 86t168 32q131 0 235 -72t156 -193q54 -124 54 -297v-230z" />
    <glyph glyph-name="P" unicode="P" horiz-adv-x="1237" 
d="M88 0h150l-1 788h374q84 0 159 12.5t145.5 42t121.5 75.5t81.5 117t30.5 162q0 90 -30.5 161.5t-81.5 117.5t-122 76.5t-146 43t-158 12.5h-523v-1608zM237 931l-2 532h376q76 0 141 -12.5t123.5 -41.5t92.5 -83t34 -129q0 -61 -23 -108t-60 -76.5t-89 -48t-105.5 -26
t-113.5 -7.5h-374z" />
    <glyph glyph-name="Q" unicode="Q" horiz-adv-x="1386" 
d="M88 690q0 -107 21.5 -208t69 -192.5t115.5 -160t167.5 -109t218.5 -40.5q217 0 373 138l69 -118h176l-139 242q111 185 111 447v228q0 109 -21 209.5t-67.5 192.5t-114 160t-167 108t-220.5 40q-181 0 -315 -90t-208 -254q-69 -151 -69 -365v-228zM978 249
q-118 -123 -297 -123q-92 0 -167.5 32.5t-127 86.5t-86.5 127t-51 153t-16 165v230q0 85 15.5 164.5t50.5 152t86 126.5t127 86t168 32q131 0 235 -72t156 -193q54 -127 54 -297v-230q0 -173 -54 -296l-66 113h-178z" />
    <glyph glyph-name="R" unicode="R" horiz-adv-x="1261" 
d="M88 0h150l-1 788h404l369 -788h163l-374 805q164 32 258 130.5t94 261.5q0 90 -30.5 161.5t-81.5 117.5t-122 76.5t-146 43t-158 12.5h-525v-1608zM237 931l-2 532h378q269 0 350 -127q41 -68 41 -139q0 -61 -23 -108t-60 -76.5t-89 -48t-105.5 -26t-113.5 -7.5h-376z
" />
    <glyph glyph-name="S" unicode="S" horiz-adv-x="1257" 
d="M90 375q57 -191 197 -293t345 -102q94 0 184 28.5t163 80.5t117.5 133.5t44.5 179.5q0 77 -25 145q-49 131 -194 214q-59 35 -133 64q-64 24 -137 48q-107 37 -218 99.5t-145 126.5q-27 51 -27 117q0 68 32 122t85.5 86t117 48.5t131.5 16.5q115 0 208 -45t146 -136
q17 -31 28 -61q2 -6 4.5 -17.5t5.5 -17.5q5 -14 18 -37l5 -12l126 67l-2 9q-49 191 -193.5 295t-348.5 104q-100 0 -191 -28.5t-163 -81t-114.5 -136t-42.5 -186.5q0 -196 164 -314q21 -16 59 -36q119 -67 267 -117q94 -33 182 -73q4 -2 27.5 -13t25.5 -12q156 -93 156 -239
q0 -89 -54.5 -153t-134 -92t-171.5 -28q-149 0 -260 73t-137 207l-1 4l-35 35l-114 -64z" />
    <glyph glyph-name="T" unicode="T" horiz-adv-x="1253" 
d="M554 1459v-1459h146v1459l465 -1v150h-1077v-150z" />
    <glyph glyph-name="U" unicode="U" 
d="M88 690q0 -107 21.5 -208t69 -192.5t115.5 -160t167.5 -109t218.5 -40.5q122 0 221.5 39.5t167 107t113.5 159t67 192.5t21 211v919h-145v-919q0 -86 -15 -165.5t-49 -153t-84.5 -127t-126.5 -85.5t-169 -32q-114 0 -202.5 49t-140.5 130.5t-78.5 179.5t-26.5 205v918
h-145v-918z" />
    <glyph glyph-name="V" unicode="V" horiz-adv-x="1517" 
d="M88 1608l603 -1608h136l602 1608h-162l-509 -1373l-507 1373h-163z" />
    <glyph glyph-name="W" unicode="W" horiz-adv-x="1808" 
d="M88 1607l381 -1605h135l299 1250l300 -1250h134l383 1605h-149l-300 -1266l-300 1266h-137l-296 -1265l-300 1265h-150z" />
    <glyph glyph-name="X" unicode="X" horiz-adv-x="1359" 
d="M587 801l-497 -801h200v39l390 616l387 -617v-38h200l-497 801l501 807h-180l-411 -662l-418 662h-174z" />
    <glyph glyph-name="Y" unicode="Y" horiz-adv-x="1363" 
d="M607 804v-804h146v802l522 806h-182l-411 -662l-418 662h-176z" />
    <glyph glyph-name="Z" unicode="Z" horiz-adv-x="1258" 
d="M915 1461l-827 -1461l1047 3v146h-793l828 1459h-1048v-144z" />
    <glyph glyph-name="bracketleft" unicode="[" horiz-adv-x="665" 
d="M88 1772v-1981h489v142h-348v1701h348v138h-489z" />
    <glyph glyph-name="backslash" unicode="\" horiz-adv-x="911" 
d="M88 1619l583 -1774h152l-582 1774h-153z" />
    <glyph glyph-name="bracketright" unicode="]" horiz-adv-x="665" 
d="M88 -67v-142h489v1981h-489v-138h348v-1701h-348z" />
    <glyph glyph-name="asciicircum" unicode="^" horiz-adv-x="1333" 
d="M613 1696l-525 -889h171l409 690l405 -690h172l-526 889h-106z" />
    <glyph glyph-name="underscore" unicode="_" horiz-adv-x="1330" 
d="M88 50v-138h1154v138h-1154z" />
    <glyph glyph-name="grave" unicode="`" horiz-adv-x="595" 
d="M92 1656l251 -417h159l-240 417h-170z" />
    <glyph glyph-name="a" unicode="a" horiz-adv-x="1104" 
d="M869 707h-222q-147 0 -278.5 -40.5t-209.5 -135.5q-71 -87 -71 -207q0 -159 111.5 -252t276.5 -93q233 0 393 142v-122h146l1 673q0 174 -52 272q-57 108 -159 166t-228 58q-206 0 -322 -129t-116 -331v-53h145v11q0 72 17 133.5t51.5 110.5t92 77t132.5 28
q108 0 186 -60t99 -162q7 -33 7 -86zM869 562l-1 -211q0 -2 -2 -6l-11 -17q-4 -8 -17 -27q-60 -88 -154.5 -132.5t-207.5 -44.5q-95 0 -168.5 54.5t-73.5 141.5q0 54 28 97t71.5 69.5t100 44t110 24.5t106.5 7h219z" />
    <glyph glyph-name="b" unicode="b" horiz-adv-x="1054" 
d="M230 91q128 -107 299 -107q197 0 316.5 126.5t119.5 318.5v276q0 2 0.5 6.5t0.5 7.5q0 195 -119 322.5t-318 127.5q-176 0 -299 -107v518h-142v-1580h142v91zM685 172q-64 -40 -156 -40q-110 0 -182.5 61t-101.5 168q-15 52 -15 87v257q0 35 15 89q29 106 102 166.5
t182 60.5q86 0 155.5 -44t107.5 -120q16 -35 22 -60q8 -34 8 -95v-250q0 -193 -137 -280z" />
    <glyph glyph-name="c" unicode="c" horiz-adv-x="1008" 
d="M100 659l-11 11v-223q0 -146 53 -244q58 -109 157 -165t227 -56q131 0 231.5 63.5t158.5 179.5l4 8l-115 95l-7 -14q-96 -183 -273 -183q-107 0 -185 60.5t-100 160.5q-9 41 -9 98v250q0 141 76.5 230t217.5 89q176 0 273 -185l7 -13l115 95l-4 7q-59 117 -160 181
t-233 64q-201 0 -318 -129.5t-117 -327.5q0 -39 12 -52z" />
    <glyph glyph-name="d" unicode="d" horiz-adv-x="1053" 
d="M88 435q0 -195 119.5 -323t318.5 -128q175 0 297 107v-91h142v1580h-142v-518q-122 107 -297 107q-205 0 -321.5 -127.5t-116.5 -328.5v-278zM810 367q-27 -108 -100.5 -171.5t-183.5 -63.5q-108 0 -186 60.5t-100 162.5q-9 41 -9 97v250q0 140 77.5 229.5t217.5 89.5
q104 0 175.5 -55.5t102.5 -155.5q19 -63 19 -105v-257q0 -33 -13 -81z" />
    <glyph glyph-name="e" unicode="e" horiz-adv-x="1046" 
d="M142 208q59 -109 157.5 -165t226.5 -56q131 0 231.5 63.5t158.5 179.5l4 8l-115 95l-7 -14q-97 -184 -273 -184q-102 0 -181.5 62t-103.5 160q-9 35 -9 98v111h727v11q0 151 -3 188q-8 105 -49 184q-54 108 -153.5 163.5t-225.5 55.5q-210 0 -324.5 -126t-114.5 -332
q0 -43 0.5 -129t0.5 -129q0 -146 53 -244zM815 711h-584q4 140 79 226.5t215 86.5q103 0 181 -62t101 -161q8 -33 8 -90z" />
    <glyph glyph-name="f" unicode="f" horiz-adv-x="813" 
d="M625 1170h-233q3 66 40.5 129t94.5 100q51 35 182 37h12l4 144h-13q-299 0 -414 -216q-43 -81 -51 -194h-159v-147h158l-1 -1023h146v1023h234v147z" />
    <glyph glyph-name="g" unicode="g" horiz-adv-x="1054" 
d="M106 -82q40 -159 150.5 -249t275.5 -90q130 0 233.5 60.5t154.5 173.5q46 98 46 249l-1 1106h-145l-1 -101q-119 102 -293 102q-205 0 -321.5 -127.5t-116.5 -328.5v-278q0 -195 119.5 -323t318.5 -128q173 0 293 101v-23q0 -173 -95 -264q-20 -20 -39 -32
q-61 -40 -154 -40q-116 0 -188.5 67t-104.5 184l-4 14l-130 -64zM799 324q-34 -90 -105 -141t-168 -51q-108 0 -186 60.5t-100 162.5q-9 41 -9 97v250q0 140 77.5 229.5t217.5 89.5q99 0 169 -50.5t104 -142.5q20 -56 20 -74v-357q0 -17 -20 -73z" />
    <glyph glyph-name="h" unicode="h" horiz-adv-x="1054" 
d="M822 2l142 -4v12q2 472 2 709q0 195 -119 322.5t-318 127.5q-176 0 -299 -107v515h-142v-1577h142v12v693q0 35 15 89q29 106 102 166.5t182 60.5q86 0 155.5 -44t107.5 -120q16 -35 22 -60q8 -34 8 -95v-700z" />
    <glyph glyph-name="i" unicode="i" horiz-adv-x="382" 
d="M88 1478q0 -42 30.5 -72.5t72.5 -30.5q45 0 74 30t29 73t-29 72.5t-74 29.5q-44 0 -73.5 -29.5t-29.5 -72.5zM118 1167v-1167h146v1167h-146z" />
    <glyph glyph-name="j" unicode="j" horiz-adv-x="344" 
d="M51 1478q0 -43 29 -73t74 -30q44 0 73 30t29 73t-29 72.5t-73 29.5q-45 0 -74 -29.5t-29 -72.5zM-230 -274l-40 -147h16q233 0 355.5 128t122.5 355q0 729 -1 1094v12h-146l-1 -1106q0 -106 -28 -175.5t-107 -120.5q-58 -38 -161 -40h-10z" />
    <glyph glyph-name="k" unicode="k" horiz-adv-x="1047" 
d="M88 1580v-1580h144v517l64 55l484 -572h179l-558 666l550 501h-205l-515 -462v875h-143z" />
    <glyph glyph-name="l" unicode="l" horiz-adv-x="392" 
d="M492 -10l-62 143h-8q-3 0 -9.5 0.5t-9.5 0.5h-12q-4 0 -7 -1q-3 0 -5 -1l-4 -1h-18q-68 0 -93 39q-28 46 -28 144l-2 1266h-145l-1 -1266q0 -57 7 -103.5t25.5 -89.5t48.5 -72t78.5 -46.5t112.5 -17.5q37 0 115 4z" />
    <glyph glyph-name="m" unicode="m" horiz-adv-x="1780" 
d="M835 2l-12 12v-17l13 1q57 3 58 3q8 0 17.5 -0.5t21.5 -1.5t18 -1l13 -1v5h1v12v697q0 32 11 80q25 106 98.5 168t182.5 62q84 0 152 -41t106 -113q21 -43 27 -70q8 -34 8 -95v-700l141 -4v12q1 232 1 697q0 132 -48 235t-148 165t-238 62q-117 0 -211 -47.5t-153 -141.5
q-121 189 -365 189q-176 0 -299 -107v103h-142v-1165h142v12v693q0 39 19 102q31 100 103 157t177 57q83 0 151 -41t106 -113q22 -40 28 -70q8 -34 8 -95q0 -686 13 -700z" />
    <glyph glyph-name="n" unicode="n" horiz-adv-x="1054" 
d="M822 2l142 -4v12q2 472 2 709q0 195 -119 322.5t-318 127.5q-176 0 -299 -107v103h-142v-1165h142v12v693q0 35 15 89q29 106 102 166.5t182 60.5q86 0 155.5 -44t107.5 -120q16 -35 22 -60q8 -34 8 -95v-700z" />
    <glyph glyph-name="o" unicode="o" horiz-adv-x="1047" 
d="M100 661l-11 11q0 -40 -0.5 -119t-0.5 -118q0 -197 118 -321.5t320 -124.5q141 0 239.5 60.5t145.5 162.5t47 237l1 223v41q0 200 -114 326t-318 126q-207 0 -323 -124.5t-116 -327.5q0 -39 12 -52zM815 702v-250q0 -139 -76 -229.5t-214 -90.5q-108 0 -185.5 60.5
t-99.5 162.5q-9 41 -9 97v250q0 140 77 229.5t217 89.5q101 0 180 -63t102 -161q8 -34 8 -95z" />
    <glyph glyph-name="p" unicode="p" horiz-adv-x="1054" 
d="M88 -421h142v515q124 -105 299 -105q200 0 318.5 127t118.5 323q0 90 -2 268q0 3 0.5 8t0.5 7q0 196 -118 323t-318 127q-178 0 -299 -105v101h-142v-1589zM822 455q0 -140 -77 -230t-216 -90q-106 0 -178 58t-103 161q-18 62 -18 99v257q0 26 13 80q28 109 101.5 172
t184.5 63q84 0 151.5 -40.5t106.5 -113.5q21 -43 27 -70q8 -33 8 -94v-252z" />
    <glyph glyph-name="q" unicode="q" horiz-adv-x="1053" 
d="M823 -421h142v1589h-142v-101q-119 105 -297 105q-206 0 -322 -129t-116 -331v-267q0 -199 117.5 -327.5t320.5 -128.5q176 0 297 105v-515zM808 364q-29 -106 -101.5 -167.5t-180.5 -61.5q-109 0 -186.5 60.5t-99.5 163.5q-9 48 -9 96v252q0 100 36 168q38 72 106 111
t153 39q110 0 182.5 -60.5t100.5 -167.5q14 -56 14 -87v-257q0 -35 -15 -89z" />
    <glyph glyph-name="r" unicode="r" horiz-adv-x="883" 
d="M88 1165v-1165h142v12v693q0 31 14 85q29 107 102 169t183 62q88 0 190 -60l11 -7l65 136l-10 5q-128 74 -256 74q-176 0 -299 -107v103h-142z" />
    <glyph glyph-name="s" unicode="s" horiz-adv-x="1116" 
d="M137 171q137 -191 424 -191q78 0 152 17t141.5 52.5t109 100t41.5 148.5q0 97 -53.5 159.5t-150.5 106.5q-62 25 -83 32q-12 4 -138 40q-143 40 -211 77q-7 3 -17 11q-12 10 -18 14q-44 29 -61.5 52t-17.5 64q0 47 39 83q13 14 39 29q88 54 230 54q121 0 212 -48
q84 -42 122 -170l4 -14l127 60l-2 9q-15 77 -62 138t-112.5 96.5t-139.5 54t-151 18.5q-79 0 -153.5 -16.5t-142 -51.5t-108.5 -99.5t-41 -150.5q0 -88 46 -150q16 -22 38 -39q62 -56 144.5 -90.5t194.5 -65.5q193 -50 277 -113q28 -25 31 -29q19 -33 19 -70q0 -45 -32 -79
t-82.5 -52t-100.5 -26.5t-97 -8.5q-123 0 -214 55t-114 163l-3 16l-135 -64l3 -9q21 -78 46 -113z" />
    <glyph glyph-name="t" unicode="t" horiz-adv-x="721" 
d="M228 317q0 -77 12.5 -133.5t43.5 -103t88.5 -70t140.5 -23.5q15 0 103 5l17 1l-63 145l-9 -1q-6 0 -16 -1t-18.5 -1.5t-15.5 -0.5q-82 0 -106 39q-30 49 -30 144l-1 713h251v146h-251v404h-145v-404h-141v-146h141q-1 -237 -1 -713z" />
    <glyph glyph-name="u" unicode="u" horiz-adv-x="1053" 
d="M88 449q0 -132 49.5 -235.5t150 -165.5t238.5 -62q180 0 297 103v-89h142v1168h-142v-718q0 -137 -80 -226.5t-217 -89.5q-105 0 -184.5 61.5t-101.5 160.5q-9 41 -9 98v712l-142 4v-12q-1 -237 -1 -709z" />
    <glyph glyph-name="v" unicode="v" horiz-adv-x="1173" 
d="M88 1168l433 -1168h135l429 1168h-158l-340 -932l-339 932h-160z" />
    <glyph glyph-name="w" unicode="w" horiz-adv-x="1737" 
d="M88 1168l373 -1168h124l286 891l283 -891h123l372 1168h-149l-282 -903l-286 903h-127l-282 -903l-284 903h-151z" />
    <glyph glyph-name="x" unicode="x" horiz-adv-x="1246" 
d="M534 579l-446 -579h181l354 465l333 -431v-34h200l-445 579l447 589h-177l-358 -472l-360 472h-175z" />
    <glyph glyph-name="y" unicode="y" horiz-adv-x="1185" 
d="M98 -435q72 -12 109 -12q158 0 262 93.5t158 247.5q53 157 67 194l403 1080h-157l-341 -907l-341 907h-158l421 -1120l-38 -105q-35 -102 -82 -157t-139 -80q-25 -7 -52 -7q-10 0 -30.5 2.5t-26.5 2.5h-41l-2 -8l-11 -43q-6 -20 -8 -28q-1 -1 -1 -4t-1 -5l-1 -5v-44z" />
    <glyph glyph-name="z" unicode="z" horiz-adv-x="1181" 
d="M88 74l18 -74l939 2v138h-714l762 1028l-1000 -2v-139h714l-696 -943z" />
    <glyph glyph-name="braceleft" unicode="{" horiz-adv-x="770" 
d="M326 76q0 -141 82 -215t227 -74h47v140h-12q-200 0 -200 149v506q0 138 -94 211q94 75 94 209v503q0 150 200 150h12v137h-12q-344 0 -344 -287v-503q0 -41 -13 -65q-3 -6 -16 -19q-58 -58 -197 -58h-12v-137h12q134 0 177 -32q4 -2 19.5 -19.5t17.5 -20.5q12 -24 12 -69
v-506z" />
    <glyph glyph-name="bar" unicode="|" horiz-adv-x="317" 
d="M88 1696v-1979h141v1979h-141z" />
    <glyph glyph-name="braceright" unicode="}" horiz-adv-x="770" 
d="M88 -73v-140h12q103 0 177 26.5t120 93t46 169.5v506q0 52 41 96q2 3 6 7l5 5q21 17 75.5 25t99.5 8h12v137h-12q-227 0 -227 142v503q0 287 -343 287h-12v-137h12q199 0 199 -150v-503q0 -61 25 -116t71 -93q-96 -82 -96 -211v-506q0 -82 -52.5 -115.5t-146.5 -33.5h-12
z" />
    <glyph glyph-name="asciitilde" unicode="~" horiz-adv-x="1128" 
d="M95 733l-7 -51h145l2 10q11 53 23 86q21 54 44 64q18 7 49 7q30 0 73 -16q4 -2 15.5 -6.5t17.5 -7.5q4 -2 7 -2l2 -1q100 -63 145 -83q85 -39 165 -39q226 0 262 294l2 13h-146l-2 -10q-12 -58 -15 -71q-13 -48 -24 -62q-10 -11 -33.5 -18t-43.5 -7q-24 0 -36 4
q-6 2 -35 12q-3 1 -10 3.5t-11 4.5q-15 6 -18 9q-7 5 -8 5q-4 5 -9 6q-5 3 -7 3q-1 1 -4 1q-12 4 -30 17q-67 50 -121.5 69.5t-135.5 19.5q-223 0 -256 -254z" />
    <glyph glyph-name="exclamdown" unicode="&#xa1;" horiz-adv-x="384" 
d="M88 1120q0 -42 30.5 -73t73.5 -31q45 0 74.5 30.5t29.5 73.5q0 44 -29 73.5t-75 29.5q-45 0 -74.5 -29.5t-29.5 -73.5zM121 863v-1129h145v1129h-145z" />
    <glyph glyph-name="cent" unicode="&#xa2;" horiz-adv-x="1197" 
d="M535 -141h139v188q54 3 106 18q46 16 79 33q206 99 248 335l2 10l-141 50l-2 -15q-22 -176 -159 -248q-12 -6 -36 -14q-6 -3 -19 -7t-19 -6q-39 -11 -59 -14v908q122 -11 191.5 -81.5t98.5 -195.5l3 -14l135 61l-3 10q-28 99 -69.5 167.5t-116.5 116.5q-105 66 -239 76
v188h-139v-191q-116 -16 -203.5 -70.5t-140 -136t-78 -178t-25.5 -207.5q0 -88 16 -167.5t50.5 -152t86 -128t126.5 -94t168 -51.5v-190zM535 1091v-900q-179 34 -251 192q-13 29 -28 82q-25 92 -25 177q0 111 28.5 200.5t98.5 157.5t177 91z" />
    <glyph glyph-name="sterling" unicode="&#xa3;" horiz-adv-x="1346" 
d="M1258 417h-141v-12q0 -221 -184 -221q-59 0 -104 19t-100 60q43 83 43 184q0 129 -70 250h367v140h-470q-59 86 -92 148q-41 71 -41 153q0 140 85 217.5t230 77.5q130 0 199 -80.5t78 -213.5l1 -17l142 58l-1 8q-15 179 -125 280.5t-294 101.5q-202 0 -330.5 -117.5
t-128.5 -314.5q0 -151 102 -301h-205v-140h306q54 -73 78.5 -128t24.5 -128q0 -41 -16 -86q-63 44 -120.5 63t-135.5 19q-50 0 -82 -5q-19 -3 -58 -18q-59 -24 -93.5 -69t-34.5 -106q0 -87 65 -134q12 -9 17 -12q8 -4 16 -9q72 -38 157 -38q173 0 297 106q24 -16 37 -24
l35 -24q24 -14 41 -21q84 -37 180 -37q155 0 240 82.5t85 233.5v55zM527 244q-80 -60 -184 -60q-42 0 -73 13q-38 15 -38 42q0 24 35 41q33 18 91 18q52 0 86.5 -12t82.5 -42z" />
    <glyph glyph-name="currency" unicode="&#xa4;" horiz-adv-x="1335" 
d="M192 232l221 217q108 -73 255 -73q157 0 257 76l221 -220l101 101l-221 225q66 105 66 257q0 149 -63 249l218 220l-101 99l-216 -210q-107 79 -262 79q-158 0 -264 -79l-212 211l-104 -102l218 -216q-64 -101 -64 -251q0 -153 68 -257l-222 -223zM947 815
q0 -135 -72.5 -218.5t-206.5 -83.5q-73 0 -134.5 29t-96.5 85q-14 21 -28 64q-23 64 -23 124q0 133 74.5 214.5t207.5 81.5q136 0 207.5 -80t71.5 -216z" />
    <glyph glyph-name="yen" unicode="&#xa5;" horiz-adv-x="1375" 
d="M618 344v-277h142v277h435v140h-435v116h435v139h-379l471 811h-168l-429 -753l-431 753h-171l474 -811h-377v-139h433v-116h-433v-140h433z" />
    <glyph glyph-name="brokenbar" unicode="&#xa6;" horiz-adv-x="319" 
d="M88 1696v-872h143v872h-143zM88 588v-871h143v871h-143z" />
    <glyph glyph-name="section" unicode="&#xa7;" horiz-adv-x="1236" 
d="M950 405q91 42 144.5 110t53.5 161q0 144 -119 232q-27 20 -50 32l-36 14q-92 34 -249 55q-16 2 -45.5 8t-38.5 8q-43 8 -77 16.5t-72.5 25t-64 37t-42.5 53t-17 72.5q0 71 45 119t107.5 66.5t137.5 18.5q80 0 136 -14.5t100 -56.5t63 -114l5 -17l131 88l-4 9
q-27 71 -70.5 120t-101.5 75t-120 36.5t-139 10.5q-66 0 -127 -12.5t-117.5 -39.5t-98 -66t-66.5 -97t-25 -128q0 -139 93 -222q-91 -41 -144.5 -110t-53.5 -163q0 -160 172 -254q68 -36 175 -60q79 -16 107 -19q103 -10 198.5 -40.5t135.5 -87.5q24 -39 24 -91
q0 -55 -25 -96t-68 -64t-92.5 -34t-105.5 -11q-121 0 -196 41t-105 145l-5 17l-125 -87l2 -9q48 -144 175 -198q112 -46 254 -46q83 0 148 15q37 9 89 31q95 45 146.5 121t51.5 177q0 143 -94 223zM782 491q-73 28 -245 57l-11 2q-47 7 -96 20q-11 2 -43 13q-16 4 -42 13
q-17 5 -40 16q-28 16 -47 42q-26 33 -26 78q0 113 163 168q11 4 31 9q10 3 18 5q1 0 3.5 1t3.5 1h2q1 0 2 -1q3 0 9 -2l16 -5q10 -3 31.5 -8t31.5 -8q45 -12 129 -23q63 -10 150 -33t123 -47q61 -42 61 -113q0 -38 -20 -70t-55 -54t-71 -36t-78 -25z" />
    <glyph glyph-name="dieresis" unicode="&#xa8;" horiz-adv-x="790" 
d="M100 1385q0 -43 29 -71.5t73 -28.5q48 0 74.5 27t26.5 73q0 49 -26 74q-26 27 -75 27q-48 0 -75 -27t-27 -74zM486 1385q0 -41 29.5 -70.5t71.5 -29.5q49 0 76 26.5t27 73.5q0 46 -27.5 73.5t-75.5 27.5q-45 0 -73 -28.5t-28 -72.5z" />
    <glyph glyph-name="copyright" unicode="&#xa9;" horiz-adv-x="1718" 
d="M88 809q0 -339 212 -551t559 -212q231 0 406.5 96t270 269t94.5 398q0 227 -93.5 399.5t-269 267t-408.5 94.5q-173 0 -317.5 -55.5t-244 -155t-154.5 -241t-55 -309.5zM1485 809q0 -181 -77 -323t-220 -222t-329 -80q-139 0 -256.5 46.5t-199 129t-127 198.5t-45.5 251
q0 182 77.5 324t220.5 221t330 79q282 0 454 -173.5t172 -450.5zM540 746q0 -74 20.5 -143t60 -126t105 -91t147.5 -34q111 0 188 62t120 167l4 8l-118 80l-5 -13q-32 -79 -75 -122.5t-113 -43.5q-50 0 -89 22t-61.5 59.5t-34 81.5t-11.5 93v117q0 50 11 93.5t33.5 80t61 58
t89.5 21.5q62 0 106 -30q43 -32 83 -133l5 -15l118 80l-4 9q-95 229 -308 229q-85 0 -150.5 -33.5t-104.5 -90t-58.5 -125t-19.5 -145.5v-116z" />
    <glyph glyph-name="ordfeminine" unicode="&#xaa;" horiz-adv-x="696" 
d="M626 1324q0 115 -69.5 188t-186.5 73q-120 0 -188 -73.5t-68 -190.5v-58h26q-51 -55 -51 -136q0 -95 65.5 -151t164.5 -56q94 0 168 41v-30h138v12q1 127 1 381zM366 1351q-60 -3 -112 -21q4 52 34 83t82 31q45 0 74 -24.5t38 -66.5q-91 0 -116 -2zM475 1132
q-54 -74 -156 -74q-35 0 -63.5 19t-28.5 48q0 48 65 71q53 19 116 19h79l-1 -64q0 -1 -1 -2l-3 -6t-3 -4.5t-3 -4.5z" />
    <glyph glyph-name="guillemotleft" unicode="&#xab;" horiz-adv-x="948" 
d="M88 749l338 -462h185l-343 462l343 462h-185zM336 749l340 -462h184l-345 462l345 462h-184z" />
    <glyph glyph-name="logicalnot" unicode="&#xac;" horiz-adv-x="1228" 
d="M996 710v-276h144v414h-1052v-138h908z" />
    <glyph glyph-name="uni00AD" unicode="&#xad;" horiz-adv-x="874" 
d="M88 832v-144h698v144h-698z" />
    <glyph glyph-name="registered" unicode="&#xae;" horiz-adv-x="1718" 
d="M88 809q0 -339 212 -551t559 -212q231 0 406.5 96t270 269t94.5 398q0 227 -93.5 399.5t-269 267t-408.5 94.5q-173 0 -317.5 -55.5t-244 -155t-154.5 -241t-55 -309.5zM1485 809q0 -181 -77 -323t-220 -222t-329 -80q-139 0 -256.5 46.5t-199 129t-127 198.5t-45.5 251
q0 182 77.5 324t220.5 221t330 79q282 0 454 -173.5t172 -450.5zM596 349h142v414h132l194 -414h157l-202 435q81 27 127.5 85t46.5 142q0 66 -26.5 116t-72 77.5t-99.5 41t-117 13.5h-282v-910zM738 902l-1 219h141q174 0 174 -110q0 -109 -174 -109h-140z" />
    <glyph glyph-name="macron" unicode="&#xaf;" horiz-adv-x="915" 
d="M100 1464v-138h715v138h-715z" />
    <glyph glyph-name="degree" unicode="&#xb0;" horiz-adv-x="792" 
d="M88 1685q0 -137 85 -223t225 -86q138 0 222 87t84 222q0 136 -83.5 222t-222.5 86q-141 0 -225.5 -85.5t-84.5 -222.5zM562 1685q0 -81 -41.5 -126t-122.5 -45q-76 0 -121.5 47.5t-45.5 123.5q0 77 45 124.5t122 47.5q81 0 122.5 -45.5t41.5 -126.5z" />
    <glyph glyph-name="plusminus" unicode="&#xb1;" horiz-adv-x="1228" 
d="M545 816v-527h141v527h454v138h-454v516h-141v-516h-457v-138h457zM88 205v-138h1052v138h-1052z" />
    <glyph glyph-name="uni00B2" unicode="&#xb2;" horiz-adv-x="647" 
d="M101 1044v-99h460v135h-248l86 100q39 45 62 74.5t46 79.5t23 95q0 98 -59 153.5t-160 55.5q-95 0 -159 -65.5t-64 -157.5v-58h136v58q0 36 25 62t62 26q83 0 83 -74q0 -51 -89 -153z" />
    <glyph glyph-name="uni00B3" unicode="&#xb3;" horiz-adv-x="620" 
d="M311 947q-96 0 -155 55t-59 146q0 4 0.5 11t0.5 10q1 7 1 20v18h111v-36q0 -3 -0.5 -7.5t-0.5 -6.5q-1 -4 -1 -11q0 -41 28 -64.5t78 -23.5q52 0 84 25.5t32 66.5t-34 67.5t-87 26.5h-102l-9 111h111q47 0 76 23t29 61t-30 63t-76 25q-102 0 -101 -102v-14q1 -5 1 -16
v-18h-111v18q0 13 -1 20q0 3 -0.5 11t-0.5 11q0 90 59 145.5t154 55.5q97 0 157 -55.5t60 -145.5q0 -82 -59 -135q76 -55 76 -150q0 -94 -62.5 -149.5t-168.5 -55.5z" />
    <glyph glyph-name="acute" unicode="&#xb4;" horiz-adv-x="597" 
d="M337 1671l-244 -416h163l249 416h-168z" />
    <glyph glyph-name="uni00B5" unicode="&#xb5;" horiz-adv-x="1109" 
d="M88 1198v-1562h143v503q110 -93 273 -93q107 0 205.5 36.5t169.5 107.5v-124h142v1132h-142v-670q0 -145 -109.5 -245.5t-259.5 -100.5q-131 0 -205 77.5t-74 206.5v732h-143z" />
    <glyph glyph-name="paragraph" unicode="&#xb6;" horiz-adv-x="1136" 
d="M576 -141h145v1553h181v-1553h146v1691h-425q-150 0 -269.5 -54t-192.5 -163.5t-73 -258.5q0 -205 138.5 -333.5t349.5 -144.5v-737zM576 1409v-671q-153 12 -248.5 100.5t-95.5 235.5q0 143 97 232.5t247 102.5z" />
    <glyph glyph-name="periodcentered" unicode="&#xb7;" horiz-adv-x="384" 
d="M88 800q0 -42 30.5 -72.5t73.5 -30.5q45 0 74.5 29.5t29.5 73.5q0 43 -29.5 73.5t-74.5 30.5q-44 0 -74 -30.5t-30 -73.5z" />
    <glyph glyph-name="cedilla" unicode="&#xb8;" horiz-adv-x="703" 
d="M350 101q-4 2 -8 2h-90l-22 -90l9 -4l26 -12q16 -8 23 -13q4 -4 10 -5h1q35 -20 41 -23q4 -3 16 -10t18 -12q93 -67 93 -141q0 -43 -26.5 -67t-71.5 -24q-89 0 -169 113l-9 14l-88 -121l5 -7q55 -73 112.5 -103.5t148.5 -30.5q110 0 174.5 61t64.5 167q0 173 -197 275
q-1 1 -6 3.5t-13.5 7t-14.5 7.5q-8 4 -19 10z" />
    <glyph glyph-name="uni00B9" unicode="&#xb9;" horiz-adv-x="445" 
d="M222 1405v-439h135l-1 652h-104l-164 -153l80 -110z" />
    <glyph glyph-name="ordmasculine" unicode="&#xba;" horiz-adv-x="619" 
d="M558 1318q0 113 -65.5 184.5t-181.5 71.5q-87 0 -149.5 -42t-88.5 -120l-13 16v-33q0 -13 -0.5 -38.5t-0.5 -38.5q0 -24 0.5 -70t0.5 -69q0 -114 67 -184.5t183 -70.5q115 0 181.5 71t66.5 184v139zM423 1312v-125q0 -56 -30 -91.5t-84 -35.5q-55 0 -84.5 35.5
t-29.5 91.5v125q0 56 29.5 91t84.5 35t84.5 -35t29.5 -91z" />
    <glyph glyph-name="guillemotright" unicode="&#xbb;" horiz-adv-x="947" 
d="M432 749l-344 -462h184l339 462l-339 462h-184zM680 749l-347 -462h186l340 462l-340 462h-186z" />
    <glyph glyph-name="questiondown" unicode="&#xbf;" horiz-adv-x="1131" 
d="M471 1113q0 -43 30 -73.5t74 -30.5q45 0 75 30.5t30 73.5q0 45 -29.5 74t-75.5 29q-45 0 -74.5 -29.5t-29.5 -73.5zM88 113q0 -193 126.5 -300t325.5 -107q225 0 352 108t150 325l1 8l-132 57l-2 -15q-26 -177 -109.5 -260.5t-259.5 -83.5q-135 0 -222 70.5t-87 197.5
q0 190 138 285q24 17 79 42q99 43 189 65l9 3v390h-143v-286q-144 -45 -237 -112.5t-145 -188.5q-33 -74 -33 -198z" />
    <glyph glyph-name="Agrave" unicode="&#xc0;" horiz-adv-x="1517" 
d="M803 1659h160l-240 417h-170zM88 0h162l217 578h584l217 -578h161l-602 1608h-136zM521 726l237 644l239 -644h-476z" />
    <glyph glyph-name="Aacute" unicode="&#xc1;" horiz-adv-x="1517" 
d="M556 1676h163l248 416h-168zM88 0h162l217 578h584l217 -578h161l-602 1608h-136zM521 726l237 644l239 -644h-476z" />
    <glyph glyph-name="Acircumflex" unicode="&#xc2;" horiz-adv-x="1517" 
d="M372 1676h177l182 233l180 -233h175l-308 406h-93zM88 0h162l217 578h584l217 -578h161l-602 1608h-136zM521 726l237 644l239 -644h-476z" />
    <glyph glyph-name="Atilde" unicode="&#xc3;" horiz-adv-x="1517" 
d="M675 1877h-9l31 -26q14 -13 38 -39q19 -19 38 -34q45 -35 106 -35q146 0 185 173q3 12 6.5 34t4.5 29l8 44l3 14h-146l-1 -10l-12 -66q-8 -41 -20 -59q-7 -10 -28 -10q-25 0 -52 38q-1 2 -3 4.5t-5 5.5t-4 5q-8 10 -12 14q-35 40 -70.5 58t-86.5 18q-141 0 -185 -171
q-6 -22 -12 -64l-11 -59h146l2 10q1 6 5 29.5t7 36.5q9 40 22 61q5 8 24 8q10 0 20 -3l2 -1q2 -2 3 -2q5 -2 6 -3zM88 0h162l217 578h584l217 -578h161l-602 1608h-136zM521 726l237 644l239 -644h-476z" />
    <glyph glyph-name="Adieresis" unicode="&#xc4;" horiz-adv-x="1517" 
d="M466 1807q0 -45 27 -73t73 -28q49 0 75 27t26 74q0 45 -27.5 72.5t-73.5 27.5q-48 0 -74 -26.5t-26 -73.5zM850 1807q0 -44 29 -72.5t74 -28.5q48 0 74 27t26 74q0 48 -25 72q-28 28 -75 28q-45 0 -74 -27.5t-29 -72.5zM88 0h162l217 578h584l217 -578h161l-602 1608
h-136zM521 726l237 644l239 -644h-476z" />
    <glyph glyph-name="Aring" unicode="&#xc5;" horiz-adv-x="1517" 
d="M532 1913q0 -93 65 -157t161 -64q103 0 165.5 60.5t62.5 160.5q0 101 -62.5 161.5t-165.5 60.5q-97 0 -161.5 -63.5t-64.5 -158.5zM843 1913q0 -36 -24 -59.5t-61 -23.5q-34 0 -57 24.5t-23 58.5q0 36 22 59t58 23q38 0 61.5 -22.5t23.5 -59.5zM88 0h162l217 578h584
l217 -578h161l-602 1608h-136zM521 726l237 644l239 -644h-476z" />
    <glyph glyph-name="AE" unicode="&#xc6;" horiz-adv-x="1789" 
d="M88 0h162l217 578h213v-577l1015 3v146h-864v639h614l5 148h-622v527h867v145h-1015v-12v-12v-6zM521 726l159 429v-429h-159z" />
    <glyph glyph-name="Ccedilla" unicode="&#xc7;" horiz-adv-x="1306" 
d="M394 -299q52 -73 110 -103.5t149 -30.5q109 0 174.5 60.5t65.5 167.5q0 117 -85 197q273 56 406 360l4 10l-126 79l-5 -13q-127 -302 -406 -302q-92 0 -167.5 32.5t-127 86.5t-86.5 127t-51 153t-16 165v230q0 85 15.5 164.5t50.5 152t86 126.5t127 86t168 32
q280 0 407 -303l5 -13l126 84l-4 9q-78 175 -211.5 272t-322.5 97q-177 0 -313.5 -92t-209.5 -252q-69 -149 -69 -365v-228q0 -93 18.5 -184t55 -177.5t99.5 -159.5t145 -120q38 -22 88 -40q26 -8 32 -10t16 -4q8 -1 15 -4l28 -15q26 -14 29 -15q138 -83 138 -168
q0 -44 -26.5 -67.5t-72.5 -23.5q-90 0 -169 113l-10 14l-85 -121z" />
    <glyph glyph-name="Egrave" unicode="&#xc8;" horiz-adv-x="1189" 
d="M389 2076l250 -417h159l-240 417h-169zM88 1608v-1608l1013 3v146h-863v639h616l4 148h-623v527h866v145h-1013z" />
    <glyph glyph-name="Eacute" unicode="&#xc9;" horiz-adv-x="1189" 
d="M635 2092l-243 -416h162l249 416h-168zM88 1608v-1608l1013 3v146h-863v639h616l4 148h-623v527h866v145h-1013z" />
    <glyph glyph-name="Ecircumflex" unicode="&#xca;" horiz-adv-x="1189" 
d="M518 2082l-309 -406h176l182 233l180 -233h175l-308 406h-96zM88 1608v-1608l1013 3v146h-863v639h616l4 148h-623v527h866v145h-1013z" />
    <glyph glyph-name="Edieresis" unicode="&#xcb;" horiz-adv-x="1189" 
d="M301 1807q0 -45 28 -73t73 -28q49 0 75 27t26 74t-26 72q-28 28 -75 28q-48 0 -74.5 -26.5t-26.5 -73.5zM686 1807q0 -43 28 -72t73 -29q49 0 75.5 26.5t26.5 74.5q0 46 -27.5 73t-74.5 27q-45 0 -73 -27.5t-28 -72.5zM88 1608v-1608l1013 3v146h-863v639h616l4 148h-623
v527h866v145h-1013z" />
    <glyph glyph-name="Igrave" unicode="&#xcc;" horiz-adv-x="397" 
d="M-41 2098l256 -420h162l-242 420h-176zM25 1609v-1609h155l-3 1609h-152z" />
    <glyph glyph-name="Iacute" unicode="&#xcd;" horiz-adv-x="389" 
d="M233 2092l-244 -416h162l250 416h-168zM116 1608v-1608h150l-3 1608h-147z" />
    <glyph glyph-name="Icircumflex" unicode="&#xce;" horiz-adv-x="397" 
d="M150 2082l-308 -406h176l181 233l182 -233h174l-307 406h-98zM151 1608v-1608h150l-3 1608h-147z" />
    <glyph glyph-name="Idieresis" unicode="&#xcf;" horiz-adv-x="304" 
d="M-142 1807q0 -43 28 -72t72 -29q49 0 75.5 27t26.5 74t-26 72q-28 28 -76 28t-74 -26.5t-26 -73.5zM242 1807q0 -43 29.5 -72t73.5 -29q49 0 75 27t26 74q0 45 -27.5 72.5t-73.5 27.5q-45 0 -74 -27.5t-29 -72.5zM78 1608v-1608h149l-2 1608h-147z" />
    <glyph glyph-name="Ntilde" unicode="&#xd1;" horiz-adv-x="1191" 
d="M285 1800q-2 -7 -4.5 -22.5t-3.5 -22.5l-3 -14h145l2 10q10 55 13 66q9 39 22 61q5 8 23 8q17 0 23 -3q11 -5 19 -20q1 -1 3 -4t3 -4l4 -3q5 -5 19 -19.5t23 -23.5q28 -28 44 -39q37 -27 98 -27q141 0 185 173q3 12 6.5 34t4.5 29l8 44l3 14h-145l-2 -10q-1 -5 -5.5 -28
t-7.5 -38q-13 -51 -19 -59q-7 -10 -28 -10q-12 0 -28 12t-24 25q-1 2 -4 5q-2 2 -3 4l-2 3l-1 1q-6 10 -9 14q-6 10 -10 14q-54 65 -153 65q-141 0 -185 -172q-5 -21 -11 -63zM88 1608v-1608h150l-2 1270l740 -1270h127v1608h-147l-2 -1267l-736 1267h-130z" />
    <glyph glyph-name="Ograve" unicode="&#xd2;" 
d="M723 1659h160l-240 417h-169zM88 690q0 -107 21.5 -208t69 -192.5t115.5 -160t167.5 -109t218.5 -40.5q122 0 221.5 39.5t167 107t113.5 159t67 192.5t21 211v228q0 109 -21 209.5t-67.5 192.5t-114 160t-167 108t-220.5 40q-181 0 -315 -90t-208 -254q-69 -150 -69 -365
v-228zM1125 689q0 -86 -15 -165.5t-49 -153t-84.5 -127t-126.5 -85.5t-169 -32q-114 0 -202.5 49t-140.5 130.5t-78.5 179.5t-26.5 205v230q0 85 15.5 164.5t50.5 152t86 126.5t127 86t168 32q131 0 235 -72t156 -193q54 -124 54 -297v-230z" />
    <glyph glyph-name="Oacute" unicode="&#xd3;" 
d="M478 1676h162l248 416h-168zM88 690q0 -107 21.5 -208t69 -192.5t115.5 -160t167.5 -109t218.5 -40.5q122 0 221.5 39.5t167 107t113.5 159t67 192.5t21 211v228q0 109 -21 209.5t-67.5 192.5t-114 160t-167 108t-220.5 40q-181 0 -315 -90t-208 -254q-69 -150 -69 -365
v-228zM1125 689q0 -86 -15 -165.5t-49 -153t-84.5 -127t-126.5 -85.5t-169 -32q-114 0 -202.5 49t-140.5 130.5t-78.5 179.5t-26.5 205v230q0 85 15.5 164.5t50.5 152t86 126.5t127 86t168 32q131 0 235 -72t156 -193q54 -124 54 -297v-230z" />
    <glyph glyph-name="Ocircumflex" unicode="&#xd4;" 
d="M292 1676h178l181 233l181 -233h175l-307 406h-96zM88 690q0 -107 21.5 -208t69 -192.5t115.5 -160t167.5 -109t218.5 -40.5q122 0 221.5 39.5t167 107t113.5 159t67 192.5t21 211v228q0 109 -21 209.5t-67.5 192.5t-114 160t-167 108t-220.5 40q-181 0 -315 -90
t-208 -254q-69 -150 -69 -365v-228zM1125 689q0 -86 -15 -165.5t-49 -153t-84.5 -127t-126.5 -85.5t-169 -32q-114 0 -202.5 49t-140.5 130.5t-78.5 179.5t-26.5 205v230q0 85 15.5 164.5t50.5 152t86 126.5t127 86t168 32q131 0 235 -72t156 -193q54 -124 54 -297v-230z
" />
    <glyph glyph-name="Otilde" unicode="&#xd5;" 
d="M751 1922q0 2 -1 2q0 1 -4 7q-37 51 -78.5 77.5t-100.5 26.5q-143 0 -186 -172q-6 -21 -12 -63l-11 -59h147l2 10q10 56 12 66q9 37 22 61q5 8 23 8q17 0 20 -3q2 0 6 -4q3 -2 9 -8q11 -12 16 -19q45 -53 88 -82q41 -27 96 -27q145 0 186 173l12 63l8 44l3 14h-146
l-1 -10q-15 -97 -33 -125q-7 -10 -29 -10t-46 28q0 2 -2 2zM88 690q0 -107 21.5 -208t69 -192.5t115.5 -160t167.5 -109t218.5 -40.5q122 0 221.5 39.5t167 107t113.5 159t67 192.5t21 211v228q0 109 -21 209.5t-67.5 192.5t-114 160t-167 108t-220.5 40q-181 0 -315 -90
t-208 -254q-69 -150 -69 -365v-228zM1125 689q0 -86 -15 -165.5t-49 -153t-84.5 -127t-126.5 -85.5t-169 -32q-114 0 -202.5 49t-140.5 130.5t-78.5 179.5t-26.5 205v230q0 85 15.5 164.5t50.5 152t86 126.5t127 86t168 32q131 0 235 -72t156 -193q54 -124 54 -297v-230z
" />
    <glyph glyph-name="Odieresis" unicode="&#xd6;" 
d="M386 1807q0 -45 27 -73t73 -28q49 0 75 26.5t26 74.5q0 46 -27.5 73t-73.5 27q-48 0 -74 -26.5t-26 -73.5zM769 1807q0 -43 30.5 -72t74.5 -29q48 0 73.5 27t25.5 74q0 48 -25 72q-28 28 -74 28q-45 0 -75 -28t-30 -72zM88 690q0 -107 21.5 -208t69 -192.5t115.5 -160
t167.5 -109t218.5 -40.5q122 0 221.5 39.5t167 107t113.5 159t67 192.5t21 211v228q0 109 -21 209.5t-67.5 192.5t-114 160t-167 108t-220.5 40q-181 0 -315 -90t-208 -254q-69 -150 -69 -365v-228zM1125 689q0 -86 -15 -165.5t-49 -153t-84.5 -127t-126.5 -85.5t-169 -32
q-114 0 -202.5 49t-140.5 130.5t-78.5 179.5t-26.5 205v230q0 85 15.5 164.5t50.5 152t86 126.5t127 86t168 32q131 0 235 -72t156 -193q54 -124 54 -297v-230z" />
    <glyph glyph-name="multiply" unicode="&#xd7;" horiz-adv-x="1081" 
d="M88 427l108 -106l344 344l347 -344l104 106l-342 344l344 344l-106 105l-347 -342l-344 340l-108 -103l346 -344z" />
    <glyph glyph-name="Oslash" unicode="&#xd8;" 
d="M312 -155h153l52 156q78 -21 163 -21q122 0 221.5 39.5t167 107t113.5 159t67 192.5t21 211v228q0 117 -22.5 223.5t-82 211t-150.5 171.5l33 96h-155l-9 -25q-87 33 -204 33q-181 0 -316 -90.5t-207 -253.5q-69 -151 -69 -365v-228q0 -123 28 -237.5t96.5 -221.5
t170.5 -171zM839 1452l-409 -1245q-101 77 -149 207.5t-48 275.5v230q0 85 15.5 164.5t50.5 152t86 126.5t127 86t168 32q85 0 159 -29zM1125 689q0 -86 -15 -165.5t-49.5 -153t-85 -127t-126 -85.5t-168.5 -32q-61 0 -120 15l404 1231q84 -77 122 -198.5t38 -254.5v-230z
" />
    <glyph glyph-name="Ugrave" unicode="&#xd9;" 
d="M474 2076l249 -417h160l-240 417h-169zM88 690q0 -107 21.5 -208t69 -192.5t115.5 -160t167.5 -109t218.5 -40.5q122 0 221.5 39.5t167 107t113.5 159t67 192.5t21 211v919h-145v-919q0 -86 -15 -165.5t-49 -153t-84.5 -127t-126.5 -85.5t-169 -32q-114 0 -202.5 49
t-140.5 130.5t-78.5 179.5t-26.5 205v918h-145v-918z" />
    <glyph glyph-name="Uacute" unicode="&#xda;" 
d="M720 2092l-242 -416h162l248 416h-168zM88 690q0 -107 21.5 -208t69 -192.5t115.5 -160t167.5 -109t218.5 -40.5q122 0 221.5 39.5t167 107t113.5 159t67 192.5t21 211v919h-145v-919q0 -86 -15 -165.5t-49 -153t-84.5 -127t-126.5 -85.5t-169 -32q-114 0 -202.5 49
t-140.5 130.5t-78.5 179.5t-26.5 205v918h-145v-918z" />
    <glyph glyph-name="Ucircumflex" unicode="&#xdb;" 
d="M604 2082l-312 -406h178l181 233l181 -233h175l-307 406h-96zM88 690q0 -107 21.5 -208t69 -192.5t115.5 -160t167.5 -109t218.5 -40.5q122 0 221.5 39.5t167 107t113.5 159t67 192.5t21 211v919h-145v-919q0 -86 -15 -165.5t-49 -153t-84.5 -127t-126.5 -85.5t-169 -32
q-114 0 -202.5 49t-140.5 130.5t-78.5 179.5t-26.5 205v918h-145v-918z" />
    <glyph glyph-name="Udieresis" unicode="&#xdc;" 
d="M386 1807q0 -45 27 -73t73 -28q49 0 75 26.5t26 74.5q0 46 -27.5 73t-73.5 27q-48 0 -74 -26.5t-26 -73.5zM769 1807q0 -43 30.5 -72t74.5 -29q48 0 73.5 27t25.5 74q0 48 -25 72q-28 28 -74 28q-45 0 -75 -28t-30 -72zM88 690q0 -107 21.5 -208t69 -192.5t115.5 -160
t167.5 -109t218.5 -40.5q122 0 221.5 39.5t167 107t113.5 159t67 192.5t21 211v919h-145v-919q0 -86 -15 -165.5t-49 -153t-84.5 -127t-126.5 -85.5t-169 -32q-114 0 -202.5 49t-140.5 130.5t-78.5 179.5t-26.5 205v918h-145v-918z" />
    <glyph glyph-name="Yacute" unicode="&#xdd;" horiz-adv-x="1363" 
d="M722 2092l-244 -416h163l249 416h-168zM607 804v-804h146v802l522 806h-182l-411 -662l-418 662h-176z" />
    <glyph glyph-name="germandbls" unicode="&#xdf;" horiz-adv-x="1164" 
d="M88 1157l1 -1564h149v12q-1 400 -1 1200q0 59 -1 178t-1 179q0 136 93.5 214.5t236.5 78.5q138 0 237 -81.5t99 -211.5t-98 -206t-236 -76h-82v-144h82q98 0 182.5 -34.5t139 -106.5t54.5 -168q0 -142 -106.5 -221.5t-259.5 -79.5q-33 0 -78 7l-14 2v-151l11 -1
q36 -3 72 -3q146 0 262.5 49t188.5 153.5t72 250.5q0 124 -65.5 223t-178.5 156q97 55 149 143.5t52 201.5q0 206 -135 325.5t-348 119.5q-212 0 -344.5 -119.5t-132.5 -325.5z" />
    <glyph glyph-name="agrave" unicode="&#xe0;" horiz-adv-x="1104" 
d="M755 1217l-237 411h-168l246 -411h159zM869 707h-222q-147 0 -278.5 -40.5t-209.5 -135.5q-71 -87 -71 -207q0 -159 111.5 -252t276.5 -93q233 0 393 142v-122h146l1 673q0 174 -52 272q-57 108 -159 166t-228 58q-206 0 -322 -129t-116 -331v-53h145v11q0 72 17 133.5
t51.5 110.5t92 77t132.5 28q108 0 186 -60t99 -162q7 -33 7 -86zM869 562l-1 -211q0 -2 -2 -6l-11 -17q-4 -8 -17 -27q-60 -88 -154.5 -132.5t-207.5 -44.5q-95 0 -168.5 54.5t-73.5 141.5q0 54 28 97t71.5 69.5t100 44t110 24.5t106.5 7h219z" />
    <glyph glyph-name="aacute" unicode="&#xe1;" horiz-adv-x="1104" 
d="M758 1644h-166l-240 -410h162zM869 707h-222q-147 0 -278.5 -40.5t-209.5 -135.5q-71 -87 -71 -207q0 -159 111.5 -252t276.5 -93q233 0 393 142v-122h146l1 673q0 174 -52 272q-57 108 -159 166t-228 58q-206 0 -322 -129t-116 -331v-53h145v11q0 72 17 133.5
t51.5 110.5t92 77t132.5 28q108 0 186 -60t99 -162q7 -33 7 -86zM869 562l-1 -211q0 -2 -2 -6l-11 -17q-4 -8 -17 -27q-60 -88 -154.5 -132.5t-207.5 -44.5q-95 0 -168.5 54.5t-73.5 141.5q0 54 28 97t71.5 69.5t100 44t110 24.5t106.5 7h219z" />
    <glyph glyph-name="acircumflex" unicode="&#xe2;" horiz-adv-x="1104" 
d="M526 1462l177 -228h173l-304 401h-94l-306 -401h175zM869 707h-222q-147 0 -278.5 -40.5t-209.5 -135.5q-71 -87 -71 -207q0 -159 111.5 -252t276.5 -93q233 0 393 142v-122h146l1 673q0 174 -52 272q-57 108 -159 166t-228 58q-206 0 -322 -129t-116 -331v-53h145v11
q0 72 17 133.5t51.5 110.5t92 77t132.5 28q108 0 186 -60t99 -162q7 -33 7 -86zM869 562l-1 -211q0 -2 -2 -6l-11 -17q-4 -8 -17 -27q-60 -88 -154.5 -132.5t-207.5 -44.5q-95 0 -168.5 54.5t-73.5 141.5q0 54 28 97t71.5 69.5t100 44t110 24.5t106.5 7h219z" />
    <glyph glyph-name="atilde" unicode="&#xe3;" horiz-adv-x="1104" 
d="M237 1295h144l2 10q1 4 5 28.5t7 36.5q6 34 22 60q3 7 21 7q16 0 24.5 -5.5t23.5 -22.5l4 -4q18 -19 37 -37q19 -19 40 -34q49 -37 104 -37q141 0 183 170q3 12 6.5 34t4.5 29q2 8 4.5 22t3.5 21l3 14h-144l-2 -10q-9 -50 -13 -64q-10 -41 -19 -58q-6 -10 -27 -10
q-9 0 -22.5 8.5t-21.5 17.5l-3 3l-4 8q-1 2 -4 5l-3 3l-3 3l-2 2q-34 46 -72.5 68t-94.5 22q-142 0 -182 -170q-5 -19 -11 -61q-2 -8 -4 -23t-4 -22zM869 707h-222q-147 0 -278.5 -40.5t-209.5 -135.5q-71 -87 -71 -207q0 -159 111.5 -252t276.5 -93q233 0 393 142v-122h146
l1 673q0 174 -52 272q-57 108 -159 166t-228 58q-206 0 -322 -129t-116 -331v-53h145v11q0 72 17 133.5t51.5 110.5t92 77t132.5 28q108 0 186 -60t99 -162q7 -33 7 -86zM869 562l-1 -211q0 -2 -2 -6l-11 -17q-4 -8 -17 -27q-60 -88 -154.5 -132.5t-207.5 -44.5
q-95 0 -168.5 54.5t-73.5 141.5q0 54 28 97t71.5 69.5t100 44t110 24.5t106.5 7h219z" />
    <glyph glyph-name="adieresis" unicode="&#xe4;" horiz-adv-x="1104" 
d="M362 1461q-47 0 -73 -26t-26 -73q0 -41 28.5 -69.5t70.5 -28.5q48 0 74 26t26 72t-26 72.5t-74 26.5zM641 1362q0 -43 31 -72q26 -26 71 -26q47 0 73.5 26t26.5 72q0 45 -27 72t-73 27q-45 0 -73.5 -27t-28.5 -72zM869 707h-222q-147 0 -278.5 -40.5t-209.5 -135.5
q-71 -87 -71 -207q0 -159 111.5 -252t276.5 -93q233 0 393 142v-122h146l1 673q0 174 -52 272q-57 108 -159 166t-228 58q-206 0 -322 -129t-116 -331v-53h145v11q0 72 17 133.5t51.5 110.5t92 77t132.5 28q108 0 186 -60t99 -162q7 -33 7 -86zM869 562l-1 -211q0 -2 -2 -6
l-11 -17q-4 -8 -17 -27q-60 -88 -154.5 -132.5t-207.5 -44.5q-95 0 -168.5 54.5t-73.5 141.5q0 54 28 97t71.5 69.5t100 44t110 24.5t106.5 7h219z" />
    <glyph glyph-name="aring" unicode="&#xe5;" horiz-adv-x="1104" 
d="M330 1467q0 -93 63.5 -155t158.5 -62q101 0 162 59.5t61 157.5q0 100 -60.5 159.5t-162.5 59.5q-97 0 -159.5 -62t-62.5 -157zM473 1467q0 35 22 57t57 22q37 0 59.5 -21.5t22.5 -57.5q0 -35 -23 -58t-59 -23q-33 0 -56 24t-23 57zM869 707h-222q-147 0 -278.5 -40.5
t-209.5 -135.5q-71 -87 -71 -207q0 -159 111.5 -252t276.5 -93q233 0 393 142v-122h146l1 673q0 174 -52 272q-57 108 -159 166t-228 58q-206 0 -322 -129t-116 -331v-53h145v11q0 72 17 133.5t51.5 110.5t92 77t132.5 28q108 0 186 -60t99 -162q7 -33 7 -86zM869 562
l-1 -211q0 -2 -2 -6l-11 -17q-4 -8 -17 -27q-60 -88 -154.5 -132.5t-207.5 -44.5q-95 0 -168.5 54.5t-73.5 141.5q0 54 28 97t71.5 69.5t100 44t110 24.5t106.5 7h219z" />
    <glyph glyph-name="ae" unicode="&#xe6;" horiz-adv-x="1830" 
d="M869 707h-222q-147 0 -278.5 -40.5t-209.5 -135.5q-71 -86 -71 -207q0 -159 111.5 -252t276.5 -93q233 0 393 142v-122h146v91q113 -103 294 -103q131 0 232 63.5t159 179.5l4 8l-116 95l-7 -14q-96 -184 -273 -184q-102 0 -182 62.5t-102 159.5q-9 35 -9 98v111h726v11
q0 164 -2 188q-10 105 -50 184q-56 109 -152.5 164t-223.5 55q-249 0 -376 -195q-12 14 -37 40t-37 40l-24 26q-5 5 -13 15q-2 1 -7 6t-9 8q-7 5 -14 9q-3 1 -11 5q-95 46 -208 46q-206 0 -322 -129t-116 -331v-53h145v11q0 72 17 133.5t51.5 110.5t92 77t132.5 28
q105 0 184.5 -61.5t100.5 -160.5q7 -33 7 -86zM1598 711h-582v27q0 32 15 79q28 94 102.5 150.5t174.5 56.5t180.5 -64t101.5 -159q8 -37 8 -90zM869 562l-1 -211q0 -2 -2 -6l-11 -17q-4 -8 -17 -27q-60 -88 -154.5 -132.5t-207.5 -44.5q-95 0 -168.5 54.5t-73.5 141.5
q0 54 28 97t71.5 69.5t100 44t110 24.5t106.5 7h219z" />
    <glyph glyph-name="ccedilla" unicode="&#xe7;" horiz-adv-x="1008" 
d="M100 659l-11 11v-223q0 -144 53 -243q65 -128 195 -186q17 -8 53 -20q3 -1 9 -2t9 -2l12 -7q1 -1 3.5 -2.5t3.5 -2.5q2 0 5 -2t4 -2l1 -1q165 -81 165 -180q0 -43 -26 -66t-71 -23q-90 0 -166 112l-10 15l-84 -121l5 -7q53 -73 109 -103t146 -30q108 0 172 60t64 165
q0 120 -88 199q172 48 263 227l4 8l-115 95l-7 -14q-98 -183 -273 -183q-108 0 -185 60t-100 162q-9 40 -9 97v250q0 141 76.5 230t217.5 89q176 0 273 -185l7 -13l115 95l-4 7q-59 117 -160 181t-233 64q-201 0 -318 -129.5t-117 -327.5q0 -39 12 -52z" />
    <glyph glyph-name="egrave" unicode="&#xe8;" horiz-adv-x="1046" 
d="M566 1217h160l-238 411h-168zM142 208q59 -109 157.5 -165t226.5 -56q131 0 231.5 63.5t158.5 179.5l4 8l-115 95l-7 -14q-97 -184 -273 -184q-102 0 -181.5 62t-103.5 160q-9 35 -9 98v111h727v11q0 151 -3 188q-8 105 -49 184q-54 108 -153.5 163.5t-225.5 55.5
q-210 0 -324.5 -126t-114.5 -332q0 -43 0.5 -129t0.5 -129q0 -146 53 -244zM815 711h-584q4 140 79 226.5t215 86.5q103 0 181 -62t101 -161q8 -33 8 -90z" />
    <glyph glyph-name="eacute" unicode="&#xe9;" horiz-adv-x="1046" 
d="M323 1234h162l244 410h-167zM142 208q59 -109 157.5 -165t226.5 -56q131 0 231.5 63.5t158.5 179.5l4 8l-115 95l-7 -14q-97 -184 -273 -184q-102 0 -181.5 62t-103.5 160q-9 35 -9 98v111h727v11q0 151 -3 188q-8 105 -49 184q-54 108 -153.5 163.5t-225.5 55.5
q-210 0 -324.5 -126t-114.5 -332q0 -43 0.5 -129t0.5 -129q0 -146 53 -244zM815 711h-584q4 140 79 226.5t215 86.5q103 0 181 -62t101 -161q8 -33 8 -90z" />
    <glyph glyph-name="ecircumflex" unicode="&#xea;" horiz-adv-x="1046" 
d="M144 1234h174l179 228l177 -228h173l-304 401h-94zM142 208q59 -109 157.5 -165t226.5 -56q131 0 231.5 63.5t158.5 179.5l4 8l-115 95l-7 -14q-97 -184 -273 -184q-102 0 -181.5 62t-103.5 160q-9 35 -9 98v111h727v11q0 151 -3 188q-8 105 -49 184
q-54 108 -153.5 163.5t-225.5 55.5q-210 0 -324.5 -126t-114.5 -332q0 -43 0.5 -129t0.5 -129q0 -146 53 -244zM815 711h-584q4 140 79 226.5t215 86.5q103 0 181 -62t101 -161q8 -33 8 -90z" />
    <glyph glyph-name="edieresis" unicode="&#xeb;" horiz-adv-x="1046" 
d="M233 1362q0 -42 28.5 -70t71.5 -28q48 0 73.5 26t25.5 72q0 49 -25 74q-26 25 -74 25t-74 -26t-26 -73zM612 1362q0 -42 29 -70t72 -28q47 0 73 26.5t26 71.5q0 46 -26 72.5t-73 26.5q-45 0 -73 -27t-28 -72zM142 208q59 -109 157.5 -165t226.5 -56q131 0 231.5 63.5
t158.5 179.5l4 8l-115 95l-7 -14q-97 -184 -273 -184q-102 0 -181.5 62t-103.5 160q-9 35 -9 98v111h727v11q0 151 -3 188q-8 105 -49 184q-54 108 -153.5 163.5t-225.5 55.5q-210 0 -324.5 -126t-114.5 -332q0 -43 0.5 -129t0.5 -129q0 -146 53 -244zM815 711h-584
q4 140 79 226.5t215 86.5q103 0 181 -62t101 -161q8 -33 8 -90z" />
    <glyph glyph-name="igrave" unicode="&#xec;" horiz-adv-x="445" 
d="M19 1628l247 -411h160l-238 411h-169zM149 1167v-1167h146v1167h-146z" />
    <glyph glyph-name="iacute" unicode="&#xed;" horiz-adv-x="445" 
d="M260 1644l-241 -410h162l245 410h-166zM146 1167v-1167h146v1167h-146z" />
    <glyph glyph-name="icircumflex" unicode="&#xee;" horiz-adv-x="448" 
d="M178 1635l-306 -401h175l178 228l178 -228h172l-303 401h-94zM179 1167v-1167h146v1167h-146z" />
    <glyph glyph-name="idieresis" unicode="&#xef;" horiz-adv-x="357" 
d="M-112 1362q0 -42 28 -70t71 -28q49 0 75 25.5t26 72.5t-26.5 73t-74.5 26q-47 0 -73 -26t-26 -73zM267 1362q0 -43 28.5 -70.5t72.5 -27.5q48 0 74 26t26 72q0 45 -27 72t-73 27q-45 0 -73 -27t-28 -72zM105 1167v-1167h146v1167h-146z" />
    <glyph glyph-name="ntilde" unicode="&#xf1;" horiz-adv-x="1054" 
d="M259 1488q-29 -58 -44 -179l-2 -14h141l2 10q2 8 5.5 30.5t6.5 34.5q9 41 20 60q2 3 9 5q4 2 16 2q14 0 22.5 -5.5t23.5 -22.5q25 -27 39 -41t39 -33.5t51.5 -28.5t57.5 -9q138 0 181 170l12 63q2 8 4.5 22t3.5 21l3 14h-144l-2 -10q-3 -21 -12 -64q-10 -43 -21 -58
q-7 -10 -25 -10q-22 0 -46 26l-3 3q0 1 -4 8l-3 4q-2 2 -3 4l-3 2l-1 1q-1 1 -1 2q-66 90 -166 90q-108 0 -157 -97zM822 2l142 -4v12q2 472 2 709q0 195 -119 322.5t-318 127.5q-176 0 -299 -107v103h-142v-1165h142v12v693q0 35 15 89q29 106 102 166.5t182 60.5
q86 0 155.5 -44t107.5 -120q16 -35 22 -60q8 -34 8 -95v-700z" />
    <glyph glyph-name="ograve" unicode="&#xf2;" horiz-adv-x="1047" 
d="M726 1217l-238 411h-168l246 -411h160zM100 661l-11 11q0 -40 -0.5 -119t-0.5 -118q0 -197 118 -321.5t320 -124.5q141 0 239.5 60.5t145.5 162.5t47 237l1 223v41q0 200 -114 326t-318 126q-207 0 -323 -124.5t-116 -327.5q0 -39 12 -52zM815 702v-250
q0 -139 -76 -229.5t-214 -90.5q-108 0 -185.5 60.5t-99.5 162.5q-9 41 -9 97v250q0 140 77 229.5t217 89.5q101 0 180 -63t102 -161q8 -34 8 -95z" />
    <glyph glyph-name="oacute" unicode="&#xf3;" horiz-adv-x="1047" 
d="M729 1644h-167l-239 -410h162zM100 661l-11 11q0 -40 -0.5 -119t-0.5 -118q0 -197 118 -321.5t320 -124.5q141 0 239.5 60.5t145.5 162.5t47 237l1 223v41q0 200 -114 326t-318 126q-207 0 -323 -124.5t-116 -327.5q0 -39 12 -52zM815 702v-250q0 -139 -76 -229.5
t-214 -90.5q-108 0 -185.5 60.5t-99.5 162.5q-9 41 -9 97v250q0 140 77 229.5t217 89.5q101 0 180 -63t102 -161q8 -34 8 -95z" />
    <glyph glyph-name="ocircumflex" unicode="&#xf4;" horiz-adv-x="1047" 
d="M497 1462l177 -228h173l-304 401h-94l-305 -401h174zM100 661l-11 11q0 -40 -0.5 -119t-0.5 -118q0 -197 118 -321.5t320 -124.5q141 0 239.5 60.5t145.5 162.5t47 237l1 223v41q0 200 -114 326t-318 126q-207 0 -323 -124.5t-116 -327.5q0 -39 12 -52zM815 702v-250
q0 -139 -76 -229.5t-214 -90.5q-108 0 -185.5 60.5t-99.5 162.5q-9 41 -9 97v250q0 140 77 229.5t217 89.5q101 0 180 -63t102 -161q8 -34 8 -95z" />
    <glyph glyph-name="otilde" unicode="&#xf5;" horiz-adv-x="1047" 
d="M594 1473v2q-1 1 -2.5 3.5t-2.5 3.5q-2 3 -6 7.5t-5 5.5q-35 45 -73 67.5t-93 22.5q-141 0 -183 -170q-5 -19 -11 -61q-2 -8 -4 -23t-4 -22l-3 -14h144l1 10q1 7 5 30t7 35q8 36 22 60q5 7 23 7q14 0 22.5 -5.5t23.5 -22.5q25 -28 38.5 -41.5t39 -33.5t52 -28.5
t57.5 -8.5q138 0 181 170l12 63q2 8 4.5 22t3.5 21l3 14h-144l-1 -10q-1 -3 -5 -26.5t-8 -38.5q-10 -44 -20 -57q-7 -10 -26 -10q-22 0 -45 25zM100 661l-11 11q0 -40 -0.5 -119t-0.5 -118q0 -197 118 -321.5t320 -124.5q141 0 239.5 60.5t145.5 162.5t47 237l1 223v41
q0 200 -114 326t-318 126q-207 0 -323 -124.5t-116 -327.5q0 -39 12 -52zM815 702v-250q0 -139 -76 -229.5t-214 -90.5q-108 0 -185.5 60.5t-99.5 162.5q-9 41 -9 97v250q0 140 77 229.5t217 89.5q101 0 180 -63t102 -161q8 -34 8 -95z" />
    <glyph glyph-name="odieresis" unicode="&#xf6;" horiz-adv-x="1047" 
d="M334 1461q-48 0 -74 -26t-26 -73q0 -42 28.5 -70t71.5 -28q47 0 73 26t26 72q0 49 -25 74q-26 25 -74 25zM714 1461q-45 0 -73 -27t-28 -72q0 -43 28.5 -70.5t72.5 -27.5q47 0 73 26.5t26 71.5q0 46 -26 72.5t-73 26.5zM100 661l-11 11q0 -40 -0.5 -119t-0.5 -118
q0 -197 118 -321.5t320 -124.5q141 0 239.5 60.5t145.5 162.5t47 237l1 223v41q0 200 -114 326t-318 126q-207 0 -323 -124.5t-116 -327.5q0 -39 12 -52zM815 702v-250q0 -139 -76 -229.5t-214 -90.5q-108 0 -185.5 60.5t-99.5 162.5q-9 41 -9 97v250q0 140 77 229.5
t217 89.5q101 0 180 -63t102 -161q8 -34 8 -95z" />
    <glyph glyph-name="divide" unicode="&#xf7;" horiz-adv-x="1228" 
d="M512 1167q0 -45 28 -73t73 -28q101 0 101 101q0 16 -7 40t-17 34q-12 12 -36 18.5t-41 6.5q-101 0 -101 -99zM88 848v-138h1052v138h-1052zM512 397q0 -45 28 -73t73 -28q101 0 101 101q0 16 -7 40t-17 34q-11 10 -36 17.5t-41 7.5q-101 0 -101 -99z" />
    <glyph glyph-name="oslash" unicode="&#xf8;" horiz-adv-x="1047" 
d="M100 661l-11 11q0 -40 -0.5 -119t-0.5 -118q0 -111 46.5 -212.5t135.5 -165.5l-107 -325h150l88 268q66 -11 125 -11q141 0 239.5 60.5t145.5 162.5t47 237l1 223v41q0 122 -48 225t-147 165l122 374h-152l-105 -321q-51 9 -102 9q-207 0 -323 -124.5t-116 -327.5
q0 -39 12 -52zM582 1015l-263 -805q-88 82 -88 242v250q0 140 77 229.5t217 89.5q29 0 57 -6zM815 702v-250q0 -139 -76 -229.5t-214 -90.5q-40 0 -79 9l268 813q101 -90 101 -252z" />
    <glyph glyph-name="ugrave" unicode="&#xf9;" horiz-adv-x="1053" 
d="M324 1628l246 -411h160l-238 411h-168zM88 449q0 -132 49.5 -235.5t150 -165.5t238.5 -62q180 0 297 103v-89h142v1168h-142v-718q0 -137 -80 -226.5t-217 -89.5q-105 0 -184.5 61.5t-101.5 160.5q-9 41 -9 98v712l-142 4v-12q-1 -237 -1 -709z" />
    <glyph glyph-name="uacute" unicode="&#xfa;" horiz-adv-x="1053" 
d="M566 1644l-239 -410h161l245 410h-167zM88 449q0 -132 49.5 -235.5t150 -165.5t238.5 -62q180 0 297 103v-89h142v1168h-142v-718q0 -137 -80 -226.5t-217 -89.5q-105 0 -184.5 61.5t-101.5 160.5q-9 41 -9 98v712l-142 4v-12q-1 -237 -1 -709z" />
    <glyph glyph-name="ucircumflex" unicode="&#xfb;" horiz-adv-x="1053" 
d="M452 1635l-304 -401h173l179 228l177 -228h174l-305 401h-94zM88 449q0 -132 49.5 -235.5t150 -165.5t238.5 -62q180 0 297 103v-89h142v1168h-142v-718q0 -137 -80 -226.5t-217 -89.5q-105 0 -184.5 61.5t-101.5 160.5q-9 41 -9 98v712l-142 4v-12q-1 -237 -1 -709z" />
    <glyph glyph-name="udieresis" unicode="&#xfc;" horiz-adv-x="1053" 
d="M237 1362q0 -42 27.5 -70t72.5 -28q47 0 73 26t26 72q0 48 -25 74q-25 25 -74 25q-48 0 -74 -26t-26 -73zM616 1362q0 -42 29 -70t72 -28q47 0 73 26.5t26 71.5q0 46 -26 72.5t-73 26.5q-45 0 -73 -27t-28 -72zM88 449q0 -132 49.5 -235.5t150 -165.5t238.5 -62
q180 0 297 103v-89h142v1168h-142v-718q0 -137 -80 -226.5t-217 -89.5q-105 0 -184.5 61.5t-101.5 160.5q-9 41 -9 98v712l-142 4v-12q-1 -237 -1 -709z" />
    <glyph glyph-name="yacute" unicode="&#xfd;" horiz-adv-x="1185" 
d="M623 1644l-241 -410h161l244 410h-164zM98 -435q72 -12 109 -12q158 0 262 93.5t158 247.5q53 157 67 194l403 1080h-157l-341 -907l-341 907h-158l421 -1120l-38 -105q-35 -102 -82 -157t-139 -80q-25 -7 -52 -7q-10 0 -30.5 2.5t-26.5 2.5h-41l-2 -8l-11 -43
q-6 -20 -8 -28q-1 -1 -1 -4t-1 -5l-1 -5v-44z" />
    <glyph glyph-name="ydieresis" unicode="&#xff;" horiz-adv-x="1185" 
d="M293 1362q0 -42 28.5 -70t71.5 -28q47 0 73.5 26t26.5 72q0 48 -26 74q-25 25 -74 25q-47 0 -73.5 -26t-26.5 -73zM671 1362q0 -42 29 -70t72 -28q49 0 75 25.5t26 72.5q0 48 -26 74q-26 25 -75 25q-45 0 -73 -27.5t-28 -71.5zM98 -435q72 -12 109 -12q158 0 262 93.5
t158 247.5q53 157 67 194l403 1080h-157l-341 -907l-341 907h-158l421 -1120l-38 -105q-35 -102 -82 -157t-139 -80q-25 -7 -52 -7q-10 0 -30.5 2.5t-26.5 2.5h-41l-2 -8l-11 -43q-6 -20 -8 -28q-1 -1 -1 -4t-1 -5l-1 -5v-44z" />
    <glyph glyph-name="Amacron" unicode="&#x100;" horiz-adv-x="1517" 
d="M403 1746h713v137h-713v-137zM88 0h162l217 578h584l217 -578h161l-602 1608h-136zM521 726l237 644l239 -644h-476z" />
    <glyph glyph-name="amacron" unicode="&#x101;" horiz-adv-x="1104" 
d="M903 1440h-702v-137h702v137zM869 707h-222q-147 0 -278.5 -40.5t-209.5 -135.5q-71 -87 -71 -207q0 -159 111.5 -252t276.5 -93q233 0 393 142v-122h146l1 673q0 174 -52 272q-57 108 -159 166t-228 58q-206 0 -322 -129t-116 -331v-53h145v11q0 72 17 133.5t51.5 110.5
t92 77t132.5 28q108 0 186 -60t99 -162q7 -33 7 -86zM869 562l-1 -211q0 -2 -2 -6l-11 -17q-4 -8 -17 -27q-60 -88 -154.5 -132.5t-207.5 -44.5q-95 0 -168.5 54.5t-73.5 141.5q0 54 28 97t71.5 69.5t100 44t110 24.5t106.5 7h219z" />
    <glyph glyph-name="Abreve" unicode="&#x102;" horiz-adv-x="1517" 
d="M531 1758q81 -82 227 -82q147 0 228 81.5t81 225.5v54h-139v-12q0 -58 -8 -96t-37 -66q-46 -46 -125 -46q-74 0 -121 46.5t-47 119.5q0 7 1 21t1 20l1 13h-142v-12q0 -88 15.5 -152t64.5 -115zM88 0h162l217 578h584l217 -578h161l-602 1608h-136zM521 726l237 644
l239 -644h-476z" />
    <glyph glyph-name="abreve" unicode="&#x103;" horiz-adv-x="1104" 
d="M249 1538q0 -141 79.5 -222.5t223.5 -81.5q143 0 224.5 81t81.5 220q0 29 -1 43v12h-139v-12q0 -118 -44 -160q-46 -46 -122 -46q-71 0 -118 46.5t-47 116.5q0 7 1 21t1 21l1 13h-140v-12q0 -6 -0.5 -20t-0.5 -20zM869 707h-222q-147 0 -278.5 -40.5t-209.5 -135.5
q-71 -87 -71 -207q0 -159 111.5 -252t276.5 -93q233 0 393 142v-122h146l1 673q0 174 -52 272q-57 108 -159 166t-228 58q-206 0 -322 -129t-116 -331v-53h145v11q0 72 17 133.5t51.5 110.5t92 77t132.5 28q108 0 186 -60t99 -162q7 -33 7 -86zM869 562l-1 -211q0 -2 -2 -6
l-11 -17q-4 -8 -17 -27q-60 -88 -154.5 -132.5t-207.5 -44.5q-95 0 -168.5 54.5t-73.5 141.5q0 54 28 97t71.5 69.5t100 44t110 24.5t106.5 7h219z" />
    <glyph glyph-name="Aogonek" unicode="&#x104;" horiz-adv-x="1510" 
d="M974 -220q0 -105 66 -161.5t174 -56.5q72 0 119 17q18 6 49 22q18 9 56 32l10 5l-69 139l-12 -11q-76 -67 -153 -67q-44 0 -71 20.5t-27 60.5q0 30 23 64q24 34 62 63q54 41 126 71l3 2q4 1 10.5 4t10.5 5q2 1 17 7q1 1 3 2l2 1q6 3 6 4q1 0 1 1l43 15l-596 1589h-136
l-603 -1608h162l217 578h584l186 -492q-51 -22 -94 -50t-83 -65.5t-63 -86.5t-23 -104zM521 726l237 644l239 -644h-476z" />
    <glyph glyph-name="aogonek" unicode="&#x105;" horiz-adv-x="1117" 
d="M869 707h-222q-147 0 -278.5 -40.5t-209.5 -135.5q-71 -86 -71 -207q0 -159 111.5 -252t276.5 -93q233 0 393 142v-27q-54 -21 -100 -48.5t-88.5 -65.5t-67 -88.5t-24.5 -107.5q0 -104 65.5 -159.5t171.5 -55.5q70 0 110 14t111 56l9 5l-67 139l-12 -11q-78 -67 -151 -67
q-43 0 -69.5 20t-26.5 59q0 56 56.5 104.5t126.5 78.5q19 8 55 26q14 8 39 18l8 2l1 643v11q0 180 -52 277q-57 108 -159 166t-228 58q-206 0 -322 -129t-116 -331v-53h145v11q0 72 17 133.5t51.5 110.5t92 77t132.5 28q106 0 184.5 -61t100.5 -161q7 -33 7 -86zM838 301
q-60 -88 -154.5 -132.5t-207.5 -44.5q-95 0 -168.5 54.5t-73.5 141.5q0 54 28 97t71.5 69.5t100 44t110 24.5t106.5 7h219l-1 -211q0 -2 -2 -6l-11 -17q-4 -8 -17 -27z" />
    <glyph glyph-name="Cacute" unicode="&#x106;" horiz-adv-x="1306" 
d="M688 2092l-244 -416h162l250 416h-168zM88 690q0 -107 21.5 -208t69 -192.5t115.5 -160t167.5 -109t218.5 -40.5q190 0 323.5 97.5t210.5 274.5l4 10l-126 79l-5 -13q-128 -302 -406 -302q-114 0 -202.5 49t-140.5 130.5t-78.5 179.5t-26.5 205v230q0 85 15.5 164.5
t50.5 152t86 126.5t127 86t168 32q280 0 407 -303l5 -13l126 84l-4 9q-78 175 -211.5 272t-322.5 97q-180 0 -315 -90.5t-208 -253.5q-69 -151 -69 -365v-228z" />
    <glyph glyph-name="cacute" unicode="&#x107;" horiz-adv-x="1008" 
d="M538 1644l-239 -410h161l244 410h-166zM100 659l-11 11v-223q0 -146 53 -244q58 -109 157 -165t227 -56q131 0 231.5 63.5t158.5 179.5l4 8l-115 95l-7 -14q-96 -183 -273 -183q-107 0 -185 60.5t-100 160.5q-9 41 -9 98v250q0 141 76.5 230t217.5 89q176 0 273 -185
l7 -13l115 95l-4 7q-59 117 -160 181t-233 64q-201 0 -318 -129.5t-117 -327.5q0 -39 12 -52z" />
    <glyph glyph-name="Ccircumflex" unicode="&#x108;" horiz-adv-x="1306" 
d="M569 2082l-308 -406h176l182 233l181 -233h174l-307 406h-98zM88 690q0 -107 21.5 -208t69 -192.5t115.5 -160t167.5 -109t218.5 -40.5q190 0 323.5 97.5t210.5 274.5l4 10l-126 79l-5 -13q-128 -302 -406 -302q-114 0 -202.5 49t-140.5 130.5t-78.5 179.5t-26.5 205v230
q0 85 15.5 164.5t50.5 152t86 126.5t127 86t168 32q280 0 407 -303l5 -13l126 84l-4 9q-78 175 -211.5 272t-322.5 97q-180 0 -315 -90.5t-208 -253.5q-69 -151 -69 -365v-228z" />
    <glyph glyph-name="ccircumflex" unicode="&#x109;" horiz-adv-x="1008" 
d="M423 1635l-304 -401h175l177 228l178 -228h173l-302 401h-97zM100 659l-11 11v-223q0 -146 53 -244q58 -109 157 -165t227 -56q131 0 231.5 63.5t158.5 179.5l4 8l-115 95l-7 -14q-96 -183 -273 -183q-107 0 -185 60.5t-100 160.5q-9 41 -9 98v250q0 141 76.5 230
t217.5 89q176 0 273 -185l7 -13l115 95l-4 7q-59 117 -160 181t-233 64q-201 0 -318 -129.5t-117 -327.5q0 -39 12 -52z" />
    <glyph glyph-name="Cdotaccent" unicode="&#x10a;" horiz-adv-x="1306" 
d="M546 1826q0 -45 27 -73t73 -28q48 0 74.5 27t26.5 74q0 46 -27 73t-74 27q-49 0 -74.5 -26.5t-25.5 -73.5zM88 690q0 -107 21.5 -208t69 -192.5t115.5 -160t167.5 -109t218.5 -40.5q190 0 323.5 97.5t210.5 274.5l4 10l-126 79l-5 -13q-128 -302 -406 -302
q-114 0 -202.5 49t-140.5 130.5t-78.5 179.5t-26.5 205v230q0 85 15.5 164.5t50.5 152t86 126.5t127 86t168 32q280 0 407 -303l5 -13l126 84l-4 9q-78 175 -211.5 272t-322.5 97q-180 0 -315 -90.5t-208 -253.5q-69 -151 -69 -365v-228z" />
    <glyph glyph-name="cdotaccent" unicode="&#x10b;" horiz-adv-x="1008" 
d="M399 1381q0 -44 27.5 -71t72.5 -27q47 0 73 26t26 72q0 45 -26.5 72t-72.5 27q-48 0 -74 -26t-26 -73zM100 659l-11 11v-223q0 -146 53 -244q58 -109 157 -165t227 -56q131 0 231.5 63.5t158.5 179.5l4 8l-115 95l-7 -14q-96 -183 -273 -183q-107 0 -185 60.5t-100 160.5
q-9 41 -9 98v250q0 141 76.5 230t217.5 89q176 0 273 -185l7 -13l115 95l-4 7q-59 117 -160 181t-233 64q-201 0 -318 -129.5t-117 -327.5q0 -39 12 -52z" />
    <glyph glyph-name="Ccaron" unicode="&#x10c;" horiz-adv-x="1306" 
d="M288 2082l312 -406h96l307 406h-174l-182 -233l-181 233h-178zM88 690q0 -107 21.5 -208t69 -192.5t115.5 -160t167.5 -109t218.5 -40.5q190 0 323.5 97.5t210.5 274.5l4 10l-126 79l-5 -13q-128 -302 -406 -302q-114 0 -202.5 49t-140.5 130.5t-78.5 179.5t-26.5 205
v230q0 85 15.5 164.5t50.5 152t86 126.5t127 86t168 32q280 0 407 -303l5 -13l126 84l-4 9q-78 175 -211.5 272t-322.5 97q-180 0 -315 -90.5t-208 -253.5q-69 -151 -69 -365v-228z" />
    <glyph glyph-name="ccaron" unicode="&#x10d;" horiz-adv-x="1008" 
d="M148 1635l304 -401h94l305 401h-174l-177 -229l-179 229h-173zM100 659l-11 11v-223q0 -146 53 -244q58 -109 157 -165t227 -56q131 0 231.5 63.5t158.5 179.5l4 8l-115 95l-7 -14q-96 -183 -273 -183q-107 0 -185 60.5t-100 160.5q-9 41 -9 98v250q0 141 76.5 230
t217.5 89q176 0 273 -185l7 -13l115 95l-4 7q-59 117 -160 181t-233 64q-201 0 -318 -129.5t-117 -327.5q0 -39 12 -52z" />
    <glyph glyph-name="Dcaron" unicode="&#x10e;" horiz-adv-x="1303" 
d="M605 1676h96l307 406h-175l-181 -233l-181 233h-178zM88 1608v-1608h12q59 0 166 1t195 1.5t166 0.5q116 0 214 39t166 105t115.5 154.5t70 187.5t22.5 204v221q0 108 -23 208t-72 189t-118.5 155t-169 104t-218.5 38h-526zM612 146q-2 0 -374 3l-3 1314h371
q72 0 163 -38q100 -41 168.5 -123t98.5 -179t30 -206v-224q0 -87 -16.5 -166t-52.5 -149t-88 -121t-128.5 -81t-168.5 -30z" />
    <glyph glyph-name="dcaron" unicode="&#x10f;" horiz-adv-x="1394" 
d="M823 1580v-518q-122 107 -297 107q-205 0 -321.5 -127.5t-116.5 -328.5v-278q0 -195 119.5 -323t318.5 -128q175 0 297 107v-91h142v1354l163 -115l7 3q79 41 125 111t46 157q0 62 -28.5 104.5t-92.5 42.5q-46 0 -74 -27t-28 -72q0 -36 23 -65t59 -35q-17 -42 -44 -64
q-29 -23 -131 -32l-25 -2v220h-142zM823 705v-257q0 -33 -13 -81q-27 -108 -100.5 -171.5t-183.5 -63.5q-108 0 -186 60.5t-100 162.5q-9 41 -9 97v250q0 140 77.5 229.5t217.5 89.5q104 0 175.5 -55.5t102.5 -155.5q19 -63 19 -105z" />
    <glyph glyph-name="Emacron" unicode="&#x112;" horiz-adv-x="1189" 
d="M239 1883v-137h713v137h-713zM88 1608v-1608l1013 3v146h-863v639h616l4 148h-623v527h866v145h-1013z" />
    <glyph glyph-name="emacron" unicode="&#x113;" horiz-adv-x="1046" 
d="M173 1303h702v137h-702v-137zM142 208q59 -109 157.5 -165t226.5 -56q131 0 231.5 63.5t158.5 179.5l4 8l-115 95l-7 -14q-97 -184 -273 -184q-102 0 -181.5 62t-103.5 160q-9 35 -9 98v111h727v11q0 151 -3 188q-8 105 -49 184q-54 108 -153.5 163.5t-225.5 55.5
q-210 0 -324.5 -126t-114.5 -332q0 -43 0.5 -129t0.5 -129q0 -146 53 -244zM815 711h-584q4 140 79 226.5t215 86.5q103 0 181 -62t101 -161q8 -33 8 -90z" />
    <glyph glyph-name="Ebreve" unicode="&#x114;" horiz-adv-x="1189" 
d="M367 1758q82 -82 227 -82q147 0 228 81.5t81 225.5v54h-140v-12q0 -58 -8 -96t-37 -66q-45 -46 -124 -46q-74 0 -121 46.5t-47 119.5q0 7 0.5 21t0.5 21l1 12h-141v-12q0 -88 15.5 -152t64.5 -115zM88 1608v-1608l1013 3v146h-863v639h616l4 148h-623v527h866v145h-1013z
" />
    <glyph glyph-name="ebreve" unicode="&#x115;" horiz-adv-x="1046" 
d="M299 1314q79 -80 225 -80q142 0 222.5 81.5t80.5 219.5q0 29 -1 43v12h-138v-12q0 -41 -1.5 -62t-12 -50t-31.5 -48q-47 -46 -119 -46q-73 0 -120.5 46.5t-47.5 116.5q0 7 1 21t1 21l1 13h-140v-12q0 -85 15.5 -150.5t64.5 -113.5zM142 208q59 -109 157.5 -165t226.5 -56
q131 0 231.5 63.5t158.5 179.5l4 8l-115 95l-7 -14q-97 -184 -273 -184q-102 0 -181.5 62t-103.5 160q-9 35 -9 98v111h727v11q0 151 -3 188q-8 105 -49 184q-54 108 -153.5 163.5t-225.5 55.5q-210 0 -324.5 -126t-114.5 -332q0 -43 0.5 -129t0.5 -129q0 -146 53 -244z
M815 711h-584q4 140 79 226.5t215 86.5q103 0 181 -62t101 -161q8 -33 8 -90z" />
    <glyph glyph-name="Edotaccent" unicode="&#x116;" horiz-adv-x="1189" 
d="M495 1826q0 -44 27 -72.5t72 -28.5q49 0 76 27t27 74q0 46 -28 73t-75 27q-48 0 -73.5 -26.5t-25.5 -73.5zM88 1608v-1608l1013 3v146h-863v639h616l4 148h-623v527h866v145h-1013z" />
    <glyph glyph-name="edotaccent" unicode="&#x117;" horiz-adv-x="1046" 
d="M423 1381q0 -44 28 -71t73 -27q47 0 73 26t26 72q0 47 -26 73q-28 26 -73 26q-48 0 -74.5 -26t-26.5 -73zM142 208q59 -109 157.5 -165t226.5 -56q131 0 231.5 63.5t158.5 179.5l4 8l-115 95l-7 -14q-97 -184 -273 -184q-102 0 -181.5 62t-103.5 160q-9 35 -9 98v111h727
v11q0 151 -3 188q-8 105 -49 184q-54 108 -153.5 163.5t-225.5 55.5q-210 0 -324.5 -126t-114.5 -332q0 -43 0.5 -129t0.5 -129q0 -146 53 -244zM815 711h-584q4 140 79 226.5t215 86.5q103 0 181 -62t101 -161q8 -33 8 -90z" />
    <glyph glyph-name="Eogonek" unicode="&#x118;" horiz-adv-x="1189" 
d="M454 16q-124 -101 -124 -226q0 -105 66 -160.5t174 -55.5q75 0 114 13t111 57l10 5l-69 139l-12 -10q-76 -67 -154 -67q-43 0 -70.5 20.5t-27.5 58.5q0 31 23 65q45 68 148 115l67 32l391 1v146h-863v639h616l4 148h-623v527h866v145h-1013v-1608q318 1 366 16z" />
    <glyph glyph-name="eogonek" unicode="&#x119;" horiz-adv-x="1046" 
d="M380 6q-109 -89 -109 -212q0 -103 65 -158t171 -55q73 0 113.5 14t109.5 56l9 6l-68 134l-12 -9q-75 -65 -152 -65q-43 0 -69 19.5t-26 57.5q0 67 83 127q63 48 145 77q51 17 62 22q140 62 214 210l4 8l-115 95l-7 -14q-97 -184 -273 -184q-102 0 -181.5 62t-103.5 160
q-9 35 -9 98v111h727v11q0 151 -3 188q-8 105 -49 184q-54 108 -153.5 163.5t-225.5 55.5q-210 0 -324.5 -126t-114.5 -332q0 -43 0.5 -129t0.5 -129q0 -147 53 -244q81 -150 238 -202zM815 711h-584q4 140 79 226.5t215 86.5q103 0 181 -62t101 -161q8 -33 8 -90z" />
    <glyph glyph-name="Ecaron" unicode="&#x11a;" horiz-adv-x="1189" 
d="M236 2082l313 -406h95l308 406h-175l-182 -233l-180 233h-179zM88 1608v-1608l1013 3v146h-863v639h616l4 148h-623v527h866v145h-1013z" />
    <glyph glyph-name="ecaron" unicode="&#x11b;" horiz-adv-x="1046" 
d="M477 1234h94l304 401h-173l-177 -229l-179 229h-175zM142 208q59 -109 157.5 -165t226.5 -56q131 0 231.5 63.5t158.5 179.5l4 8l-115 95l-7 -14q-97 -184 -273 -184q-102 0 -181.5 62t-103.5 160q-9 35 -9 98v111h727v11q0 151 -3 188q-8 105 -49 184
q-54 108 -153.5 163.5t-225.5 55.5q-210 0 -324.5 -126t-114.5 -332q0 -43 0.5 -129t0.5 -129q0 -146 53 -244zM815 711h-584q4 140 79 226.5t215 86.5q103 0 181 -62t101 -161q8 -33 8 -90z" />
    <glyph glyph-name="Gcircumflex" unicode="&#x11c;" horiz-adv-x="1306" 
d="M569 2082l-308 -406h176l182 233l181 -233h174l-307 406h-98zM1059 366l-1 -1v-1l-5 -9q-5 -11 -14 -25q-5 -8 -11 -16.5t-9.5 -14t-4.5 -7.5q-123 -166 -333 -166q-114 0 -202.5 49t-140.5 130.5t-78.5 179.5t-26.5 205v230q0 85 15.5 164.5t50.5 152t86 126.5t127 86
t168 32q280 0 407 -303l5 -13l126 84l-4 9q-78 175 -211.5 272t-322.5 97q-180 0 -315 -90.5t-208 -253.5q-69 -151 -69 -365v-228q0 -107 22 -208t69.5 -192.5t115.5 -160t167.5 -109t218.5 -40.5q152 0 273.5 66.5t201.5 192.5q12 17 24 41q6 9 15 27l5 9q2 5 2 10v589
h-569v-141h426v-408z" />
    <glyph glyph-name="gcircumflex" unicode="&#x11d;" horiz-adv-x="1054" 
d="M149 1234h173l179 228l177 -228h174l-305 401h-95zM106 -82q40 -159 150.5 -249t275.5 -90q130 0 233.5 60.5t154.5 173.5q46 98 46 249l-1 1106h-145l-1 -101q-119 102 -293 102q-205 0 -321.5 -127.5t-116.5 -328.5v-278q0 -195 119.5 -323t318.5 -128q173 0 293 101
v-23q0 -173 -95 -264q-20 -20 -39 -32q-61 -40 -154 -40q-116 0 -188.5 67t-104.5 184l-4 14l-130 -64zM799 324q-34 -90 -105 -141t-168 -51q-108 0 -186 60.5t-100 162.5q-9 41 -9 97v250q0 140 77.5 229.5t217.5 89.5q99 0 169 -50.5t104 -142.5q20 -56 20 -74v-357
q0 -17 -20 -73z" />
    <glyph glyph-name="Gbreve" unicode="&#x11e;" horiz-adv-x="1306" 
d="M418 1758q81 -82 228 -82t228 81.5t81 225.5v54h-140v-12q0 -39 -2 -62t-12.5 -51.5t-31.5 -48.5q-46 -46 -123 -46q-74 0 -121.5 46.5t-47.5 119.5q0 7 1 21t1 20l1 13h-141v-12q0 -87 15 -151.5t64 -115.5zM1059 366l-1 -1v-1l-5 -9q-5 -11 -14 -25q-5 -8 -11 -16.5
t-9.5 -14t-4.5 -7.5q-123 -166 -333 -166q-114 0 -202.5 49t-140.5 130.5t-78.5 179.5t-26.5 205v230q0 85 15.5 164.5t50.5 152t86 126.5t127 86t168 32q280 0 407 -303l5 -13l126 84l-4 9q-78 175 -211.5 272t-322.5 97q-180 0 -315 -90.5t-208 -253.5q-69 -151 -69 -365
v-228q0 -107 22 -208t69.5 -192.5t115.5 -160t167.5 -109t218.5 -40.5q152 0 273.5 66.5t201.5 192.5q12 17 24 41q6 9 15 27l5 9q2 5 2 10v589h-569v-141h426v-408z" />
    <glyph glyph-name="gbreve" unicode="&#x11f;" horiz-adv-x="1054" 
d="M303 1314q79 -80 225 -80q143 0 223.5 81t80.5 220q0 29 -1 43v12h-138v-12q0 -117 -45 -161q-45 -45 -120 -45q-72 0 -119.5 46.5t-47.5 116.5q0 7 1 21t1 21l1 13h-141v-12q0 -88 15 -151t65 -113zM106 -82q40 -159 150.5 -249t275.5 -90q130 0 233.5 60.5t154.5 173.5
q46 98 46 249l-1 1106h-145l-1 -101q-119 102 -293 102q-205 0 -321.5 -127.5t-116.5 -328.5v-278q0 -195 119.5 -323t318.5 -128q173 0 293 101v-23q0 -173 -95 -264q-20 -20 -39 -32q-61 -40 -154 -40q-116 0 -188.5 67t-104.5 184l-4 14l-130 -64zM799 324
q-34 -90 -105 -141t-168 -51q-108 0 -186 60.5t-100 162.5q-9 41 -9 97v250q0 140 77.5 229.5t217.5 89.5q99 0 169 -50.5t104 -142.5q20 -56 20 -74v-357q0 -17 -20 -73z" />
    <glyph glyph-name="Gdotaccent" unicode="&#x120;" horiz-adv-x="1306" 
d="M546 1826q0 -45 27 -73t73 -28q48 0 74.5 27t26.5 74q0 46 -27 73t-74 27q-49 0 -74.5 -26.5t-25.5 -73.5zM1059 366l-1 -1v-1l-5 -9q-5 -11 -14 -25q-5 -8 -11 -16.5t-9.5 -14t-4.5 -7.5q-123 -166 -333 -166q-114 0 -202.5 49t-140.5 130.5t-78.5 179.5t-26.5 205v230
q0 85 15.5 164.5t50.5 152t86 126.5t127 86t168 32q280 0 407 -303l5 -13l126 84l-4 9q-78 175 -211.5 272t-322.5 97q-180 0 -315 -90.5t-208 -253.5q-69 -151 -69 -365v-228q0 -107 22 -208t69.5 -192.5t115.5 -160t167.5 -109t218.5 -40.5q152 0 273.5 66.5t201.5 192.5
q12 17 24 41q6 9 15 27l5 9q2 5 2 10v589h-569v-141h426v-408z" />
    <glyph glyph-name="gdotaccent" unicode="&#x121;" horiz-adv-x="1054" 
d="M428 1381q0 -43 28 -70.5t72 -27.5q48 0 73.5 26t25.5 72q0 45 -26.5 72t-72.5 27q-48 0 -74 -26t-26 -73zM106 -82q40 -159 150.5 -249t275.5 -90q130 0 233.5 60.5t154.5 173.5q46 98 46 249l-1 1106h-145l-1 -101q-119 102 -293 102q-205 0 -321.5 -127.5
t-116.5 -328.5v-278q0 -195 119.5 -323t318.5 -128q173 0 293 101v-23q0 -173 -95 -264q-20 -20 -39 -32q-61 -40 -154 -40q-116 0 -188.5 67t-104.5 184l-4 14l-130 -64zM799 324q-34 -90 -105 -141t-168 -51q-108 0 -186 60.5t-100 162.5q-9 41 -9 97v250
q0 140 77.5 229.5t217.5 89.5q99 0 169 -50.5t104 -142.5q20 -56 20 -74v-357q0 -17 -20 -73z" />
    <glyph glyph-name="Hcircumflex" unicode="&#x124;" horiz-adv-x="1191" 
d="M519 2082l-309 -406h176l182 233l180 -233h174l-307 406h-96zM88 1608v-1608h150v788h716v-788h149v1608h-147v-672h-721v672h-147z" />
    <glyph glyph-name="hcircumflex" unicode="&#x125;" horiz-adv-x="1054" 
d="M966 719q0 195 -119 322.5t-318 127.5q-176 0 -299 -107v172h91l179 228l177 -228h174l-305 401h-94l-222 -291v233h-142v-1577h142v12v693q0 35 15 89q29 106 102 166.5t182 60.5q86 0 155.5 -44t107.5 -120q16 -35 22 -60q8 -34 8 -95v-700l142 -4v12q2 472 2 709z" />
    <glyph glyph-name="Hbar" unicode="&#x126;" horiz-adv-x="1191" 
d="M240 1883v-137h713v137h-713zM88 1608v-1608h150v788h716v-788h149v1608h-147v-672h-721v672h-147z" />
    <glyph glyph-name="hbar" unicode="&#x127;" horiz-adv-x="1054" 
d="M966 719q0 195 -119 322.5t-318 127.5q-176 0 -299 -107v241h648v137h-648v137h-142v-1577h142v12v693q0 35 15 89q29 106 102 166.5t182 60.5q86 0 155.5 -44t107.5 -120q16 -35 22 -60q8 -34 8 -95v-700l142 -4v12q2 472 2 709z" />
    <glyph glyph-name="Itilde" unicode="&#x128;" horiz-adv-x="322" 
d="M-153 1800l-11 -59h146l2 10q7 42 13 66q8 40 20 61q7 8 25 8q19 0 25 -3.5t18 -18.5q14 -20 45 -50.5t51 -43.5q44 -27 95 -27q146 0 187 173q3 12 6.5 34t4.5 29l8 44l3 14h-144l-2 -10q-8 -44 -14 -65q-8 -35 -23 -61q-5 -9 -26 -9q-8 0 -21.5 9t-21.5 19l-3 5l-1 1
l-1 2q-1 2 -2 3q-1 3 -4 4q-1 2 -3 4l-3 3l-2 2q-71 91 -169 91q-142 0 -186 -171q-6 -22 -12 -64zM85 1608v-1608h149l-2 1608h-147z" />
    <glyph glyph-name="itilde" unicode="&#x129;" horiz-adv-x="372" 
d="M-123 1354q-1 -8 -4 -23t-4 -22l-3 -14h144l2 10q2 9 5.5 31.5t6.5 34.5q9 42 20 58q7 8 24 8q14 0 22.5 -5.5t23.5 -22.5q32 -36 51.5 -55t57.5 -38t78 -19q141 0 181 170q3 12 6.5 34t4.5 29q2 8 4.5 22t3.5 21l3 14h-142l-2 -10q-9 -44 -14 -64q-10 -44 -20 -58
q-7 -10 -25 -10q-10 0 -23.5 8t-21.5 18l-3 3l-1 2l-3 6q-1 2 -4 5l-3 3l-3 3l-2 2q-66 90 -166 90q-141 0 -183 -170q-5 -19 -11 -61zM110 1167v-1167h146v1167h-146z" />
    <glyph glyph-name="Imacron" unicode="&#x12a;" horiz-adv-x="298" 
d="M-208 1883v-137h714v137h-714zM75 1608v-1608h150l-2 1608h-148z" />
    <glyph glyph-name="imacron" unicode="&#x12b;" horiz-adv-x="347" 
d="M-178 1440v-137h702v137h-702zM99 1167v-1167h147v1167h-147z" />
    <glyph glyph-name="Iogonek" unicode="&#x12e;" horiz-adv-x="326" 
d="M-207 -219q0 -107 66 -162t175 -55q72 0 112 14t112 56l10 5l-67 140l-12 -11q-75 -67 -155 -67q-44 0 -70.5 20.5t-26.5 59.5q0 33 18 62.5t50.5 54t61 41t66.5 34.5q8 4 42 20.5t53 24.5l9 5l-3 10l-1 3q-1 2 -2 5.5t-2 6.5l-4 8l-2 1552h-148v-1514q-86 -34 -165 -96
l-19 -15q-7 -6 -19 -18q-79 -79 -79 -184z" />
    <glyph glyph-name="iogonek" unicode="&#x12f;" horiz-adv-x="375" 
d="M174 1375q-43 0 -73.5 30.5t-30.5 72.5q0 44 29.5 73t74.5 29q44 0 73 -29.5t29 -72.5q0 -44 -28.5 -73.5t-73.5 -29.5zM220 -217l67 -137l-10 -5q-70 -42 -109.5 -56t-111.5 -14q-108 0 -172 55t-64 160q0 58 24.5 108.5t66.5 88.5t88 65t100 48v1071h147v-1167h-12
q-26 -1 -92 -33.5t-98 -55.5q-83 -58 -83 -125q0 -39 26 -59t69 -20q74 0 152 66zM197 50v-4l4 2z" />
    <glyph glyph-name="Idotaccent" unicode="&#x130;" horiz-adv-x="324" 
d="M61 1826q0 -44 28 -72.5t73 -28.5q49 0 75 27t26 74q0 45 -27 72.5t-74 27.5q-48 0 -74.5 -26.5t-26.5 -73.5zM87 1608v-1608h150l-3 1608h-147z" />
    <glyph glyph-name="dotlessi" unicode="&#x131;" horiz-adv-x="386" 
d="M120 1167v-1167h146v1167h-146z" />
    <glyph glyph-name="Nacute" unicode="&#x143;" horiz-adv-x="1191" 
d="M636 2092l-245 -416h164l249 416h-168zM88 1608v-1608h150l-2 1270l740 -1270h127v1608h-147l-2 -1267l-736 1267h-130z" />
    <glyph glyph-name="nacute" unicode="&#x144;" horiz-adv-x="1054" 
d="M566 1644l-239 -410h161l245 410h-167zM822 2l142 -4v12q2 472 2 709q0 195 -119 322.5t-318 127.5q-176 0 -299 -107v103h-142v-1165h142v12v693q0 35 15 89q29 106 102 166.5t182 60.5q86 0 155.5 -44t107.5 -120q16 -35 22 -60q8 -34 8 -95v-700z" />
    <glyph glyph-name="Ncaron" unicode="&#x147;" horiz-adv-x="1191" 
d="M236 2082l313 -406h95l307 406h-175l-181 -233l-181 233h-178zM88 1608v-1608h150l-2 1270l740 -1270h127v1608h-147l-2 -1267l-736 1267h-130z" />
    <glyph glyph-name="ncaron" unicode="&#x148;" horiz-adv-x="1054" 
d="M175 1635l306 -401h94l303 401h-173l-177 -229l-178 229h-175zM822 2l142 -4v12q2 472 2 709q0 195 -119 322.5t-318 127.5q-176 0 -299 -107v103h-142v-1165h142v12v693q0 35 15 89q29 106 102 166.5t182 60.5q86 0 155.5 -44t107.5 -120q16 -35 22 -60q8 -34 8 -95
v-700z" />
    <glyph glyph-name="napostrophe" unicode="&#x149;" horiz-adv-x="1054" 
d="M822 2l142 -4v12q2 472 2 709q0 195 -119 322.5t-318 127.5q-176 0 -299 -107v103h-142v-1165h142v12v693q0 35 15 89q29 106 102 166.5t182 60.5q86 0 155.5 -44t107.5 -120q16 -35 22 -60q8 -34 8 -95v-700z" />
    <glyph glyph-name="Omacron" unicode="&#x14c;" 
d="M323 1746h714v137h-714v-137zM88 690q0 -107 21.5 -208t69 -192.5t115.5 -160t167.5 -109t218.5 -40.5q122 0 221.5 39.5t167 107t113.5 159t67 192.5t21 211v228q0 109 -21 209.5t-67.5 192.5t-114 160t-167 108t-220.5 40q-181 0 -315 -90t-208 -254q-69 -150 -69 -365
v-228zM1125 689q0 -86 -15 -165.5t-49 -153t-84.5 -127t-126.5 -85.5t-169 -32q-114 0 -202.5 49t-140.5 130.5t-78.5 179.5t-26.5 205v230q0 85 15.5 164.5t50.5 152t86 126.5t127 86t168 32q131 0 235 -72t156 -193q54 -124 54 -297v-230z" />
    <glyph glyph-name="omacron" unicode="&#x14d;" horiz-adv-x="1047" 
d="M876 1440h-702v-137h702v137zM100 661l-11 11q0 -40 -0.5 -119t-0.5 -118q0 -197 118 -321.5t320 -124.5q141 0 239.5 60.5t145.5 162.5t47 237l1 223v41q0 200 -114 326t-318 126q-207 0 -323 -124.5t-116 -327.5q0 -39 12 -52zM815 702v-250q0 -139 -76 -229.5
t-214 -90.5q-108 0 -185.5 60.5t-99.5 162.5q-9 41 -9 97v250q0 140 77 229.5t217 89.5q101 0 180 -63t102 -161q8 -34 8 -95z" />
    <glyph glyph-name="Obreve" unicode="&#x14e;" 
d="M453 1758q82 -82 228 -82t226.5 82.5t80.5 224.5v54h-139v-12q0 -39 -2 -62t-12.5 -51.5t-31.5 -48.5q-46 -46 -122 -46q-75 0 -122.5 46.5t-47.5 119.5q0 7 1 21t1 20l1 13h-143v-12q0 -185 82 -267zM88 690q0 -107 21.5 -208t69 -192.5t115.5 -160t167.5 -109
t218.5 -40.5q122 0 221.5 39.5t167 107t113.5 159t67 192.5t21 211v228q0 109 -21 209.5t-67.5 192.5t-114 160t-167 108t-220.5 40q-181 0 -315 -90t-208 -254q-69 -150 -69 -365v-228zM1125 689q0 -86 -15 -165.5t-49 -153t-84.5 -127t-126.5 -85.5t-169 -32
q-114 0 -202.5 49t-140.5 130.5t-78.5 179.5t-26.5 205v230q0 85 15.5 164.5t50.5 152t86 126.5t127 86t168 32q131 0 235 -72t156 -193q54 -124 54 -297v-230z" />
    <glyph glyph-name="obreve" unicode="&#x14f;" horiz-adv-x="1047" 
d="M300 1314q79 -80 225 -80q143 0 223 81t80 220q0 29 -1 43v12h-138v-12q0 -41 -1.5 -62t-12 -50t-31.5 -48q-47 -46 -119 -46q-73 0 -120.5 46.5t-47.5 116.5q0 7 1 21t1 21l1 13h-140v-12q0 -85 15.5 -150.5t64.5 -113.5zM100 661l-11 11q0 -40 -0.5 -119t-0.5 -118
q0 -197 118 -321.5t320 -124.5q141 0 239.5 60.5t145.5 162.5t47 237l1 223v41q0 200 -114 326t-318 126q-207 0 -323 -124.5t-116 -327.5q0 -39 12 -52zM815 702v-250q0 -139 -76 -229.5t-214 -90.5q-108 0 -185.5 60.5t-99.5 162.5q-9 41 -9 97v250q0 140 77 229.5
t217 89.5q101 0 180 -63t102 -161q8 -34 8 -95z" />
    <glyph glyph-name="Ohungarumlaut" unicode="&#x150;" 
d="M321 1692h163l248 417h-167zM594 1692h162l250 417h-168zM88 690q0 -107 21.5 -208t69 -192.5t115.5 -160t167.5 -109t218.5 -40.5q122 0 221.5 39.5t167 107t113.5 159t67 192.5t21 211v228q0 109 -21 209.5t-67.5 192.5t-114 160t-167 108t-220.5 40q-181 0 -315 -90
t-208 -254q-69 -150 -69 -365v-228zM1125 689q0 -86 -15 -165.5t-49 -153t-84.5 -127t-126.5 -85.5t-169 -32q-114 0 -202.5 49t-140.5 130.5t-78.5 179.5t-26.5 205v230q0 85 15.5 164.5t50.5 152t86 126.5t127 86t168 32q131 0 235 -72t156 -193q54 -124 54 -297v-230z
" />
    <glyph glyph-name="ohungarumlaut" unicode="&#x151;" horiz-adv-x="1047" 
d="M575 1660h-165l-240 -410h161zM600 1250l246 410h-167l-240 -410h161zM100 661l-11 11q0 -40 -0.5 -119t-0.5 -118q0 -197 118 -321.5t320 -124.5q141 0 239.5 60.5t145.5 162.5t47 237l1 223v41q0 200 -114 326t-318 126q-207 0 -323 -124.5t-116 -327.5q0 -39 12 -52z
M815 702v-250q0 -139 -76 -229.5t-214 -90.5q-108 0 -185.5 60.5t-99.5 162.5q-9 41 -9 97v250q0 140 77 229.5t217 89.5q101 0 180 -63t102 -161q8 -34 8 -95z" />
    <glyph glyph-name="OE" unicode="&#x152;" horiz-adv-x="2210" 
d="M88 690q0 -107 21.5 -208t69 -192.5t115.5 -160t167.5 -109t218.5 -40.5q135 0 247.5 52.5t192.5 153.5v-186l1014 3v146h-864v639h615l5 148h-620l-3 527h867v145h-1014v-188q-159 207 -440 207q-181 0 -315.5 -90t-207.5 -254q-69 -151 -69 -365v-228zM1094 474
q-46 -159 -150.5 -253.5t-262.5 -94.5q-92 0 -167.5 32.5t-127 86.5t-86.5 127t-51 153t-16 165v230q0 85 15.5 164.5t50.5 152t86 126.5t127 86t168 32q131 0 235.5 -72t155.5 -193q25 -57 42 -162q1 -2 2.5 -10.5t2.5 -12.5q2 -12 2 -20v-416q0 -32 -26 -121z" />
    <glyph glyph-name="oe" unicode="&#x153;" horiz-adv-x="1740" 
d="M100 661l-11 11q0 -40 -0.5 -119t-0.5 -118q0 -197 118 -321.5t320 -124.5q245 0 360 183q61 -92 155.5 -139t209.5 -47q132 0 233.5 64t158.5 180l4 8l-115 95l-7 -13q-100 -185 -275 -185q-82 0 -150.5 41t-106.5 112q-20 37 -27 68q-7 37 -7 99v111h725v11
q0 164 -2 188q-8 106 -50 184q-56 109 -154.5 164t-225.5 55q-248 0 -366 -184q-114 181 -359 181q-207 0 -323 -124.5t-116 -327.5q0 -39 12 -52zM1543 711h-584q2 94 37 164q36 71 104 110t150 39q104 0 183 -62t101 -161q7 -35 9 -90zM815 452q0 -139 -76 -229.5
t-214 -90.5q-108 0 -185.5 60.5t-99.5 162.5q-9 41 -9 97v250q0 140 77 229.5t217 89.5q101 0 180 -63t102 -161q8 -34 8 -95v-250z" />
    <glyph glyph-name="Rcaron" unicode="&#x158;" horiz-adv-x="1314" 
d="M603 1676h96l307 406h-175l-181 -233l-181 233h-178zM88 0h150l-1 788h459l367 -788h163l-372 805q164 32 258 131t94 261q0 111 -46 193.5t-125 128.5t-170.5 67.5t-196.5 21.5h-580v-1608zM237 931l-2 532h433q270 0 350 -127q39 -66 39 -139q0 -75 -33.5 -129.5
t-91.5 -83t-122.5 -41t-141.5 -12.5h-431z" />
    <glyph glyph-name="rcaron" unicode="&#x159;" horiz-adv-x="889" 
d="M88 1635l305 -401h96l302 401h-172l-179 -229l-177 229h-175zM94 1165v-1165h142v12v693q0 31 14 85q29 107 102 169t183 62q88 0 190 -60l11 -7l65 136l-10 5q-128 74 -256 74q-176 0 -299 -107v103h-142z" />
    <glyph glyph-name="Sacute" unicode="&#x15a;" horiz-adv-x="1257" 
d="M670 2092l-245 -416h163l249 416h-167zM90 375q57 -191 197 -293t345 -102q94 0 184 28.5t163 80.5t117.5 133.5t44.5 179.5q0 77 -25 145q-49 131 -194 214q-59 35 -133 64q-64 24 -137 48q-107 37 -218 99.5t-145 126.5q-27 51 -27 117q0 68 32 122t85.5 86t117 48.5
t131.5 16.5q115 0 208 -45t146 -136q17 -31 28 -61q2 -6 4.5 -17.5t5.5 -17.5q5 -14 18 -37l5 -12l126 67l-2 9q-49 191 -193.5 295t-348.5 104q-100 0 -191 -28.5t-163 -81t-114.5 -136t-42.5 -186.5q0 -196 164 -314q21 -16 59 -36q119 -67 267 -117q94 -33 182 -73
q4 -2 27.5 -13t25.5 -12q156 -93 156 -239q0 -89 -54.5 -153t-134 -92t-171.5 -28q-149 0 -260 73t-137 207l-1 4l-35 35l-114 -64z" />
    <glyph glyph-name="sacute" unicode="&#x15b;" horiz-adv-x="1116" 
d="M601 1644l-241 -410h162l244 410h-165zM137 171q137 -191 424 -191q78 0 152 17t141.5 52.5t109 100t41.5 148.5q0 97 -53.5 159.5t-150.5 106.5q-62 25 -83 32q-12 4 -138 40q-143 40 -211 77q-7 3 -17 11q-12 10 -18 14q-44 29 -61.5 52t-17.5 64q0 47 39 83
q13 14 39 29q88 54 230 54q121 0 212 -48q84 -42 122 -170l4 -14l127 60l-2 9q-15 77 -62 138t-112.5 96.5t-139.5 54t-151 18.5q-79 0 -153.5 -16.5t-142 -51.5t-108.5 -99.5t-41 -150.5q0 -88 46 -150q16 -22 38 -39q62 -56 144.5 -90.5t194.5 -65.5q193 -50 277 -113
q28 -25 31 -29q19 -33 19 -70q0 -45 -32 -79t-82.5 -52t-100.5 -26.5t-97 -8.5q-123 0 -214 55t-114 163l-3 16l-135 -64l3 -9q21 -78 46 -113z" />
    <glyph glyph-name="Scircumflex" unicode="&#x15c;" horiz-adv-x="1257" 
d="M553 2082l-313 -406h179l180 233l182 -233h175l-308 406h-95zM90 375q57 -191 197 -293t345 -102q94 0 184 28.5t163 80.5t117.5 133.5t44.5 179.5q0 77 -25 145q-49 131 -194 214q-59 35 -133 64q-64 24 -137 48q-107 37 -218 99.5t-145 126.5q-27 51 -27 117
q0 68 32 122t85.5 86t117 48.5t131.5 16.5q115 0 208 -45t146 -136q17 -31 28 -61q2 -6 4.5 -17.5t5.5 -17.5q5 -14 18 -37l5 -12l126 67l-2 9q-49 191 -193.5 295t-348.5 104q-100 0 -191 -28.5t-163 -81t-114.5 -136t-42.5 -186.5q0 -196 164 -314q21 -16 59 -36
q119 -67 267 -117q94 -33 182 -73q4 -2 27.5 -13t25.5 -12q156 -93 156 -239q0 -89 -54.5 -153t-134 -92t-171.5 -28q-149 0 -260 73t-137 207l-1 4l-35 35l-114 -64z" />
    <glyph glyph-name="scircumflex" unicode="&#x15d;" horiz-adv-x="1116" 
d="M486 1635l-307 -401h175l179 228l178 -228h172l-303 401h-94zM137 171q137 -191 424 -191q78 0 152 17t141.5 52.5t109 100t41.5 148.5q0 97 -53.5 159.5t-150.5 106.5q-62 25 -83 32q-12 4 -138 40q-143 40 -211 77q-7 3 -17 11q-12 10 -18 14q-44 29 -61.5 52t-17.5 64
q0 47 39 83q13 14 39 29q88 54 230 54q121 0 212 -48q84 -42 122 -170l4 -14l127 60l-2 9q-15 77 -62 138t-112.5 96.5t-139.5 54t-151 18.5q-79 0 -153.5 -16.5t-142 -51.5t-108.5 -99.5t-41 -150.5q0 -88 46 -150q16 -22 38 -39q62 -56 144.5 -90.5t194.5 -65.5
q193 -50 277 -113q28 -25 31 -29q19 -33 19 -70q0 -45 -32 -79t-82.5 -52t-100.5 -26.5t-97 -8.5q-123 0 -214 55t-114 163l-3 16l-135 -64l3 -9q21 -78 46 -113z" />
    <glyph glyph-name="Scedilla" unicode="&#x15e;" horiz-adv-x="1257" 
d="M787 -4q153 34 253.5 144.5t100.5 261.5q0 67 -22 133q-17 49 -45 90.5t-68 74t-77.5 57t-92 47.5t-91 36.5t-93.5 32.5q-110 38 -220 99.5t-143 126.5q-27 54 -27 117q0 68 32 122t85.5 86t117 48.5t131.5 16.5q116 0 209.5 -45.5t145.5 -138.5q18 -32 30 -67
q7 -24 8 -26q4 -13 17 -37l5 -12l126 67l-2 9q-49 191 -193.5 295t-348.5 104q-100 0 -191 -28.5t-163 -81t-114.5 -136t-42.5 -186.5q0 -226 223 -350q121 -68 267 -117q149 -52 235 -98q72 -42 114 -103t42 -136q0 -89 -54.5 -153t-134 -92t-171.5 -28q-149 0 -260 73
t-137 207l-1 4l-35 35l-114 -64l2 -9q48 -170 167.5 -271t297.5 -120q4 -2 5 -2l5 -3q7 -3 20.5 -11t20.5 -12q15 -9 22 -13l19 -13q86 -65 86 -137q0 -16 -7 -36.5t-17 -29.5q-25 -25 -73 -25q-91 0 -170 113l-10 14l-86 -121l5 -7q54 -73 112 -103.5t149 -30.5
q109 0 174.5 61t65.5 167q0 120 -89 201z" />
    <glyph glyph-name="scedilla" unicode="&#x15f;" horiz-adv-x="1115" 
d="M1004 297q0 55 -18 100t-52 77.5t-70.5 54.5t-86.5 43h35l-93 24q-170 43 -257 76l-48 18q-32 14 -46 22q-7 4 -19 12t-25.5 18.5t-17.5 12.5q-28 23 -40 44.5t-12 53.5q0 47 39 83q14 14 33 25q90 58 236 58q120 0 212 -48q86 -43 122 -170l4 -14l127 60l-2 9
q-15 77 -62 138t-112.5 96.5t-139.5 54t-151 18.5q-79 0 -153.5 -16.5t-142 -51.5t-108.5 -99.5t-41 -150.5q0 -88 46 -150q15 -20 42 -43q62 -53 143 -87t192 -65q201 -52 283 -118q8 -8 14 -13l11 -11q19 -33 19 -70q0 -45 -32 -79t-82.5 -52t-100.5 -26.5t-97 -8.5
q-123 0 -214 55t-114 163l-3 16l-134 -63l2 -10q22 -79 46 -113q90 -126 252 -170q20 -5 89 -17q2 0 5 -3l5 -5q4 -4 8 -4h3l18 -9q4 -2 18 -11q4 -2 17.5 -10t20.5 -13q90 -66 90 -137q0 -43 -26 -66.5t-71 -23.5q-87 0 -165 113l-10 14l-86 -121l5 -7q53 -72 110 -102.5
t146 -30.5q108 0 172 60t64 165q0 120 -91 202q129 29 215 109q79 72 79 194z" />
    <glyph glyph-name="Scaron" unicode="&#x160;" horiz-adv-x="1257" 
d="M272 2082l308 -406h98l307 406h-174l-181 -233l-182 233h-176zM90 375q57 -191 197 -293t345 -102q94 0 184 28.5t163 80.5t117.5 133.5t44.5 179.5q0 77 -25 145q-49 131 -194 214q-59 35 -133 64q-64 24 -137 48q-107 37 -218 99.5t-145 126.5q-27 51 -27 117
q0 68 32 122t85.5 86t117 48.5t131.5 16.5q115 0 208 -45t146 -136q17 -31 28 -61q2 -6 4.5 -17.5t5.5 -17.5q5 -14 18 -37l5 -12l126 67l-2 9q-49 191 -193.5 295t-348.5 104q-100 0 -191 -28.5t-163 -81t-114.5 -136t-42.5 -186.5q0 -196 164 -314q21 -16 59 -36
q119 -67 267 -117q94 -33 182 -73q4 -2 27.5 -13t25.5 -12q156 -93 156 -239q0 -89 -54.5 -153t-134 -92t-171.5 -28q-149 0 -260 73t-137 207l-1 4l-35 35l-114 -64z" />
    <glyph glyph-name="scaron" unicode="&#x161;" horiz-adv-x="1116" 
d="M208 1635l306 -401h94l302 401h-171l-179 -229l-177 229h-175zM137 171q137 -191 424 -191q78 0 152 17t141.5 52.5t109 100t41.5 148.5q0 97 -53.5 159.5t-150.5 106.5q-62 25 -83 32q-12 4 -138 40q-143 40 -211 77q-7 3 -17 11q-12 10 -18 14q-44 29 -61.5 52
t-17.5 64q0 47 39 83q13 14 39 29q88 54 230 54q121 0 212 -48q84 -42 122 -170l4 -14l127 60l-2 9q-15 77 -62 138t-112.5 96.5t-139.5 54t-151 18.5q-79 0 -153.5 -16.5t-142 -51.5t-108.5 -99.5t-41 -150.5q0 -88 46 -150q16 -22 38 -39q62 -56 144.5 -90.5t194.5 -65.5
q193 -50 277 -113q28 -25 31 -29q19 -33 19 -70q0 -45 -32 -79t-82.5 -52t-100.5 -26.5t-97 -8.5q-123 0 -214 55t-114 163l-3 16l-135 -64l3 -9q21 -78 46 -113z" />
    <glyph glyph-name="Tcaron" unicode="&#x164;" horiz-adv-x="1253" 
d="M269 2082l310 -406h97l307 406h-174l-181 -233l-182 233h-177zM554 1459v-1459h146v1459l465 -1v150h-1077v-150z" />
    <glyph glyph-name="tcaron" unicode="&#x165;" horiz-adv-x="1054" 
d="M796 1242q79 42 124.5 112t45.5 156q0 63 -29 105t-93 42q-45 0 -73.5 -27.5t-28.5 -71.5q0 -35 23 -64t59 -36q-16 -42 -43 -64q-15 -12 -62 -22q-14 -3 -69 -10l-32 -3l171 -120zM561 137q-6 0 -16 -1t-18.5 -1.5t-15.5 -0.5q-82 0 -106 39q-30 49 -30 144l-1 713h251
v146h-251v404h-145v-404h-141v-146h141q-1 -237 -1 -713q0 -77 12.5 -133.5t43.5 -103t88.5 -70t140.5 -23.5q15 0 103 5l17 1l-63 145z" />
    <glyph glyph-name="Utilde" unicode="&#x168;" 
d="M751 1922q0 2 -1 2q0 1 -4 7q-37 51 -78.5 77.5t-100.5 26.5q-143 0 -186 -172q-6 -21 -12 -63l-11 -59h147l2 10q10 56 12 66q9 37 22 61q5 8 23 8q17 0 20 -3q2 0 6 -4q3 -2 9 -8q11 -12 16 -19q45 -53 88 -82q41 -27 96 -27q145 0 186 173l12 63l8 44l3 14h-146
l-1 -10q-15 -97 -33 -125q-7 -10 -29 -10t-46 28q0 2 -2 2zM88 690q0 -107 21.5 -208t69 -192.5t115.5 -160t167.5 -109t218.5 -40.5q122 0 221.5 39.5t167 107t113.5 159t67 192.5t21 211v919h-145v-919q0 -86 -15 -165.5t-49 -153t-84.5 -127t-126.5 -85.5t-169 -32
q-114 0 -202.5 49t-140.5 130.5t-78.5 179.5t-26.5 205v918h-145v-918z" />
    <glyph glyph-name="utilde" unicode="&#x169;" horiz-adv-x="1053" 
d="M259 1488q-29 -58 -44 -179l-2 -14h141l2 10q2 8 5.5 30.5t6.5 34.5q9 41 20 60q2 3 9 5q4 2 16 2q14 0 22.5 -5.5t23.5 -22.5q25 -27 39 -41t39 -33.5t51.5 -28.5t57.5 -9q138 0 181 170l12 63q2 8 4.5 22t3.5 21l3 14h-144l-2 -10q-3 -21 -12 -64q-10 -43 -21 -58
q-7 -10 -25 -10q-22 0 -46 26l-3 3q0 1 -4 8l-3 4q-2 2 -3 4l-3 2l-1 1q-1 1 -1 2q-66 90 -166 90q-108 0 -157 -97zM88 449q0 -132 49.5 -235.5t150 -165.5t238.5 -62q180 0 297 103v-89h142v1168h-142v-718q0 -137 -80 -226.5t-217 -89.5q-105 0 -184.5 61.5t-101.5 160.5
q-9 41 -9 98v712l-142 4v-12q-1 -237 -1 -709z" />
    <glyph glyph-name="Umacron" unicode="&#x16a;" 
d="M323 1883v-137h714v137h-714zM88 690q0 -107 21.5 -208t69 -192.5t115.5 -160t167.5 -109t218.5 -40.5q122 0 221.5 39.5t167 107t113.5 159t67 192.5t21 211v919h-145v-919q0 -86 -15 -165.5t-49 -153t-84.5 -127t-126.5 -85.5t-169 -32q-114 0 -202.5 49t-140.5 130.5
t-78.5 179.5t-26.5 205v918h-145v-918z" />
    <glyph glyph-name="umacron" unicode="&#x16b;" horiz-adv-x="1053" 
d="M176 1440v-137h702v137h-702zM88 449q0 -132 49.5 -235.5t150 -165.5t238.5 -62q180 0 297 103v-89h142v1168h-142v-718q0 -137 -80 -226.5t-217 -89.5q-105 0 -184.5 61.5t-101.5 160.5q-9 41 -9 98v712l-142 4v-12q-1 -237 -1 -709z" />
    <glyph glyph-name="Ubreve" unicode="&#x16c;" 
d="M453 1758q82 -82 228 -82t226.5 82.5t80.5 224.5v54h-139v-12q0 -39 -2 -62t-12.5 -51.5t-31.5 -48.5q-46 -46 -122 -46q-75 0 -122.5 46.5t-47.5 119.5q0 7 1 21t1 20l1 13h-143v-12q0 -185 82 -267zM88 690q0 -107 21.5 -208t69 -192.5t115.5 -160t167.5 -109
t218.5 -40.5q122 0 221.5 39.5t167 107t113.5 159t67 192.5t21 211v919h-145v-919q0 -86 -15 -165.5t-49 -153t-84.5 -127t-126.5 -85.5t-169 -32q-114 0 -202.5 49t-140.5 130.5t-78.5 179.5t-26.5 205v918h-145v-918z" />
    <glyph glyph-name="ubreve" unicode="&#x16d;" horiz-adv-x="1053" 
d="M302 1314q79 -80 225 -80q143 0 223.5 81t80.5 220q0 29 -1 43v12h-138v-12q0 -117 -45 -161q-45 -45 -120 -45q-58 0 -100 29t-58 83q-9 29 -9 51q0 7 1 21t1 21l1 13h-141v-12q0 -88 15 -151t65 -113zM88 449q0 -132 49.5 -235.5t150 -165.5t238.5 -62q180 0 297 103
v-89h142v1168h-142v-718q0 -137 -80 -226.5t-217 -89.5q-105 0 -184.5 61.5t-101.5 160.5q-9 41 -9 98v712l-142 4v-12q-1 -237 -1 -709z" />
    <glyph glyph-name="Uring" unicode="&#x16e;" 
d="M453 1913q0 -94 65.5 -157.5t162.5 -63.5q101 0 162.5 61t61.5 160q0 100 -61 161t-163 61q-98 0 -163 -63t-65 -159zM763 1913q0 -36 -23 -59.5t-59 -23.5t-60 24t-24 59q0 37 23 59.5t61 22.5q36 0 59 -23t23 -59zM88 690q0 -107 21.5 -208t69 -192.5t115.5 -160
t167.5 -109t218.5 -40.5q122 0 221.5 39.5t167 107t113.5 159t67 192.5t21 211v919h-145v-919q0 -86 -15 -165.5t-49 -153t-84.5 -127t-126.5 -85.5t-169 -32q-114 0 -202.5 49t-140.5 130.5t-78.5 179.5t-26.5 205v918h-145v-918z" />
    <glyph glyph-name="uring" unicode="&#x16f;" horiz-adv-x="1053" 
d="M303 1467q0 -93 64.5 -155t159.5 -62q100 0 161.5 59.5t61.5 157.5q0 99 -60.5 159t-162.5 60q-96 0 -160 -62.5t-64 -156.5zM609 1467q0 -35 -23 -58t-59 -23q-34 0 -57.5 23.5t-23.5 57.5q0 36 22.5 57.5t58.5 21.5t59 -22t23 -57zM88 449q0 -132 49.5 -235.5
t150 -165.5t238.5 -62q180 0 297 103v-89h142v1168h-142v-718q0 -137 -80 -226.5t-217 -89.5q-105 0 -184.5 61.5t-101.5 160.5q-9 41 -9 98v712l-142 4v-12q-1 -237 -1 -709z" />
    <glyph glyph-name="Uhungarumlaut" unicode="&#x170;" 
d="M565 2109l-244 -417h163l248 417h-167zM838 2109l-244 -417h162l250 417h-168zM88 690q0 -107 21.5 -208t69 -192.5t115.5 -160t167.5 -109t218.5 -40.5q122 0 221.5 39.5t167 107t113.5 159t67 192.5t21 211v919h-145v-919q0 -86 -15 -165.5t-49 -153t-84.5 -127
t-126.5 -85.5t-169 -32q-114 0 -202.5 49t-140.5 130.5t-78.5 179.5t-26.5 205v918h-145v-918z" />
    <glyph glyph-name="uhungarumlaut" unicode="&#x171;" horiz-adv-x="1053" 
d="M413 1660l-240 -410h162l244 410h-166zM683 1660l-240 -410h161l245 410h-166zM88 449q0 -132 49.5 -235.5t150 -165.5t238.5 -62q180 0 297 103v-89h142v1168h-142v-718q0 -137 -80 -226.5t-217 -89.5q-105 0 -184.5 61.5t-101.5 160.5q-9 41 -9 98v712l-142 4v-12
q-1 -237 -1 -709z" />
    <glyph glyph-name="Uogonek" unicode="&#x172;" 
d="M538 -3l-6 -5q-115 -87 -115 -217q0 -105 66.5 -161.5t174.5 -56.5q74 0 114.5 14t111.5 57l9 6l-68 139l-12 -11q-72 -66 -155 -66q-44 0 -70.5 19.5t-26.5 59.5q0 67 84 127q70 51 152 84q2 1 7 2.5t7 2.5q82 25 140 58q159 94 239 269.5t80 370.5v919h-145v-919
q0 -86 -15 -165.5t-49.5 -153t-85 -127t-126 -85.5t-168.5 -32q-92 0 -167.5 32.5t-127 86.5t-86.5 127t-51 153t-16 165v918h-145v-918q0 -111 27.5 -219t80.5 -204.5t141.5 -168.5t200.5 -101z" />
    <glyph glyph-name="uogonek" unicode="&#x173;" horiz-adv-x="1066" 
d="M653 0q-115 -92 -115 -215q0 -103 65 -159t171 -56q70 0 103 9q27 9 61 29q37 18 58 32l10 5l-67 137l-12 -10q-80 -66 -153 -66q-43 0 -69 20.5t-26 58.5q0 63 85 125q28 23 47 35q23 14 52 22q1 1 2 1t1.5 0.5t1.5 0.5l13 7q6 3 20 11l19 10q1 1 3.5 2t3.5 1h38v1168
h-142v-718q0 -137 -80 -226.5t-217 -89.5q-106 0 -185 61.5t-101 161.5q-9 40 -9 97v712l-142 4v-12q-1 -237 -1 -709q0 -132 49.5 -235.5t150 -165.5t238.5 -62q71 0 127 14z" />
    <glyph glyph-name="Wcircumflex" unicode="&#x174;" horiz-adv-x="1808" 
d="M830 2082l-312 -406h178l181 233l179 -233h176l-309 406h-93zM88 1607l381 -1605h135l299 1250l300 -1250h134l383 1605h-149l-300 -1266l-300 1266h-137l-296 -1265l-300 1265h-150z" />
    <glyph glyph-name="wcircumflex" unicode="&#x175;" horiz-adv-x="1737" 
d="M794 1635l-304 -401h174l179 228l177 -228h173l-304 401h-95zM88 1168l373 -1168h124l286 891l283 -891h123l372 1168h-149l-282 -903l-286 903h-127l-282 -903l-284 903h-151z" />
    <glyph glyph-name="Ycircumflex" unicode="&#x176;" horiz-adv-x="1363" 
d="M604 2082l-308 -406h176l182 233l181 -233h174l-307 406h-98zM607 804v-804h146v802l522 806h-182l-411 -662l-418 662h-176z" />
    <glyph glyph-name="ycircumflex" unicode="&#x177;" horiz-adv-x="1185" 
d="M508 1635l-306 -401h174l178 228l179 -228h171l-302 401h-94zM98 -435q72 -12 109 -12q158 0 262 93.5t158 247.5q53 157 67 194l403 1080h-157l-341 -907l-341 907h-158l421 -1120l-38 -105q-35 -102 -82 -157t-139 -80q-25 -7 -52 -7q-10 0 -30.5 2.5t-26.5 2.5h-41
l-2 -8l-11 -43q-6 -20 -8 -28q-1 -1 -1 -4t-1 -5l-1 -5v-44z" />
    <glyph glyph-name="Ydieresis" unicode="&#x178;" horiz-adv-x="1363" 
d="M387 1807q0 -44 28.5 -72.5t73.5 -28.5q48 0 74.5 27t26.5 74t-26 72q-28 28 -75 28q-49 0 -75.5 -26.5t-26.5 -73.5zM772 1807q0 -44 29.5 -72.5t74.5 -28.5q48 0 74 27t26 74t-26 72q-28 28 -74 28q-45 0 -74.5 -27.5t-29.5 -72.5zM607 804v-804h146v802l522 806h-182
l-411 -662l-418 662h-176z" />
    <glyph glyph-name="Zacute" unicode="&#x179;" horiz-adv-x="1258" 
d="M670 2092l-245 -416h164l249 416h-168zM915 1461l-827 -1461l1047 3v146h-793l828 1459h-1048v-144z" />
    <glyph glyph-name="zacute" unicode="&#x17a;" horiz-adv-x="1181" 
d="M609 1644l-240 -410h161l246 410h-167zM88 74l18 -74l939 2v138h-714l762 1028l-1000 -2v-139h714l-696 -943z" />
    <glyph glyph-name="Zdotaccent" unicode="&#x17b;" horiz-adv-x="1258" 
d="M528 1826q0 -44 27 -72.5t73 -28.5q49 0 75 27t26 74q0 45 -27 72.5t-74 27.5q-48 0 -74 -27t-26 -73zM915 1461l-827 -1461l1047 3v146h-793l828 1459h-1048v-144z" />
    <glyph glyph-name="zdotaccent" unicode="&#x17c;" horiz-adv-x="1181" 
d="M570 1480q-48 0 -73.5 -26t-25.5 -73q0 -44 27.5 -71t71.5 -27q48 0 73.5 26t25.5 72t-26 72.5t-73 26.5zM331 140l762 1028l-1000 -2v-139h714l-696 -943l-23 -10l18 -74l939 2v138h-714z" />
    <glyph glyph-name="Zcaron" unicode="&#x17d;" horiz-adv-x="1258" 
d="M270 2082l312 -406h96l308 406h-176l-181 -233l-181 233h-178zM915 1461l-827 -1461l1047 3v146h-793l828 1459h-1048v-144z" />
    <glyph glyph-name="zcaron" unicode="&#x17e;" horiz-adv-x="1181" 
d="M218 1635l307 -401h94l302 401h-172l-178 -229l-178 229h-175zM88 74l18 -74l939 2v138h-714l762 1028l-1000 -2v-139h714l-696 -943z" />
    <glyph glyph-name="florin" unicode="&#x192;" horiz-adv-x="1254" 
d="M1090 993h-337l51 333q6 36 27 96q19 57 61.5 87.5t103.5 30.5q47 0 141 -46l16 -7l13 132l-4 4q-2 3 -18 15l-12 9q-1 1 -3.5 2t-3.5 1h-3q-14 10 -33 -1l16 11q-54 19 -122 19q-79 0 -137.5 -26.5t-94.5 -76t-57 -106t-32 -128.5l-55 -349h-337v-137h316l-109 -698
q-14 -87 -61.5 -151t-123.5 -64q-65 0 -125 48l-12 10l-67 -129l10 -5q31 -19 48 -28q9 -5 42 -20q44 -15 104 -15q272 0 328 335q15 88 44 286q12 80 35 226.5t32 204.5h359v137z" />
    <glyph glyph-name="circumflex" unicode="&#x2c6;" horiz-adv-x="707" 
d="M308 1663l-308 -408h176l181 233l182 -233h174l-307 408h-98z" />
    <glyph glyph-name="caron" unicode="&#x2c7;" horiz-adv-x="709" 
d="M-4 1663l308 -408h98l307 408h-174l-182 -234l-181 234h-176z" />
    <glyph glyph-name="uni02C9" unicode="&#x2c9;" horiz-adv-x="744" 
d="M20 1769v-139h714v139h-714z" />
    <glyph glyph-name="breve" unicode="&#x2d8;" horiz-adv-x="646" 
d="M99 1337q78 -82 226 -82q147 0 228 81.5t81 224.5v57h-139v-12q0 -120 -45 -165q-46 -46 -125 -46q-73 0 -121 47t-48 119q0 8 1 22.5t1 21.5l1 13h-141v-12q0 -89 15.5 -153.5t65.5 -115.5z" />
    <glyph glyph-name="dotaccent" unicode="&#x2d9;" horiz-adv-x="236" 
d="M18 1404q0 -43 28 -71.5t72 -28.5q48 0 75 26.5t27 73.5q0 49 -26 74q-28 28 -76 28t-74 -27.5t-26 -74.5z" />
    <glyph glyph-name="ring" unicode="&#x2da;" horiz-adv-x="510" 
d="M24 1493q0 -95 64.5 -158.5t162.5 -63.5q103 0 164 60.5t61 161.5q0 99 -61.5 160t-163.5 61q-98 0 -162.5 -63t-64.5 -158zM334 1493q0 -37 -23 -60t-60 -23q-36 0 -59.5 24t-23.5 59t23 58t60 23q36 0 59.5 -23t23.5 -58z" />
    <glyph glyph-name="ogonek" unicode="&#x2db;" horiz-adv-x="500" 
d="M12 -225q0 -106 66 -162t175 -56q72 0 119 17q18 6 49 22q18 9 56 32l10 5l-68 140l-13 -11q-69 -66 -153 -66q-45 0 -72 19.5t-27 59.5q0 60 67 113q28 22 63 44q30 18 64 33q1 1 5 3t10 4.5t10 4.5q12 6 17 8q1 1 4 3l2 1l3 2q2 0 6 2q2 1 7 3t7 3q22 9 24 10l9 4
l-20 91h-96q-4 0 -8 -2q-4 0 -8 -3q-12 -4 -22 -9q-7 -3 -15 -6.5t-13 -6t-7 -2.5q-107 -49 -179 -123.5t-72 -176.5z" />
    <glyph glyph-name="tilde" unicode="&#x2dc;" horiz-adv-x="668" 
d="M410 1498q0 2 -1 2q0 1 -4 7q-12 15 -13 16l-6.5 6.5t-6.5 7.5q-35 39 -70.5 57.5t-84.5 18.5q-143 0 -185 -173q-1 -4 -12 -64l-8 -44l-3 -14h145l2 10q8 45 13 66q10 43 20 60q5 8 25 8q15 0 22 -4t18 -17l5 -5q1 -2 5 -6q1 0 2 -2q3 -2 6 -6q2 -4 5 -7q51 -54 77 -69
q42 -26 95 -26q145 0 186 171q5 21 11 63l8 47l3 14h-146l-1 -10l-12 -68q-8 -41 -20 -59q-7 -10 -29 -10q-20 0 -44 28z" />
    <glyph glyph-name="hungarumlaut" unicode="&#x2dd;" horiz-adv-x="719" 
d="M256 1687l-245 -416h164l249 416h-168zM530 1687l-245 -416h164l248 416h-167z" />
    <glyph glyph-name="uni0326" unicode="&#x326;" horiz-adv-x="0" 
d="M-251 92l-141 -446h144l152 446h-155z" />
    <glyph glyph-name="Wgrave" unicode="&#x1e80;" horiz-adv-x="1808" 
d="M699 2076l249 -417h159l-239 417h-169zM88 1607l381 -1605h135l299 1250l300 -1250h134l383 1605h-149l-300 -1266l-300 1266h-137l-296 -1265l-300 1265h-150z" />
    <glyph glyph-name="wgrave" unicode="&#x1e81;" horiz-adv-x="1737" 
d="M666 1628l246 -411h160l-238 411h-168zM88 1168l373 -1168h124l286 891l283 -891h123l372 1168h-149l-282 -903l-286 903h-127l-282 -903l-284 903h-151z" />
    <glyph glyph-name="Wacute" unicode="&#x1e82;" horiz-adv-x="1808" 
d="M944 2092l-242 -416h163l247 416h-168zM88 1607l381 -1605h135l299 1250l300 -1250h134l383 1605h-149l-300 -1266l-300 1266h-137l-296 -1265l-300 1265h-150z" />
    <glyph glyph-name="wacute" unicode="&#x1e83;" horiz-adv-x="1737" 
d="M908 1644l-239 -410h161l245 410h-167zM88 1168l373 -1168h124l286 891l283 -891h123l372 1168h-149l-282 -903l-286 903h-127l-282 -903l-284 903h-151z" />
    <glyph glyph-name="Wdieresis" unicode="&#x1e84;" horiz-adv-x="1808" 
d="M611 1807q0 -44 27 -72.5t73 -28.5q49 0 75 27t26 74q0 45 -27.5 72.5t-73.5 27.5q-48 0 -74 -26.5t-26 -73.5zM995 1807q0 -43 29.5 -72t73.5 -29q49 0 75 27t26 74t-26 72q-28 28 -75 28q-45 0 -74 -27.5t-29 -72.5zM88 1607l381 -1605h135l299 1250l300 -1250h134
l383 1605h-149l-300 -1266l-300 1266h-137l-296 -1265l-300 1265h-150z" />
    <glyph glyph-name="wdieresis" unicode="&#x1e85;" horiz-adv-x="1737" 
d="M580 1362q0 -42 28 -70t72 -28q47 0 73 26t26 72q0 49 -25 74q-26 25 -74 25t-74 -26t-26 -73zM959 1362q0 -42 29 -70t72 -28q47 0 73 26.5t26 71.5q0 46 -26 72.5t-73 26.5q-45 0 -73 -27t-28 -72zM88 1168l373 -1168h124l286 891l283 -891h123l372 1168h-149
l-282 -903l-286 903h-127l-282 -903l-284 903h-151z" />
    <glyph glyph-name="endash" unicode="&#x2013;" horiz-adv-x="1276" 
d="M88 832v-144h1100v144h-1100z" />
    <glyph glyph-name="emdash" unicode="&#x2014;" horiz-adv-x="1967" 
d="M88 832v-144h1791v144h-1791z" />
    <glyph glyph-name="quoteleft" unicode="&#x2018;" horiz-adv-x="521" 
d="M233 1475q18 42 45 65q16 13 59 24q8 2 67 14l29 5l-164 116l-7 -3q-78 -43 -126 -115t-48 -157q0 -61 31.5 -105.5t94.5 -44.5q45 0 73.5 29.5t28.5 72.5q0 86 -83 99z" />
    <glyph glyph-name="quoteright" unicode="&#x2019;" horiz-adv-x="527" 
d="M88 1382l170 -122l7 3q80 44 127 114.5t47 157.5q0 65 -29.5 107t-95.5 42q-45 0 -74 -27.5t-29 -71.5q0 -36 23 -65t59 -36q-13 -43 -42 -69q-12 -10 -61 -20q-45 -8 -70 -10z" />
    <glyph glyph-name="quotesinglbase" unicode="&#x201a;" horiz-adv-x="503" 
d="M88 -138l144 -104l7 3q83 43 129.5 113t46.5 159q0 62 -30.5 105.5t-94.5 43.5q-44 0 -74.5 -29t-30.5 -71q0 -39 23.5 -66.5t62.5 -34.5q-15 -38 -45 -65q-12 -12 -52 -27q-14 -5 -36 -11.5t-27 -8.5z" />
    <glyph glyph-name="quotedblleft" unicode="&#x201c;" horiz-adv-x="726" 
d="M438 1475q17 40 46 65q13 12 57 24q15 4 68 14l29 5l-163 116l-7 -3q-53 -29 -94 -73l-105 76l-7 -3q-78 -43 -126 -115t-48 -157q0 -61 31.5 -105.5t94.5 -44.5q35 0 61 19t36 50q33 -69 108 -69q45 0 74 29.5t29 72.5q0 86 -84 99zM294 1443q-21 26 -61 32q18 44 45 65
q13 10 52 22q-32 -57 -36 -119z" />
    <glyph glyph-name="quotedblright" unicode="&#x201d;" horiz-adv-x="731" 
d="M470 1263q80 44 126.5 114t46.5 158q0 149 -123 149q-36 0 -61.5 -17t-36.5 -47q-30 64 -108 64q-45 0 -74 -27.5t-29 -71.5q0 -36 23 -65t59 -36q-13 -43 -42 -69q-11 -10 -61 -20q-45 -8 -70 -10l-32 -3l170 -122l7 3q53 27 93 72l105 -75zM439 1522q24 -31 60 -38
q-14 -44 -43 -69q-9 -8 -36 -14q-5 -2 -17 -4q33 59 36 125z" />
    <glyph glyph-name="quotedblbase" unicode="&#x201e;" horiz-adv-x="708" 
d="M620 184q0 62 -30 105.5t-94 43.5q-35 0 -61.5 -17.5t-36.5 -47.5q-32 65 -108 65q-44 0 -74.5 -28.5t-30.5 -71.5q0 -39 23.5 -66.5t62.5 -33.5q-11 -34 -36.5 -56.5t-50 -32t-72.5 -23.5l-24 -7l144 -105l7 3q55 30 96 71l102 -74l7 3q82 44 129 113t47 159zM415 165
q23 -27 62 -32q-23 -66 -101 -94q34 58 39 126z" />
    <glyph glyph-name="dagger" unicode="&#x2020;" horiz-adv-x="1147" 
d="M503 979v-1120h143v1120h413v135h-413v436h-143v-436h-415v-135h415z" />
    <glyph glyph-name="daggerdbl" unicode="&#x2021;" horiz-adv-x="1147" 
d="M503 294v-435h143v435h413v136h-413v549h413v135h-413v436h-143v-436h-415v-135h415v-549h-415v-136h415z" />
    <glyph glyph-name="bullet" unicode="&#x2022;" horiz-adv-x="537" 
d="M88 751q0 -76 51 -128t129 -52q83 0 134 51q47 47 47 129q0 84 -49 133q-46 47 -132 47q-82 0 -131 -50t-49 -130z" />
    <glyph glyph-name="ellipsis" unicode="&#x2026;" horiz-adv-x="1121" 
d="M453 82q0 -43 30.5 -73.5t74.5 -30.5q45 0 74.5 30.5t29.5 73.5t-30 73.5t-74 30.5q-43 0 -74 -31t-31 -73zM824 82q0 -43 30.5 -73.5t74.5 -30.5q46 0 75 30t29 74q0 43 -29.5 73.5t-74.5 30.5q-43 0 -74 -31t-31 -73zM88 81q0 -43 30 -73.5t74 -30.5q46 0 75 30t29 74
t-29 74t-75 30q-44 0 -74 -30.5t-30 -73.5z" />
    <glyph glyph-name="perthousand" unicode="&#x2030;" horiz-adv-x="2443" 
d="M88 1145q0 -107 35.5 -195t115.5 -145.5t194 -57.5q87 0 154.5 32.5t108 89t61.5 126.5t21 150q0 264 -188 368q-69 37 -157 37q-87 0 -155 -34t-108.5 -92t-61 -129t-20.5 -150zM257 67h175l1010 1483h-175zM634 1145q0 -70 -18.5 -126t-65.5 -94t-117 -38q-56 0 -89 19
q-9 4 -32 24q-80 79 -80 215q0 141 82 223q22 22 29 25q32 19 90 19q55 0 90 -18q14 -10 30 -26q81 -77 81 -223zM923 469q0 -79 21.5 -150t63 -128t109.5 -90.5t154 -33.5q173 0 267 129q78 109 78 273q0 80 -20.5 150t-61 127t-108.5 90t-155 33t-155.5 -33t-109.5 -89.5
t-62 -127t-21 -150.5zM1664 469q0 -63 13 -120.5t40.5 -109.5t67.5 -90t98 -60t128 -22q175 0 269 129q75 104 75 273q0 80 -20.5 150t-60.5 127t-107.5 90t-155.5 33t-156 -33t-109 -89.5t-61.5 -127t-20.5 -150.5zM1471 469q0 -52 -11 -97t-33.5 -83.5t-62.5 -61
t-93 -22.5q-54 0 -92 20q-11 6 -31 23q-83 80 -83 221t84 219q15 18 30 24q36 19 92 19q102 0 151 -76t49 -186zM2212 469q0 -51 -11 -96.5t-34 -84t-63 -61t-93 -22.5q-52 0 -90 20q-7 3 -35 28q-78 81 -78 216q0 136 78 214q21 21 35 28q35 20 90 20q70 0 117 -39.5
t65.5 -96t18.5 -126.5z" />
    <glyph glyph-name="guilsinglleft" unicode="&#x2039;" horiz-adv-x="699" 
d="M88 749l338 -462h185l-343 462l343 462h-185z" />
    <glyph glyph-name="guilsinglright" unicode="&#x203a;" horiz-adv-x="701" 
d="M433 749l-345 -462h184l341 462l-341 462h-184z" />
    <glyph glyph-name="fraction" unicode="&#x2044;" horiz-adv-x="1049" 
d="M88 186l124 -82l749 1292l-124 80z" />
    <glyph glyph-name="uni207B" unicode="&#x207b;" horiz-adv-x="809" 
d="M88 1301v-140h633v140h-633z" />
    <glyph glyph-name="uni207C" unicode="&#x207c;" horiz-adv-x="839" 
d="M88 1414v-138h663v138h-663zM88 1185v-138h663v138h-663z" />
    <glyph glyph-name="uni208B" unicode="&#x208b;" horiz-adv-x="809" 
d="M88 215v-140h633v140h-633z" />
    <glyph glyph-name="uni208C" unicode="&#x208c;" horiz-adv-x="839" 
d="M88 328v-137h663v137h-663zM88 100v-139h663v139h-663z" />
    <glyph glyph-name="Euro" unicode="&#x20ac;" horiz-adv-x="1472" 
d="M1384 505l-132 64l-4 -14q-51 -204 -140 -282q-46 -42 -110.5 -65.5t-128.5 -23.5q-91 0 -166 30.5t-127 86t-87 126t-55 156.5h470l100 141h-589q-3 18 -3 36v49q0 65 3 87h576l96 140h-653q39 179 147.5 288t285.5 109q276 0 378 -312l6 -17l118 97l-2 8
q-64 182 -185.5 271.5t-314.5 89.5q-124 0 -225.5 -40.5t-172 -114t-116.5 -169t-66 -210.5h-199v-140h182q-4 -58 -4 -87q0 -43 3 -85h-181v-141h198q23 -133 85 -247t164 -189q50 -36 95 -56q101 -45 239 -45q102 0 189.5 35t150.5 97t106.5 142t66.5 175z" />
    <glyph glyph-name="trademark" unicode="&#x2122;" horiz-adv-x="1538" 
d="M382 1425v-708h136v708h157v-708h139l-1 399l150 -399h112l152 402v-402h139v845h-125l-221 -600l-219 600h-647v-137h228z" />
    <glyph glyph-name="uni2126" unicode="&#x2126;" horiz-adv-x="1548" 
d="M88 205v-138h598v122l-8 3q-444 162 -444 638q0 125 34.5 233.5t100.5 191.5t170.5 130.5t235.5 47.5q133 0 237.5 -47t169.5 -130t99 -191t34 -235q0 -476 -444 -638l-8 -3v-122h597v138h-276q140 113 207 274t67 351q0 398 -249 599q-74 57 -143 88q-119 53 -291 53
q-165 0 -297 -57.5t-216 -158.5t-128 -234.5t-44 -289.5q0 -187 69.5 -349.5t208.5 -275.5h-280z" />
    <glyph glyph-name="arrowleft" unicode="&#x2190;" horiz-adv-x="1686" 
d="M93 774q195 -134 385 -317.5t310 -362.5l6 -10l129 84l-8 10q-277 364 -530 562q13 -1 39 -1h1174v144h-1174h-39q140 109 268 247.5t262 311.5l8 9l-128 84l-7 -9q-287 -389 -695 -680l-5 -4v-64z" />
    <glyph glyph-name="arrowup" unicode="&#x2191;" horiz-adv-x="1638" 
d="M747 1236v-1169h143v1169v40q216 -270 566 -529l10 -6l84 125l-10 7q-398 285 -683 690l-4 5h-66l-4 -5q-287 -405 -685 -690l-10 -7l85 -126l10 8q369 282 564 529v-41z" />
    <glyph glyph-name="arrowright" unicode="&#x2192;" horiz-adv-x="1686" 
d="M762 168l130 -83l7 9q292 402 694 680l5 4v64l-5 4q-413 301 -694 680l-7 8l-130 -83l8 -9q282 -360 534 -559h-43h-1173v-144h1173q26 0 39 1q-139 -111 -265 -248t-265 -314z" />
    <glyph glyph-name="arrowdown" unicode="&#x2193;" horiz-adv-x="1638" 
d="M776 64l11 -13l3 -3h64l3 4q278 401 683 693l10 6l-84 127l-71 -52q-7 -5 -19 -16t-16 -14l-32 -26q-64 -51 -71 -57q-4 -4 -6 -5l-5 -5q-54 -43 -116 -102q-48 -42 -57 -52q-10 -11 -30 -32.5t-30 -32.5q-91 -102 -123 -142v41v1167h-143v-1167v-40q-109 138 -246 262
t-318 265l-10 9l-85 -128l10 -6q191 -132 376 -317q118 -119 221 -264q30 -44 81 -100z" />
    <glyph glyph-name="arrowboth" unicode="&#x2194;" horiz-adv-x="2163" 
d="M767 158q4 -5 11 -14.5t8 -10.5l7 -10l128 85l-8 10q-90 117 -225 269q-72 81 -97 106q-92 94 -207 183h1396q-139 -110 -265 -246t-265 -311l-8 -10l126 -86l7 10q296 404 695 680l5 4v64l-5 4q-399 275 -695 679l-7 10l-126 -83l8 -10q269 -352 531 -561h-1397
q261 203 529 561l8 10l-128 82l-7 -9q-296 -406 -693 -679l-5 -4v-64l5 -4q319 -222 527 -462q49 -55 147 -193z" />
    <glyph glyph-name="arrowupdn" unicode="&#x2195;" horiz-adv-x="1638" 
d="M631 -2q114 -130 155 -173l4 -4h63l4 5q290 403 683 689l9 7l-83 127l-10 -7q-341 -251 -566 -529v1390q109 -136 242 -255.5t321 -269.5l11 -9l86 125l-10 6q-401 290 -683 692l-4 4h-66l-4 -4q-276 -395 -685 -692l-10 -6l85 -125l10 8q177 135 315.5 260.5
t248.5 264.5v-1390q-96 122 -186 209q-32 32 -98 90q-162 142 -281 231l-9 8l-85 -128l10 -7q95 -68 195.5 -161.5t167.5 -166t170 -189.5z" />
    <glyph glyph-name="partialdiff" unicode="&#x2202;" horiz-adv-x="1226" 
d="M1130 639q8 75 8 170q0 84 -5 154t-22 154.5t-46 151.5t-81 130.5t-122 105.5q-110 65 -292 65q-240 0 -391 -200l-5 -9l111 -100l7 12q103 160 278 160q140 0 217 -51q190 -123 206 -495q-152 151 -413 151q-221 0 -356.5 -138t-135.5 -354q0 -219 139 -359.5
t362 -140.5q105 0 191.5 32.5t146 88t103 132.5t67 161t33.5 179zM767 225l-1 1q-86 -42 -179 -42q-153 0 -254 107t-101 259q0 149 97 249t249 100q118 0 215.5 -44.5t152.5 -135.5q9 -14 22 -41l6.5 -13t5.5 -12l3 -9l1 -1v-2q0 -18 -5 -43q-3 -20 -8 -43
q-48 -238 -204 -330z" />
    <glyph glyph-name="uni2206" unicode="&#x2206;" horiz-adv-x="1436" 
d="M88 67h1260v94l-568 1389h-120l-571 -1387q-1 -2 -1 -7v-9v-26v-42v-12zM264 205l454 1117l455 -1117h-909z" />
    <glyph glyph-name="product" unicode="&#x220f;" horiz-adv-x="1266" 
d="M88 1550v-1751h143v1613h803v-1613h144v1751h-1090z" />
    <glyph glyph-name="summation" unicode="&#x2211;" horiz-adv-x="1324" 
d="M88 -92v-109h1148v142h-930l661 731v50l-651 690h920v138h-1148v-106l706 -747z" />
    <glyph glyph-name="minus" unicode="&#x2212;" horiz-adv-x="1228" 
d="M88 848v-138h1052v138h-1052z" />
    <glyph glyph-name="uni2215" unicode="&#x2215;" horiz-adv-x="1126" 
d="M856 1607l-768 -1635l168 21l782 1655z" />
    <glyph glyph-name="uni2219" unicode="&#x2219;" horiz-adv-x="379" 
d="M88 850q0 -42 28.5 -72.5t71.5 -30.5q103 0 103 103q0 45 -28.5 72.5t-74.5 27.5q-100 0 -100 -100z" />
    <glyph glyph-name="radical" unicode="&#x221a;" horiz-adv-x="1506" 
d="M1418 1879h-152l-609 -1564l-238 592h-331v-139h234l280 -701h107z" />
    <glyph glyph-name="infinity" unicode="&#x221e;" horiz-adv-x="1848" 
d="M985 940v1l-61 -73q-7 9 -23 27q-89 109 -112 133q-24 27 -29 33q-78 91 -152 123q-56 24 -159 24q-75 0 -136.5 -28t-102.5 -73.5t-69 -106t-40.5 -123.5t-12.5 -128q0 -63 13 -126t42 -122t70 -104.5t102 -73t134 -27.5q39 0 84 5q60 6 113 44q6 4 16.5 10t12.5 7
q11 7 20 16q3 3 15 17l29 29q12 13 33.5 37.5t29.5 33.5l119 143q27 -34 167 -196q30 -35 72 -70t78 -53q50 -23 163 -23q74 0 135.5 27.5t102 72t68.5 104t40.5 122t12.5 127.5q0 66 -12 129.5t-39.5 123.5t-68 105.5t-102.5 73t-137 27.5q-106 0 -162 -26t-135 -105
q-9 -9 -13 -14q-1 -1 -5 -6.5t-6 -7.5q-15 -18 -45 -50q-36 -41 -46 -54zM784 808q30 -38 44 -57l-10 -12v-2l-182 -212q-16 -17 -42.5 -42t-40.5 -33q-29 -16 -98 -16q-52 0 -91 27q-30 22 -40 32q-46 46 -69 114.5t-23 141.5q0 54 13 108.5t39 102.5t70.5 78t100.5 30
q65 0 99 -18q4 -2 9 -6q2 -1 5.5 -4t4.5 -3q44 -34 86 -86q4 -4 11.5 -14t11.5 -14q48 -54 49 -55q37 -39 53 -60zM1575 937q41 -93 41 -188q0 -53 -15 -113.5t-41 -101.5q-29 -43 -72 -71.5t-89 -28.5q-63 0 -100.5 19.5t-83.5 69.5q-72 77 -199 230q75 94 94 115
q40 44 61 65q3 3 13.5 12.5t15.5 15.5q4 5 16 18.5t19 20.5q71 68 161 68q53 0 94 -26q14 -9 37 -33t33 -40q2 -5 8 -15q1 -4 4 -10t3 -7z" />
    <glyph glyph-name="integral" unicode="&#x222b;" horiz-adv-x="1088" 
d="M95 -123q98 -78 208 -78q160 0 238 85.5t78 242.5v1301q0 187 175 187q71 0 134 -61l14 -12l58 141l-8 6q-91 66 -198 66q-159 0 -238.5 -85.5t-79.5 -241.5v-1301q0 -100 -43 -146q-40 -40 -138 -40q-57 0 -135 52l-12 8l-60 -118z" />
    <glyph glyph-name="approxequal" unicode="&#x2248;" horiz-adv-x="1172" 
d="M661 1011l-10 4q-6 3 -17.5 8.5t-17.5 7.5q-104 45 -119 50q-63 22 -131 22q-82 0 -143.5 -32t-131.5 -96l-3 -4v-214l21 25q4 4 23.5 26.5t30.5 34.5q26 30 60 61q76 62 143 62q48 0 104 -22q23 -9 100 -45q150 -71 243 -71q134 0 268 128l3 4v212l-21 -25
q-156 -182 -248 -182q-46 0 -107 28q-20 10 -26 12q-3 1 -6.5 2t-5 1.5t-2.5 0.5q-6 2 -7 2zM88 580v-200l21 22q6 6 34 36t44 46q53 49 88 71q38 22 91 22q55 0 140 -35q22 -10 38 -18l12 -8q7 -5 14 -8q3 -2 13 -4l10 -3q14 -4 42 -16q109 -45 178 -45q139 0 268 131l3 2
v214l-21 -25q-157 -186 -248 -186q-59 0 -159 48l-40 19q-9 4 -32 13t-35 15q-90 45 -183 45q-85 0 -147.5 -33t-127.5 -100z" />
    <glyph glyph-name="notequal" unicode="&#x2260;" horiz-adv-x="1186" 
d="M381 491l-131 -270h163l129 270h556v140h-491l138 285h353v138h-285l122 261h-159l-124 -261h-564v-138h497l-137 -285h-360v-140h293z" />
    <glyph glyph-name="lessequal" unicode="&#x2264;" horiz-adv-x="1220" 
d="M88 842l1044 -582v167l-844 466l844 449v163l-1044 -558v-105zM88 205v-138h1044v138h-1044z" />
    <glyph glyph-name="greaterequal" unicode="&#x2265;" horiz-adv-x="1220" 
d="M88 427v-167l1044 582v105l-1044 558v-163l842 -449zM88 205v-138h1044v138h-1044z" />
    <glyph glyph-name="uniF8FF" unicode="&#xf8ff;" horiz-adv-x="2420" 
d="M88 -370v2408h2244v-2408h-2244zM426 202h254v442h886v236h-886v634h886v226h-1148v-1528q0 -2 2 -4q0 -6 6 -6zM852 202h1146v1538h-262v-430h-884v-244h884v-626h-884v-238zM1348 -96q20 0 38 6q8 4 15 6q6 1 11 12q0 2 1.5 6t2.5 7q2 10 2 15q0 7 -2 17q-1 3 -2 7
l-2 4q-5 8 -11 12q-9 5 -11 6l-12 3q-12 2 -18 5q-12 6 -18 6q-4 0 -9 6q-5 7 -5 10q0 12 16 12q9 0 14 -1q10 -2 14 -5q8 -5 15 -7q11 -3 13 -5l18 36q-12 8 -34 14q-24 6 -36 6q-13 0 -34 -8q-2 -1 -4.5 -2.5t-5.5 -2.5t-4 -2q-5 -2 -10 -11q-8 -11 -8 -30q0 -3 2 -13
q1 -6 6 -11q6 -7 8 -9l10 -7q5 -4 14 -4t18 -4l8 -3q4 -1 8 -5l10 -6q6 -6 6 -8q0 -10 -8 -13t-16 -3q-10 0 -31 8q-18 7 -29 18l-18 -34q18 -15 38 -20q5 -1 19 -5q11 -3 21 -3zM654 -98q40 0 66 24q27 25 28 66q2 26 -14 46q-12 15 -13 16q-14 14 -17 16q-17 10 -50 10
q-23 0 -46 -10q-21 -13 -34 -32q-12 -23 -12 -46q0 -26 12 -46q12 -23 33 -34q20 -10 47 -10zM1750 -98q19 0 38 10q20 11 32 24l-26 24q-7 -5 -22 -12q-8 -6 -22 -6q-9 0 -22 8l-10 7q-2 2 -8 11q-4 7 -4 26q0 17 4 26q1 4 18 16q10 6 22 6q14 0 22 -6q16 -6 22 -16l24 30
q-8 10 -13 14q-8 7 -15 8q-5 1 -20 5q-10 3 -20 3q-39 0 -65 -23q-25 -22 -25 -65q0 -29 10 -46q16 -24 34 -34q17 -10 46 -10zM426 -92h44v60h76v34h-76v40h82v34h-126v-168zM770 -92h42v100l78 -100h40v168h-42v-100l-78 100h-40v-168zM1000 -92h44v134h50v34h-148v-34h54
v-134zM1076 -92h46l12 28h74l12 -28h48l-72 168h-46zM1478 -92h44v134h52v34h-148v-34h52v-134zM1592 -92h44v168h-44v-168zM1818 -92h48l10 28h78l8 -28h48l-72 168h-46zM656 -60q-22 0 -35 16t-13 36q0 10 6 26q3 4 9 10l9 8q12 6 24 6t24 -6q10 -6 16 -18q0 -3 4 -13
q2 -6 2 -13q0 -10 -1 -13q-3 -10 -5 -13q-11 -14 -16 -18q-18 -8 -24 -8zM1148 -30l24 62l22 -62h-46zM1890 -30l24 62l22 -62h-46zM830 -596q-32 0 -42 28q-6 10 -6 26q0 17 4 28q4 10 12 16q6 5 18 10q6 2 18 2q36 0 46 -36q4 -20 0 -36q-4 -17 -18 -28q-13 -10 -32 -10z
M1340 -594q-17 0 -22 4q-12 4 -16 16l-4 8q0 1 -1 3t-1 3l9 2q10 2 11 2l2 -4q4 -16 22 -16q4 0 12 3t8 9q0 8 -5 11q-3 2 -21 7q-21 5 -26 10q-10 12 -6 28q4 15 24 20q0 2 16 2q17 -1 26 -10q10 -6 10 -20v-4h-22v4q-5 14 -16 14q-2 0 -3 -1t-3 -1q-14 -6 -12 -14
q0 -2 22 -8q21 -7 30 -16q7 -7 8 -18q0 -17 -10 -24q-8 -8 -15 -9q-5 -1 -17 -1zM1662 -594q-32 0 -48 34q-5 8 -3 19l3 19q6 26 32 34q3 0 6 1t8 1q20 0 32 -12q4 -4 7 -10t3 -8l-10 -4l-8 -2q-3 0 -4 4q-6 14 -20 14t-20 -10q-7 -12 -8 -20q0 -9 1 -15q2 -10 5 -13
q5 -14 20 -14q16 0 22 16l2 6l10 -2q10 -4 10 -5l-2 -9q-14 -24 -38 -24zM1996 -594q-12 0 -25 7t-17 17q-14 32 0 60q8 10 13 14q8 7 17 8q2 2 16 2q8 0 17 -3q8 -3 13 -11q2 -2 8 -10q4 -6 2 -6q-3 -3 -11 -4l-11 -2q-1 1 -2 4q-2 12 -18 12t-21 -11q-5 -12 -5 -25
q0 -12 5 -24q4 -10 21 -10q16 0 20 16q0 4 2 4v2l12 -4l6 -2v-4q0 -2 -2 -8q0 -2 -2 -4t-2 -4q-14 -14 -36 -14zM134 -594l-12 2l-24 102q0 2 10 2h12l14 -68l2 7q2 10 6 23q10 23 10 32l2 6h24l10 -34l8 -34q2 0 4 11q0 3 1.5 11t2.5 12t2.5 9t3 12t2.5 11q0 2 10 2
q12 0 12 -2q-2 -9 -10 -42q-1 -6 -3.5 -17t-4.5 -16l-6 -23v-6h-24v6q-2 2 -5 13q0 1 -2.5 10.5t-4.5 14.5l-8 32l-10 -30l-10 -46h-12zM292 -594q-2 2 -4 2l-4 16q-2 6 -4.5 19.5t-3.5 15.5t-3.5 15.5t-4.5 19.5l-4 16q0 2 10 2h11q1 0 1 -2q2 -6 2 -10q4 -11 4 -22l8 -34
l18 68h26q2 0 2 -2l10 -36l6 -34l16 70q0 2 10 2q12 0 12 -2q-2 -8 -2 -14q0 -1 -1.5 -7.5t-2.5 -10.5q-1 -9 -6 -20l-14 -52h-10l-12 2l-10 38q-1 3 -2.5 8t-1.5 7q-1 3 -2 7l-2 4q0 4 -2 12q-2 -8 -2 -12q-2 -6 -3 -11q-2 -10 -5 -15l-10 -40h-20zM466 -594q-11 0 -12 4
l-4 16q-2 6 -4.5 19.5t-3.5 15.5t-3.5 15.5t-4.5 19.5l-4 16h22l6 -34l10 -34l3 11l12 46l3 11h24l10 -34q6 -32 10 -36q0 2 2 10q-1 4 4 26l8 34h10q12 0 12 -2q-2 -8 -2 -14q0 -1 -1.5 -7.5t-2.5 -10.5q-1 -9 -6 -20l-14 -50l-10 -2h-12l-10 40l-7 27q-3 11 -3 9l-20 -74z
M668 -592v102q0 2 7 2h65v-18h-50v-24h42v-18h-42v-22l-2 -22h-20zM928 -594v106h20l42 -68v68h20v-104l-10 -2h-10l-42 68v-68h-20zM1084 -594v88h-30v18h84v-18h-32v-88h-22zM1162 -594q-2 2 -4 2q2 4 5 12l11 28q8 22 13 33q1 2 11 29q0 2 10 2h12l42 -104q-2 0 -4 -2h-6
l-14 2l-8 24h-40l-10 -24l-10 -2h-8zM1452 -594v88h-32v18h84v-18h-30v-88h-22zM1546 -594v106h20v-106h-20zM1742 -594l-2 2q1 4 4 12l10 28q8 22 13 33q1 2 11 29q0 2 12 2h12l40 -104q-2 0 -2 -2h-8l-12 2l-10 24h-40l-8 -24l-12 -2h-8zM2132 -594q-24 0 -37 15
q-13 14 -13 37q0 16 9 33t25 21q29 0 47 -7q19 -7 19 -45q0 -23 -11 -39q-11 -15 -39 -15zM2228 -594v106h32l8 -34l6 -24q1 -2 2.5 -5.5t1.5 -4.5l8 30q10 29 10 36v2h34v-106h-22v80l-8 -36l-7 -27q-3 -10 -3 -13v-4h-12l-10 2l-8 38l-12 38v-76l-10 -2h-10zM832 -576
q20 0 26 20q2 6 1 14q-1 7 -1 16q0 10 -12 18q-7 4 -12 4q-14 0 -24 -10q-3 -3 -5 -10q-1 -4 -1 -18q0 -15 8 -26q8 -8 20 -8zM2132 -576q10 0 14 4q14 6 14 30q0 26 -14 34q-3 1 -5 3q-1 1 -7 1q-18 0 -23 -11q-5 -12 -5 -27t4 -24q4 -10 22 -10zM1776 -550h28q0 2 -6 18
q-4 7 -4 10l-2 6q-1 1 -4 -4q-1 -1 -2 -4zM1196 -550h26q0 2 -6 18q-4 7 -4 10l-2 6l-6 -8zM598 -592v20h20v-20h-20zM1884 -592v20h20v-10l-2 -10h-18z" />
    <glyph glyph-name="space.tf" horiz-adv-x="840" 
 />
    <glyph glyph-name="NULL" horiz-adv-x="0" 
 />
    <glyph glyph-name="_FSHallmark" horiz-adv-x="1784" 
d="M92 1294v190h1604v-190h-1604zM1350 396q-92 0 -173 33q-83 33 -132 99q-51 65 -51 158l186 -4q0 -8 12 -32q3 -26 28 -48q18 -21 46 -32q32 -20 92 -20q28 0 53 5q20 4 51 17q34 22 34 52q0 58 -152 88q-67 20 -133 44q-54 18 -101 44q-44 20 -70 62q-26 38 -26 96
q0 86 55 137q56 52 149 87q5 0 13 1.5t23 4t26 4.5q39 4 70 4q85 0 160 -28t123 -87q47 -59 47 -143h-192q0 29 -14 46q-18 18 -36 32q-10 3 -20 10q-9 3 -11 4q-3 0 -8 2t-7 2l-24 6q-15 4 -22 4q-26 0 -55 -10q-30 -10 -51 -30q-22 -19 -22 -46t8 -48q6 -21 28 -30l15 -5
q7 -5 21 -9q30 -13 46 -14l130 -34l28 -6q15 -6 30 -6l24 -6q14 -4 20 -8l40 -18q36 -22 62 -52q18 -42 24 -88q1 -3 1 -13q0 -13 -5 -35q-3 -15 -16 -46q-45 -79 -131 -111q-87 -33 -193 -33zM92 396v798h674v-180h-464v-182h388v-178h-388v-258h-210zM844 400
q-16 0 -32 10q-22 12 -30 20q-14 12 -26 30q-8 11 -8 34q0 39 30 66q26 26 66 26q38 0 78 -28q32 -26 32 -64t-32 -70q-36 -24 -78 -24zM88 108v190h1606v-190h-1606z" />
    <glyph glyph-name="_Fontastica" horiz-adv-x="1394" 
d="M94 322q-2 0 -6 4v1182h884v-174h-682v-490h682v-182h-682v-340h-196zM422 322v184h682v482h-682v188h682v332h202v-1186h-884zM280 128q-29 0 -50 18q-22 16 -22 48q0 26 22 48q21 18 50 18q22 0 33 -7t25 -27q10 -16 10 -32q0 -29 -20 -46q-20 -20 -48 -20zM798 128
q-34 0 -60 20l14 26q8 -8 22 -14t24 -6q16 0 16 12q0 2 -2 4q-2 0 -2 4q0 2 -2 2l-4 2q-3 0 -14 4t-14 4q-1 -1 -3 -1q-4 0 -11 7q-9 7 -10 10q-6 6 -6 20q0 21 18 30q14 8 34 8q26 0 52 -14l-14 -28q-14 14 -42 14q-4 0 -6 2q-1 1 -2 1q-2 -2 -2 -3l-2 -8q0 -2 2 -2v-4
q0 -4 4 -4q0 -2 2 -2q20 0 40 -13q20 -14 20 -31q0 -20 -16 -30q-19 -10 -36 -10zM1096 128q-42 0 -58 34q-10 16 -10 32q0 15 11 35t23 23l16 6q8 2 18 2q15 0 30 -6q12 -6 22 -16l-20 -24q-1 4 -13 12q-11 6 -17 6q-5 0 -16 -4q-12 -8 -14 -14q-4 -7 -4 -20q0 -7 5 -19
t11 -13q3 -3 8 -4q6 -2 10 -2q6 0 16 6q8 4 14 10l20 -20q-9 -11 -23 -17q-13 -7 -29 -7zM106 130v128h96v-26h-62v-30h58v-26h-58v-46h-34zM364 130v128h30l58 -78v78h32v-128h-30l-58 76v-76h-32zM536 130v100h-38v28h108v-28h-36v-100h-34zM594 130l54 128h34l54 -128
h-36l-8 24h-56l-8 -24h-34zM894 130v100h-38v28h108v-28h-38v-100h-32zM978 130v128h34v-128h-34zM1148 130l56 128h34l54 -128h-36l-10 24h-54l-10 -24h-34zM280 154q17 0 26 12q8 11 8 28q0 15 -10 26q-10 12 -24 12q-16 0 -26 -10q-10 -13 -10 -28q0 -17 10 -28
q10 -12 26 -12zM646 178h36l-18 46zM1202 178h34l-18 46z" />
    <glyph glyph-name="_www.fontastica.com" horiz-adv-x="3962" 
d="M92 720q-2 0 -4 2v418h316v-62h-244v-174h244v-64h-244v-120h-68zM206 720v64h244v172h-244v66h244v118h72v-420h-316zM2528 754q-37 0 -86 17q-47 16 -76 39l36 72q22 -19 62 -36q38 -18 64 -18q21 0 32 8q14 8 14 22q0 7 -2 13q-4 6 -8 7q-3 1 -12 8q-2 1 -4.5 2.5
t-4 2t-3.5 1.5l-4 2q-3 0 -8 1.5t-7 2.5q-3 1 -8 2.5t-7 1.5q-7 1 -16 5q-12 4 -18 5q-8 2 -28 10q-13 5 -20 12q-34 18 -34 74q0 54 41 81t97 27q33 0 74 -10q36 -12 66 -30l-34 -72q-17 9 -56 26q-29 10 -58 10q-36 0 -36 -24q0 -7 11 -18t19 -14l20 -5q12 -3 30 -9
q27 -9 48 -18q7 -5 22 -12q20 -20 27 -35t7 -43q0 -34 -18 -58q-20 -29 -54 -38q-36 -12 -68 -12zM1114 752q-52 0 -95 24q-42 22 -68 65q-25 40 -25 93q0 54 25 94q25 42 67 64q43 22 96 22t96 -22q41 -21 68 -64q24 -40 24 -94q0 -53 -25 -93q-26 -43 -68 -65
q-43 -24 -95 -24zM3340 752q-50 0 -92 24t-66 66t-24 92q0 53 25 93q25 42 67 64q43 23 94 23q42 0 78 -14q32 -13 62 -46l-52 -64q-14 20 -38 34q-24 12 -48 12q-45 0 -70 -28q-26 -29 -26 -72q0 -42 27 -72t69 -30q27 0 48 12q17 7 38 28l54 -56q-30 -30 -66 -46
q-38 -20 -80 -20zM646 760v348h260v-72h-170v-78h156v-74h-156v-124h-90zM1348 760v348h80l160 -210l-2 210h86v-348h-80l-158 208v-208h-86zM1814 760v274h-104v74h300v-74h-106v-274h-90zM1972 760l150 348h94l146 -348h-96l-24 60h-152l-24 -60h-94zM2788 760v274h-104
v74h300v-74h-104v-274h-92zM3022 760v348h90v-348h-90zM3484 760l150 348h94l146 -348h-98l-22 60h-152l-24 -60h-94zM1116 830q41 0 68 32q26 32 26 72q0 41 -26 72q-26 30 -68 30t-70 -28q-26 -29 -26 -74q0 -43 27 -73q27 -31 69 -31zM2118 890h96l-46 126zM3630 890h96
l-48 126z" />
    </font>
</defs>
</svg>
