<?xml version="1.0" standalone="no"?>
<!DOCTYPE svg PUBLIC "-//W3C//DTD SVG 1.1//EN" "http://www.w3.org/Graphics/SVG/1.1/DTD/svg11.dtd" >
<svg xmlns="http://www.w3.org/2000/svg" xmlns:xlink="http://www.w3.org/1999/xlink" version="1.1">
<metadata>
Created by FontForge 20170731 at Fri May 22 20:19:13 2020
 By Aleksey,,,
Copyright (c) 2020 by Fontastica. All rights reserved.
</metadata>
<defs>
<font id="ClarityNuvo-ThinItalic" horiz-adv-x="1016" >
  <font-face 
    font-family="Clarity Nuvo Thin Italic"
    font-weight="100"
    font-style="italic"
    font-stretch="normal"
    units-per-em="2048"
    panose-1="0 0 2 0 0 0 0 0 0 0"
    ascent="1638"
    descent="-410"
    x-height="1154"
    cap-height="1602"
    bbox="-342 -596 3874 2160"
    underline-thickness="50"
    underline-position="-200"
    slope="-9"
    unicode-range="U+000D-F8FF"
  />
<missing-glyph horiz-adv-x="1000" 
d="M88 2l229 1446h824l-229 -1446h-824zM626 810l400 568h-614zM860 192l169 1066l-372 -532zM201 196l368 530l-201 524zM206 74h614l-219 566z" />
    <glyph glyph-name="f_f.liga" unicode="ff" horiz-adv-x="1200" 
d="M1018 1366q-56 -79 -71 -170l-5 -37h249l-10 -60h-249l-174 -1099h-60l175 1099h-384l-174 -1099h-60l175 1099h-168l10 60h169q17 88 34 135q20 53 54 101q71 105 172 156q99 51 222 51l-10 -58q-112 -1 -195 -49q-84 -49 -143 -129q-56 -79 -71 -170l-5 -37h385
q16 83 35 135q20 52 53 101q71 105 172 156q99 51 222 51l-10 -58q-112 -1 -195 -49q-84 -49 -143 -129z" />
    <glyph glyph-name="f_f_t.liga" unicode="fft" horiz-adv-x="1571" 
d="M1666 1157l-9 -60h-267l-124 -790q-18 -114 9 -181t130 -67q3 0 27 2l20 1l15 -60q-50 -2 -67 -2q-92 0 -141 38t-59 104q-10 72 6 165l126 790l-400 2l-174 -1099h-60l175 1099h-384l-174 -1099h-60l175 1099h-168l10 60h169q17 88 34 135q20 53 54 101q71 105 172 156
q99 51 222 51l-10 -58q-112 -1 -195 -49q-84 -49 -143 -129q-56 -79 -71 -170l-5 -37h385q16 83 35 135q20 52 53 101q71 105 172 156q99 51 222 51l-10 -58q-112 -1 -195 -49q-84 -49 -143 -129q-56 -79 -71 -170l-5 -37l399 -2l71 445h58l-71 -445h267z" />
    <glyph glyph-name="f_t.liga" unicode="ft" horiz-adv-x="1128" 
d="M1223 1157l-9 -60h-267l-124 -790q-18 -114 9 -181t130 -67q3 0 27 2l20 1l15 -60q-50 -2 -67 -2q-92 0 -141 38t-59 104q-10 72 6 165l126 790v2h-400l-174 -1099h-60l175 1099h-168l10 60h169q16 83 35 135q20 52 53 101q71 105 172 156q99 51 222 51l-10 -58
q-112 -1 -195 -49q-84 -49 -143 -129q-56 -79 -71 -170l-5 -37h400l70 443h58l-71 -445h267z" />
    <glyph glyph-name="t_t.liga" unicode="tt" horiz-adv-x="1074" 
d="M1171 1167l-10 -60h-267l-128 -814q-18 -112 10 -181q27 -67 130 -67q2 0 26 2l21 1l15 -60q-50 -2 -67 -2q-92 0 -141 38t-59 104t5 165l130 814h-364l-128 -814q-18 -112 10 -181q27 -67 130 -67q2 0 26 2l21 1l15 -60q-50 -2 -67 -2q-96 0 -141 38q-49 38 -59 104
t5 165l130 814h-151l10 60h151l69 435h58l-69 -435h364l69 435h58l-69 -435h267z" />
    <glyph glyph-name=".notdef" horiz-adv-x="1000" 
d="M88 2l229 1446h824l-229 -1446h-824zM626 810l400 568h-614zM860 192l169 1066l-372 -532zM201 196l368 530l-201 524zM206 74h614l-219 566z" />
    <glyph glyph-name=".null" horiz-adv-x="0" 
 />
    <glyph glyph-name="nonmarkingreturn" horiz-adv-x="682" 
 />
    <glyph glyph-name="CR" unicode="&#xd;" horiz-adv-x="0" 
 />
    <glyph glyph-name="space" unicode=" " horiz-adv-x="850" 
 />
    <glyph glyph-name="exclam" unicode="!" horiz-adv-x="299" 
d="M160 63q-25 0 -40 19q-16 18 -12 43q5 27 26 44q21 18 46 18t40 -18q15 -19 11 -44q-5 -27 -25 -44q-21 -18 -46 -18zM193 444l174 1098h56l-174 -1098h-56z" />
    <glyph glyph-name="quotedbl" unicode="&#x22;" horiz-adv-x="434" 
d="M293 1296l59 370h56l-59 -370h-56zM495 1296l59 370h56l-59 -370h-56z" />
    <glyph glyph-name="numbersign" unicode="#" horiz-adv-x="1398" 
d="M331 69l144 468h-302l8 52h310l142 454h-314l8 52h322l139 446h56l-141 -446h414l139 446h56l-139 -446h310l-8 -52h-318l-142 -454h322l-8 -52h-330l-144 -468h-56l144 468h-412l-144 -468h-56zM547 589h414l140 454h-414z" />
    <glyph glyph-name="dollar" unicode="$" horiz-adv-x="1222" 
d="M580 -150l35 220q-200 14 -306 100q-65 45 -104 125q-40 81 -44 167l57 28q0 -126 70 -217q70 -92 187 -125q71 -24 148 -28l103 652q-169 37 -240 64q-105 39 -153 120q-49 79 -31 196q20 122 105 210q82 87 203 134q117 46 238 46l35 220h52l-35 -220q183 -10 286 -95
q101 -86 120 -245l-51 -36q-21 305 -363 326l-106 -674q141 -30 223 -57l13 -5q108 -43 155 -118t27 -194q-19 -121 -102 -205q-81 -84 -199 -127q-115 -42 -236 -42l-35 -220h-52zM675 120q177 13 315 89q135 75 160 235q16 98 -25 161q-43 63 -136 97q-111 39 -212 62z
M735 830l105 662q-105 0 -210 -38q-104 -39 -179 -116q-75 -76 -93 -186q-15 -100 28 -165t135 -97q65 -24 214 -60z" />
    <glyph glyph-name="percent" unicode="%" horiz-adv-x="1686" 
d="M529 790q-82 0 -135 32q-85 42 -112 135q-28 91 -10 205q17 104 64 188q47 86 127 139t185 53q84 0 137 -32q86 -53 111 -139q25 -88 6 -209q-24 -151 -115 -260q-51 -56 -111 -81q-61 -31 -147 -31zM537 840q88 0 153 44q66 45 104 116q39 76 52 162q16 95 -4 179
q-19 79 -88 125q-47 26 -114 26q-64 0 -124 -26q-52 -29 -92 -76q-36 -44 -61 -105q-26 -67 -35 -123q-15 -96 6 -174t89 -122q50 -26 114 -26zM1295 70q-84 0 -137 32q-85 49 -112 139q-29 89 -9 205q17 104 64 188q47 83 128 137q79 51 185 51q84 0 137 -32
q158 -91 118 -344q-14 -78 -39 -139q-25 -62 -75 -121q-107 -116 -260 -116zM1303 120q131 0 214 102q39 40 63 101q22 60 33 123q13 84 -1 161q-15 72 -65 119q-50 46 -141 46q-64 0 -124 -26q-82 -43 -129 -124q-47 -80 -62 -176q-17 -96 6 -176q23 -81 90 -124
q50 -26 116 -26zM321 70l1229 1472h66l-1229 -1472h-66z" />
    <glyph glyph-name="ampersand" unicode="&#x26;" horiz-adv-x="1365" 
d="M562 -22q-132 0 -233 45q-101 44 -151 136t-29 228q20 120 106 226q84 105 247 225l63 45q-75 116 -104 211q-29 94 -14 190q17 100 70 177q54 78 135 121q82 43 184 43q86 0 151 -35q63 -35 92 -101t15 -155q-24 -153 -262 -324l-187 -133l427 -593q73 83 124 190
q49 102 67 221h61q-42 -263 -218 -457l171 -238h-74l-141 195q-244 -217 -500 -217zM571 37q118 0 241 53q120 52 218 149l-437 603l-64 -47q-162 -123 -234 -219q-72 -98 -87 -189q-14 -95 20 -173q34 -82 123 -129q89 -48 220 -48zM614 917l197 139q200 143 221 278
q11 71 -11 122q-22 52 -73 81q-50 28 -121 28q-82 0 -149 -34q-69 -35 -112 -98q-44 -62 -58 -147q-28 -171 106 -369z" />
    <glyph glyph-name="quotesingle" unicode="'" horiz-adv-x="232" 
d="M293 1296l59 370h56l-59 -370h-56z" />
    <glyph glyph-name="parenleft" unicode="(" horiz-adv-x="608" 
d="M463 -221q-192 184 -246 437q-55 251 -4 572q49 320 183 570q133 250 386 437l18 -30q-240 -177 -367 -421q-126 -241 -176 -556q-25 -152 -26 -282q-3 -131 23 -252q27 -138 83 -246q55 -107 153 -199z" />
    <glyph glyph-name="parenright" unicode=")" horiz-adv-x="608" 
d="M77 -221l-19 30q242 177 369 421q127 246 176 558q49 309 1 555q-49 244 -236 422l28 30q193 -185 247 -435q53 -251 2 -572q-51 -319 -182 -571q-132 -250 -386 -438z" />
    <glyph glyph-name="asterisk" unicode="*" horiz-adv-x="1118" 
d="M408 718l-39 32l330 366l-412 138l24 52l409 -144l68 454h54l-76 -454l455 144l8 -52l-454 -138l212 -366l-49 -32l-206 370z" />
    <glyph glyph-name="plus" unicode="+" horiz-adv-x="1216" 
d="M619 244l80 506h-492l8 50h492l77 490h56l-77 -490h492l-8 -50h-492l-80 -506h-56z" />
    <glyph glyph-name="comma" unicode="," horiz-adv-x="363" 
d="M96 -248l-42 35q37 10 77 40q37 28 63 68q25 40 31 79q1 4 -1 21q-17 -17 -40 -17q-28 0 -37 20q-14 18 -10 40q5 25 27 44q20 14 44 14q42 0 57 -32q15 -34 8 -78q-12 -73 -59 -137q-48 -63 -118 -97z" />
    <glyph glyph-name="hyphen" unicode="-" horiz-adv-x="814" 
d="M203 726l9 56h638l-9 -56h-638z" />
    <glyph glyph-name="period" unicode="." horiz-adv-x="299" 
d="M147 -17q-25 0 -40 19q-16 18 -12 43q5 27 26 44q21 18 46 18t40 -18q15 -19 11 -44q-5 -27 -25 -44q-21 -18 -46 -18z" />
    <glyph glyph-name="slash" unicode="/" horiz-adv-x="814" 
d="M62 -164l862 1780h58l-862 -1780h-58z" />
    <glyph glyph-name="zero" unicode="0" horiz-adv-x="1157" 
d="M575 -22q-149 0 -244 88q-107 98 -135 264t0 351l38 240q34 214 117 367q83 154 207 245q122 91 277 91q149 0 246 -88q109 -98 136 -263q27 -164 -2 -353l-38 -240q-33 -204 -116 -366q-82 -152 -207 -244t-278 -92h-1zM585 37q130 0 248 82q121 89 192 240
q69 151 96 321l38 242q14 91 16 182q1 83 -13 152q-29 144 -111 226t-225 82q-154 0 -267 -98t-179 -244q-66 -145 -90 -299l-38 -242q-24 -153 -5 -298q19 -148 102 -247t236 -99z" />
    <glyph glyph-name="one" unicode="1" horiz-adv-x="578" 
d="M428 0l243 1533l-353 -285l-25 46l374 308h74l-251 -1602h-62z" />
    <glyph glyph-name="two" unicode="2" horiz-adv-x="1173" 
d="M127 0l9 59l621 605q179 176 267 300q88 125 104 230q18 116 -13 198t-112 128q-82 44 -206 44q-112 0 -213 -53q-100 -54 -168 -147q-68 -94 -86 -207h-59q21 128 98 235q76 106 193 170q116 62 244 62q136 0 230 -48t135 -144q40 -97 18 -238q-15 -96 -76 -191
q-62 -97 -134 -179q-68 -78 -214 -223l-551 -542h880l-9 -59h-958z" />
    <glyph glyph-name="three" unicode="3" horiz-adv-x="1151" 
d="M554 -22q-135 -1 -232 50q-98 51 -141 148q-44 98 -23 230q1 9 8 39h60q-7 -35 -8 -44q-19 -116 23 -199q42 -82 129 -123q86 -42 199 -42q118 0 223 43q108 43 182 127t93 204q19 119 -30 204q-50 86 -146 131q-99 44 -215 44h-164l4 59h169q107 0 207 41q99 40 168 120
t87 190q17 110 -26 191q-44 83 -129 128q-86 45 -195 45q-111 0 -209 -42q-100 -44 -165 -125q-67 -82 -85 -197q0 -3 -1 -10.5t-2 -16t-2 -17.5h-60q0 6 4 39q21 132 96 230q72 96 187 148q112 51 246 51q130 0 230 -50q99 -50 145 -147q47 -99 25 -232q-13 -88 -63 -163
q-49 -76 -124 -130q-76 -53 -169 -82q91 -25 162 -82q70 -56 101 -138q32 -84 16 -183q-23 -143 -105 -240q-81 -98 -205 -148q-119 -49 -265 -51z" />
    <glyph glyph-name="four" unicode="4" horiz-adv-x="1299" 
d="M941 0l67 420h-853l1025 1182h74l-176 -1124h209l-9 -58h-209l-66 -420h-62zM277 478h740l166 1049z" />
    <glyph glyph-name="five" unicode="5" horiz-adv-x="1102" 
d="M552 0q-128 0 -220 56t-136 157t-38 230h61q-3 -102 39 -187q42 -86 122 -136q80 -51 183 -51q106 0 215 58q104 56 171 161q68 105 87 226q21 130 -18 234q-38 102 -123 162q-86 59 -196 59q-99 0 -198 -51q-101 -51 -165 -135l-29 63l-1 -1v3l169 752h781l-9 -59h-727
l-141 -626q76 60 161 91q85 30 170 30q131 0 228 -61q100 -61 141 -180q40 -116 17 -278q-27 -162 -104 -277q-79 -116 -192 -178q-115 -62 -248 -62z" />
    <glyph glyph-name="six" unicode="6" horiz-adv-x="1106" 
d="M550 4q-142 0 -237 60q-96 61 -133 167q-39 108 -17 245l89 561l-86 -550l69 434q33 207 128 367q97 159 241 248q142 88 315 88q172 0 290 -88l-32 -53q-105 81 -267 81q-171 0 -302 -89q-129 -87 -209 -234t-107 -318l-34 -213q84 114 192 169q107 55 248 55
q139 0 236 -58t139 -165q41 -107 18 -249q-26 -140 -101 -242q-77 -104 -190 -160q-115 -56 -250 -56zM560 70q116 0 216 51t168 141q67 90 87 203q19 113 -19 206t-123 145t-202 52t-215 -49q-99 -49 -165 -141q-66 -90 -86 -210q-17 -111 19 -205q35 -95 122 -145
q82 -48 198 -48z" />
    <glyph glyph-name="seven" unicode="7" horiz-adv-x="1145" 
d="M253 0l949 1544l-869 3l9 55h969l-992 -1602h-66z" />
    <glyph glyph-name="eight" unicode="8" horiz-adv-x="1197" 
d="M597 -22q-141 0 -249 48q-109 48 -163 147q-54 97 -31 244q16 100 73 182q57 81 143 137t188 84q-84 25 -143 81q-58 54 -82 130q-25 73 -11 164q21 132 96 230q72 96 187 148q113 51 247 51q132 0 230 -50q99 -50 145 -147q47 -99 25 -232q-13 -88 -63 -163
q-49 -76 -124 -130q-76 -53 -169 -82q91 -25 162 -82q70 -56 101 -138q32 -84 16 -183q-22 -142 -105 -241q-83 -98 -207 -148q-121 -50 -266 -50zM606 37q117 0 228 41q107 40 184 126q75 83 95 207q19 119 -30 204q-50 86 -146 131q-99 44 -215 44q-119 0 -227 -43
q-110 -44 -187 -130q-76 -85 -96 -206q-20 -123 30 -207q49 -85 145 -125q96 -42 219 -42zM731 849q107 0 207 41q99 40 168 120t87 190q17 110 -26 191q-44 83 -129 128q-86 45 -195 45q-111 0 -209 -42q-99 -44 -166 -125q-67 -82 -85 -197q-18 -111 24 -190t128 -120
q87 -41 196 -41z" />
    <glyph glyph-name="nine" unicode="9" horiz-adv-x="1106" 
d="M442 -10q-172 0 -290 88l33 53q107 -81 267 -81q171 0 302 89q128 87 209 235q79 145 106 317l34 213q-82 -112 -191 -168t-248 -56q-130 0 -230 55q-97 54 -142 159q-46 104 -24 243q22 142 99 250q77 107 192 165t253 58q143 0 238 -59q94 -60 132 -167
q38 -108 16 -246l-89 -561l86 550l-68 -434q-35 -213 -128 -367q-97 -160 -241 -248q-142 -88 -316 -88zM674 746q114 0 216 50q99 50 166 140q65 91 85 210q17 110 -18 206q-36 94 -123 144q-82 48 -198 48q-114 0 -215 -51q-102 -52 -169 -141q-68 -92 -87 -203
q-19 -113 19 -206q38 -91 123 -144q86 -53 201 -53z" />
    <glyph glyph-name="colon" unicode=":" horiz-adv-x="299" 
d="M307 989q-25 0 -40 19q-16 17 -13 43q5 26 26 44t46 18q24 0 41 -18q15 -18 10 -44t-24 -44q-21 -18 -46 -18zM147 -17q-25 0 -40 19q-16 18 -12 43q5 27 26 44q21 18 46 18t40 -18q15 -19 11 -44q-5 -27 -25 -44q-21 -18 -46 -18z" />
    <glyph glyph-name="semicolon" unicode=";" horiz-adv-x="363" 
d="M96 -248l-42 35q37 10 77 40q37 28 63 68q25 40 31 79q1 4 -1 21q-17 -17 -40 -17q-20 0 -37 18q-14 19 -10 42q5 25 27 44q20 14 44 14q42 0 57 -32q15 -34 8 -78q-12 -73 -59 -137q-48 -63 -118 -97zM349 989q-25 0 -40 19q-16 17 -13 43q5 26 26 44t46 18q24 0 41 -18
q15 -18 10 -44t-24 -44q-21 -18 -46 -18z" />
    <glyph glyph-name="less" unicode="&#x3c;" horiz-adv-x="1168" 
d="M1110 192l-909 520l8 54l1075 520l-10 -62l-1005 -484l851 -486z" />
    <glyph glyph-name="equal" unicode="=" horiz-adv-x="1142" 
d="M241 968l8 50h966l-8 -50h-966zM170 518l8 52h966l-8 -52h-966z" />
    <glyph glyph-name="greater" unicode="&#x3e;" horiz-adv-x="1168" 
d="M118 192l10 62l1007 486l-853 484l10 62l909 -520l-8 -54z" />
    <glyph glyph-name="question" unicode="?" horiz-adv-x="1080" 
d="M565 400l52 326q94 26 188 66q134 49 217 150q80 100 103 240q17 106 -19 180q-38 76 -116 114q-81 38 -186 38q-191 0 -309 -85q-119 -86 -176 -273l-45 20q56 200 194 294q139 94 344 94q121 0 211 -42q89 -43 133 -129q43 -84 23 -211q-18 -112 -62 -190
q-48 -83 -118 -142q-67 -57 -147 -93q-74 -34 -187 -67l-46 -290h-54zM538 63q-25 0 -40 19q-16 18 -12 43q5 27 26 44q21 18 46 18t40 -18q15 -19 11 -44q-5 -27 -25 -44q-21 -18 -46 -18z" />
    <glyph glyph-name="at" unicode="@" horiz-adv-x="1981" 
d="M906 -239q-278 0 -450 121q-175 122 -236 336q-63 214 -19 496q57 359 235 614q164 237 396 360q233 123 503 123q266 0 442 -98q174 -97 254 -321q48 -219 2 -510l-15 -81q-27 -140 -83 -277q-60 -147 -155 -248q-98 -104 -226 -104q-98 0 -144 64q-47 64 -47 165
l-10 -5q-71 -89 -150 -134q-81 -45 -181 -45q-126 0 -206 68q-79 67 -103 189q-17 77 0 182q6 34 15 74l42 175q34 141 104 244q58 86 146 139q85 52 182 52q123 0 206 -65q81 -64 111 -182l50 211l48 -4l-196 -827q-19 -138 29 -185q49 -52 116 -52q126 0 213 116
q87 115 133 263q46 146 67 284q34 209 11 370q-22 156 -110 265q-159 214 -559 214q-244 0 -459 -118q-170 -92 -295 -237q-124 -143 -201 -317q-76 -172 -106 -362q-39 -248 20 -452q59 -203 221 -322q163 -119 419 -119q89 0 195 23q101 22 182 65l18 -50
q-79 -48 -193 -73q-113 -25 -216 -25zM1036 281q97 0 175 54q76 54 129 140q51 86 75 182l44 174q3 10 10 52q14 90 -1 164q-22 109 -92 168q-71 59 -185 59q-83 0 -158 -45q-77 -47 -129 -123q-32 -46 -48 -88q-19 -51 -37 -123l-44 -167q-11 -38 -15 -74q-7 -40 -6 -73
t9 -71q19 -108 90 -168q70 -61 183 -61z" />
    <glyph glyph-name="A" unicode="A" horiz-adv-x="1445" 
d="M88 0l852 1602h73l344 -1602h-64l-131 611h-684l-325 -611h-65zM509 670h640l-182 872z" />
    <glyph glyph-name="B" unicode="B" horiz-adv-x="1256" 
d="M88 0l254 1602h510q137 0 247 -37q109 -37 171 -123q60 -86 38 -225q-20 -120 -91 -205q-73 -85 -194 -131q-5 -1 -16 -6q-10 -4 -19 -6q147 -45 212 -153q64 -108 38 -273q-23 -150 -105 -247q-82 -98 -206 -145q-125 -47 -276 -48zM160 61h501q155 0 266 50
q107 50 170 134q63 82 81 196q37 243 -145 343q-56 30 -103 39q-49 9 -125 9h-523zM288 893h504q102 0 202 35q98 34 168 108q70 73 86 178q15 96 -21 174q-43 90 -147 124q-105 34 -237 34h-451z" />
    <glyph glyph-name="C" unicode="C" horiz-adv-x="1254" 
d="M658 -22q-185 0 -300 98q-114 97 -153 259q-39 160 -9 346l38 240q33 207 128 367q97 159 241 248q142 88 315 88q174 0 290 -88q117 -89 162 -248l-52 -32q-39 150 -144 229q-104 79 -265 79q-171 0 -302 -89q-129 -87 -209 -234t-107 -318l-38 -242q-27 -168 6 -314
q31 -146 134 -238t275 -92q158 0 289 80q130 79 217 228l42 -31q-95 -159 -240 -248q-143 -88 -317 -88h-1z" />
    <glyph glyph-name="D" unicode="D" horiz-adv-x="1263" 
d="M88 0l254 1602h505q188 -2 303 -94q116 -93 158 -248q42 -156 12 -343l-37 -233q-31 -200 -129 -357q-94 -153 -237 -238q-146 -86 -311 -86zM600 58q161 0 294 80q141 82 223 229q81 145 108 317l38 236q27 172 -9 312t-142 225q-107 85 -282 89h-438l-232 -1485z" />
    <glyph glyph-name="E" unicode="E" horiz-adv-x="1145" 
d="M88 0l254 1602h969l-9 -56h-910l-104 -653h651l-11 -61h-646l-122 -771h907l-10 -58z" />
    <glyph glyph-name="F" unicode="F" horiz-adv-x="1145" 
d="M88 0l254 1602h969l-9 -56h-910l-104 -653h651l-11 -61h-646l-132 -832h-62z" />
    <glyph glyph-name="G" unicode="G" horiz-adv-x="1254" 
d="M658 -22q-185 0 -300 98q-114 97 -153 259q-39 160 -9 346l38 240q33 207 128 367q97 159 241 248q142 88 315 88q174 0 290 -88q117 -89 162 -248l-52 -32q-39 150 -144 229q-104 79 -265 79q-171 0 -302 -89q-129 -87 -209 -234t-107 -318l-38 -242q-27 -168 6 -314
q31 -146 134 -238t275 -92q156 0 280 75q124 74 213 216l78 490h-448l8 53h501l-90 -567q-97 -155 -239 -241q-142 -85 -312 -85h-1z" />
    <glyph glyph-name="H" unicode="H" horiz-adv-x="1147" 
d="M88 0l254 1602h59l-113 -709h853l113 709h59l-254 -1602h-61l132 832h-848l-132 -832h-62z" />
    <glyph glyph-name="I" unicode="I" horiz-adv-x="238" 
d="M88 0l254 1602h59l-251 -1602h-62z" />
    <glyph glyph-name="J" unicode="J" horiz-adv-x="1146" 
d="M574 0q-147 0 -247 65q-100 64 -141 181t-17 266h48q-18 -132 17 -236q34 -103 124 -162q89 -59 225 -59q134 0 243 59q108 59 176 164q69 105 90 242l171 1082h49l-173 -1090q-22 -147 -98 -263q-77 -117 -196 -182q-119 -67 -271 -67z" />
    <glyph glyph-name="K" unicode="K" horiz-adv-x="1219" 
d="M88 0l254 1602h59l-128 -806l1018 805h74l-853 -682l619 -919h-62l-603 883l-201 -160l-115 -723h-62z" />
    <glyph glyph-name="L" unicode="L" horiz-adv-x="1145" 
d="M88 0l254 1602h59l-241 -1541h907l-10 -58z" />
    <glyph glyph-name="M" unicode="M" horiz-adv-x="1432" 
d="M88 0l254 1602h59l-1 -6l324 -1537l815 1543h59l-254 -1602h-61l228 1428l-760 -1428h-72l-307 1421l-222 -1421h-62z" />
    <glyph glyph-name="N" unicode="N" horiz-adv-x="1148" 
d="M89 0l253 1599v3h61l617 -1472l235 1472h59l-254 -1602h-61l1 4l-617 1473l-232 -1477h-62z" />
    <glyph glyph-name="O" unicode="O" horiz-adv-x="1323" 
d="M658 -22q-185 0 -300 98q-114 97 -153 259q-39 160 -9 346l38 240q33 207 128 367q97 159 241 248q142 88 315 88q190 0 303 -97q115 -98 152 -258q38 -162 8 -349l-38 -240q-33 -205 -127 -366q-95 -159 -240 -248q-143 -88 -317 -88h-1zM668 37q173 0 304 89
q130 88 208 234q77 144 106 320l38 242q14 96 13 177q-1 82 -19 157q-39 150 -144 229q-104 79 -265 79q-171 0 -302 -89q-129 -87 -209 -234t-107 -318l-38 -242q-27 -168 6 -314q31 -146 134 -238t275 -92z" />
    <glyph glyph-name="P" unicode="P" horiz-adv-x="1195" 
d="M88 0l254 1602h502q137 0 247 -37q109 -37 171 -123q60 -86 38 -225q-23 -139 -108 -224t-208 -123q-125 -38 -262 -38h-441l-131 -832h-62zM290 888h441q159 0 264 40q101 38 166 113q64 74 80 176q15 95 -22 171q-43 90 -147 124q-105 34 -237 34h-443z" />
    <glyph glyph-name="Q" unicode="Q" horiz-adv-x="1323" 
d="M658 -22q-185 0 -300 98q-114 97 -153 259q-39 160 -9 346l38 240q33 207 128 367q97 159 241 248q142 88 315 88q190 0 303 -97q115 -98 152 -258q38 -162 8 -349l-38 -240q-21 -130 -71 -253q-49 -122 -131 -219l87 -208h-73l-65 154q-188 -176 -431 -176h-1zM668 37
q114 0 215 43q103 42 186 127l-98 231h73l74 -175q68 86 108 194q41 108 60 223l38 242q14 96 13 177q-1 82 -19 157q-39 150 -144 229q-104 79 -265 79q-171 0 -302 -89q-129 -87 -209 -234t-107 -318l-38 -242q-27 -168 6 -314q31 -146 134 -238t275 -92z" />
    <glyph glyph-name="R" unicode="R" horiz-adv-x="1197" 
d="M986 870q-65 -21 -136 -30l253 -840h-63l-255 834q-40 -2 -61 -2h-443l-131 -832h-62l254 1602h504q137 0 247 -37q110 -38 170 -123q60 -86 39 -225q-23 -139 -108 -224q-87 -86 -208 -123zM733 888q159 0 264 40q101 38 166 113q63 72 80 176q15 95 -22 171
q-43 90 -148 124q-103 34 -236 34h-445l-102 -658h443z" />
    <glyph glyph-name="S" unicode="S" horiz-adv-x="1197" 
d="M599 -22q-125 0 -221 40q-98 39 -160 119t-77 197l59 31l1 -1q3 -85 40 -146q38 -64 105 -110q54 -37 120 -52q63 -16 145 -16q107 0 210 36q105 37 179 112q74 77 92 188q12 79 -11 143q-29 89 -132 150q-109 65 -236 109q-146 51 -256 119q-95 58 -136 146
q-42 88 -14 214q25 123 109 210q81 84 199 127q117 41 239 41t221 -40q98 -40 163 -120q62 -80 73 -198l-57 -30l-1 2q-9 107 -64 180q-56 73 -143 108q-88 36 -199 36q-119 0 -212 -34q-110 -41 -183 -118q-75 -79 -91 -184q-13 -78 10 -144q28 -82 140 -153
q111 -71 227 -113q92 -31 153 -57t105 -54q91 -57 135 -146q40 -80 14 -215q-24 -123 -107 -209q-82 -85 -199 -126q-115 -42 -240 -42z" />
    <glyph glyph-name="T" unicode="T" horiz-adv-x="1212" 
d="M578 0l244 1542l-490 -1l10 61h1036l-10 -61l-489 1l-244 -1542h-57z" />
    <glyph glyph-name="U" unicode="U" horiz-adv-x="1323" 
d="M658 -22q-185 0 -300 98q-114 97 -153 259q-39 160 -9 346l146 921h57l-146 -921q-27 -168 6 -314q31 -146 134 -238t275 -92q173 0 304 89q130 88 208 234q77 144 106 320l146 922h57l-146 -922q-33 -205 -127 -366q-95 -159 -240 -248q-143 -88 -317 -88h-1z" />
    <glyph glyph-name="V" unicode="V" horiz-adv-x="1445" 
d="M686 0l-344 1602h65l325 -1543l815 1543h64l-852 -1602h-73z" />
    <glyph glyph-name="W" unicode="W" horiz-adv-x="1771" 
d="M468 2l-126 1599h59l116 -1502l588 1502h66l117 -1502l591 1502h58l-635 -1599h-63l-118 1484l-589 -1484h-64z" />
    <glyph glyph-name="X" unicode="X" horiz-adv-x="1247" 
d="M91 0l620 798l-369 804h70l348 -743l579 743h74l-625 -804l367 -798h-75l1 4l-341 731l-573 -731l-1 -4h-75z" />
    <glyph glyph-name="Y" unicode="Y" horiz-adv-x="1247" 
d="M594 0l129 813l-381 789h70l348 -743l579 743h74l-634 -790l-129 -812h-56z" />
    <glyph glyph-name="Z" unicode="Z" horiz-adv-x="1146" 
d="M88 0l1115 1544l-869 3l9 55h969l-1114 -1541h870l-10 -58z" />
    <glyph glyph-name="bracketleft" unicode="[" horiz-adv-x="594" 
d="M53 -220l316 1996h418l-8 -50h-366l-300 -1894h366l-8 -52h-418z" />
    <glyph glyph-name="backslash" unicode="\" horiz-adv-x="814" 
d="M642 -164l-298 1780h58l298 -1780h-58z" />
    <glyph glyph-name="bracketright" unicode="]" horiz-adv-x="594" 
d="M53 -220l8 52h366l300 1894h-366l8 50h418l-316 -1996h-418z" />
    <glyph glyph-name="asciicircum" unicode="^" horiz-adv-x="1222" 
d="M223 852l630 844h54l362 -844h-66l-333 778l-581 -778h-66z" />
    <glyph glyph-name="underscore" unicode="_" horiz-adv-x="1294" 
d="M73 -94l8 50h1118l-8 -50h-1118z" />
    <glyph glyph-name="grave" unicode="`" horiz-adv-x="446" 
d="M505 1309l-151 344h64l142 -344h-55z" />
    <glyph glyph-name="a" unicode="a" horiz-adv-x="1071" 
d="M450 -23q-101 0 -176 38q-79 38 -116 110q-39 73 -22 175q16 107 96 190q89 92 228 133q135 40 283 40h285l6 39q10 68 9 111q-1 41 -19 92q-31 93 -106 139q-77 47 -182 47q-113 0 -202 -49q-90 -50 -147 -138q-58 -88 -76 -201h-59q19 130 85 233q64 103 170 162
t239 59q121 0 210 -53q88 -54 126 -159q37 -104 13 -241h-1l-112 -705h-59l34 218q-80 -105 -211 -173q-128 -67 -296 -67zM460 35q160 0 293 72q132 70 221 213l45 283h-282q-147 0 -268 -39q-107 -34 -183 -102q-77 -68 -92 -166q-10 -63 19 -131q29 -64 98 -96
q69 -34 149 -34z" />
    <glyph glyph-name="b" unicode="b" 
d="M507 -18q-241 0 -335 201l-29 -183h-55l254 1602h55l-102 -644q155 200 398 200q121 0 209 -53q87 -53 125 -158q37 -104 13 -237l-44 -277q-18 -137 -88 -239q-72 -107 -175 -159q-104 -53 -226 -53zM517 44q113 0 202 50q99 58 153 142q51 82 69 200l43 269
q11 68 9 113q-2 44 -18 92q-33 93 -109 140q-77 47 -182 47q-113 0 -202 -49t-148 -138q-58 -87 -79 -202l-44 -276q-13 -111 15 -199t103 -138q73 -51 188 -51z" />
    <glyph glyph-name="c" unicode="c" horiz-adv-x="956" 
d="M503 -20q-250 0 -333 212q-19 49 -21 109q-3 57 8 130l44 277h-1q18 126 84 228q64 101 169 162q104 59 233 59q120 0 208 -54t124 -156l-52 -37q-35 92 -109 138q-76 47 -179 47q-105 0 -197 -47q-93 -49 -151 -140q-31 -47 -48 -92q-16 -45 -27 -113l-42 -269
q-11 -70 -9 -114q2 -45 18 -91q35 -93 109 -139q75 -48 181 -48q103 0 194 47q89 47 152 138l40 -38q-69 -102 -173 -155q-103 -54 -222 -54z" />
    <glyph glyph-name="d" unicode="d" 
d="M503 -18q-121 0 -208 54q-86 52 -124 158q-38 102 -13 239l42 277q20 129 85 230t169 160q103 58 235 58q243 0 336 -200l102 644h55l-254 -1602h-55l29 183q-158 -201 -399 -201zM513 44q111 0 202 50q90 50 148 137q57 87 78 201l44 276q15 113 -13 200
q-28 88 -102 139q-74 50 -190 50q-105 0 -196 -47q-90 -47 -154 -140q-29 -44 -47 -92q-16 -45 -27 -113l-43 -269q-11 -69 -9 -113q1 -41 19 -92q34 -93 109 -139q75 -48 181 -48z" />
    <glyph glyph-name="e" unicode="e" horiz-adv-x="1008" 
d="M504 -15q-250 0 -333 212q-19 49 -21 109q-3 57 8 130l43 277q21 132 85 231q62 99 167 157q104 56 237 56q254 0 329 -207q21 -59 23 -118q1 -55 -17 -167l-9 -58h-776l-26 -168q-12 -71 -9 -114q2 -45 18 -91q33 -93 108 -139q75 -48 181 -48q103 0 194 47
q88 46 153 138l40 -38q-69 -102 -173 -155q-104 -54 -222 -54zM250 667h721l6 41q11 70 9 114q-2 45 -18 91q-33 91 -109 139q-77 48 -180 48q-105 0 -197 -47q-93 -49 -151 -140q-31 -47 -48 -92q-16 -45 -27 -113z" />
    <glyph glyph-name="f" unicode="f" horiz-adv-x="757" 
d="M255 0l175 1099h-168l10 60h169q17 88 34 135q18 49 54 101q70 104 172 156q101 51 222 51l-10 -58q-114 -1 -195 -49q-88 -52 -143 -129q-56 -79 -71 -170l-5 -37h249l-10 -60h-249l-174 -1099h-60z" />
    <glyph glyph-name="g" unicode="g" horiz-adv-x="1018" 
d="M442 -454q-96 0 -174 35q-76 35 -123 102q-47 68 -56 163l55 25q13 -124 95 -194t212 -70q114 0 199 50q72 43 117 96q44 53 68 116q25 70 37 148l25 159q-156 -194 -394 -194q-121 0 -208 54q-86 52 -124 158q-38 102 -13 239l42 277q20 129 85 230t169 160
q103 58 235 58q239 0 333 -193l31 192h58l-178 -1140q-22 -144 -87 -248q-67 -107 -174 -166q-108 -57 -230 -57zM513 44q151 0 261 89q109 88 154 242l62 390q3 154 -76 243q-80 89 -234 89q-105 0 -196 -47q-90 -47 -154 -140q-29 -44 -47 -92q-16 -45 -27 -113l-43 -269
q-11 -69 -9 -113q1 -41 19 -92q34 -93 109 -139q75 -48 181 -48z" />
    <glyph glyph-name="h" unicode="h" 
d="M88 0l253 1599h55l-101 -641q155 200 398 200q121 0 209 -53q87 -53 125 -158q37 -104 13 -237l-113 -710l-55 2l112 703q11 68 9 113q-2 44 -18 92q-33 93 -109 140q-77 47 -182 47q-113 0 -202 -49t-148 -138q-58 -87 -79 -202l-112 -708h-55z" />
    <glyph glyph-name="i" unicode="i" horiz-adv-x="299" 
d="M384 1478q-25 0 -40 19q-16 18 -12 43q5 27 26 44q21 18 46 18t40 -18q15 -19 11 -44q-5 -27 -25 -44q-21 -18 -46 -18zM120 0l183 1156h59l-183 -1156h-59z" />
    <glyph glyph-name="j" unicode="j" horiz-adv-x="268" 
d="M-342 -454l27 61q101 3 181 50q105 63 154 148q49 87 68 212l181 1140h59l-179 -1140q-24 -147 -86 -248q-67 -108 -175 -166q-106 -57 -230 -57zM352 1478q-25 0 -40 18q-15 19 -11 44q5 27 25 44q21 18 46 18q26 0 41 -18q15 -19 11 -44t-25 -43q-20 -19 -47 -19z" />
    <glyph glyph-name="k" unicode="k" horiz-adv-x="952" 
d="M88 0l254 1602h56l-159 -1005l706 559h73l-607 -486l453 -670h-62l-436 636l-138 -109l-83 -527h-57z" />
    <glyph glyph-name="l" unicode="l" horiz-adv-x="298" 
d="M328 -17q-137 0 -177 79q-41 80 -17 228l209 1312h58l-206 -1312q-18 -115 9 -181q25 -67 131 -67l25 1q16 2 20 2l16 -60q-50 -2 -68 -2z" />
    <glyph glyph-name="m" unicode="m" horiz-adv-x="1794" 
d="M88 0l183 1154h55l-31 -196q155 200 398 200q129 0 212 -55q58 -36 88 -85q30 -53 49 -126q69 130 179 198t250 68h2q128 0 214 -57q84 -56 119 -158q33 -102 12 -233l-113 -710l-55 2l112 703q11 68 9 113q-1 41 -19 92q-32 93 -107 140q-77 47 -182 47q-114 0 -200 -50
q-99 -57 -150 -138q-52 -81 -72 -194l-113 -713h-1v-2l-26 1l-28 -1v2h-1l112 703q11 68 9 113q-2 44 -18 92q-33 93 -109 140q-77 47 -182 47q-113 0 -202 -49t-148 -138q-58 -87 -79 -202l-112 -708h-55z" />
    <glyph glyph-name="n" unicode="n" 
d="M88 0l183 1154h55l-31 -196q155 200 398 200q121 0 209 -53q87 -53 125 -158q37 -104 13 -237l-113 -710l-55 2l112 703q11 68 9 113q-2 44 -18 92q-33 93 -109 140q-77 47 -182 47q-113 0 -202 -49t-148 -138q-58 -87 -79 -202l-112 -708h-55z" />
    <glyph glyph-name="o" unicode="o" horiz-adv-x="1009" 
d="M504 -13q-261 0 -333 207q-38 102 -13 239l43 277h-1q21 134 90 237q138 207 401 207q131 0 216 -57q84 -59 117 -159q32 -100 9 -228h-1l-43 -277q-20 -137 -89 -239q-136 -207 -396 -207zM512 44q104 0 195 48q92 48 153 139q29 44 47 92q16 43 27 113l43 269
q11 68 9 113q-1 41 -19 92q-31 91 -108 139t-180 48q-105 0 -196 -47q-89 -48 -153 -140q-29 -44 -47 -92q-16 -45 -27 -113l-43 -269q-11 -69 -9 -113q1 -41 19 -92q33 -93 108 -139q75 -48 181 -48z" />
    <glyph glyph-name="p" unicode="p" 
d="M16 -454l255 1611h55l-30 -194q155 200 398 200q121 0 209 -53q86 -53 125 -158q38 -106 12 -240l-43 -276q-18 -132 -89 -238t-174 -158q-104 -53 -226 -53q-243 0 -335 200l-102 -641h-55zM518 48q116 0 202 50q98 57 152 143q50 81 70 199l42 270q11 68 9 112
q-1 42 -17 92q-35 95 -109 141t-183 46q-114 0 -202 -49q-90 -50 -147 -137q-58 -88 -79 -202l-44 -276q-15 -112 15 -200q28 -88 103 -138q74 -51 188 -51z" />
    <glyph glyph-name="q" unicode="q" 
d="M801 -454l102 641q-156 -200 -399 -200q-131 0 -217 59t-119 160q-33 103 -11 230l45 276q20 140 89 240q71 104 174 158q104 53 225 53q243 0 336 -200l30 194h55l-255 -1611h-55zM514 48q113 0 202 50q90 50 147 137q58 88 79 202l44 276q15 114 -13 201t-103 137
q-74 50 -190 50q-108 0 -196 -46q-88 -47 -153 -141q-31 -47 -48 -92q-16 -43 -27 -112l-42 -270q-11 -68 -9 -112q1 -45 18 -93q33 -94 109 -140q77 -47 182 -47z" />
    <glyph glyph-name="r" unicode="r" horiz-adv-x="818" 
d="M88 0l183 1154h55l-31 -196q155 200 398 200q129 0 212 -55l-35 -56q-73 50 -186 50t-202 -49t-148 -138q-58 -87 -79 -202l-112 -708h-55z" />
    <glyph glyph-name="s" unicode="s" horiz-adv-x="1066" 
d="M532 -22q-135 0 -230 43q-96 43 -154 142q-18 36 -22 76l54 24q4 -79 58 -130q54 -53 133 -75q79 -24 162 -24q217 0 344 101q63 58 73 126q9 56 -13 101q-30 59 -123 103q-90 41 -204 73q-141 42 -225 85q-78 39 -123 105q-31 59 -20 132q16 107 96 172q136 121 380 121
q144 0 251 -56q60 -31 104 -85q43 -55 46 -121l-51 -23q-16 117 -117 173q-101 55 -240 55q-103 0 -185 -22q-85 -23 -157 -80q-33 -33 -50 -61q-19 -31 -23 -64q-9 -54 13 -100q10 -22 35 -44q24 -21 68 -50q99 -54 223 -89q78 -22 137 -41q45 -16 90 -38q77 -38 122 -104
q33 -53 20 -133q-9 -55 -33 -98q-24 -44 -62 -74q-139 -120 -377 -120z" />
    <glyph glyph-name="t" unicode="t" horiz-adv-x="652" 
d="M479 -14q-96 0 -141 38q-48 37 -58 104q-11 69 4 165l130 814h-151l10 60h151l69 435h58l-69 -435h267l-10 -60h-267l-128 -814q-18 -114 10 -181q27 -67 130 -67q2 0 26 2l21 1l15 -60q-50 -2 -67 -2z" />
    <glyph glyph-name="u" unicode="u" 
d="M503 -16q-129 0 -214 57q-84 56 -119 159q-34 101 -13 233l115 724l55 -2l-114 -717q-11 -70 -9 -114q1 -41 19 -91q33 -94 108 -140q76 -47 182 -47q110 0 202 50q91 50 150 138q59 90 77 200l114 723h55l-183 -1157h-55l29 185q-80 -103 -178 -151q-102 -50 -221 -50z
" />
    <glyph glyph-name="v" unicode="v" horiz-adv-x="1100" 
d="M514 0l-243 1157h63l226 -1097l572 1097h63l-609 -1157h-72z" />
    <glyph glyph-name="w" unicode="w" horiz-adv-x="1709" 
d="M453 0l-182 1157h57l167 -1088l510 1088h64l169 -1088l510 1088h56l-549 -1157h-60l-170 1074l-510 -1074h-62z" />
    <glyph glyph-name="x" unicode="x" horiz-adv-x="1124" 
d="M91 0l528 574l-348 583h63l326 -538l493 538h66l-532 -583l345 -574h-66v3l-320 527l-489 -530h-66z" />
    <glyph glyph-name="y" unicode="y" horiz-adv-x="1135" 
d="M91 -482q-33 0 -78 8v1l24 58h2q35 -7 64 -7q35 0 69 9q117 30 188 97q73 70 130 188l64 130l-248 1155h63l230 -1067l569 1067h62l-582 -1095l-104 -209q-75 -151 -190 -244q-112 -91 -263 -91z" />
    <glyph glyph-name="z" unicode="z" horiz-adv-x="1099" 
d="M88 0l2 1l986 1102h-812l8 52l922 2l-988 -1104h812l-8 -51z" />
    <glyph glyph-name="braceleft" unicode="{" horiz-adv-x="704" 
d="M581 -224q-129 0 -194 63q-64 64 -44 193l85 536q9 56 -3 92q-15 34 -43 60q-30 24 -71 34q-47 10 -102 10l8 48q79 0 142 24q62 23 107 84q25 39 32 90l84 532q21 128 105 193q84 63 214 63l-8 -50q-105 0 -171 -51q-67 -51 -84 -155l-84 -532q-12 -77 -59 -135
q-47 -56 -125 -85q71 -29 99 -85q29 -57 15 -137l-85 -536q-16 -103 34 -155q49 -51 155 -51z" />
    <glyph glyph-name="bar" unicode="|" horiz-adv-x="228" 
d="M40 -300l317 1996h52l-317 -1996h-52z" />
    <glyph glyph-name="braceright" unicode="}" horiz-adv-x="704" 
d="M53 -224l7 50q104 0 172 51q66 50 83 155l85 536q12 74 62 135q50 59 123 87q-67 29 -96 86q-31 56 -19 134l84 532q17 104 -33 155q-51 51 -156 51l8 50q129 0 194 -63q64 -64 43 -193l-84 -532q-8 -48 6 -90q16 -38 42 -60q28 -27 74 -37q49 -11 97 -11l-8 -48
q-112 0 -185 -46q-35 -25 -62 -60q-27 -44 -34 -90l-85 -536q-19 -128 -104 -193q-84 -63 -214 -63z" />
    <glyph glyph-name="asciitilde" unicode="~" horiz-adv-x="1066" 
d="M202 720q31 112 96 169q64 57 162 57q78 0 126 -22q45 -24 102 -64q13 -10 38 -23l6 -3l12 -8q6 -5 43 -22q35 -20 93 -20q81 0 125 44q43 50 69 132h56q-66 -228 -258 -228q-66 0 -124 26q-28 13 -103 60l-55 36q-13 9 -38 19l-7 3q-35 20 -93 20q-44 0 -71 -10
q-28 -10 -50 -34q-43 -46 -73 -132h-56z" />
    <glyph glyph-name="exclamdown" unicode="&#xa1;" horiz-adv-x="299" 
d="M320 1073q-25 0 -40 19q-16 18 -12 43q5 27 26 44q21 18 46 18t40 -18q15 -19 11 -44q-5 -27 -25 -44q-21 -18 -46 -18zM78 -282l174 1098h56l-174 -1098h-56z" />
    <glyph glyph-name="cent" unicode="&#xa2;" horiz-adv-x="1146" 
d="M534 -150l32 198q-122 9 -198 56q-126 66 -166 211q-41 145 -14 315q26 159 95 284q70 127 187 206q118 80 280 92l31 198h50l-31 -198h-4q78 0 144 -17q64 -17 122 -57q61 -46 90 -104t38 -140l-52 -22q-12 147 -102 217q-91 72 -244 73l-168 -1064q71 1 130 20
q114 29 198 104q87 78 118 184l49 -18q-40 -119 -132 -199q-91 -79 -222 -121q-83 -20 -149 -20l-32 -198h-50zM574 98l168 1063q-142 -13 -247 -85q-106 -73 -167 -186q-64 -117 -86 -260q-17 -107 -6 -200q13 -147 100 -234q84 -84 238 -98z" />
    <glyph glyph-name="sterling" unicode="&#xa3;" horiz-adv-x="1310" 
d="M316 48q-36 0 -71 6q-39 9 -66 28q-35 17 -50 49t-9 73q8 45 37 80q29 29 68 48q26 16 78 28q41 6 77 6q85 0 145 -26q60 -27 123 -88q61 76 74 166q16 99 -9 172q-32 80 -72 146h-298l8 52h260l1 -2l-3 5q-32 59 -37 69q-52 91 -58 186q-8 48 3 108q19 124 90 217
q71 94 177 143q108 50 232 50q103 0 184 -38q80 -39 120 -114q41 -75 33 -182l-56 -22q8 94 -25 162q-33 69 -101 107q-67 37 -163 37q-110 0 -203 -41q-91 -42 -153 -123q-61 -80 -79 -196q-17 -107 18 -188q32 -83 79 -166l9 -12h470l-8 -52h-430q47 -88 65 -155
q16 -69 3 -157q-18 -118 -94 -206q38 -37 79 -67q34 -25 79 -39t101 -14q117 0 190 64q72 65 90 182h52q-20 -150 -113 -224q-89 -72 -227 -72q-104 0 -163 35q-37 18 -65 43q-29 19 -62 52q-71 -66 -154 -97q-86 -33 -176 -33zM324 98q84 0 157 32q70 27 131 82
q-56 52 -108 78q-54 24 -130 24q-21 0 -61 -4q-30 -5 -61 -18q-34 -18 -52 -37q-20 -19 -24 -51q-9 -56 39 -81q46 -25 109 -25z" />
    <glyph glyph-name="currency" unicode="&#xa4;" horiz-adv-x="1256" 
d="M170 266l-34 40l265 228q-71 113 -44 278q25 165 125 272l-187 222l46 40l185 -222q124 102 296 102q170 0 262 -102l259 222l32 -38l-260 -226q66 -106 40 -270q-27 -166 -130 -278l191 -230l-44 -38l-191 230q-121 -100 -290 -100q-158 0 -257 96zM699 446
q108 0 191 46q83 45 138 128q53 84 71 192q17 106 -9 189q-25 80 -95 127q-70 46 -181 46q-105 0 -190 -44q-85 -45 -139 -127q-56 -83 -72 -191q-14 -80 0 -146q17 -108 93 -163q76 -57 193 -57z" />
    <glyph glyph-name="yen" unicode="&#xa5;" horiz-adv-x="1268" 
d="M619 70l46 292h-454l9 52h454l34 220h-454l8 50h432l-362 858h66l347 -847l615 847h64l-632 -858h434l-8 -50h-456l-34 -220h456l-9 -52h-456l-46 -292h-54z" />
    <glyph glyph-name="brokenbar" unicode="&#xa6;" horiz-adv-x="230" 
d="M226 870l131 826h54l-131 -826h-54zM40 -300l131 826h54l-131 -826h-54z" />
    <glyph glyph-name="section" unicode="&#xa7;" horiz-adv-x="1194" 
d="M561 -172q-137 0 -241 45t-124 155l52 32q10 -91 91 -137q79 -45 230 -45q64 0 132 14q74 17 119 44q49 29 95 84q39 48 49 122q12 75 -16 125q-29 50 -92 87q-57 27 -116 42q-67 15 -149 26q-29 4 -105 20l-29 6q-80 17 -134 50q-69 38 -101 94q-32 57 -19 134
q11 66 46 112q42 63 110 101q70 39 154 62q-73 41 -101 100q-30 59 -16 147q17 106 86 177q71 71 169 105q96 34 203 34q56 0 115 -6q68 -11 109 -28q59 -29 94 -67q34 -39 48 -99l-53 -32q-9 92 -89 137t-232 45q-88 0 -174 -26q-84 -27 -145 -86q-60 -60 -75 -152
q-12 -72 17 -125q28 -52 92 -83q49 -30 129 -46l29 -6q72 -16 105 -20q84 -12 151 -27q68 -17 122 -43q70 -44 98 -97q29 -57 16 -137q-26 -163 -231 -248q-59 -20 -81 -26q77 -38 106 -97q28 -57 14 -151q-19 -115 -102 -193q-81 -75 -208 -107q-81 -16 -148 -16zM832 420
q55 10 103 30q84 26 148 83q62 56 74 133q16 106 -58 160q-85 59 -294 92q-72 9 -126 24q-46 9 -99 28q-119 -23 -211 -82q-93 -61 -110 -162q-12 -74 18 -114q17 -27 57 -54q51 -28 90 -38q71 -26 145 -36l10 -2q79 -13 129 -25q68 -17 112 -32l6 -3q1 0 3 -1t3 -1z" />
    <glyph glyph-name="dieresis" unicode="&#xa8;" horiz-adv-x="722" 
d="M779 1358q-26 0 -40 17q-16 14 -11 41t24 43q20 15 45 15t41 -15q12 -18 8 -43q-4 -28 -21 -43q-18 -15 -46 -15zM373 1358q-27 0 -38 17q-16 14 -11 41q4 27 22 43q16 15 45 15q25 0 41 -15q12 -18 8 -43q-4 -28 -21 -43q-18 -15 -46 -15z" />
    <glyph glyph-name="copyright" unicode="&#xa9;" horiz-adv-x="1700" 
d="M850 48q-222 0 -395 93t-270 265t-97 400q0 225 94 397q93 171 266 266t402 95q225 0 398 -92t269 -263q95 -173 95 -403q0 -224 -93 -396q-95 -173 -266 -267q-173 -95 -403 -95zM864 372q-98 0 -165 52q-67 51 -102 135q-34 83 -34 181v122q0 113 36 191q37 84 106 131
q67 46 159 46q93 0 164 -48q70 -50 105 -137l-41 -27q-30 78 -87 120q-59 41 -141 41q-86 0 -141 -43q-57 -43 -84 -116q-27 -72 -27 -157v-123q0 -83 27 -155q27 -73 84 -118t142 -45q82 0 139 42q56 41 88 120l41 -27q-36 -86 -105 -136q-70 -49 -163 -49h-1zM850 98
q205 0 366 89q160 88 250 249t90 370q0 206 -87 367q-89 162 -248 251q-161 90 -371 90q-207 0 -368 -89t-250 -250q-90 -161 -90 -369q0 -205 89 -366t249 -251q160 -91 370 -91z" />
    <glyph glyph-name="ordfeminine" unicode="&#xaa;" horiz-adv-x="635" 
d="M443 989q-52 0 -95 20q-42 19 -63 60q-21 39 -12 94q11 71 63 114q49 42 120 62q69 18 138 18h135l2 10q13 83 -24 135q-37 51 -120 51q-81 0 -135 -51t-68 -135l-2 -10h-51l2 14q10 67 47 122q34 52 91 84q55 30 125 30q68 0 114 -30q45 -29 65 -82q18 -54 8 -120
l-60 -374h-50l13 88q-46 -49 -111 -75q-63 -25 -132 -25zM451 1039q75 0 140 33q62 33 106 99l3 4l21 131h-133q-54 0 -113 -14q-56 -13 -100 -46t-51 -85q-6 -38 10 -64q16 -28 48 -43t69 -15z" />
    <glyph glyph-name="guillemotleft" unicode="&#xab;" horiz-adv-x="830" 
d="M458 302l-252 442l392 440h72l-396 -440l256 -442h-72zM718 302l-252 442l392 440h72l-396 -440l256 -442h-72z" />
    <glyph glyph-name="logicalnot" unicode="&#xac;" horiz-adv-x="1186" 
d="M1115 458l46 292h-954l8 50h1010l-54 -342h-56z" />
    <glyph glyph-name="uni00AD" unicode="&#xad;" horiz-adv-x="814" 
d="M203 726l9 56h638l-9 -56h-638z" />
    <glyph glyph-name="registered" unicode="&#xae;" horiz-adv-x="1700" 
d="M850 48q-222 0 -395 93t-270 265t-97 400q0 225 94 397q93 171 266 266t402 95q225 0 398 -92t269 -263q95 -173 95 -403q0 -224 -93 -396q-95 -173 -266 -267q-173 -95 -403 -95zM850 98q205 0 366 89q160 88 250 249t90 370q0 206 -87 367q-89 162 -248 251
q-161 90 -371 90q-207 0 -368 -89t-250 -250q-90 -161 -90 -369q0 -205 89 -366t249 -251q160 -91 370 -91zM622 368v866h248q117 0 200 -51q83 -53 83 -163q0 -88 -56 -141q-57 -53 -148 -66l204 -445h-55l-205 439h-218v-439h-53zM675 857h195q97 0 164 37q67 36 67 126
q0 89 -65 127q-65 37 -166 37h-196z" />
    <glyph glyph-name="macron" unicode="&#xaf;" horiz-adv-x="854" 
d="M322 1400l8 50h654l-8 -50h-654z" />
    <glyph glyph-name="degree" unicode="&#xb0;" horiz-adv-x="728" 
d="M596 1454q-82 0 -140 35q-58 34 -82 97q-26 63 -12 146q14 84 58 146q44 63 113 98q67 34 151 34q81 0 139 -35q57 -34 81 -98q23 -65 10 -145q-14 -81 -57 -144t-112 -98q-68 -36 -149 -36zM604 1502q106 0 174 62t84 168q17 108 -31 169t-154 61q-67 0 -123 -29
q-55 -28 -91 -81q-37 -53 -47 -120q-10 -68 9 -120q20 -53 65 -81q47 -29 114 -29z" />
    <glyph glyph-name="plusminus" unicode="&#xb1;" horiz-adv-x="1186" 
d="M616 304l89 558h-480l7 50h480l87 546h52l-87 -546h478l-7 -50h-478l-89 -558h-52zM99 70l8 50h1010l-8 -50h-1010z" />
    <glyph glyph-name="uni00B2" unicode="&#xb2;" horiz-adv-x="575" 
d="M261 998l6 39l238 232q58 56 91 100q36 46 44 92q10 63 -20 95t-94 32q-60 0 -106 -40q-45 -39 -56 -101l-2 -12h-47l2 12q7 50 40 95q30 42 78 68q46 25 98 25q85 0 127 -45q42 -46 28 -129q-7 -53 -52 -110q-36 -46 -112 -122l-187 -184h318l-8 -47h-386z" />
    <glyph glyph-name="uni00B3" unicode="&#xb3;" horiz-adv-x="548" 
d="M433 994q-83 0 -126 46q-45 47 -32 127q1 5 6 25v2h47v-3q-4 -16 -6 -26q-10 -60 25 -92t97 -32q64 0 113 34q48 32 59 94q8 41 -11 70q-18 29 -51 44q-35 15 -74 15h-73l3 47h77q57 0 104 32q46 31 55 87t-27 90q-35 34 -94 34q-61 0 -105 -33q-44 -35 -54 -94
q-1 -5 -1 -23l-1 -3h-47l1 2q0 15 2 25q12 81 72 127q58 46 140 46t128 -46q45 -46 33 -127q-7 -44 -37 -82q-30 -36 -74 -57q46 -23 68 -61q22 -40 13 -91q-13 -84 -78 -131q-64 -46 -152 -46z" />
    <glyph glyph-name="acute" unicode="&#xb4;" horiz-adv-x="446" 
d="M303 1326l254 344h62l-259 -344h-57z" />
    <glyph glyph-name="uni00B5" unicode="&#xb5;" horiz-adv-x="1076" 
d="M26 -392l250 1582h56l-116 -738q-17 -109 11 -187q29 -80 100 -123q71 -44 179 -44q117 0 227 55q112 56 188 151q75 95 95 214l106 672h54l-177 -1120h-54l39 245q-26 -46 -63 -83q-81 -90 -195 -137q-115 -47 -234 -47q-110 0 -192 49q-84 50 -118 142l-100 -631h-56z
" />
    <glyph glyph-name="paragraph" unicode="&#xb6;" horiz-adv-x="1088" 
d="M578 -150l123 778q-94 3 -179 28q-93 28 -158 90t-92 150q-28 88 -12 190q23 144 107 246q83 103 210 157q126 53 269 53h398l-268 -1692h-56l260 1642h-286l-260 -1642h-56zM710 680l128 812q-85 0 -171 -26q-89 -25 -160 -74q-70 -49 -125 -128q-51 -81 -66 -178
q-16 -100 8 -176q43 -115 145 -171q101 -58 241 -59z" />
    <glyph glyph-name="periodcentered" unicode="&#xb7;" horiz-adv-x="299" 
d="M266 735q-25 0 -40 19q-16 18 -12 43q5 27 26 44q21 18 46 18t40 -18q15 -19 11 -44q-5 -27 -25 -44q-21 -18 -46 -18z" />
    <glyph glyph-name="cedilla" unicode="&#xb8;" horiz-adv-x="620" 
d="M248 -459q-77 0 -122 22q-48 23 -80 80l37 43q52 -97 173 -97q66 0 116 38q49 40 59 106q11 63 -27 120q-37 56 -97 93q-15 11 -40 25q-6 4 -9 5q-7 5 -8 5l-19 11l8 19h48q102 -49 158 -114q54 -63 38 -162q-13 -90 -78 -143q-65 -51 -157 -51z" />
    <glyph glyph-name="uni00B9" unicode="&#xb9;" horiz-adv-x="347" 
d="M375 1020l83 528l-113 -91l-21 36l146 120h43l-92 -593h-46z" />
    <glyph glyph-name="ordmasculine" unicode="&#xba;" horiz-adv-x="558" 
d="M436 993q-100 0 -149 61q-50 62 -34 164l23 145l5 -6q-6 8 -5 10q10 66 45 119q36 53 89 80q56 29 123 29t111 -29q44 -30 62 -81q18 -53 8 -118l-24 -149q-10 -65 -46 -118q-33 -49 -88 -79q-53 -28 -120 -28zM443 1041q49 0 93 23t72 65q16 24 23 45t12 53l22 134
q4 28 4 53q-2 22 -9 44q-15 44 -51 66q-35 22 -86 22t-92 -22q-43 -22 -72 -66q-14 -19 -23 -44q-8 -23 -12 -53l-22 -134q-5 -36 -4 -53q0 -22 9 -45q15 -42 51 -65q35 -23 85 -23z" />
    <glyph glyph-name="guillemotright" unicode="&#xbb;" horiz-adv-x="830" 
d="M136 302l396 442l-256 440h72l252 -440l-392 -442h-72zM394 302l398 442l-258 440h74l252 -440l-392 -442h-74z" />
    <glyph glyph-name="questiondown" unicode="&#xbf;" horiz-adv-x="1080" 
d="M467 -311q-124 0 -213 43q-90 44 -132 129q-42 86 -23 210q18 112 62 190q51 86 119 143t147 93q79 35 186 66l46 290h54l-52 -326q-93 -26 -188 -66q-136 -50 -216 -149q-81 -99 -104 -241q-17 -105 21 -180q36 -75 115 -114q81 -38 186 -38q192 0 310 85
q119 86 174 273l45 -20q-54 -200 -193 -294t-344 -94zM721 1066q-25 0 -40 18q-15 19 -11 44q5 27 25 44q19 18 45 18t42 -18q15 -19 11 -44t-25 -43q-20 -19 -47 -19z" />
    <glyph glyph-name="Agrave" unicode="&#xc0;" horiz-adv-x="1445" 
d="M1076 1754l-152 344h64l143 -344h-55zM88 0l852 1602h73l344 -1602h-64l-131 611h-684l-325 -611h-65zM509 670h640l-182 872z" />
    <glyph glyph-name="Aacute" unicode="&#xc1;" horiz-adv-x="1445" 
d="M875 1771l254 344h62l-259 -344h-57zM88 0l852 1602h73l344 -1602h-64l-131 611h-684l-325 -611h-65zM509 670h640l-182 872z" />
    <glyph glyph-name="Acircumflex" unicode="&#xc2;" horiz-adv-x="1445" 
d="M695 1771l306 334h50l198 -334h-61l-170 278l-260 -278h-63zM88 0l852 1602h73l344 -1602h-64l-131 611h-684l-325 -611h-65zM509 670h640l-182 872z" />
    <glyph glyph-name="Atilde" unicode="&#xc3;" horiz-adv-x="1445" 
d="M735 1840l3 7q26 94 70 151t121 57q47 0 75 -20q24 -18 51 -58q6 -8 9 -13q4 -6 10 -14q16 -24 33 -34q18 -12 44 -12q54 0 76 34q29 42 53 114l2 5h53l-2 -7q-26 -95 -71 -151q-42 -57 -121 -57q-45 0 -72 21q-28 19 -58 63q-6 8 -10 14q-3 5 -9 13q-16 22 -31 31
q-17 9 -44 9q-53 0 -75 -34q-28 -41 -51 -114l-2 -5h-54zM88 0l852 1602h73l344 -1602h-64l-131 611h-684l-325 -611h-65zM509 670h640l-182 872z" />
    <glyph glyph-name="Adieresis" unicode="&#xc4;" horiz-adv-x="1445" 
d="M806 1803q-27 0 -39 17q-15 13 -10 41q4 28 22 43q17 15 45 15q24 0 41 -15q12 -18 8 -43q-4 -27 -22 -43q-17 -15 -45 -15zM1212 1803q-26 0 -41 17q-15 13 -10 41q5 27 24 43q19 15 45 15q24 0 41 -15q12 -18 8 -43q-4 -27 -22 -43q-17 -15 -45 -15zM88 0l852 1602h73
l344 -1602h-64l-131 611h-684l-325 -611h-65zM509 670h640l-182 872z" />
    <glyph glyph-name="Aring" unicode="&#xc5;" horiz-adv-x="1445" 
d="M1006 1788q-53 0 -92 24q-40 24 -58 67q-19 41 -10 95q7 51 40 96q31 41 79 66q46 24 100 24q85 0 130 -51q44 -52 31 -135q-13 -84 -74 -135q-62 -51 -146 -51zM1014 1838q60 0 104 38q43 37 54 98q9 59 -23 97q-33 37 -92 37t-102 -37q-44 -38 -53 -97q-10 -57 22 -97
q32 -39 90 -39zM88 0l852 1602h73l344 -1602h-64l-131 611h-684l-325 -611h-65zM509 670h640l-182 872z" />
    <glyph glyph-name="AE" unicode="&#xc6;" horiz-adv-x="1751" 
d="M88 0l852 1602h2v1h969l-9 -56h-910l-103 -653h651l-12 -61h-646l-122 -771h907l-9 -58l-970 -3l97 610h-307l-325 -611h-65zM509 670h285l123 777z" />
    <glyph glyph-name="Ccedilla" unicode="&#xc7;" horiz-adv-x="1254" 
d="M561 -459q-77 0 -122 22q-48 23 -80 80l37 43q52 -97 173 -97q66 0 116 38q49 40 59 106q13 82 -44 144q-56 61 -149 111l-7 4l7 -4q-149 28 -239 133t-115 251q-27 146 -1 309l38 240q33 207 128 367q97 159 241 248q142 88 315 88q174 0 290 -88q117 -89 162 -248
l-52 -32q-39 150 -144 229q-104 79 -265 79q-171 0 -302 -89q-129 -87 -209 -234t-107 -318l-38 -242q-27 -168 6 -314q31 -146 134 -238t275 -92q158 0 289 80q130 79 217 228l42 -31q-95 -159 -240 -248q-143 -88 -317 -88l22 -14q63 -37 95 -97q32 -59 20 -132
q-13 -90 -78 -143q-64 -51 -157 -51z" />
    <glyph glyph-name="Egrave" unicode="&#xc8;" horiz-adv-x="1145" 
d="M926 1754l-152 344h64l143 -344h-55zM88 0l254 1602h969l-9 -56h-910l-104 -653h651l-11 -61h-646l-122 -771h907l-10 -58z" />
    <glyph glyph-name="Eacute" unicode="&#xc9;" horiz-adv-x="1145" 
d="M725 1771l254 344h62l-259 -344h-57zM88 0l254 1602h969l-9 -56h-910l-104 -653h651l-11 -61h-646l-122 -771h907l-10 -58z" />
    <glyph glyph-name="Ecircumflex" unicode="&#xca;" horiz-adv-x="1145" 
d="M545 1771l306 334h50l198 -334h-61l-170 278l-260 -278h-63zM88 0l254 1602h969l-9 -56h-910l-104 -653h651l-11 -61h-646l-122 -771h907l-10 -58z" />
    <glyph glyph-name="Edieresis" unicode="&#xcb;" horiz-adv-x="1145" 
d="M656 1803q-27 0 -39 17q-15 13 -10 41q4 28 22 43q17 15 45 15q24 0 41 -15q12 -18 8 -43q-4 -27 -22 -43q-17 -15 -45 -15zM1062 1803q-26 0 -41 17q-15 13 -10 41q5 27 24 43q19 15 45 15q24 0 41 -15q12 -18 8 -43q-4 -27 -22 -43q-17 -15 -45 -15zM88 0l254 1602h969
l-9 -56h-910l-104 -653h651l-11 -61h-646l-122 -771h907l-10 -58z" />
    <glyph glyph-name="Igrave" unicode="&#xcc;" horiz-adv-x="247" 
d="M449 1773l-154 348h69l144 -348h-59zM-12 0l254 1603h64l-251 -1603h-67z" />
    <glyph glyph-name="Iacute" unicode="&#xcd;" horiz-adv-x="238" 
d="M269 1771l254 344h62l-259 -344h-57zM85 0l254 1602h59l-251 -1602h-62z" />
    <glyph glyph-name="Icircumflex" unicode="&#xce;" horiz-adv-x="238" 
d="M122 1771l306 334h50l198 -334h-61l-170 278l-260 -278h-63zM118 0l254 1602h59l-251 -1602h-62z" />
    <glyph glyph-name="Idieresis" unicode="&#xcf;" horiz-adv-x="238" 
d="M202 1803q-27 0 -39 17q-15 13 -10 41q4 28 22 43q17 15 45 15q24 0 41 -15q12 -18 8 -43q-4 -27 -22 -43q-17 -15 -45 -15zM608 1803q-26 0 -41 17q-15 13 -10 41q5 27 24 43q19 15 45 15q24 0 41 -15q12 -18 8 -43q-4 -27 -22 -43q-17 -15 -45 -15zM88 0l254 1602h59
l-251 -1602h-62z" />
    <glyph glyph-name="Ntilde" unicode="&#xd1;" horiz-adv-x="1148" 
d="M586 1840l3 7q26 94 70 151q43 57 121 57q47 0 75 -20q24 -18 51 -58q6 -8 9 -13q4 -6 10 -14q16 -24 33 -34q18 -12 44 -12q54 0 76 34q29 42 53 114l2 5h53l-2 -7q-26 -95 -71 -151q-42 -57 -121 -57q-45 0 -72 21q-28 19 -58 63q-6 8 -10 14q-3 5 -9 13q-16 22 -31 31
q-16 9 -44 9q-53 0 -75 -34q-29 -41 -51 -114l-2 -5h-54zM89 0l253 1599v3h61l617 -1472l235 1472h59l-254 -1602h-61l1 4l-617 1473l-232 -1477h-62z" />
    <glyph glyph-name="Ograve" unicode="&#xd2;" horiz-adv-x="1323" 
d="M658 -22q-185 0 -300 98q-114 97 -153 259q-39 160 -9 346l38 240q33 207 128 367q97 159 241 248q142 88 315 88q190 0 303 -97q115 -98 152 -258q38 -162 8 -349l-38 -240q-33 -205 -127 -366q-95 -159 -240 -248q-143 -88 -317 -88h-1zM668 37q173 0 304 89
q130 88 208 234q77 144 106 320l38 242q14 96 13 177q-1 82 -19 157q-39 150 -144 229q-104 79 -265 79q-171 0 -302 -89q-129 -87 -209 -234t-107 -318l-38 -242q-27 -168 6 -314q31 -146 134 -238t275 -92zM1015 1754l-152 344h64l143 -344h-55z" />
    <glyph glyph-name="Oacute" unicode="&#xd3;" horiz-adv-x="1323" 
d="M658 -22q-185 0 -300 98q-114 97 -153 259q-39 160 -9 346l38 240q33 207 128 367q97 159 241 248q142 88 315 88q190 0 303 -97q115 -98 152 -258q38 -162 8 -349l-38 -240q-33 -205 -127 -366q-95 -159 -240 -248q-143 -88 -317 -88h-1zM668 37q173 0 304 89
q130 88 208 234q77 144 106 320l38 242q14 96 13 177q-1 82 -19 157q-39 150 -144 229q-104 79 -265 79q-171 0 -302 -89q-129 -87 -209 -234t-107 -318l-38 -242q-27 -168 6 -314q31 -146 134 -238t275 -92zM814 1771l254 344h62l-259 -344h-57z" />
    <glyph glyph-name="Ocircumflex" unicode="&#xd4;" horiz-adv-x="1323" 
d="M658 -22q-185 0 -300 98q-114 97 -153 259q-39 160 -9 346l38 240q33 207 128 367q97 159 241 248q142 88 315 88q190 0 303 -97q115 -98 152 -258q38 -162 8 -349l-38 -240q-33 -205 -127 -366q-95 -159 -240 -248q-143 -88 -317 -88h-1zM668 37q173 0 304 89
q130 88 208 234q77 144 106 320l38 242q14 96 13 177q-1 82 -19 157q-39 150 -144 229q-104 79 -265 79q-171 0 -302 -89q-129 -87 -209 -234t-107 -318l-38 -242q-27 -168 6 -314q31 -146 134 -238t275 -92zM634 1771l306 334h50l198 -334h-61l-170 278l-260 -278h-63z" />
    <glyph glyph-name="Otilde" unicode="&#xd5;" horiz-adv-x="1323" 
d="M658 -22q-185 0 -300 98q-114 97 -153 259q-39 160 -9 346l38 240q33 207 128 367q97 159 241 248q142 88 315 88q190 0 303 -97q115 -98 152 -258q38 -162 8 -349l-38 -240q-33 -205 -127 -366q-95 -159 -240 -248q-143 -88 -317 -88h-1zM668 37q173 0 304 89
q130 88 208 234q77 144 106 320l38 242q14 96 13 177q-1 82 -19 157q-39 150 -144 229q-104 79 -265 79q-171 0 -302 -89q-129 -87 -209 -234t-107 -318l-38 -242q-27 -168 6 -314q31 -146 134 -238t275 -92zM674 1840l3 7q26 94 70 151q43 57 121 57q47 0 75 -20
q24 -18 51 -58q6 -8 9 -13q4 -6 10 -14q16 -24 33 -34q18 -12 44 -12q54 0 76 34q29 42 53 114l2 5h53l-2 -7q-26 -95 -71 -151q-42 -57 -121 -57q-45 0 -72 21q-28 19 -58 63q-6 8 -10 14q-3 5 -9 13q-16 22 -31 31q-16 9 -44 9q-53 0 -75 -34q-29 -41 -51 -114l-2 -5h-54z
" />
    <glyph glyph-name="Odieresis" unicode="&#xd6;" horiz-adv-x="1323" 
d="M658 -22q-185 0 -300 98q-114 97 -153 259q-39 160 -9 346l38 240q33 207 128 367q97 159 241 248q142 88 315 88q190 0 303 -97q115 -98 152 -258q38 -162 8 -349l-38 -240q-33 -205 -127 -366q-95 -159 -240 -248q-143 -88 -317 -88h-1zM668 37q173 0 304 89
q130 88 208 234q77 144 106 320l38 242q14 96 13 177q-1 82 -19 157q-39 150 -144 229q-104 79 -265 79q-171 0 -302 -89q-129 -87 -209 -234t-107 -318l-38 -242q-27 -168 6 -314q31 -146 134 -238t275 -92zM745 1803q-27 0 -39 17q-15 13 -10 41q4 28 22 43q16 15 45 15
q25 0 41 -15q12 -18 8 -43q-4 -27 -22 -43q-16 -15 -45 -15zM1151 1803q-26 0 -41 17q-15 13 -10 41q5 27 24 43q20 15 45 15t41 -15q12 -18 8 -43q-4 -27 -22 -43q-16 -15 -45 -15z" />
    <glyph glyph-name="multiply" unicode="&#xd7;" horiz-adv-x="988" 
d="M189 360l-37 44l421 362l-306 364l51 42l304 -362l422 362l35 -42l-420 -364l305 -362l-49 -44l-306 364z" />
    <glyph glyph-name="Oslash" unicode="&#xd8;" horiz-adv-x="1323" 
d="M317 -164l97 201q-98 56 -152 155q-57 99 -72 225q-16 126 6 264l38 240q33 207 128 367q97 159 241 248q142 88 315 88q136 0 239 -54l22 46h58l-36 -74q124 -89 167 -255q44 -169 13 -367l-38 -240q-33 -205 -127 -366q-95 -159 -240 -248q-143 -88 -317 -88h-1
q-108 0 -197 36l-86 -178h-58zM442 93l687 1420q-91 51 -220 51q-171 0 -302 -89q-129 -87 -209 -234t-107 -318l-38 -242q-20 -128 -7 -238q12 -115 61 -206q48 -91 135 -144zM668 37q173 0 304 89q130 88 208 234q77 144 106 320l38 242q14 96 13 177q-1 82 -19 157
q-39 150 -145 229l-685 -1415q80 -33 180 -33z" />
    <glyph glyph-name="Ugrave" unicode="&#xd9;" horiz-adv-x="1323" 
d="M658 -22q-185 0 -300 98q-114 97 -153 259q-39 160 -9 346l146 921h57l-146 -921q-27 -168 6 -314q31 -146 134 -238t275 -92q173 0 304 89q130 88 208 234q77 144 106 320l146 922h57l-146 -922q-33 -205 -127 -366q-95 -159 -240 -248q-143 -88 -317 -88h-1zM1015 1754
l-152 344h64l143 -344h-55z" />
    <glyph glyph-name="Uacute" unicode="&#xda;" horiz-adv-x="1323" 
d="M658 -22q-185 0 -300 98q-114 97 -153 259q-39 160 -9 346l146 921h57l-146 -921q-27 -168 6 -314q31 -146 134 -238t275 -92q173 0 304 89q130 88 208 234q77 144 106 320l146 922h57l-146 -922q-33 -205 -127 -366q-95 -159 -240 -248q-143 -88 -317 -88h-1zM814 1771
l254 344h62l-259 -344h-57z" />
    <glyph glyph-name="Ucircumflex" unicode="&#xdb;" horiz-adv-x="1323" 
d="M658 -22q-185 0 -300 98q-114 97 -153 259q-39 160 -9 346l146 921h57l-146 -921q-27 -168 6 -314q31 -146 134 -238t275 -92q173 0 304 89q130 88 208 234q77 144 106 320l146 922h57l-146 -922q-33 -205 -127 -366q-95 -159 -240 -248q-143 -88 -317 -88h-1zM634 1771
l306 334h50l198 -334h-61l-170 278l-260 -278h-63z" />
    <glyph glyph-name="Udieresis" unicode="&#xdc;" horiz-adv-x="1323" 
d="M658 -22q-185 0 -300 98q-114 97 -153 259q-39 160 -9 346l146 921h57l-146 -921q-27 -168 6 -314q31 -146 134 -238t275 -92q173 0 304 89q130 88 208 234q77 144 106 320l146 922h57l-146 -922q-33 -205 -127 -366q-95 -159 -240 -248q-143 -88 -317 -88h-1zM745 1803
q-27 0 -39 17q-15 13 -10 41q4 28 22 43q16 15 45 15q25 0 41 -15q12 -18 8 -43q-4 -27 -22 -43q-16 -15 -45 -15zM1151 1803q-26 0 -41 17q-15 13 -10 41q5 27 24 43q20 15 45 15t41 -15q12 -18 8 -43q-4 -27 -22 -43q-16 -15 -45 -15z" />
    <glyph glyph-name="Yacute" unicode="&#xdd;" horiz-adv-x="1247" 
d="M776 1771l254 344h62l-259 -344h-57zM594 0l129 813l-381 789h70l348 -743l579 743h74l-634 -790l-129 -812h-56z" />
    <glyph glyph-name="germandbls" unicode="&#xdf;" horiz-adv-x="1136" 
d="M19 -439l258 1634q21 132 96 230q72 96 187 148q112 51 246 51q130 0 230 -50q99 -50 145 -147q47 -99 25 -232q-13 -88 -63 -163q-49 -76 -124 -130q-76 -53 -169 -82q91 -25 162 -82q70 -56 101 -138q32 -84 16 -183q-23 -143 -106 -241t-207 -148q-121 -50 -267 -50
q-31 0 -40 1l9 60q22 -2 51 -2q118 0 223 43q108 43 182 127t93 204q19 119 -30 204q-50 86 -146 131q-99 44 -215 44h-39l9 59h39q107 0 207 41q99 40 168 120t87 190q17 110 -26 191q-44 83 -129 128q-86 45 -195 45q-111 0 -209 -42q-100 -44 -165 -125q-67 -82 -85 -197
q-75 -474 -128 -819l-129 -820h-62z" />
    <glyph glyph-name="agrave" unicode="&#xe0;" horiz-adv-x="1071" 
d="M450 -23q-101 0 -176 38q-79 38 -116 110q-39 73 -22 175q16 107 96 190q89 92 228 133q135 40 283 40h285l6 39q10 68 9 111q-1 41 -19 92q-31 93 -106 139q-77 47 -182 47q-113 0 -202 -49q-90 -50 -147 -138q-58 -88 -76 -201h-59q19 130 85 233q64 103 170 162
t239 59q121 0 210 -53q88 -54 126 -159q37 -104 13 -241h-1l-112 -705h-59l34 218q-80 -105 -211 -173q-128 -67 -296 -67zM460 35q160 0 293 72q132 70 221 213l45 283h-282q-147 0 -268 -39q-107 -34 -183 -102q-77 -68 -92 -166q-10 -63 19 -131q29 -64 98 -96
q69 -34 149 -34zM818 1309l-151 344h64l142 -344h-55z" />
    <glyph glyph-name="aacute" unicode="&#xe1;" horiz-adv-x="1071" 
d="M450 -23q-101 0 -176 38q-79 38 -116 110q-39 73 -22 175q16 107 96 190q89 92 228 133q135 40 283 40h285l6 39q10 68 9 111q-1 41 -19 92q-31 93 -106 139q-77 47 -182 47q-113 0 -202 -49q-90 -50 -147 -138q-58 -88 -76 -201h-59q19 130 85 233q64 103 170 162
t239 59q121 0 210 -53q88 -54 126 -159q37 -104 13 -241h-1l-112 -705h-59l34 218q-80 -105 -211 -173q-128 -67 -296 -67zM460 35q160 0 293 72q132 70 221 213l45 283h-282q-147 0 -268 -39q-107 -34 -183 -102q-77 -68 -92 -166q-10 -63 19 -131q29 -64 98 -96
q69 -34 149 -34zM618 1326l254 344h62l-259 -344h-57z" />
    <glyph glyph-name="acircumflex" unicode="&#xe2;" horiz-adv-x="1071" 
d="M450 -23q-101 0 -176 38q-79 38 -116 110q-39 73 -22 175q16 107 96 190q89 92 228 133q135 40 283 40h285l6 39q10 68 9 111q-1 41 -19 92q-31 93 -106 139q-77 47 -182 47q-113 0 -202 -49q-90 -50 -147 -138q-58 -88 -76 -201h-59q19 130 85 233q64 103 170 162
t239 59q121 0 210 -53q88 -54 126 -159q37 -104 13 -241h-1l-112 -705h-59l34 218q-80 -105 -211 -173q-128 -67 -296 -67zM460 35q160 0 293 72q132 70 221 213l45 283h-282q-147 0 -268 -39q-107 -34 -183 -102q-77 -68 -92 -166q-10 -63 19 -131q29 -64 98 -96
q69 -34 149 -34zM438 1326l306 334h50l198 -334h-61l-171 278l-259 -278h-63z" />
    <glyph glyph-name="atilde" unicode="&#xe3;" horiz-adv-x="1071" 
d="M450 -23q-101 0 -176 38q-79 38 -116 110q-39 73 -22 175q16 107 96 190q89 92 228 133q135 40 283 40h285l6 39q10 68 9 111q-1 41 -19 92q-31 93 -106 139q-77 47 -182 47q-113 0 -202 -49q-90 -50 -147 -138q-58 -88 -76 -201h-59q19 130 85 233q64 103 170 162
t239 59q121 0 210 -53q88 -54 126 -159q37 -104 13 -241h-1l-112 -705h-59l34 218q-80 -105 -211 -173q-128 -67 -296 -67zM460 35q160 0 293 72q132 70 221 213l45 283h-282q-147 0 -268 -39q-107 -34 -183 -102q-77 -68 -92 -166q-10 -63 19 -131q29 -64 98 -96
q69 -34 149 -34zM477 1392l3 7q26 94 70 151q45 57 122 57q48 0 74 -20q24 -18 51 -58q6 -8 9 -13q4 -6 10 -14q16 -24 33 -34q18 -12 44 -12q54 0 76 34q29 42 53 114l2 5h53l-2 -7q-26 -95 -71 -151q-42 -57 -121 -57q-45 0 -72 21q-28 19 -58 63q-6 8 -10 14q-3 5 -9 13
q-16 22 -31 31q-16 9 -44 9q-53 0 -75 -34q-28 -41 -51 -114l-2 -5h-54z" />
    <glyph glyph-name="adieresis" unicode="&#xe4;" horiz-adv-x="1071" 
d="M450 -23q-101 0 -176 38q-79 38 -116 110q-39 73 -22 175q16 107 96 190q89 92 228 133q135 40 283 40h285l6 39q10 68 9 111q-1 41 -19 92q-31 93 -106 139q-77 47 -182 47q-113 0 -202 -49q-90 -50 -147 -138q-58 -88 -76 -201h-59q19 130 85 233q64 103 170 162
t239 59q121 0 210 -53q88 -54 126 -159q37 -104 13 -241h-1l-112 -705h-59l34 218q-80 -105 -211 -173q-128 -67 -296 -67zM460 35q160 0 293 72q132 70 221 213l45 283h-282q-147 0 -268 -39q-107 -34 -183 -102q-77 -68 -92 -166q-10 -63 19 -131q29 -64 98 -96
q69 -34 149 -34zM548 1358q-27 0 -38 17q-16 14 -11 41q4 27 22 43q17 15 45 15q24 0 41 -15q12 -18 8 -43q-4 -28 -21 -43q-18 -15 -46 -15zM954 1358q-26 0 -40 17q-16 14 -11 41t24 43q19 15 45 15q24 0 41 -15q12 -18 8 -43q-4 -28 -21 -43q-18 -15 -46 -15z" />
    <glyph glyph-name="aring" unicode="&#xe5;" horiz-adv-x="1071" 
d="M450 -23q-101 0 -176 38q-79 38 -116 110q-39 73 -22 175q16 107 96 190q89 92 228 133q135 40 283 40h285l6 39q10 68 9 111q-1 41 -19 92q-31 93 -106 139q-77 47 -182 47q-113 0 -202 -49q-90 -50 -147 -138q-58 -88 -76 -201h-59q19 130 85 233q64 103 170 162
t239 59q121 0 210 -53q88 -54 126 -159q37 -104 13 -241h-1l-112 -705h-59l34 218q-80 -105 -211 -173q-128 -67 -296 -67zM460 35q160 0 293 72q132 70 221 213l45 283h-282q-147 0 -268 -39q-107 -34 -183 -102q-77 -68 -92 -166q-10 -63 19 -131q29 -64 98 -96
q69 -34 149 -34zM749 1343q-53 0 -93 24t-58 67q-18 41 -10 95q9 52 41 96q32 42 79 66t100 24q86 0 129 -51q44 -52 31 -135q-14 -84 -73 -135q-61 -51 -146 -51zM757 1393q60 0 104 38t53 98q11 59 -23 97q-33 37 -92 37q-58 0 -101 -37t-54 -97q-9 -58 23 -97
q31 -39 90 -39z" />
    <glyph glyph-name="ae" unicode="&#xe6;" horiz-adv-x="1846" 
d="M1854 607h-776l-26 -168q-12 -68 -10 -114q3 -46 19 -91q32 -92 108 -139q75 -48 181 -48q103 0 194 47q88 45 153 138l40 -38q-69 -102 -173 -155q-105 -54 -222 -54q-248 0 -330 205l-30 -191h-59l34 218q-80 -105 -211 -173q-128 -67 -296 -67q-101 0 -176 38
q-79 38 -116 110q-38 75 -22 175q16 107 96 190q89 92 228 133q135 40 283 40h285l6 39q10 68 9 111q-3 46 -19 92q-30 92 -106 139q-77 47 -182 47q-113 0 -202 -49q-88 -48 -147 -138q-58 -91 -76 -201h-59q20 132 84 233q66 104 171 162q106 59 239 59q120 0 211 -53
q88 -54 125 -159q9 -29 14 -50q12 26 28 49q63 100 167 156q103 56 237 57q256 1 329 -207q21 -59 23 -118q1 -55 -17 -167zM1121 821q-15 -46 -20 -78l-6 -39h-1l-6 -37h721l6 41q12 70 9 114q-2 45 -18 91q-33 91 -108 139q-76 48 -181 48q-104 0 -196 -47
q-92 -48 -152 -140q-31 -47 -48 -92zM974 320l45 283h-282q-148 0 -268 -39q-109 -35 -183 -102q-77 -68 -92 -166q-11 -66 19 -131q27 -63 98 -96q68 -34 149 -34q160 0 293 72q135 72 221 213z" />
    <glyph glyph-name="ccedilla" unicode="&#xe7;" horiz-adv-x="956" 
d="M412 -459q-77 0 -122 22q-48 23 -80 80l37 43q52 -97 173 -97q66 0 116 38q49 40 59 106q11 63 -27 120q-37 56 -97 93q-15 11 -40 25q-6 4 -9 5q-7 5 -8 5l-18 10q-161 37 -226 201q-19 49 -21 109q-3 57 8 130l44 277h-1q18 126 84 228q64 101 169 162q104 59 233 59
q120 0 208 -54t124 -156l-52 -37q-35 92 -109 138q-76 47 -179 47q-105 0 -197 -47q-93 -49 -151 -140q-31 -47 -48 -92q-16 -45 -27 -113l-42 -269q-11 -70 -9 -114q2 -45 18 -91q35 -93 109 -139q75 -48 181 -48q103 0 194 47q89 47 152 138l40 -38q-68 -102 -170 -154
q-106 -54 -219 -55q75 -43 113 -103t25 -142q-13 -90 -78 -143q-64 -51 -157 -51z" />
    <glyph glyph-name="egrave" unicode="&#xe8;" horiz-adv-x="1008" 
d="M504 -15q-250 0 -333 212q-19 49 -21 109q-3 57 8 130l43 277q21 132 85 231q62 99 167 157q104 56 237 56q254 0 329 -207q21 -59 23 -118q1 -55 -17 -167l-9 -58h-776l-26 -168q-12 -71 -9 -114q2 -45 18 -91q33 -93 108 -139q75 -48 181 -48q103 0 194 47
q88 46 153 138l40 -38q-69 -102 -173 -155q-104 -54 -222 -54zM250 667h721l6 41q11 70 9 114q-2 45 -18 91q-33 91 -109 139q-77 48 -180 48q-105 0 -197 -47q-93 -49 -151 -140q-31 -47 -48 -92q-16 -45 -27 -113zM787 1309l-151 344h64l142 -344h-55z" />
    <glyph glyph-name="eacute" unicode="&#xe9;" horiz-adv-x="1008" 
d="M504 -15q-250 0 -333 212q-19 49 -21 109q-3 57 8 130l43 277q21 132 85 231q62 99 167 157q104 56 237 56q254 0 329 -207q21 -59 23 -118q1 -55 -17 -167l-9 -58h-776l-26 -168q-12 -71 -9 -114q2 -45 18 -91q33 -93 108 -139q75 -48 181 -48q103 0 194 47
q88 46 153 138l40 -38q-69 -102 -173 -155q-104 -54 -222 -54zM250 667h721l6 41q11 70 9 114q-2 45 -18 91q-33 91 -109 139q-77 48 -180 48q-105 0 -197 -47q-93 -49 -151 -140q-31 -47 -48 -92q-16 -45 -27 -113zM587 1326l254 344h62l-259 -344h-57z" />
    <glyph glyph-name="ecircumflex" unicode="&#xea;" horiz-adv-x="1008" 
d="M504 -15q-250 0 -333 212q-19 49 -21 109q-3 57 8 130l43 277q21 132 85 231q62 99 167 157q104 56 237 56q254 0 329 -207q21 -59 23 -118q1 -55 -17 -167l-9 -58h-776l-26 -168q-12 -71 -9 -114q2 -45 18 -91q33 -93 108 -139q75 -48 181 -48q103 0 194 47
q88 46 153 138l40 -38q-69 -102 -173 -155q-104 -54 -222 -54zM250 667h721l6 41q11 70 9 114q-2 45 -18 91q-33 91 -109 139q-77 48 -180 48q-105 0 -197 -47q-93 -49 -151 -140q-31 -47 -48 -92q-16 -45 -27 -113zM407 1326l306 334h50l198 -334h-61l-171 278l-259 -278
h-63z" />
    <glyph glyph-name="edieresis" unicode="&#xeb;" horiz-adv-x="1008" 
d="M504 -15q-250 0 -333 212q-19 49 -21 109q-3 57 8 130l43 277q21 132 85 231q62 99 167 157q104 56 237 56q254 0 329 -207q21 -59 23 -118q1 -55 -17 -167l-9 -58h-776l-26 -168q-12 -71 -9 -114q2 -45 18 -91q33 -93 108 -139q75 -48 181 -48q103 0 194 47
q88 46 153 138l40 -38q-69 -102 -173 -155q-104 -54 -222 -54zM250 667h721l6 41q11 70 9 114q-2 45 -18 91q-33 91 -109 139q-77 48 -180 48q-105 0 -197 -47q-93 -49 -151 -140q-31 -47 -48 -92q-16 -45 -27 -113zM516 1358q-27 0 -38 17q-16 14 -11 41q4 27 22 43
q17 15 45 15q24 0 41 -15q12 -18 8 -43q-4 -28 -21 -43q-18 -15 -46 -15zM922 1358q-26 0 -40 17q-16 14 -11 41t24 43q19 15 45 15q24 0 41 -15q12 -18 8 -43q-4 -28 -21 -43q-18 -15 -46 -15z" />
    <glyph glyph-name="igrave" unicode="&#xec;" horiz-adv-x="299" 
d="M432 1309l-151 344h64l142 -344h-55zM120 0l183 1156h59l-183 -1156h-59z" />
    <glyph glyph-name="iacute" unicode="&#xed;" horiz-adv-x="299" 
d="M229 1326l254 344h62l-259 -344h-57zM117 0l183 1156h59l-183 -1156h-59z" />
    <glyph glyph-name="icircumflex" unicode="&#xee;" horiz-adv-x="299" 
d="M82 1326l306 334h50l198 -334h-61l-171 278l-259 -278h-63zM150 0l183 1156h59l-183 -1156h-59z" />
    <glyph glyph-name="idieresis" unicode="&#xef;" horiz-adv-x="299" 
d="M161 1358q-27 0 -38 17q-16 14 -11 41q4 27 22 43q16 15 45 15q25 0 41 -15q12 -18 8 -43q-4 -28 -21 -43q-18 -15 -46 -15zM567 1358q-26 0 -40 17q-16 14 -11 41t24 43q20 15 45 15t41 -15q12 -18 8 -43q-4 -28 -21 -43q-18 -15 -46 -15zM120 0l183 1156h59l-183 -1156
h-59z" />
    <glyph glyph-name="ntilde" unicode="&#xf1;" 
d="M88 0l183 1154h55l-31 -196q155 200 398 200q121 0 209 -53q87 -53 125 -158q37 -104 13 -237l-113 -710l-55 2l112 703q11 68 9 113q-2 44 -18 92q-33 93 -109 140q-77 47 -182 47q-113 0 -202 -49t-148 -138q-58 -87 -79 -202l-112 -708h-55zM449 1392l3 7
q26 94 70 151q45 57 122 57q48 0 74 -20q24 -18 51 -58q6 -8 9 -13q4 -6 10 -14q16 -24 33 -34q18 -12 44 -12q54 0 76 34q29 42 53 114l2 5h53l-2 -7q-26 -95 -71 -151q-42 -57 -121 -57q-45 0 -72 21q-28 19 -58 63q-6 8 -10 14q-3 5 -9 13q-16 22 -31 31q-17 9 -44 9
q-53 0 -75 -34q-28 -41 -51 -114l-2 -5h-54z" />
    <glyph glyph-name="ograve" unicode="&#xf2;" horiz-adv-x="1009" 
d="M504 -13q-261 0 -333 207q-38 102 -13 239l43 277h-1q21 134 90 237q138 207 401 207q131 0 216 -57q84 -59 117 -159q32 -100 9 -228h-1l-43 -277q-20 -137 -89 -239q-136 -207 -396 -207zM512 44q104 0 195 48q92 48 153 139q29 44 47 92q16 43 27 113l43 269
q11 68 9 113q-1 41 -19 92q-31 91 -108 139t-180 48q-105 0 -196 -47q-89 -48 -153 -140q-29 -44 -47 -92q-16 -45 -27 -113l-43 -269q-11 -69 -9 -113q1 -41 19 -92q33 -93 108 -139q75 -48 181 -48zM787 1309l-151 344h64l142 -344h-55z" />
    <glyph glyph-name="oacute" unicode="&#xf3;" horiz-adv-x="1009" 
d="M504 -13q-261 0 -333 207q-38 102 -13 239l43 277h-1q21 134 90 237q138 207 401 207q131 0 216 -57q84 -59 117 -159q32 -100 9 -228h-1l-43 -277q-20 -137 -89 -239q-136 -207 -396 -207zM512 44q104 0 195 48q92 48 153 139q29 44 47 92q16 43 27 113l43 269
q11 68 9 113q-1 41 -19 92q-31 91 -108 139t-180 48q-105 0 -196 -47q-89 -48 -153 -140q-29 -44 -47 -92q-16 -45 -27 -113l-43 -269q-11 -69 -9 -113q1 -41 19 -92q33 -93 108 -139q75 -48 181 -48zM587 1326l254 344h62l-259 -344h-57z" />
    <glyph glyph-name="ocircumflex" unicode="&#xf4;" horiz-adv-x="1009" 
d="M504 -13q-261 0 -333 207q-38 102 -13 239l43 277h-1q21 134 90 237q138 207 401 207q131 0 216 -57q84 -59 117 -159q32 -100 9 -228h-1l-43 -277q-20 -137 -89 -239q-136 -207 -396 -207zM512 44q104 0 195 48q92 48 153 139q29 44 47 92q16 43 27 113l43 269
q11 68 9 113q-1 41 -19 92q-31 91 -108 139t-180 48q-105 0 -196 -47q-89 -48 -153 -140q-29 -44 -47 -92q-16 -45 -27 -113l-43 -269q-11 -69 -9 -113q1 -41 19 -92q33 -93 108 -139q75 -48 181 -48zM407 1326l306 334h50l198 -334h-61l-171 278l-259 -278h-63z" />
    <glyph glyph-name="otilde" unicode="&#xf5;" horiz-adv-x="1009" 
d="M504 -13q-261 0 -333 207q-38 102 -13 239l43 277h-1q21 134 90 237q138 207 401 207q131 0 216 -57q84 -59 117 -159q32 -100 9 -228h-1l-43 -277q-20 -137 -89 -239q-136 -207 -396 -207zM512 44q104 0 195 48q92 48 153 139q29 44 47 92q16 43 27 113l43 269
q11 68 9 113q-1 41 -19 92q-31 91 -108 139t-180 48q-105 0 -196 -47q-89 -48 -153 -140q-29 -44 -47 -92q-16 -45 -27 -113l-43 -269q-11 -69 -9 -113q1 -41 19 -92q33 -93 108 -139q75 -48 181 -48zM445 1392l3 7q26 94 70 151q45 57 122 57q48 0 74 -20q24 -18 51 -58
q6 -8 9 -13q4 -6 10 -14q16 -24 33 -34q18 -12 44 -12q54 0 76 34q29 42 53 114l2 5h53l-2 -7q-26 -95 -71 -151q-42 -57 -121 -57q-45 0 -72 21q-28 19 -58 63q-6 8 -10 14q-3 5 -9 13q-16 22 -31 31q-17 9 -44 9q-53 0 -75 -34q-28 -41 -51 -114l-2 -5h-54z" />
    <glyph glyph-name="odieresis" unicode="&#xf6;" horiz-adv-x="1009" 
d="M504 -13q-261 0 -333 207q-38 102 -13 239l43 277h-1q21 134 90 237q138 207 401 207q131 0 216 -57q84 -59 117 -159q32 -100 9 -228h-1l-43 -277q-20 -137 -89 -239q-136 -207 -396 -207zM512 44q104 0 195 48q92 48 153 139q29 44 47 92q16 43 27 113l43 269
q11 68 9 113q-1 41 -19 92q-31 91 -108 139t-180 48q-105 0 -196 -47q-89 -48 -153 -140q-29 -44 -47 -92q-16 -45 -27 -113l-43 -269q-11 -69 -9 -113q1 -41 19 -92q33 -93 108 -139q75 -48 181 -48zM517 1358q-27 0 -38 17q-16 14 -11 41q4 27 22 43q16 15 45 15
q25 0 41 -15q12 -18 8 -43q-4 -28 -21 -43q-18 -15 -46 -15zM923 1358q-26 0 -40 17q-16 14 -11 41t24 43q20 15 45 15t41 -15q12 -18 8 -43q-4 -28 -21 -43q-18 -15 -46 -15z" />
    <glyph glyph-name="divide" unicode="&#xf7;" horiz-adv-x="1186" 
d="M641 312q-26 0 -39 16q-14 16 -9 42q9 58 67 58q23 0 42 -14q10 -19 7 -44q-10 -58 -68 -58zM770 1126q-26 0 -39 16t-9 42q9 58 67 58q24 0 41 -14q11 -20 8 -44q-10 -58 -68 -58zM207 750l8 50h1010l-8 -50h-1010z" />
    <glyph glyph-name="oslash" unicode="&#xf8;" horiz-adv-x="1009" 
d="M140 -289l156 323q-89 56 -125 160q-38 102 -13 239l43 277h-1q21 134 90 237q138 207 401 207q78 0 138 -19l173 356h58l-182 -376q102 -54 141 -168q37 -102 14 -237h-1l-43 -277q-20 -137 -89 -239q-136 -207 -396 -207q-94 0 -160 25l-146 -301h-58zM326 95l476 983
q-51 19 -123 19q-105 0 -196 -47q-89 -48 -153 -140q-29 -44 -47 -92q-16 -45 -27 -113l-43 -269q-11 -69 -9 -113q1 -41 19 -92q30 -84 103 -136zM512 44q104 0 195 48q92 48 153 139q29 44 47 92q16 43 27 113l43 269q11 68 9 113q-1 41 -19 92q-18 48 -47 83
q-33 39 -71 63l-478 -986q63 -26 141 -26z" />
    <glyph glyph-name="ugrave" unicode="&#xf9;" 
d="M503 -16q-129 0 -214 57q-84 56 -119 159q-34 101 -13 233l115 724l55 -2l-114 -717q-11 -70 -9 -114q1 -41 19 -91q33 -94 108 -140q76 -47 182 -47q110 0 202 50q91 50 150 138q59 90 77 200l114 723h55l-183 -1157h-55l29 185q-80 -103 -178 -151q-102 -50 -221 -50z
M791 1309l-151 344h64l142 -344h-55z" />
    <glyph glyph-name="uacute" unicode="&#xfa;" 
d="M503 -16q-129 0 -214 57q-84 56 -119 159q-34 101 -13 233l115 724l55 -2l-114 -717q-11 -70 -9 -114q1 -41 19 -91q33 -94 108 -140q76 -47 182 -47q110 0 202 50q91 50 150 138q59 90 77 200l114 723h55l-183 -1157h-55l29 185q-80 -103 -178 -151q-102 -50 -221 -50z
M591 1326l254 344h62l-259 -344h-57z" />
    <glyph glyph-name="ucircumflex" unicode="&#xfb;" 
d="M503 -16q-129 0 -214 57q-84 56 -119 159q-34 101 -13 233l115 724l55 -2l-114 -717q-11 -70 -9 -114q1 -41 19 -91q33 -94 108 -140q76 -47 182 -47q110 0 202 50q91 50 150 138q59 90 77 200l114 723h55l-183 -1157h-55l29 185q-80 -103 -178 -151q-102 -50 -221 -50z
M411 1326l306 334h50l198 -334h-61l-171 278l-259 -278h-63z" />
    <glyph glyph-name="udieresis" unicode="&#xfc;" 
d="M503 -16q-129 0 -214 57q-84 56 -119 159q-34 101 -13 233l115 724l55 -2l-114 -717q-11 -70 -9 -114q1 -41 19 -91q33 -94 108 -140q76 -47 182 -47q110 0 202 50q91 50 150 138q59 90 77 200l114 723h55l-183 -1157h-55l29 185q-80 -103 -178 -151q-102 -50 -221 -50z
M520 1358q-27 0 -38 17q-16 14 -11 41q4 27 22 43q17 15 45 15q24 0 41 -15q12 -18 8 -43q-4 -28 -21 -43q-18 -15 -46 -15zM926 1358q-26 0 -40 17q-16 14 -11 41t24 43q19 15 45 15q24 0 41 -15q12 -18 8 -43q-4 -28 -21 -43q-18 -15 -46 -15z" />
    <glyph glyph-name="yacute" unicode="&#xfd;" horiz-adv-x="1135" 
d="M91 -482q-33 0 -78 8v1l24 58h2q35 -7 64 -7q35 0 69 9q117 30 188 97q73 70 130 188l64 130l-248 1155h63l230 -1067l569 1067h62l-582 -1095l-104 -209q-75 -151 -190 -244q-112 -91 -263 -91zM650 1326l254 344h62l-259 -344h-57z" />
    <glyph glyph-name="ydieresis" unicode="&#xff;" horiz-adv-x="1135" 
d="M91 -482q-33 0 -78 8v1l24 58h2q35 -7 64 -7q35 0 69 9q117 30 188 97q73 70 130 188l64 130l-248 1155h63l230 -1067l569 1067h62l-582 -1095l-104 -209q-75 -151 -190 -244q-112 -91 -263 -91zM580 1358q-27 0 -38 17q-16 14 -11 41q4 27 22 43q17 15 45 15
q24 0 41 -15q12 -18 8 -43q-4 -28 -21 -43q-18 -15 -46 -15zM986 1358q-26 0 -40 17q-16 14 -11 41t24 43q19 15 45 15q24 0 41 -15q12 -18 8 -43q-4 -28 -21 -43q-18 -15 -46 -15z" />
    <glyph glyph-name="Amacron" unicode="&#x100;" horiz-adv-x="1445" 
d="M688 1845l8 50h654l-8 -50h-654zM88 0l852 1602h73l344 -1602h-64l-131 611h-684l-325 -611h-65zM509 670h640l-182 872z" />
    <glyph glyph-name="amacron" unicode="&#x101;" horiz-adv-x="1071" 
d="M450 -23q-101 0 -176 38q-79 38 -116 110q-39 73 -22 175q16 107 96 190q89 92 228 133q135 40 283 40h285l6 39q10 68 9 111q-1 41 -19 92q-31 93 -106 139q-77 47 -182 47q-113 0 -202 -49q-90 -50 -147 -138q-58 -88 -76 -201h-59q19 130 85 233q64 103 170 162
t239 59q121 0 210 -53q88 -54 126 -159q37 -104 13 -241h-1l-112 -705h-59l34 218q-80 -105 -211 -173q-128 -67 -296 -67zM460 35q160 0 293 72q132 70 221 213l45 283h-282q-147 0 -268 -39q-107 -34 -183 -102q-77 -68 -92 -166q-10 -63 19 -131q29 -64 98 -96
q69 -34 149 -34zM431 1400l8 50h654l-8 -50h-654z" />
    <glyph glyph-name="Abreve" unicode="&#x102;" horiz-adv-x="1445" 
d="M1003 1771q-130 0 -191 73q-64 76 -39 213h50q-19 -109 33 -173q52 -61 156 -61t174 61q76 65 89 173h50q-20 -137 -107 -213q-85 -73 -215 -73zM88 0l852 1602h73l344 -1602h-64l-131 611h-684l-325 -611h-65zM509 670h640l-182 872z" />
    <glyph glyph-name="abreve" unicode="&#x103;" horiz-adv-x="1071" 
d="M450 -23q-101 0 -176 38q-79 38 -116 110q-39 73 -22 175q16 107 96 190q89 92 228 133q135 40 283 40h285l6 39q10 68 9 111q-1 41 -19 92q-31 93 -106 139q-77 47 -182 47q-113 0 -202 -49q-90 -50 -147 -138q-58 -88 -76 -201h-59q19 130 85 233q64 103 170 162
t239 59q121 0 210 -53q88 -54 126 -159q37 -104 13 -241h-1l-112 -705h-59l34 218q-80 -105 -211 -173q-128 -67 -296 -67zM460 35q160 0 293 72q132 70 221 213l45 283h-282q-147 0 -268 -39q-107 -34 -183 -102q-77 -68 -92 -166q-10 -63 19 -131q29 -64 98 -96
q69 -34 149 -34zM746 1326q-130 0 -191 73q-64 76 -40 213h50q-19 -109 34 -173q51 -61 155 -61q105 0 175 61q75 66 88 173h50q-18 -137 -106 -213q-85 -73 -215 -73z" />
    <glyph glyph-name="Aogonek" unicode="&#x104;" horiz-adv-x="1445" 
d="M1127 -464q-91 0 -140 46q-50 47 -36 136q9 56 45 106q37 50 90 86q40 31 94 58q56 28 110 47l-128 596h-684l-325 -611h-65l852 1602h73l344 -1602l-3 -1q-8 -3 -18 -8t-11 -5q-16 -7 -33.5 -14.5t-27.5 -12t-15 -6.5q-66 -31 -108 -61q-50 -30 -89 -77q-38 -46 -47 -97
q-11 -64 27 -99q36 -33 102 -33q103 0 167 50l17 -48q-61 -33 -95 -43q-33 -9 -96 -9zM509 670h640l-182 872z" />
    <glyph glyph-name="aogonek" unicode="&#x105;" horiz-adv-x="1071" 
d="M754 -464q-91 0 -140 46q-50 47 -36 136q9 56 45 106q37 50 90 86q40 31 98 60t115 48l31 199q-80 -105 -211 -173q-128 -67 -296 -67q-101 0 -176 38q-79 38 -116 110q-39 73 -22 175q16 107 96 190q89 92 228 133q135 40 283 40h285l6 39q10 68 9 111q-1 41 -19 92
q-31 93 -106 139q-77 47 -182 47q-113 0 -202 -49q-90 -50 -147 -138q-58 -88 -76 -201h-59q19 130 85 233q64 103 170 162t239 59q121 0 210 -53q88 -54 126 -159q37 -104 13 -241h-1l-112 -705q-27 -11 -30 -13q-16 -7 -33.5 -14.5t-27.5 -12t-15 -6.5q-66 -31 -108 -61
q-50 -30 -89 -77q-38 -46 -47 -97q-10 -64 27 -99q36 -33 102 -33q103 0 167 50l17 -48q-61 -33 -95 -43q-33 -9 -96 -9zM460 35q160 0 293 72q132 70 221 213l45 283h-282q-147 0 -268 -39q-107 -34 -183 -102q-77 -68 -92 -166q-10 -63 19 -131q29 -64 98 -96
q69 -34 149 -34z" />
    <glyph glyph-name="Cacute" unicode="&#x106;" horiz-adv-x="1254" 
d="M658 -22q-185 0 -300 98q-114 97 -153 259q-39 160 -9 346l38 240q33 207 128 367q97 159 241 248q142 88 315 88q174 0 290 -88q117 -89 162 -248l-52 -32q-39 150 -144 229q-104 79 -265 79q-171 0 -302 -89q-129 -87 -209 -234t-107 -318l-38 -242q-27 -168 6 -314
q31 -146 134 -238t275 -92q158 0 289 80q130 79 217 228l42 -31q-95 -159 -240 -248q-143 -88 -317 -88h-1zM780 1771l254 344h62l-259 -344h-57z" />
    <glyph glyph-name="cacute" unicode="&#x107;" horiz-adv-x="956" 
d="M503 -20q-250 0 -333 212q-19 49 -21 109q-3 57 8 130l44 277h-1q18 126 84 228q64 101 169 162q104 59 233 59q120 0 208 -54t124 -156l-52 -37q-35 92 -109 138q-76 47 -179 47q-105 0 -197 -47q-93 -49 -151 -140q-31 -47 -48 -92q-16 -45 -27 -113l-42 -269
q-11 -70 -9 -114q2 -45 18 -91q35 -93 109 -139q75 -48 181 -48q103 0 194 47q89 47 152 138l40 -38q-69 -102 -173 -155q-103 -54 -222 -54zM561 1326l254 344h62l-259 -344h-57z" />
    <glyph glyph-name="Ccircumflex" unicode="&#x108;" horiz-adv-x="1254" 
d="M658 -22q-185 0 -300 98q-114 97 -153 259q-39 160 -9 346l38 240q33 207 128 367q97 159 241 248q142 88 315 88q174 0 290 -88q117 -89 162 -248l-52 -32q-39 150 -144 229q-104 79 -265 79q-171 0 -302 -89q-129 -87 -209 -234t-107 -318l-38 -242q-27 -168 6 -314
q31 -146 134 -238t275 -92q158 0 289 80q130 79 217 228l42 -31q-95 -159 -240 -248q-143 -88 -317 -88h-1zM600 1771l306 334h50l198 -334h-61l-170 278l-260 -278h-63z" />
    <glyph glyph-name="ccircumflex" unicode="&#x109;" horiz-adv-x="956" 
d="M503 -20q-250 0 -333 212q-19 49 -21 109q-3 57 8 130l44 277h-1q18 126 84 228q64 101 169 162q104 59 233 59q120 0 208 -54t124 -156l-52 -37q-35 92 -109 138q-76 47 -179 47q-105 0 -197 -47q-93 -49 -151 -140q-31 -47 -48 -92q-16 -45 -27 -113l-42 -269
q-11 -70 -9 -114q2 -45 18 -91q35 -93 109 -139q75 -48 181 -48q103 0 194 47q89 47 152 138l40 -38q-69 -102 -173 -155q-103 -54 -222 -54zM381 1326l306 334h50l198 -334h-61l-171 278l-259 -278h-63z" />
    <glyph glyph-name="Cdotaccent" unicode="&#x10a;" horiz-adv-x="1254" 
d="M658 -22q-185 0 -300 98q-114 97 -153 259q-39 160 -9 346l38 240q33 207 128 367q97 159 241 248q142 88 315 88q174 0 290 -88q117 -89 162 -248l-52 -32q-39 150 -144 229q-104 79 -265 79q-171 0 -302 -89q-129 -87 -209 -234t-107 -318l-38 -242q-27 -168 6 -314
q31 -146 134 -238t275 -92q158 0 289 80q130 79 217 228l42 -31q-95 -159 -240 -248q-143 -88 -317 -88h-1zM916 1823q-27 0 -39 17q-14 14 -10 41q4 28 22 43q17 15 45 15q24 0 41 -15q12 -18 8 -43q-4 -27 -22 -43q-17 -15 -45 -15z" />
    <glyph glyph-name="cdotaccent" unicode="&#x10b;" horiz-adv-x="956" 
d="M503 -20q-250 0 -333 212q-19 49 -21 109q-3 57 8 130l44 277h-1q18 126 84 228q64 101 169 162q104 59 233 59q120 0 208 -54t124 -156l-52 -37q-35 92 -109 138q-76 47 -179 47q-105 0 -197 -47q-93 -49 -151 -140q-31 -47 -48 -92q-16 -45 -27 -113l-42 -269
q-11 -70 -9 -114q2 -45 18 -91q35 -93 109 -139q75 -48 181 -48q103 0 194 47q89 47 152 138l40 -38q-69 -102 -173 -155q-103 -54 -222 -54zM696 1378q-27 0 -38 17q-16 14 -11 41q4 27 23 43q16 15 45 15q25 0 40 -15q12 -18 8 -43q-4 -28 -21 -43q-18 -15 -46 -15z" />
    <glyph glyph-name="Ccaron" unicode="&#x10c;" horiz-adv-x="1254" 
d="M658 -22q-185 0 -300 98q-114 97 -153 259q-39 160 -9 346l38 240q33 207 128 367q97 159 241 248q142 88 315 88q174 0 290 -88q117 -89 162 -248l-52 -32q-39 150 -144 229q-104 79 -265 79q-171 0 -302 -89q-129 -87 -209 -234t-107 -318l-38 -242q-27 -168 6 -314
q31 -146 134 -238t275 -92q158 0 289 80q130 79 217 228l42 -31q-95 -159 -240 -248q-143 -88 -317 -88h-1zM883 1771l-200 334h63l171 -278l259 278h61l-304 -334h-50z" />
    <glyph glyph-name="ccaron" unicode="&#x10d;" horiz-adv-x="956" 
d="M503 -20q-250 0 -333 212q-19 49 -21 109q-3 57 8 130l44 277h-1q18 126 84 228q64 101 169 162q104 59 233 59q120 0 208 -54t124 -156l-52 -37q-35 92 -109 138q-76 47 -179 47q-105 0 -197 -47q-93 -49 -151 -140q-31 -47 -48 -92q-16 -45 -27 -113l-42 -269
q-11 -70 -9 -114q2 -45 18 -91q35 -93 109 -139q75 -48 181 -48q103 0 194 47q89 47 152 138l40 -38q-69 -102 -173 -155q-103 -54 -222 -54zM664 1326l-200 334h63l171 -278l259 278h61l-304 -334h-50z" />
    <glyph glyph-name="Dcaron" unicode="&#x10e;" horiz-adv-x="1263" 
d="M88 0l254 1602h505q188 -2 303 -94q116 -93 158 -248q42 -156 12 -343l-37 -233q-31 -200 -129 -357q-94 -153 -237 -238q-146 -86 -311 -86zM600 58q161 0 294 80q141 82 223 229q81 145 108 317l38 236q27 172 -9 312t-142 225q-107 85 -282 89h-438l-232 -1485z
M888 1771l-200 334h63l171 -278l259 278h61l-304 -334h-50z" />
    <glyph glyph-name="dcaron" unicode="&#x10f;" horiz-adv-x="1381" 
d="M503 -18q-121 0 -208 54q-86 52 -124 158q-38 102 -13 239l42 277q20 129 85 230t169 160q103 58 235 58q243 0 336 -200l102 644h55l-254 -1602h-55l29 183q-158 -201 -399 -201zM513 44q111 0 202 50q90 50 148 137q57 87 78 201l44 276q15 113 -13 200
q-28 88 -102 139q-74 50 -190 50q-105 0 -196 -47q-90 -47 -154 -140q-29 -44 -47 -92q-16 -45 -27 -113l-43 -269q-11 -69 -9 -113q1 -41 19 -92q34 -93 109 -139q75 -48 181 -48zM1367 1340l-45 37q40 4 78 35q37 28 63 71q25 39 31 79q2 10 2 21q-19 -17 -41 -17
q-23 0 -37 20q-13 16 -9 40q5 27 25 44q20 14 44 14q50 0 62 -38q8 -36 2 -72q-10 -70 -58 -136q-47 -63 -117 -98z" />
    <glyph glyph-name="Emacron" unicode="&#x112;" horiz-adv-x="1145" 
d="M538 1845l8 50h654l-8 -50h-654zM88 0l254 1602h969l-9 -56h-910l-104 -653h651l-11 -61h-646l-122 -771h907l-10 -58z" />
    <glyph glyph-name="emacron" unicode="&#x113;" horiz-adv-x="1008" 
d="M504 -15q-250 0 -333 212q-19 49 -21 109q-3 57 8 130l43 277q21 132 85 231q62 99 167 157q104 56 237 56q254 0 329 -207q21 -59 23 -118q1 -55 -17 -167l-9 -58h-776l-26 -168q-12 -71 -9 -114q2 -45 18 -91q33 -93 108 -139q75 -48 181 -48q103 0 194 47
q88 46 153 138l40 -38q-69 -102 -173 -155q-104 -54 -222 -54zM250 667h721l6 41q11 70 9 114q-2 45 -18 91q-33 91 -109 139q-77 48 -180 48q-105 0 -197 -47q-93 -49 -151 -140q-31 -47 -48 -92q-16 -45 -27 -113zM399 1400l8 50h654l-8 -50h-654z" />
    <glyph glyph-name="Ebreve" unicode="&#x114;" horiz-adv-x="1145" 
d="M853 1771q-130 0 -191 73q-64 76 -39 213h50q-19 -109 33 -173q52 -61 156 -61t174 61q76 65 89 173h50q-20 -137 -107 -213q-85 -73 -215 -73zM88 0l254 1602h969l-9 -56h-910l-104 -653h651l-11 -61h-646l-122 -771h907l-10 -58z" />
    <glyph glyph-name="ebreve" unicode="&#x115;" horiz-adv-x="1008" 
d="M504 -15q-250 0 -333 212q-19 49 -21 109q-3 57 8 130l43 277q21 132 85 231q62 99 167 157q104 56 237 56q254 0 329 -207q21 -59 23 -118q1 -55 -17 -167l-9 -58h-776l-26 -168q-12 -71 -9 -114q2 -45 18 -91q33 -93 108 -139q75 -48 181 -48q103 0 194 47
q88 46 153 138l40 -38q-69 -102 -173 -155q-104 -54 -222 -54zM250 667h721l6 41q11 70 9 114q-2 45 -18 91q-33 91 -109 139q-77 48 -180 48q-105 0 -197 -47q-93 -49 -151 -140q-31 -47 -48 -92q-16 -45 -27 -113zM714 1326q-130 0 -191 73q-64 76 -40 213h50
q-19 -109 34 -173q51 -61 155 -61q105 0 175 61q75 66 88 173h50q-18 -137 -106 -213q-85 -73 -215 -73z" />
    <glyph glyph-name="Edotaccent" unicode="&#x116;" horiz-adv-x="1145" 
d="M862 1823q-27 0 -39 17q-14 14 -10 41q4 28 22 43q17 15 45 15q24 0 41 -15q12 -18 8 -43q-4 -27 -22 -43q-17 -15 -45 -15zM88 0l254 1602h969l-9 -56h-910l-104 -653h651l-11 -61h-646l-122 -771h907l-10 -58z" />
    <glyph glyph-name="edotaccent" unicode="&#x117;" horiz-adv-x="1008" 
d="M504 -15q-250 0 -333 212q-19 49 -21 109q-3 57 8 130l43 277q21 132 85 231q62 99 167 157q104 56 237 56q254 0 329 -207q21 -59 23 -118q1 -55 -17 -167l-9 -58h-776l-26 -168q-12 -71 -9 -114q2 -45 18 -91q33 -93 108 -139q75 -48 181 -48q103 0 194 47
q88 46 153 138l40 -38q-69 -102 -173 -155q-104 -54 -222 -54zM250 667h721l6 41q11 70 9 114q-2 45 -18 91q-33 91 -109 139q-77 48 -180 48q-105 0 -197 -47q-93 -49 -151 -140q-31 -47 -48 -92q-16 -45 -27 -113zM722 1378q-27 0 -38 17q-16 14 -11 41q4 27 23 43
q16 15 45 15q25 0 40 -15q12 -18 8 -43q-4 -28 -21 -43q-18 -15 -46 -15z" />
    <glyph glyph-name="Eogonek" unicode="&#x118;" horiz-adv-x="1145" 
d="M474 -452q-92 0 -139 46q-50 47 -36 136q9 56 45 106q37 50 90 86q45 37 139 80l-485 -2l254 1602h969l-9 -56h-910l-104 -653h651l-11 -61h-646l-122 -771h907l-10 -58l-377 -1l-2 -2q-1 -1 -2 -1t-1.5 -0.5t-1.5 -0.5l-77 -33q-66 -32 -107 -61q-53 -32 -89 -77
q-38 -44 -47 -97q-11 -64 27 -99q36 -33 102 -33q103 0 167 50l17 -48q-60 -34 -94 -43q-33 -9 -98 -9z" />
    <glyph glyph-name="eogonek" unicode="&#x119;" horiz-adv-x="1008" 
d="M415 -452q-91 0 -140 46t-35 136q9 56 45 106q37 50 90 86q41 32 105 63q-231 10 -309 212q-19 49 -21 109q-3 57 8 130l43 277q21 132 85 231q62 99 167 157q104 56 237 56q254 0 329 -207q21 -59 23 -118q1 -55 -17 -167l-9 -58h-776l-26 -168q-12 -71 -9 -114
q2 -45 18 -91q33 -93 108 -139q75 -48 181 -48q103 0 194 47q88 46 153 138l40 -38q-52 -77 -126 -127q-76 -51 -161 -70q-14 -6 -75 -32q-66 -32 -107 -61q-52 -31 -90 -77q-39 -47 -46 -97q-10 -64 27 -99q36 -33 102 -33q103 0 167 50l17 -48q-61 -34 -96 -43
q-33 -9 -96 -9zM250 667h721l6 41q11 70 9 114q-2 45 -18 91q-33 91 -109 139q-77 48 -180 48q-105 0 -197 -47q-93 -49 -151 -140q-31 -47 -48 -92q-16 -45 -27 -113z" />
    <glyph glyph-name="Ecaron" unicode="&#x11a;" horiz-adv-x="1145" 
d="M829 1771l-200 334h63l171 -278l259 278h61l-304 -334h-50zM88 0l254 1602h969l-9 -56h-910l-104 -653h651l-11 -61h-646l-122 -771h907l-10 -58z" />
    <glyph glyph-name="ecaron" unicode="&#x11b;" horiz-adv-x="1008" 
d="M504 -15q-250 0 -333 212q-19 49 -21 109q-3 57 8 130l43 277q21 132 85 231q62 99 167 157q104 56 237 56q254 0 329 -207q21 -59 23 -118q1 -55 -17 -167l-9 -58h-776l-26 -168q-12 -71 -9 -114q2 -45 18 -91q33 -93 108 -139q75 -48 181 -48q103 0 194 47
q88 46 153 138l40 -38q-69 -102 -173 -155q-104 -54 -222 -54zM250 667h721l6 41q11 70 9 114q-2 45 -18 91q-33 91 -109 139q-77 48 -180 48q-105 0 -197 -47q-93 -49 -151 -140q-31 -47 -48 -92q-16 -45 -27 -113zM690 1326l-200 334h63l171 -278l259 278h61l-304 -334
h-50z" />
    <glyph glyph-name="Gcircumflex" unicode="&#x11c;" horiz-adv-x="1254" 
d="M658 -22q-185 0 -300 98q-114 97 -153 259q-39 160 -9 346l38 240q33 207 128 367q97 159 241 248q142 88 315 88q174 0 290 -88q117 -89 162 -248l-52 -32q-39 150 -144 229q-104 79 -265 79q-171 0 -302 -89q-129 -87 -209 -234t-107 -318l-38 -242q-27 -168 6 -314
q31 -146 134 -238t275 -92q156 0 280 75q124 74 213 216l78 490h-448l8 53h501l-90 -567q-97 -155 -239 -241q-142 -85 -312 -85h-1zM600 1771l306 334h50l198 -334h-61l-170 278l-260 -278h-63z" />
    <glyph glyph-name="gcircumflex" unicode="&#x11d;" horiz-adv-x="1018" 
d="M442 -454q-96 0 -174 35q-76 35 -123 102q-47 68 -56 163l55 25q13 -124 95 -194t212 -70q114 0 199 50q72 43 117 96q44 53 68 116q25 70 37 148l25 159q-156 -194 -394 -194q-121 0 -208 54q-86 52 -124 158q-38 102 -13 239l42 277q20 129 85 230t169 160
q103 58 235 58q239 0 333 -193l31 192h58l-178 -1140q-22 -144 -87 -248q-67 -107 -174 -166q-108 -57 -230 -57zM513 44q151 0 261 89q109 88 154 242l62 390q3 154 -76 243q-80 89 -234 89q-105 0 -196 -47q-90 -47 -154 -140q-29 -44 -47 -92q-16 -45 -27 -113l-43 -269
q-11 -69 -9 -113q1 -41 19 -92q34 -93 109 -139q75 -48 181 -48zM412 1326l306 334h50l198 -334h-61l-171 278l-259 -278h-63z" />
    <glyph glyph-name="Gbreve" unicode="&#x11e;" horiz-adv-x="1254" 
d="M658 -22q-185 0 -300 98q-114 97 -153 259q-39 160 -9 346l38 240q33 207 128 367q97 159 241 248q142 88 315 88q174 0 290 -88q117 -89 162 -248l-52 -32q-39 150 -144 229q-104 79 -265 79q-171 0 -302 -89q-129 -87 -209 -234t-107 -318l-38 -242q-27 -168 6 -314
q31 -146 134 -238t275 -92q156 0 280 75q124 74 213 216l78 490h-448l8 53h501l-90 -567q-97 -155 -239 -241q-142 -85 -312 -85h-1zM907 1771q-130 0 -191 73q-64 76 -39 213h50q-19 -109 33 -173q52 -61 156 -61t174 61q76 65 89 173h50q-20 -137 -107 -213
q-85 -73 -215 -73z" />
    <glyph glyph-name="gbreve" unicode="&#x11f;" horiz-adv-x="1018" 
d="M442 -454q-96 0 -174 35q-76 35 -123 102q-47 68 -56 163l55 25q13 -124 95 -194t212 -70q114 0 199 50q72 43 117 96q44 53 68 116q25 70 37 148l25 159q-156 -194 -394 -194q-121 0 -208 54q-86 52 -124 158q-38 102 -13 239l42 277q20 129 85 230t169 160
q103 58 235 58q239 0 333 -193l31 192h58l-178 -1140q-22 -144 -87 -248q-67 -107 -174 -166q-108 -57 -230 -57zM513 44q151 0 261 89q109 88 154 242l62 390q3 154 -76 243q-80 89 -234 89q-105 0 -196 -47q-90 -47 -154 -140q-29 -44 -47 -92q-16 -45 -27 -113l-43 -269
q-11 -69 -9 -113q1 -41 19 -92q34 -93 109 -139q75 -48 181 -48zM719 1326q-130 0 -191 73q-64 76 -40 213h50q-19 -109 34 -173q51 -61 155 -61q105 0 175 61q75 66 88 173h50q-18 -137 -106 -213q-85 -73 -215 -73z" />
    <glyph glyph-name="Gdotaccent" unicode="&#x120;" horiz-adv-x="1254" 
d="M658 -22q-185 0 -300 98q-114 97 -153 259q-39 160 -9 346l38 240q33 207 128 367q97 159 241 248q142 88 315 88q174 0 290 -88q117 -89 162 -248l-52 -32q-39 150 -144 229q-104 79 -265 79q-171 0 -302 -89q-129 -87 -209 -234t-107 -318l-38 -242q-27 -168 6 -314
q31 -146 134 -238t275 -92q156 0 280 75q124 74 213 216l78 490h-448l8 53h501l-90 -567q-97 -155 -239 -241q-142 -85 -312 -85h-1zM916 1823q-27 0 -39 17q-14 14 -10 41q4 28 22 43q17 15 45 15q24 0 41 -15q12 -18 8 -43q-4 -27 -22 -43q-17 -15 -45 -15z" />
    <glyph glyph-name="gdotaccent" unicode="&#x121;" horiz-adv-x="1018" 
d="M442 -454q-96 0 -174 35q-76 35 -123 102q-47 68 -56 163l55 25q13 -124 95 -194t212 -70q114 0 199 50q72 43 117 96q44 53 68 116q25 70 37 148l25 159q-156 -194 -394 -194q-121 0 -208 54q-86 52 -124 158q-38 102 -13 239l42 277q20 129 85 230t169 160
q103 58 235 58q239 0 333 -193l31 192h58l-178 -1140q-22 -144 -87 -248q-67 -107 -174 -166q-108 -57 -230 -57zM513 44q151 0 261 89q109 88 154 242l62 390q3 154 -76 243q-80 89 -234 89q-105 0 -196 -47q-90 -47 -154 -140q-29 -44 -47 -92q-16 -45 -27 -113l-43 -269
q-11 -69 -9 -113q1 -41 19 -92q34 -93 109 -139q75 -48 181 -48zM727 1378q-27 0 -38 17q-16 14 -11 41q4 27 23 43q17 15 45 15q25 0 40 -15q12 -18 8 -43q-4 -28 -21 -43q-18 -15 -46 -15z" />
    <glyph glyph-name="Hcircumflex" unicode="&#x124;" horiz-adv-x="1147" 
d="M546 1771l306 334h50l198 -334h-61l-170 278l-260 -278h-63zM88 0l254 1602h59l-113 -709h853l113 709h59l-254 -1602h-61l132 832h-848l-132 -832h-62z" />
    <glyph glyph-name="hcircumflex" unicode="&#x125;" 
d="M88 0l253 1599h55l-101 -641q155 200 398 200q121 0 209 -53q87 -53 125 -158q37 -104 13 -237l-113 -710l-55 2l112 703q11 68 9 113q-2 44 -18 92q-33 93 -109 140q-77 47 -182 47q-113 0 -202 -49t-148 -138q-58 -87 -79 -202l-112 -708h-55zM411 1326l306 334h50
l198 -334h-61l-171 278l-259 -278h-63z" />
    <glyph glyph-name="Hbar" unicode="&#x126;" horiz-adv-x="1147" 
d="M539 1845l8 50h654l-8 -50h-654zM88 0l254 1602h59l-113 -709h853l113 709h59l-254 -1602h-61l132 832h-848l-132 -832h-62z" />
    <glyph glyph-name="hbar" unicode="&#x127;" 
d="M88 0l253 1599h55l-101 -641q155 200 398 200q121 0 209 -53q87 -53 125 -158q37 -104 13 -237l-113 -710l-55 2l112 703q11 68 9 113q-2 44 -18 92q-33 93 -109 140q-77 47 -182 47q-113 0 -202 -49t-148 -138q-58 -87 -79 -202l-112 -708h-55zM403 1400l8 50h654
l-8 -50h-654z" />
    <glyph glyph-name="Itilde" unicode="&#x128;" horiz-adv-x="238" 
d="M127 1840l3 7q26 94 70 151t121 57q47 0 75 -20q24 -18 51 -58q6 -8 9 -13q4 -6 10 -14q16 -24 33 -34q18 -12 44 -12q54 0 76 34q29 42 53 114l2 5h53l-2 -7q-26 -95 -71 -151q-42 -57 -121 -57q-45 0 -72 21q-28 19 -58 63q-6 8 -10 14q-3 5 -9 13q-16 22 -31 31
q-17 9 -44 9q-53 0 -75 -34q-28 -41 -51 -114l-2 -5h-54zM85 0l254 1602h59l-251 -1602h-62z" />
    <glyph glyph-name="itilde" unicode="&#x129;" horiz-adv-x="299" 
d="M86 1392l3 7q26 94 70 151q45 57 122 57q48 0 74 -20q24 -18 51 -58q6 -8 9 -13q4 -6 10 -14q16 -24 33 -34q18 -12 44 -12q54 0 76 34q29 42 53 114l2 5h53l-2 -7q-26 -95 -71 -151q-42 -57 -121 -57q-45 0 -72 21q-28 19 -58 63q-6 8 -10 14q-3 5 -9 13q-16 22 -31 31
q-16 9 -44 9q-53 0 -75 -34q-29 -41 -51 -114l-2 -5h-54zM117 0l183 1156h59l-183 -1156h-59z" />
    <glyph glyph-name="Imacron" unicode="&#x12a;" horiz-adv-x="238" 
d="M84 1845l8 50h654l-8 -50h-654zM88 0l254 1602h59l-251 -1602h-62z" />
    <glyph glyph-name="imacron" unicode="&#x12b;" horiz-adv-x="299" 
d="M44 1400l8 50h654l-8 -50h-654zM120 0l183 1156h59l-183 -1156h-59z" />
    <glyph glyph-name="Iogonek" unicode="&#x12e;" horiz-adv-x="238" 
d="M-76 -462q-91 0 -140 46t-35 136q9 57 44 107q37 51 90 85q39 30 96 58q56 29 112 48l251 1584h59l-250 -1598v-3q-80 -34 -105 -46q-61 -27 -108 -61q-52 -33 -90 -78t-45 -96q-11 -65 26 -99q37 -33 103 -33q103 0 167 50l16 -48q-60 -34 -94 -43q-35 -9 -97 -9z" />
    <glyph glyph-name="iogonek" unicode="&#x12f;" horiz-adv-x="299" 
d="M-49 -462q-91 0 -140 46t-35 136q9 55 44 106q37 50 90 86q40 31 98 60t115 48l180 1136h59l-183 -1156q-5 0 -45 -18q-35 -15 -61 -27q-66 -31 -108 -61q-53 -33 -90 -78t-45 -96q-11 -65 26 -99q37 -33 103 -33q103 0 167 50l16 -48q-59 -33 -95 -43q-33 -9 -96 -9z
M176 0q1 0 1 1zM384 1478q-25 0 -40 19q-16 18 -12 43q5 27 26 44q21 18 46 18t40 -18q15 -19 11 -44q-5 -27 -25 -44q-21 -18 -46 -18z" />
    <glyph glyph-name="Idotaccent" unicode="&#x130;" horiz-adv-x="238" 
d="M408 1823q-27 0 -39 17q-14 14 -10 41q4 28 22 43q17 15 45 15q24 0 41 -15q12 -18 8 -43q-4 -27 -22 -43q-17 -15 -45 -15zM88 0l254 1602h59l-251 -1602h-62z" />
    <glyph glyph-name="dotlessi" unicode="&#x131;" horiz-adv-x="299" 
d="M120 0l183 1156h59l-183 -1156h-59z" />
    <glyph glyph-name="Nacute" unicode="&#x143;" horiz-adv-x="1148" 
d="M727 1771l254 344h62l-259 -344h-57zM89 0l253 1599v3h61l617 -1472l235 1472h59l-254 -1602h-61l1 4l-617 1473l-232 -1477h-62z" />
    <glyph glyph-name="nacute" unicode="&#x144;" 
d="M88 0l183 1154h55l-31 -196q155 200 398 200q121 0 209 -53q87 -53 125 -158q37 -104 13 -237l-113 -710l-55 2l112 703q11 68 9 113q-2 44 -18 92q-33 93 -109 140q-77 47 -182 47q-113 0 -202 -49t-148 -138q-58 -87 -79 -202l-112 -708h-55zM591 1326l254 344h62
l-259 -344h-57z" />
    <glyph glyph-name="Ncaron" unicode="&#x147;" horiz-adv-x="1148" 
d="M830 1771l-200 334h63l171 -278l259 278h61l-304 -334h-50zM89 0l253 1599v3h61l617 -1472l235 1472h59l-254 -1602h-61l1 4l-617 1473l-232 -1477h-62z" />
    <glyph glyph-name="ncaron" unicode="&#x148;" 
d="M88 0l183 1154h55l-31 -196q155 200 398 200q121 0 209 -53q87 -53 125 -158q37 -104 13 -237l-113 -710l-55 2l112 703q11 68 9 113q-2 44 -18 92q-33 93 -109 140q-77 47 -182 47q-113 0 -202 -49t-148 -138q-58 -87 -79 -202l-112 -708h-55zM694 1326l-200 334h63
l171 -278l259 278h61l-304 -334h-50z" />
    <glyph glyph-name="napostrophe" unicode="&#x149;" 
d="M88 0l183 1154h55l-31 -196q155 200 398 200q121 0 209 -53q87 -53 125 -158q37 -104 13 -237l-113 -710l-55 2l112 703q11 68 9 113q-2 44 -18 92q-33 93 -109 140q-77 47 -182 47q-113 0 -202 -49t-148 -138q-58 -87 -79 -202l-112 -708h-55z" />
    <glyph glyph-name="Omacron" unicode="&#x14c;" horiz-adv-x="1323" 
d="M658 -22q-185 0 -300 98q-114 97 -153 259q-39 160 -9 346l38 240q33 207 128 367q97 159 241 248q142 88 315 88q190 0 303 -97q115 -98 152 -258q38 -162 8 -349l-38 -240q-33 -205 -127 -366q-95 -159 -240 -248q-143 -88 -317 -88h-1zM668 37q173 0 304 89
q130 88 208 234q77 144 106 320l38 242q14 96 13 177q-1 82 -19 157q-39 150 -144 229q-104 79 -265 79q-171 0 -302 -89q-129 -87 -209 -234t-107 -318l-38 -242q-27 -168 6 -314q31 -146 134 -238t275 -92zM627 1845l8 50h654l-8 -50h-654z" />
    <glyph glyph-name="omacron" unicode="&#x14d;" horiz-adv-x="1009" 
d="M504 -13q-261 0 -333 207q-38 102 -13 239l43 277h-1q21 134 90 237q138 207 401 207q131 0 216 -57q84 -59 117 -159q32 -100 9 -228h-1l-43 -277q-20 -137 -89 -239q-136 -207 -396 -207zM512 44q104 0 195 48q92 48 153 139q29 44 47 92q16 43 27 113l43 269
q11 68 9 113q-1 41 -19 92q-31 91 -108 139t-180 48q-105 0 -196 -47q-89 -48 -153 -140q-29 -44 -47 -92q-16 -45 -27 -113l-43 -269q-11 -69 -9 -113q1 -41 19 -92q33 -93 108 -139q75 -48 181 -48zM400 1400l8 50h654l-8 -50h-654z" />
    <glyph glyph-name="Obreve" unicode="&#x14e;" horiz-adv-x="1323" 
d="M658 -22q-185 0 -300 98q-114 97 -153 259q-39 160 -9 346l38 240q33 207 128 367q97 159 241 248q142 88 315 88q190 0 303 -97q115 -98 152 -258q38 -162 8 -349l-38 -240q-33 -205 -127 -366q-95 -159 -240 -248q-143 -88 -317 -88h-1zM668 37q173 0 304 89
q130 88 208 234q77 144 106 320l38 242q14 96 13 177q-1 82 -19 157q-39 150 -144 229q-104 79 -265 79q-171 0 -302 -89q-129 -87 -209 -234t-107 -318l-38 -242q-27 -168 6 -314q31 -146 134 -238t275 -92zM942 1771q-130 0 -191 73q-65 76 -39 213h50q-19 -109 33 -173
q52 -61 156 -61t174 61q76 65 89 173h50q-20 -137 -107 -213q-85 -73 -215 -73z" />
    <glyph glyph-name="obreve" unicode="&#x14f;" horiz-adv-x="1009" 
d="M504 -13q-261 0 -333 207q-38 102 -13 239l43 277h-1q21 134 90 237q138 207 401 207q131 0 216 -57q84 -59 117 -159q32 -100 9 -228h-1l-43 -277q-20 -137 -89 -239q-136 -207 -396 -207zM512 44q104 0 195 48q92 48 153 139q29 44 47 92q16 43 27 113l43 269
q11 68 9 113q-1 41 -19 92q-31 91 -108 139t-180 48q-105 0 -196 -47q-89 -48 -153 -140q-29 -44 -47 -92q-16 -45 -27 -113l-43 -269q-11 -69 -9 -113q1 -41 19 -92q33 -93 108 -139q75 -48 181 -48zM715 1326q-130 0 -191 73q-64 76 -40 213h50q-19 -109 34 -173
q51 -61 155 -61q105 0 175 61q75 66 88 173h50q-18 -137 -106 -213q-85 -73 -215 -73z" />
    <glyph glyph-name="Ohungarumlaut" unicode="&#x150;" horiz-adv-x="1323" 
d="M658 -22q-185 0 -300 98q-114 97 -153 259q-39 160 -9 346l38 240q33 207 128 367q97 159 241 248q142 88 315 88q190 0 303 -97q115 -98 152 -258q38 -162 8 -349l-38 -240q-33 -205 -127 -366q-95 -159 -240 -248q-143 -88 -317 -88h-1zM668 37q173 0 304 89
q130 88 208 234q77 144 106 320l38 242q14 96 13 177q-1 82 -19 157q-39 150 -144 229q-104 79 -265 79q-171 0 -302 -89q-129 -87 -209 -234t-107 -318l-38 -242q-27 -168 6 -314q31 -146 134 -238t275 -92zM653 1788l254 344h62l-259 -344h-57zM941 1788l254 344h62
l-259 -344h-57z" />
    <glyph glyph-name="ohungarumlaut" unicode="&#x151;" horiz-adv-x="1009" 
d="M504 -13q-261 0 -333 207q-38 102 -13 239l43 277h-1q21 134 90 237q138 207 401 207q131 0 216 -57q84 -59 117 -159q32 -100 9 -228h-1l-43 -277q-20 -137 -89 -239q-136 -207 -396 -207zM512 44q104 0 195 48q92 48 153 139q29 44 47 92q16 43 27 113l43 269
q11 68 9 113q-1 41 -19 92q-31 91 -108 139t-180 48q-105 0 -196 -47q-89 -48 -153 -140q-29 -44 -47 -92q-16 -45 -27 -113l-43 -269q-11 -69 -9 -113q1 -41 19 -92q33 -93 108 -139q75 -48 181 -48zM426 1343l253 344h62l-258 -344h-57zM714 1343l253 344h62l-258 -344
h-57z" />
    <glyph glyph-name="OE" unicode="&#x152;" horiz-adv-x="2218" 
d="M658 -22q-185 0 -300 98q-114 97 -153 259q-39 160 -9 346l38 240q33 207 128 367q97 159 241 248q142 88 315 88q182 0 297 -93t159 -263l53 334h969l-9 -56h-910l-86 -542q-3 -46 -10 -84l-5 -27h648l-11 -61h-646l-122 -771h907l-10 -58l-969 -3l52 331
q-95 -168 -241 -260q-147 -93 -325 -93h-1zM668 37q159 0 292 82q222 137 305 460l70 443q6 129 -17 234q-39 150 -144 229q-104 79 -265 79q-171 0 -302 -89q-129 -87 -209 -234t-107 -318l-38 -242q-27 -168 6 -314q31 -146 134 -238t275 -92z" />
    <glyph glyph-name="oe" unicode="&#x153;" horiz-adv-x="1752" 
d="M1280 -16q-137 0 -230 69t-117 197q-68 -131 -177 -197q-110 -66 -252 -66q-261 0 -333 207q-38 102 -13 239l43 277h-1q21 134 90 237q138 207 401 207q140 0 229 -65q89 -66 114 -196q68 132 178 198q111 66 255 66q123 0 207 -51q85 -51 122 -156q21 -59 23 -118
q1 -55 -17 -167l-9 -58h-776l-26 -168q-12 -71 -9 -114q2 -45 18 -91q33 -94 108 -140q76 -47 181 -47q103 0 194 47q89 46 153 138l40 -38q-70 -104 -174 -156q-104 -54 -222 -54zM512 44q104 0 195 48q92 48 153 139q29 44 47 92q16 43 27 113l43 269q11 68 9 113
q-1 41 -19 92q-31 91 -108 139t-180 48q-105 0 -196 -47q-89 -48 -153 -140q-29 -44 -47 -92q-16 -45 -27 -113l-43 -269q-11 -69 -9 -113q1 -41 19 -92q33 -93 108 -139q75 -48 181 -48zM1027 667h721l6 41q10 70 9 114q-2 45 -18 91q-33 91 -109 139t-180 48t-196 -48
q-93 -49 -152 -139q-31 -47 -48 -92q-16 -45 -27 -113z" />
    <glyph glyph-name="Rcaron" unicode="&#x158;" horiz-adv-x="1254" 
d="M886 1771l-200 334h63l171 -278l259 278h61l-304 -334h-50zM1043 870q-65 -21 -136 -30l253 -840h-63l-255 834q-40 -2 -61 -2h-500l-131 -832h-62l254 1602h561q137 0 247 -37q110 -38 170 -123q60 -86 39 -225q-23 -139 -108 -224q-87 -86 -208 -123zM790 888
q159 0 264 40q101 38 166 113q63 72 80 176q15 95 -22 171q-43 90 -148 124q-103 34 -236 34h-502l-102 -658h500z" />
    <glyph glyph-name="rcaron" unicode="&#x159;" horiz-adv-x="818" 
d="M88 0l183 1154h55l-31 -196q155 200 398 200q129 0 212 -55l-35 -56q-73 50 -186 50t-202 -49t-148 -138q-58 -87 -79 -202l-112 -708h-55zM595 1326l-200 334h63l171 -278l259 278h61l-304 -334h-50z" />
    <glyph glyph-name="Sacute" unicode="&#x15a;" horiz-adv-x="1197" 
d="M599 -22q-125 0 -221 40q-98 39 -160 119t-77 197l59 31l1 -1q3 -85 40 -146q38 -64 105 -110q54 -37 120 -52q63 -16 145 -16q107 0 210 36q105 37 179 112q74 77 92 188q12 79 -11 143q-29 89 -132 150q-109 65 -236 109q-146 51 -256 119q-95 58 -136 146
q-42 88 -14 214q25 123 109 210q81 84 199 127q117 41 239 41t221 -40q98 -40 163 -120q62 -80 73 -198l-57 -30l-1 2q-9 107 -64 180q-56 73 -143 108q-88 36 -199 36q-119 0 -212 -34q-110 -41 -183 -118q-75 -79 -91 -184q-13 -78 10 -144q28 -82 140 -153
q111 -71 227 -113q92 -31 153 -57t105 -54q91 -57 135 -146q40 -80 14 -215q-24 -123 -107 -209q-82 -85 -199 -126q-115 -42 -240 -42zM751 1771l254 344h62l-259 -344h-57z" />
    <glyph glyph-name="sacute" unicode="&#x15b;" horiz-adv-x="1066" 
d="M532 -22q-135 0 -230 43q-96 43 -154 142q-18 36 -22 76l54 24q4 -79 58 -130q54 -53 133 -75q79 -24 162 -24q217 0 344 101q63 58 73 126q9 56 -13 101q-30 59 -123 103q-90 41 -204 73q-141 42 -225 85q-78 39 -123 105q-31 59 -20 132q16 107 96 172q136 121 380 121
q144 0 251 -56q60 -31 104 -85q43 -55 46 -121l-51 -23q-16 117 -117 173q-101 55 -240 55q-103 0 -185 -22q-85 -23 -157 -80q-33 -33 -50 -61q-19 -31 -23 -64q-9 -54 13 -100q10 -22 35 -44q24 -21 68 -50q99 -54 223 -89q78 -22 137 -41q45 -16 90 -38q77 -38 122 -104
q33 -53 20 -133q-9 -55 -33 -98q-24 -44 -62 -74q-139 -120 -377 -120zM616 1326l254 344h62l-259 -344h-57z" />
    <glyph glyph-name="Scircumflex" unicode="&#x15c;" horiz-adv-x="1197" 
d="M599 -22q-125 0 -221 40q-98 39 -160 119t-77 197l59 31l1 -1q3 -85 40 -146q38 -64 105 -110q54 -37 120 -52q63 -16 145 -16q107 0 210 36q105 37 179 112q74 77 92 188q12 79 -11 143q-29 89 -132 150q-109 65 -236 109q-146 51 -256 119q-95 58 -136 146
q-42 88 -14 214q25 123 109 210q81 84 199 127q117 41 239 41t221 -40q98 -40 163 -120q62 -80 73 -198l-57 -30l-1 2q-9 107 -64 180q-56 73 -143 108q-88 36 -199 36q-119 0 -212 -34q-110 -41 -183 -118q-75 -79 -91 -184q-13 -78 10 -144q28 -82 140 -153
q111 -71 227 -113q92 -31 153 -57t105 -54q91 -57 135 -146q40 -80 14 -215q-24 -123 -107 -209q-82 -85 -199 -126q-115 -42 -240 -42zM571 1771l306 334h50l198 -334h-61l-170 278l-260 -278h-63z" />
    <glyph glyph-name="scircumflex" unicode="&#x15d;" horiz-adv-x="1066" 
d="M532 -22q-135 0 -230 43q-96 43 -154 142q-18 36 -22 76l54 24q4 -79 58 -130q54 -53 133 -75q79 -24 162 -24q217 0 344 101q63 58 73 126q9 56 -13 101q-30 59 -123 103q-90 41 -204 73q-141 42 -225 85q-78 39 -123 105q-31 59 -20 132q16 107 96 172q136 121 380 121
q144 0 251 -56q60 -31 104 -85q43 -55 46 -121l-51 -23q-16 117 -117 173q-101 55 -240 55q-103 0 -185 -22q-85 -23 -157 -80q-33 -33 -50 -61q-19 -31 -23 -64q-9 -54 13 -100q10 -22 35 -44q24 -21 68 -50q99 -54 223 -89q78 -22 137 -41q45 -16 90 -38q77 -38 122 -104
q33 -53 20 -133q-9 -55 -33 -98q-24 -44 -62 -74q-139 -120 -377 -120zM436 1326l306 334h50l198 -334h-61l-171 278l-259 -278h-63z" />
    <glyph glyph-name="Scedilla" unicode="&#x15e;" horiz-adv-x="1197" 
d="M533 -459q-77 0 -122 22q-48 23 -80 80l37 43q52 -97 173 -97q66 0 116 38q49 40 59 106q10 65 -27 120q-38 57 -97 93q-15 11 -40 25q-6 4 -9 5q-7 5 -8 5q-166 15 -269 106q-106 92 -125 247l59 31l1 -1q3 -85 40 -146q38 -64 105 -110q54 -37 120 -52q63 -16 145 -16
q107 0 210 36q105 37 179 112q74 77 92 188q12 79 -11 143q-29 89 -132 150q-109 65 -236 109q-146 51 -256 119q-95 58 -136 146q-42 88 -14 214q25 123 109 210q81 84 199 127q117 41 239 41t221 -40q98 -40 163 -120q62 -80 73 -198l-57 -30l-1 2q-9 107 -64 180
q-56 73 -143 108q-88 36 -199 36q-119 0 -212 -34q-110 -41 -183 -118q-75 -79 -91 -184q-13 -78 10 -144q28 -82 140 -153q111 -71 227 -113q92 -31 153 -57t105 -54q91 -57 135 -146q40 -80 14 -215q-22 -118 -100 -202q-78 -83 -187 -126q-108 -44 -228 -49
q162 -88 138 -243q-13 -90 -78 -143q-64 -51 -157 -51z" />
    <glyph glyph-name="scedilla" unicode="&#x15f;" horiz-adv-x="1066" 
d="M466 -466q-77 0 -122 22q-48 23 -80 80l37 43q52 -97 173 -97q66 0 116 38q49 40 59 106q11 64 -27 120q-38 57 -97 93q-15 11 -40 25q-6 4 -9 5q-7 5 -8 5l-12 7q-109 12 -183 55q-75 41 -125 126q-18 36 -22 76l53 24q4 -78 59 -130q54 -53 133 -75q79 -24 162 -24
q217 0 344 101q63 58 73 126q9 56 -13 101q-30 59 -123 103q-90 41 -204 73q-141 42 -225 85q-78 39 -123 105q-31 59 -20 132q16 107 96 172q134 121 379 121q143 0 252 -56q60 -31 104 -85q41 -55 46 -121l-51 -23q-16 118 -118 173q-101 55 -240 55q-103 0 -185 -22
q-86 -23 -156 -80q-35 -33 -50 -61q-18 -30 -24 -64q-8 -55 14 -100q10 -22 35 -44q24 -21 68 -50q99 -54 223 -89q78 -22 137 -41q45 -16 90 -38q77 -38 122 -104q32 -53 20 -133q-9 -55 -33 -98q-24 -44 -63 -74q-132 -114 -355 -119l33 -21q63 -37 95 -97q32 -59 20 -132
q-13 -90 -78 -143q-65 -51 -157 -51z" />
    <glyph glyph-name="Scaron" unicode="&#x160;" horiz-adv-x="1197" 
d="M599 -22q-125 0 -221 40q-98 39 -160 119t-77 197l59 31l1 -1q3 -85 40 -146q38 -64 105 -110q54 -37 120 -52q63 -16 145 -16q107 0 210 36q105 37 179 112q74 77 92 188q12 79 -11 143q-29 89 -132 150q-109 65 -236 109q-146 51 -256 119q-95 58 -136 146
q-42 88 -14 214q25 123 109 210q81 84 199 127q117 41 239 41t221 -40q98 -40 163 -120q62 -80 73 -198l-57 -30l-1 2q-9 107 -64 180q-56 73 -143 108q-88 36 -199 36q-119 0 -212 -34q-110 -41 -183 -118q-75 -79 -91 -184q-13 -78 10 -144q28 -82 140 -153
q111 -71 227 -113q92 -31 153 -57t105 -54q91 -57 135 -146q40 -80 14 -215q-24 -123 -107 -209q-82 -85 -199 -126q-115 -42 -240 -42zM855 1771l-200 334h63l171 -278l259 278h61l-304 -334h-50z" />
    <glyph glyph-name="scaron" unicode="&#x161;" horiz-adv-x="1066" 
d="M532 -22q-135 0 -230 43q-96 43 -154 142q-18 36 -22 76l54 24q4 -79 58 -130q54 -53 133 -75q79 -24 162 -24q217 0 344 101q63 58 73 126q9 56 -13 101q-30 59 -123 103q-90 41 -204 73q-141 42 -225 85q-78 39 -123 105q-31 59 -20 132q16 107 96 172q136 121 380 121
q144 0 251 -56q60 -31 104 -85q43 -55 46 -121l-51 -23q-16 117 -117 173q-101 55 -240 55q-103 0 -185 -22q-85 -23 -157 -80q-33 -33 -50 -61q-19 -31 -23 -64q-9 -54 13 -100q10 -22 35 -44q24 -21 68 -50q99 -54 223 -89q78 -22 137 -41q45 -16 90 -38q77 -38 122 -104
q33 -53 20 -133q-9 -55 -33 -98q-24 -44 -62 -74q-139 -120 -377 -120zM719 1326l-200 334h63l171 -278l259 278h61l-304 -334h-50z" />
    <glyph glyph-name="Tcaron" unicode="&#x164;" horiz-adv-x="1212" 
d="M862 1771l-200 334h63l171 -278l259 278h61l-304 -334h-50zM578 0l244 1542l-490 -1l10 61h1036l-10 -61l-489 1l-244 -1542h-57z" />
    <glyph glyph-name="tcaron" unicode="&#x165;" horiz-adv-x="1017" 
d="M479 -14q-96 0 -141 38q-48 37 -58 104q-11 69 4 165l130 814h-151l10 60h151l69 435h58l-69 -435h267l-10 -60h-267l-128 -814q-18 -114 10 -181q27 -67 130 -67q2 0 26 2l21 1l15 -60q-50 -2 -67 -2zM1003 1340l-45 37q40 4 78 35q37 28 63 71q25 39 31 79q2 10 2 21
q-19 -17 -41 -17q-23 0 -37 20q-13 16 -9 40q5 27 25 44q20 14 44 14q50 0 62 -38q8 -36 2 -72q-10 -70 -58 -136q-47 -63 -117 -98z" />
    <glyph glyph-name="Utilde" unicode="&#x168;" horiz-adv-x="1323" 
d="M658 -22q-185 0 -300 98q-114 97 -153 259q-39 160 -9 346l146 921h57l-146 -921q-27 -168 6 -314q31 -146 134 -238t275 -92q173 0 304 89q130 88 208 234q77 144 106 320l146 922h57l-146 -922q-33 -205 -127 -366q-95 -159 -240 -248q-143 -88 -317 -88h-1zM674 1840
l3 7q26 94 70 151q43 57 121 57q47 0 75 -20q24 -18 51 -58q6 -8 9 -13q4 -6 10 -14q16 -24 33 -34q18 -12 44 -12q54 0 76 34q29 42 53 114l2 5h53l-2 -7q-26 -95 -71 -151q-42 -57 -121 -57q-45 0 -72 21q-28 19 -58 63q-6 8 -10 14q-3 5 -9 13q-16 22 -31 31q-16 9 -44 9
q-53 0 -75 -34q-29 -41 -51 -114l-2 -5h-54z" />
    <glyph glyph-name="utilde" unicode="&#x169;" 
d="M503 -16q-129 0 -214 57q-84 56 -119 159q-34 101 -13 233l115 724l55 -2l-114 -717q-11 -70 -9 -114q1 -41 19 -91q33 -94 108 -140q76 -47 182 -47q110 0 202 50q91 50 150 138q59 90 77 200l114 723h55l-183 -1157h-55l29 185q-80 -103 -178 -151q-102 -50 -221 -50z
M449 1392l3 7q26 94 70 151q45 57 122 57q48 0 74 -20q24 -18 51 -58q6 -8 9 -13q4 -6 10 -14q16 -24 33 -34q18 -12 44 -12q54 0 76 34q29 42 53 114l2 5h53l-2 -7q-26 -95 -71 -151q-42 -57 -121 -57q-45 0 -72 21q-28 19 -58 63q-6 8 -10 14q-3 5 -9 13q-16 22 -31 31
q-17 9 -44 9q-53 0 -75 -34q-28 -41 -51 -114l-2 -5h-54z" />
    <glyph glyph-name="Umacron" unicode="&#x16a;" horiz-adv-x="1323" 
d="M658 -22q-185 0 -300 98q-114 97 -153 259q-39 160 -9 346l146 921h57l-146 -921q-27 -168 6 -314q31 -146 134 -238t275 -92q173 0 304 89q130 88 208 234q77 144 106 320l146 922h57l-146 -922q-33 -205 -127 -366q-95 -159 -240 -248q-143 -88 -317 -88h-1zM627 1845
l8 50h654l-8 -50h-654z" />
    <glyph glyph-name="umacron" unicode="&#x16b;" 
d="M503 -16q-129 0 -214 57q-84 56 -119 159q-34 101 -13 233l115 724l55 -2l-114 -717q-11 -70 -9 -114q1 -41 19 -91q33 -94 108 -140q76 -47 182 -47q110 0 202 50q91 50 150 138q59 90 77 200l114 723h55l-183 -1157h-55l29 185q-80 -103 -178 -151q-102 -50 -221 -50z
M403 1400l8 50h654l-8 -50h-654z" />
    <glyph glyph-name="Ubreve" unicode="&#x16c;" horiz-adv-x="1323" 
d="M658 -22q-185 0 -300 98q-114 97 -153 259q-39 160 -9 346l146 921h57l-146 -921q-27 -168 6 -314q31 -146 134 -238t275 -92q173 0 304 89q130 88 208 234q77 144 106 320l146 922h57l-146 -922q-33 -205 -127 -366q-95 -159 -240 -248q-143 -88 -317 -88h-1zM942 1771
q-130 0 -191 73q-65 76 -39 213h50q-19 -109 33 -173q52 -61 156 -61t174 61q76 65 89 173h50q-20 -137 -107 -213q-85 -73 -215 -73z" />
    <glyph glyph-name="ubreve" unicode="&#x16d;" 
d="M503 -16q-129 0 -214 57q-84 56 -119 159q-34 101 -13 233l115 724l55 -2l-114 -717q-11 -70 -9 -114q1 -41 19 -91q33 -94 108 -140q76 -47 182 -47q110 0 202 50q91 50 150 138q59 90 77 200l114 723h55l-183 -1157h-55l29 185q-80 -103 -178 -151q-102 -50 -221 -50z
M718 1326q-130 0 -191 73q-64 76 -40 213h50q-19 -109 34 -173q51 -61 155 -61q105 0 175 61q75 66 88 173h50q-18 -137 -106 -213q-85 -73 -215 -73z" />
    <glyph glyph-name="Uring" unicode="&#x16e;" horiz-adv-x="1323" 
d="M658 -22q-185 0 -300 98q-114 97 -153 259q-39 160 -9 346l146 921h57l-146 -921q-27 -168 6 -314q31 -146 134 -238t275 -92q173 0 304 89q130 88 208 234q77 144 106 320l146 922h57l-146 -922q-33 -205 -127 -366q-95 -159 -240 -248q-143 -88 -317 -88h-1zM945 1788
q-53 0 -92 24q-40 24 -58 67q-19 41 -10 95q7 51 40 96q31 41 79 66q46 24 100 24q85 0 130 -51q44 -52 31 -135q-13 -84 -74 -135t-146 -51zM953 1838q60 0 104 38q43 37 54 98q9 59 -23 97q-33 37 -92 37t-102 -37q-44 -38 -53 -97q-10 -57 22 -97q31 -39 90 -39z" />
    <glyph glyph-name="uring" unicode="&#x16f;" 
d="M503 -16q-129 0 -214 57q-84 56 -119 159q-34 101 -13 233l115 724l55 -2l-114 -717q-11 -70 -9 -114q1 -41 19 -91q33 -94 108 -140q76 -47 182 -47q110 0 202 50q91 50 150 138q59 90 77 200l114 723h55l-183 -1157h-55l29 185q-80 -103 -178 -151q-102 -50 -221 -50z
M721 1343q-53 0 -93 24t-58 67q-18 41 -10 95q9 52 41 96q32 42 79 66t100 24q86 0 129 -51q44 -52 31 -135q-14 -84 -73 -135q-62 -51 -146 -51zM729 1393q60 0 104 38t53 98q11 59 -23 97q-33 37 -92 37q-58 0 -101 -37t-54 -97q-9 -58 23 -97q31 -39 90 -39z" />
    <glyph glyph-name="Uhungarumlaut" unicode="&#x170;" horiz-adv-x="1323" 
d="M658 -22q-185 0 -300 98q-114 97 -153 259q-39 160 -9 346l146 921h57l-146 -921q-27 -168 6 -314q31 -146 134 -238t275 -92q173 0 304 89q130 88 208 234q77 144 106 320l146 922h57l-146 -922q-33 -205 -127 -366q-95 -159 -240 -248q-143 -88 -317 -88h-1zM653 1788
l254 344h62l-259 -344h-57zM941 1788l254 344h62l-259 -344h-57z" />
    <glyph glyph-name="uhungarumlaut" unicode="&#x171;" 
d="M503 -16q-129 0 -214 57q-84 56 -119 159q-34 101 -13 233l115 724l55 -2l-114 -717q-11 -70 -9 -114q1 -41 19 -91q33 -94 108 -140q76 -47 182 -47q110 0 202 50q91 50 150 138q59 90 77 200l114 723h55l-183 -1157h-55l29 185q-80 -103 -178 -151q-102 -50 -221 -50z
M430 1343l253 344h62l-258 -344h-57zM718 1343l253 344h62l-258 -344h-57z" />
    <glyph glyph-name="Uogonek" unicode="&#x172;" horiz-adv-x="1323" 
d="M565 -469q-91 0 -140 46q-50 47 -35 136q9 56 45 106q35 50 89 86q53 41 127 73q-184 1 -297 101q-111 98 -149 259q-37 159 -9 343l146 921h57l-146 -921q-27 -168 6 -314q31 -146 134 -238t275 -92q173 0 304 89q130 88 208 234q77 144 106 320l146 922h57l-146 -922
q-25 -158 -95 -304q-69 -146 -186 -249q-119 -104 -279 -137l-20 -9q-16 -7 -33.5 -14.5t-27.5 -12t-15 -6.5q-66 -31 -108 -61q-50 -30 -89 -77t-46 -97q-11 -65 26 -99q38 -33 103 -33q103 0 167 50l16 -48q-60 -34 -94 -43q-33 -9 -97 -9z" />
    <glyph glyph-name="uogonek" unicode="&#x173;" 
d="M700 -463q-91 0 -140 46q-50 47 -36 136q10 58 46 107q35 51 89 85q83 63 217 108l26 166q-80 -103 -178 -151q-102 -50 -221 -50q-129 0 -214 57q-84 56 -119 159q-34 101 -13 233l115 724l55 -2l-114 -717q-11 -70 -9 -114q1 -41 19 -91q33 -94 108 -140
q76 -47 182 -47q110 0 202 50q91 50 150 138q59 90 77 200l114 723h55l-183 -1157h-1q-8 -3 -18 -8t-11 -5q-16 -7 -33.5 -14.5t-27.5 -12t-15 -6.5q-61 -27 -108 -61q-50 -30 -89 -77q-38 -46 -47 -97q-10 -65 27 -99q37 -33 103 -33q103 0 167 50l16 -48q-60 -32 -94 -43
q-35 -9 -97 -9z" />
    <glyph glyph-name="Wcircumflex" unicode="&#x174;" horiz-adv-x="1771" 
d="M858 1771l306 334h50l198 -334h-61l-170 278l-260 -278h-63zM468 2l-126 1599h59l116 -1502l588 1502h66l117 -1502l591 1502h58l-635 -1599h-63l-118 1484l-589 -1484h-64z" />
    <glyph glyph-name="wcircumflex" unicode="&#x175;" horiz-adv-x="1709" 
d="M757 1326l306 334h50l198 -334h-61l-171 278l-259 -278h-63zM453 0l-182 1157h57l167 -1088l510 1088h64l169 -1088l510 1088h56l-549 -1157h-60l-170 1074l-510 -1074h-62z" />
    <glyph glyph-name="Ycircumflex" unicode="&#x176;" horiz-adv-x="1247" 
d="M596 1771l306 334h50l198 -334h-61l-170 278l-260 -278h-63zM594 0l129 813l-381 789h70l348 -743l579 743h74l-634 -790l-129 -812h-56z" />
    <glyph glyph-name="ycircumflex" unicode="&#x177;" horiz-adv-x="1135" 
d="M91 -482q-33 0 -78 8v1l24 58h2q35 -7 64 -7q35 0 69 9q117 30 188 97q73 70 130 188l64 130l-248 1155h63l230 -1067l569 1067h62l-582 -1095l-104 -209q-75 -151 -190 -244q-112 -91 -263 -91zM470 1326l306 334h50l198 -334h-61l-171 278l-259 -278h-63z" />
    <glyph glyph-name="Ydieresis" unicode="&#x178;" horiz-adv-x="1247" 
d="M707 1803q-27 0 -39 17q-15 13 -10 41q4 28 22 43q16 15 45 15q25 0 41 -15q12 -18 8 -43q-4 -27 -22 -43q-16 -15 -45 -15zM1113 1803q-26 0 -41 17q-15 13 -10 41q5 27 24 43q20 15 45 15t41 -15q12 -18 8 -43q-4 -27 -22 -43q-16 -15 -45 -15zM594 0l129 813l-381 789
h70l348 -743l579 743h74l-634 -790l-129 -812h-56z" />
    <glyph glyph-name="Zacute" unicode="&#x179;" horiz-adv-x="1146" 
d="M726 1771l254 344h62l-259 -344h-57zM88 0l1115 1544l-869 3l9 55h969l-1114 -1541h870l-10 -58z" />
    <glyph glyph-name="zacute" unicode="&#x17a;" horiz-adv-x="1099" 
d="M632 1326l254 344h62l-259 -344h-57zM88 0l2 1l986 1102h-812l8 52l922 2l-988 -1104h812l-8 -51z" />
    <glyph glyph-name="Zdotaccent" unicode="&#x17b;" horiz-adv-x="1146" 
d="M862 1823q-27 0 -39 17q-14 14 -10 41q4 28 22 43q17 15 45 15q24 0 41 -15q12 -18 8 -43q-4 -27 -22 -43q-17 -15 -45 -15zM88 0l1115 1544l-869 3l9 55h969l-1114 -1541h870l-10 -58z" />
    <glyph glyph-name="zdotaccent" unicode="&#x17c;" horiz-adv-x="1099" 
d="M768 1378q-27 0 -38 17q-16 14 -11 41q4 27 23 43q16 15 45 15q25 0 40 -15q12 -18 8 -43q-4 -28 -21 -43q-18 -15 -46 -15zM88 0l2 1l986 1102h-812l8 52l922 2l-988 -1104h812l-8 -51z" />
    <glyph glyph-name="Zcaron" unicode="&#x17d;" horiz-adv-x="1146" 
d="M829 1771l-200 334h63l171 -278l259 278h61l-304 -334h-50zM88 0l1115 1544l-869 3l9 55h969l-1114 -1541h870l-10 -58z" />
    <glyph glyph-name="zcaron" unicode="&#x17e;" horiz-adv-x="1099" 
d="M736 1326l-200 334h63l171 -278l259 278h61l-304 -334h-50zM88 0l2 1l986 1102h-812l8 52l922 2l-988 -1104h812l-8 -51z" />
    <glyph glyph-name="florin" unicode="&#x192;" horiz-adv-x="1212" 
d="M206 -212q-46 0 -75 8q-26 9 -70 36l29 43q41 -35 125 -35q200 0 289 272l254 808h-346l8 50h354l130 416q45 147 127 235q81 87 218 87q66 0 105 -16q2 -2 7 -3l7 -4q15 -6 21 -12l-14 -49q-64 32 -119 32q-80 0 -149 -42q-69 -44 -102 -120q-28 -55 -46 -110l-129 -414
h370l-8 -50h-378l-255 -812q-105 -320 -353 -320z" />
    <glyph glyph-name="circumflex" unicode="&#x2c6;" horiz-adv-x="548" 
d="M210 1326l306 334h50l198 -334h-61l-171 278l-259 -278h-63z" />
    <glyph glyph-name="caron" unicode="&#x2c7;" horiz-adv-x="550" 
d="M459 1326l-200 334h63l171 -278l259 278h61l-304 -334h-50z" />
    <glyph glyph-name="uni02C9" unicode="&#x2c9;" horiz-adv-x="684" 
d="M293 1722l8 50h654l-8 -50h-654z" />
    <glyph glyph-name="breve" unicode="&#x2d8;" horiz-adv-x="582" 
d="M504 1326q-130 0 -191 73q-64 76 -40 213h50q-19 -109 34 -173q51 -61 155 -61q105 0 175 61q75 66 88 173h50q-18 -137 -106 -213q-85 -73 -215 -73z" />
    <glyph glyph-name="dotaccent" unicode="&#x2d9;" horiz-adv-x="150" 
d="M294 1378q-27 0 -38 17q-16 14 -11 41q4 27 23 43q16 15 45 15q25 0 40 -15q12 -18 8 -43q-4 -28 -21 -43q-18 -15 -46 -15z" />
    <glyph glyph-name="ring" unicode="&#x2da;" horiz-adv-x="438" 
d="M427 1343q-53 0 -93 24t-58 67q-18 41 -10 95q9 52 41 96q32 42 79 66t100 24q86 0 129 -51q44 -52 31 -135q-14 -84 -73 -135q-61 -51 -146 -51zM435 1393q60 0 104 38t53 98q11 59 -23 97q-33 37 -92 37q-58 0 -101 -37t-54 -97q-9 -58 23 -97q31 -39 90 -39z" />
    <glyph glyph-name="ogonek" unicode="&#x2db;" horiz-adv-x="412" 
d="M142 -469q-91 0 -140 46q-50 46 -35 136q9 56 45 106q35 50 89 86q40 31 98 60t115 48h54l1 -19q-8 -3 -18 -7.5t-11 -5.5q-16 -7 -33.5 -14.5t-27.5 -12t-15 -6.5q-61 -27 -108 -61q-50 -30 -89 -77t-46 -97q-11 -65 26 -99q38 -33 103 -33q103 0 167 50l16 -48
q-59 -33 -95 -43q-33 -9 -96 -9z" />
    <glyph glyph-name="tilde" unicode="&#x2dc;" horiz-adv-x="585" 
d="M236 1392l3 7q26 94 70 151q45 57 122 57q48 0 74 -20q24 -18 51 -58q6 -8 9 -13q4 -6 10 -14q16 -24 33 -34q18 -12 44 -12q54 0 76 34q29 42 53 114l2 5h53l-2 -7q-26 -95 -71 -151q-42 -57 -121 -57q-45 0 -72 21q-28 19 -58 63q-6 8 -10 14q-3 5 -9 13q-16 22 -31 31
q-16 9 -44 9q-53 0 -75 -34q-29 -41 -51 -114l-2 -5h-54z" />
    <glyph glyph-name="hungarumlaut" unicode="&#x2dd;" horiz-adv-x="582" 
d="M224 1343l253 344h62l-258 -344h-57zM512 1343l253 344h62l-258 -344h-57z" />
    <glyph glyph-name="uni0326" unicode="&#x326;" horiz-adv-x="0" 
d="M-333 -374l176 374h61l-188 -374h-49z" />
    <glyph glyph-name="Wgrave" unicode="&#x1e80;" horiz-adv-x="1771" 
d="M1239 1754l-152 344h64l143 -344h-55zM468 2l-126 1599h59l116 -1502l588 1502h66l117 -1502l591 1502h58l-635 -1599h-63l-118 1484l-589 -1484h-64z" />
    <glyph glyph-name="wgrave" unicode="&#x1e81;" horiz-adv-x="1709" 
d="M1137 1309l-151 344h64l142 -344h-55zM453 0l-182 1157h57l167 -1088l510 1088h64l169 -1088l510 1088h56l-549 -1157h-60l-170 1074l-510 -1074h-62z" />
    <glyph glyph-name="Wacute" unicode="&#x1e82;" horiz-adv-x="1771" 
d="M1038 1771l254 344h62l-259 -344h-57zM468 2l-126 1599h59l116 -1502l588 1502h66l117 -1502l591 1502h58l-635 -1599h-63l-118 1484l-589 -1484h-64z" />
    <glyph glyph-name="wacute" unicode="&#x1e83;" horiz-adv-x="1709" 
d="M937 1326l254 344h62l-259 -344h-57zM453 0l-182 1157h57l167 -1088l510 1088h64l169 -1088l510 1088h56l-549 -1157h-60l-170 1074l-510 -1074h-62z" />
    <glyph glyph-name="Wdieresis" unicode="&#x1e84;" horiz-adv-x="1771" 
d="M969 1803q-27 0 -39 17q-15 13 -10 41q4 28 22 43q16 15 45 15q25 0 41 -15q12 -18 8 -43q-4 -27 -22 -43q-16 -15 -45 -15zM1375 1803q-26 0 -41 17q-15 13 -10 41q5 27 24 43q20 15 45 15t41 -15q12 -18 8 -43q-4 -27 -22 -43q-16 -15 -45 -15zM468 2l-126 1599h59
l116 -1502l588 1502h66l117 -1502l591 1502h58l-635 -1599h-63l-118 1484l-589 -1484h-64z" />
    <glyph glyph-name="wdieresis" unicode="&#x1e85;" horiz-adv-x="1709" 
d="M867 1358q-27 0 -38 17q-16 14 -11 41q4 27 22 43q16 15 45 15q25 0 41 -15q12 -18 8 -43q-4 -28 -21 -43q-18 -15 -46 -15zM1273 1358q-26 0 -40 17q-16 14 -11 41t24 43q20 15 45 15q24 0 41 -15q12 -18 8 -43q-4 -28 -21 -43q-18 -15 -46 -15zM453 0l-182 1157h57
l167 -1088l510 1088h64l169 -1088l510 1088h56l-549 -1157h-60l-170 1074l-510 -1074h-62z" />
    <glyph glyph-name="endash" unicode="&#x2013;" horiz-adv-x="1236" 
d="M203 726l9 56h1060l-9 -56h-1060z" />
    <glyph glyph-name="emdash" unicode="&#x2014;" horiz-adv-x="1962" 
d="M203 726l9 56h1786l-9 -56h-1786z" />
    <glyph glyph-name="quoteleft" unicode="&#x2018;" horiz-adv-x="367" 
d="M385 1346q-40 0 -57 32q-16 28 -9 78q10 71 60 136q49 64 117 98l45 -37q-38 -6 -76 -35t-64 -70q-26 -42 -32 -78q-2 -14 -1 -22q16 16 40 16q25 0 38 -16q14 -16 9 -42t-23 -41q-22 -19 -47 -19z" />
    <glyph glyph-name="quoteright" unicode="&#x2019;" horiz-adv-x="365" 
d="M351 1340l-45 37q40 4 78 35q37 28 63 71q25 39 31 79q2 10 2 21q-19 -17 -41 -17q-23 0 -37 20q-13 16 -9 40q5 27 25 44q20 14 44 14q50 0 62 -38q8 -36 2 -72q-10 -70 -58 -136q-47 -63 -117 -98z" />
    <glyph glyph-name="quotesinglbase" unicode="&#x201a;" horiz-adv-x="363" 
d="M96 -248l-42 35q37 10 77 40q37 28 63 68q25 40 31 79q1 4 -1 21q-17 -17 -40 -17q-28 0 -37 20q-14 18 -10 40q5 25 27 44q20 14 44 14q42 0 57 -32q15 -34 8 -78q-12 -73 -59 -137q-48 -63 -118 -97z" />
    <glyph glyph-name="quotedblleft" unicode="&#x201c;" horiz-adv-x="583" 
d="M601 1346q-40 0 -57 32q-16 28 -9 78q10 71 60 136q49 64 117 98l45 -37q-38 -6 -76 -35t-64 -70q-26 -42 -32 -78q-2 -14 -1 -22q16 16 40 16q25 0 38 -16q14 -16 9 -42t-23 -41q-22 -19 -47 -19zM385 1346q-40 0 -57 32q-16 28 -9 78q10 71 60 136q49 64 117 98l45 -37
q-38 -6 -76 -35t-64 -70q-26 -42 -32 -78q-2 -14 -1 -22q16 16 40 16q25 0 38 -16q14 -16 9 -42t-23 -41q-22 -19 -47 -19z" />
    <glyph glyph-name="quotedblright" unicode="&#x201d;" horiz-adv-x="581" 
d="M567 1340l-45 37q40 4 78 35q37 28 63 71q25 39 31 79q2 10 2 21q-19 -17 -41 -17q-23 0 -37 20q-13 16 -9 40q5 27 25 44q20 14 44 14q50 0 62 -38q8 -36 2 -72q-10 -70 -58 -136q-47 -63 -117 -98zM351 1340l-45 37q40 4 78 35q37 28 63 71q25 39 31 79q2 10 2 21
q-19 -17 -41 -17q-23 0 -37 20q-13 16 -9 40q5 27 25 44q20 14 44 14q50 0 62 -38q8 -36 2 -72q-10 -70 -58 -136q-47 -63 -117 -98z" />
    <glyph glyph-name="quotedblbase" unicode="&#x201e;" horiz-adv-x="579" 
d="M337 -88l-41 35q38 10 77 40q36 27 62 69q25 38 31 78q2 8 0 21q-17 -17 -41 -17q-28 0 -37 20q-13 16 -10 40q5 25 27 44q20 14 45 14q42 0 57 -32q14 -35 7 -78q-12 -73 -59 -137q-48 -63 -118 -97zM121 -88l-41 35q38 10 77 40q36 27 62 69q25 38 31 78q2 8 0 21
q-17 -17 -41 -17q-28 0 -37 20q-13 16 -10 40q5 25 27 44q20 14 45 14q42 0 57 -32q14 -35 7 -78q-12 -73 -59 -137q-48 -63 -118 -97z" />
    <glyph glyph-name="dagger" unicode="&#x2020;" horiz-adv-x="1100" 
d="M500 -150l188 1184h-436l7 48h436l73 460h54l-73 -460h434l-7 -48h-434l-188 -1184h-54z" />
    <glyph glyph-name="daggerdbl" unicode="&#x2021;" horiz-adv-x="1100" 
d="M500 -150l73 460h-436l8 48h436l107 676h-436l7 48h436l73 460h54l-73 -460h434l-7 -48h-434l-107 -676h434l-8 -48h-434l-73 -460h-54z" />
    <glyph glyph-name="bullet" unicode="&#x2022;" horiz-adv-x="460" 
d="M326 604q-63 0 -96 42q-34 37 -24 100q11 63 56 103q46 39 109 39q61 0 96 -38q33 -44 23 -104q-10 -62 -54 -102q-49 -40 -110 -40z" />
    <glyph glyph-name="ellipsis" unicode="&#x2026;" horiz-adv-x="1073" 
d="M920 -24q-25 0 -40 18q-16 19 -12 44q5 27 26 44q21 18 46 18t40 -18q15 -19 11 -44q-5 -27 -25 -44q-21 -18 -46 -18zM146 -25q-25 0 -40 18q-16 19 -12 44q5 27 26 44q21 18 46 18t40 -18q15 -19 11 -44q-5 -27 -25 -44q-21 -18 -46 -18zM530 -24q-25 0 -40 18
q-16 19 -12 44q5 27 26 44q21 18 46 18t40 -18q15 -19 11 -44q-5 -27 -25 -44q-21 -18 -46 -18z" />
    <glyph glyph-name="perthousand" unicode="&#x2030;" horiz-adv-x="2464" 
d="M529 790q-82 0 -135 32q-85 42 -112 135q-28 91 -10 205q17 104 64 188q47 86 127 139t185 53q84 0 137 -32q86 -53 111 -139q25 -88 6 -209q-24 -151 -115 -260q-51 -56 -111 -81q-61 -31 -147 -31zM537 840q88 0 153 44q66 45 104 116q39 76 52 162q16 95 -4 179
q-19 79 -88 125q-47 26 -114 26q-64 0 -124 -26q-52 -29 -92 -76q-36 -44 -61 -105q-26 -67 -35 -123q-15 -96 6 -174t89 -122q50 -26 114 -26zM1295 70q-84 0 -137 32q-85 49 -112 139q-29 89 -9 205q17 104 64 188q47 83 128 137q79 51 185 51q84 0 137 -32
q158 -91 118 -344q-14 -78 -39 -139q-25 -62 -75 -121q-107 -116 -260 -116zM1303 120q131 0 214 102q39 40 63 101q22 60 33 123q13 84 -1 161q-15 72 -65 119q-50 46 -141 46q-64 0 -124 -26q-82 -43 -129 -124q-47 -80 -62 -176q-17 -96 6 -176q23 -81 90 -124
q50 -26 116 -26zM2073 70q-84 0 -137 32q-85 49 -112 139q-29 89 -9 205q17 104 64 188q47 83 128 137q79 51 185 51q84 0 137 -32q158 -91 118 -344q-14 -78 -39 -139q-25 -62 -75 -121q-107 -116 -260 -116zM2081 120q131 0 214 102q39 40 63 101q22 60 33 123
q13 84 -1 161q-15 72 -65 119q-50 46 -141 46q-62 0 -122 -26q-82 -44 -129 -123q-47 -82 -62 -177q-15 -96 7 -175q23 -82 89 -125q50 -26 114 -26zM321 70l1229 1472h66l-1229 -1472h-66z" />
    <glyph glyph-name="guilsinglleft" unicode="&#x2039;" horiz-adv-x="570" 
d="M458 302l-252 442l392 440h72l-396 -440l256 -442h-72z" />
    <glyph glyph-name="guilsinglright" unicode="&#x203a;" horiz-adv-x="572" 
d="M136 302l398 442l-258 440h72l254 -440l-394 -442h-72z" />
    <glyph glyph-name="fraction" unicode="&#x2044;" horiz-adv-x="964" 
d="M159 131l-45 33l940 1278l45 -32z" />
    <glyph glyph-name="uni207B" unicode="&#x207b;" horiz-adv-x="746" 
d="M282 1226l8 52h570l-8 -52h-570z" />
    <glyph glyph-name="uni207C" unicode="&#x207c;" horiz-adv-x="778" 
d="M302 1348l7 50h602l-7 -50h-602zM263 1106l8 50h602l-8 -50h-602z" />
    <glyph glyph-name="uni208B" unicode="&#x208b;" horiz-adv-x="746" 
d="M100 78l9 52h570l-9 -52h-570z" />
    <glyph glyph-name="uni208C" unicode="&#x208c;" horiz-adv-x="778" 
d="M120 200l8 50h602l-8 -50h-602zM81 -42l8 50h602l-8 -50h-602z" />
    <glyph glyph-name="Euro" unicode="&#x20ac;" horiz-adv-x="1434" 
d="M868 48q-126 0 -223 44q-138 71 -199 209q-63 137 -58 315h-202l8 52h197q3 40 4 58q5 49 9 80q6 38 17 82q4 16 8.5 36t5.5 22h-197l8 52h202q46 162 137 290q88 127 222 202q134 74 299 74q180 0 284 -79q106 -80 134 -247l-48 -36q-52 312 -378 312q-147 0 -265 -67
q-119 -67 -201 -183q-80 -114 -128 -266h652l-44 -52h-622l-15 -58q-5 -23 -15 -82q-10 -60 -11 -80l-3 -58h570l-44 -52h-528q-1 -93 23 -194q33 -152 140 -238t269 -86q82 0 157 26q70 24 143 80q69 56 115 123q45 64 81 155l47 -24q-47 -120 -128 -211q-83 -94 -192 -146
q-111 -53 -231 -53z" />
    <glyph glyph-name="trademark" unicode="&#x2122;" horiz-adv-x="1502" 
d="M392 758v747h-238v49h522v-49h-236v-747h-48zM701 758v796h49l265 -729l269 729h46v-796h-49v647l-242 -647h-49l-240 645l1 -645h-50z" />
    <glyph glyph-name="uni2126" unicode="&#x2126;" horiz-adv-x="1522" 
d="M99 70l8 50h407q-183 103 -257 289t-36 419q24 148 86 283q61 133 167 237q106 111 245 164q135 52 291 52q162 0 279 -54q182 -95 246 -271q65 -179 28 -411q-37 -238 -167 -420q-130 -183 -351 -288h408l-8 -50h-532l7 46q253 88 401 271q148 182 188 441
q31 192 -13 349q-45 155 -169 246t-325 91q-193 0 -347 -89q-151 -87 -250 -244q-96 -154 -128 -353q-41 -259 49 -441q88 -182 312 -271l-7 -46h-532z" />
    <glyph glyph-name="arrowleft" unicode="&#x2190;" horiz-adv-x="1668" 
d="M813 108q-64 113 -129 206q-214 287 -469 486l2 16q240 154 438 321q202 171 380 371l46 -34q-401 -431 -749 -641l194 3h1186l-8 -56h-1186l-195 5q78 -62 140 -119q116 -112 213 -239q96 -124 194 -285z" />
    <glyph glyph-name="arrowup" unicode="&#x2191;" horiz-adv-x="1578" 
d="M773 70l188 1188l34 194q-60 -71 -141 -154q-129 -132 -277 -252q-145 -117 -328 -242l-26 50q223 145 428 326q203 179 376 382h18q109 -204 257 -383q143 -177 323 -325l-42 -50q-83 72 -160 150q-247 239 -380 498l-28 -194l-188 -1188h-54z" />
    <glyph glyph-name="arrowright" unicode="&#x2192;" horiz-adv-x="1668" 
d="M889 108l-47 34q200 208 380 369q176 155 370 274l-194 -5h-1186l8 56h1186l195 -3q-156 118 -288 280q-137 166 -260 361l58 34q223 -381 598 -692l-2 -16q-459 -288 -818 -692z" />
    <glyph glyph-name="arrowdown" unicode="&#x2193;" horiz-adv-x="1578" 
d="M790 50q-113 210 -258 389q-149 181 -324 319l42 52q190 -174 321 -324q132 -153 219 -326l28 196l188 1186h54l-188 -1186l-34 -196q128 154 333 336q151 122 203 162q25 19 95 70q68 48 79 57l36 25l26 -52q-458 -302 -804 -708h-16z" />
    <glyph glyph-name="arrowboth" unicode="&#x2194;" horiz-adv-x="2168" 
d="M817 148q-224 401 -596 692l3 16q231 145 432 317q207 176 383 375l47 -34q-177 -194 -367 -359q-196 -170 -379 -279h1767q-283 211 -543 638l55 34q227 -400 597 -692l-3 -16q-456 -287 -816 -692l-44 34q194 206 377 367q178 157 368 271h-1767q76 -56 144 -121
q62 -61 145 -155q116 -151 134 -176q48 -66 121 -186z" />
    <glyph glyph-name="arrowupdn" unicode="&#x2195;" horiz-adv-x="1578" 
d="M750 -190q-225 418 -580 706l42 52q100 -88 162 -150q82 -85 149 -162q142 -174 226 -335l281 1769q-146 -177 -328 -329q-184 -156 -414 -315l-26 50q224 146 426 324q206 182 377 382h18q114 -207 259 -383q145 -178 322 -323l-42 -50q-133 123 -218 210
q-86 87 -172 200q-82 107 -148 235l-281 -1770q152 179 339 340q194 167 404 307l26 -52q-231 -151 -422 -320q-199 -177 -382 -386h-18z" />
    <glyph glyph-name="partialdiff" unicode="&#x2202;" horiz-adv-x="1184" 
d="M576 48q-139 0 -238 60q-101 60 -144 169q-45 108 -22 251q21 139 97 244q75 106 191 168q116 60 256 60q162 0 278 -64q118 -65 161 -199l5 19l8 50q22 140 23 262q1 130 -33 226q-37 96 -126 160q-82 60 -246 60q-212 0 -333 -154l-36 38q154 166 377 166
q177 0 272 -64q100 -67 142 -179q41 -112 41 -237q-2 -130 -25 -278q-17 -98 -36 -176q-42 -162 -121 -291q-80 -132 -203 -211q-125 -80 -288 -80zM582 98q111 0 208 44q135 68 218 199q83 129 124 293q-25 160 -138 238q-112 78 -288 78q-129 0 -242 -65
q-114 -66 -177 -185q-44 -75 -59 -168q-15 -94 6 -168q15 -79 65 -140q49 -62 123 -93q74 -33 160 -33z" />
    <glyph glyph-name="uni2206" unicode="&#x2206;" horiz-adv-x="1404" 
d="M99 70l7 42l810 1430h64l354 -1430l-7 -42h-1228zM171 120h1100l-335 1360z" />
    <glyph glyph-name="product" unicode="&#x220f;" horiz-adv-x="1226" 
d="M54 -212l278 1754h1050l-278 -1754h-56l270 1704h-940l-270 -1704h-54z" />
    <glyph glyph-name="summation" unicode="&#x2211;" horiz-adv-x="1288" 
d="M54 -212l8 46l895 854l-632 810l7 44h1112l-8 -50h-1032l622 -798l-2 -12l-887 -842h1038l-9 -52h-1112z" />
    <glyph glyph-name="minus" unicode="&#x2212;" horiz-adv-x="1186" 
d="M207 750l8 50h1010l-8 -50h-1010z" />
    <glyph glyph-name="uni2215" unicode="&#x2215;" horiz-adv-x="1006" 
d="M85 -18l1020 1626l70 16l-1025 -1634z" />
    <glyph glyph-name="uni2219" unicode="&#x2219;" horiz-adv-x="294" 
d="M271 790q-27 0 -39 18q-14 16 -9 42q9 58 67 58q24 0 40 -14q15 -19 11 -44q-11 -60 -70 -60z" />
    <glyph glyph-name="radical" unicode="&#x221a;" horiz-adv-x="1456" 
d="M623 70l-176 742h-230l8 50h268l158 -664l8 -54l950 1746h58l-994 -1820h-50z" />
    <glyph glyph-name="infinity" unicode="&#x221e;" horiz-adv-x="1838" 
d="M469 312q-109 0 -173 63q-65 64 -86 163q-21 98 -4 206q16 107 69 208q50 99 136 164q85 64 196 64q42 0 81 -4q28 -4 63 -18q29 -15 55 -38q26 -26 51 -55l32 -46l10 -13q65 -90 144 -215q11 9 27 27l68 69l37 37l28 28l32 31l17 17l14 13q30 28 45 43q55 49 95 74
q41 26 88 38q46 12 113 12q111 0 175 -63q65 -63 84 -163q19 -98 2 -210q-16 -106 -68 -206q-51 -100 -136 -162q-85 -64 -195 -64q-49 0 -83 6q-36 3 -63 16q-30 17 -53 39q-27 25 -52 53q-16 19 -77 107q-57 82 -114 169q-160 -165 -271 -270l-19 -18q-4 -3 -11 -9
l-20 -16t-14 -11l-5 -4q-26 -20 -64 -37q-31 -16 -71 -19q-34 -6 -83 -6zM483 362q79 0 132 24q45 28 96 72l16 16q8 6 18 16l91 90l42 42l23 24l23 23l30 29q22 25 46 46q-57 89 -112 168l-34 48q-36 54 -63 86q-29 35 -64 60q-48 22 -122 22q-93 0 -166 -58
q-76 -60 -118 -146q-46 -90 -59 -180q-17 -106 8 -200q25 -97 95 -146q43 -36 118 -36zM1475 362q127 0 231 128q42 56 69 122q27 69 37 132q22 135 -25 257q-29 58 -74 93q-49 34 -120 34q-73 0 -137 -32q-62 -31 -125 -94q-38 -30 -110 -102q-34 -32 -151 -152
q150 -219 193 -276q33 -44 58 -65q29 -24 63 -34q38 -11 91 -11zM1038 779h1v2z" />
    <glyph glyph-name="integral" unicode="&#x222b;" horiz-adv-x="1014" 
d="M220 -212q-99 0 -157 52l28 42q57 -42 130 -42q123 0 191 60q67 62 86 186l217 1374q22 144 106 222q82 76 227 76q96 0 149 -44l-27 -48q-37 40 -130 40q-117 0 -184 -64q-68 -65 -87 -182l-217 -1374q-24 -147 -107 -223q-84 -75 -225 -75z" />
    <glyph glyph-name="approxequal" unicode="&#x2248;" horiz-adv-x="1128" 
d="M940 874q-55 0 -103 18t-117 54q-53 28 -110 52q-51 22 -116 22q-74 0 -127 -30q-71 -39 -139 -106l11 72q72 57 131 86q57 28 131 28q45 0 82 -10q39 -11 80 -30l60 -30l11 -4q20 -12 63 -28q23 -12 55 -24q43 -20 98 -20q118 0 258 134l-12 -72q-134 -112 -256 -112z
M875 464q-38 0 -76 11q-30 8 -77 31q-49 20 -67 28q-37 24 -67 34q-84 42 -159 42q-74 0 -127 -32q-65 -37 -139 -102l11 70q69 61 126 85q60 29 137 29q54 0 107 -18q31 -13 56 -24q17 -10 30 -14l39 -18q66 -35 115 -54q52 -20 101 -20q119 0 258 138l-11 -72
q-134 -114 -257 -114z" />
    <glyph glyph-name="notequal" unicode="&#x2260;" horiz-adv-x="1142" 
d="M325 232l181 286h-336l8 52h362l253 398h-552l8 50h576l176 276h58l-172 -276h328l-8 -50h-354l-253 -398h544l-8 -52h-568l-181 -286h-62z" />
    <glyph glyph-name="lessequal" unicode="&#x2264;" horiz-adv-x="1178" 
d="M1139 310l-913 560l8 54l1087 536l-10 -62l-1021 -502l859 -522zM99 70l8 50h1002l-8 -50h-1002z" />
    <glyph glyph-name="greaterequal" unicode="&#x2265;" horiz-adv-x="1178" 
d="M137 310l10 64l1023 522l-861 502l10 62l917 -536l-8 -54zM99 70l8 50h1002l-8 -50h-1002z" />
    <glyph glyph-name="uniF8FF" unicode="&#xf8ff;" horiz-adv-x="2420" 
d="M134 -594l-12 2l-24 102q0 2 10 2h12l14 -68l2 7q2 10 6 23q10 23 10 32l2 6h24l10 -34l8 -34q2 0 4 11q0 3 1.5 11t2.5 12t2.5 9t3 12t2.5 11q0 2 10 2q12 0 12 -2q-2 -9 -10 -42q-1 -6 -3.5 -17t-4.5 -16q-3 -11 -6 -23v-6h-24v6q-2 2 -5 13q0 1 -2.5 10.5t-4.5 14.5
l-8 32l-10 -30l-10 -46h-12zM292 -594q-2 2 -4 2q-1 5 -4 16q-2 6 -4.5 19.5t-3.5 15.5t-3.5 15.5t-4.5 19.5l-4 16q0 2 10 2h11q1 0 1 -2q2 -6 2 -10q4 -11 4 -22l8 -34l18 68h14h12q2 0 2 -2l10 -36l6 -34l16 70q0 2 10 2q12 0 12 -2q-2 -8 -2 -14q0 -1 -1.5 -7.5
t-2.5 -10.5q-1 -9 -6 -20l-14 -52h-10l-12 2l-10 38q-1 3 -2.5 8t-1.5 7q-1 3 -2 7l-2 4q0 4 -2 12q-2 -8 -2 -12q-2 -6 -3 -11q-2 -10 -5 -15l-10 -40h-20zM466 -594q-11 0 -12 4q-1 5 -4 16q-2 6 -4.5 19.5t-3.5 15.5t-3.5 15.5t-4.5 19.5l-4 16h22l6 -34l10 -34q1 4 3 11
t6 23t6 23l3 11h24l10 -34q6 -32 10 -36q0 2 2 10q-1 4 4 26l8 34h10q12 0 12 -2q-2 -8 -2 -14q0 -1 -1.5 -7.5t-2.5 -10.5q-1 -9 -6 -20l-14 -50l-10 -2h-12l-10 40q-1 5 -3.5 14.5t-3.5 12.5q-3 11 -3 9l-20 -74zM668 -592v102q0 2 7 2h29h36v-18h-50v-24h42v-18h-42v-22
l-2 -22h-20zM830 -596q-32 0 -42 28q-6 10 -6 26q0 17 4 28q4 10 12 16q6 5 18 10q6 2 18 2q36 0 46 -36q4 -20 0 -36q-4 -17 -18 -28q-13 -10 -32 -10zM832 -576q20 0 26 20q2 6 1 14q-1 7 -1 16q0 10 -12 18q-7 4 -12 4q-14 0 -24 -10q-3 -3 -5 -10q-1 -4 -1 -18
q0 -15 8 -26q8 -8 20 -8zM654 -98q40 0 66 24q27 25 28 66q2 26 -14 46q-12 15 -13 16q-14 14 -17 16q-17 10 -50 10q-23 0 -46 -10q-21 -13 -34 -32q-12 -23 -12 -46q0 -26 12 -46q12 -23 33 -34q20 -10 47 -10zM656 -60q-22 0 -35 16t-13 36q0 10 6 26q3 4 9 10q1 2 4 4
t5 4q12 6 24 6t24 -6q10 -6 16 -18q0 -3 4 -13q2 -6 2 -13q0 -10 -1 -13q-3 -10 -5 -13q-11 -14 -16 -18q-18 -8 -24 -8zM1162 -594q-2 2 -4 2q2 4 5 12q1 3 5 12.5t6 15.5q8 22 13 33q1 2 11 29q0 2 10 2h12l42 -104q-2 0 -4 -2h-6l-14 2l-8 24h-40l-10 -24l-10 -2h-8z
M1196 -550h26q0 2 -6 18q-4 7 -4 10l-2 6q-2 -3 -6 -8zM1340 -594q-17 0 -22 4q-12 4 -16 16l-4 8q0 1 -1 3t-1 3h2q1 1 3 1.5t4 0.5q10 2 11 2l2 -4q4 -16 22 -16q4 0 12 3t8 9q0 8 -5 11q-3 2 -21 7q-21 5 -26 10q-10 12 -6 28q4 15 24 20q0 2 16 2q17 -1 26 -10
q10 -6 10 -20v-4h-22v4q-5 14 -16 14q-2 0 -3 -1t-3 -1q-14 -6 -12 -14q0 -2 22 -8q21 -7 30 -16q7 -7 8 -18q0 -17 -10 -24q-8 -8 -15 -9q-5 -1 -17 -1zM1662 -594q-32 0 -48 34q-5 8 -3 19q2 14 3 19q6 26 32 34q3 0 6 1t8 1q20 0 32 -12q4 -4 7 -10t3 -8q-3 -1 -10 -4
l-8 -2q-3 0 -4 4q-6 14 -20 14t-20 -10q-7 -12 -8 -20q0 -9 1 -15q2 -10 5 -13q5 -14 20 -14q16 0 22 16l2 6l10 -2q10 -4 10 -5v-1q-1 -2 -1.5 -4t-0.5 -4q-14 -24 -38 -24zM1742 -594l-2 2q1 4 4 12q2 4 5 13.5t5 14.5q8 22 13 33q1 2 11 29q0 2 12 2h12l40 -104
q-2 0 -2 -2h-8l-12 2l-10 24h-40l-8 -24l-12 -2h-8zM1776 -550h28q0 2 -6 18q-4 7 -4 10l-2 6q-1 1 -4 -4q-1 -1 -2 -4zM1348 -96q20 0 38 6q8 4 15 6q6 1 11 12q0 2 1.5 6t2.5 7q2 10 2 15q0 7 -2 17q-1 3 -2 7l-2 4q-5 8 -11 12q-9 5 -11 6q-4 2 -12 3q-12 2 -18 5
q-12 6 -18 6q-4 0 -9 6q-5 7 -5 10q0 12 16 12q9 0 14 -1q10 -2 14 -5q8 -5 15 -7q11 -3 13 -5l18 36q-12 8 -34 14q-24 6 -36 6q-13 0 -34 -8q-2 -1 -4.5 -2.5t-5.5 -2.5t-4 -2q-5 -2 -10 -11q-8 -11 -8 -30q0 -3 2 -13q1 -6 6 -11q6 -7 8 -9q6 -4 10 -7q5 -4 14 -4t18 -4
q2 0 4 -1l4 -2q4 -1 8 -5l10 -6q6 -6 6 -8q0 -10 -8 -13t-16 -3q-10 0 -31 8q-18 7 -29 18l-18 -34q18 -15 38 -20q5 -1 19 -5q11 -3 21 -3zM1996 -594q-12 0 -25 7t-17 17q-14 32 0 60q8 10 13 14q8 7 17 8q2 2 16 2q8 0 17 -3q8 -3 13 -11q2 -2 8 -10q4 -6 2 -6
q-3 -3 -11 -4q-3 0 -7 -1q-3 -1 -4 -1q-1 1 -2 4q-2 12 -18 12t-21 -11q-5 -12 -5 -25q0 -12 5 -24q4 -10 21 -10q16 0 20 16q0 4 2 4v2l12 -4l6 -2v-4q0 -2 -2 -8q0 -2 -2 -4t-2 -4q-14 -14 -36 -14zM2132 -594q-24 0 -37 15q-13 14 -13 37q0 16 9 33t25 21q29 0 47 -7
q19 -7 19 -45q0 -23 -11 -39q-11 -15 -39 -15zM2132 -576q10 0 14 4q14 6 14 30q0 26 -14 34q-3 1 -5 3q-1 1 -7 1q-18 0 -23 -11q-5 -12 -5 -27t4 -24q4 -10 22 -10zM1750 -98q19 0 38 10q20 11 32 24l-26 24q-7 -5 -22 -12q-8 -6 -22 -6q-9 0 -22 8q-4 3 -10 7q-2 2 -8 11
q-4 7 -4 26q0 17 4 26q1 4 18 16q10 6 22 6q14 0 22 -6q16 -6 22 -16l24 30q-8 10 -13 14q-8 7 -15 8q-5 1 -20 5q-10 3 -20 3q-39 0 -65 -23q-25 -22 -25 -65q0 -29 10 -46q16 -24 34 -34q17 -10 46 -10zM2228 -594v106h32l8 -34l6 -24q1 -2 2.5 -5.5t1.5 -4.5l8 30
q10 29 10 36v2h34v-106h-22v80l-8 -36q-1 -6 -3.5 -14.5t-3.5 -12.5q-3 -10 -3 -13v-4h-12l-10 2l-8 38l-12 38v-76l-10 -2h-10zM426 202h254v442h886v236h-886v634h886v226h-1148v-1528q0 -2 2 -4q0 -6 6 -6zM88 -370v2408h2244v-2408h-2244zM852 202h1146v1538h-262v-430
h-884v-244h884v-626h-884v-238zM426 -92h44v60h76v34h-76v40h82v34h-126v-168zM770 -92h42v100l78 -100h40v168h-42v-100l-78 100h-40v-168zM1000 -92h44v134h50v34h-148v-34h54v-134zM1076 -92h46l12 28h74l12 -28h48l-72 168h-46zM1478 -92h44v134h52v34h-148v-34h52v-134
zM1592 -92h44v168h-44v-168zM1818 -92h48l10 28h78l8 -28h48l-72 168h-46zM1148 -30l24 62l22 -62h-46zM1890 -30l24 62l22 -62h-46zM928 -594v106h20l42 -68v68h20v-104l-10 -2h-10l-42 68v-68h-20zM1084 -594v88h-30v18h84v-18h-32v-88h-22zM1452 -594v88h-32v18h84v-18
h-30v-88h-22zM1546 -594v106h20v-106h-20zM598 -592v20h20v-20h-20zM1884 -592v20h20v-10l-2 -10h-18z" />
    <glyph glyph-name="R.001" horiz-adv-x="1143" 
d="M88 0l254 1602h450q137 0 247 -37q109 -37 171 -123q60 -86 38 -225q-27 -169 -150 -262q-124 -95 -306 -117l252 -838h-63l-255 833q-13 -1 -56 -1h-389l-131 -832h-62zM290 888h389q159 0 264 40q101 38 166 113q64 74 80 176q15 95 -22 171q-43 90 -147 124
q-105 34 -237 34h-391z" />
    <glyph glyph-name="space.tf" horiz-adv-x="840" 
 />
    <glyph glyph-name="NULL" horiz-adv-x="0" 
 />
    <glyph glyph-name="_FSHallmark" horiz-adv-x="1784" 
d="M1350 396q-92 0 -173 33q-83 33 -132 99q-51 65 -51 158l186 -4q0 -8 12 -32q3 -26 28 -48q18 -21 46 -32q32 -20 92 -20q28 0 53 5q20 4 51 17q34 22 34 52q0 58 -152 88q-67 20 -133 44q-54 18 -101 44q-44 20 -70 62q-26 38 -26 96q0 86 55 137q56 52 149 87
q5 0 13 1.5t23 4t26 4.5q39 4 70 4q85 0 160 -28t123 -87q47 -59 47 -143h-192q0 29 -14 46q-18 18 -36 32q-10 3 -20 10q-9 3 -11 4q-3 0 -8 2t-7 2l-24 6q-15 4 -22 4q-26 0 -55 -10q-30 -10 -51 -30q-22 -19 -22 -46t8 -48q6 -21 28 -30l15 -5q7 -5 21 -9q30 -13 46 -14
l130 -34l28 -6q15 -6 30 -6l24 -6q14 -4 20 -8l40 -18q36 -22 62 -52q18 -42 24 -88q1 -3 1 -13q0 -13 -5 -35q-3 -15 -16 -46q-45 -79 -131 -111q-87 -33 -193 -33zM844 400q-16 0 -32 10q-22 12 -30 20q-14 12 -26 30q-8 11 -8 34q0 39 30 66q26 26 66 26q38 0 78 -28
q32 -26 32 -64t-32 -70q-36 -24 -78 -24zM92 1294v190h1604v-190h-1604zM92 396v798h674v-180h-464v-182h388v-178h-388v-258h-210zM88 108v190h1606v-190h-1606z" />
    <glyph glyph-name="_Fontastica" horiz-adv-x="1394" 
d="M280 128q-29 0 -50 18q-22 16 -22 48q0 26 22 48q21 18 50 18q22 0 33 -7t25 -27q10 -16 10 -32q0 -29 -20 -46q-20 -20 -48 -20zM280 154q17 0 26 12q8 11 8 28q0 15 -10 26q-10 12 -24 12q-16 0 -26 -10q-10 -13 -10 -28q0 -17 10 -28q10 -12 26 -12zM798 128
q-34 0 -60 20l14 26q8 -8 22 -14t24 -6q16 0 16 12q0 2 -2 4q-2 0 -2 4q0 2 -2 2l-4 2q-3 0 -14 4t-14 4q-1 -1 -3 -1q-4 0 -11 7q-9 7 -10 10q-6 6 -6 20q0 21 18 30q14 8 34 8q26 0 52 -14l-14 -28q-14 14 -42 14q-4 0 -6 2q-1 1 -2 1q-2 -2 -2 -3l-2 -8q0 -2 2 -2v-4
q0 -4 4 -4q0 -2 2 -2q20 0 40 -13q20 -14 20 -31q0 -20 -16 -30q-19 -10 -36 -10zM1096 128q-42 0 -58 34q-10 16 -10 32q0 15 11 35t23 23l16 6q8 2 18 2q15 0 30 -6q12 -6 22 -16l-20 -24q-1 4 -13 12q-11 6 -17 6q-5 0 -16 -4q-12 -8 -14 -14q-4 -7 -4 -20q0 -7 5 -19
t11 -13q3 -3 8 -4q6 -2 10 -2q6 0 16 6q8 4 14 10l20 -20q-9 -11 -23 -17q-13 -7 -29 -7zM94 322q-2 0 -6 4v1182h884v-174h-682v-490h682v-182h-682v-340h-196zM422 322v184h682v482h-682v188h682v332h202v-1186h-884zM106 130v128h96v-26h-62v-30h58v-26h-58v-46h-34z
M364 130v128h30l58 -78v78h32v-128h-30l-58 76v-76h-32zM536 130v100h-38v28h108v-28h-36v-100h-34zM594 130l54 128h34l54 -128h-36l-8 24h-56l-8 -24h-34zM894 130v100h-38v28h108v-28h-38v-100h-32zM978 130v128h34v-128h-34zM1148 130l56 128h34l54 -128h-36l-10 24h-54
l-10 -24h-34zM646 178h36l-18 46zM1202 178h34l-18 46z" />
    <glyph glyph-name="_www.fontastica.com" horiz-adv-x="3962" 
d="M1114 752q-52 0 -95 24q-42 22 -68 65q-25 40 -25 93q0 54 25 94q25 42 67 64q43 22 96 22t96 -22q41 -21 68 -64q24 -40 24 -94q0 -53 -25 -93q-26 -43 -68 -65q-43 -24 -95 -24zM92 720q-2 0 -4 2v418h316v-62h-244v-174h244v-64h-244v-120h-68zM1116 830q41 0 68 32
q26 32 26 72q0 41 -26 72q-26 30 -68 30t-70 -28q-26 -29 -26 -74q0 -43 27 -73q27 -31 69 -31zM2528 754q-37 0 -86 17q-47 16 -76 39l36 72q22 -19 62 -36q38 -18 64 -18q21 0 32 8q14 8 14 22q0 7 -2 13q-4 6 -8 7q-3 1 -12 8q-2 1 -4.5 2.5t-4 2t-3.5 1.5l-4 2
q-3 0 -8 1.5t-7 2.5q-3 1 -8 2.5t-7 1.5q-7 1 -16 5q-12 4 -18 5q-8 2 -28 10q-13 5 -20 12q-34 18 -34 74q0 54 41 81t97 27q33 0 74 -10q36 -12 66 -30l-34 -72q-17 9 -56 26q-29 10 -58 10q-36 0 -36 -24q0 -7 11 -18t19 -14l20 -5q12 -3 30 -9q27 -9 48 -18q7 -5 22 -12
q20 -20 27 -35t7 -43q0 -34 -18 -58q-20 -29 -54 -38q-36 -12 -68 -12zM3340 752q-50 0 -92 24t-66 66t-24 92q0 53 25 93q25 42 67 64q43 23 94 23q42 0 78 -14q32 -13 62 -46l-52 -64q-14 20 -38 34q-24 12 -48 12q-45 0 -70 -28q-26 -29 -26 -72q0 -42 27 -72t69 -30
q27 0 48 12q17 7 38 28l54 -56q-30 -30 -66 -46q-38 -20 -80 -20zM206 720v64h244v172h-244v66h244v118h72v-420h-316zM646 760v348h260v-72h-170v-78h156v-74h-156v-124h-90zM1348 760v348h80l160 -210l-2 210h86v-348h-80l-158 208v-208h-86zM1814 760v274h-104v74h300
v-74h-106v-274h-90zM1972 760l150 348h94l146 -348h-96l-24 60h-152l-24 -60h-94zM2788 760v274h-104v74h300v-74h-104v-274h-92zM3022 760v348h90v-348h-90zM3484 760l150 348h94l146 -348h-98l-22 60h-152l-24 -60h-94zM2118 890h96l-46 126zM3630 890h96l-48 126z" />
    </font>
</defs>
</svg>
