<?xml version="1.0" standalone="no"?>
<!DOCTYPE svg PUBLIC "-//W3C//DTD SVG 1.1//EN" "http://www.w3.org/Graphics/SVG/1.1/DTD/svg11.dtd" >
<svg xmlns="http://www.w3.org/2000/svg" xmlns:xlink="http://www.w3.org/1999/xlink" version="1.1">
<metadata>
Created by FontForge 20170731 at Wed May 20 18:45:44 2020
 By Aleksey,,,
Copyright (c) 2020 by Fontastica. All rights reserved.
</metadata>
<defs>
<font id="ClarityNuvo-Light" horiz-adv-x="1340" >
  <font-face 
    font-family="Clarity Nuvo Light"
    font-weight="300"
    font-stretch="normal"
    units-per-em="2048"
    panose-1="0 0 4 0 0 0 0 0 0 0"
    ascent="1638"
    descent="-410"
    x-height="1159"
    cap-height="1605"
    bbox="-327 -596 3874 2149"
    underline-thickness="50"
    underline-position="-200"
    unicode-range="U+000D-F8FF"
  />
<missing-glyph horiz-adv-x="1000" 
d="M88 2v1446h824v-1446h-824zM498 810l310 568h-614zM830 192v1066l-288 -532zM170 196l284 530l-284 524v-1054zM194 74h614l-308 566z" />
    <glyph glyph-name="f_f.liga" unicode="ff" horiz-adv-x="1213" 
d="M1022 1164h-242v15q0 83 40.5 155.5t111.5 117.5q67 41 185 43h6l2 98h-6q-276 0 -385 -211q-44 -83 -52 -218h-333v15q0 82 41 155t111 118q68 41 185 43h6l2 98h-6q-275 0 -385 -211q-28 -52 -37.5 -100t-12.5 -118h-165v-99h164l-1 -1065h98v1065h332l-1 -1065h100
v1065h242v99z" />
    <glyph glyph-name="f_f_t.liga" unicode="fft" horiz-adv-x="1572" 
d="M252 1065l-1 -1065h98v1065h332l-1 -1065h99v1065h348l-1 -747q0 -72 11 -125.5t38 -99t79 -69.5t128 -24h28q30 0 60 3l9 1l-42 99h-4q-39 -3 -40 -3q-51 0 -81.5 10t-51.5 43q-34 57 -34 165l-1 745h259v99h-259v431h-98v-429h-348v15q0 83 41 155.5t111 117.5
q57 37 155 42h6v98h-6q-249 -11 -353 -210q-27 -50 -37 -98.5t-14 -119.5h-333v15q0 82 41 155t111 118q55 34 152 42h6v98h-6q-246 -13 -350 -210q-28 -52 -37.5 -100t-12.5 -118h-165v-99h164z" />
    <glyph glyph-name="f_t.liga" unicode="ft" horiz-adv-x="1142" 
d="M1054 1063v99h-259v431h-98v-429h-348v15q0 82 41 155.5t111 117.5q59 36 155 42h6v98h-6q-249 -11 -353 -210q-27 -50 -36 -98t-14 -120h-165v-99h164l-1 -1065h98v1065h348l-1 -747q0 -72 11 -125.5t38 -99t79 -69.5t128 -24h28q30 0 60 3l9 1l-42 99h-4q-39 -3 -40 -3
q-50 0 -81 10t-52 43q-34 58 -34 165l-1 745h259z" />
    <glyph glyph-name="t_t.liga" unicode="tt" horiz-adv-x="1089" 
d="M1001 1073v98h-259v422h-98v-422h-312v422h-97v-422h-147v-98h147l-1 -769q0 -72 11 -125.5t38 -99t79 -69t129 -23.5h28q31 0 59 3l9 1l-42 98h-4q-39 -3 -40 -3q-50 0 -82 10t-52 43q-34 58 -34 165l-1 769h312l-1 -769q0 -72 11 -125.5t38.5 -99t79.5 -69t129 -23.5
h28q29 0 58 3l9 1l-42 98h-3q-39 -3 -40 -3q-50 0 -82 10t-52 43q-34 58 -34 165l-1 769h259z" />
    <glyph glyph-name=".notdef" horiz-adv-x="1000" 
d="M88 2v1446h824v-1446h-824zM498 810l310 568h-614zM830 192v1066l-288 -532zM170 196l284 530l-284 524v-1054zM194 74h614l-308 566z" />
    <glyph glyph-name=".null" horiz-adv-x="0" 
 />
    <glyph glyph-name="nonmarkingreturn" horiz-adv-x="682" 
 />
    <glyph glyph-name="CR" unicode="&#xd;" horiz-adv-x="0" 
 />
    <glyph glyph-name="space" unicode=" " horiz-adv-x="850" 
 />
    <glyph glyph-name="exclam" unicode="!" horiz-adv-x="338" 
d="M122 1546v-1112h96v1112h-96zM88 143q0 -33 24 -57t57 -24q35 0 58 23.5t23 57.5t-23.5 57.5t-57.5 23.5t-57.5 -23.5t-23.5 -57.5z" />
    <glyph glyph-name="quotedbl" unicode="&#x22;" horiz-adv-x="469" 
d="M88 1667v-402h96v402h-96zM285 1667v-402h96v402h-96z" />
    <glyph glyph-name="numbersign" unicode="#" horiz-adv-x="1412" 
d="M310 68h98l68 456h361l-68 -456h97l69 456h325v93h-311l61 401h314v92h-299l67 435h-98l-65 -435h-363l67 435h-96l-67 -435h-318v-92h304l-62 -401h-306v-93h291zM491 617l60 401h363l-60 -401h-363z" />
    <glyph glyph-name="dollar" unicode="$" horiz-adv-x="1243" 
d="M687 69q88 2 169.5 27t149 71t108.5 120.5t41 166.5q0 47 -9.5 87t-23.5 71.5t-39.5 58.5t-49 46t-60.5 36t-65.5 28t-72.5 22t-73 17t-75 15v619q301 -23 369 -322l2 -10l83 64l-1 4q-47 168 -160 254t-293 101v216h-91v-215q-89 -3 -172 -30.5t-151.5 -76.5
t-109.5 -125.5t-41 -169.5q0 -237 242 -327q78 -27 232 -59v-598q-172 16 -281 107t-135 256l-1 9l-91 -50l1 -4q40 -187 174 -289t333 -119v-216h91v215zM596 1455v-598q-134 31 -192 52q-186 65 -186 235q0 72 33 131.5t87.5 97t120.5 59t137 23.5zM878 686
q183 -65 183 -232q0 -142 -110 -211q-103 -65 -264 -83v580q114 -27 191 -54z" />
    <glyph glyph-name="percent" unicode="%" horiz-adv-x="1695" 
d="M88 1154q0 -104 34 -188.5t110.5 -139.5t184.5 -55q83 0 147 31t103 85t58.5 121.5t19.5 145.5q0 123 -40 213.5t-138 143.5q-65 35 -150 35q-82 0 -146.5 -33t-103.5 -88.5t-59 -124.5t-20 -146zM285 69h116l1004 1477h-115zM649 1154q0 -47 -7.5 -88.5t-25 -79.5
t-44 -65.5t-66.5 -43.5t-89 -16q-79 0 -133 43.5t-77 107.5t-23 142q0 162 90 251q26 23 36 29q40 22 107 22q66 0 106 -22q21 -13 37 -29q89 -84 89 -251zM947 456q0 -104 34.5 -189.5t111.5 -141.5t186 -56q77 0 143 30.5t110 90.5q75 105 75 266q0 78 -19.5 146
t-58.5 123t-103 86.5t-147 31.5t-148 -31.5t-104.5 -86t-59.5 -123t-20 -146.5zM1455 251q-65 -93 -176 -93q-63 0 -108 24q-66 36 -98 112.5t-32 161.5t32 161.5t98 112.5q45 24 108 24q61 0 107 -25t72.5 -68t39 -94.5t12.5 -110.5q0 -130 -55 -205z" />
    <glyph glyph-name="ampersand" unicode="&#x26;" horiz-adv-x="1405" 
d="M88 399q0 -104 38.5 -185.5t106 -132t154.5 -76.5t188 -26q248 0 455 202l160 -181h127l-222 255q136 193 136 459v6h-101v-6q0 -219 -105 -382l-477 542q125 99 145 115q214 172 214 333q0 139 -88.5 222t-229.5 83q-159 0 -253.5 -97.5t-94.5 -255.5q0 -104 44 -196
t123 -193q-320 -242 -320 -486zM638 1068q-64 -54 -154 -123q-144 176 -144 331q0 113 67 182t182 69q95 0 155.5 -55.5t60.5 -149.5q0 -120 -167 -254zM965 255q-76 -83 -178 -130t-212 -47q-103 0 -189.5 34.5t-142.5 109t-56 177.5q0 116 96 234q37 47 93 99q49 46 93 81
z" />
    <glyph glyph-name="quotesingle" unicode="'" horiz-adv-x="272" 
d="M88 1667v-402h96v402h-96z" />
    <glyph glyph-name="parenleft" unicode="(" horiz-adv-x="648" 
d="M496 -212l13 -9l5 -3l46 63l-4 4q-112 89 -183 191.5t-121 241.5q-80 220 -80 514q0 298 86 535q84 234 298 410l4 4l-46 64l-5 -4q-233 -195 -329 -447q-92 -246 -92 -562q0 -146 21 -281t66.5 -267.5t127 -249.5t193.5 -204z" />
    <glyph glyph-name="parenright" unicode=")" horiz-adv-x="649" 
d="M88 -162l50 -63l5 4q236 200 327 447q91 248 91 564q0 322 -95 569t-323 440l-5 4l-50 -63l5 -4q216 -178 301 -412q84 -230 84 -534q0 -303 -85 -537q-86 -236 -300 -411z" />
    <glyph glyph-name="asterisk" unicode="*" horiz-adv-x="1150" 
d="M244 749l75 -57l258 355l254 -355l76 57l-260 350l415 132l-28 90l-416 -138l4 435h-94l4 -435l-416 138l-28 -90l417 -132z" />
    <glyph glyph-name="plus" unicode="+" horiz-adv-x="1235" 
d="M569 732v-493h96v493h482v90h-482v479h-96v-479h-481v-90h481z" />
    <glyph glyph-name="comma" unicode="," horiz-adv-x="427" 
d="M339 7q0 53 -24.5 90.5t-76.5 37.5q-34 0 -57.5 -21.5t-23.5 -55.5q0 -32 21 -55.5t54 -23.5q8 0 20 2q-6 -60 -61 -114q-26 -24 -91 -42l-12 -4l91 -66l4 2q74 38 115 102.5t41 147.5z" />
    <glyph glyph-name="hyphen" unicode="-" horiz-adv-x="841" 
d="M88 804v-95h665v95h-665z" />
    <glyph glyph-name="period" unicode="." horiz-adv-x="338" 
d="M88 65q0 -33 23.5 -57t57.5 -24t57.5 23.5t23.5 57.5q0 33 -23.5 57t-57.5 24t-57.5 -24t-23.5 -57z" />
    <glyph glyph-name="slash" unicode="/" horiz-adv-x="857" 
d="M669 1618l-581 -1778h100l581 1778h-100z" />
    <glyph glyph-name="zero" unicode="0" horiz-adv-x="1177" 
d="M322 69q112 -90 266 -90q159 0 271 92.5t172 248.5q58 154 58 364v235q0 188 -53.5 352t-179.5 265q-114 90 -268 90q-161 0 -270.5 -91.5t-170.5 -249.5q-59 -152 -59 -365v-235q0 -87 11.5 -169t37.5 -165t73 -156.5t112 -125.5zM805 154q-94 -76 -216 -76
q-89 0 -160.5 39.5t-116 101.5t-74.5 144t-42 162t-12 160v237q0 66 8.5 132.5t27 136t51 128.5t75.5 106t105 74t137 27q91 0 163 -38.5t116.5 -99.5t73.5 -143t40 -161.5t11 -162.5v-237q0 -100 -15 -192t-59 -187.5t-113 -150.5z" />
    <glyph glyph-name="one" unicode="1" horiz-adv-x="618" 
d="M427 1469v-1469h103l-3 1605h-102l-337 -318l55 -80z" />
    <glyph glyph-name="two" unicode="2" horiz-adv-x="1192" 
d="M126 87v-87h978v100h-836l426 494q66 77 106.5 126.5t92 125.5t82.5 143q46 103 46 197q0 213 -123 326.5t-338 113.5q-208 0 -340 -141.5t-132 -348.5v-6h99v6q0 166 103 278t270 112q168 0 264.5 -87.5t96.5 -252.5q0 -62 -25.5 -131.5t-72.5 -140.5t-86.5 -120.5
t-93.5 -111.5z" />
    <glyph glyph-name="three" unicode="3" horiz-adv-x="1171" 
d="M94 417q0 -204 130 -321t337 -117q107 0 200 28t165.5 81.5t114.5 141t42 198.5q0 137 -80 240t-212 154q114 50 180.5 146t66.5 219q0 137 -64 237.5t-171 151t-243 50.5t-242 -51t-168 -151.5t-62 -236.5q0 -27 3 -53v-5h100v6q0 4 -1 14.5t-1 15.5q0 69 9.5 115.5
t39.5 92.5q50 77 135.5 115t186.5 38q154 0 266 -92.5t112 -241.5q0 -101 -53.5 -175.5t-138 -110.5t-184.5 -36h-190l9 -99h181q81 0 155.5 -23t134 -65.5t95 -110t35.5 -150.5t-34 -149.5t-91.5 -108.5t-130 -64t-153.5 -22q-163 0 -271 88t-108 246q0 10 1.5 29t1.5 28v6
h-101v-6q-2 -36 -2 -52z" />
    <glyph glyph-name="four" unicode="4" horiz-adv-x="1337" 
d="M944 0h101l-1 410h205v98h-205l-2 1097h-103l-851 -1195h856v-410zM280 508l664 937v-937h-664z" />
    <glyph glyph-name="five" unicode="5" horiz-adv-x="1126" 
d="M89 466q21 -206 146 -336t331 -130q135 0 242.5 64t168.5 182q61 115 61 279q0 147 -53.5 264.5t-163.5 190t-261 72.5q-155 0 -282 -91l37 542h712v100h-804l-50 -754v-40v-16l18 20l42 -68l5 9q55 89 138 140.5t184 51.5q103 0 190 -56t138 -149q51 -96 51 -219
q0 -110 -47 -209t-136 -151q-94 -54 -190 -54q-150 0 -253 104t-123 256l-1 5h-101z" />
    <glyph glyph-name="six" unicode="6" horiz-adv-x="1127" 
d="M1039 471q0 217 -130 349.5t-348 132.5q-243 0 -375 -170v139q0 93 17 179t54.5 164t93 135.5t137.5 91.5t182 34q152 0 276 -85l6 -4l42 89l-5 3q-142 97 -319 97q-175 0 -307 -89.5t-205 -250.5q-47 -106 -64 -247h-6v-561q0 -212 128.5 -343t343.5 -131
q163 0 285 80.5t169 231.5q25 77 25 155zM938 480q0 -161 -107.5 -266t-270.5 -105q-166 0 -269.5 102t-103.5 266q0 166 103.5 268t270.5 102q161 0 269 -104t108 -263z" />
    <glyph glyph-name="seven" unicode="7" horiz-adv-x="1178" 
d="M926 1506l-689 -1506h111l742 1605h-1002v-96z" />
    <glyph glyph-name="eight" unicode="8" horiz-adv-x="1216" 
d="M159 178q73 -104 191.5 -151.5t258.5 -47.5q108 0 200.5 28t164.5 82t113 141t41 198q0 136 -80.5 239.5t-211.5 154.5q114 50 180.5 146.5t66.5 218.5q0 137 -64 237.5t-171 151t-243 50.5q-209 0 -341 -117t-132 -322q0 -122 66.5 -219t179.5 -147
q-131 -51 -210.5 -153.5t-79.5 -239.5q0 -144 65 -241h-1zM982 1192q0 -150 -110 -236t-266 -86q-158 0 -266 85.5t-108 236.5q0 155 106 244.5t267 89.5q154 0 265.5 -92.5t111.5 -241.5zM1027 422q0 -86 -34.5 -153t-93.5 -108t-132.5 -62t-157.5 -21t-158.5 21t-134 61.5
t-94.5 108t-35 153.5q0 110 61 191.5t154.5 119.5t203.5 38q81 0 156 -23t134.5 -65.5t95 -110t35.5 -150.5z" />
    <glyph glyph-name="nine" unicode="9" horiz-adv-x="1127" 
d="M1039 578v554q0 217 -126.5 349t-344.5 132t-349 -133.5t-131 -348.5q0 -209 134 -338t345 -129q242 0 374 169v-138q0 -93 -17 -179t-55 -164t-93 -135.5t-137 -91.5t-182 -34q-155 0 -276 85l-7 4l-41 -89l5 -3q145 -98 319 -98q126 0 230.5 47t175 128.5t113.5 186.5
t56 226h7zM940 1139q0 -164 -103.5 -266.5t-269.5 -102.5q-161 0 -269.5 104t-108.5 263t108.5 264t270.5 105q165 0 268.5 -102t103.5 -265z" />
    <glyph glyph-name="colon" unicode=":" horiz-adv-x="338" 
d="M88 1046q0 -33 23.5 -57t57.5 -24t57.5 23.5t23.5 57.5q0 35 -23 58.5t-58 23.5q-34 0 -57.5 -24t-23.5 -58zM88 65q0 -33 23.5 -57t57.5 -24t57.5 23.5t23.5 57.5q0 33 -23.5 57t-57.5 24t-57.5 -24t-23.5 -57z" />
    <glyph glyph-name="semicolon" unicode=";" horiz-adv-x="427" 
d="M156 1046q0 -33 23.5 -57t57.5 -24t57 23t23 58t-23 58.5t-57 23.5t-57.5 -24t-23.5 -58zM339 7q0 53 -24.5 90.5t-76.5 37.5q-34 0 -57.5 -21.5t-23.5 -55.5q0 -32 21.5 -55.5t53.5 -23.5q8 0 20 2q-6 -60 -61 -114q-26 -24 -91 -42l-12 -4l91 -66l4 2q74 38 115 102.5
t41 147.5z" />
    <glyph glyph-name="less" unicode="&#x3c;" horiz-adv-x="1187" 
d="M88 703l1011 -529v107l-882 462l882 459v107l-1011 -528v-78z" />
    <glyph glyph-name="equal" unicode="=" horiz-adv-x="1162" 
d="M88 1035v-90h986v90h-986zM88 598v-92h986v92h-986z" />
    <glyph glyph-name="greater" unicode="&#x3e;" horiz-adv-x="1187" 
d="M88 281v-107l1011 529v78l-1011 528v-107l885 -459z" />
    <glyph glyph-name="question" unicode="?" horiz-adv-x="1103" 
d="M495 746v-355h94v288q148 46 245.5 113.5t148.5 188.5q32 76 32 193q0 97 -33.5 172.5t-93 123.5t-139 72.5t-173.5 24.5q-443 0 -487 -408l-1 -5l86 -35l1 8q28 185 120.5 268t280.5 83q151 0 248.5 -79t97.5 -225q0 -209 -154 -315q-38 -26 -88 -46q-92 -41 -181 -66z
M460 143q0 -33 24 -57t57 -24q35 0 57.5 23.5t22.5 57.5t-23 57.5t-57 23.5t-57.5 -23.5t-23.5 -57.5z" />
    <glyph glyph-name="at" unicode="@" horiz-adv-x="1983" 
d="M1893 802q2 52 2 79q0 251 -58 438q-9 35 -23 69q-29 60 -86 134q-221 287 -681 287q-188 0 -345.5 -57.5t-269.5 -158.5t-190.5 -239t-116 -298.5t-37.5 -337.5q0 -162 33 -304.5t102.5 -261.5t169.5 -204.5t241.5 -133t311.5 -47.5q248 0 407 107l5 3l-46 83l-5 -3
q-161 -90 -357 -90q-148 0 -272.5 43.5t-214 121.5t-152.5 184.5t-93.5 233.5t-30.5 268q0 133 25.5 257.5t76.5 240t136.5 213.5t198.5 165q190 112 419 112q378 0 566 -203q108 -116 149 -266.5t41 -338.5q0 -284 -74 -454q-15 -39 -34 -69q-66 -103 -173 -103
q-56 0 -108 45q-35 33 -46 108q-1 6 -2.5 16t-1.5 12v29l65 827l-90 6l-12 -152q-53 90 -139.5 138t-193.5 48q-99 0 -181 -54t-129 -144q-51 -94 -65 -245q-17 -194 -17 -245q0 -89 25 -169t72.5 -143t123 -100t169.5 -37q182 0 294 153q23 -88 83 -142.5t151 -54.5
q71 0 130 31.5t98.5 85.5t68.5 118t45.5 138.5t24.5 137.5t10 123zM989 1243q100 0 172.5 -51t106 -131.5t33.5 -178.5q0 -17 -2 -49q-4 -61 -14 -169q-5 -51 -18.5 -100t-38 -94.5t-57 -79.5t-79.5 -54.5t-101 -20.5q-138 0 -222.5 101.5t-84.5 242.5q0 23 4 69l17 164
q11 113 41.5 186t107.5 124q62 41 135 41z" />
    <glyph glyph-name="A" unicode="A" horiz-adv-x="1478" 
d="M88 0h109l223 597h639l224 -597h107l-600 1605h-102zM457 695l282 770l283 -770h-565z" />
    <glyph glyph-name="B" unicode="B" horiz-adv-x="1274" 
d="M1186 453q0 150 -68.5 257t-205.5 161q114 59 168 136t54 201q0 88 -30.5 157t-80.5 113.5t-119.5 73.5t-142.5 41t-154 12h-519v-1605h6l565 3q113 1 206.5 27t166.5 78.5t113.5 140.5t40.5 204zM187 1508h420q290 0 382 -144q46 -73 46 -159q0 -73 -32.5 -130.5
t-87 -92t-120 -52t-136.5 -17.5h-472v595zM659 102h-469v710h490q71 0 118.5 -8.5t103.5 -35.5q184 -94 184 -317q0 -73 -22.5 -132.5t-61.5 -99t-93.5 -66.5t-116.5 -39t-133 -12z" />
    <glyph glyph-name="C" unicode="C" horiz-adv-x="1278" 
d="M88 685q0 -107 21.5 -208t68 -192t113.5 -158.5t164.5 -107.5t213.5 -40q184 0 314.5 91t204.5 261l2 4l-83 54l-3 -7q-129 -304 -434 -304q-99 0 -181 34.5t-137.5 92.5t-93.5 136.5t-55.5 165t-17.5 178.5v237q0 93 17 179t54.5 164t93 135.5t137.5 91.5t182 34
q307 0 435 -304l3 -7l83 56l-2 4q-75 169 -205.5 260t-313.5 91q-175 0 -307 -89.5t-205 -250.5q-69 -154 -69 -366v-235z" />
    <glyph glyph-name="D" unicode="D" horiz-adv-x="1281" 
d="M88 1605v-1605h6q519 3 521 3q141 0 254 58t182 155.5t105.5 218t36.5 253.5v228q0 108 -23 208.5t-71 188t-116.5 152.5t-166 102.5t-213.5 37.5h-515zM1094 688q0 -94 -18 -179.5t-57.5 -160.5t-96 -130t-139 -87t-182.5 -32q-3 0 -411 3l-3 1406h408q81 0 174 -31
q86 -31 150.5 -89.5t101.5 -134.5t55 -159.5t18 -174.5v-231z" />
    <glyph glyph-name="E" unicode="E" horiz-adv-x="1165" 
d="M88 1605v-1605l989 3v99h-887v710h632l3 101h-638v595h890v97h-989z" />
    <glyph glyph-name="F" unicode="F" horiz-adv-x="1165" 
d="M88 1605v-1605h102v812h632l3 101h-638v595h890v97h-989z" />
    <glyph glyph-name="G" unicode="G" horiz-adv-x="1278" 
d="M88 685q0 -107 21.5 -208t68 -192t113.5 -158.5t164.5 -107.5t213.5 -40h1q300 0 463 248q6 12 25 42l15 27l5 10l1 4q1 1 1 4v577h-532v-93h439v-454q-1 -1 -1 -3l-5 -10q-10 -17 -15 -25t-11 -17t-9.5 -14.5t-4.5 -7.5q-132 -189 -371 -189q-99 0 -181 34.5
t-137.5 92.5t-93.5 136.5t-55.5 165t-17.5 178.5v237q0 93 17 179t54.5 164t93 135.5t137.5 91.5t182 34q307 0 435 -304l3 -7l83 56l-2 4q-75 169 -205.5 260t-313.5 91q-174 0 -306.5 -89.5t-205.5 -250.5q-69 -156 -69 -366v-235z" />
    <glyph glyph-name="H" unicode="H" horiz-adv-x="1167" 
d="M88 1605v-1605h102v812h788v-812h101v1605h-99v-692h-793v692h-99z" />
    <glyph glyph-name="I" unicode="I" horiz-adv-x="278" 
d="M88 1605v-1605h102l-3 1605h-99z" />
    <glyph glyph-name="J" unicode="J" horiz-adv-x="1166" 
d="M88 535q0 -237 130 -386t366 -149q153 0 266 68t170.5 185t57.5 267v1085h-90l1 -1077q0 -192 -107.5 -312t-297.5 -120q-195 0 -299.5 120.5t-108.5 318.5v6h-88v-6z" />
    <glyph glyph-name="K" unicode="K" horiz-adv-x="1262" 
d="M88 1605v-1605h102v717l149 135l719 -852h116l-765 916l754 688h-134l-842 -760v761h-99z" />
    <glyph glyph-name="L" unicode="L" horiz-adv-x="1165" 
d="M88 1605v-1605l989 3v99h-887l-3 1503h-99z" />
    <glyph glyph-name="M" unicode="M" horiz-adv-x="1446" 
d="M88 1605v-1605h102l-3 1291l484 -1291h101l487 1298l-2 -1298h101v1605h-93l-543 -1466l-535 1444v1v6v9v6h-99z" />
    <glyph glyph-name="N" unicode="N" horiz-adv-x="1177" 
d="M98 1578v-1578h102l-2 1383l790 -1365v-18h101v1605h-99l-2 -1379l-798 1379h-102l3 -8q0 -2 4 -10q2 -6 2 -7l1 -1v-1z" />
    <glyph glyph-name="O" unicode="O" 
d="M88 685q0 -107 21.5 -208t68 -192t113.5 -158.5t164.5 -107.5t213.5 -40q119 0 217 39t165 106t113 157.5t67 191.5t21 211v235q0 109 -21 210t-67 192.5t-113 158.5t-165 106.5t-217 39.5q-175 0 -306.5 -89t-205.5 -250q-69 -156 -69 -367v-235zM1154 684
q0 -94 -16.5 -180t-54 -164.5t-92.5 -136t-137.5 -91.5t-183.5 -34q-99 0 -181 34.5t-137.5 92.5t-93.5 136.5t-55.5 165t-17.5 178.5v237q0 93 17 179t54.5 164t93 135.5t137.5 91.5t182 34q150 0 260 -74.5t168 -212.5q57 -136 57 -318v-237z" />
    <glyph glyph-name="P" unicode="P" horiz-adv-x="1214" 
d="M88 0h102l-1 812h411q81 0 153.5 12t142 40.5t119.5 72.5t80.5 113.5t30.5 157.5t-30.5 157t-80.5 113.5t-119.5 73.5t-142 41t-153.5 12h-512v-1605zM189 908l-2 600h413q292 0 382 -144q45 -72 45 -156q0 -86 -37 -147t-101 -93t-135 -46t-154 -14h-411z" />
    <glyph glyph-name="Q" unicode="Q" horiz-adv-x="1349" 
d="M88 685q0 -107 21.5 -208t68 -192t113.5 -158.5t164.5 -107.5t213.5 -40q233 0 392 158l79 -137h121l-130 223q121 186 121 461v235q0 109 -21 210.5t-67.5 192.5t-113 158t-165 106.5t-216.5 39.5q-174 0 -306.5 -89.5t-205.5 -250.5q-69 -156 -69 -366v-235zM1010 226
q-127 -148 -340 -148q-99 0 -181 34.5t-137.5 92.5t-93.5 136.5t-55.5 165t-17.5 178.5v237q0 93 17 179t54.5 164t93 135.5t137.5 91.5t182 34q150 0 260 -74.5t168 -212.5q57 -134 57 -318v-237q0 -217 -79 -364l-86 149h-121z" />
    <glyph glyph-name="R" unicode="R" horiz-adv-x="1223" 
d="M754 823q170 28 272 123.5t102 261.5q0 88 -30.5 157t-80.5 113.5t-119.5 73.5t-142 41t-153.5 12h-514v-1605h102l-1 812h413q30 0 45 1l379 -813h109zM602 908h-413l-2 600h415q289 0 381 -144q46 -73 46 -156q0 -86 -37 -147t-101 -93t-135 -46t-154 -14z" />
    <glyph glyph-name="S" unicode="S" horiz-adv-x="1224" 
d="M89 352q54 -183 192 -278t334 -95q78 0 149.5 15t135.5 47.5t111 80t74.5 116t27.5 150.5q0 79 -28 150q-48 122 -191 204q-57 33 -133 59q-9 3 -134 47q-71 24 -142.5 56.5t-145.5 86t-100 106.5q-30 59 -30 131q0 97 56 166.5t152 107.5q81 33 194 33q125 0 227 -48.5
t159 -148.5q20 -35 34 -76q8 -28 8 -29q1 -3 4 -9t4 -9l3 -7l86 48l-1 4q-47 184 -188.5 280.5t-338.5 96.5q-100 0 -188 -26t-158 -76t-111 -132t-41 -185q0 -218 214 -340q99 -57 273 -118q158 -56 244 -104q174 -96 174 -268q0 -77 -34.5 -137.5t-92 -96.5t-126.5 -54.5
t-144 -18.5q-161 0 -282 78t-150 226v2l-17 17l-81 -47z" />
    <glyph glyph-name="T" unicode="T" horiz-adv-x="1231" 
d="M567 1504v-1504h97v1504l479 -1v102h-1055v-102z" />
    <glyph glyph-name="U" unicode="U" 
d="M88 685q0 -107 21.5 -208t68 -192t113.5 -158.5t164.5 -107.5t213.5 -40q119 0 217 39t165 106t113 157.5t67 191.5t21 211v921h-98v-921q0 -94 -16.5 -180t-54 -164.5t-92.5 -136t-137.5 -91.5t-183.5 -34q-99 0 -181 34.5t-137.5 92.5t-93.5 136.5t-55.5 165
t-17.5 178.5v920h-97v-920z" />
    <glyph glyph-name="V" unicode="V" horiz-adv-x="1478" 
d="M88 1605l600 -1605h102l600 1605h-107l-544 -1466l-542 1466h-109z" />
    <glyph glyph-name="W" unicode="W" horiz-adv-x="1789" 
d="M88 1604l381 -1602h97l329 1378l329 -1378h94l383 1602h-99l-329 -1394l-330 1394h-99l-325 -1394l-330 1394h-101z" />
    <glyph glyph-name="X" unicode="X" horiz-adv-x="1299" 
d="M711 799l500 806h-122l-440 -706l-444 706h-117l499 -806l-496 -799h132v19l426 679l426 -680v-18h132z" />
    <glyph glyph-name="Y" unicode="Y" horiz-adv-x="1301" 
d="M601 808v-808h96v807l516 798h-123l-440 -706l-444 706h-118z" />
    <glyph glyph-name="Z" unicode="Z" horiz-adv-x="1196" 
d="M940 1506l-852 -1506l1005 3v99h-836l851 1503h-1004v-96z" />
    <glyph glyph-name="bracketleft" unicode="[" horiz-adv-x="626" 
d="M88 1774v-1989h450v93h-358v1806h358v90h-450z" />
    <glyph glyph-name="backslash" unicode="\" horiz-adv-x="857" 
d="M88 1618l581 -1778h100l-581 1778h-100z" />
    <glyph glyph-name="bracketright" unicode="]" horiz-adv-x="626" 
d="M88 -122v-93h450v1989h-450v-90h358v-1806h-358z" />
    <glyph glyph-name="asciicircum" unicode="^" horiz-adv-x="1274" 
d="M598 1696l-510 -865h115l435 739l433 -739h115l-510 865h-78z" />
    <glyph glyph-name="underscore" unicode="_" horiz-adv-x="1311" 
d="M88 -1v-90h1135v90h-1135z" />
    <glyph glyph-name="grave" unicode="`" horiz-adv-x="514" 
d="M92 1654l227 -376h102l-216 376h-113z" />
    <glyph glyph-name="a" unicode="a" horiz-adv-x="1086" 
d="M997 682h1v6q0 80 -10 139t-41 119q-55 107 -153.5 161.5t-223.5 54.5q-201 0 -315.5 -126t-114.5 -326v-29h98v6q0 164 85 267t247 103q122 0 209.5 -67.5t111.5 -185.5q8 -38 8 -103v-18h-257q-93 0 -176 -13.5t-170.5 -54.5t-139.5 -106q-68 -86 -68 -198
q0 -103 52.5 -180t136.5 -115t187 -38q276 0 435 189v-168h98v683zM899 585v-251l-1 -1v-1l-3 -7q-3 -6 -11 -20q-15 -26 -19 -30q-65 -100 -170 -149.5t-231 -49.5q-109 0 -193 64t-84 167q0 62 31 111.5t79 80t110.5 50.5t121.5 28t116 8h254z" />
    <glyph glyph-name="b" unicode="b" horiz-adv-x="1035" 
d="M183 134q127 -151 336 -151q192 0 309.5 123.5t117.5 314.5v288q0 2 0.5 6.5t0.5 6.5q0 193 -117 317t-311 124q-213 0 -336 -149v579h-95v-1593h95v134zM696 129q-74 -45 -177 -45q-126 0 -209 66.5t-113 188.5q-14 56 -14 101v267q0 46 14 102q30 121 113.5 187.5
t208.5 66.5q121 0 208.5 -68.5t113.5 -185.5q9 -42 9 -105v-260q0 -107 -35 -184.5t-119 -130.5z" />
    <glyph glyph-name="c" unicode="c" horiz-adv-x="981" 
d="M89 686v-247q0 -144 52 -242q114 -216 374 -216q125 0 222.5 57.5t152.5 166.5l3 5l-78 64l-3 -7q-97 -184 -298 -184q-120 0 -207.5 68.5t-113.5 183.5q-9 39 -9 107v260q0 110 40 189q41 84 116.5 127t173.5 43q200 0 298 -185l3 -7l78 64l-3 5q-56 110 -154 167
t-224 57q-195 0 -309.5 -127t-114.5 -322v-27h1z" />
    <glyph glyph-name="d" unicode="d" horiz-adv-x="1034" 
d="M88 427q0 -193 117 -318.5t310 -125.5q211 0 336 150v-133h95v1593h-95v-579q-124 149 -336 149q-198 0 -312.5 -125t-114.5 -323v-288zM839 346q-29 -124 -113 -193t-211 -69q-120 0 -208.5 69t-113.5 185q-9 45 -9 106v260q0 159 87 259t244 100q120 0 202 -61
t115 -175q19 -64 19 -120v-267q0 -34 -12 -94z" />
    <glyph glyph-name="e" unicode="e" horiz-adv-x="1026" 
d="M141 202q114 -216 374 -216q125 0 222.5 57.5t152.5 166.5l3 5l-78 63l-3 -6q-98 -185 -298 -185q-120 0 -208 68.5t-113 183.5q-9 39 -9 108v142h754v6q0 146 -3 181q-11 100 -48 175q-107 211 -371 211q-204 0 -316 -123.5t-112 -326.5q0 -45 0.5 -134.5t0.5 -133.5
q0 -146 52 -242zM843 687h-659q0 70 7 114t33 95q40 84 116 127t174 43q119 0 207 -69t113 -184q9 -44 9 -106v-20z" />
    <glyph glyph-name="f" unicode="f" horiz-adv-x="782" 
d="M252 1065l-1 -1065h98v1065h243v99h-243v15q0 82 41 155t111 118q68 41 185 43h6l2 98h-6q-275 0 -385 -211q-28 -52 -37.5 -100t-12.5 -118h-165v-99h164z" />
    <glyph glyph-name="g" unicode="g" horiz-adv-x="1035" 
d="M110 -121q39 -152 147 -235t266 -83q126 0 226.5 58t151.5 169q46 103 46 250l-1 1124h-98l-1 -143q-123 144 -332 144q-198 0 -312.5 -125t-114.5 -323v-288q0 -193 117 -318.5t310 -125.5q209 0 332 145v-36v-41.5v-34.5q-2 -65 -13 -116q-28 -121 -138 -193
q-72 -46 -174 -46q-128 0 -209.5 67t-114.5 192l-2 7l-87 -44zM826 300q-36 -105 -117 -160.5t-194 -55.5q-121 0 -209 69t-113 185q-9 45 -9 106v260q0 159 87 259t244 100q113 0 194 -55.5t117 -161.5q21 -60 21 -85v-376q0 -25 -21 -85z" />
    <glyph glyph-name="h" unicode="h" horiz-adv-x="1035" 
d="M88 1590v-1590h95v6v701q0 40 13 98q29 123 112.5 190.5t210.5 67.5q121 0 209 -68.5t113 -185.5q9 -42 9 -105v-702l95 -3v6q0 119 1 358t1 359q0 193 -117 317t-311 124q-213 0 -336 -149v576h-95z" />
    <glyph glyph-name="i" unicode="i" horiz-adv-x="337" 
d="M88 1512q0 -32 24 -56t57 -24q34 0 57 23.5t23 56.5q0 34 -23 57.5t-57 23.5t-57.5 -23.5t-23.5 -57.5zM119 1161v-1161h99v1161h-99z" />
    <glyph glyph-name="j" unicode="j" horiz-adv-x="303" 
d="M54 1512q0 -33 23 -56.5t57 -23.5t57.5 23.5t23.5 56.5q0 35 -23 58t-58 23q-34 0 -57 -23.5t-23 -57.5zM-243 -339l-27 -100h8q220 0 332 128t112 349l-1 1124h-99l-1 -1124q0 -117 -32 -195t-120 -136q-65 -43 -167 -46h-5z" />
    <glyph glyph-name="k" unicode="k" horiz-adv-x="996" 
d="M88 1593v-1593h97v522l93 85l514 -607h116l-560 668l541 493h-134l-571 -514v946h-96z" />
    <glyph glyph-name="l" unicode="l" horiz-adv-x="341" 
d="M364 83h-23q-87 0 -119 54q-33 59 -33 164l-2 1292h-98l-1 -1292q0 -71 11.5 -124.5t38.5 -99t79 -69.5t127 -24q59 0 89 3l8 1l-42 97h-4q-3 0 -9.5 0.5t-9.5 0.5q-4 0 -10 -2h-1z" />
    <glyph glyph-name="m" unicode="m" horiz-adv-x="1788" 
d="M851 2v-3h6q28 2 42 2t40 -2h6v3h1v711q0 211 153 304q76 46 177 46q121 0 208 -68.5t113 -185.5q9 -37 9 -105v-702l93 -3v6q0 117 0.5 352t0.5 352q0 200 -111.5 327t-311.5 127q-129 0 -227.5 -57t-150.5 -168q-113 225 -380 225q-213 0 -336 -149v145h-95v-1159h95v6
v701q0 43 15 107q31 119 114 184t207 65q121 0 208.5 -68.5t113.5 -185.5q9 -42 9 -105v-702h1z" />
    <glyph glyph-name="n" unicode="n" horiz-adv-x="1035" 
d="M88 1159v-1159h95v6v701q0 40 13 98q29 123 112.5 190.5t210.5 67.5q121 0 209 -68.5t113 -185.5q9 -42 9 -105v-702l95 -3v6q0 119 1 358t1 359q0 193 -117 317t-311 124q-213 0 -336 -149v145h-95z" />
    <glyph glyph-name="o" unicode="o" horiz-adv-x="1027" 
d="M89 688q0 -44 -0.5 -131t-0.5 -130q0 -128 53 -228q111 -211 374 -211q204 0 313.5 124t109.5 329v247h1v28q0 197 -112.5 320t-309.5 123q-201 0 -315 -122t-114 -322v-27h1zM843 704v-260q0 -158 -86.5 -259t-242.5 -101q-121 0 -208.5 69t-112.5 185q-9 38 -9 106v260
q0 159 86.5 259t243.5 100q120 0 207.5 -68.5t112.5 -185.5q9 -42 9 -105z" />
    <glyph glyph-name="p" unicode="p" horiz-adv-x="1035" 
d="M88 -439h95v575q123 -148 336 -148q194 0 311 124t117 318q0 46 -1 140t-1 141q0 3 0.5 9.5t0.5 9.5q0 191 -117.5 314t-309.5 123q-214 0 -336 -148v143h-95v-1601zM696 133q-71 -45 -177 -45q-127 0 -210 67t-112 189q-14 56 -14 101v267q0 46 14 102q30 121 113.5 187
t208.5 66q123 0 209.5 -67.5t112.5 -186.5q9 -42 9 -104v-261q0 -107 -35 -183.5t-119 -131.5z" />
    <glyph glyph-name="q" unicode="q" horiz-adv-x="1034" 
d="M851 -439h95v1601h-95v-143q-124 148 -336 148q-194 0 -310.5 -124.5t-116.5 -318.5v-287q0 -197 115 -323t312 -126q211 0 336 148v-575zM837 342q-30 -121 -113.5 -187.5t-208.5 -66.5q-122 0 -209.5 68.5t-112.5 185.5q-9 45 -9 106v261q0 108 40 187q84 171 291 171
q127 0 210 -66t112 -189q14 -54 14 -100v-267q0 -45 -14 -103z" />
    <glyph glyph-name="r" unicode="r" horiz-adv-x="848" 
d="M88 1159v-1159h95v6v701q0 50 18 117q32 115 114.5 177t203.5 62q99 0 192 -55l6 -4l43 93l-5 3q-110 63 -236 63q-213 0 -336 -149v145h-95z" />
    <glyph glyph-name="s" unicode="s" horiz-adv-x="1088" 
d="M179 108q134 -129 368 -129q233 0 362 123q72 66 72 180q0 146 -148 230q-49 28 -137 58q-5 2 -136 39q-98 25 -195 68q-2 1 -16.5 7.5t-15.5 7.5q-39 24 -69 48q-62 51 -62 122q0 61 46 107q14 14 42 32q98 61 259 61q128 0 232 -52q101 -52 135 -172l2 -7l82 41l-1 4
q-15 73 -62 129.5t-112 88.5t-135.5 48t-142.5 16q-60 0 -118 -9t-117 -31.5t-103 -56t-71.5 -87t-27.5 -120.5q0 -82 43 -141q11 -15 38 -38q42 -38 105.5 -69.5t112.5 -48t122 -36.5q72 -20 122 -35.5t119 -51t93 -73.5q25 -39 25 -87q0 -59 -46 -108q-9 -9 -36 -27
q-102 -64 -268 -64q-84 0 -156 20t-130.5 72t-75.5 131l-2 8l-88 -42l1 -5q15 -58 39 -92q16 -24 51 -59z" />
    <glyph glyph-name="t" unicode="t" horiz-adv-x="680" 
d="M88 1073h147l-1 -769q0 -72 11 -125.5t38 -99t79 -69t129 -23.5h28q31 0 59 3l9 1l-42 98h-4q-39 -3 -40 -3q-50 0 -82 10t-52 43q-34 58 -34 165l-1 769h260v98h-260v422h-97v-422h-147v-98z" />
    <glyph glyph-name="u" unicode="u" horiz-adv-x="1034" 
d="M88 441q0 -201 113.5 -328.5t313.5 -127.5q209 0 336 149v-134h95v1162h-95v-720q0 -154 -91.5 -255t-244.5 -101q-121 0 -209 68.5t-113 184.5q-9 45 -9 107v714l-95 3v-6q0 -119 -0.5 -358t-0.5 -358z" />
    <glyph glyph-name="v" unicode="v" horiz-adv-x="1134" 
d="M88 1162l430 -1162h99l429 1162h-105l-373 -1022l-373 1022h-107z" />
    <glyph glyph-name="w" unicode="w" horiz-adv-x="1722" 
d="M88 1162l368 -1162h91l315 991l314 -991h90l368 1162h-98l-313 -1003l-315 1003h-94l-313 -1003l-313 1003h-100z" />
    <glyph glyph-name="x" unicode="x" horiz-adv-x="1180" 
d="M649 577l443 585h-117l-385 -508l-388 508h-114l443 -585l-441 -577h118l382 500l371 -483v-17h127z" />
    <glyph glyph-name="y" unicode="y" horiz-adv-x="1158" 
d="M93 -456q62 -10 93 -10q153 0 255 92.5t154 245.5q57 173 68 203l407 1087h-105l-373 -993l-373 993h-107l427 -1139l-41 -119q-39 -115 -91.5 -175t-158.5 -88q-30 -8 -59 -8q-1 0 -43 3q-8 2 -9 2q-3 1 -10 1h-20l-19 -72v-4v-5v-8v-5z" />
    <glyph glyph-name="z" unicode="z" horiz-adv-x="1134" 
d="M97 40q-1 -1 -2 -1l-3 -2l-4 -2l8 -35l927 2v91h-767l790 1069l-958 -2v-91h768z" />
    <glyph glyph-name="braceleft" unicode="{" horiz-adv-x="733" 
d="M624 -219h21v91h-6q-211 0 -211 180v523q0 150 -117 217q117 66 117 214v519q0 181 211 181h6v90h-6q-307 0 -307 -271v-519q0 -45 -16 -77q-30 -56 -86.5 -75.5t-135.5 -19.5h-6v-88h6q127 0 177 -39q8 -6 24.5 -24.5t21.5 -27.5q15 -27 15 -80v-523q0 -134 77.5 -202.5
t214.5 -68.5z" />
    <glyph glyph-name="bar" unicode="|" horiz-adv-x="268" 
d="M88 1696v-1988h92v1988h-92z" />
    <glyph glyph-name="braceright" unicode="}" horiz-adv-x="733" 
d="M88 -128v-91h6q307 0 307 271v523q0 43 18 78q49 93 220 93h6v88h-6q-78 0 -134.5 19.5t-85.5 75.5q-18 36 -18 77v519q0 271 -307 271h-6v-90h6q102 0 156 -42t54 -139v-519q0 -68 31.5 -125t89.5 -89q-58 -35 -89.5 -92.5t-31.5 -124.5v-523q0 -97 -54 -138.5
t-156 -41.5h-6z" />
    <glyph glyph-name="asciitilde" unicode="~" horiz-adv-x="1093" 
d="M91 726l-3 -23h96l1 5q28 137 82 158q23 9 61 9q49 0 102 -25q30 -13 99 -55q45 -26 72 -39.5t73 -27t91 -13.5q208 0 239 256l1 7h-95l-1 -5q-16 -97 -45 -132q-28 -35 -99 -35q-43 0 -85 19l-23 9q-13 5 -22 10q-11 8 -13 9q-4 2 -5 2q-1 1 -2 1q-2 0 -2 1q-7 3 -17 9
q-12 8 -19 12q-58 39 -112 64q-54 23 -137 23q-206 0 -237 -239z" />
    <glyph glyph-name="exclamdown" unicode="&#xa1;" horiz-adv-x="338" 
d="M88 1129q0 -33 24 -57.5t57 -24.5q34 0 57.5 24t23.5 58q0 33 -23.5 56.5t-57.5 23.5t-57.5 -23.5t-23.5 -56.5zM122 837v-1111h96v1111h-96z" />
    <glyph glyph-name="cent" unicode="&#xa2;" horiz-adv-x="1169" 
d="M1081 414l-93 32l-1 -7q-22 -177 -171 -252q-34 -17 -81 -30q-54 -17 -98 -19v996q286 -14 346 -285l2 -8l87 41l-1 5q-26 91 -65 153.5t-110 107.5q-109 71 -259 76v193h-89v-194q-118 -12 -208 -63.5t-144 -132t-81 -179t-27 -213.5q0 -114 27 -212.5t81 -179t144 -132
t208 -63.5v-194h89v193q72 3 129 20q37 12 85 35q192 94 229 307zM548 1131v-991q-266 31 -340 307q-26 93 -26 188q0 96 20.5 177.5t63 148.5t114.5 111t168 59z" />
    <glyph glyph-name="sterling" unicode="&#xa3;" horiz-adv-x="1327" 
d="M1239 377h-93v-6q0 -234 -215 -234q-72 0 -125.5 24t-120.5 77q54 84 54 197q0 82 -23 144.5t-73 138.5h402v92h-471q-51 73 -105 164q-45 80 -45 172q0 157 95.5 244.5t254.5 87.5q140 0 220.5 -80t90.5 -220v-9l93 38l-1 5q-15 170 -122.5 262.5t-280.5 92.5
q-196 0 -321 -114t-125 -307q0 -151 103 -298q9 -12 27 -38h-235v-92h301q61 -79 90 -142.5t29 -146.5q0 -69 -32 -131q-70 54 -130 77.5t-144 23.5q-49 0 -78 -6q-38 -7 -80.5 -30.5t-63.5 -51.5q-27 -38 -27 -91q0 -90 87 -137q65 -36 148 -36q186 0 304 119q5 -4 55 -40
q61 -42 118.5 -60.5t130.5 -18.5q145 0 226.5 77.5t81.5 221.5v31zM557 227q-95 -90 -234 -90q-53 0 -96 20t-43 63q0 33 30.5 55t68.5 27q36 4 56 4q65 0 114 -18.5t104 -60.5z" />
    <glyph glyph-name="currency" unicode="&#xa4;" horiz-adv-x="1294" 
d="M158 250l223 222q114 -85 265 -85q164 0 268 89l224 -226l68 67l-227 227q78 111 78 269q0 157 -74 262l223 223l-68 66l-219 -218q-108 92 -273 92q-166 0 -273 -92l-215 218l-70 -68l220 -219q-73 -105 -73 -264q0 -160 78 -269l-225 -225zM960 813
q0 -150 -82.5 -243.5t-231.5 -93.5q-81 0 -150 32.5t-110 96.5q-17 26 -32 72q-24 69 -24 136q0 149 83.5 240.5t232.5 91.5q152 0 233 -90t81 -242z" />
    <glyph glyph-name="yen" unicode="&#xa5;" horiz-adv-x="1318" 
d="M613 354v-285h94v285h447v92h-447v173h447v90h-409l485 837h-112l-458 -805l-457 805h-115l488 -837h-407v-90h444v-173h-444v-92h444z" />
    <glyph glyph-name="brokenbar" unicode="&#xa6;" horiz-adv-x="270" 
d="M88 1696v-847h94v847h-94zM88 555v-847h94v847h-94z" />
    <glyph glyph-name="section" unicode="&#xa7;" horiz-adv-x="1213" 
d="M980 438q145 86 145 233q0 72 -27 123.5t-86 93.5q-23 18 -47 30q-85 44 -285 70q-38 5 -104 19q-46 9 -82 19.5t-76 29.5t-66 42.5t-43.5 60.5t-17.5 82q0 62 28.5 109.5t76.5 74.5t103.5 40t115.5 13q62 0 108.5 -7t93.5 -25.5t79 -56t47 -94.5l2 -8l85 57l-1 4
q-26 66 -69 111t-100 67.5t-115 31.5t-130 9q-62 0 -121 -11.5t-113.5 -37t-95 -63t-65 -93t-24.5 -123.5q0 -154 121 -236q-72 -27 -119 -61t-80 -94q-30 -52 -30 -119q0 -84 42 -140.5t122 -99.5q66 -36 144 -51q111 -22 136 -26q133 -20 197 -39q115 -37 163 -104
q32 -45 32 -110q0 -64 -28.5 -111.5t-76.5 -73.5t-103.5 -38.5t-117.5 -12.5t-109 7t-93 25t-78.5 56t-48.5 94l-2 8l-81 -57l1 -4q42 -123 160 -174q108 -45 251 -45q82 0 146 15q40 10 86 30q90 42 138.5 114t48.5 169q0 160 -121 238q12 4 29 10q12 5 55 29zM958 809
q73 -47 73 -138q0 -47 -23.5 -85.5t-63.5 -64t-81.5 -42t-89.5 -27.5l-6 3q-53 19 -123 34q-38 8 -125 23l-12 2q-65 12 -100 21q-10 3 -44 14q-58 16 -91 34q-34 20 -57 48q-31 37 -31 98q0 74 52.5 123.5t134.5 75.5q10 4 35 11t32 7q2 -1 3 -1l10 -3l6 -2t5 -1.5t4 -1.5
l2 -1q11 -3 34 -8t35 -8q68 -16 128 -24q211 -32 293 -87z" />
    <glyph glyph-name="dieresis" unicode="&#xa8;" horiz-adv-x="752" 
d="M100 1402q0 -34 22 -55.5t56 -21.5q37 0 57.5 20t20.5 57q0 35 -21 56.5t-57 21.5q-37 0 -57.5 -20.5t-20.5 -57.5zM496 1402q0 -33 23 -55t56 -22q37 0 57 20t20 57q0 36 -21 57t-56 21t-57 -22t-22 -56z" />
    <glyph glyph-name="copyright" unicode="&#xa9;" horiz-adv-x="1709" 
d="M88 807q0 -168 55.5 -309.5t155 -240.5t242.5 -154.5t313 -55.5q346 0 556.5 208.5t210.5 551.5q0 346 -209 553t-558 207q-228 0 -402 -94t-269 -267t-95 -399zM1524 807q0 -195 -83.5 -347.5t-236 -237.5t-350.5 -85q-197 0 -350.5 85t-237.5 237.5t-84 347.5
q0 147 49 272t136 212.5t212.5 137t274.5 49.5q301 0 485.5 -186t184.5 -485zM553 743q0 -73 19.5 -139.5t56.5 -121t99 -87t140 -32.5q102 0 174.5 54t112.5 151l2 4l-76 50l-3 -6q-33 -81 -81 -122t-128 -41q-113 0 -170.5 85.5t-57.5 204.5v120q0 77 21.5 139.5t74.5 105
t131 42.5q81 0 129 -40t81 -121l3 -7l76 51l-2 4q-84 205 -287 205q-80 0 -142 -32t-99 -86.5t-55.5 -121t-18.5 -140.5v-119z" />
    <glyph glyph-name="ordfeminine" unicode="&#xaa;" horiz-adv-x="663" 
d="M593 1352q0 108 -65 177t-174 69q-111 0 -175 -69.5t-64 -180.5v-34h81q-107 -54 -107 -167q0 -88 61 -138t151 -50q122 0 201 65v-55h90v6q0 63 0.5 189t0.5 188zM206 1319v26q0 71 39.5 115t108.5 44q68 0 106.5 -40.5t41.5 -108.5h-111q-107 0 -185 -36zM502 1266
v-102q-2 -4 -6 -11t-7 -10l-13 -19q-62 -76 -175 -76q-47 0 -84 27t-37 70q0 44 38 72.5t83 38.5t92 10h109z" />
    <glyph glyph-name="guillemotleft" unicode="&#xab;" horiz-adv-x="884" 
d="M88 747l330 -452h123l-333 452l333 450h-123zM342 747l331 -452h123l-334 452l334 450h-123z" />
    <glyph glyph-name="logicalnot" unicode="&#xac;" horiz-adv-x="1205" 
d="M1021 732v-284h96v374h-1029v-90h933z" />
    <glyph glyph-name="uni00AD" unicode="&#xad;" horiz-adv-x="841" 
d="M88 804v-95h665v95h-665z" />
    <glyph glyph-name="registered" unicode="&#xae;" horiz-adv-x="1709" 
d="M88 807q0 -168 55.5 -309.5t155 -240.5t242.5 -154.5t313 -55.5q346 0 556.5 208.5t210.5 551.5q0 346 -209 553t-558 207q-228 0 -402 -94t-269 -267t-95 -399zM1524 807q0 -195 -83.5 -347.5t-236 -237.5t-350.5 -85q-197 0 -350.5 85t-237.5 237.5t-84 347.5
q0 147 49 272t136 212.5t212.5 137t274.5 49.5q301 0 485.5 -186t184.5 -485zM610 359h93v429h179l201 -429h101l-203 439q87 20 138.5 75.5t51.5 142.5q0 62 -25.5 108t-69 72t-94 38t-108.5 12h-264v-887zM703 878l-1 277h172q205 0 205 -139q0 -138 -205 -138h-171z" />
    <glyph glyph-name="macron" unicode="&#xaf;" horiz-adv-x="882" 
d="M100 1457v-91h682v91h-682z" />
    <glyph glyph-name="degree" unicode="&#xb0;" horiz-adv-x="757" 
d="M88 1711q0 -130 80.5 -211t211.5 -81q129 0 209 82t80 210q0 130 -79 210.5t-210 80.5t-211.5 -80.5t-80.5 -210.5zM577 1711q0 -95 -51 -149.5t-146 -54.5q-90 0 -144 57t-54 147t54 147t144 57q95 0 146 -54.5t51 -149.5z" />
    <glyph glyph-name="plusminus" unicode="&#xb1;" horiz-adv-x="1205" 
d="M558 841v-544h91v544h468v91h-468v532h-91v-532h-470v-91h470zM88 158v-89h1029v89h-1029z" />
    <glyph glyph-name="uni00B2" unicode="&#xb2;" horiz-adv-x="608" 
d="M102 1040v-66h420v87h-287l126 145q29 34 44.5 53.5t39 54.5t34.5 67.5t11 65.5q0 90 -54 140t-146 50q-85 0 -143.5 -59.5t-58.5 -144.5v-33h87v33q0 49 33 83t82 34q112 0 112 -103q0 -65 -99 -174z" />
    <glyph glyph-name="uni00B3" unicode="&#xb3;" horiz-adv-x="581" 
d="M90 1159q0 -88 56.5 -138.5t145.5 -50.5q96 0 157.5 50t61.5 143q0 97 -84 149q67 50 67 136q0 88 -57.5 138.5t-147.5 50.5q-88 0 -144.5 -51t-56.5 -138q0 -7 1 -21t1 -21v-6h87v6q0 5 -0.5 15t-0.5 15q-2 114 113 114q48 0 83 -27.5t35 -72.5q0 -46 -34 -71t-83 -25
h-98l7 -87h91q54 0 93.5 -28t39.5 -78q0 -49 -37.5 -76.5t-90.5 -27.5q-52 0 -85 25.5t-33 74.5q0 4 1 12.5t1 12.5v24h-87v-6q0 -7 -1 -20.5t-1 -20.5z" />
    <glyph glyph-name="acute" unicode="&#xb4;" horiz-adv-x="515" 
d="M312 1670l-219 -376h106l224 376h-111z" />
    <glyph glyph-name="uni00B5" unicode="&#xb5;" horiz-adv-x="1091" 
d="M88 1194v-1573h96v562q56 -67 137 -101.5t172 -34.5q125 0 236.5 51t180.5 148v-177h93v1125h-93v-671q0 -108 -57.5 -197.5t-151.5 -139.5t-202 -50q-148 0 -231.5 87.5t-83.5 234.5v736h-96z" />
    <glyph glyph-name="paragraph" unicode="&#xb6;" horiz-adv-x="1109" 
d="M591 -146h95v1602h240v-1602h95v1692h-410q-146 0 -262.5 -52t-188.5 -159t-72 -254q0 -157 92 -276t245 -165q70 -21 166 -26v-760zM591 1455v-749q-176 8 -291.5 106.5t-115.5 268.5q0 130 71 220.5t199 129.5q68 21 137 24z" />
    <glyph glyph-name="periodcentered" unicode="&#xb7;" horiz-adv-x="338" 
d="M88 798q0 -32 24 -56t57 -24q34 0 57.5 23.5t23.5 56.5q0 34 -23.5 58t-57.5 24t-57.5 -24t-23.5 -58z" />
    <glyph glyph-name="cedilla" unicode="&#xb8;" horiz-adv-x="659" 
d="M106 -331q48 -65 101.5 -90.5t135.5 -25.5q100 0 160.5 55.5t60.5 153.5q0 90 -51 152.5t-139 108.5q-5 4 -32 16q-11 6 -19 9q-3 3 -7 3q0 1 -2 1l-3 1h-66l-13 -51l4 -3q14 -6 40 -20l2 -2h2h1l46 -27l39 -24q45 -33 75 -76.5t30 -89.5q0 -56 -35 -88t-93 -32
q-105 0 -178 104l-5 8l-57 -79z" />
    <glyph glyph-name="uni00B9" unicode="&#xb9;" horiz-adv-x="391" 
d="M217 1483v-488h86l-1 621h-70l-144 -135l50 -70z" />
    <glyph glyph-name="ordmasculine" unicode="&#xba;" horiz-adv-x="587" 
d="M526 1345q0 107 -62.5 174t-169.5 67q-94 0 -156 -52.5t-76 -144.5l-3 4l1 -16q0 -5 -0.5 -16t-0.5 -16q0 -23 0.5 -71.5t0.5 -73.5q0 -106 63 -171.5t170 -65.5t170 65.5t63 171.5v145zM438 1339v-130q0 -69 -39 -114t-107 -45t-106 44.5t-38 114.5v130q0 71 37.5 114.5
t106.5 43.5t107.5 -44t38.5 -114z" />
    <glyph glyph-name="guillemotright" unicode="&#xbb;" horiz-adv-x="884" 
d="M422 747l-334 -452h123l331 452l-331 450h-123zM676 747l-336 -452h125l331 452l-331 450h-125z" />
    <glyph glyph-name="questiondown" unicode="&#xbf;" horiz-adv-x="1103" 
d="M482 1122q0 -35 23 -58.5t58 -23.5q34 0 57 24t23 58t-23 57t-57 23q-35 0 -58 -23t-23 -57zM88 91q0 -189 123 -291.5t316 -102.5q443 0 487 407l1 5l-85 37l-1 -8q-28 -185 -121.5 -268t-280.5 -83q-150 0 -247.5 79.5t-97.5 224.5q0 209 153 316q34 24 86 44
q93 42 184 66l3 1v356h-94v-289q-73 -23 -126 -46t-106.5 -57.5t-93.5 -84t-68 -114.5q-32 -76 -32 -192z" />
    <glyph glyph-name="Agrave" unicode="&#xc0;" horiz-adv-x="1478" 
d="M801 1711h103l-217 377h-113zM88 0h109l223 597h639l224 -597h107l-600 1605h-102zM457 695l282 770l283 -770h-565z" />
    <glyph glyph-name="Aacute" unicode="&#xc1;" horiz-adv-x="1478" 
d="M577 1728h106l224 377h-111zM88 0h109l223 597h639l224 -597h107l-600 1605h-102zM457 695l282 770l283 -770h-565z" />
    <glyph glyph-name="Acircumflex" unicode="&#xc2;" horiz-adv-x="1478" 
d="M396 1728h115l199 258l200 -258h112l-277 367h-70zM88 0h109l223 597h639l224 -597h107l-600 1605h-102zM457 695l282 770l283 -770h-565z" />
    <glyph glyph-name="Atilde" unicode="&#xc3;" horiz-adv-x="1478" 
d="M442 1796h95l1 5q11 59 12 62q7 31 22 59q13 23 48 23q22 0 34 -6q14 -7 40 -38q55 -63 85 -80q36 -23 84 -23q129 0 166 160q3 10 10 60q1 4 2 11.5t2 11.5l1 7h-94l-1 -5q-11 -59 -12 -62q-8 -34 -22 -59q-14 -23 -52 -23q-15 0 -35 11t-31 24q-1 1 -2.5 3.5t-2.5 3.5
q-2 4 -5 8l-3 5l-3 3l-2 2l-2 2l-2 2q-59 83 -152 83q-128 0 -166 -160q-2 -7 -10 -60q-1 -4 -2 -11.5t-2 -11.5zM88 0h109l223 597h639l224 -597h107l-600 1605h-102zM457 695l282 770l283 -770h-565z" />
    <glyph glyph-name="Adieresis" unicode="&#xc4;" horiz-adv-x="1478" 
d="M464 1836q0 -33 21.5 -54.5t55.5 -21.5q37 0 57 20t20 56t-20.5 57t-56.5 21q-37 0 -57 -20.5t-20 -57.5zM859 1836q0 -33 23 -54.5t57 -21.5q37 0 56.5 20t19.5 56q0 35 -20.5 56.5t-55.5 21.5t-57.5 -21.5t-22.5 -56.5zM88 0h109l223 597h639l224 -597h107l-600 1605
h-102zM457 695l282 770l283 -770h-565z" />
    <glyph glyph-name="Aring" unicode="&#xc5;" horiz-adv-x="1478" 
d="M533 1947q0 -87 59 -144.5t147 -57.5q94 0 151 55t57 147t-57 147t-151 55q-88 0 -147 -57.5t-59 -144.5zM852 1947q0 -50 -31.5 -81.5t-81.5 -31.5q-48 0 -79 32.5t-31 80.5t30.5 79t79.5 31q50 0 81.5 -30.5t31.5 -79.5zM88 0h109l223 597h639l224 -597h107l-600 1605
h-102zM457 695l282 770l283 -770h-565z" />
    <glyph glyph-name="AE" unicode="&#xc6;" horiz-adv-x="1768" 
d="M1674 1509v97h-990v-6v-3v-1l-596 -1596h109l223 597h264v-596l990 3v99h-887v710h632l3 101h-638v595h890zM684 695h-227l227 619v-619z" />
    <glyph glyph-name="Ccedilla" unicode="&#xc7;" horiz-adv-x="1278" 
d="M1104 382q-129 -304 -434 -304q-99 0 -181 34.5t-137.5 92.5t-93.5 136.5t-55.5 165t-17.5 178.5v237q0 93 17 179t54.5 164t93 135.5t137.5 91.5t182 34q306 0 435 -304l3 -7l83 56l-2 4q-75 169 -205.5 260t-313.5 91q-175 0 -307 -89.5t-205 -250.5q-69 -156 -69 -366
v-235q0 -95 17.5 -186t54 -178.5t99.5 -160.5t146 -117q56 -30 149 -53q36 -19 59 -32t56 -36.5t53 -45.5t34.5 -53t14.5 -63q0 -56 -35.5 -88t-93.5 -32q-106 0 -178 104l-5 8l-55 -79l2 -3q46 -66 99.5 -91.5t136.5 -25.5q100 0 160.5 55.5t60.5 153.5q0 137 -125 220
q158 16 271 107t179 242l2 4l-83 54z" />
    <glyph glyph-name="Egrave" unicode="&#xc8;" horiz-adv-x="1165" 
d="M417 2088l227 -377h102l-216 377h-113zM88 1605v-1605l989 3v99h-887v710h632l3 101h-638v595h890v97h-989z" />
    <glyph glyph-name="Eacute" unicode="&#xc9;" horiz-adv-x="1165" 
d="M639 2105l-219 -377h106l224 377h-111zM88 1605v-1605l989 3v99h-887v710h632l3 101h-638v595h890v97h-989z" />
    <glyph glyph-name="Ecircumflex" unicode="&#xca;" horiz-adv-x="1165" 
d="M518 2095l-278 -367h114l200 258l199 -258h113l-277 367h-71zM88 1605v-1605l989 3v99h-887v710h632l3 101h-638v595h890v97h-989z" />
    <glyph glyph-name="Edieresis" unicode="&#xcb;" horiz-adv-x="1165" 
d="M306 1836q0 -33 22 -54.5t56 -21.5q37 0 57.5 20t20.5 56q0 35 -21 56.5t-57 21.5q-37 0 -57.5 -20.5t-20.5 -57.5zM702 1836q0 -33 22.5 -54.5t56.5 -21.5q38 0 58 19.5t20 56.5q0 35 -21 56.5t-57 21.5q-35 0 -57 -22t-22 -56zM88 1605v-1605l989 3v99h-887v710h632
l3 101h-638v595h890v97h-989z" />
    <glyph glyph-name="Igrave" unicode="&#xcc;" horiz-adv-x="315" 
d="M-41 2111l230 -381h106l-218 381h-118zM5 1606v-1606h107l-3 1606h-104z" />
    <glyph glyph-name="Iacute" unicode="&#xcd;" horiz-adv-x="307" 
d="M208 2105l-219 -377h106l224 377h-111zM100 1605v-1605h101l-3 1605h-98z" />
    <glyph glyph-name="Icircumflex" unicode="&#xce;" horiz-adv-x="310" 
d="M120 2095l-278 -367h115l199 258l200 -258h112l-277 367h-71zM133 1605v-1605h102l-3 1605h-99z" />
    <glyph glyph-name="Idieresis" unicode="&#xcf;" horiz-adv-x="268" 
d="M-142 1836q0 -34 22 -55t56 -21q37 0 57 20t20 56t-20.5 57t-56.5 21q-37 0 -57.5 -20.5t-20.5 -57.5zM253 1836q0 -33 23.5 -54.5t56.5 -21.5q36 0 56.5 20t20.5 56q0 35 -21 56.5t-56 21.5t-57.5 -22t-22.5 -56zM83 1605v-1605h102l-3 1605h-99z" />
    <glyph glyph-name="Ntilde" unicode="&#xd1;" horiz-adv-x="1177" 
d="M295 1796h95l1 5q9 51 12 62q7 30 22 59q13 23 49 23q22 0 34 -6q14 -8 40 -38q56 -65 83 -80q36 -23 85 -23q130 0 167 160q3 10 10 60q1 4 2 11.5t2 11.5l1 7h-95l-1 -5q-1 -4 -5 -27t-7 -35q-12 -42 -22 -59q-14 -23 -52 -23q-15 0 -35 11t-32 24q-4 6 -5 7q0 1 -5 8
l-6 8q-1 1 -5 7q-59 82 -152 82q-129 0 -166 -161q-2 -7 -10 -59q0 -4 -2 -11.5t-2 -11.5zM98 1578v-1578h102l-2 1383l790 -1365v-18h101v1605h-99l-2 -1379l-798 1379h-102l3 -8q0 -2 4 -10q2 -6 2 -7l1 -1v-1z" />
    <glyph glyph-name="Ograve" unicode="&#xd2;" 
d="M730 1711h104l-217 377h-112zM88 685q0 -107 21.5 -208t68 -192t113.5 -158.5t164.5 -107.5t213.5 -40q119 0 217 39t165 106t113 157.5t67 191.5t21 211v235q0 109 -21 210t-67 192.5t-113 158.5t-165 106.5t-217 39.5q-175 0 -306.5 -89t-205.5 -250q-69 -156 -69 -367
v-235zM1154 684q0 -94 -16.5 -180t-54 -164.5t-92.5 -136t-137.5 -91.5t-183.5 -34q-99 0 -181 34.5t-137.5 92.5t-93.5 136.5t-55.5 165t-17.5 178.5v237q0 93 17 179t54.5 164t93 135.5t137.5 91.5t182 34q150 0 260 -74.5t168 -212.5q57 -136 57 -318v-237z" />
    <glyph glyph-name="Oacute" unicode="&#xd3;" 
d="M508 1728h105l225 377h-112zM88 685q0 -107 21.5 -208t68 -192t113.5 -158.5t164.5 -107.5t213.5 -40q119 0 217 39t165 106t113 157.5t67 191.5t21 211v235q0 109 -21 210t-67 192.5t-113 158.5t-165 106.5t-217 39.5q-175 0 -306.5 -89t-205.5 -250q-69 -156 -69 -367
v-235zM1154 684q0 -94 -16.5 -180t-54 -164.5t-92.5 -136t-137.5 -91.5t-183.5 -34q-99 0 -181 34.5t-137.5 92.5t-93.5 136.5t-55.5 165t-17.5 178.5v237q0 93 17 179t54.5 164t93 135.5t137.5 91.5t182 34q150 0 260 -74.5t168 -212.5q57 -136 57 -318v-237z" />
    <glyph glyph-name="Ocircumflex" unicode="&#xd4;" 
d="M326 1728h115l199 258l200 -258h112l-276 367h-70zM88 685q0 -107 21.5 -208t68 -192t113.5 -158.5t164.5 -107.5t213.5 -40q119 0 217 39t165 106t113 157.5t67 191.5t21 211v235q0 109 -21 210t-67 192.5t-113 158.5t-165 106.5t-217 39.5q-175 0 -306.5 -89
t-205.5 -250q-69 -156 -69 -367v-235zM1154 684q0 -94 -16.5 -180t-54 -164.5t-92.5 -136t-137.5 -91.5t-183.5 -34q-99 0 -181 34.5t-137.5 92.5t-93.5 136.5t-55.5 165t-17.5 178.5v237q0 93 17 179t54.5 164t93 135.5t137.5 91.5t182 34q150 0 260 -74.5t168 -212.5
q57 -136 57 -318v-237z" />
    <glyph glyph-name="Otilde" unicode="&#xd5;" 
d="M372 1796h96l1 5q11 59 12 62q6 30 21 59q13 23 49 23q22 0 34 -6q11 -6 21 -17l18 -21q55 -63 85 -80q36 -23 84 -23q131 0 166 160q2 10 10 60q1 4 2 11.5t2 11.5l1 7h-95v-5q-8 -77 -34 -121q-14 -23 -52 -23q-15 0 -34.5 11t-31.5 24q-1 1 -2.5 3.5t-2.5 3.5
q-1 3 -5 9q-2 2 -3 4l-3 3l-6 6q-59 83 -151 83q-129 0 -167 -160q-2 -7 -10 -60q-1 -4 -2 -11.5t-2 -11.5zM88 685q0 -107 21.5 -208t68 -192t113.5 -158.5t164.5 -107.5t213.5 -40q119 0 217 39t165 106t113 157.5t67 191.5t21 211v235q0 109 -21 210t-67 192.5
t-113 158.5t-165 106.5t-217 39.5q-175 0 -306.5 -89t-205.5 -250q-69 -156 -69 -367v-235zM1154 684q0 -94 -16.5 -180t-54 -164.5t-92.5 -136t-137.5 -91.5t-183.5 -34q-99 0 -181 34.5t-137.5 92.5t-93.5 136.5t-55.5 165t-17.5 178.5v237q0 93 17 179t54.5 164t93 135.5
t137.5 91.5t182 34q150 0 260 -74.5t168 -212.5q57 -136 57 -318v-237z" />
    <glyph glyph-name="Odieresis" unicode="&#xd6;" 
d="M394 1836q0 -33 21.5 -54.5t55.5 -21.5q38 0 58 19.5t20 56.5q0 35 -21 56.5t-57 21.5q-37 0 -57 -20.5t-20 -57.5zM789 1836q0 -33 23.5 -54.5t56.5 -21.5q37 0 57 20t20 56t-20.5 57t-56.5 21q-35 0 -57.5 -22t-22.5 -56zM88 685q0 -107 21.5 -208t68 -192
t113.5 -158.5t164.5 -107.5t213.5 -40q119 0 217 39t165 106t113 157.5t67 191.5t21 211v235q0 109 -21 210t-67 192.5t-113 158.5t-165 106.5t-217 39.5q-175 0 -306.5 -89t-205.5 -250q-69 -156 -69 -367v-235zM1154 684q0 -94 -16.5 -180t-54 -164.5t-92.5 -136
t-137.5 -91.5t-183.5 -34q-99 0 -181 34.5t-137.5 92.5t-93.5 136.5t-55.5 165t-17.5 178.5v237q0 93 17 179t54.5 164t93 135.5t137.5 91.5t182 34q150 0 260 -74.5t168 -212.5q57 -136 57 -318v-237z" />
    <glyph glyph-name="multiply" unicode="&#xd7;" horiz-adv-x="1032" 
d="M88 415l74 -73l354 355l356 -355l71 73l-353 354l354 355l-72 71l-356 -354l-354 353l-74 -70l356 -355z" />
    <glyph glyph-name="Oslash" unicode="&#xd8;" 
d="M329 -160h100l56 167q88 -28 184 -28q119 0 217 39t165 106t113 157.5t67 191.5t21 211v235q0 187 -65 353t-204 261l27 85h-99l-13 -37q-98 45 -229 45q-175 0 -307 -89.5t-205 -250.5q-69 -156 -69 -366v-235q0 -93 17.5 -183.5t53 -176.5t96.5 -159t142 -119z
M866 1486l-438 -1343q-124 82 -183.5 229t-59.5 313v237q0 93 17 179t54.5 164t93 135.5t137.5 91.5t182 34q110 0 197 -40zM1154 684q0 -94 -16.5 -180t-54 -164.5t-92.5 -136t-137.5 -91.5t-183.5 -34q-80 0 -154 25l435 1334q107 -83 155 -221.5t48 -294.5v-237z" />
    <glyph glyph-name="Ugrave" unicode="&#xd9;" 
d="M505 2088l225 -377h104l-217 377h-112zM88 685q0 -107 21.5 -208t68 -192t113.5 -158.5t164.5 -107.5t213.5 -40q119 0 217 39t165 106t113 157.5t67 191.5t21 211v921h-98v-921q0 -94 -16.5 -180t-54 -164.5t-92.5 -136t-137.5 -91.5t-183.5 -34q-99 0 -181 34.5
t-137.5 92.5t-93.5 136.5t-55.5 165t-17.5 178.5v920h-97v-920z" />
    <glyph glyph-name="Uacute" unicode="&#xda;" 
d="M726 2105l-218 -377h105l225 377h-112zM88 685q0 -107 21.5 -208t68 -192t113.5 -158.5t164.5 -107.5t213.5 -40q119 0 217 39t165 106t113 157.5t67 191.5t21 211v921h-98v-921q0 -94 -16.5 -180t-54 -164.5t-92.5 -136t-137.5 -91.5t-183.5 -34q-99 0 -181 34.5
t-137.5 92.5t-93.5 136.5t-55.5 165t-17.5 178.5v920h-97v-920z" />
    <glyph glyph-name="Ucircumflex" unicode="&#xdb;" 
d="M606 2095l-280 -367h115l199 258l200 -258h112l-276 367h-70zM88 685q0 -107 21.5 -208t68 -192t113.5 -158.5t164.5 -107.5t213.5 -40q119 0 217 39t165 106t113 157.5t67 191.5t21 211v921h-98v-921q0 -94 -16.5 -180t-54 -164.5t-92.5 -136t-137.5 -91.5t-183.5 -34
q-99 0 -181 34.5t-137.5 92.5t-93.5 136.5t-55.5 165t-17.5 178.5v920h-97v-920z" />
    <glyph glyph-name="Udieresis" unicode="&#xdc;" 
d="M394 1836q0 -33 21.5 -54.5t55.5 -21.5q38 0 58 19.5t20 56.5q0 35 -21 56.5t-57 21.5q-37 0 -57 -20.5t-20 -57.5zM789 1836q0 -33 23.5 -54.5t56.5 -21.5q37 0 57 20t20 56t-20.5 57t-56.5 21q-35 0 -57.5 -22t-22.5 -56zM88 685q0 -107 21.5 -208t68 -192
t113.5 -158.5t164.5 -107.5t213.5 -40q119 0 217 39t165 106t113 157.5t67 191.5t21 211v921h-98v-921q0 -94 -16.5 -180t-54 -164.5t-92.5 -136t-137.5 -91.5t-183.5 -34q-99 0 -181 34.5t-137.5 92.5t-93.5 136.5t-55.5 165t-17.5 178.5v920h-97v-920z" />
    <glyph glyph-name="Yacute" unicode="&#xdd;" horiz-adv-x="1301" 
d="M707 2105l-219 -377h106l224 377h-111zM601 808v-808h96v807l516 798h-123l-440 -706l-444 706h-118z" />
    <glyph glyph-name="germandbls" unicode="&#xdf;" horiz-adv-x="1149" 
d="M88 1178l1 -1602h102v6q-1 361 -1 1084q0 86 -1 258.5t-1 258.5q0 154 105 243t264 89q99 0 184 -39.5t138.5 -117t53.5 -175.5q0 -99 -53.5 -173t-137.5 -110t-183 -36h-59v-98h59q80 0 154 -23t133 -65.5t94 -109.5t35 -149q0 -109 -58 -188t-148 -116t-199 -37
q-21 0 -63 4l-7 1v-102h5q19 -2 55 -2q106 0 198 28t164 81.5t113 140t41 196.5q0 137 -79.5 239.5t-210.5 151.5q113 50 179 145t66 217q0 204 -133.5 320.5t-340.5 116.5q-208 0 -338.5 -116.5t-130.5 -320.5z" />
    <glyph glyph-name="agrave" unicode="&#xe0;" horiz-adv-x="1086" 
d="M707 1268l-215 375h-113l226 -375h102zM997 682h1v6q0 80 -10 139t-41 119q-55 107 -153.5 161.5t-223.5 54.5q-201 0 -315.5 -126t-114.5 -326v-29h98v6q0 164 85 267t247 103q122 0 209.5 -67.5t111.5 -185.5q8 -38 8 -103v-18h-257q-93 0 -176 -13.5t-170.5 -54.5
t-139.5 -106q-68 -86 -68 -198q0 -103 52.5 -180t136.5 -115t187 -38q276 0 435 189v-168h98v683zM899 585v-251l-1 -1v-1l-3 -7q-3 -6 -11 -20q-15 -26 -19 -30q-65 -100 -170 -149.5t-231 -49.5q-109 0 -193 64t-84 167q0 62 31 111.5t79 80t110.5 50.5t121.5 28t116 8
h254z" />
    <glyph glyph-name="aacute" unicode="&#xe1;" horiz-adv-x="1086" 
d="M710 1658h-110l-218 -373h106zM997 682h1v6q0 80 -10 139t-41 119q-55 107 -153.5 161.5t-223.5 54.5q-201 0 -315.5 -126t-114.5 -326v-29h98v6q0 164 85 267t247 103q122 0 209.5 -67.5t111.5 -185.5q8 -38 8 -103v-18h-257q-93 0 -176 -13.5t-170.5 -54.5t-139.5 -106
q-68 -86 -68 -198q0 -103 52.5 -180t136.5 -115t187 -38q276 0 435 189v-168h98v683zM899 585v-251l-1 -1v-1l-3 -7q-3 -6 -11 -20q-15 -26 -19 -30q-65 -100 -170 -149.5t-231 -49.5q-109 0 -193 64t-84 167q0 62 31 111.5t79 80t110.5 50.5t121.5 28t116 8h254z" />
    <glyph glyph-name="acircumflex" unicode="&#xe2;" horiz-adv-x="1086" 
d="M515 1540l198 -255h112l-275 365h-70l-277 -365h113zM997 682h1v6q0 80 -10 139t-41 119q-55 107 -153.5 161.5t-223.5 54.5q-201 0 -315.5 -126t-114.5 -326v-29h98v6q0 164 85 267t247 103q122 0 209.5 -67.5t111.5 -185.5q8 -38 8 -103v-18h-257q-93 0 -176 -13.5
t-170.5 -54.5t-139.5 -106q-68 -86 -68 -198q0 -103 52.5 -180t136.5 -115t187 -38q276 0 435 189v-168h98v683zM899 585v-251l-1 -1v-1l-3 -7q-3 -6 -11 -20q-15 -26 -19 -30q-65 -100 -170 -149.5t-231 -49.5q-109 0 -193 64t-84 167q0 62 31 111.5t79 80t110.5 50.5
t121.5 28t116 8h254z" />
    <glyph glyph-name="atilde" unicode="&#xe3;" horiz-adv-x="1086" 
d="M249 1348h94l1 5q10 55 12 63q6 31 21 59q14 21 48 21q23 0 36 -8.5t33 -29.5q4 -5 16 -18.5t19 -20.5q15 -16 39 -35q46 -34 98 -34q129 0 165 159q2 10 10 61q1 4 2 11.5t2 11.5l1 7h-94l-1 -5q-1 -6 -5 -28.5t-7 -34.5q-8 -36 -23 -58q-14 -22 -50 -22
q-16 0 -36.5 11.5t-31.5 25.5q-1 2 -4 5q0 2 -1 2q0 1 -2 5q-2 2 -3 4l-3 3q-2 2 -6 7q-60 83 -151 83q-129 0 -165 -159l-9 -60q-1 -4 -2.5 -12t-1.5 -12zM997 682h1v6q0 80 -10 139t-41 119q-55 107 -153.5 161.5t-223.5 54.5q-201 0 -315.5 -126t-114.5 -326v-29h98v6
q0 164 85 267t247 103q122 0 209.5 -67.5t111.5 -185.5q8 -38 8 -103v-18h-257q-93 0 -176 -13.5t-170.5 -54.5t-139.5 -106q-68 -86 -68 -198q0 -103 52.5 -180t136.5 -115t187 -38q276 0 435 189v-168h98v683zM899 585v-251l-1 -1v-1l-3 -7q-3 -6 -11 -20q-15 -26 -19 -30
q-65 -100 -170 -149.5t-231 -49.5q-109 0 -193 64t-84 167q0 62 31 111.5t79 80t110.5 50.5t121.5 28t116 8h254z" />
    <glyph glyph-name="adieresis" unicode="&#xe4;" horiz-adv-x="1086" 
d="M346 1469q-37 0 -57 -20.5t-20 -56.5q0 -32 22 -54.5t55 -22.5q37 0 57 20.5t20 56.5q0 37 -20 57t-57 20zM741 1469q-35 0 -57 -21.5t-22 -55.5q0 -33 23 -55t56 -22q37 0 57 20.5t20 56.5q0 35 -20.5 56t-56.5 21zM997 682h1v6q0 80 -10 139t-41 119
q-55 107 -153.5 161.5t-223.5 54.5q-201 0 -315.5 -126t-114.5 -326v-29h98v6q0 164 85 267t247 103q122 0 209.5 -67.5t111.5 -185.5q8 -38 8 -103v-18h-257q-93 0 -176 -13.5t-170.5 -54.5t-139.5 -106q-68 -86 -68 -198q0 -103 52.5 -180t136.5 -115t187 -38
q276 0 435 189v-168h98v683zM899 585v-251l-1 -1v-1l-3 -7q-3 -6 -11 -20q-15 -26 -19 -30q-65 -100 -170 -149.5t-231 -49.5q-109 0 -193 64t-84 167q0 62 31 111.5t79 80t110.5 50.5t121.5 28t116 8h254z" />
    <glyph glyph-name="aring" unicode="&#xe5;" horiz-adv-x="1086" 
d="M338 1501q0 -86 59.5 -142.5t146.5 -56.5q92 0 148.5 54t56.5 145q0 92 -56.5 146.5t-148.5 54.5q-88 0 -147 -57t-59 -144zM434 1501q0 49 30.5 79.5t79.5 30.5t80 -30.5t31 -79.5q0 -48 -31 -79.5t-80 -31.5q-47 0 -78.5 32t-31.5 79zM997 682h1v6q0 80 -10 139
t-41 119q-55 107 -153.5 161.5t-223.5 54.5q-201 0 -315.5 -126t-114.5 -326v-29h98v6q0 164 85 267t247 103q122 0 209.5 -67.5t111.5 -185.5q8 -38 8 -103v-18h-257q-93 0 -176 -13.5t-170.5 -54.5t-139.5 -106q-68 -86 -68 -198q0 -103 52.5 -180t136.5 -115t187 -38
q276 0 435 189v-168h98v683zM899 585v-251l-1 -1v-1l-3 -7q-3 -6 -11 -20q-15 -26 -19 -30q-65 -100 -170 -149.5t-231 -49.5q-109 0 -193 64t-84 167q0 62 31 111.5t79 80t110.5 50.5t121.5 28t116 8h254z" />
    <glyph glyph-name="ae" unicode="&#xe6;" horiz-adv-x="1839" 
d="M997 589h754v6q0 146 -3 181q-8 98 -49 175q-53 106 -148 158.5t-218 52.5q-271 0 -382 -217q-2 -4 -3 -5q-7 9 -73 82q-65 70 -81 86q-4 3 -12 7q-2 1 -12 5q-91 42 -200 42q-201 0 -315.5 -126t-114.5 -326v-29h98v6q0 164 85 267t247 103q122 0 209 -67.5t112 -185.5
q8 -38 8 -103v-18h-257q-93 0 -176.5 -14t-170 -54.5t-139.5 -105.5q-68 -86 -68 -198q0 -103 52.5 -180t136.5 -115t187 -38q276 0 435 189v-168h98v136q120 -149 331 -149q125 0 223 57.5t152 166.5l3 5l-77 63l-3 -6q-98 -185 -299 -185q-119 0 -207.5 68.5t-113.5 183.5
q-9 45 -9 108v142zM998 687v1q0 88 8 124q25 116 113 185t208 69t207.5 -69t112.5 -184q9 -44 9 -106v-20h-658zM899 585v-251l-1 -1v-1l-3 -7q-3 -6 -11 -20q-15 -26 -19 -30q-65 -100 -170 -149.5t-231 -49.5q-109 0 -193 64t-84 167q0 62 31 111.5t79 80t110.5 50.5
t121.5 28t116 8h254z" />
    <glyph glyph-name="ccedilla" unicode="&#xe7;" horiz-adv-x="981" 
d="M89 686v-247q0 -144 52 -242q68 -129 193 -183q21 -9 51 -18q1 0 4 -1t5 -1t8 -2q2 0 6 -3l6 -3q1 -1 2 -1.5t2 -0.5q5 -3 10 -5q2 -2 4 -2l1 -1q10 -6 22 -12l24 -13q142 -84 142 -189q0 -57 -34.5 -88t-92.5 -31q-108 0 -178 103l-5 8l-54 -79l3 -4q47 -64 99.5 -89.5
t134.5 -25.5q99 0 159 55t60 153q0 73 -32.5 125.5t-93.5 96.5q205 30 303 219l3 5l-78 64l-3 -7q-97 -184 -298 -184q-120 0 -208 68.5t-113 183.5q-9 39 -9 107v260q0 110 40 189q41 84 116.5 127t173.5 43q200 0 298 -185l3 -7l78 64l-3 5q-56 110 -154 167t-224 57
q-195 0 -309.5 -127t-114.5 -322v-27h1z" />
    <glyph glyph-name="egrave" unicode="&#xe8;" horiz-adv-x="1026" 
d="M575 1268h102l-216 375h-112zM141 202q114 -216 374 -216q125 0 222.5 57.5t152.5 166.5l3 5l-78 63l-3 -6q-98 -185 -298 -185q-120 0 -208 68.5t-113 183.5q-9 39 -9 108v142h754v6q0 146 -3 181q-11 100 -48 175q-107 211 -371 211q-204 0 -316 -123.5t-112 -326.5
q0 -45 0.5 -134.5t0.5 -133.5q0 -146 52 -242zM843 687h-659q0 70 7 114t33 95q40 84 116 127t174 43q119 0 207 -69t113 -184q9 -44 9 -106v-20z" />
    <glyph glyph-name="eacute" unicode="&#xe9;" horiz-adv-x="1026" 
d="M352 1285h106l222 373h-110zM141 202q114 -216 374 -216q125 0 222.5 57.5t152.5 166.5l3 5l-78 63l-3 -6q-98 -185 -298 -185q-120 0 -208 68.5t-113 183.5q-9 39 -9 108v142h754v6q0 146 -3 181q-11 100 -48 175q-107 211 -371 211q-204 0 -316 -123.5t-112 -326.5
q0 -45 0.5 -134.5t0.5 -133.5q0 -146 52 -242zM843 687h-659q0 70 7 114t33 95q40 84 116 127t174 43q119 0 207 -69t113 -184q9 -44 9 -106v-20z" />
    <glyph glyph-name="ecircumflex" unicode="&#xea;" horiz-adv-x="1026" 
d="M173 1285h113l199 255l197 -255h113l-275 365h-70zM141 202q114 -216 374 -216q125 0 222.5 57.5t152.5 166.5l3 5l-78 63l-3 -6q-98 -185 -298 -185q-120 0 -208 68.5t-113 183.5q-9 39 -9 108v142h754v6q0 146 -3 181q-11 100 -48 175q-107 211 -371 211
q-204 0 -316 -123.5t-112 -326.5q0 -45 0.5 -134.5t0.5 -133.5q0 -146 52 -242zM843 687h-659q0 70 7 114t33 95q40 84 116 127t174 43q119 0 207 -69t113 -184q9 -44 9 -106v-20z" />
    <glyph glyph-name="edieresis" unicode="&#xeb;" horiz-adv-x="1026" 
d="M239 1392q0 -33 21.5 -55t54.5 -22q37 0 57 20.5t20 56.5t-20 56.5t-57 20.5q-76 0 -76 -77zM631 1392q0 -33 23 -55t56 -22q37 0 57 20.5t20 56.5q0 35 -20.5 56t-56.5 21q-35 0 -57 -21.5t-22 -55.5zM141 202q114 -216 374 -216q125 0 222.5 57.5t152.5 166.5l3 5
l-78 63l-3 -6q-98 -185 -298 -185q-120 0 -208 68.5t-113 183.5q-9 39 -9 108v142h754v6q0 146 -3 181q-11 100 -48 175q-107 211 -371 211q-204 0 -316 -123.5t-112 -326.5q0 -45 0.5 -134.5t0.5 -133.5q0 -146 52 -242zM843 687h-659q0 70 7 114t33 95q40 84 116 127
t174 43q119 0 207 -69t113 -184q9 -44 9 -106v-20z" />
    <glyph glyph-name="igrave" unicode="&#xec;" horiz-adv-x="366" 
d="M19 1643l225 -375h103l-215 375h-113zM134 1161v-1161h98v1161h-98z" />
    <glyph glyph-name="iacute" unicode="&#xed;" horiz-adv-x="366" 
d="M237 1658l-218 -373h106l222 373h-110zM131 1161v-1161h98v1161h-98z" />
    <glyph glyph-name="icircumflex" unicode="&#xee;" horiz-adv-x="367" 
d="M149 1650l-277 -365h114l198 255l199 -255h111l-275 365h-70zM163 1161v-1161h99v1161h-99z" />
    <glyph glyph-name="idieresis" unicode="&#xef;" horiz-adv-x="325" 
d="M-112 1392q0 -32 22 -54.5t55 -22.5q37 0 57.5 20t20.5 57q0 36 -21 56.5t-57 20.5q-37 0 -57 -20.5t-20 -56.5zM281 1392q0 -33 23 -55t56 -22q36 0 56 20.5t20 56.5q0 35 -20.5 56t-55.5 21t-57 -21.5t-22 -55.5zM113 1161v-1161h99v1161h-99z" />
    <glyph glyph-name="ntilde" unicode="&#xf1;" horiz-adv-x="1035" 
d="M401 1598q-40 0 -71 -16t-49 -38.5t-30.5 -59t-17.5 -63.5t-10 -66l-1 -7h93l1 5l12 63q9 37 21 59q14 21 49 21q23 0 36 -8.5t33 -29.5l35 -39q19 -21 39 -35q46 -34 98 -34q129 0 165 159q2 9 10 61q0 4 2 11.5t2 11.5l1 7h-94l-1 -5q-7 -39 -13 -63q-8 -36 -22 -58
t-50 -22q-16 0 -36.5 11.5t-31.5 25.5q-1 1 -2 2.5t-2 2.5v1l-1 1q0 2 -2 4l-3 5l-3 3q-2 2 -6 7q-60 83 -151 83zM88 1159v-1159h95v6v701q0 40 13 98q29 123 112.5 190.5t210.5 67.5q121 0 209 -68.5t113 -185.5q9 -42 9 -105v-702l95 -3v6q0 119 1 358t1 359
q0 193 -117 317t-311 124q-213 0 -336 -149v145h-95z" />
    <glyph glyph-name="ograve" unicode="&#xf2;" horiz-adv-x="1027" 
d="M677 1268l-216 375h-112l226 -375h102zM89 688q0 -44 -0.5 -131t-0.5 -130q0 -128 53 -228q111 -211 374 -211q204 0 313.5 124t109.5 329v247h1v28q0 197 -112.5 320t-309.5 123q-201 0 -315 -122t-114 -322v-27h1zM843 704v-260q0 -158 -86.5 -259t-242.5 -101
q-121 0 -208.5 69t-112.5 185q-9 38 -9 106v260q0 159 86.5 259t243.5 100q120 0 207.5 -68.5t112.5 -185.5q9 -42 9 -105z" />
    <glyph glyph-name="oacute" unicode="&#xf3;" horiz-adv-x="1027" 
d="M680 1658h-110l-218 -373h106zM89 688q0 -44 -0.5 -131t-0.5 -130q0 -128 53 -228q111 -211 374 -211q204 0 313.5 124t109.5 329v247h1v28q0 197 -112.5 320t-309.5 123q-201 0 -315 -122t-114 -322v-27h1zM843 704v-260q0 -158 -86.5 -259t-242.5 -101
q-121 0 -208.5 69t-112.5 185q-9 38 -9 106v260q0 159 86.5 259t243.5 100q120 0 207.5 -68.5t112.5 -185.5q9 -42 9 -105z" />
    <glyph glyph-name="ocircumflex" unicode="&#xf4;" horiz-adv-x="1027" 
d="M485 1540l197 -255h113l-275 365h-70l-277 -365h113zM89 688q0 -44 -0.5 -131t-0.5 -130q0 -128 53 -228q111 -211 374 -211q204 0 313.5 124t109.5 329v247h1v28q0 197 -112.5 320t-309.5 123q-201 0 -315 -122t-114 -322v-27h1zM843 704v-260q0 -158 -86.5 -259
t-242.5 -101q-121 0 -208.5 69t-112.5 185q-9 38 -9 106v260q0 159 86.5 259t243.5 100q120 0 207.5 -68.5t112.5 -185.5q9 -42 9 -105z" />
    <glyph glyph-name="otilde" unicode="&#xf5;" horiz-adv-x="1027" 
d="M218 1348h93l1 5q10 55 12 63q8 33 22 59q14 21 48 21q23 0 36 -8.5t33 -29.5q4 -5 16 -18.5t19 -20.5q15 -16 39 -35q46 -34 98 -34q129 0 165 159q2 9 10 61q0 4 2 11.5t2 11.5l1 7h-94l-1 -5q-1 -6 -5 -28.5t-7 -34.5q-8 -37 -23 -58q-14 -22 -50 -22q-16 0 -36 11.5
t-32 25.5q-1 2 -4 5q0 2 -1 2q0 1 -2 5q-2 2 -3 4l-3 3q-2 2 -6 7q-60 83 -151 83q-128 0 -164 -159q-3 -10 -10 -60q0 -4 -1.5 -12t-2.5 -12zM89 688q0 -44 -0.5 -131t-0.5 -130q0 -128 53 -228q111 -211 374 -211q204 0 313.5 124t109.5 329v247h1v28q0 197 -112.5 320
t-309.5 123q-201 0 -315 -122t-114 -322v-27h1zM843 704v-260q0 -158 -86.5 -259t-242.5 -101q-121 0 -208.5 69t-112.5 185q-9 38 -9 106v260q0 159 86.5 259t243.5 100q120 0 207.5 -68.5t112.5 -185.5q9 -42 9 -105z" />
    <glyph glyph-name="odieresis" unicode="&#xf6;" horiz-adv-x="1027" 
d="M316 1469q-76 0 -76 -77q0 -33 21.5 -55t54.5 -22q37 0 57 20.5t20 56.5t-20 56.5t-57 20.5zM711 1469q-35 0 -57 -21.5t-22 -55.5q0 -33 23 -55t56 -22q37 0 57 20.5t20 56.5q0 35 -20.5 56t-56.5 21zM89 688q0 -44 -0.5 -131t-0.5 -130q0 -128 53 -228
q111 -211 374 -211q204 0 313.5 124t109.5 329v247h1v28q0 197 -112.5 320t-309.5 123q-201 0 -315 -122t-114 -322v-27h1zM843 704v-260q0 -158 -86.5 -259t-242.5 -101q-121 0 -208.5 69t-112.5 185q-9 38 -9 106v260q0 159 86.5 259t243.5 100q120 0 207.5 -68.5
t112.5 -185.5q9 -42 9 -105z" />
    <glyph glyph-name="divide" unicode="&#xf7;" horiz-adv-x="1205" 
d="M524 1176q0 -34 21.5 -55.5t56.5 -21.5q77 0 77 77q0 40 -20 58q-18 19 -57 19q-78 0 -78 -77zM88 822v-90h1029v90h-1029zM524 382q0 -35 21.5 -56.5t56.5 -21.5q77 0 77 78q0 40 -20 58q-19 19 -57 19q-78 0 -78 -77z" />
    <glyph glyph-name="oslash" unicode="&#xf8;" horiz-adv-x="1027" 
d="M89 688q0 -44 -0.5 -131t-0.5 -130q0 -119 48.5 -221t144.5 -162l-105 -323h98l95 285q66 -18 146 -18q204 0 313.5 124t109.5 329v247h1v27q0 126 -52.5 231.5t-157.5 165.5l123 373h-100l-113 -340q-55 14 -122 14q-201 0 -315 -122t-114 -322v-27h1zM609 1051
l-295 -905q-130 98 -130 298v260q0 159 86.5 259t243.5 100q50 0 95 -12zM843 704v-260q0 -158 -86.5 -259t-242.5 -101q-60 0 -115 18l298 909q79 -54 112.5 -129t33.5 -178z" />
    <glyph glyph-name="ugrave" unicode="&#xf9;" horiz-adv-x="1034" 
d="M353 1643l226 -375h102l-216 375h-112zM88 441q0 -201 113.5 -328.5t313.5 -127.5q209 0 336 149v-134h95v1162h-95v-720q0 -154 -91.5 -255t-244.5 -101q-121 0 -209 68.5t-113 184.5q-9 45 -9 107v714l-95 3v-6q0 -119 -0.5 -358t-0.5 -358z" />
    <glyph glyph-name="uacute" unicode="&#xfa;" horiz-adv-x="1034" 
d="M574 1658l-218 -373h105l223 373h-110zM88 441q0 -201 113.5 -328.5t313.5 -127.5q209 0 336 149v-134h95v1162h-95v-720q0 -154 -91.5 -255t-244.5 -101q-121 0 -209 68.5t-113 184.5q-9 45 -9 107v714l-95 3v-6q0 -119 -0.5 -358t-0.5 -358z" />
    <glyph glyph-name="ucircumflex" unicode="&#xfb;" horiz-adv-x="1034" 
d="M453 1650l-276 -365h113l199 255l197 -255h113l-275 365h-71zM88 441q0 -201 113.5 -328.5t313.5 -127.5q209 0 336 149v-134h95v1162h-95v-720q0 -154 -91.5 -255t-244.5 -101q-121 0 -209 68.5t-113 184.5q-9 45 -9 107v714l-95 3v-6q0 -119 -0.5 -358t-0.5 -358z" />
    <glyph glyph-name="udieresis" unicode="&#xfc;" horiz-adv-x="1034" 
d="M243 1392q0 -33 21.5 -55t54.5 -22q37 0 57 20.5t20 56.5t-20 56.5t-57 20.5q-76 0 -76 -77zM635 1392q0 -33 23 -55t56 -22q37 0 57 20.5t20 56.5q0 35 -20.5 56t-56.5 21q-35 0 -57 -21.5t-22 -55.5zM88 441q0 -201 113.5 -328.5t313.5 -127.5q209 0 336 149v-134h95
v1162h-95v-720q0 -154 -91.5 -255t-244.5 -101q-121 0 -209 68.5t-113 184.5q-9 45 -9 107v714l-95 3v-6q0 -119 -0.5 -358t-0.5 -358z" />
    <glyph glyph-name="yacute" unicode="&#xfd;" horiz-adv-x="1158" 
d="M631 1658l-218 -373h106l222 373h-110zM93 -456q62 -10 93 -10q153 0 255 92.5t154 245.5q57 173 68 203l407 1087h-105l-373 -993l-373 993h-107l427 -1139l-41 -119q-39 -115 -91.5 -175t-158.5 -88q-30 -8 -59 -8q-1 0 -43 3q-8 2 -9 2q-3 1 -10 1h-20l-19 -72v-4v-5
v-8v-5z" />
    <glyph glyph-name="ydieresis" unicode="&#xff;" horiz-adv-x="1158" 
d="M300 1392q0 -33 22.5 -55t55.5 -22q37 0 57 20.5t20 56.5q0 35 -20.5 56t-56.5 21q-37 0 -57.5 -20t-20.5 -57zM693 1392q0 -33 23 -55t56 -22q37 0 57 20.5t20 56.5t-20 56.5t-57 20.5q-35 0 -57 -21.5t-22 -55.5zM93 -456q62 -10 93 -10q153 0 255 92.5t154 245.5
q57 173 68 203l407 1087h-105l-373 -993l-373 993h-107l427 -1139l-41 -119q-39 -115 -91.5 -175t-158.5 -88q-30 -8 -59 -8q-1 0 -43 3q-8 2 -9 2q-3 1 -10 1h-20l-19 -72v-4v-5v-8v-5z" />
    <glyph glyph-name="Amacron" unicode="&#x100;" horiz-adv-x="1478" 
d="M399 1801h681v89h-681v-89zM88 0h109l223 597h639l224 -597h107l-600 1605h-102zM457 695l282 770l283 -770h-565z" />
    <glyph glyph-name="amacron" unicode="&#x101;" horiz-adv-x="1086" 
d="M882 1446h-676v-90h676v90zM997 682h1v6q0 80 -10 139t-41 119q-55 107 -153.5 161.5t-223.5 54.5q-201 0 -315.5 -126t-114.5 -326v-29h98v6q0 164 85 267t247 103q122 0 209.5 -67.5t111.5 -185.5q8 -38 8 -103v-18h-257q-93 0 -176 -13.5t-170.5 -54.5t-139.5 -106
q-68 -86 -68 -198q0 -103 52.5 -180t136.5 -115t187 -38q276 0 435 189v-168h98v683zM899 585v-251l-1 -1v-1l-3 -7q-3 -6 -11 -20q-15 -26 -19 -30q-65 -100 -170 -149.5t-231 -49.5q-109 0 -193 64t-84 167q0 62 31 111.5t79 80t110.5 50.5t121.5 28t116 8h254z" />
    <glyph glyph-name="Abreve" unicode="&#x102;" horiz-adv-x="1478" 
d="M526 1806q77 -78 213 -78q138 0 214.5 77t76.5 213v30h-90v-6q0 -60 -9.5 -97t-43.5 -71q-54 -53 -148 -53q-92 0 -146 53t-54 144q0 4 0.5 12t0.5 12v6h-91v-6q0 -77 15.5 -134t61.5 -102zM88 0h109l223 597h639l224 -597h107l-600 1605h-102zM457 695l282 770l283 -770
h-565z" />
    <glyph glyph-name="abreve" unicode="&#x103;" horiz-adv-x="1086" 
d="M255 1572q0 -134 76.5 -210.5t212.5 -76.5q134 0 212 77t78 210q0 4 -0.5 12.5t-0.5 12.5v6h-91v-6q0 -57 -10.5 -96.5t-42.5 -71.5q-56 -53 -145 -53q-91 0 -145 53t-54 143q0 4 0.5 12.5t0.5 12.5v6h-90v-6q0 -4 -0.5 -12.5t-0.5 -12.5zM997 682h1v6q0 80 -10 139
t-41 119q-55 107 -153.5 161.5t-223.5 54.5q-201 0 -315.5 -126t-114.5 -326v-29h98v6q0 164 85 267t247 103q122 0 209.5 -67.5t111.5 -185.5q8 -38 8 -103v-18h-257q-93 0 -176 -13.5t-170.5 -54.5t-139.5 -106q-68 -86 -68 -198q0 -103 52.5 -180t136.5 -115t187 -38
q276 0 435 189v-168h98v683zM899 585v-251l-1 -1v-1l-3 -7q-3 -6 -11 -20q-15 -26 -19 -30q-65 -100 -170 -149.5t-231 -49.5q-109 0 -193 64t-84 167q0 62 31 111.5t79 80t110.5 50.5t121.5 28t116 8h254z" />
    <glyph glyph-name="Aogonek" unicode="&#x104;" horiz-adv-x="1475" 
d="M986 -254q0 -97 61.5 -147.5t159.5 -50.5q68 0 101.5 11t99.5 49l5 3l-45 89l-6 -5q-62 -58 -155 -58q-57 0 -92 28t-35 81q0 69 63 125t147 93q13 7 45 23q25 13 46 19l6 2l-597 1597h-102l-600 -1605h109l223 597h639l206 -549q-279 -115 -279 -302zM457 695l282 770
l283 -770h-565z" />
    <glyph glyph-name="aogonek" unicode="&#x105;" horiz-adv-x="1092" 
d="M1031 -386l-44 89l-6 -5q-64 -58 -154 -58q-56 0 -91 27.5t-35 80.5q0 68 63 124t145 92q10 4 39 18.5t46 21.5l3 2v676h1v6q0 80 -10 139t-41 119q-55 107 -153.5 161.5t-223.5 54.5q-201 0 -315.5 -126t-114.5 -326v-29h98v6q0 164 85 267t247 103q123 0 209.5 -67.5
t111.5 -185.5q8 -38 8 -103v-18h-257q-93 0 -176.5 -14t-170 -54.5t-139.5 -105.5q-68 -86 -68 -198q0 -103 52.5 -180t136.5 -115t187 -38q276 0 435 189v-114q-54 -20 -101.5 -46.5t-92.5 -64t-71.5 -87.5t-26.5 -107q0 -96 61 -146.5t159 -50.5q67 0 103 11.5t96 48.5z
M865 275q-65 -100 -170 -149.5t-231 -49.5q-109 0 -193 64t-84 167q0 62 31 111.5t79 80t110.5 50.5t121.5 28t116 8h254v-251l-1 -1v-1l-3 -7q-3 -6 -11 -20q-15 -26 -19 -30z" />
    <glyph glyph-name="Cacute" unicode="&#x106;" horiz-adv-x="1278" 
d="M693 2105l-219 -377h106l224 377h-111zM88 685q0 -107 21.5 -208t68 -192t113.5 -158.5t164.5 -107.5t213.5 -40q184 0 314.5 91t204.5 261l2 4l-83 54l-3 -7q-129 -304 -434 -304q-99 0 -181 34.5t-137.5 92.5t-93.5 136.5t-55.5 165t-17.5 178.5v237q0 93 17 179
t54.5 164t93 135.5t137.5 91.5t182 34q307 0 435 -304l3 -7l83 56l-2 4q-75 169 -205.5 260t-313.5 91q-175 0 -307 -89.5t-205 -250.5q-69 -154 -69 -366v-235z" />
    <glyph glyph-name="cacute" unicode="&#x107;" horiz-adv-x="981" 
d="M545 1658l-218 -373h105l222 373h-109zM89 686v-247q0 -144 52 -242q114 -216 374 -216q125 0 222.5 57.5t152.5 166.5l3 5l-78 64l-3 -7q-97 -184 -298 -184q-120 0 -207.5 68.5t-113.5 183.5q-9 39 -9 107v260q0 110 40 189q41 84 116.5 127t173.5 43q200 0 298 -185
l3 -7l78 64l-3 5q-56 110 -154 167t-224 57q-195 0 -309.5 -127t-114.5 -322v-27h1z" />
    <glyph glyph-name="Ccircumflex" unicode="&#x108;" horiz-adv-x="1278" 
d="M572 2095l-279 -367h115l199 258l200 -258h113l-278 367h-70zM88 685q0 -107 21.5 -208t68 -192t113.5 -158.5t164.5 -107.5t213.5 -40q184 0 314.5 91t204.5 261l2 4l-83 54l-3 -7q-129 -304 -434 -304q-99 0 -181 34.5t-137.5 92.5t-93.5 136.5t-55.5 165t-17.5 178.5
v237q0 93 17 179t54.5 164t93 135.5t137.5 91.5t182 34q307 0 435 -304l3 -7l83 56l-2 4q-75 169 -205.5 260t-313.5 91q-175 0 -307 -89.5t-205 -250.5q-69 -154 -69 -366v-235z" />
    <glyph glyph-name="ccircumflex" unicode="&#x109;" horiz-adv-x="981" 
d="M424 1650l-277 -365h114l198 255l198 -255h112l-274 365h-71zM89 686v-247q0 -144 52 -242q114 -216 374 -216q125 0 222.5 57.5t152.5 166.5l3 5l-78 64l-3 -7q-97 -184 -298 -184q-120 0 -207.5 68.5t-113.5 183.5q-9 39 -9 107v260q0 110 40 189q41 84 116.5 127
t173.5 43q200 0 298 -185l3 -7l78 64l-3 5q-56 110 -154 167t-224 57q-195 0 -309.5 -127t-114.5 -322v-27h1z" />
    <glyph glyph-name="Cdotaccent" unicode="&#x10a;" horiz-adv-x="1278" 
d="M559 1856q0 -33 21.5 -55t54.5 -22q37 0 57.5 20.5t20.5 56.5t-21 56.5t-57 20.5q-37 0 -56.5 -20t-19.5 -57zM88 685q0 -107 21.5 -208t68 -192t113.5 -158.5t164.5 -107.5t213.5 -40q184 0 314.5 91t204.5 261l2 4l-83 54l-3 -7q-129 -304 -434 -304q-99 0 -181 34.5
t-137.5 92.5t-93.5 136.5t-55.5 165t-17.5 178.5v237q0 93 17 179t54.5 164t93 135.5t137.5 91.5t182 34q307 0 435 -304l3 -7l83 56l-2 4q-75 169 -205.5 260t-313.5 91q-175 0 -307 -89.5t-205 -250.5q-69 -154 -69 -366v-235z" />
    <glyph glyph-name="cdotaccent" unicode="&#x10b;" horiz-adv-x="981" 
d="M410 1412q0 -34 22 -55.5t56 -21.5q37 0 57 20.5t20 56.5q0 35 -21 55.5t-56 20.5q-37 0 -57.5 -19.5t-20.5 -56.5zM89 686v-247q0 -144 52 -242q114 -216 374 -216q125 0 222.5 57.5t152.5 166.5l3 5l-78 64l-3 -7q-97 -184 -298 -184q-120 0 -207.5 68.5t-113.5 183.5
q-9 39 -9 107v260q0 110 40 189q41 84 116.5 127t173.5 43q200 0 298 -185l3 -7l78 64l-3 5q-56 110 -154 167t-224 57q-195 0 -309.5 -127t-114.5 -322v-27h1z" />
    <glyph glyph-name="Ccaron" unicode="&#x10c;" horiz-adv-x="1278" 
d="M322 2095l280 -367h70l277 367h-113l-200 -258l-199 258h-115zM88 685q0 -107 21.5 -208t68 -192t113.5 -158.5t164.5 -107.5t213.5 -40q184 0 314.5 91t204.5 261l2 4l-83 54l-3 -7q-129 -304 -434 -304q-99 0 -181 34.5t-137.5 92.5t-93.5 136.5t-55.5 165t-17.5 178.5
v237q0 93 17 179t54.5 164t93 135.5t137.5 91.5t182 34q307 0 435 -304l3 -7l83 56l-2 4q-75 169 -205.5 260t-313.5 91q-175 0 -307 -89.5t-205 -250.5q-69 -154 -69 -366v-235z" />
    <glyph glyph-name="ccaron" unicode="&#x10d;" horiz-adv-x="981" 
d="M177 1650l276 -365h71l275 365h-113l-197 -256l-199 256h-113zM89 686v-247q0 -144 52 -242q114 -216 374 -216q125 0 222.5 57.5t152.5 166.5l3 5l-78 64l-3 -7q-97 -184 -298 -184q-120 0 -207.5 68.5t-113.5 183.5q-9 39 -9 107v260q0 110 40 189q41 84 116.5 127
t173.5 43q200 0 298 -185l3 -7l78 64l-3 5q-56 110 -154 167t-224 57q-195 0 -309.5 -127t-114.5 -322v-27h1z" />
    <glyph glyph-name="Dcaron" unicode="&#x10e;" horiz-adv-x="1281" 
d="M606 1728h71l276 367h-112l-200 -258l-199 258h-115zM88 1605v-1605h6q519 3 521 3q141 0 254 58t182 155.5t105.5 218t36.5 253.5v228q0 108 -23 208.5t-71 188t-116.5 152.5t-166 102.5t-213.5 37.5h-515zM601 99q-3 0 -411 3l-3 1406h408q81 0 174 -31
q86 -31 150.5 -89.5t101.5 -134.5t55 -159.5t18 -174.5v-231q0 -94 -18 -179.5t-57.5 -160.5t-96 -130t-139 -87t-182.5 -32z" />
    <glyph glyph-name="dcaron" unicode="&#x10f;" horiz-adv-x="1387" 
d="M1147 1297q72 38 112 102.5t40 145.5q0 127 -99 127q-35 0 -57 -20.5t-22 -55.5q0 -31 22 -55t53 -24q11 0 17 2q-4 -31 -21 -63.5t-40 -50.5q-33 -28 -98 -34l-16 -2l106 -74zM851 1593v-579q-124 149 -336 149q-198 0 -312.5 -125t-114.5 -323v-288q0 -193 117 -318.5
t310 -125.5q211 0 336 150v-133h95v1593h-95zM851 707v-267q0 -34 -12 -94q-29 -124 -113 -193t-211 -69q-120 0 -208.5 69t-113.5 185q-9 45 -9 106v260q0 159 87 259t244 100q120 0 202 -61t115 -175q19 -64 19 -120z" />
    <glyph glyph-name="Emacron" unicode="&#x112;" horiz-adv-x="1165" 
d="M243 1890v-89h681v89h-681zM88 1605v-1605l989 3v99h-887v710h632l3 101h-638v595h890v97h-989z" />
    <glyph glyph-name="emacron" unicode="&#x113;" horiz-adv-x="1026" 
d="M175 1356h676v90h-676v-90zM141 202q114 -216 374 -216q125 0 222.5 57.5t152.5 166.5l3 5l-78 63l-3 -6q-98 -185 -298 -185q-120 0 -208 68.5t-113 183.5q-9 39 -9 108v142h754v6q0 146 -3 181q-11 100 -48 175q-107 211 -371 211q-204 0 -316 -123.5t-112 -326.5
q0 -45 0.5 -134.5t0.5 -133.5q0 -146 52 -242zM843 687h-659q0 70 7 114t33 95q40 84 116 127t174 43q119 0 207 -69t113 -184q9 -44 9 -106v-20z" />
    <glyph glyph-name="Ebreve" unicode="&#x114;" horiz-adv-x="1165" 
d="M369 1806q77 -78 214 -78t214 77t77 213v30h-92v-6q0 -59 -9.5 -96t-43.5 -72q-53 -53 -146 -53q-92 0 -146.5 53t-54.5 144q0 4 0.5 12t0.5 12v6h-91v-6q0 -77 15.5 -134t61.5 -102zM88 1605v-1605l989 3v99h-887v710h632l3 101h-638v595h890v97h-989z" />
    <glyph glyph-name="ebreve" unicode="&#x115;" horiz-adv-x="1026" 
d="M300 1361q76 -76 213 -76q135 0 212 76.5t77 210.5q0 4 -0.5 12.5t-0.5 12.5v6h-91v-6q0 -61 -9 -97.5t-43 -70.5q-53 -53 -145 -53t-146 53t-54 143q0 4 0.5 12.5t0.5 12.5v6h-90v-6q0 -79 14.5 -134t61.5 -102zM141 202q114 -216 374 -216q125 0 222.5 57.5
t152.5 166.5l3 5l-78 63l-3 -6q-98 -185 -298 -185q-120 0 -208 68.5t-113 183.5q-9 39 -9 108v142h754v6q0 146 -3 181q-11 100 -48 175q-107 211 -371 211q-204 0 -316 -123.5t-112 -326.5q0 -45 0.5 -134.5t0.5 -133.5q0 -146 52 -242zM843 687h-659q0 70 7 114t33 95
q40 84 116 127t174 43q119 0 207 -69t113 -184q9 -44 9 -106v-20z" />
    <glyph glyph-name="Edotaccent" unicode="&#x116;" horiz-adv-x="1165" 
d="M506 1856q0 -33 21.5 -55t55.5 -22q37 0 57 20.5t20 56.5t-21 56.5t-56 20.5q-37 0 -57 -20t-20 -57zM88 1605v-1605l989 3v99h-887v710h632l3 101h-638v595h890v97h-989z" />
    <glyph glyph-name="edotaccent" unicode="&#x117;" horiz-adv-x="1026" 
d="M436 1412q0 -34 21.5 -55.5t55.5 -21.5q37 0 57 20t20 57q0 35 -20.5 55.5t-56.5 20.5q-77 0 -77 -76zM141 202q114 -216 374 -216q125 0 222.5 57.5t152.5 166.5l3 5l-78 63l-3 -6q-98 -185 -298 -185q-120 0 -208 68.5t-113 183.5q-9 39 -9 108v142h754v6q0 146 -3 181
q-11 100 -48 175q-107 211 -371 211q-204 0 -316 -123.5t-112 -326.5q0 -45 0.5 -134.5t0.5 -133.5q0 -146 52 -242zM843 687h-659q0 70 7 114t33 95q40 84 116 127t174 43q119 0 207 -69t113 -184q9 -44 9 -106v-20z" />
    <glyph glyph-name="Eogonek" unicode="&#x118;" horiz-adv-x="1165" 
d="M187 1508h890v97h-989v-1605l412 1q-16 -9 -55 -40q-3 -3 -9.5 -8.5t-11.5 -10t-9 -8.5q-79 -74 -79 -176q0 -97 61.5 -147.5t159.5 -50.5q69 0 103.5 11t97.5 49l5 3l-44 89l-6 -5q-64 -58 -156 -58q-57 0 -92 28t-35 81q0 65 58 120t133 89q46 22 69 32l3 2q2 0 3 1
l381 1v99h-887v710h632l3 101h-638v595z" />
    <glyph glyph-name="eogonek" unicode="&#x119;" horiz-adv-x="1026" 
d="M277 -241q0 -95 60.5 -145.5t158.5 -50.5q68 0 103.5 11t96.5 49l5 3l-44 88l-6 -5q-64 -57 -155 -57q-56 0 -90.5 27t-34.5 80q0 79 97 153q51 38 124 71q1 0 16 7l16 7q8 3 33 11t39 14q128 57 194 188l3 5l-78 63l-3 -6q-98 -185 -298 -185q-120 0 -208 68.5
t-113 183.5q-9 39 -9 108v142h754v6q0 146 -3 181q-8 96 -48 175q-107 211 -371 211q-204 0 -316 -123.5t-112 -326.5q0 -45 0.5 -134.5t0.5 -133.5q0 -148 52 -242q97 -176 285 -209q-149 -97 -149 -234zM843 687h-659q0 70 7 114t33 95q40 84 116 127t174 43
q119 0 207 -69t113 -184q9 -44 9 -106v-20z" />
    <glyph glyph-name="Ecaron" unicode="&#x11a;" horiz-adv-x="1165" 
d="M269 2095l280 -367h70l278 367h-114l-199 -258l-200 258h-115zM88 1605v-1605l989 3v99h-887v710h632l3 101h-638v595h890v97h-989z" />
    <glyph glyph-name="ecaron" unicode="&#x11b;" horiz-adv-x="1026" 
d="M479 1285h70l275 365h-112l-198 -256l-199 256h-113zM141 202q114 -216 374 -216q125 0 222.5 57.5t152.5 166.5l3 5l-78 63l-3 -6q-98 -185 -298 -185q-120 0 -208 68.5t-113 183.5q-9 39 -9 108v142h754v6q0 146 -3 181q-11 100 -48 175q-107 211 -371 211
q-204 0 -316 -123.5t-112 -326.5q0 -45 0.5 -134.5t0.5 -133.5q0 -146 52 -242zM843 687h-659q0 70 7 114t33 95q40 84 116 127t174 43q119 0 207 -69t113 -184q9 -44 9 -106v-20z" />
    <glyph glyph-name="Gcircumflex" unicode="&#x11c;" horiz-adv-x="1278" 
d="M572 2095l-279 -367h115l199 258l200 -258h113l-278 367h-70zM88 685q0 -107 21.5 -208t68 -192t113.5 -158.5t164.5 -107.5t213.5 -40h1q300 0 463 248q6 12 25 42l15 27l5 10l1 4q1 1 1 4v577h-532v-93h439v-454q-1 -1 -1 -3l-5 -10q-10 -17 -15 -25t-11 -17
t-9.5 -14.5t-4.5 -7.5q-132 -189 -371 -189q-99 0 -181 34.5t-137.5 92.5t-93.5 136.5t-55.5 165t-17.5 178.5v237q0 93 17 179t54.5 164t93 135.5t137.5 91.5t182 34q307 0 435 -304l3 -7l83 56l-2 4q-75 169 -205.5 260t-313.5 91q-174 0 -306.5 -89.5t-205.5 -250.5
q-69 -156 -69 -366v-235z" />
    <glyph glyph-name="gcircumflex" unicode="&#x11d;" horiz-adv-x="1035" 
d="M178 1285h113l199 255l197 -255h113l-275 365h-71zM110 -121q39 -152 147 -235t266 -83q126 0 226.5 58t151.5 169q46 103 46 250l-1 1124h-98l-1 -143q-123 144 -332 144q-198 0 -312.5 -125t-114.5 -323v-288q0 -193 117 -318.5t310 -125.5q209 0 332 145v-36v-41.5
v-34.5q-2 -65 -13 -116q-28 -121 -138 -193q-72 -46 -174 -46q-128 0 -209.5 67t-114.5 192l-2 7l-87 -44zM826 300q-36 -105 -117 -160.5t-194 -55.5q-121 0 -209 69t-113 185q-9 45 -9 106v260q0 159 87 259t244 100q113 0 194 -55.5t117 -161.5q21 -60 21 -85v-376
q0 -25 -21 -85z" />
    <glyph glyph-name="Gbreve" unicode="&#x11e;" horiz-adv-x="1278" 
d="M422 1806q77 -78 213 -78q138 0 215 77t77 213v30h-92v-6q0 -59 -9.5 -96t-43.5 -72q-53 -53 -147 -53q-92 0 -146 53t-54 144q0 4 0.5 12t0.5 12v6h-91v-6q0 -77 15.5 -134t61.5 -102zM88 685q0 -107 21.5 -208t68 -192t113.5 -158.5t164.5 -107.5t213.5 -40h1
q300 0 463 248q6 12 25 42l15 27l5 10l1 4q1 1 1 4v577h-532v-93h439v-454q-1 -1 -1 -3l-5 -10q-10 -17 -15 -25t-11 -17t-9.5 -14.5t-4.5 -7.5q-132 -189 -371 -189q-99 0 -181 34.5t-137.5 92.5t-93.5 136.5t-55.5 165t-17.5 178.5v237q0 93 17 179t54.5 164t93 135.5
t137.5 91.5t182 34q307 0 435 -304l3 -7l83 56l-2 4q-75 169 -205.5 260t-313.5 91q-174 0 -306.5 -89.5t-205.5 -250.5q-69 -156 -69 -366v-235z" />
    <glyph glyph-name="gbreve" unicode="&#x11f;" horiz-adv-x="1035" 
d="M305 1361q76 -76 213 -76q136 0 212.5 76.5t76.5 210.5q0 4 -0.5 12.5t-0.5 12.5v6h-91v-6q0 -59 -9.5 -96.5t-42.5 -71.5q-53 -53 -145 -53t-146 53t-54 143q0 4 0.5 12.5t0.5 12.5v6h-90v-6q0 -79 14.5 -134t61.5 -102zM110 -121q39 -152 147 -235t266 -83
q126 0 226.5 58t151.5 169q46 103 46 250l-1 1124h-98l-1 -143q-123 144 -332 144q-198 0 -312.5 -125t-114.5 -323v-288q0 -193 117 -318.5t310 -125.5q209 0 332 145v-36v-41.5v-34.5q-2 -65 -13 -116q-28 -121 -138 -193q-72 -46 -174 -46q-128 0 -209.5 67t-114.5 192
l-2 7l-87 -44zM826 300q-36 -105 -117 -160.5t-194 -55.5q-121 0 -209 69t-113 185q-9 45 -9 106v260q0 159 87 259t244 100q113 0 194 -55.5t117 -161.5q21 -60 21 -85v-376q0 -25 -21 -85z" />
    <glyph glyph-name="Gdotaccent" unicode="&#x120;" horiz-adv-x="1278" 
d="M559 1856q0 -33 21.5 -55t54.5 -22q37 0 57.5 20.5t20.5 56.5t-21 56.5t-57 20.5q-37 0 -56.5 -20t-19.5 -57zM88 685q0 -107 21.5 -208t68 -192t113.5 -158.5t164.5 -107.5t213.5 -40h1q300 0 463 248q6 12 25 42l15 27l5 10l1 4q1 1 1 4v577h-532v-93h439v-454
q-1 -1 -1 -3l-5 -10q-10 -17 -15 -25t-11 -17t-9.5 -14.5t-4.5 -7.5q-132 -189 -371 -189q-99 0 -181 34.5t-137.5 92.5t-93.5 136.5t-55.5 165t-17.5 178.5v237q0 93 17 179t54.5 164t93 135.5t137.5 91.5t182 34q307 0 435 -304l3 -7l83 56l-2 4q-75 169 -205.5 260
t-313.5 91q-174 0 -306.5 -89.5t-205.5 -250.5q-69 -156 -69 -366v-235z" />
    <glyph glyph-name="gdotaccent" unicode="&#x121;" horiz-adv-x="1035" 
d="M441 1412q0 -34 21.5 -55.5t55.5 -21.5q37 0 57 20t20 57q0 35 -21 55.5t-56 20.5q-77 0 -77 -76zM110 -121q39 -152 147 -235t266 -83q126 0 226.5 58t151.5 169q46 103 46 250l-1 1124h-98l-1 -143q-123 144 -332 144q-198 0 -312.5 -125t-114.5 -323v-288
q0 -193 117 -318.5t310 -125.5q209 0 332 145v-36v-41.5v-34.5q-2 -65 -13 -116q-28 -121 -138 -193q-72 -46 -174 -46q-128 0 -209.5 67t-114.5 192l-2 7l-87 -44zM826 300q-36 -105 -117 -160.5t-194 -55.5q-121 0 -209 69t-113 185q-9 45 -9 106v260q0 159 87 259
t244 100q113 0 194 -55.5t117 -161.5q21 -60 21 -85v-376q0 -25 -21 -85z" />
    <glyph glyph-name="Hcircumflex" unicode="&#x124;" horiz-adv-x="1167" 
d="M519 2095l-278 -367h114l200 258l199 -258h113l-277 367h-71zM88 1605v-1605h102v812h788v-812h101v1605h-99v-692h-793v692h-99z" />
    <glyph glyph-name="hcircumflex" unicode="&#x125;" horiz-adv-x="1035" 
d="M453 1650l-270 -357v297h-95v-1590h95v6v701q0 40 13 98q29 123 112.5 190.5t210.5 67.5q121 0 209 -68.5t113 -185.5q9 -42 9 -105v-702l95 -3v6q0 119 1 358t1 359q0 193 -117 317t-311 124q-213 0 -336 -149v271h107l199 255l197 -255h113l-275 365h-71z" />
    <glyph glyph-name="Hbar" unicode="&#x126;" horiz-adv-x="1167" 
d="M244 1890v-89h681v89h-681zM88 1605v-1605h102v812h788v-812h101v1605h-99v-692h-793v692h-99z" />
    <glyph glyph-name="hbar" unicode="&#x127;" horiz-adv-x="1035" 
d="M88 1590v-1590h95v6v701q0 40 13 98q29 123 112.5 190.5t210.5 67.5q121 0 209 -68.5t113 -185.5q9 -42 9 -105v-702l95 -3v6q0 119 1 358t1 359q0 193 -117 317t-311 124q-213 0 -336 -149v342h672v90h-672v144h-95z" />
    <glyph glyph-name="Itilde" unicode="&#x128;" horiz-adv-x="275" 
d="M-159 1826q-1 -4 -2 -11.5t-2 -11.5l-1 -7h96l1 5q11 58 12 62q6 32 21 59q14 23 48 23q22 0 34 -6q19 -10 41 -38q3 -3 4 -5q1 -1 2.5 -3.5t2.5 -3.5q45 -51 75 -68q36 -23 84 -23q129 0 166 160q3 10 10 60q1 4 2 11.5t2 11.5l1 7h-93l-1 -5q-8 -42 -13 -62
q-8 -34 -22 -59q-14 -23 -52 -23q-15 0 -34.5 11t-31.5 24q-1 1 -2.5 3.5t-2.5 3.5q-1 3 -5 9q-2 2 -3 4l-3 3q-2 1 -4 3l-2 3q-59 83 -152 83q-128 0 -166 -160q-2 -7 -10 -60zM84 1605v-1605h102l-3 1605h-99z" />
    <glyph glyph-name="itilde" unicode="&#x129;" horiz-adv-x="331" 
d="M-129 1379l-5 -31h95l1 5l12 63q6 34 21 59q14 21 47 21q23 0 36 -8.5t33 -29.5q4 -5 16 -18.5t19 -20.5q15 -16 39 -35q46 -34 99 -34q128 0 164 159q2 10 10 61q0 4 2 11.5t2 11.5l1 7h-92l-1 -5q-15 -88 -36 -121q-14 -22 -50 -22q-16 0 -36.5 11.5t-32.5 25.5
q-1 2 -4 5q0 2 -1 2q0 1 -2 5q-2 2 -3 4l-3 3q-2 2 -6 7q-60 83 -151 83q-126 0 -164 -159q-2 -10 -10 -60zM113 1161v-1161h99v1161h-99z" />
    <glyph glyph-name="Imacron" unicode="&#x12a;" horiz-adv-x="265" 
d="M-208 1890v-89h681v89h-681zM82 1605v-1605h102l-3 1605h-99z" />
    <glyph glyph-name="imacron" unicode="&#x12b;" horiz-adv-x="321" 
d="M-178 1446v-90h676v90h-676zM111 1161v-1161h99v1161h-99z" />
    <glyph glyph-name="Iogonek" unicode="&#x12e;" horiz-adv-x="278" 
d="M-207 -252q0 -98 60.5 -148t159.5 -50q68 0 104.5 11.5t97.5 48.5l5 3l-44 89l-6 -5q-64 -58 -157 -58q-56 0 -90.5 27.5t-34.5 81.5q0 84 108 162q34 25 98 56q38 20 91 42l6 3l-2 5l-1 3q-2 3 -2 4l-2 4l-3 1578h-99v-1552q-90 -34 -151 -80q-5 -3 -14 -10.5t-14 -11.5
l-15 -12q-5 -3 -15 -11q-80 -75 -80 -180z" />
    <glyph glyph-name="iogonek" unicode="&#x12f;" horiz-adv-x="332" 
d="M80 1512q0 -32 24 -56t57 -24q34 0 57 23.5t23 56.5q0 34 -23 57.5t-57 23.5t-57.5 -23.5t-23.5 -57.5zM244 -384l-44 89l-6 -5q-65 -58 -156 -58q-55 0 -89.5 27.5t-34.5 80.5q0 81 96 152q32 24 100.5 60.5t93.5 37.5h6v1161h-99v-1106q-55 -21 -101.5 -47t-92 -63.5
t-71.5 -87.5t-26 -107q0 -97 60 -147t158 -50q68 0 104 11.5t97 48.5zM179 30h3l2 -6l-5 2v3v1z" />
    <glyph glyph-name="Idotaccent" unicode="&#x130;" horiz-adv-x="277" 
d="M61 1856q0 -32 22.5 -54.5t55.5 -22.5q37 0 57 20.5t20 56.5t-20 56.5t-57 20.5t-57.5 -20t-20.5 -57zM88 1605v-1605h102l-3 1605h-99z" />
    <glyph glyph-name="dotlessi" unicode="&#x131;" horiz-adv-x="339" 
d="M120 1161v-1161h99v1161h-99z" />
    <glyph glyph-name="Nacute" unicode="&#x143;" horiz-adv-x="1177" 
d="M537 1728l224 377h-111l-219 -377h106zM98 1578v-1578h102l-2 1383l790 -1365v-18h101v1605h-99l-2 -1379l-798 1379h-102l3 -8q0 -2 4 -10q2 -6 2 -7l1 -1v-1z" />
    <glyph glyph-name="nacute" unicode="&#x144;" horiz-adv-x="1035" 
d="M574 1658l-218 -373h105l223 373h-110zM88 1159v-1159h95v6v701q0 40 13 98q29 123 112.5 190.5t210.5 67.5q121 0 209 -68.5t113 -185.5q9 -42 9 -105v-702l95 -3v6q0 119 1 358t1 359q0 193 -117 317t-311 124q-213 0 -336 -149v145h-95z" />
    <glyph glyph-name="Ncaron" unicode="&#x147;" horiz-adv-x="1177" 
d="M559 1728h70l277 367h-113l-199 -258l-200 258h-115zM98 1578v-1578h102l-2 1383l790 -1365v-18h101v1605h-99l-2 -1379l-798 1379h-102l3 -8q0 -2 4 -10q2 -6 2 -7l1 -1v-1z" />
    <glyph glyph-name="ncaron" unicode="&#x148;" horiz-adv-x="1035" 
d="M206 1650l277 -365h70l275 365h-113l-197 -256l-199 256h-113zM88 1159v-1159h95v6v701q0 40 13 98q29 123 112.5 190.5t210.5 67.5q121 0 209 -68.5t113 -185.5q9 -42 9 -105v-702l95 -3v6q0 119 1 358t1 359q0 193 -117 317t-311 124q-213 0 -336 -149v145h-95z" />
    <glyph glyph-name="napostrophe" unicode="&#x149;" horiz-adv-x="1035" 
d="M88 1159v-1159h95v6v701q0 40 13 98q29 123 112.5 190.5t210.5 67.5q121 0 209 -68.5t113 -185.5q9 -42 9 -105v-702l95 -3v6q0 119 1 358t1 359q0 193 -117 317t-311 124q-213 0 -336 -149v145h-95z" />
    <glyph glyph-name="Omacron" unicode="&#x14c;" 
d="M329 1801h681v89h-681v-89zM88 685q0 -107 21.5 -208t68 -192t113.5 -158.5t164.5 -107.5t213.5 -40q119 0 217 39t165 106t113 157.5t67 191.5t21 211v235q0 109 -21 210t-67 192.5t-113 158.5t-165 106.5t-217 39.5q-175 0 -306.5 -89t-205.5 -250q-69 -156 -69 -367
v-235zM1154 684q0 -94 -16.5 -180t-54 -164.5t-92.5 -136t-137.5 -91.5t-183.5 -34q-99 0 -181 34.5t-137.5 92.5t-93.5 136.5t-55.5 165t-17.5 178.5v237q0 93 17 179t54.5 164t93 135.5t137.5 91.5t182 34q150 0 260 -74.5t168 -212.5q57 -136 57 -318v-237z" />
    <glyph glyph-name="omacron" unicode="&#x14d;" horiz-adv-x="1027" 
d="M852 1446h-676v-90h676v90zM89 688q0 -44 -0.5 -131t-0.5 -130q0 -128 53 -228q111 -211 374 -211q204 0 313.5 124t109.5 329v247h1v28q0 197 -112.5 320t-309.5 123q-201 0 -315 -122t-114 -322v-27h1zM843 704v-260q0 -158 -86.5 -259t-242.5 -101q-121 0 -208.5 69
t-112.5 185q-9 38 -9 106v260q0 159 86.5 259t243.5 100q120 0 207.5 -68.5t112.5 -185.5q9 -42 9 -105z" />
    <glyph glyph-name="Obreve" unicode="&#x14e;" 
d="M457 1806q77 -78 213 -78q137 0 213.5 77t76.5 213v30h-90v-6q0 -60 -9.5 -97t-43.5 -71q-53 -53 -147 -53q-92 0 -146 53t-54 144q0 4 0.5 12t0.5 12v6h-92v-6q0 -77 15.5 -133.5t62.5 -102.5zM88 685q0 -107 21.5 -208t68 -192t113.5 -158.5t164.5 -107.5t213.5 -40
q119 0 217 39t165 106t113 157.5t67 191.5t21 211v235q0 109 -21 210t-67 192.5t-113 158.5t-165 106.5t-217 39.5q-175 0 -306.5 -89t-205.5 -250q-69 -156 -69 -367v-235zM1154 684q0 -94 -16.5 -180t-54 -164.5t-92.5 -136t-137.5 -91.5t-183.5 -34q-99 0 -181 34.5
t-137.5 92.5t-93.5 136.5t-55.5 165t-17.5 178.5v237q0 93 17 179t54.5 164t93 135.5t137.5 91.5t182 34q150 0 260 -74.5t168 -212.5q57 -136 57 -318v-237z" />
    <glyph glyph-name="obreve" unicode="&#x14f;" horiz-adv-x="1027" 
d="M301 1361q76 -76 213 -76q136 0 212.5 76.5t76.5 210.5q0 4 -0.5 12.5t-0.5 12.5v6h-91v-6q0 -61 -9 -97.5t-43 -70.5q-53 -53 -145 -53t-146 53t-54 143q0 4 0.5 12.5t0.5 12.5v6h-90v-6q0 -79 14.5 -134t61.5 -102zM89 688q0 -44 -0.5 -131t-0.5 -130q0 -128 53 -228
q111 -211 374 -211q204 0 313.5 124t109.5 329v247h1v28q0 197 -112.5 320t-309.5 123q-201 0 -315 -122t-114 -322v-27h1zM843 704v-260q0 -158 -86.5 -259t-242.5 -101q-121 0 -208.5 69t-112.5 185q-9 38 -9 106v260q0 159 86.5 259t243.5 100q120 0 207.5 -68.5
t112.5 -185.5q9 -42 9 -105z" />
    <glyph glyph-name="Ohungarumlaut" unicode="&#x150;" 
d="M347 1745h106l224 377h-110zM628 1745h106l224 377h-110zM88 685q0 -107 21.5 -208t68 -192t113.5 -158.5t164.5 -107.5t213.5 -40q119 0 217 39t165 106t113 157.5t67 191.5t21 211v235q0 109 -21 210t-67 192.5t-113 158.5t-165 106.5t-217 39.5q-175 0 -306.5 -89
t-205.5 -250q-69 -156 -69 -367v-235zM1154 684q0 -94 -16.5 -180t-54 -164.5t-92.5 -136t-137.5 -91.5t-183.5 -34q-99 0 -181 34.5t-137.5 92.5t-93.5 136.5t-55.5 165t-17.5 178.5v237q0 93 17 179t54.5 164t93 135.5t137.5 91.5t182 34q150 0 260 -74.5t168 -212.5
q57 -136 57 -318v-237z" />
    <glyph glyph-name="ohungarumlaut" unicode="&#x151;" horiz-adv-x="1027" 
d="M521 1675h-110l-218 -373h105zM578 1302l223 373h-111l-217 -373h105zM89 688q0 -44 -0.5 -131t-0.5 -130q0 -128 53 -228q111 -211 374 -211q204 0 313.5 124t109.5 329v247h1v28q0 197 -112.5 320t-309.5 123q-201 0 -315 -122t-114 -322v-27h1zM843 704v-260
q0 -158 -86.5 -259t-242.5 -101q-121 0 -208.5 69t-112.5 185q-9 38 -9 106v260q0 159 86.5 259t243.5 100q120 0 207.5 -68.5t112.5 -185.5q9 -42 9 -105z" />
    <glyph glyph-name="OE" unicode="&#x152;" horiz-adv-x="2215" 
d="M88 685q0 -107 21.5 -208t68 -192t113.5 -158.5t164.5 -107.5t213.5 -40q157 0 280 70.5t200 203.5v-253l990 3v99h-887v710h631l3 101h-634v6q0 14 -1.5 41t-1.5 41v507h890v97h-990v-256q-78 135 -200 206t-280 71q-175 0 -307 -89.5t-205 -250.5q-69 -156 -69 -366
v-235zM1124 451q-48 -175 -162.5 -274t-291.5 -99q-99 0 -181 34.5t-137.5 92.5t-93.5 136.5t-55.5 165t-17.5 178.5v237q0 93 17 179t54.5 164t93 135.5t137.5 91.5t182 34q150 0 261 -74.5t167 -212.5q29 -68 45 -174q1 -4 2 -9t2 -8.5t1 -7.5q2 -14 2 -23v-430
q0 -42 -25 -136z" />
    <glyph glyph-name="oe" unicode="&#x153;" horiz-adv-x="1747" 
d="M89 688q0 -44 -0.5 -131t-0.5 -130q0 -128 53 -228q111 -211 374 -211q268 0 376 221q54 -110 153 -167t226 -57q124 0 222 58t152 167l3 5l-77 62l-3 -5q-99 -185 -298 -185q-120 0 -209.5 69t-112.5 183q-8 40 -8 108v142h753v6q0 146 -3 181q-10 101 -48 175
q-54 105 -150.5 158t-219.5 53q-275 0 -380 -220q-53 109 -150 163t-224 54q-201 0 -315 -122t-114 -322v-27h1zM1598 687h-659q0 70 7 114t32 95q40 82 117.5 126t173.5 44q118 0 206.5 -69.5t113.5 -183.5q9 -44 9 -106v-20zM843 444q0 -158 -86.5 -259t-242.5 -101
q-121 0 -208.5 69t-112.5 185q-9 38 -9 106v260q0 159 86.5 259t243.5 100q120 0 207.5 -68.5t112.5 -185.5q9 -42 9 -105v-260z" />
    <glyph glyph-name="Rcaron" unicode="&#x158;" horiz-adv-x="1279" 
d="M605 1728h70l277 367h-113l-200 -258l-199 258h-115zM810 823q170 28 272 123.5t102 261.5q0 88 -30.5 157t-80.5 113.5t-119.5 73.5t-142.5 41t-154 12h-569v-1605h102l-1 812h468q31 0 46 1l379 -813h109zM657 908h-468l-2 600h470q289 0 382 -144q46 -73 46 -156
q0 -86 -37 -147t-101.5 -93t-135 -46t-154.5 -14z" />
    <glyph glyph-name="rcaron" unicode="&#x159;" horiz-adv-x="848" 
d="M109 1650l277 -365h71l274 365h-112l-198 -256l-197 256h-115zM88 1159v-1159h95v6v701q0 50 18 117q32 115 114.5 177t203.5 62q99 0 192 -55l6 -4l43 93l-5 3q-110 63 -236 63q-213 0 -336 -149v145h-95z" />
    <glyph glyph-name="Sacute" unicode="&#x15a;" horiz-adv-x="1224" 
d="M669 2105l-219 -377h106l224 377h-111zM89 352q54 -183 192 -278t334 -95q78 0 149.5 15t135.5 47.5t111 80t74.5 116t27.5 150.5q0 79 -28 150q-48 122 -191 204q-57 33 -133 59q-9 3 -134 47q-71 24 -142.5 56.5t-145.5 86t-100 106.5q-30 59 -30 131q0 97 56 166.5
t152 107.5q81 33 194 33q125 0 227 -48.5t159 -148.5q20 -35 34 -76q8 -28 8 -29q1 -3 4 -9t4 -9l3 -7l86 48l-1 4q-47 184 -188.5 280.5t-338.5 96.5q-100 0 -188 -26t-158 -76t-111 -132t-41 -185q0 -218 214 -340q99 -57 273 -118q158 -56 244 -104q174 -96 174 -268
q0 -77 -34.5 -137.5t-92 -96.5t-126.5 -54.5t-144 -18.5q-161 0 -282 78t-150 226v2l-17 17l-81 -47z" />
    <glyph glyph-name="sacute" unicode="&#x15b;" horiz-adv-x="1088" 
d="M603 1658l-219 -373h106l222 373h-109zM179 108q134 -129 368 -129q233 0 362 123q72 66 72 180q0 146 -148 230q-49 28 -137 58q-5 2 -136 39q-98 25 -195 68q-2 1 -16.5 7.5t-15.5 7.5q-39 24 -69 48q-62 51 -62 122q0 61 46 107q14 14 42 32q98 61 259 61
q128 0 232 -52q101 -52 135 -172l2 -7l82 41l-1 4q-15 73 -62 129.5t-112 88.5t-135.5 48t-142.5 16q-60 0 -118 -9t-117 -31.5t-103 -56t-71.5 -87t-27.5 -120.5q0 -82 43 -141q11 -15 38 -38q42 -38 105.5 -69.5t112.5 -48t122 -36.5q72 -20 122 -35.5t119 -51t93 -73.5
q25 -39 25 -87q0 -59 -46 -108q-9 -9 -36 -27q-102 -64 -268 -64q-84 0 -156 20t-130.5 72t-75.5 131l-2 8l-88 -42l1 -5q15 -58 39 -92q16 -24 51 -59z" />
    <glyph glyph-name="Scircumflex" unicode="&#x15c;" horiz-adv-x="1224" 
d="M548 2095l-280 -367h115l200 258l199 -258h114l-278 367h-70zM89 352q54 -183 192 -278t334 -95q78 0 149.5 15t135.5 47.5t111 80t74.5 116t27.5 150.5q0 79 -28 150q-48 122 -191 204q-57 33 -133 59q-9 3 -134 47q-71 24 -142.5 56.5t-145.5 86t-100 106.5
q-30 59 -30 131q0 97 56 166.5t152 107.5q81 33 194 33q125 0 227 -48.5t159 -148.5q20 -35 34 -76q8 -28 8 -29q1 -3 4 -9t4 -9l3 -7l86 48l-1 4q-47 184 -188.5 280.5t-338.5 96.5q-100 0 -188 -26t-158 -76t-111 -132t-41 -185q0 -218 214 -340q99 -57 273 -118
q158 -56 244 -104q174 -96 174 -268q0 -77 -34.5 -137.5t-92 -96.5t-126.5 -54.5t-144 -18.5q-161 0 -282 78t-150 226v2l-17 17l-81 -47z" />
    <glyph glyph-name="scircumflex" unicode="&#x15d;" horiz-adv-x="1088" 
d="M482 1650l-277 -365h113l199 255l198 -255h112l-275 365h-70zM179 108q134 -129 368 -129q233 0 362 123q72 66 72 180q0 146 -148 230q-49 28 -137 58q-5 2 -136 39q-98 25 -195 68q-2 1 -16.5 7.5t-15.5 7.5q-39 24 -69 48q-62 51 -62 122q0 61 46 107q14 14 42 32
q98 61 259 61q128 0 232 -52q101 -52 135 -172l2 -7l82 41l-1 4q-15 73 -62 129.5t-112 88.5t-135.5 48t-142.5 16q-60 0 -118 -9t-117 -31.5t-103 -56t-71.5 -87t-27.5 -120.5q0 -82 43 -141q11 -15 38 -38q42 -38 105.5 -69.5t112.5 -48t122 -36.5q72 -20 122 -35.5
t119 -51t93 -73.5q25 -39 25 -87q0 -59 -46 -108q-9 -9 -36 -27q-102 -64 -268 -64q-84 0 -156 20t-130.5 72t-75.5 131l-2 8l-88 -42l1 -5q15 -58 39 -92q16 -24 51 -59z" />
    <glyph glyph-name="Scedilla" unicode="&#x15e;" horiz-adv-x="1224" 
d="M382 -331q47 -65 100.5 -90.5t136.5 -25.5q99 0 160 56t61 153q0 134 -127 223q174 21 287 127t113 276q0 48 -9.5 91t-24 77t-41 65.5t-50.5 54.5t-62.5 46t-67.5 38t-76 33t-76 28.5t-79 26.5q-71 24 -142.5 56.5t-145.5 86t-100 106.5q-30 59 -30 131q0 97 56 167
t152 107q81 33 194 33q126 0 228.5 -49t158.5 -150q21 -36 35 -80q3 -15 6 -23q1 -3 4 -9t4 -9l3 -7l86 48l-1 4q-47 184 -188.5 280.5t-338.5 96.5q-100 0 -188 -26t-158 -76t-111 -132t-41 -185q0 -218 214 -340q104 -59 273 -118q152 -54 244 -104q174 -96 174 -268
q0 -77 -34.5 -137.5t-92 -96.5t-126.5 -54.5t-144 -18.5q-161 0 -282 78t-150 226v2l-17 17l-81 -47l1 -5q47 -164 165.5 -258.5t292.5 -111.5l6 -3q1 0 3 -1q1 -1 2 -1l46 -27q143 -86 143 -190q0 -56 -35 -88t-93 -32q-106 0 -179 104l-5 8l-56 -79z" />
    <glyph glyph-name="scedilla" unicode="&#x15f;" horiz-adv-x="1088" 
d="M909 101q72 66 72 180q0 93 -50.5 151.5t-143.5 101.5q-42 19 -87 35q-27 9 -79.5 23t-60.5 16q-87 22 -187 65q-2 1 -17.5 7.5t-22.5 10.5q-39 24 -69 48q-62 50 -62 122q0 61 46 107q20 18 36 28q98 65 265 65q128 0 232 -52q101 -52 135 -172l2 -7l82 41l-1 4
q-15 73 -62 129.5t-112 88.5t-135.5 48t-142.5 16q-60 0 -118 -9t-117 -31.5t-103 -56t-71.5 -87t-27.5 -120.5q0 -82 43 -141q13 -16 31 -32q61 -57 147 -93t200 -67q54 -15 88.5 -25.5t91.5 -32t96.5 -47.5t57.5 -55q25 -41 25 -87q0 -59 -46 -108q-14 -14 -40 -29
q-102 -62 -264 -62q-62 0 -118.5 12t-107.5 37t-87 69.5t-49 104.5l-2 8l-88 -42l1 -5q18 -63 39 -92q11 -17 32 -38q87 -95 214 -129q21 -5 93 -17l4 -2q1 0 2.5 -1t2.5 -2t2 -1q7 -5 8 -5q2 -2 6 -2l1 -1l4 -2q7 -5 15 -8l24 -14q5 -3 17 -10t19 -12q45 -33 75.5 -76.5
t30.5 -89.5q0 -56 -34.5 -88t-91.5 -32q-106 0 -178 104l-5 8l-56 -80l3 -4q47 -64 100.5 -89.5t135.5 -25.5q99 0 158.5 55t59.5 154q0 138 -133 226q166 18 272 117z" />
    <glyph glyph-name="Scaron" unicode="&#x160;" horiz-adv-x="1224" 
d="M299 2095l279 -367h70l278 367h-113l-200 -258l-199 258h-115zM89 352q54 -183 192 -278t334 -95q78 0 149.5 15t135.5 47.5t111 80t74.5 116t27.5 150.5q0 79 -28 150q-48 122 -191 204q-57 33 -133 59q-9 3 -134 47q-71 24 -142.5 56.5t-145.5 86t-100 106.5
q-30 59 -30 131q0 97 56 166.5t152 107.5q81 33 194 33q125 0 227 -48.5t159 -148.5q20 -35 34 -76q8 -28 8 -29q1 -3 4 -9t4 -9l3 -7l86 48l-1 4q-47 184 -188.5 280.5t-338.5 96.5q-100 0 -188 -26t-158 -76t-111 -132t-41 -185q0 -218 214 -340q99 -57 273 -118
q158 -56 244 -104q174 -96 174 -268q0 -77 -34.5 -137.5t-92 -96.5t-126.5 -54.5t-144 -18.5q-161 0 -282 78t-150 226v2l-17 17l-81 -47z" />
    <glyph glyph-name="scaron" unicode="&#x161;" horiz-adv-x="1088" 
d="M234 1650l277 -365h70l275 365h-112l-198 -256l-198 256h-114zM179 108q134 -129 368 -129q233 0 362 123q72 66 72 180q0 146 -148 230q-49 28 -137 58q-5 2 -136 39q-98 25 -195 68q-2 1 -16.5 7.5t-15.5 7.5q-39 24 -69 48q-62 51 -62 122q0 61 46 107q14 14 42 32
q98 61 259 61q128 0 232 -52q101 -52 135 -172l2 -7l82 41l-1 4q-15 73 -62 129.5t-112 88.5t-135.5 48t-142.5 16q-60 0 -118 -9t-117 -31.5t-103 -56t-71.5 -87t-27.5 -120.5q0 -82 43 -141q11 -15 38 -38q42 -38 105.5 -69.5t112.5 -48t122 -36.5q72 -20 122 -35.5
t119 -51t93 -73.5q25 -39 25 -87q0 -59 -46 -108q-9 -9 -36 -27q-102 -64 -268 -64q-84 0 -156 20t-130.5 72t-75.5 131l-2 8l-88 -42l1 -5q15 -58 39 -92q16 -24 51 -59z" />
    <glyph glyph-name="Tcaron" unicode="&#x164;" horiz-adv-x="1231" 
d="M301 2095l280 -367h70l278 367h-113l-200 -258l-199 258h-116zM567 1504v-1504h97v1504l479 -1v102h-1055v-102z" />
    <glyph glyph-name="tcaron" unicode="&#x165;" horiz-adv-x="1035" 
d="M794 1297q72 38 112.5 103t40.5 145q0 54 -23.5 90.5t-77.5 36.5q-35 0 -57 -20.5t-22 -55.5q0 -31 22 -55t53 -24q11 0 17 2q-4 -31 -21 -63.5t-40 -50.5q-34 -28 -97 -34l-16 -2l106 -74zM332 1171v422h-97v-422h-147v-98h147l-1 -769q0 -72 11 -125.5t38 -99t79 -69
t129 -23.5h28q31 0 59 3l9 1l-42 98h-4q-39 -3 -40 -3q-50 0 -82 10t-52 43q-34 58 -34 165l-1 769h260v98h-260z" />
    <glyph glyph-name="Utilde" unicode="&#x168;" 
d="M377 1826q-1 -4 -2 -11.5t-2 -11.5l-1 -7h96l1 5q11 59 12 62q6 30 21 59q13 23 49 23q22 0 34 -6q11 -6 21 -17l18 -21q55 -63 85 -80q36 -23 84 -23q131 0 166 160q2 10 10 60q1 4 2 11.5t2 11.5l1 7h-95v-5q-8 -77 -34 -121q-14 -23 -52 -23q-15 0 -34.5 11t-31.5 24
q-1 1 -2.5 3.5t-2.5 3.5q-1 3 -5 9q-2 2 -3 4l-3 3l-6 6q-59 83 -151 83q-129 0 -167 -160q-2 -7 -10 -60zM88 685q0 -107 21.5 -208t68 -192t113.5 -158.5t164.5 -107.5t213.5 -40q119 0 217 39t165 106t113 157.5t67 191.5t21 211v921h-98v-921q0 -94 -16.5 -180
t-54 -164.5t-92.5 -136t-137.5 -91.5t-183.5 -34q-99 0 -181 34.5t-137.5 92.5t-93.5 136.5t-55.5 165t-17.5 178.5v920h-97v-920z" />
    <glyph glyph-name="utilde" unicode="&#x169;" horiz-adv-x="1034" 
d="M401 1598q-40 0 -71 -16t-49 -38.5t-30.5 -59t-17.5 -63.5t-10 -66l-1 -7h93l1 5l12 63q9 37 21 59q14 21 49 21q23 0 36 -8.5t33 -29.5l35 -39q19 -21 39 -35q46 -34 98 -34q129 0 165 159q2 9 10 61q0 4 2 11.5t2 11.5l1 7h-94l-1 -5q-7 -39 -13 -63q-8 -36 -22 -58
t-50 -22q-16 0 -36.5 11.5t-31.5 25.5q-1 1 -2 2.5t-2 2.5v1l-1 1q0 2 -2 4l-3 5l-3 3q-2 2 -6 7q-60 83 -151 83zM88 441q0 -201 113.5 -328.5t313.5 -127.5q209 0 336 149v-134h95v1162h-95v-720q0 -154 -91.5 -255t-244.5 -101q-121 0 -209 68.5t-113 184.5q-9 45 -9 107
v714l-95 3v-6q0 -119 -0.5 -358t-0.5 -358z" />
    <glyph glyph-name="Umacron" unicode="&#x16a;" 
d="M329 1890v-89h681v89h-681zM88 685q0 -107 21.5 -208t68 -192t113.5 -158.5t164.5 -107.5t213.5 -40q119 0 217 39t165 106t113 157.5t67 191.5t21 211v921h-98v-921q0 -94 -16.5 -180t-54 -164.5t-92.5 -136t-137.5 -91.5t-183.5 -34q-99 0 -181 34.5t-137.5 92.5
t-93.5 136.5t-55.5 165t-17.5 178.5v920h-97v-920z" />
    <glyph glyph-name="umacron" unicode="&#x16b;" horiz-adv-x="1034" 
d="M179 1446v-90h676v90h-676zM88 441q0 -201 113.5 -328.5t313.5 -127.5q209 0 336 149v-134h95v1162h-95v-720q0 -154 -91.5 -255t-244.5 -101q-121 0 -209 68.5t-113 184.5q-9 45 -9 107v714l-95 3v-6q0 -119 -0.5 -358t-0.5 -358z" />
    <glyph glyph-name="Ubreve" unicode="&#x16c;" 
d="M457 1806q77 -78 213 -78q137 0 213.5 77t76.5 213v30h-90v-6q0 -60 -9.5 -97t-43.5 -71q-53 -53 -147 -53q-92 0 -146 53t-54 144q0 4 0.5 12t0.5 12v6h-92v-6q0 -77 15.5 -133.5t62.5 -102.5zM88 685q0 -107 21.5 -208t68 -192t113.5 -158.5t164.5 -107.5t213.5 -40
q119 0 217 39t165 106t113 157.5t67 191.5t21 211v921h-98v-921q0 -94 -16.5 -180t-54 -164.5t-92.5 -136t-137.5 -91.5t-183.5 -34q-99 0 -181 34.5t-137.5 92.5t-93.5 136.5t-55.5 165t-17.5 178.5v920h-97v-920z" />
    <glyph glyph-name="ubreve" unicode="&#x16d;" horiz-adv-x="1034" 
d="M304 1361q76 -76 213 -76q136 0 212.5 76.5t76.5 210.5q0 4 -0.5 12.5t-0.5 12.5v6h-91v-6q0 -58 -10 -97t-42 -71q-54 -53 -145 -53t-145.5 53t-54.5 143q0 4 0.5 12.5t0.5 12.5v6h-90v-6q0 -79 14.5 -134t61.5 -102zM88 441q0 -201 113.5 -328.5t313.5 -127.5
q209 0 336 149v-134h95v1162h-95v-720q0 -154 -91.5 -255t-244.5 -101q-121 0 -209 68.5t-113 184.5q-9 45 -9 107v714l-95 3v-6q0 -119 -0.5 -358t-0.5 -358z" />
    <glyph glyph-name="Uring" unicode="&#x16e;" 
d="M463 1947q0 -87 60 -144.5t147 -57.5q93 0 150 55t57 147t-57 147t-150 55q-88 0 -147.5 -57.5t-59.5 -144.5zM782 1947q0 -50 -31.5 -81.5t-80.5 -31.5q-48 0 -79 32.5t-31 80.5t30.5 79t79.5 31t80.5 -31t31.5 -79zM88 685q0 -107 21.5 -208t68 -192t113.5 -158.5
t164.5 -107.5t213.5 -40q119 0 217 39t165 106t113 157.5t67 191.5t21 211v921h-98v-921q0 -94 -16.5 -180t-54 -164.5t-92.5 -136t-137.5 -91.5t-183.5 -34q-99 0 -181 34.5t-137.5 92.5t-93.5 136.5t-55.5 165t-17.5 178.5v920h-97v-920z" />
    <glyph glyph-name="uring" unicode="&#x16f;" horiz-adv-x="1034" 
d="M311 1501q0 -86 59.5 -142.5t146.5 -56.5q92 0 148.5 54t56.5 145q0 92 -56.5 146.5t-148.5 54.5q-88 0 -147 -57t-59 -144zM628 1501q0 -48 -31 -79.5t-80 -31.5q-47 0 -78.5 32t-31.5 79q0 49 30.5 79.5t79.5 30.5t80 -30.5t31 -79.5zM88 441q0 -201 113.5 -328.5
t313.5 -127.5q209 0 336 149v-134h95v1162h-95v-720q0 -154 -91.5 -255t-244.5 -101q-121 0 -209 68.5t-113 184.5q-9 45 -9 107v714l-95 3v-6q0 -119 -0.5 -358t-0.5 -358z" />
    <glyph glyph-name="Uhungarumlaut" unicode="&#x170;" 
d="M567 2122l-220 -377h106l224 377h-110zM848 2122l-220 -377h106l224 377h-110zM88 685q0 -107 21.5 -208t68 -192t113.5 -158.5t164.5 -107.5t213.5 -40q119 0 217 39t165 106t113 157.5t67 191.5t21 211v921h-98v-921q0 -94 -16.5 -180t-54 -164.5t-92.5 -136
t-137.5 -91.5t-183.5 -34q-99 0 -181 34.5t-137.5 92.5t-93.5 136.5t-55.5 165t-17.5 178.5v920h-97v-920z" />
    <glyph glyph-name="uhungarumlaut" unicode="&#x171;" horiz-adv-x="1034" 
d="M414 1675l-217 -373h105l223 373h-111zM694 1675l-217 -373h105l222 373h-110zM88 441q0 -201 113.5 -328.5t313.5 -127.5q209 0 336 149v-134h95v1162h-95v-720q0 -154 -91.5 -255t-244.5 -101q-121 0 -209 68.5t-113 184.5q-9 45 -9 107v714l-95 3v-6q0 -119 -0.5 -358
t-0.5 -358z" />
    <glyph glyph-name="Uogonek" unicode="&#x172;" 
d="M427 -259q0 -97 61 -147.5t159 -50.5q69 0 105 11t97 49l5 3l-44 89l-6 -5q-63 -57 -157 -57q-56 0 -90.5 27t-34.5 81q0 34 18 67t43 57t63.5 48.5t67.5 39t66 30.5q12 6 17 7q3 1 31 8q64 18 113 46q83 45 145 117.5t97 159.5t52 177.5t17 185.5v921h-98v-921
q0 -94 -16.5 -180t-54 -164.5t-92.5 -136t-137.5 -91.5t-183.5 -34q-99 0 -181 34.5t-137.5 92.5t-93.5 136.5t-55.5 165t-17.5 178.5v920h-97v-920q0 -122 30 -237t88.5 -214t157.5 -166.5t225 -83.5q-162 -102 -162 -243z" />
    <glyph glyph-name="uogonek" unicode="&#x173;" horiz-adv-x="1039" 
d="M979 -385l-43 89l-6 -5q-65 -58 -156 -58q-56 0 -91 27.5t-35 80.5q0 47 35.5 92.5t79.5 74.5t93 49q35 15 51 25l8 4l8 4q10 3 16 2l7 -1v1163h-95v-720q0 -154 -91.5 -255t-244.5 -101q-121 0 -209 68.5t-113 184.5q-9 45 -9 107v714l-95 3v-6q0 -119 -0.5 -358
t-0.5 -358q0 -201 113.5 -328.5t313.5 -127.5q209 0 336 149v-80q-56 -21 -103.5 -46.5t-93 -62.5t-72 -87.5t-26.5 -108.5q0 -96 60 -146.5t158 -50.5q68 0 101.5 11t98.5 49z" />
    <glyph glyph-name="Wcircumflex" unicode="&#x174;" horiz-adv-x="1789" 
d="M831 2095l-279 -367h114l200 258l199 -258h113l-277 367h-70zM88 1604l381 -1602h97l329 1378l329 -1378h94l383 1602h-99l-329 -1394l-330 1394h-99l-325 -1394l-330 1394h-101z" />
    <glyph glyph-name="wcircumflex" unicode="&#x175;" horiz-adv-x="1722" 
d="M797 1650l-276 -365h113l199 255l197 -255h113l-275 365h-71zM88 1162l368 -1162h91l315 991l314 -991h90l368 1162h-98l-313 -1003l-315 1003h-94l-313 -1003l-313 1003h-100z" />
    <glyph glyph-name="Ycircumflex" unicode="&#x176;" horiz-adv-x="1301" 
d="M586 2095l-279 -367h115l199 258l200 -258h113l-278 367h-70zM601 808v-808h96v807l516 798h-123l-440 -706l-444 706h-118z" />
    <glyph glyph-name="ycircumflex" unicode="&#x177;" horiz-adv-x="1158" 
d="M511 1650l-277 -365h113l199 255l198 -255h112l-275 365h-70zM93 -456q62 -10 93 -10q153 0 255 92.5t154 245.5q57 173 68 203l407 1087h-105l-373 -993l-373 993h-107l427 -1139l-41 -119q-39 -115 -91.5 -175t-158.5 -88q-30 -8 -59 -8q-1 0 -43 3q-8 2 -9 2
q-3 1 -10 1h-20l-19 -72v-4v-5v-8v-5z" />
    <glyph glyph-name="Ydieresis" unicode="&#x178;" horiz-adv-x="1301" 
d="M374 1836q0 -33 22 -54.5t56 -21.5q37 0 57.5 20t20.5 56q0 35 -21 56.5t-57 21.5q-37 0 -57.5 -20.5t-20.5 -57.5zM770 1836q0 -33 23 -54.5t57 -21.5q37 0 57 20t20 56t-20.5 57t-56.5 21q-35 0 -57.5 -21.5t-22.5 -56.5zM601 808v-808h96v807l516 798h-123l-440 -706
l-444 706h-118z" />
    <glyph glyph-name="Zacute" unicode="&#x179;" horiz-adv-x="1196" 
d="M655 2105l-219 -377h106l224 377h-111zM940 1506l-852 -1506l1005 3v99h-836l851 1503h-1004v-96z" />
    <glyph glyph-name="zacute" unicode="&#x17a;" horiz-adv-x="1134" 
d="M500 1285l223 373h-111l-217 -373h105zM97 40q-1 -1 -2 -1l-3 -2l-4 -2l8 -35l927 2v91h-767l790 1069l-958 -2v-91h768z" />
    <glyph glyph-name="Zdotaccent" unicode="&#x17b;" horiz-adv-x="1196" 
d="M521 1856q0 -33 21.5 -55t55.5 -22q37 0 57 20.5t20 56.5t-21 56.5t-56 20.5q-37 0 -57 -20t-20 -57zM940 1506l-852 -1506l1005 3v99h-836l851 1503h-1004v-96z" />
    <glyph glyph-name="zdotaccent" unicode="&#x17c;" horiz-adv-x="1134" 
d="M557 1488q-77 0 -77 -76q0 -34 21 -55.5t56 -21.5q37 0 56.5 20t19.5 57q0 35 -20.5 55.5t-55.5 20.5zM97 40q-1 -1 -2 -1l-3 -2l-4 -2l8 -35l927 2v91h-767l790 1069l-958 -2v-91h768z" />
    <glyph glyph-name="Zcaron" unicode="&#x17d;" horiz-adv-x="1196" 
d="M284 2095l280 -367h70l278 367h-114l-199 -258l-200 258h-115zM940 1506l-852 -1506l1005 3v99h-836l851 1503h-1004v-96z" />
    <glyph glyph-name="zcaron" unicode="&#x17e;" horiz-adv-x="1134" 
d="M523 1285h70l275 365h-113l-197 -256l-199 256h-113zM97 40q-1 -1 -2 -1l-3 -2l-4 -2l8 -35l927 2v91h-767l790 1069l-958 -2v-91h768z" />
    <glyph glyph-name="florin" unicode="&#x192;" horiz-adv-x="1231" 
d="M1098 1677q-1 0 -2 1q-50 17 -116 17q-75 0 -131 -26t-90.5 -74t-54 -103t-30.5 -126l-60 -386h-347v-88h334l-119 -760q-8 -49 -23.5 -90.5t-41 -77.5t-65 -56.5t-89.5 -20.5q-75 0 -127 41l-6 4l-42 -81l5 -3q50 -31 83.5 -42t86.5 -11q261 0 315 327q8 50 37 250
l81 520h370v88h-355l58 378q6 36 28 104q10 29 17 42q26 48 75 74t106 26q53 0 131 -39l8 -3l9 89l-2 2l-21 12q-7 3 -19 11z" />
    <glyph glyph-name="circumflex" unicode="&#x2c6;" horiz-adv-x="620" 
d="M278 1661l-278 -367h115l199 257l200 -257h112l-277 367h-71z" />
    <glyph glyph-name="caron" unicode="&#x2c7;" horiz-adv-x="622" 
d="M-4 1661l278 -367h71l277 367h-112l-200 -257l-199 257h-115z" />
    <glyph glyph-name="uni02C9" unicode="&#x2c9;" horiz-adv-x="711" 
d="M20 1771v-91h681v91h-681z" />
    <glyph glyph-name="breve" unicode="&#x2d8;" horiz-adv-x="611" 
d="M96 1371q76 -77 212 -77q138 0 214.5 77t76.5 213v31h-90v-6q0 -60 -9.5 -97.5t-43.5 -71.5q-54 -54 -148 -54q-92 0 -146 53.5t-54 144.5q0 4 0.5 12.5t0.5 12.5v6h-91v-6q0 -78 15.5 -134.5t62.5 -103.5z" />
    <glyph glyph-name="dotaccent" unicode="&#x2d9;" horiz-adv-x="189" 
d="M18 1422q0 -34 22 -56t56 -22q37 0 57 20.5t20 57.5q0 35 -20.5 56t-56.5 21q-37 0 -57.5 -20t-20.5 -57z" />
    <glyph glyph-name="ring" unicode="&#x2da;" horiz-adv-x="471" 
d="M24 1512q0 -86 59.5 -144t146.5 -58q93 0 150 55t57 147q0 93 -57 148t-150 55q-88 0 -147 -57.5t-59 -145.5zM343 1512q0 -49 -31.5 -80t-81.5 -31q-47 0 -78.5 32t-31.5 79q0 49 30.5 80t79.5 31q50 0 81.5 -31t31.5 -80z" />
    <glyph glyph-name="ogonek" unicode="&#x2db;" horiz-adv-x="452" 
d="M12 -259q0 -97 61 -147.5t159 -50.5q69 0 103 11t99 49l5 3l-44 89l-6 -5q-63 -57 -157 -57q-56 0 -91 27t-35 81q0 80 98 153q58 42 111 65q51 25 55 28q2 1 7.5 3.5t8.5 3.5l17 6l5 2l-12 52h-73h-3q-1 -1 -3 -1l-7 -3q-3 -1 -10.5 -4.5t-11.5 -4.5q-25 -10 -35 -15
q-47 -21 -86.5 -47t-76 -61t-57.5 -80.5t-21 -96.5z" />
    <glyph glyph-name="tilde" unicode="&#x2dc;" horiz-adv-x="622" 
d="M21 1389l-5 -31h95l1 5q1 3 5 27.5t7 36.5q8 33 22 58q13 22 48 22q20 0 34 -6q11 -6 21 -17q7 -6 19 -20q48 -56 85 -80q35 -24 84 -24q129 0 166 160q2 9 10 61q0 4 1.5 12t2.5 12l1 7h-94l-1 -5q-1 -3 -5 -27.5t-7 -36.5q-8 -34 -22 -59q-14 -22 -52 -22q-15 0 -35 11
t-31 23q-1 1 -2.5 3.5t-2.5 3.5q-2 4 -5 8l-3 5l-3 3l-6 6q-59 85 -152 85q-128 0 -166 -160q-2 -10 -10 -61z" />
    <glyph glyph-name="hungarumlaut" unicode="&#x2dd;" horiz-adv-x="645" 
d="M230 1687l-219 -377h107l223 377h-111zM513 1687l-220 -377h106l224 377h-110z" />
    <glyph glyph-name="uni0326" unicode="&#x326;" horiz-adv-x="0" 
d="M-200 42l-127 -407h91l140 407h-104z" />
    <glyph glyph-name="Wgrave" unicode="&#x1e80;" horiz-adv-x="1789" 
d="M729 2088l227 -377h102l-216 377h-113zM88 1604l381 -1602h97l329 1378l329 -1378h94l383 1602h-99l-329 -1394l-330 1394h-99l-325 -1394l-330 1394h-101z" />
    <glyph glyph-name="wgrave" unicode="&#x1e81;" horiz-adv-x="1722" 
d="M697 1643l226 -375h102l-216 375h-112zM88 1162l368 -1162h91l315 991l314 -991h90l368 1162h-98l-313 -1003l-315 1003h-94l-313 -1003l-313 1003h-100z" />
    <glyph glyph-name="Wacute" unicode="&#x1e82;" horiz-adv-x="1789" 
d="M952 2105l-220 -377h107l223 377h-110zM88 1604l381 -1602h97l329 1378l329 -1378h94l383 1602h-99l-329 -1394l-330 1394h-99l-325 -1394l-330 1394h-101z" />
    <glyph glyph-name="wacute" unicode="&#x1e83;" horiz-adv-x="1722" 
d="M918 1658l-218 -373h105l223 373h-110zM88 1162l368 -1162h91l315 991l314 -991h90l368 1162h-98l-313 -1003l-315 1003h-94l-313 -1003l-313 1003h-100z" />
    <glyph glyph-name="Wdieresis" unicode="&#x1e84;" horiz-adv-x="1789" 
d="M619 1836q0 -33 21.5 -54.5t55.5 -21.5q37 0 57.5 20t20.5 56q0 35 -21 56.5t-57 21.5q-37 0 -57 -20.5t-20 -57.5zM1014 1836q0 -33 23 -54.5t57 -21.5q37 0 57 20t20 56t-20.5 57t-56.5 21q-35 0 -57.5 -21.5t-22.5 -56.5zM88 1604l381 -1602h97l329 1378l329 -1378h94
l383 1602h-99l-329 -1394l-330 1394h-99l-325 -1394l-330 1394h-101z" />
    <glyph glyph-name="wdieresis" unicode="&#x1e85;" horiz-adv-x="1722" 
d="M588 1392q0 -33 21.5 -55t54.5 -22q37 0 57 20.5t20 56.5t-20 56.5t-57 20.5q-76 0 -76 -77zM980 1392q0 -33 23 -55t56 -22q37 0 57 20.5t20 56.5q0 35 -20.5 56t-56.5 21q-35 0 -57 -21.5t-22 -55.5zM88 1162l368 -1162h91l315 991l314 -991h90l368 1162h-98
l-313 -1003l-315 1003h-94l-313 -1003l-313 1003h-100z" />
    <glyph glyph-name="endash" unicode="&#x2013;" horiz-adv-x="1254" 
d="M88 804v-95h1078v95h-1078z" />
    <glyph glyph-name="emdash" unicode="&#x2014;" horiz-adv-x="1965" 
d="M88 804v-95h1789v95h-1789z" />
    <glyph glyph-name="quoteleft" unicode="&#x2018;" horiz-adv-x="436" 
d="M269 1393q0 34 -19.5 55.5t-54.5 21.5q-12 0 -18 -2q4 30 22 63t41 52q30 26 94 36l14 2l-101 73l-3 -2q-72 -38 -114 -104.5t-42 -145.5q0 -52 25.5 -90.5t77.5 -38.5q34 0 56 23t22 57z" />
    <glyph glyph-name="quoteright" unicode="&#x2019;" horiz-adv-x="438" 
d="M196 1306q73 39 113.5 104.5t40.5 146.5q0 55 -23.5 91t-77.5 36q-35 0 -57 -21t-22 -55q0 -30 22 -55t53 -25q11 0 16 1q-10 -71 -60 -115q-29 -27 -98 -33l-15 -2l104 -75z" />
    <glyph glyph-name="quotesinglbase" unicode="&#x201a;" horiz-adv-x="427" 
d="M339 7q0 53 -24.5 90.5t-76.5 37.5q-34 0 -57.5 -21.5t-23.5 -55.5q0 -32 21 -55.5t54 -23.5q8 0 20 2q-6 -60 -61 -114q-26 -24 -91 -42l-12 -4l91 -66l4 2q74 38 115 102.5t41 147.5z" />
    <glyph glyph-name="quotedblleft" unicode="&#x201c;" horiz-adv-x="648" 
d="M269 1393q0 34 -19.5 55.5t-54.5 21.5q-12 0 -18 -2q4 30 22 63t41 52q30 26 94 36l14 2l-101 73l-3 -2q-72 -38 -114 -104.5t-42 -145.5q0 -52 25.5 -90.5t77.5 -38.5q34 0 56 23t22 57zM481 1393q0 34 -20 55.5t-55 21.5q-12 0 -18 -2q4 30 22 62.5t41 52.5
q26 23 95 36l14 2l-102 73l-3 -2q-72 -38 -114 -104.5t-42 -145.5q0 -52 25.5 -90.5t77.5 -38.5q34 0 56.5 23t22.5 57z" />
    <glyph glyph-name="quotedblright" unicode="&#x201d;" horiz-adv-x="649" 
d="M196 1306q73 39 113.5 104.5t40.5 146.5q0 55 -23.5 91t-77.5 36q-35 0 -57 -21t-22 -55q0 -30 22 -55t53 -25q11 0 16 1q-10 -71 -60 -115q-29 -27 -98 -33l-15 -2l104 -75zM407 1306q73 38 113.5 104t40.5 147q0 127 -101 127q-35 0 -57 -21t-22 -55q0 -30 22 -55
t53 -25q11 0 16 1q-10 -71 -60 -115q-29 -27 -98 -33l-15 -2l104 -75z" />
    <glyph glyph-name="quotedblbase" unicode="&#x201e;" horiz-adv-x="639" 
d="M339 163q0 53 -24.5 90.5t-76.5 37.5q-34 0 -57.5 -21.5t-23.5 -55.5q0 -32 21 -55.5t54 -23.5q8 0 20 2q-7 -62 -61 -114q-26 -24 -91 -42l-12 -4l91 -66l4 2q74 38 115 102.5t41 147.5zM551 163q0 53 -24.5 90.5t-77.5 37.5q-34 0 -57.5 -21.5t-23.5 -55.5
q0 -32 21 -55.5t54 -23.5q8 0 20 2q-7 -62 -61 -114q-26 -24 -91 -42l-12 -4l91 -66l4 2q75 38 116 102.5t41 147.5z" />
    <glyph glyph-name="dagger" unicode="&#x2020;" horiz-adv-x="1121" 
d="M514 1009v-1155h94v1155h425v88h-425v449h-94v-449h-426v-88h426z" />
    <glyph glyph-name="daggerdbl" unicode="&#x2021;" horiz-adv-x="1121" 
d="M514 302v-448h94v448h425v89h-425v618h425v88h-425v449h-94v-449h-426v-88h426v-618h-426v-89h426z" />
    <glyph glyph-name="bullet" unicode="&#x2022;" horiz-adv-x="495" 
d="M88 749q0 -68 45.5 -113.5t114.5 -45.5q71 0 115 44t44 115t-44 115t-115 44q-72 0 -116 -44t-44 -115z" />
    <glyph glyph-name="ellipsis" unicode="&#x2026;" horiz-adv-x="1094" 
d="M463 58q0 -34 24 -57.5t58 -23.5t57 23.5t23 57.5t-23 57.5t-57 23.5t-58 -23.5t-24 -57.5zM845 58q0 -34 24 -57.5t58 -23.5t56.5 23.5t22.5 57.5t-22.5 57.5t-56.5 23.5t-58 -23.5t-24 -57.5zM88 57q0 -34 23.5 -57.5t57.5 -23.5t57.5 23.5t23.5 57.5q0 35 -23 58
t-58 23q-34 0 -57.5 -23.5t-23.5 -57.5z" />
    <glyph glyph-name="perthousand" unicode="&#x2030;" horiz-adv-x="2455" 
d="M88 1154q0 -104 34 -188.5t110.5 -139.5t184.5 -55q83 0 147 31t103 85t58.5 121.5t19.5 145.5q0 123 -40 213.5t-138 143.5q-65 35 -150 35q-82 0 -146.5 -33t-103.5 -88.5t-59 -124.5t-20 -146zM285 69h116l1004 1477h-115zM649 1154q0 -47 -7.5 -88.5t-25 -79.5
t-44 -65.5t-66.5 -43.5t-89 -16q-79 0 -133 43.5t-77 107.5t-23 142q0 162 90 251q26 23 36 29q40 22 107 22q66 0 106 -22q21 -13 37 -29q89 -84 89 -251zM947 456q0 -104 34.5 -189.5t111.5 -141.5t186 -56q77 0 143 30.5t110 90.5q75 105 75 266q0 78 -19.5 146
t-58.5 123t-103 86.5t-147 31.5t-148 -31.5t-104.5 -86t-59.5 -123t-20 -146.5zM1708 456q0 -77 20.5 -145.5t60 -123t104 -86.5t146.5 -32q78 0 144.5 30.5t110.5 90.5q73 104 73 266q0 78 -19.5 146t-58 123t-103 86.5t-147.5 31.5t-147.5 -31.5t-104 -86t-59.5 -123
t-20 -146.5zM1455 251q-65 -93 -176 -93q-63 0 -108 24q-66 36 -98 112.5t-32 161.5t32 161.5t98 112.5q45 24 108 24q61 0 107 -25t72.5 -68t39 -94.5t12.5 -110.5q0 -130 -55 -205zM2272 456q0 -79 -22 -144t-76.5 -109.5t-134.5 -44.5q-60 0 -105 24q-15 8 -37 28
q-93 83 -93 246q0 79 23 144t78 109.5t134 44.5q61 0 107.5 -25t73 -68t39.5 -94.5t13 -110.5z" />
    <glyph glyph-name="guilsinglleft" unicode="&#x2039;" horiz-adv-x="629" 
d="M88 747l330 -452h123l-333 452l333 450h-123z" />
    <glyph glyph-name="guilsinglright" unicode="&#x203a;" horiz-adv-x="632" 
d="M424 747l-336 -452h123l333 452l-333 450h-123z" />
    <glyph glyph-name="fraction" unicode="&#x2044;" horiz-adv-x="1003" 
d="M88 174l83 -56l744 1286l-84 55z" />
    <glyph glyph-name="uni207B" unicode="&#x207b;" horiz-adv-x="774" 
d="M88 1289v-93h598v93h-598z" />
    <glyph glyph-name="uni207C" unicode="&#x207c;" horiz-adv-x="806" 
d="M88 1406v-91h630v91h-630zM88 1169v-89h630v89h-630z" />
    <glyph glyph-name="uni208B" unicode="&#x208b;" horiz-adv-x="774" 
d="M88 168v-91h598v91h-598z" />
    <glyph glyph-name="uni208C" unicode="&#x208c;" horiz-adv-x="806" 
d="M88 285v-89h630v89h-630zM88 50v-91h630v91h-630z" />
    <glyph glyph-name="Euro" unicode="&#x20ac;" horiz-adv-x="1451" 
d="M1363 479l-86 43l-2 -7q-25 -94 -57 -161t-90 -118q-110 -99 -264 -99q-153 0 -263.5 80t-167.5 224q-35 85 -48 161h503l64 91h-579q-5 39 -5 114q0 78 5 117h601l65 91h-654q17 99 54.5 181.5t95 146.5t141 99.5t186.5 35.5q303 0 406 -312l3 -9l75 65l-1 4
q-59 175 -177 258t-306 83q-124 0 -226 -42t-172 -118t-114 -174.5t-62 -217.5h-200v-91h190q-7 -68 -7 -117q0 -25 7 -114h-190v-91h200q23 -168 110 -306.5t231 -203.5q103 -45 235 -45q193 0 323 118t175 310z" />
    <glyph glyph-name="trademark" unicode="&#x2122;" horiz-adv-x="1519" 
d="M1347 1558h-81l-248 -671l-245 671h-619v-89h233v-729h88v729h214v-729h91l-1 533l200 -533h76l202 535v-535h90v818z" />
    <glyph glyph-name="uni2126" unicode="&#x2126;" horiz-adv-x="1534" 
d="M88 158v-89h561v80l-4 2q-231 85 -345 257t-114 420q0 136 37.5 253t108.5 206t183 140t253 51q142 0 254 -50.5t183 -139t107.5 -205.5t36.5 -255q0 -507 -461 -677l-4 -2v-80h562v89h-341q170 111 254.5 284.5t84.5 385.5q0 427 -284 626q-51 35 -102 59
q-119 54 -290 54q-163 0 -293 -57t-213.5 -157t-127.5 -234t-44 -291q0 -208 85.5 -384t253.5 -286h-341z" />
    <glyph glyph-name="arrowleft" unicode="&#x2190;" horiz-adv-x="1677" 
d="M90 789q194 -135 391.5 -324t310.5 -362l3 -5l88 55l-4 6q-254 332 -493 528q-53 44 -102 77q82 -2 124 -2h1181v95h-1181q-41 0 -123 -2q279 201 594 604l4 5l-88 56l-3 -4q-278 -383 -702 -686l-2 -2v-37z" />
    <glyph glyph-name="arrowup" unicode="&#x2191;" horiz-adv-x="1605" 
d="M755 1248v-1179h94v1179q0 40 -2 122q221 -303 608 -591l6 -4l56 84l-4 4q-403 291 -689 699l-2 3h-39l-2 -3q-286 -408 -689 -699l-4 -4l57 -84l5 4q400 307 607 592q-2 -84 -2 -123z" />
    <glyph glyph-name="arrowright" unicode="&#x2192;" horiz-adv-x="1677" 
d="M794 154l88 -56l3 4q295 407 702 687l2 2v37l-2 2q-419 303 -702 686l-3 4l-88 -56l4 -5q309 -395 593 -604q-82 2 -122 2h-1181v-95h1181q39 0 119 2q-157 -113 -295 -259.5t-295 -345.5z" />
    <glyph glyph-name="arrowdown" unicode="&#x2193;" horiz-adv-x="1605" 
d="M628 246q125 -160 155 -195l2 -2h37l2 3q278 401 689 700l4 4l-56 85l-6 -4l-45 -34q-8 -6 -31.5 -25.5t-37.5 -29.5q-30 -24 -82 -70q-138 -121 -175 -158q-18 -17 -68 -71q-92 -100 -169 -203q2 80 2 122v1178h-94v-1178q0 -43 2 -121q-113 156 -259 293t-348 297l-5 4
l-57 -86l4 -3q199 -139 376 -317q72 -74 160 -189z" />
    <glyph glyph-name="arrowboth" unicode="&#x2194;" horiz-adv-x="2166" 
d="M782 153l8 -12l3 -4l88 56l-4 6q-86 111 -208 248q-99 110 -109 120q-4 5 -79 74q-101 91 -195 159h1595q-158 -115 -298.5 -262.5t-290.5 -337.5l-4 -5l83 -58l4 4q295 404 701 686l2 2v38l-2 2q-411 288 -701 687l-4 4l-83 -57l4 -5q302 -393 589 -602h-1595
q292 210 591 602l4 6l-88 56l-3 -4q-291 -403 -700 -687l-2 -2v-38l2 -2q375 -260 603 -552q31 -40 89 -122z" />
    <glyph glyph-name="arrowupdn" unicode="&#x2195;" horiz-adv-x="1605" 
d="M459 189q32 -34 64.5 -70t69 -78.5t60 -70.5t67 -80t61.5 -73l2 -2h39l2 2q295 412 689 698l4 3l-56 88l-6 -4q-381 -284 -606 -592v1594q112 -155 254.5 -288.5t350.5 -300.5l5 -4l58 84l-4 4q-402 291 -689 699l-2 2h-39l-2 -3q-279 -399 -689 -698l-4 -4l57 -84l5 4
q195 151 343.5 290.5t261.5 297.5v-1593q-119 159 -238 275q-7 8 -41 39.5t-39 36.5q-131 119 -287 241l-6 4l-56 -88l4 -3q168 -118 367 -326z" />
    <glyph glyph-name="partialdiff" unicode="&#x2202;" horiz-adv-x="1203" 
d="M1019 813q-73 106 -191 155t-259 49q-214 0 -347.5 -134.5t-133.5 -346.5q0 -215 136.5 -352t353.5 -137q102 0 186 32t142.5 86.5t101.5 130.5t66.5 159.5t32.5 177.5q8 77 8 174q0 86 -5 156t-21.5 154.5t-45 150.5t-79.5 129t-121 105q-107 65 -286 65
q-230 0 -368 -180l-3 -5l73 -67l3 6q100 157 295 157q150 0 239 -56q93 -61 139.5 -150t65.5 -212q18 -122 18 -247zM969 728q8 -13 24.5 -48t16.5 -43q0 -29 -14 -94q-24 -119 -81 -217.5t-151 -147.5q-81 -41 -188 -41q-169 0 -280.5 117t-111.5 286q0 168 107 277.5
t276 109.5q130 0 236 -48t166 -151z" />
    <glyph glyph-name="uni2206" unicode="&#x2206;" horiz-adv-x="1418" 
d="M88 69h1242v6v30v19v7v4l-574 1411h-90l-578 -1411v-4v-7v-19v-30v-6zM203 158l506 1251l507 -1251h-1013z" />
    <glyph glyph-name="product" unicode="&#x220f;" horiz-adv-x="1244" 
d="M88 1546v-1753h94v1663h878v-1663h96v1753h-1068z" />
    <glyph glyph-name="summation" unicode="&#x2211;" horiz-adv-x="1305" 
d="M88 -133v-74h1129v93h-989l712 792v28l-705 750h982v90h-1129v-71l736 -783z" />
    <glyph glyph-name="minus" unicode="&#x2212;" horiz-adv-x="1205" 
d="M88 822v-90h1029v90h-1029z" />
    <glyph glyph-name="uni2215" unicode="&#x2215;" horiz-adv-x="1060" 
d="M854 1608l-766 -1630l112 13l772 1645z" />
    <glyph glyph-name="uni2219" unicode="&#x2219;" horiz-adv-x="333" 
d="M88 850q0 -33 22 -56t55 -23q80 0 80 79q0 35 -22.5 56.5t-57.5 21.5q-77 0 -77 -78z" />
    <glyph glyph-name="radical" unicode="&#x221a;" horiz-adv-x="1479" 
d="M646 225l-262 658h-296v-90h231l288 -724h76l708 1816h-100z" />
    <glyph glyph-name="infinity" unicode="&#x221e;" horiz-adv-x="1843" 
d="M1035 945q-3 -9 -10 -23q-2 -6 -7 -16.5t-7 -14.5l-23 16l-4 -4q-25 -30 -34 -41q-20 -24 -28 -36q-106 128 -160 190l-30 35q-73 87 -146 119q-54 23 -153 23q-71 0 -129.5 -26.5t-98 -71t-66.5 -103t-39 -120t-12 -125.5q0 -63 12.5 -124.5t40 -119.5t67 -102t98 -70.5
t127.5 -26.5q107 0 157 27q10 6 29.5 19.5t29.5 19.5l2 1q33 22 138 146q54 63 130 155q53 -66 120 -145q71 -82 95 -105q67 -69 121 -95q52 -23 156 -23q87 0 155.5 40t108.5 105.5t60 141.5t20 156q0 82 -19.5 158t-59 142t-108 106t-157.5 40q-100 0 -153.5 -26
t-130.5 -102q-6 -6 -12.5 -13t-14.5 -15.5t-12 -13.5q-12 -14 -35 -39.5t-30 -33.5l10 -8zM692 944q89 -102 166 -197q-5 -5 -15 -16.5t-11 -12.5l-174 -205q-60 -72 -104 -97q-38 -21 -115 -21q-61 0 -110 32q-73 49 -109 135t-36 185q0 61 15 121t44.5 113.5t80.5 86.5
t115 33q76 0 114 -19q31 -17 66 -55q15 -16 41.5 -46.5t31.5 -36.5zM1598 986q29 -45 45 -112t16 -127q0 -139 -61 -237q-33 -52 -82.5 -83.5t-106.5 -31.5q-73 0 -113.5 21t-94.5 79q-58 63 -220 256q74 90 113 134l57 66q4 4 15.5 15t17.5 17t19 20.5t21 21.5
q80 76 182 76q64 0 112 -30q19 -12 43 -38t37 -47z" />
    <glyph glyph-name="integral" unicode="&#x222b;" horiz-adv-x="1047" 
d="M92 -144q81 -63 184 -63q151 0 225.5 80.5t74.5 230.5v1342q0 218 206 218q84 0 135 -47l6 -7l36 90l-3 3q-71 54 -174 54q-150 0 -225.5 -80.5t-75.5 -230.5v-1342q0 -112 -50 -165t-163 -53q-62 0 -135 46l-5 4l-40 -77z" />
    <glyph glyph-name="approxequal" unicode="&#x2248;" horiz-adv-x="1148" 
d="M572 925q47 -23 76.5 -35.5t74 -24.5t84.5 -12q128 0 251 119l2 1v136l-11 -12q-133 -154 -240 -154q-48 0 -112 25q-7 3 -19.5 9t-17.5 8q-61 23 -76 31q-102 45 -114 49q-61 21 -123 21q-77 0 -134 -30t-123 -91l-2 -1v-138l11 13q32 38 53.5 60t53 47.5t66.5 37
t75 11.5q52 0 115 -22q40 -13 110 -48zM642 495q100 -42 165 -42q131 0 251 122l2 1v137l-11 -13q-133 -159 -240 -159q-41 0 -95 19q-34 11 -82 34l-38 19q-28 10 -42 16q-15 6 -29 13q-8 5 -30 14q-4 1 -14.5 5t-16.5 6q-54 18 -115 18q-80 0 -138.5 -29.5t-118.5 -91.5
l-2 -2v-128l10 11q86 86 141 122q43 29 108 29q58 0 155 -40q24 -10 68 -33q18 -9 36 -15q24 -8 36 -13z" />
    <glyph glyph-name="notequal" unicode="&#x2260;" horiz-adv-x="1162" 
d="M404 506l-134 -279h108l134 279h562v92h-519l166 347h353v90h-308l126 269h-105l-129 -269h-570v-90h526l-165 -347h-361v-92h316z" />
    <glyph glyph-name="lessequal" unicode="&#x2264;" horiz-adv-x="1197" 
d="M88 857l1021 -569v111l-897 496l897 477v109l-1021 -545v-79zM88 158v-89h1021v89h-1021z" />
    <glyph glyph-name="greaterequal" unicode="&#x2265;" horiz-adv-x="1197" 
d="M88 399v-111l1021 569v79l-1021 545v-109l895 -477zM88 158v-89h1021v89h-1021z" />
    <glyph glyph-name="uniF8FF" unicode="&#xf8ff;" horiz-adv-x="2420" 
d="M88 -370v2408h2244v-2408h-2244zM426 202h254v442h886v236h-886v634h886v226h-1148v-1528q0 -2 2 -4q0 -6 6 -6zM852 202h1146v1538h-262v-430h-884v-244h884v-626h-884v-238zM1348 -96q20 0 38 6q8 4 15 6q6 1 11 12q0 2 1.5 6t2.5 7q2 10 2 15q0 7 -2 17q-1 3 -2 7
l-2 4q-5 8 -11 12q-9 5 -11 6l-12 3q-12 2 -18 5q-12 6 -18 6q-4 0 -9 6q-5 7 -5 10q0 12 16 12q9 0 14 -1q10 -2 14 -5q8 -5 15 -7q11 -3 13 -5l18 36q-12 8 -34 14q-24 6 -36 6q-13 0 -34 -8q-2 -1 -4.5 -2.5t-5.5 -2.5t-4 -2q-5 -2 -10 -11q-8 -11 -8 -30q0 -3 2 -13
q1 -6 6 -11q6 -7 8 -9l10 -7q5 -4 14 -4t18 -4l8 -3q4 -1 8 -5l10 -6q6 -6 6 -8q0 -10 -8 -13t-16 -3q-10 0 -31 8q-18 7 -29 18l-18 -34q18 -15 38 -20q5 -1 19 -5q11 -3 21 -3zM654 -98q40 0 66 24q27 25 28 66q2 26 -14 46q-12 15 -13 16q-14 14 -17 16q-17 10 -50 10
q-23 0 -46 -10q-21 -13 -34 -32q-12 -23 -12 -46q0 -26 12 -46q12 -23 33 -34q20 -10 47 -10zM1750 -98q19 0 38 10q20 11 32 24l-26 24q-7 -5 -22 -12q-8 -6 -22 -6q-9 0 -22 8l-10 7q-2 2 -8 11q-4 7 -4 26q0 17 4 26q1 4 18 16q10 6 22 6q14 0 22 -6q16 -6 22 -16l24 30
q-8 10 -13 14q-8 7 -15 8q-5 1 -20 5q-10 3 -20 3q-39 0 -65 -23q-25 -22 -25 -65q0 -29 10 -46q16 -24 34 -34q17 -10 46 -10zM426 -92h44v60h76v34h-76v40h82v34h-126v-168zM770 -92h42v100l78 -100h40v168h-42v-100l-78 100h-40v-168zM1000 -92h44v134h50v34h-148v-34h54
v-134zM1076 -92h46l12 28h74l12 -28h48l-72 168h-46zM1478 -92h44v134h52v34h-148v-34h52v-134zM1592 -92h44v168h-44v-168zM1818 -92h48l10 28h78l8 -28h48l-72 168h-46zM656 -60q-22 0 -35 16t-13 36q0 10 6 26q3 4 9 10l9 8q12 6 24 6t24 -6q10 -6 16 -18q0 -3 4 -13
q2 -6 2 -13q0 -10 -1 -13q-3 -10 -5 -13q-11 -14 -16 -18q-18 -8 -24 -8zM1148 -30l24 62l22 -62h-46zM1890 -30l24 62l22 -62h-46zM830 -596q-32 0 -42 28q-6 10 -6 26q0 17 4 28q4 10 12 16q6 5 18 10q6 2 18 2q36 0 46 -36q4 -20 0 -36q-4 -17 -18 -28q-13 -10 -32 -10z
M1340 -594q-17 0 -22 4q-12 4 -16 16l-4 8q0 1 -1 3t-1 3l9 2q10 2 11 2l2 -4q4 -16 22 -16q4 0 12 3t8 9q0 8 -5 11q-3 2 -21 7q-21 5 -26 10q-10 12 -6 28q4 15 24 20q0 2 16 2q17 -1 26 -10q10 -6 10 -20v-4h-22v4q-5 14 -16 14q-2 0 -3 -1t-3 -1q-14 -6 -12 -14
q0 -2 22 -8q21 -7 30 -16q7 -7 8 -18q0 -17 -10 -24q-8 -8 -15 -9q-5 -1 -17 -1zM1662 -594q-32 0 -48 34q-5 8 -3 19l3 19q6 26 32 34q3 0 6 1t8 1q20 0 32 -12q4 -4 7 -10t3 -8l-10 -4l-8 -2q-3 0 -4 4q-6 14 -20 14t-20 -10q-7 -12 -8 -20q0 -9 1 -15q2 -10 5 -13
q5 -14 20 -14q16 0 22 16l2 6l10 -2q10 -4 10 -5l-2 -9q-14 -24 -38 -24zM1996 -594q-12 0 -25 7t-17 17q-14 32 0 60q8 10 13 14q8 7 17 8q2 2 16 2q8 0 17 -3q8 -3 13 -11q2 -2 8 -10q4 -6 2 -6q-3 -3 -11 -4l-11 -2q-1 1 -2 4q-2 12 -18 12t-21 -11q-5 -12 -5 -25
q0 -12 5 -24q4 -10 21 -10q16 0 20 16q0 4 2 4v2l12 -4l6 -2v-4q0 -2 -2 -8q0 -2 -2 -4t-2 -4q-14 -14 -36 -14zM134 -594l-12 2l-24 102q0 2 10 2h12l14 -68l2 7q2 10 6 23q10 23 10 32l2 6h24l10 -34l8 -34q2 0 4 11q0 3 1.5 11t2.5 12t2.5 9t3 12t2.5 11q0 2 10 2
q12 0 12 -2q-2 -9 -10 -42q-1 -6 -3.5 -17t-4.5 -16l-6 -23v-6h-24v6q-2 2 -5 13q0 1 -2.5 10.5t-4.5 14.5l-8 32l-10 -30l-10 -46h-12zM292 -594q-2 2 -4 2l-4 16q-2 6 -4.5 19.5t-3.5 15.5t-3.5 15.5t-4.5 19.5l-4 16q0 2 10 2h11q1 0 1 -2q2 -6 2 -10q4 -11 4 -22l8 -34
l18 68h26q2 0 2 -2l10 -36l6 -34l16 70q0 2 10 2q12 0 12 -2q-2 -8 -2 -14q0 -1 -1.5 -7.5t-2.5 -10.5q-1 -9 -6 -20l-14 -52h-10l-12 2l-10 38q-1 3 -2.5 8t-1.5 7q-1 3 -2 7l-2 4q0 4 -2 12q-2 -8 -2 -12q-2 -6 -3 -11q-2 -10 -5 -15l-10 -40h-20zM466 -594q-11 0 -12 4
l-4 16q-2 6 -4.5 19.5t-3.5 15.5t-3.5 15.5t-4.5 19.5l-4 16h22l6 -34l10 -34l3 11l6 23l6 23l3 11h24l10 -34q6 -32 10 -36q0 2 2 10q-1 4 4 26l8 34h10q12 0 12 -2q-2 -8 -2 -14q0 -1 -1.5 -7.5t-2.5 -10.5q-1 -9 -6 -20l-14 -50l-10 -2h-12l-10 40l-7 27q-3 11 -3 9
l-20 -74zM668 -592v102q0 2 7 2h65v-18h-50v-24h42v-18h-42v-22l-2 -22h-20zM928 -594v106h20l42 -68v68h20v-104l-10 -2h-10l-42 68v-68h-20zM1084 -594v88h-30v18h84v-18h-32v-88h-22zM1162 -594q-2 2 -4 2q2 4 5 12l11 28q8 22 13 33q1 2 11 29q0 2 10 2h12l42 -104
q-2 0 -4 -2h-6l-14 2l-8 24h-40l-10 -24l-10 -2h-8zM1452 -594v88h-32v18h84v-18h-30v-88h-22zM1546 -594v106h20v-106h-20zM1742 -594l-2 2q1 4 4 12l10 28q8 22 13 33q1 2 11 29q0 2 12 2h12l40 -104q-2 0 -2 -2h-8l-12 2l-10 24h-40l-8 -24l-12 -2h-8zM2132 -594
q-24 0 -37 15q-13 14 -13 37q0 16 9 33t25 21q29 0 47 -7q19 -7 19 -45q0 -23 -11 -39q-11 -15 -39 -15zM2228 -594v106h32l8 -34l6 -24q1 -2 2.5 -5.5t1.5 -4.5l8 30q10 29 10 36v2h34v-106h-22v80l-8 -36l-7 -27q-3 -10 -3 -13v-4h-12l-10 2l-8 38l-12 38v-76l-10 -2h-10z
M832 -576q20 0 26 20q2 6 1 14q-1 7 -1 16q0 10 -12 18q-7 4 -12 4q-14 0 -24 -10q-3 -3 -5 -10q-1 -4 -1 -18q0 -15 8 -26q8 -8 20 -8zM2132 -576q10 0 14 4q14 6 14 30q0 26 -14 34q-3 1 -5 3q-1 1 -7 1q-18 0 -23 -11q-5 -12 -5 -27t4 -24q4 -10 22 -10zM1776 -550h28
q0 2 -6 18q-4 7 -4 10l-2 6q-1 1 -4 -4q-1 -1 -2 -4zM1196 -550h26q0 2 -6 18q-4 7 -4 10l-2 6l-6 -8zM598 -592v20h20v-20h-20zM1884 -592v20h20v-10l-2 -10h-18z" />
    <glyph glyph-name="R.001" horiz-adv-x="1165" 
d="M88 0h102l-1 812h401l378 -812h109l-380 822q171 28 274.5 124t103.5 262q0 88 -30.5 157t-80.5 113.5t-119.5 73.5t-142 41t-153.5 12h-461v-1605zM189 908l-2 600h362q291 0 383 -144q44 -73 44 -156q0 -86 -37 -147t-101 -93t-135 -46t-154 -14h-360z" />
    <glyph glyph-name="space.tf" horiz-adv-x="840" 
 />
    <glyph glyph-name="NULL" horiz-adv-x="0" 
 />
    <glyph glyph-name="_FSHallmark" horiz-adv-x="1784" 
d="M92 1294v190h1604v-190h-1604zM1350 396q-92 0 -173 33q-83 33 -132 99q-51 65 -51 158l186 -4q0 -8 12 -32q3 -26 28 -48q18 -21 46 -32q32 -20 92 -20q28 0 53 5q20 4 51 17q34 22 34 52q0 58 -152 88q-67 20 -133 44q-54 18 -101 44q-44 20 -70 62q-26 38 -26 96
q0 86 55 137q56 52 149 87q5 0 13 1.5t23 4t26 4.5q39 4 70 4q85 0 160 -28t123 -87q47 -59 47 -143h-192q0 29 -14 46q-18 18 -36 32q-10 3 -20 10q-9 3 -11 4q-3 0 -8 2t-7 2l-24 6q-15 4 -22 4q-26 0 -55 -10q-30 -10 -51 -30q-22 -19 -22 -46t8 -48q6 -21 28 -30l15 -5
q7 -5 21 -9q30 -13 46 -14l130 -34l28 -6q15 -6 30 -6l24 -6q14 -4 20 -8l40 -18q36 -22 62 -52q18 -42 24 -88q1 -3 1 -13q0 -13 -5 -35q-3 -15 -16 -46q-45 -79 -131 -111q-87 -33 -193 -33zM92 396v798h674v-180h-464v-182h388v-178h-388v-258h-210zM844 400
q-16 0 -32 10q-22 12 -30 20q-14 12 -26 30q-8 11 -8 34q0 39 30 66q26 26 66 26q38 0 78 -28q32 -26 32 -64t-32 -70q-36 -24 -78 -24zM88 108v190h1606v-190h-1606z" />
    <glyph glyph-name="_Fontastica" horiz-adv-x="1394" 
d="M94 322q-2 0 -6 4v1182h884v-174h-682v-490h682v-182h-682v-340h-196zM422 322v184h682v482h-682v188h682v332h202v-1186h-884zM280 128q-29 0 -50 18q-22 16 -22 48q0 26 22 48q21 18 50 18q22 0 33 -7t25 -27q10 -16 10 -32q0 -29 -20 -46q-20 -20 -48 -20zM798 128
q-34 0 -60 20l14 26q8 -8 22 -14t24 -6q16 0 16 12q0 2 -2 4q-2 0 -2 4q0 2 -2 2l-4 2q-3 0 -14 4t-14 4q-1 -1 -3 -1q-4 0 -11 7q-9 7 -10 10q-6 6 -6 20q0 21 18 30q14 8 34 8q26 0 52 -14l-14 -28q-14 14 -42 14q-4 0 -6 2q-1 1 -2 1q-2 -2 -2 -3l-2 -8q0 -2 2 -2v-4
q0 -4 4 -4q0 -2 2 -2q20 0 40 -13q20 -14 20 -31q0 -20 -16 -30q-19 -10 -36 -10zM1096 128q-42 0 -58 34q-10 16 -10 32q0 15 11 35t23 23l16 6q8 2 18 2q15 0 30 -6q12 -6 22 -16l-20 -24q-1 4 -13 12q-11 6 -17 6q-5 0 -16 -4q-12 -8 -14 -14q-4 -7 -4 -20q0 -7 5 -19
t11 -13q3 -3 8 -4q6 -2 10 -2q6 0 16 6q8 4 14 10l20 -20q-9 -11 -23 -17q-13 -7 -29 -7zM106 130v128h96v-26h-62v-30h58v-26h-58v-46h-34zM364 130v128h30l58 -78v78h32v-128h-30l-58 76v-76h-32zM536 130v100h-38v28h108v-28h-36v-100h-34zM594 130l54 128h34l54 -128
h-36l-8 24h-56l-8 -24h-34zM894 130v100h-38v28h108v-28h-38v-100h-32zM978 130v128h34v-128h-34zM1148 130l56 128h34l54 -128h-36l-10 24h-54l-10 -24h-34zM280 154q17 0 26 12q8 11 8 28q0 15 -10 26q-10 12 -24 12q-16 0 -26 -10q-10 -13 -10 -28q0 -17 10 -28
q10 -12 26 -12zM646 178h36l-18 46zM1202 178h34l-18 46z" />
    <glyph glyph-name="_www.fontastica.com" horiz-adv-x="3962" 
d="M92 720q-2 0 -4 2v418h316v-62h-244v-174h244v-64h-244v-120h-68zM206 720v64h244v172h-244v66h244v118h72v-420h-316zM2528 754q-37 0 -86 17q-47 16 -76 39l36 72q22 -19 62 -36q38 -18 64 -18q21 0 32 8q14 8 14 22q0 7 -2 13q-4 6 -8 7q-3 1 -12 8q-2 1 -4.5 2.5
t-4 2t-3.5 1.5l-4 2q-3 0 -8 1.5t-7 2.5q-3 1 -8 2.5t-7 1.5q-7 1 -16 5q-12 4 -18 5q-8 2 -28 10q-13 5 -20 12q-34 18 -34 74q0 54 41 81t97 27q33 0 74 -10q36 -12 66 -30l-34 -72q-17 9 -56 26q-29 10 -58 10q-36 0 -36 -24q0 -7 11 -18t19 -14l20 -5q12 -3 30 -9
q27 -9 48 -18q7 -5 22 -12q20 -20 27 -35t7 -43q0 -34 -18 -58q-20 -29 -54 -38q-36 -12 -68 -12zM1114 752q-52 0 -95 24q-42 22 -68 65q-25 40 -25 93q0 54 25 94q25 42 67 64q43 22 96 22t96 -22q41 -21 68 -64q24 -40 24 -94q0 -53 -25 -93q-26 -43 -68 -65
q-43 -24 -95 -24zM3340 752q-50 0 -92 24t-66 66t-24 92q0 53 25 93q25 42 67 64q43 23 94 23q42 0 78 -14q32 -13 62 -46l-52 -64q-14 20 -38 34q-24 12 -48 12q-45 0 -70 -28q-26 -29 -26 -72q0 -42 27 -72t69 -30q27 0 48 12q17 7 38 28l54 -56q-30 -30 -66 -46
q-38 -20 -80 -20zM646 760v348h260v-72h-170v-78h156v-74h-156v-124h-90zM1348 760v348h80l160 -210l-2 210h86v-348h-80l-158 208v-208h-86zM1814 760v274h-104v74h300v-74h-106v-274h-90zM1972 760l150 348h94l146 -348h-96l-24 60h-152l-24 -60h-94zM2788 760v274h-104
v74h300v-74h-104v-274h-92zM3022 760v348h90v-348h-90zM3484 760l150 348h94l146 -348h-98l-22 60h-152l-24 -60h-94zM1116 830q41 0 68 32q26 32 26 72q0 41 -26 72q-26 30 -68 30t-70 -28q-26 -29 -26 -74q0 -43 27 -73q27 -31 69 -31zM2118 890h96l-46 126zM3630 890h96
l-48 126z" />
    </font>
</defs>
</svg>
